# Blender v2.79 (sub 0) OBJ File: 'Fixing models.blend'
# www.blender.org
mtllib cliffGrey_waterfallTop.mtl
o cliffGrey_waterfallTop
v -0.000000 10.000000 -3.136575
v 1.875000 10.000000 -0.000002
v 2.099810 10.000000 -0.617061
v 2.283319 10.000000 -1.939396
v 2.179693 10.000000 -0.939855
v 2.271754 10.000000 -1.603234
v 2.623019 10.000000 -0.303079
v 9.999999 9.181817 -3.779976
v 8.471899 9.181818 -3.340263
v 2.822126 -0.000001 -4.214211
v 2.150841 9.181817 -3.698921
v 2.150841 10.000000 -3.055521
v 7.957304 9.499999 -2.548788
v 8.521754 10.000000 -1.603234
v 8.533319 10.000000 -1.939397
v 8.487134 10.000000 -2.609481
v 8.248019 10.000000 -0.303079
v 8.349810 10.000000 -0.617061
v 8.429692 10.000000 -0.939856
v 8.487134 10.000000 -1.269312
v 8.521754 10.000000 -2.275559
v 7.804692 10.000000 -0.939856
v 1.239546 -0.000001 -4.105895
v 9.999999 -0.000000 -0.000001
v 1.239546 9.181818 -3.301647
v -0.000000 9.181817 -3.779975
v 7.957304 -0.000001 -3.996435
v 9.999999 -0.000001 -4.584223
v 1.239546 10.000000 -2.658248
v 2.336769 10.000000 -3.136575
v 0.000000 10.000000 -0.000002
v 2.500000 10.000000 -0.000002
v 7.724810 9.499999 -0.617061
v 7.724810 10.000000 -0.617061
v 7.896753 10.000000 -1.603234
v 7.862134 9.499999 -1.269312
v 7.862134 10.000000 -1.269312
v 7.896753 9.499999 -1.603234
v 7.902537 10.000000 -1.771315
v 2.908320 10.000000 -1.939396
v 2.862135 9.499999 -2.609481
v 2.862135 9.499999 -1.269312
v 2.804693 9.499999 -0.939855
v 2.862135 10.000000 -1.269312
v 7.957304 10.000000 -2.548788
v 7.902537 9.499999 -1.771315
v 2.804693 10.000000 -0.939855
v 7.623019 10.000000 -0.303079
v 8.471899 10.000000 -2.696863
v 1.998020 10.000000 -0.303079
v 2.237135 10.000000 -1.269312
v 2.836681 10.000000 -2.755468
v 2.724810 10.000000 -0.617061
v 2.862135 10.000000 -2.609481
v 2.896754 10.000000 -1.603234
v 2.896754 10.000000 -2.275559
v 2.271754 10.000000 -2.275558
v 2.237135 10.000000 -2.609481
v 2.179693 10.000000 -2.938937
v -0.000000 -0.000001 -4.584222
v 9.999999 10.000000 -3.136576
v 7.957304 -0.000001 -4.584223
v 2.822126 -0.000001 -4.584223
v 2.336769 -0.000001 -4.584222
v 0.000000 0.000000 -0.000000
v 9.999999 10.000000 -0.000003
v 7.499999 9.499999 -0.000003
v 7.499999 10.000000 -0.000003
v 8.124999 10.000000 -0.000003
v 2.500000 9.499999 -0.000002
v 2.822126 6.972264 -4.584224
v 7.957304 7.302200 -4.571938
v 7.957304 6.972264 -4.584224
v 2.822126 7.939587 -4.474899
v 7.957304 9.499999 -2.838947
v 7.957304 9.371171 -3.351118
v 7.957304 9.295868 -3.510854
v 7.957304 9.205440 -3.662541
v 7.957304 8.418024 -4.322754
v 7.957304 8.236131 -4.391809
v 7.957304 7.939587 -4.474900
v 7.957304 7.626490 -4.535287
v 2.623019 9.499999 -0.303079
v 2.724810 9.499999 -0.617061
v 2.896754 9.499999 -1.603234
v 2.908320 9.499999 -1.939396
v 2.896754 9.499999 -2.275558
v 2.822126 9.499999 -2.838946
v 7.623019 9.499999 -0.303079
v 7.804692 9.499999 -0.939856
v 7.957304 9.499999 -2.621170
v 7.957304 8.560731 -4.253659
v 2.822126 8.560731 -4.253658
v 7.957304 8.711472 -4.161663
v 2.822126 8.711472 -4.161662
v 7.957304 8.852588 -4.055492
v 2.822126 8.982753 -3.936147
v 7.957304 9.100740 -3.804751
v 2.822126 9.100740 -3.804751
v 7.957304 8.982753 -3.936148
v 2.822126 9.205440 -3.662540
v 2.822126 9.295868 -3.510853
v 2.822126 9.371171 -3.351117
v 2.822126 9.430642 -3.184837
v 7.957304 9.430642 -3.184837
v 7.957304 9.473721 -3.013576
v 2.822126 9.473721 -3.013576
v 2.822126 8.852588 -4.055492
v 2.822126 8.418024 -4.322753
v 2.822126 8.236131 -4.391809
v 2.822126 7.626490 -4.535286
v 2.822126 7.302200 -4.571938
vt 0.000000 0.000000
vt 4.880104 10.465534
vt 0.000000 12.348714
vt 7.381890 0.000000
vt 8.467880 12.029603
vt 7.866220 1.193215
vt 8.266970 2.429364
vt 8.581469 3.700209
vt 8.581469 11.570609
vt 8.807619 4.997281
vt 8.807619 10.273538
vt 8.943915 6.311935
vt 8.943915 8.958883
vt 8.989449 7.635409
vt -34.989384 30.818783
vt -41.950115 26.781229
vt -35.689854 26.781229
vt -41.249645 30.818783
vt -8.655745 27.467644
vt -13.581892 23.496773
vt -9.668013 23.496773
vt -12.569624 27.467644
vt 39.370079 0.000000
vt 32.472519 1.193215
vt 31.988190 0.000000
vt 32.873268 2.429364
vt 33.187767 3.700209
vt 33.413918 4.997281
vt 33.550217 6.311935
vt 33.595749 7.635409
vt 39.370079 12.348714
vt 33.550217 8.958883
vt 33.413918 10.273538
vt 33.353935 10.617560
vt 5.357653 20.933533
vt -0.785137 24.928637
vt 0.126804 20.933533
vt 4.445712 24.928637
vt -12.569624 38.022453
vt -13.368157 38.022453
vt -8.655745 38.022453
vt 7.381890 39.370079
vt 0.000000 39.370079
vt 9.842520 39.370079
vt 9.842520 0.000000
vt 9.199881 12.348714
vt 11.168038 10.848290
vt 10.326850 1.193215
vt 10.727600 2.429364
vt 11.042098 3.700209
vt 11.268250 4.997281
vt 11.268250 10.273538
vt 11.404546 6.311935
vt 11.450079 7.635409
vt 11.404546 8.958883
vt 31.327974 10.034587
vt 31.112352 6.973672
vt 31.089584 6.311935
vt 30.953289 4.997281
vt 30.727139 3.700209
vt 30.412640 2.429364
vt 30.011890 1.193215
vt 29.527559 0.000000
vt 4.989553 37.401573
vt 3.701789 39.370079
vt 3.701789 37.401573
vt -9.142684 39.370079
vt -12.211185 39.370079
vt -9.142684 37.401573
vt -12.211185 37.401573
vt -10.319557 37.401573
vt -10.034587 37.401573
vt -10.034587 39.370079
vt -10.973288 39.370079
vt -9.664105 37.401573
vt -9.664105 39.370079
vt -10.973288 37.401573
vt 9.102414 37.401573
vt 8.185377 39.370079
vt 8.185377 37.401573
vt 8.768802 39.370079
vt -11.689937 39.370079
vt -10.390450 37.401573
vt -10.390450 39.370079
vt -11.689937 37.401573
vt -12.393130 39.370079
vt -11.105366 37.401573
vt -11.105366 39.370079
vt -12.393130 37.401573
vt -9.484302 39.370079
vt -8.162601 37.401573
vt -8.162601 39.370079
vt -9.484302 37.401573
vt -8.039315 39.370079
vt -7.377186 37.401573
vt -7.377186 39.370079
vt -8.039315 37.401573
vt -10.239665 39.370079
vt -8.923025 37.401573
vt -8.923025 39.370079
vt -10.239665 37.401573
vt 8.561452 37.401573
vt 7.237195 39.370079
vt 7.237195 37.401573
vt 8.561452 39.370079
vt 9.056763 37.401573
vt 7.735063 39.370079
vt 7.735063 37.401573
vt 9.056763 39.370079
vt 8.024593 37.401573
vt 6.700336 39.370079
vt 6.700336 37.401573
vt 8.024593 39.370079
vt 4.989553 39.370079
vt 6.858489 37.401573
vt 5.541850 39.370079
vt 5.541850 37.401573
vt 6.858489 39.370079
vt 7.454343 37.401573
vt 6.132643 39.370079
vt 6.132643 37.401573
vt 7.454343 39.370079
vt 6.244446 37.401573
vt 4.935265 39.370079
vt 4.935265 37.401573
vt 6.244446 39.370079
vt 5.619250 37.401573
vt 4.319764 39.370079
vt 4.319764 37.401573
vt 5.619250 39.370079
vt 0.170308 37.350658
vt -2.304549 37.350658
vt -2.059726 35.369152
vt 1.222867 -2.279468
vt 3.625669 -2.279468
vt 1.266730 -2.253637
vt 6.497579 -2.253637
vt -0.785137 37.473888
vt 4.445712 37.473888
vt 0.000000 0.000000
vt 18.048120 0.000000
vt 0.000000 39.370079
vt 12.348714 39.370079
vt -31.327974 15.733994
vt -39.370079 0.000000
vt -11.110736 16.591381
vt -4.880104 16.164942
vt -0.000000 0.000000
vt -0.000000 18.048120
vt -9.199881 18.048120
vt -39.370079 18.048120
vt -10.933348 -1.692770
vt -15.645761 -1.692770
vt -12.348714 39.370079
vt -18.048120 0.000000
vt 39.370079 0.000000
vt 39.370079 39.370079
vt 29.527559 37.401573
vt 9.842520 37.401573
vt -32.881214 38.859474
vt -34.989384 38.859474
vt -32.960014 36.872013
vt -41.249645 38.859474
vt -34.457272 -0.889770
vt -42.825706 -0.889770
vt 29.527559 39.370079
vt 31.988190 39.370079
vt -11.110736 18.048120
vt -31.327974 18.048120
vt 15.733994 0.000000
vt 11.176946 37.401573
vt 10.319557 37.401573
vt 11.864463 37.298111
vt 12.538718 37.128513
vt 13.193367 36.894375
vt 13.822248 36.597908
vt 14.419440 36.241894
vt 14.979325 35.829689
vt 15.496634 35.365173
vt 15.966496 34.852715
vt 18.048120 0.000000
vt 16.384489 34.297138
vt 16.746679 33.703671
vt 17.018707 33.141830
vt 17.290577 32.425716
vt 17.617706 31.258217
vt 17.855452 30.025555
vt 17.999746 28.748821
vt 18.048120 27.449862
vt -11.110736 0.000000
vt -31.327974 27.449862
vt -31.327974 0.000000
vt 29.527559 0.000000
vt 10.326850 1.193215
vt 9.842520 0.000000
vt 10.727600 2.429364
vt 11.042098 3.700209
vt 11.268250 4.997281
vt 11.404546 6.311935
vt 11.450079 7.635409
vt 31.327974 11.176946
vt 11.404546 8.958883
vt 11.268250 10.273538
vt 30.011890 1.193215
vt 30.412640 2.429364
vt 30.727139 3.700209
vt 30.953289 4.997281
vt 31.112352 6.973672
vt 31.089584 6.311935
vt 31.327974 10.034587
vt -11.864463 37.298111
vt -16.591381 0.000000
vt -11.176946 37.401573
vt -12.538718 37.128513
vt -13.193367 36.894375
vt -13.822248 36.597908
vt -14.419440 36.241894
vt -14.979325 35.829689
vt -15.496634 35.365173
vt -15.966496 34.852715
vt -16.384489 34.297138
vt -16.746679 33.703671
vt -18.048120 0.000000
vt -17.018707 33.141830
vt -17.290577 32.425716
vt -17.617706 31.258217
vt -17.855452 30.025555
vt -17.999746 28.748821
vt -18.048120 27.449862
vt -11.110736 26.759190
vt -31.327974 28.059050
vt -31.327974 26.759190
vt -11.110736 28.059050
vt -11.110736 25.345655
vt -31.327974 26.558121
vt -31.327974 25.345655
vt -11.110736 26.558121
vt -11.110736 26.100708
vt -31.327974 27.356089
vt -31.327974 26.100708
vt -11.110736 27.356089
vt -11.110736 26.545521
vt -31.327974 27.830383
vt -31.327974 26.545521
vt -11.110736 27.830383
vt -11.110736 27.449862
vt 11.110736 11.176946
vt 31.327974 10.319557
vt -11.110736 22.412987
vt -31.327974 23.037218
vt -31.327974 22.412987
vt -11.110736 23.037218
vt -11.110736 20.045038
vt -31.327974 20.740297
vt -31.327974 20.045038
vt -11.110736 20.740297
vt -11.110736 17.556187
vt -31.327974 18.251446
vt -31.327974 17.556187
vt -11.110736 18.251446
vt -11.110736 14.898830
vt -31.327974 15.594090
vt -31.327974 14.898830
vt -11.110736 15.594090
vt -31.327974 12.793237
vt -11.110736 12.097979
vt -11.110736 12.793237
vt -31.327974 12.097979
vt -11.110736 9.875250
vt -31.327974 9.179992
vt -11.110736 9.179992
vt -31.327974 9.875250
vt -31.327974 6.867591
vt -11.110736 6.172333
vt -11.110736 6.867591
vt -31.327974 6.172333
vt -11.110736 3.798569
vt -31.327974 3.103311
vt -11.110736 3.103311
vt -31.327974 3.798569
vt -31.327974 0.697067
vt -11.110736 0.001809
vt -11.110736 0.697067
vt -31.327974 0.001809
vt -11.110736 -2.407723
vt -31.327974 -3.102982
vt -11.110736 -3.102982
vt -31.327974 -2.407723
vt -31.327974 -5.486581
vt -11.110736 -6.181840
vt -11.110736 -5.486581
vt -31.327974 -6.181840
vt -11.110736 24.177649
vt -31.327974 24.943632
vt -31.327974 24.177649
vt -11.110736 24.943632
vn 0.0000 1.0000 0.0000
vn -0.2206 0.6029 -0.7667
vn -0.3242 0.5848 -0.7436
vn 0.2903 0.5915 -0.7522
vn 0.0000 -1.0000 0.0000
vn 0.0000 0.0000 1.0000
vn 0.9266 -0.0000 0.3761
vn -0.9986 -0.0000 -0.0523
vn -0.9979 0.0000 -0.0644
vn -0.9994 0.0000 -0.0352
vn -1.0000 0.0000 0.0000
vn -0.9785 -0.0000 -0.2061
vn -0.9616 0.0000 -0.2745
vn 0.9851 -0.0000 -0.1718
vn 0.9905 0.0000 -0.1375
vn -0.9395 -0.0000 -0.3425
vn -0.9266 -0.0000 -0.3761
vn -0.9976 -0.0000 -0.0688
vn -0.9905 0.0000 -0.1375
vn 0.9976 -0.0000 -0.0688
vn 1.0000 0.0000 -0.0000
vn 0.9976 0.0000 0.0688
vn 0.9451 0.0000 0.3268
vn 0.9395 0.0000 0.3425
vn 0.9905 0.0000 0.1375
vn 0.9785 0.0000 0.2061
vn 0.9616 -0.0000 0.2745
vn 0.6023 0.1144 -0.7900
vn 0.3568 0.1338 -0.9246
vn -0.3961 0.1315 -0.9087
vn -0.2739 0.1378 -0.9518
vn 0.0000 -0.0000 -1.0000
vn -0.0000 0.0186 -0.9998
vn -0.0000 0.0748 -0.9972
vn -0.0000 0.0233 -0.9997
vn -0.0000 0.2298 -0.9732
vn -0.0000 0.3127 -0.9499
vn -0.0000 0.1510 -0.9885
vn -0.0000 0.9895 -0.1447
vn -0.0000 0.9969 -0.0789
vn -0.0000 0.3957 -0.9184
vn 0.0000 0.4789 -0.8779
vn -0.0000 0.5617 -0.8273
vn -0.0000 0.6393 -0.7690
vn -0.0000 0.7108 -0.7034
vn -0.0000 0.7756 -0.6312
vn -0.0000 0.8331 -0.5531
vn -0.0000 0.8828 -0.4698
vn -0.0000 0.9241 -0.3820
vn -0.0000 0.9568 -0.2907
vn -0.0000 0.9805 -0.1966
usemtl natureKit-leavesGreen
s off
f 31/1/1 29/2/1 1/3/1
f 29/2/1 31/1/1 2/4/1
f 29/2/1 2/4/1 12/5/1
f 12/5/1 2/4/1 50/6/1
f 12/5/1 50/6/1 3/7/1
f 12/5/1 3/7/1 5/8/1
f 12/5/1 5/8/1 59/9/1
f 59/9/1 5/8/1 51/10/1
f 59/9/1 51/10/1 58/11/1
f 58/11/1 51/10/1 6/12/1
f 58/11/1 6/12/1 57/13/1
f 57/13/1 6/12/1 4/14/1
f 49/15/2 8/16/2 9/17/2
f 8/16/2 49/15/2 61/18/2
f 29/19/3 11/20/3 25/21/3
f 11/20/3 29/19/3 12/22/3
f 66/23/1 17/24/1 69/25/1
f 17/24/1 66/23/1 18/26/1
f 18/26/1 66/23/1 19/27/1
f 19/27/1 66/23/1 20/28/1
f 20/28/1 66/23/1 14/29/1
f 14/29/1 66/23/1 15/30/1
f 15/30/1 66/23/1 61/31/1
f 61/31/1 21/32/1 15/30/1
f 61/31/1 16/33/1 21/32/1
f 16/33/1 61/31/1 49/34/1
f 26/35/4 29/36/4 25/37/4
f 29/36/4 26/35/4 1/38/4
s 1
f 12/39/5 30/40/5 29/41/5
f 2/42/6 31/43/6 32/44/6
usemtl natureKit-wood
s off
f 2/4/1 32/45/1 50/6/1
f 3/7/1 50/6/1 32/45/1
f 5/8/1 3/7/1 32/45/1
f 51/10/1 5/8/1 32/45/1
f 6/12/1 51/10/1 32/45/1
f 4/14/1 6/12/1 32/45/1
f 30/46/1 4/14/1 32/45/1
f 12/5/1 59/9/1 30/46/1
f 58/11/1 30/46/1 59/9/1
f 57/13/1 30/46/1 58/11/1
f 4/14/1 30/46/1 57/13/1
f 52/47/1 30/46/1 32/45/1
f 7/48/1 52/47/1 32/45/1
f 53/49/1 52/47/1 7/48/1
f 47/50/1 52/47/1 53/49/1
f 44/51/1 52/47/1 47/50/1
f 54/52/1 52/47/1 44/51/1
f 55/53/1 54/52/1 44/51/1
f 40/54/1 56/55/1 55/53/1
f 15/30/1 21/32/1 14/29/1
f 14/29/1 16/33/1 20/28/1
f 21/32/1 16/33/1 14/29/1
f 17/24/1 49/34/1 69/25/1
f 18/26/1 49/34/1 17/24/1
f 19/27/1 49/34/1 18/26/1
f 20/28/1 49/34/1 19/27/1
f 16/33/1 49/34/1 20/28/1
f 49/34/1 45/56/1 69/25/1
f 45/56/1 39/57/1 69/25/1
f 39/57/1 35/58/1 69/25/1
f 35/58/1 37/59/1 69/25/1
f 37/59/1 22/60/1 69/25/1
f 22/60/1 34/61/1 69/25/1
f 34/61/1 48/62/1 69/25/1
f 68/63/1 69/25/1 48/62/1
f 83/64/7 32/65/7 70/66/7
f 54/52/1 55/53/1 56/55/1
s 1
f 39/67/8 45/68/9 46/69/8
f 13/70/10 46/69/8 45/68/9
f 91/71/11 13/72/10 45/73/9
f 22/74/12 33/75/13 34/76/13
f 33/75/13 22/74/12 90/77/12
f 88/78/14 54/79/15 41/80/15
f 54/79/15 88/78/14 52/81/14
f 34/82/13 89/83/16 48/84/16
f 89/83/16 34/82/13 33/85/13
f 48/86/16 67/87/17 68/88/17
f 67/87/17 48/86/16 89/89/16
f 35/90/18 36/91/19 37/92/19
f 36/91/19 35/90/18 38/93/18
f 39/94/8 38/95/18 35/96/18
f 38/95/18 39/94/8 46/97/8
f 37/98/19 90/99/12 22/100/12
f 90/99/12 37/98/19 36/101/19
f 87/102/20 40/103/21 86/104/21
f 40/103/21 87/102/20 56/105/20
f 41/106/15 56/107/20 87/108/20
f 56/107/20 41/106/15 54/109/15
f 86/110/21 55/111/22 85/112/22
f 55/111/22 86/110/21 40/113/21
f 32/65/7 83/64/23 7/114/24
f 42/115/25 47/116/26 43/117/26
f 47/116/26 42/115/25 44/118/25
f 85/119/22 44/120/25 42/121/25
f 44/120/25 85/119/22 55/122/22
f 43/123/26 53/124/27 84/125/27
f 53/124/27 43/123/26 47/126/26
f 84/127/27 7/128/24 83/129/23
f 7/128/24 84/127/27 53/130/27
usemtl natureKit-stone
s off
f 30/131/28 52/132/28 88/133/28
f 88/133/28 10/134/28 30/131/28
f 64/135/28 30/131/28 10/134/28
f 23/136/29 60/137/29 29/138/29
f 1/139/29 29/138/29 60/137/29
f 24/140/21 28/141/21 66/142/21
f 61/143/21 66/142/21 28/141/21
f 27/144/5 24/145/5 10/146/5
f 10/146/5 24/145/5 23/147/5
f 24/145/5 65/148/5 23/147/5
f 60/149/5 23/147/5 65/148/5
f 64/150/5 10/146/5 23/147/5
f 28/151/5 24/145/5 27/144/5
f 23/152/30 29/41/30 64/153/30
f 30/40/30 64/153/30 29/41/30
f 31/43/11 1/154/11 65/148/11
f 60/155/11 65/148/11 1/154/11
f 24/156/6 66/157/6 65/148/6
f 67/158/6 65/148/6 66/157/6
f 67/158/6 70/159/6 65/148/6
f 31/43/6 65/148/6 70/159/6
f 32/44/6 31/43/6 70/159/6
f 45/160/31 49/161/31 91/162/31
f 49/161/31 61/163/31 91/162/31
f 91/162/31 61/163/31 27/164/31
f 28/165/31 27/164/31 61/163/31
f 67/158/6 66/157/6 68/166/6
s 1
f 68/166/1 66/157/1 69/167/1
usemtl natureKit-water
s off
f 63/168/5 62/169/5 10/146/5
f 62/169/5 27/144/5 10/146/5
f 27/170/21 75/171/21 91/172/21
f 75/171/21 27/170/21 106/173/21
f 106/173/21 27/170/21 105/174/21
f 105/174/21 27/170/21 76/175/21
f 76/175/21 27/170/21 77/176/21
f 77/176/21 27/170/21 78/177/21
f 78/177/21 27/170/21 98/178/21
f 98/178/21 27/170/21 100/179/21
f 100/179/21 27/170/21 96/180/21
f 96/180/21 27/170/21 62/181/21
f 96/180/21 62/181/21 94/182/21
f 94/182/21 62/181/21 92/183/21
f 92/183/21 62/181/21 79/184/21
f 79/184/21 62/181/21 80/185/21
f 80/185/21 62/181/21 81/186/21
f 81/186/21 62/181/21 82/187/21
f 82/187/21 62/181/21 72/188/21
f 72/188/21 62/181/21 73/189/21
f 63/190/32 73/191/32 62/192/32
f 67/193/1 83/194/1 70/195/1
f 83/194/1 67/193/1 84/196/1
f 84/196/1 67/193/1 43/197/1
f 43/197/1 67/193/1 42/198/1
f 42/198/1 67/193/1 85/199/1
f 85/199/1 67/193/1 86/200/1
f 75/201/1 86/200/1 67/193/1
f 75/201/1 87/202/1 86/200/1
f 75/201/1 41/203/1 87/202/1
f 75/201/1 67/193/1 89/204/1
f 75/201/1 89/204/1 33/205/1
f 75/201/1 33/205/1 90/206/1
f 75/201/1 90/206/1 36/207/1
f 75/201/1 36/207/1 46/208/1
f 46/208/1 36/207/1 38/209/1
f 75/201/1 46/208/1 13/210/1
f 107/211/11 10/212/11 88/213/11
f 10/212/11 107/211/11 104/214/11
f 10/212/11 104/214/11 103/215/11
f 10/212/11 103/215/11 102/216/11
f 10/212/11 102/216/11 101/217/11
f 10/212/11 101/217/11 99/218/11
f 10/212/11 99/218/11 97/219/11
f 10/212/11 97/219/11 108/220/11
f 10/212/11 108/220/11 95/221/11
f 10/212/11 95/221/11 93/222/11
f 10/212/11 93/222/11 63/223/11
f 63/223/11 93/222/11 109/224/11
f 63/223/11 109/224/11 110/225/11
f 63/223/11 110/225/11 74/226/11
f 63/223/11 74/226/11 111/227/11
f 63/223/11 111/227/11 112/228/11
f 63/223/11 112/228/11 71/229/11
s 1
f 71/230/33 72/231/34 73/232/35
f 72/231/34 71/230/33 112/233/34
f 74/234/36 80/235/37 81/236/36
f 80/235/37 74/234/36 110/237/37
f 111/238/38 81/239/36 82/240/38
f 81/239/36 111/238/38 74/241/36
f 112/242/34 82/243/38 72/244/34
f 82/243/38 112/242/34 111/245/38
f 73/191/35 63/190/32 71/246/33
f 41/203/1 75/201/39 88/247/40
f 75/201/1 13/210/1 91/248/1
f 109/249/41 92/250/42 79/251/41
f 92/250/42 109/249/41 93/252/42
f 93/253/42 94/254/43 92/255/42
f 94/254/43 93/253/42 95/256/43
f 95/257/43 96/258/44 94/259/43
f 96/258/44 95/257/43 108/260/44
f 108/261/44 100/262/45 96/263/44
f 100/262/45 108/261/44 97/264/45
f 98/265/46 97/266/45 99/267/46
f 97/266/45 98/265/46 100/268/45
f 101/269/47 98/270/46 99/271/46
f 98/270/46 101/269/47 78/272/47
f 77/273/48 101/274/47 102/275/48
f 101/274/47 77/273/48 78/276/47
f 103/277/49 77/278/48 102/279/48
f 77/278/48 103/277/49 76/280/49
f 105/281/50 103/282/49 104/283/50
f 103/282/49 105/281/50 76/284/49
f 107/285/51 105/286/50 104/287/50
f 105/286/50 107/285/51 106/288/51
f 75/289/39 107/290/51 88/291/40
f 107/290/51 75/289/39 106/292/51
f 110/293/37 79/294/41 80/295/37
f 79/294/41 110/293/37 109/296/41
