# Blender v2.79 (sub 0) OBJ File: 'Fixing models.blend'
# www.blender.org
mtllib cliffGrey_cornerInnerTop.mtl
o cliffGrey_cornerInnerTop
v 4.584221 -0.000000 -3.585616
v 3.136573 9.999999 -3.585618
v 3.125880 -0.000001 -5.750273
v 9.999999 10.000000 -0.000003
v -0.000001 9.999999 -10.000002
v 4.584221 -0.000001 -7.663231
v 0.000000 0.000000 -0.000000
v -0.000001 -0.000001 -10.000000
v 9.999999 -0.000001 -4.584223
v 4.249727 0.797118 -3.010486
v 4.464103 -0.000000 -3.270307
v 1.678231 9.999999 -5.750275
v 3.779973 9.181817 -3.585618
v 3.779972 9.181817 -7.663233
v 3.379958 9.386363 -8.211843
v 3.660390 9.181817 -7.937539
v 3.421226 9.181817 -8.486150
v 9.999999 10.000000 -3.136576
v 3.136572 9.999999 -7.663233
v 3.415386 9.181817 -7.184993
v 2.321630 9.181817 -5.750274
v 2.686216 9.181817 -6.228514
v 2.729102 9.590908 -6.706754
v 4.584221 -0.000001 -10.000000
v 3.779972 9.181817 -10.000002
v 2.658245 9.999999 -8.760455
v 3.301644 9.181817 -8.760455
v 3.136572 9.999999 -10.000002
v 9.999999 9.181817 -3.779976
v 7.957304 10.000000 -2.548788
v 0.000000 10.000000 -0.000002
v 4.105894 -0.000001 -8.760453
v 9.999999 -0.000000 -0.000001
v 6.414384 -0.000001 -4.584223
v 4.249727 9.181818 -2.321633
v 4.249727 10.000000 -1.678234
v 7.957304 -0.000001 -3.996435
v 6.803088 9.181817 -3.631895
v 7.185843 9.590909 -3.164382
v 6.414384 9.181817 -3.779975
v 7.957304 9.181818 -3.192188
v 7.568599 9.181818 -3.340268
v 3.631892 9.181818 -3.196913
v 6.414384 10.000000 -3.136576
v 2.824003 10.000000 -2.765134
v 3.771487 9.181818 -2.686219
v 3.220582 9.528749 -2.833381
v 3.293248 9.590909 -2.729105
vt 1.623421 -2.724480
vt 15.083774 36.928333
vt 4.807881 36.928333
vt 25.464909 0.450416
vt 31.479807 40.080540
vt 22.009548 40.080540
vt 34.935169 0.450416
vt 37.996922 -0.356578
vt 41.175903 39.370945
vt 35.945053 39.370945
vt 43.227768 -0.356578
vt 39.370079 39.370079
vt 0.000000 0.000000
vt 39.370079 0.000000
vt 0.000000 39.370079
vt -0.000000 0.000000
vt -12.348714 39.370079
vt -18.048120 0.000000
vt -0.000000 39.370079
vt 20.444019 -3.762460
vt 27.434034 35.952763
vt 22.721622 35.952763
vt 25.156431 -3.762460
vt 18.048120 0.000000
vt 0.000000 39.370079
vt 0.000000 0.000000
vt 12.348714 39.370079
vt -17.173891 -3.466240
vt -25.703238 36.262459
vt -23.674248 -3.466240
vt -19.202881 36.262459
vt -39.370079 39.370079
vt -39.370079 0.000000
vt -18.048120 39.370079
vt 0.000000 39.370079
vt -16.164942 34.489975
vt -12.306617 22.638868
vt -18.048120 30.170198
vt -17.575211 12.875224
vt -18.048120 14.116597
vt -39.370079 0.000000
vt -25.253483 18.048120
vt -31.327974 15.733994
vt -39.370079 18.048120
vt -34.457272 -0.889770
vt -41.249645 38.859474
vt -42.825706 -0.889770
vt -32.881214 38.859474
vt 17.032125 1.579554
vt 17.587904 38.141407
vt 14.131187 38.141407
vt 18.288490 -1.587294
vt 19.616894 -1.587294
vt -9.299952 37.350658
vt -6.120024 0.879523
vt -2.241784 37.350658
vt -20.498266 3.058507
vt -31.027998 -0.102292
vt -21.769773 -0.102292
vt -27.843538 39.550522
vt -17.567644 39.550522
vt 11.899314 -2.724480
vt 13.668459 19.227791
vt 4.807881 23.073486
vt 3.392565 19.227791
vt 15.083774 23.073486
vt 22.887457 14.296640
vt 22.721622 18.267509
vt 21.709354 14.296640
vt 27.434034 18.267509
vt 24.318628 15.289357
vt 25.243664 14.296640
vt 26.421766 14.296640
vt 12.348714 30.170198
vt 10.465534 34.489975
vt 6.607210 22.638868
vt 12.348714 39.370079
vt 0.000000 0.000000
vt 11.118123 10.886344
vt 16.731211 6.607210
vt 39.370079 0.000000
vt 25.253483 12.348714
vt 31.327974 10.034587
vt 39.370079 12.348714
vt 12.348714 14.116597
vt 25.912828 34.072327
vt 22.009548 37.871548
vt 23.545263 34.072327
vt 27.512535 35.971935
vt 31.479807 37.871548
vt 30.647959 34.072327
vt 33.015522 34.072327
vt 42.087845 29.317736
vt 35.945053 33.312840
vt 36.856995 29.317736
vt 41.175903 33.312840
vt -32.881214 30.818783
vt -41.950115 26.781229
vt -33.581684 26.781229
vt -41.249645 30.818783
vt -17.567644 35.090054
vt -29.258854 31.244356
vt -18.982960 31.244356
vt -27.843538 35.090054
vt -19.202881 19.568073
vt -19.938730 15.570661
vt -18.301107 15.570661
vt -22.002172 17.569366
vt -25.703238 19.568073
vt -24.801464 15.570661
vt -23.163843 15.570661
vt 14.938113 25.565279
vt 17.587904 27.867676
vt 14.131187 27.867676
vt 16.852055 23.870264
vt 18.489677 23.870264
vt -2.241784 25.215658
vt -3.796964 23.316048
vt -3.320555 23.027414
vt -9.299952 25.215658
vt -7.764235 21.416437
vt -5.396671 21.416437
vn 0.8234 0.1192 -0.5548
vn 0.7900 0.1144 0.6023
vn 0.9246 0.1338 0.3568
vn 0.0000 0.0000 1.0000
vn 0.0000 -0.0000 -1.0000
vn 0.9087 0.1315 -0.3961
vn 0.9087 0.1316 -0.3961
vn 1.0000 -0.0000 0.0000
vn 0.3528 0.1341 -0.9261
vn -1.0000 0.0000 0.0000
vn 0.0000 -1.0000 0.0000
vn -0.2739 0.1378 -0.9518
vn 0.9261 0.1341 0.3528
vn 0.6023 0.1144 -0.7900
vn -0.5548 0.1192 -0.8234
vn 0.6947 0.5463 -0.4680
vn 0.7436 0.5848 -0.3242
vn 0.0000 1.0000 -0.0000
vn 0.6743 0.5302 0.5140
vn 0.7522 0.5915 0.2903
vn -0.2206 0.6029 -0.7667
vn -0.4680 0.5463 -0.6947
vn 0.2869 0.5922 -0.7530
vn 0.7530 0.5922 0.2869
vn 0.5140 0.5302 -0.6743
usemtl natureKit-stone
s off
f 1/1/1 12/2/1 2/3/1
f 3/4/2 19/5/2 12/6/2
f 19/5/2 3/4/2 6/7/2
f 32/8/3 28/9/3 26/10/3
f 28/9/3 32/8/3 24/11/3
f 4/12/4 7/13/4 33/14/4
f 7/13/4 4/12/4 31/15/4
f 8/16/5 28/17/5 24/18/5
f 28/17/5 8/16/5 5/19/5
f 6/20/6 26/21/6 19/22/6
f 26/21/7 6/20/7 32/23/7
f 9/24/8 4/25/8 33/26/8
f 4/25/8 9/24/8 18/27/8
f 34/28/9 30/29/9 37/30/9
f 30/29/9 34/28/9 44/31/9
f 5/32/10 7/13/10 31/15/10
f 7/13/10 5/32/10 8/33/10
f 24/34/11 7/13/11 8/35/11
f 7/13/11 24/34/11 32/36/11
f 7/13/11 32/36/11 3/37/11
f 6/38/11 3/37/11 32/36/11
f 11/39/11 7/13/11 3/37/11
f 1/40/11 11/39/11 3/37/11
f 7/13/11 11/39/11 33/41/11
f 33/41/11 11/39/11 34/42/11
f 33/41/11 34/42/11 37/43/11
f 33/41/11 37/43/11 9/44/11
f 37/45/12 18/46/12 9/47/12
f 18/46/12 37/45/12 30/48/12
f 10/49/13 2/50/13 45/51/13
f 2/50/13 10/49/13 11/52/13
f 2/50/13 11/52/13 1/53/13
f 36/54/14 10/55/14 45/56/14
f 10/57/15 34/58/15 11/59/15
f 34/58/15 10/57/15 44/60/15
f 44/60/15 10/57/15 36/61/15
s 1
f 12/2/1 1/1/1 3/62/1
usemtl natureKit-leavesGreen
s off
f 21/63/16 2/64/16 13/65/16
f 2/64/16 21/63/16 12/66/16
f 16/67/17 19/68/17 14/69/17
f 19/68/17 16/67/17 26/70/17
f 26/70/17 16/67/17 15/71/17
f 26/70/17 17/72/17 27/73/17
f 19/74/18 26/75/18 12/76/18
f 26/75/18 5/19/18 12/76/18
f 5/19/18 26/75/18 28/77/18
f 12/76/18 5/19/18 31/78/18
f 31/78/18 45/79/18 12/76/18
f 45/79/18 31/78/18 36/80/18
f 36/80/18 31/78/18 4/81/18
f 36/80/18 4/81/18 44/82/18
f 44/82/18 4/81/18 30/83/18
f 30/83/18 4/81/18 18/84/18
f 2/85/18 12/76/18 45/79/18
f 22/86/19 12/87/19 21/88/19
f 12/87/19 22/86/19 23/89/19
f 12/87/19 23/89/19 19/90/19
f 19/90/19 23/89/19 20/91/19
f 19/90/19 20/91/19 14/92/19
f 25/93/20 26/94/20 27/95/20
f 26/94/20 25/93/20 28/96/20
f 30/97/21 29/98/21 41/99/21
f 29/98/21 30/97/21 18/100/21
f 36/101/22 40/102/22 35/103/22
f 40/102/22 36/101/22 44/104/22
f 44/105/23 38/106/23 40/107/23
f 38/106/23 44/105/23 39/108/23
f 30/109/23 39/108/23 44/105/23
f 41/110/23 39/108/23 30/109/23
f 39/108/23 41/110/23 42/111/23
f 47/112/24 2/113/24 45/114/24
f 2/113/24 47/112/24 43/115/24
f 2/113/24 43/115/24 13/116/24
f 45/117/25 48/118/25 47/119/25
f 36/120/25 48/118/25 45/117/25
f 35/121/25 48/118/25 36/120/25
f 48/118/25 35/121/25 46/122/25
s 1
f 26/70/17 15/71/17 17/72/17
