# Blender v2.79 (sub 0) OBJ File: 'Fixing models.blend'
# www.blender.org
mtllib cliffGrey_blockQuarter.mtl
o cliffGrey_blockQuarter
v 9.999999 -0.000000 -0.000001
v -0.000001 2.499999 -10.000001
v 9.999998 -0.000001 -10.000001
v 0.000000 0.000000 0.000000
v -0.000001 -0.000001 -10.000000
v 9.999999 2.500000 -0.000001
v 9.999998 2.499999 -10.000001
v -0.000000 2.500000 -0.000001
vt 39.370079 9.842520
vt 0.000000 0.000000
vt 39.370079 0.000000
vt 0.000000 9.842520
vt 0.000000 9.842520
vt -39.370079 0.000000
vt 0.000000 0.000000
vt -39.370079 9.842520
vt -39.370079 9.842520
vt -39.370079 0.000000
vt -39.370079 39.370079
vt 0.000000 39.370079
vt -39.370079 0.000000
vt 39.370079 0.000000
vt 0.000000 9.842520
vt 0.000000 0.000000
vt 39.370079 9.842520
vt 39.370079 0.000000
vt 0.000000 39.370079
vt 0.000000 0.000000
vt 39.370079 39.370079
vn 0.0000 0.0000 1.0000
vn -0.0000 -0.0000 -1.0000
vn -1.0000 -0.0000 0.0000
vn 0.0000 -1.0000 0.0000
vn 1.0000 -0.0000 -0.0000
vn 0.0000 1.0000 -0.0000
usemtl natureKit-stone
s off
f 6/1/1 4/2/1 1/3/1
f 4/2/1 6/1/1 8/4/1
f 2/5/2 3/6/2 5/7/2
f 3/6/2 2/5/2 7/8/2
f 2/9/3 4/2/3 8/4/3
f 4/2/3 2/9/3 5/10/3
f 3/11/4 4/2/4 5/12/4
f 4/2/4 3/11/4 1/13/4
f 3/14/5 6/15/5 1/16/5
f 6/15/5 3/14/5 7/17/5
usemtl natureKit-leavesGreen
f 6/18/6 2/19/6 8/20/6
f 2/19/6 6/18/6 7/21/6
