# Blender v2.79 (sub 0) OBJ File: 'Fixing models.blend'
# www.blender.org
mtllib stone_small6.mtl
o stone_small6
v -0.707168 1.154560 1.224851
v 0.504515 1.154560 0.873845
v 0.929742 1.154560 0.839341
v -0.707168 1.154560 -1.224851
v -1.244615 1.154560 -0.293965
v 0.504515 1.154560 -0.873845
v -0.883960 0.000000 1.531064
v -1.767920 0.000000 0.000000
v 1.767920 -0.000000 -0.000000
v 1.414336 1.154560 -0.000000
v -1.613040 0.505731 0.000000
v 0.883960 -0.000000 -1.531064
v 0.849358 1.154560 -0.978571
v -0.883960 -0.000000 -1.531063
v 0.314666 2.453440 0.545017
v 0.883960 0.000000 1.531063
v 0.262020 1.154560 1.224851
v -0.629332 2.453440 -0.000000
v -0.442316 1.580105 -0.766113
v 1.009029 1.154560 -0.000000
v -0.504515 1.154560 0.873845
v -0.314666 2.453440 0.545017
v -1.009029 1.154560 -0.000000
v -0.504515 1.154560 -0.873845
v 0.314666 2.453440 -0.545018
v 0.629332 2.453440 -0.000001
v 0.071961 2.453440 -0.545018
v -0.426088 2.453440 -0.352028
v -1.171438 1.154560 0.420711
v 0.849358 0.225973 1.471131
v 0.767095 0.763197 -1.328649
v 0.262020 1.154560 -1.224851
vt -7.716536 -13.365432
vt -11.010412 0.000000
vt -12.782597 -4.590755
vt -5.505206 -9.535296
vt 2.859134 -13.365432
vt 5.505206 -9.535296
vt 10.145236 -9.158798
vt 11.010412 0.000000
vt 15.433071 0.000000
vt -7.716536 13.365432
vt -13.581100 3.207708
vt -5.505206 9.535296
vt 2.859134 13.365432
vt 5.505206 9.535296
vt 9.268095 10.678051
vt 9.645669 16.706789
vt 9.645669 -16.706789
vt 19.291338 0.000000
vt -9.645669 -16.706789
vt -9.645669 16.706789
vt -19.291338 0.000000
vt 4.012593 8.751088
vt 9.645669 -4.282906
vt 8.800652 1.426370
vt -9.645669 -4.282906
vt -7.716536 8.751088
vt 9.645669 -4.282906
vt -9.268095 -1.731866
vt -9.645669 -4.282906
vt -2.859134 8.751088
vt 7.716536 8.751088
vt 7.716536 8.751088
vt -9.645669 -4.282906
vt 9.645669 -4.282906
vt -2.415587 8.751088
vt 9.645669 -4.282906
vt -7.716536 8.751088
vt -9.645669 -4.282906
vt 4.613416 8.751088
vt 8.370458 4.332933
vt 7.716536 8.751088
vt -9.645669 -4.282906
vt 9.645669 -4.282906
vt -8.370458 4.332933
vt -2.859134 8.751088
vt -3.433597 -5.947165
vt -4.649426 3.841288
vt -6.867194 0.000000
vt 0.785226 5.947165
vt 3.433597 -5.947165
vt 3.433597 5.947165
vt 6.867194 0.000000
vt 9.268095 -1.731866
vt -9.645669 -4.282906
vt 9.645669 -4.282906
vt -7.716536 8.751088
vt 2.859134 8.751088
vt 3.433597 24.493338
vt -5.505206 9.872972
vt 5.505206 9.872972
vt -1.001941 24.493338
vt -4.826496 14.662961
vt 5.505206 9.872972
vt -3.433597 24.493338
vt -5.505206 9.872972
vt 3.433597 24.493338
vt 3.433597 24.493338
vt -5.505206 9.872972
vt 5.505206 9.872972
vt -3.433597 24.493338
vt 3.433597 24.493338
vt -5.505206 9.872972
vt 5.505206 9.872972
vt -3.433597 24.493338
vt 4.826496 14.662961
vt -5.505206 9.872972
vt 5.505206 9.872972
vt -3.433597 24.493338
vt -0.785226 24.493338
vt 5.505206 9.872972
vt -3.433597 24.493338
vt -5.505206 9.872972
vt 3.433597 24.493338
vt -2.880970 22.269857
vt 1.479954 11.824282
vt 2.947422 22.269857
vt -4.574392 3.876456
vt -1.792865 -4.420538
vt 3.264846 3.876456
vt -4.206633 4.826392
vt -0.000000 -6.717929
vt 4.206633 4.826392
vt -4.417941 2.094663
vt -2.112951 -3.227223
vt 2.531649 2.094663
vt -8.800652 1.426370
vn -0.0000 1.0000 0.0000
vn 0.0000 -1.0000 0.0000
vn -0.8371 0.2564 -0.4833
vn 0.8371 0.2564 0.4833
vn -0.8371 0.2564 0.4833
vn 0.8371 0.2564 -0.4833
vn -0.0000 0.2564 -0.9666
vn 0.0000 0.2564 0.9666
vn -0.8395 0.2454 -0.4847
vn 0.8395 0.2454 0.4847
vn 0.0000 0.2454 0.9694
vn -0.8395 0.2454 0.4847
vn 0.0000 0.2454 -0.9694
vn 0.8395 0.2454 -0.4847
vn -0.3296 0.4095 -0.8507
vn -0.8489 0.5214 0.0869
vn 0.4389 0.4792 0.7601
vn 0.3103 0.5967 -0.7400
usemtl natureKit-stone
s off
f 1/1/1 23/2/1 29/3/1
f 23/2/1 1/1/1 21/4/1
f 21/4/1 1/1/1 17/5/1
f 21/4/1 17/5/1 2/6/1
f 2/6/1 17/5/1 3/7/1
f 2/6/1 3/7/1 20/8/1
f 20/8/1 3/7/1 10/9/1
f 4/10/1 29/3/1 23/2/1
f 29/3/1 4/10/1 5/11/1
f 4/10/1 23/2/1 24/12/1
f 4/10/1 24/12/1 32/13/1
f 32/13/1 24/12/1 6/14/1
f 32/13/1 6/14/1 13/15/1
f 13/15/1 6/14/1 20/8/1
f 13/15/1 20/8/1 10/9/1
f 14/16/2 7/17/2 8/18/2
f 7/17/2 14/16/2 16/19/2
f 16/19/2 14/16/2 12/20/2
f 16/19/2 12/20/2 9/21/2
f 5/22/3 8/23/3 11/24/3
f 8/23/3 5/22/3 14/25/3
f 14/25/3 5/22/3 4/26/3
f 9/27/4 30/28/4 16/29/4
f 30/28/4 9/27/4 3/30/4
f 3/30/4 9/27/4 10/31/4
f 1/32/5 8/33/5 7/34/5
f 8/33/5 1/32/5 29/35/5
f 12/36/6 10/37/6 9/38/6
f 10/37/6 12/36/6 13/39/6
f 13/39/6 12/36/6 31/40/6
f 4/41/7 12/42/7 14/43/7
f 12/42/7 4/41/7 31/44/7
f 31/44/7 4/41/7 32/45/7
f 22/46/1 28/47/1 18/48/1
f 28/47/1 22/46/1 27/49/1
f 27/49/1 22/46/1 15/50/1
f 27/49/1 15/50/1 25/51/1
f 25/51/1 15/50/1 26/52/1
f 30/53/8 7/54/8 16/55/8
f 7/54/8 30/53/8 1/56/8
f 1/56/8 30/53/8 17/57/8
f 18/58/9 24/59/9 23/60/9
f 24/59/9 18/58/9 28/61/9
f 24/59/9 28/61/9 19/62/9
f 20/63/10 15/64/10 2/65/10
f 15/64/10 20/63/10 26/66/10
f 15/67/11 21/68/11 2/69/11
f 21/68/11 15/67/11 22/70/11
f 22/71/12 23/72/12 21/73/12
f 23/72/12 22/71/12 18/74/12
f 19/75/13 6/76/13 24/77/13
f 6/76/13 19/75/13 25/78/13
f 25/78/13 19/75/13 27/79/13
f 6/80/14 26/81/14 20/82/14
f 26/81/14 6/80/14 25/83/14
f 27/84/15 19/85/15 28/86/15
f 5/87/16 11/88/16 29/89/16
f 17/90/17 30/91/17 3/92/17
f 13/93/18 31/94/18 32/95/18
s 1
f 8/33/5 29/35/5 11/96/5
