# Blender v2.79 (sub 0) OBJ File: 'Fixing models.blend'
# www.blender.org
mtllib stone_small8.mtl
o stone_small8
v 1.077644 -0.000000 -1.077644
v 2.309120 1.298880 -0.000000
v 1.632794 1.298880 -1.632795
v -1.077644 0.000000 1.077644
v -1.632794 1.298880 1.632794
v 0.000000 1.298880 2.309120
v -1.632794 2.738960 1.632794
v -0.000000 1.298880 -2.309120
v -2.309120 2.738960 -0.000000
v -2.309120 1.298880 -0.000000
v 0.996005 4.073920 0.996004
v 1.632794 2.738960 1.632794
v 1.408563 4.073920 -0.000001
v 2.309120 2.738960 -0.000001
v -1.408563 4.073920 -0.000001
v -0.996005 4.073920 -0.996005
v -1.632794 1.298880 -1.632795
v -0.000000 2.738960 -2.309120
v 0.000000 0.000000 1.524019
v -1.077644 -0.000000 -1.077644
v -1.524019 0.000000 0.000000
v -0.000000 -0.000000 -1.524019
v 1.524019 -0.000000 -0.000000
v 0.000000 4.073920 1.408562
v 0.000000 2.738960 2.309119
v -0.996005 4.073920 0.996004
v 1.077644 0.000000 1.077644
v 1.632794 1.298880 1.632794
v 1.632794 2.738960 -1.632795
v 0.996005 4.073920 -0.996006
v -1.632794 2.738960 -1.632795
v -0.000000 4.073920 -1.408564
vt 6.363996 7.490925
vt -9.642417 23.724367
vt -6.363996 7.490925
vt 9.642417 23.724367
vt -9.642417 23.724367
vt 6.363996 7.490925
vt 9.642417 23.724367
vt -6.363996 7.490925
vt 9.642417 23.724367
vt -6.363996 7.490925
vt 6.363996 7.490925
vt -9.642417 23.724367
vt -9.642417 23.724367
vt 6.363996 7.490925
vt 9.642417 23.724367
vt -6.363996 7.490925
vt 9.642417 23.724367
vt -6.363996 7.490925
vt 6.363996 7.490925
vt -9.642417 23.724367
vt 9.642417 29.887215
vt -9.642417 14.173228
vt 9.642417 14.173228
vt -9.642417 29.887215
vt 9.642417 23.724367
vt -6.363996 7.490925
vt 6.363996 7.490925
vt -9.642417 23.724367
vt -9.642417 29.887215
vt 9.642417 14.173228
vt 9.642417 29.887215
vt -9.642417 14.173228
vt 9.642417 13.051490
vt -5.881875 30.215965
vt -9.642417 13.051490
vt 5.881875 30.215965
vt 9.642417 14.173228
vt -9.642417 29.887215
vt -9.642417 14.173228
vt 9.642417 29.887215
vt 9.642417 29.887215
vt -9.642417 14.173228
vt 9.642417 14.173228
vt -9.642417 29.887215
vt 5.881875 30.215965
vt -9.642417 13.051490
vt 9.642417 13.051490
vt -5.881875 30.215965
vt 5.881875 30.215965
vt -9.642417 13.051490
vt 9.642417 13.051490
vt -5.881875 30.215965
vt 9.642417 13.051490
vt -5.881875 30.215965
vt -9.642417 13.051490
vt 5.881875 30.215965
vt -9.642417 29.887215
vt 9.642417 14.173228
vt 9.642417 29.887215
vt -9.642417 14.173228
vt 9.642417 29.887215
vt -9.642417 14.173228
vt 9.642417 14.173228
vt -9.642417 29.887215
vt 5.881875 30.215965
vt -9.642417 13.051490
vt 9.642417 13.051490
vt -5.881875 30.215965
vt 9.642417 23.724367
vt -6.363996 7.490925
vt 6.363996 7.490925
vt -9.642417 23.724367
vt 11.759130 11.759130
vt 11.759130 -11.759130
vt 16.629921 0.000000
vt 0.000000 16.629921
vt 0.000000 -16.629921
vt -11.759130 11.759130
vt -11.759130 -11.759130
vt -16.629921 0.000000
vt 5.881875 30.215965
vt -9.642417 13.051490
vt 9.642417 13.051490
vt -5.881875 30.215965
vt -6.363996 7.490925
vt 9.642417 23.724367
vt -9.642417 23.724367
vt 6.363996 7.490925
vt 9.642417 29.887215
vt -9.642417 14.173228
vt 9.642417 14.173228
vt -9.642417 29.887215
vt 9.642417 14.173228
vt -9.642417 29.887215
vt -9.642417 14.173228
vt 9.642417 29.887215
vt -10.868287 -10.868287
vt -10.868287 10.868287
vt -15.370079 0.000000
vt 0.000000 -15.370079
vt 0.000000 15.370079
vt 10.868287 -10.868287
vt 10.868287 10.868287
vt 15.370079 0.000000
vt 5.881875 30.215965
vt -9.642417 13.051490
vt 9.642417 13.051490
vt -5.881875 30.215965
vt 5.881875 30.215965
vt -9.642417 13.051490
vt 9.642417 13.051490
vt -5.881875 30.215965
vn 0.8066 -0.4876 -0.3341
vn -0.8066 -0.4876 -0.3341
vn -0.3341 -0.4876 -0.8066
vn -0.8066 -0.4876 0.3341
vn -0.3341 -0.4876 0.8066
vn -0.3827 0.0000 0.9239
vn 0.3341 -0.4876 -0.8066
vn -0.9239 0.0000 0.3827
vn 0.7841 0.5289 0.3248
vn 0.9239 0.0000 0.3827
vn 0.3827 -0.0000 -0.9239
vn -0.7841 0.5289 0.3248
vn -0.7841 0.5289 -0.3248
vn 0.7841 0.5289 -0.3248
vn -0.9239 -0.0000 -0.3827
vn -0.3827 -0.0000 -0.9239
vn 0.3248 0.5289 -0.7841
vn 0.3341 -0.4876 0.8066
vn 0.0000 -1.0000 0.0000
vn -0.3248 0.5289 0.7841
vn 0.8066 -0.4876 0.3341
vn 0.3827 0.0000 0.9239
vn 0.9239 -0.0000 -0.3827
vn 0.0000 1.0000 0.0000
vn -0.3248 0.5289 -0.7841
vn 0.3248 0.5289 0.7841
usemtl natureKit-stone
s off
f 1/1/1 2/2/1 23/3/1
f 2/2/1 1/1/1 3/4/1
f 17/5/2 21/6/2 10/7/2
f 21/6/2 17/5/2 20/8/2
f 17/9/3 22/10/3 20/11/3
f 22/10/3 17/9/3 8/12/3
f 10/13/4 4/14/4 5/15/4
f 4/14/4 10/13/4 21/16/4
f 6/17/5 4/18/5 19/19/5
f 4/18/5 6/17/5 5/20/5
f 25/21/6 5/22/6 6/23/6
f 5/22/6 25/21/6 7/24/6
f 8/25/7 1/26/7 22/27/7
f 1/26/7 8/25/7 3/28/7
f 9/29/8 5/30/8 7/31/8
f 5/30/8 9/29/8 10/32/8
f 14/33/9 11/34/9 12/35/9
f 11/34/9 14/33/9 13/36/9
f 2/37/10 12/38/10 28/39/10
f 12/38/10 2/37/10 14/40/10
f 18/41/11 3/42/11 8/43/11
f 3/42/11 18/41/11 29/44/11
f 26/45/12 9/46/12 7/47/12
f 9/46/12 26/45/12 15/48/12
f 15/49/13 31/50/13 9/51/13
f 31/50/13 15/49/13 16/52/13
f 29/53/14 13/54/14 14/55/14
f 13/54/14 29/53/14 30/56/14
f 31/57/15 10/58/15 9/59/15
f 10/58/15 31/57/15 17/60/15
f 31/61/16 8/62/16 17/63/16
f 8/62/16 31/61/16 18/64/16
f 32/65/17 29/66/17 18/67/17
f 29/66/17 32/65/17 30/68/17
f 28/69/18 19/70/18 27/71/18
f 19/70/18 28/69/18 6/72/18
f 20/73/19 4/74/19 21/75/19
f 4/74/19 20/73/19 22/76/19
f 4/74/19 22/76/19 19/77/19
f 19/77/19 22/76/19 1/78/19
f 19/77/19 1/78/19 27/79/19
f 27/79/19 1/78/19 23/80/19
f 24/81/20 7/82/20 25/83/20
f 7/82/20 24/81/20 26/84/20
f 27/85/21 2/86/21 28/87/21
f 2/86/21 27/85/21 23/88/21
f 12/89/22 6/90/22 28/91/22
f 6/90/22 12/89/22 25/92/22
f 3/93/23 14/94/23 2/95/23
f 14/94/23 3/93/23 29/96/23
f 26/97/24 16/98/24 15/99/24
f 16/98/24 26/97/24 24/100/24
f 16/98/24 24/100/24 32/101/24
f 32/101/24 24/100/24 11/102/24
f 32/101/24 11/102/24 30/103/24
f 30/103/24 11/102/24 13/104/24
f 16/105/25 18/106/25 31/107/25
f 18/106/25 16/105/25 32/108/25
f 11/109/26 25/110/26 12/111/26
f 25/110/26 11/109/26 24/112/26
