# Blender v2.79 (sub 0) OBJ File: 'Fixing models.blend'
# www.blender.org
mtllib stone_tall6.mtl
o stone_tall6
v -1.281172 5.736720 0.884422
v -0.276498 5.736720 -0.365519
v 0.863461 5.736720 0.007904
v 1.281172 5.736720 0.584289
v 1.642958 2.837427 0.007905
v -1.663860 2.669920 0.960630
v -1.281172 5.736720 0.144737
v 1.281172 5.736720 0.884422
v -0.359088 2.669920 -0.662670
v -0.000000 2.669919 -1.921261
v 0.000000 5.736720 1.624107
v -2.218480 -0.000000 -1.280840
v -1.663860 2.669920 -0.000000
v -2.004156 1.031749 -1.157100
v 0.000000 0.000000 2.561680
v 2.218480 0.000000 1.280840
v 0.000000 2.669920 1.921260
v 2.218480 -0.000000 -1.280840
v 1.663860 2.669920 0.960629
v 1.663860 2.669920 -0.000001
v 1.663860 2.669919 -0.960631
v -2.218480 0.000000 1.280840
v -0.000000 -0.000000 -2.561680
v -1.143178 2.669919 -1.261246
v -1.663860 2.669920 -0.359398
vt 4.555511 2.372299
vt -5.042677 -1.776419
vt 5.042677 -1.776419
vt -3.782008 8.959475
vt 1.414953 8.959475
vt 0.000000 -6.394126
vt -5.043985 -0.569834
vt -5.043985 -3.481980
vt -1.088573 1.439046
vt 3.399451 -0.031124
vt 5.043985 -3.481980
vt 5.043985 -2.300354
vt 2.155647 10.304795
vt -6.156627 10.966576
vt -6.225141 10.304795
vt 1.482459 22.421026
vt -3.240227 22.421026
vt 4.755246 22.302311
vt 0.079086 10.169765
vt 5.840533 10.169765
vt 0.318932 22.302311
vt -1.413732 2.608936
vt -6.550630 1.414953
vt -6.550630 0.000000
vt -4.500700 4.965535
vt -0.000000 7.564016
vt 6.550630 0.000000
vt 6.550630 3.782008
vt -0.000000 -10.085355
vt -8.734173 -5.042677
vt -8.734173 5.042677
vt -0.000000 10.085355
vt 8.734173 -5.042677
vt 8.734173 5.042677
vt 3.782008 8.959475
vt -5.042677 -1.776419
vt 5.042677 -1.776419
vt -3.782008 8.959475
vt -2.020046 21.486969
vt -4.822526 21.486969
vt -3.820910 9.805074
vt -2.049930 7.192155
vt -0.000000 0.188458
vt 2.049930 7.192155
vt -0.000000 9.619478
vt -3.481980 21.787134
vt -3.782008 9.619478
vt -2.300354 21.787134
vt -0.031124 10.284067
vt 3.481980 21.787134
vt 0.000000 9.619478
vt 3.782008 9.619478
vt 0.569834 21.787134
vt 2.627229 22.043381
vt -3.782008 9.926932
vt 3.782008 9.926932
vt -3.197063 22.043381
vt 3.197063 22.043381
vt -3.782008 9.926932
vt 3.782008 9.926932
vt -2.627229 22.043381
vt 3.782008 8.959475
vt -5.042677 -1.776419
vt 5.042677 -1.776419
vt 0.000000 8.959475
vt -1.414953 8.959475
vt -4.555511 2.372299
vt 3.782008 8.959475
vt -5.042677 -1.776419
vt 5.042677 -1.776419
vt -3.782008 8.959475
vt 5.042677 -1.776419
vt -3.782008 8.959475
vt -5.042677 -1.776419
vt -0.000000 8.959475
vt 3.782008 8.959475
vt 3.782008 8.959475
vt -5.042677 -1.776419
vt 5.042677 -1.776419
vt -3.782008 8.959475
vn -0.4895 0.2034 -0.8479
vn 0.0000 1.0000 0.0000
vn 0.3102 0.0834 -0.9470
vn -0.4506 0.0981 -0.8873
vn -0.0000 -1.0000 0.0000
vn 0.4895 0.2034 -0.8479
vn 0.7912 0.2127 -0.5734
vn -0.7975 0.3899 -0.4604
vn 0.9841 0.1775 -0.0000
vn 0.9923 0.1238 -0.0000
vn 0.9862 0.1655 -0.0000
vn -0.9923 0.1238 0.0000
vn -0.9841 0.1775 0.0000
vn -0.9862 0.1655 0.0000
vn 0.4982 0.0836 0.8630
vn 0.4946 0.1469 0.8566
vn 0.4945 0.1478 0.8565
vn -0.4982 0.0836 0.8630
vn -0.4945 0.1478 0.8565
vn -0.4946 0.1469 0.8566
vn -0.9791 0.2034 0.0000
vn 0.4895 0.2034 0.8479
vn 0.9791 0.2034 -0.0000
vn -0.4895 0.2034 0.8479
usemtl natureKit-stone
s off
f 14/1/1 23/2/1 12/3/1
f 23/2/1 14/1/1 10/4/1
f 10/4/1 14/1/1 24/5/1
f 11/6/2 7/7/2 1/8/2
f 7/7/2 11/6/2 2/9/2
f 2/9/2 11/6/2 3/10/2
f 3/10/2 11/6/2 8/11/2
f 3/10/2 8/11/2 4/12/2
f 9/13/3 5/14/3 20/15/3
f 5/14/3 9/13/3 2/16/3
f 5/14/3 2/16/3 3/17/3
f 7/18/4 9/19/4 13/20/4
f 9/19/4 7/18/4 2/21/4
f 9/22/2 25/23/2 13/24/2
f 25/23/2 9/22/2 24/25/2
f 24/25/2 9/22/2 10/26/2
f 10/26/2 9/22/2 20/27/2
f 10/26/2 20/27/2 21/28/2
f 15/29/5 22/30/5 12/31/5
f 12/31/5 23/32/5 15/29/5
f 23/32/5 16/33/5 15/29/5
f 23/32/5 18/34/5 16/33/5
f 10/35/6 18/36/6 23/37/6
f 18/36/6 10/35/6 21/38/6
f 3/39/7 4/40/7 5/41/7
f 24/42/8 14/43/8 25/44/8
s 1
f 20/45/9 8/46/10 19/47/11
f 8/46/10 20/45/9 4/48/10
f 4/48/10 20/45/9 5/49/10
f 1/50/12 13/51/13 6/52/14
f 13/51/13 1/50/12 7/53/12
f 8/54/15 17/55/16 19/56/17
f 17/55/16 8/54/15 11/57/15
f 11/58/18 6/59/19 17/60/20
f 6/59/19 11/58/18 1/61/18
f 6/62/14 12/63/21 22/64/21
f 12/63/21 6/62/14 13/65/13
f 12/63/21 13/65/13 25/66/21
f 12/63/21 25/66/21 14/67/21
f 19/68/17 15/69/22 16/70/22
f 15/69/22 19/68/17 17/71/16
f 18/72/23 19/73/11 16/74/23
f 19/73/11 18/72/23 20/75/9
f 20/75/9 18/72/23 21/76/23
f 17/77/20 22/78/24 15/79/24
f 22/78/24 17/77/20 6/80/19
