# Blender v2.79 (sub 0) OBJ File: 'Fixing models.blend'
# www.blender.org
mtllib stone_smallTop2.mtl
o stone_smallTop2
v 0.474696 1.600000 2.391166
v -3.110717 0.000000 1.854161
v 0.641481 0.000000 3.231307
v -1.555634 1.600000 1.645987
v -0.925554 1.600000 1.167836
v 0.397327 1.600000 1.653365
v -0.872582 1.600000 -0.240335
v 0.314580 1.600000 -0.959721
v 0.654597 1.600000 -2.391167
v 2.516653 1.175221 0.071449
v -2.272047 1.600000 0.577666
v -2.212797 1.600000 -0.997373
v -2.320917 1.329415 -1.677660
v 0.336264 2.800000 1.345772
v -0.266795 2.800000 -0.128584
v 0.654017 2.800000 0.941316
v 1.267885 1.600000 0.545267
v 1.119828 2.200000 0.541063
v -0.629440 2.800000 0.991336
v -2.960467 -0.000000 -2.139954
v 0.884591 -0.000000 -3.231307
v -0.603430 2.800000 0.299904
v 0.386655 1.900000 -1.780523
v 0.483038 1.600000 -0.625105
v 0.779330 2.800000 0.249890
v 0.398833 2.800000 -0.317511
v 0.297826 1.900000 -1.082370
v -0.217041 1.600000 -1.210461
v 3.110718 0.000000 0.088315
v 1.107275 1.600000 -1.716130
v -0.095573 1.900000 -1.267917
v -0.142854 1.600000 -1.793545
v -0.040674 1.900000 -1.699400
v 0.434618 1.600000 -1.903172
v 0.595860 1.900000 -1.399178
v 0.717328 1.600000 -1.387840
v 1.922124 1.600000 0.548793
v -0.789228 1.954933 -0.180084
v -0.266796 1.600000 -2.129646
v -2.914399 0.388372 1.737144
vt 6.986788 1.007373
vt -6.823923 -4.766683
vt 8.912061 -4.766683
vt -5.049703 2.182605
vt -1.278882 2.182605
vt 4.998055 2.323403
vt -8.981853 -4.602484
vt 6.754129 -4.602484
vt -8.415005 -2.921346
vt -3.516751 2.323403
vt 1.868881 -9.414042
vt -3.643915 -4.597782
vt -6.124546 -6.480265
vt 1.564280 -6.509314
vt 4.991675 -2.146721
vt 7.567419 -2.160605
vt -3.435362 0.946202
vt -1.050376 8.384432
vt -8.711800 3.926666
vt -8.945067 -2.274276
vt -0.854492 4.765592
vt 1.901727 2.461040
vt 1.238505 3.778428
vt 2.824125 5.463936
vt 4.359352 6.756416
vt -0.562415 7.061201
vt 2.577157 9.414042
vt 1.711095 7.492802
vt 7.292514 -3.706347
vt -6.248167 3.093092
vt -8.443469 -3.706347
vt 2.976024 3.093092
vt 5.899838 1.287930
vt 7.265638 -3.591907
vt -7.980919 -5.297194
vt 7.755064 -5.297194
vt 2.608926 1.728183
vt -3.596402 1.728183
vt -6.256801 0.540084
vt 1.323872 -5.298316
vt -2.375708 -1.180726
vt -2.478111 -3.902898
vt -1.050376 0.506236
vt 1.570208 1.250043
vt 2.574871 -3.705970
vt 3.068228 -0.983821
vt 1.395693 5.157009
vt -3.348464 9.973475
vt -4.152212 5.157009
vt -1.323479 9.973475
vt 1.048600 7.565242
vt 3.068344 9.775392
vt -1.836624 4.934835
vt 3.711281 4.934835
vt -0.981627 9.775392
vt 11.655382 8.425016
vt -2.525515 -12.721680
vt 12.246921 -7.299845
vt -3.482644 12.721680
vt -12.246921 -0.347697
vt 3.993295 10.170709
vt -0.816393 5.310971
vt 4.731513 5.310971
vt 1.269198 10.170709
vt -0.591685 6.748372
vt 1.172546 4.261297
vt -0.160135 6.690548
vt -0.376272 4.991798
vt 1.522263 7.009933
vt 2.345905 5.508573
vt 2.795539 7.165541
vt -2.501442 5.732485
vt 3.046463 5.732485
vt -1.851862 10.577535
vt 0.872236 10.577535
vt 0.984813 5.594166
vt -4.224695 8.003637
vt -4.563092 5.594166
vt -2.525977 10.413108
vt 0.163672 10.413108
vt -2.805768 7.243038
vt -0.757293 8.492818
vt -2.469738 8.492818
vt 8.626189 -3.799671
vt -5.752012 1.204204
vt -7.109794 -3.799671
vt 3.183506 3.012836
vt 6.383380 3.012836
vt -4.904387 6.643984
vt -6.933746 5.381534
vt -4.619631 5.381534
vt -6.616832 6.643984
vt 5.746206 4.340561
vt 3.701237 5.586856
vt 3.432091 4.340561
vt 5.413682 5.586856
vt -1.090514 4.710001
vt -3.078537 3.449890
vt -0.764422 3.449890
vt -2.802959 4.710001
vt -3.618842 -5.602093
vt 4.881737 -2.307432
vt -4.594812 -2.307432
vt 5.914787 6.513413
vt 3.907179 7.753804
vt 3.600672 6.513413
vt 5.619625 7.753804
vt -0.420884 7.532626
vt -3.187379 7.532626
vt -1.309796 4.721749
vt 1.362056 5.481050
vt 2.396133 9.236839
vt 0.250825 9.236839
vt -3.308745 -4.720167
vt 4.576155 -7.464401
vt 5.555176 -4.720167
vt 1.971012 -1.551127
vt -3.093145 -1.551127
vt -0.710348 -8.207748
vt -0.491652 7.243038
vn -0.2475 0.4223 -0.8720
vn -0.3134 0.4157 0.8538
vn 0.0000 1.0000 -0.0000
vn 0.7285 0.3765 0.5723
vn -0.8960 0.4428 -0.0337
vn 0.7713 0.1946 0.6060
vn -0.3363 0.2177 0.9162
vn 0.0000 -1.0000 0.0000
vn -0.9715 0.2343 -0.0365
vn -0.2662 0.2218 -0.9380
vn 0.8142 0.1971 -0.5460
vn -0.4031 0.3269 0.8547
vn 0.7680 0.3808 -0.5150
vn -0.9281 0.3532 -0.1181
vn 0.8309 0.3192 -0.4558
vn -0.1748 0.3485 -0.9209
vn 0.4776 0.8616 -0.1718
vn 0.6935 0.3055 0.6524
vn 0.8269 0.5420 0.1499
vn -0.6966 0.4640 -0.5473
vn -0.1952 0.9216 -0.3355
vn -0.5952 0.6975 0.3991
usemtl natureKit-stone
s off
f 13/1/1 21/2/1 20/3/1
f 21/2/1 13/1/1 9/4/1
f 9/4/1 13/1/1 39/5/1
f 1/6/2 2/7/2 3/8/2
f 2/7/2 1/6/2 40/9/2
f 40/9/2 1/6/2 4/10/2
f 1/11/3 5/12/3 4/13/3
f 5/12/3 1/11/3 6/14/3
f 6/14/3 1/11/3 17/15/3
f 17/15/3 1/11/3 37/16/3
f 7/17/3 4/13/3 5/12/3
f 39/18/3 4/13/3 7/17/3
f 12/19/3 4/13/3 39/18/3
f 4/13/3 12/19/3 11/20/3
f 39/18/3 7/17/3 28/21/3
f 28/21/3 7/17/3 24/22/3
f 28/21/3 24/22/3 8/23/3
f 8/23/3 24/22/3 36/24/3
f 36/24/3 24/22/3 17/15/3
f 36/24/3 17/15/3 30/25/3
f 30/25/3 17/15/3 37/16/3
f 32/26/3 39/18/3 28/21/3
f 39/18/3 32/26/3 9/27/3
f 9/27/3 36/24/3 30/25/3
f 9/27/3 32/26/3 34/28/3
f 9/27/3 34/28/3 36/24/3
f 29/29/4 1/30/4 3/31/4
f 1/30/4 29/29/4 37/32/4
f 37/32/4 29/29/4 10/33/4
f 40/34/5 20/35/5 2/36/5
f 20/35/5 40/34/5 11/37/5
f 20/35/5 11/37/5 12/38/5
f 20/35/5 12/38/5 13/39/5
f 14/40/3 22/41/3 19/42/3
f 22/41/3 14/40/3 15/43/3
f 15/43/3 14/40/3 26/44/3
f 26/44/3 14/40/3 16/45/3
f 26/44/3 16/45/3 25/46/3
f 17/47/6 14/48/6 6/49/6
f 14/48/6 17/47/6 16/50/6
f 16/50/6 17/47/6 18/51/6
f 14/52/7 5/53/7 6/54/7
f 5/53/7 14/52/7 19/55/7
f 20/56/8 3/57/8 2/58/8
f 3/57/8 20/56/8 21/59/8
f 3/57/8 21/59/8 29/60/8
f 19/61/9 7/62/9 5/63/9
f 7/62/9 19/61/9 22/64/9
f 7/62/9 22/64/9 38/65/9
f 27/66/3 33/67/3 31/68/3
f 33/67/3 27/66/3 23/69/3
f 23/69/3 27/66/3 35/70/3
f 38/71/10 24/72/10 7/73/10
f 24/72/10 38/71/10 26/74/10
f 26/74/10 38/71/10 15/75/10
f 24/76/11 18/77/11 17/78/11
f 18/77/11 24/76/11 25/79/11
f 25/79/11 24/76/11 26/80/11
f 28/81/12 27/82/12 31/83/12
f 21/84/13 10/85/13 29/86/13
f 10/85/13 21/84/13 30/87/13
f 30/87/13 21/84/13 9/88/13
f 31/89/14 32/90/14 28/91/14
f 32/90/14 31/89/14 33/92/14
f 34/93/15 35/94/15 36/95/15
f 35/94/15 34/93/15 23/96/15
f 33/97/16 34/98/16 32/99/16
f 34/98/16 33/97/16 23/100/16
f 10/101/17 30/102/17 37/103/17
f 36/104/18 27/105/18 8/106/18
f 27/105/18 36/104/18 35/107/18
f 25/108/19 16/109/19 18/110/19
f 38/111/20 22/112/20 15/113/20
f 39/114/21 13/115/21 12/116/21
f 4/117/22 11/118/22 40/119/22
s 1
f 27/82/12 28/81/12 8/120/12
