# Blender v2.79 (sub 0) OBJ File: 'Fixing models.blend'
# www.blender.org
mtllib stone_smallFlat2.mtl
o stone_smallFlat2
v -1.782458 0.649440 -1.498358
v 1.153533 0.649440 1.669766
v -1.200318 0.000000 1.111603
v 1.389799 0.000000 2.011766
v -0.996264 0.649440 0.922631
v -2.147540 -0.000000 -1.805250
v -0.312017 0.649440 -1.669766
v -0.375924 -0.000000 -2.011766
v 2.147540 0.000000 0.616757
v 1.782458 0.649440 0.511909
vt 4.102036 21.952160
vt 13.097737 -12.129687
vt 23.433706 19.698681
vt -15.165327 -21.952160
vt -23.433706 -6.729988
vt -10.871122 -10.067640
vt -3.404689 18.220293
vt -19.449976 16.349905
vt 12.587221 -18.220293
vt 19.449976 -5.585890
vt 17.870964 2.004572
vt -8.389977 -5.571419
vt 21.531282 -5.571419
vt -6.963681 2.004572
vt 17.426083 -2.466429
vt 1.532709 -10.501684
vt 20.995279 -10.501684
vt 1.272149 -2.466429
vt 6.217710 1.732521
vt -25.973351 -5.870645
vt 7.491217 -5.870645
vt -21.557880 1.732521
vt 18.676605 -3.450388
vt -17.499479 3.935575
vt -21.083712 -3.450388
vt 15.501581 3.935575
vt 5.271293 -11.804166
vt -10.002780 -3.643520
vt -12.051542 -11.804166
vt 4.375173 -3.643520
vn 0.0000 -1.0000 0.0000
vn 0.0000 1.0000 -0.0000
vn -0.3071 0.3536 0.8836
vn -0.1021 0.4714 -0.8760
vn -0.8865 0.3623 0.2879
vn 0.6921 0.2818 -0.6645
vn 0.7631 0.4959 0.4145
usemtl natureKit-stone
s off
f 8/1/1 3/2/1 6/3/1
f 3/2/1 8/1/1 4/4/1
f 4/4/1 8/1/1 9/5/1
f 5/6/2 7/7/2 1/8/2
f 7/7/2 5/6/2 2/9/2
f 7/7/2 2/9/2 10/10/2
f 2/11/3 3/12/3 4/13/3
f 3/12/3 2/11/3 5/14/3
f 1/15/4 8/16/4 6/17/4
f 8/16/4 1/15/4 7/18/4
f 5/19/5 6/20/5 3/21/5
f 6/20/5 5/19/5 1/22/5
f 8/23/6 10/24/6 9/25/6
f 10/24/6 8/23/6 7/26/6
f 9/27/7 2/28/7 4/29/7
f 2/28/7 9/27/7 10/30/7
