# Blender v2.79 (sub 0) OBJ File: 'Fixing models.blend'
# www.blender.org
mtllib stone_tall5.mtl
o stone_tall5
v 2.280972 -0.000000 -0.000000
v 2.280972 0.000000 1.316920
v 0.000000 0.000000 2.633840
v 0.895022 3.824481 1.142577
v 0.000000 3.824481 1.659318
v -2.280972 0.000000 1.316920
v -1.437012 3.824480 0.829659
v 0.626838 4.437840 0.911177
v -0.472817 3.824480 -1.386339
v -1.437013 3.824480 -0.829660
v -0.426398 4.437840 -1.036088
v -0.000000 3.824480 -1.659320
v 1.140486 -0.000000 -1.975380
v -1.168828 4.437840 0.670230
v -2.280972 -0.000000 -1.316920
v -0.000000 -0.000000 -2.633840
v -0.062329 4.437840 1.309068
v -1.168828 4.437840 -0.607446
v 0.718506 3.824480 -1.244490
v 1.437013 3.824480 -0.000001
v 1.437013 3.824480 0.829659
vt -12.444853 -4.046141
vt 7.840258 38.441391
vt -7.840258 38.441391
vt 12.444853 -4.046141
vt 0.000000 -5.363450
vt -9.053149 37.372868
vt -14.370079 -5.363450
vt -0.000000 37.372868
vt 15.760465 40.347050
vt -11.999496 47.179287
vt -15.612675 40.347050
vt 12.157821 47.179287
vt 9.053149 37.372868
vt -0.000000 -5.363450
vt 14.370079 -5.363450
vt -0.000000 37.372868
vt 24.889706 14.370079
vt 0.000000 -28.740158
vt 24.889706 -14.370079
vt 0.000000 28.740158
vt -12.444853 21.555119
vt -24.889706 -14.370079
vt -24.889706 0.000000
vt -0.680126 -14.284406
vt -12.754123 6.628370
vt -12.754123 -7.313480
vt -4.652809 11.305666
vt 6.839982 -9.942669
vt 9.766375 -12.467681
vt 0.000000 18.106298
vt -5.159328 15.127560
vt 7.840258 13.579724
vt 15.680515 0.000000
vt 15.680515 -9.053149
vt 2.224088 29.130892
vt 14.370079 -5.363450
vt -9.053149 29.130892
vt 9.053149 37.372868
vt -14.370079 -5.363450
vt -9.053149 37.372868
vt 9.053149 37.372868
vt -14.370079 -5.363450
vt 14.370079 -5.363450
vt -9.053149 37.372868
vt 0.952264 36.754341
vt -7.731209 36.754341
vt 7.731209 37.050880
vt -3.095671 29.468605
vt 9.053149 29.468605
vt -1.623383 37.050880
vt 7.313480 39.259861
vt -9.053149 31.955145
vt 9.053149 31.955145
vt -6.628370 39.259861
vt 6.553196 39.108059
vt -9.053149 31.785847
vt 9.053149 31.785847
vt -7.388654 39.108059
vn 0.8506 0.1877 -0.4911
vn 0.9765 0.2155 -0.0000
vn 0.8616 0.2009 -0.4660
vn 0.4883 0.2155 -0.8457
vn 0.0000 -1.0000 0.0000
vn 0.0000 1.0000 0.0000
vn 0.4883 0.2155 0.8457
vn 0.4771 0.2994 0.8263
vn 0.4706 0.3379 0.8151
vn -0.4774 0.2973 0.8269
vn -0.4883 0.2155 0.8457
vn -0.4768 0.3012 0.8258
vn -0.9544 0.2985 0.0000
vn -0.9765 0.2155 0.0000
vn -0.9554 0.2955 0.0000
vn 0.4390 0.4788 0.7603
vn -0.4414 0.4699 -0.7644
vn -0.4777 0.2954 -0.8274
vn -0.4714 0.3336 -0.8164
vn -0.4883 0.2155 -0.8457
vn -0.9162 0.4006 0.0000
vn -0.4570 0.4056 0.7916
usemtl natureKit-stone
s off
f 1/1/1 19/2/1 20/3/1
f 19/2/1 1/1/1 13/4/1
f 1/5/2 21/6/2 2/7/2
f 21/6/2 1/5/2 20/8/2
f 9/9/3 8/10/3 4/11/3
f 8/10/3 9/9/3 11/12/3
f 12/13/4 13/14/4 16/15/4
f 13/14/4 12/13/4 19/16/4
f 15/17/5 3/18/5 6/19/5
f 3/18/5 15/17/5 16/20/5
f 3/18/5 16/20/5 13/21/5
f 3/18/5 13/21/5 2/22/5
f 2/22/5 13/21/5 1/23/5
f 17/24/6 18/25/6 14/26/6
f 18/25/6 17/24/6 11/27/6
f 11/27/6 17/24/6 8/28/6
f 4/29/6 12/30/6 9/31/6
f 12/30/6 4/29/6 19/32/6
f 19/32/6 4/29/6 20/33/6
f 20/33/6 4/29/6 21/34/6
s 1
f 2/22/7 4/35/8 3/36/7
f 3/36/7 4/35/8 5/37/9
f 4/35/8 2/22/7 21/6/7
f 5/38/10 6/39/11 3/36/11
f 6/39/11 5/38/10 7/40/12
f 7/41/13 15/42/14 6/43/14
f 15/42/14 7/41/13 10/44/15
f 8/45/16 5/37/9 4/35/8
f 5/37/9 8/45/16 17/46/16
f 18/47/17 9/48/18 10/49/19
f 9/48/18 18/47/17 11/50/17
f 16/15/20 15/17/20 9/31/18
f 9/31/18 12/13/20 16/15/20
f 9/31/18 15/17/20 10/44/19
f 14/51/21 10/52/15 7/53/13
f 10/52/15 14/51/21 18/54/21
f 17/55/22 7/56/12 5/57/10
f 7/56/12 17/55/22 14/58/22
