# Blender v2.79 (sub 0) OBJ File: 'Fixing models.blend'
# www.blender.org
mtllib stone_small1.mtl
o stone_small1
v -1.274651 0.000000 1.804000
v -0.524880 1.912240 0.802612
v -0.000000 -0.000000 -1.804000
v -1.804000 0.000000 0.000000
v 1.143182 0.000000 1.804000
v 0.387772 1.912240 0.802611
v -0.675870 1.912240 0.288046
v 0.106935 1.912240 -0.494759
v 1.804000 -0.000000 -0.509544
v 0.647541 1.912240 -0.106847
vt 4.231325 14.421980
vt -13.908844 -9.132125
vt 12.474264 -9.132125
vt -5.727435 14.421980
vt -5.727435 -8.758008
vt 1.166860 5.398744
vt -7.375012 -3.143129
vt 4.231325 -8.758008
vt 7.065896 1.165902
vt 0.000000 19.685040
vt 13.908844 -19.685040
vt 19.685040 0.000000
vt -12.474264 -19.685040
vt -19.685040 5.560080
vt 10.752698 -8.072532
vt -7.259102 15.481574
vt -15.502042 -8.072532
vt 3.061692 15.481574
vt 6.791078 14.791431
vt -5.542512 -8.762673
vt 14.972487 -8.762673
vt 0.939464 14.791431
vt 2.199376 16.134455
vt -12.752179 -7.419651
vt 11.476218 -7.419651
vt 7.437449 17.096718
vt -13.919425 -6.457387
vt 13.919425 -6.457387
vt -4.642582 17.096718
vt -5.061173 16.134455
vn 0.0000 0.4639 0.8859
vn -0.0000 1.0000 -0.0000
vn 0.0000 -1.0000 0.0000
vn 0.8518 0.4639 0.2433
vn -0.8500 0.4639 0.2494
vn 0.5165 0.4639 -0.7198
vn -0.6264 0.4639 -0.6264
usemtl natureKit-stone
s off
f 6/1/1 1/2/1 5/3/1
f 1/2/1 6/1/1 2/4/1
f 2/5/2 8/6/2 7/7/2
f 8/6/2 2/5/2 6/8/2
f 8/6/2 6/8/2 10/9/2
f 3/10/3 1/11/3 4/12/3
f 1/11/3 3/10/3 5/13/3
f 5/13/3 3/10/3 9/14/3
f 9/15/4 6/16/4 5/17/4
f 6/16/4 9/15/4 10/18/4
f 2/19/5 4/20/5 1/21/5
f 4/20/5 2/19/5 7/22/5
f 8/23/6 9/24/6 3/25/6
f 7/26/7 3/27/7 4/28/7
f 3/27/7 7/26/7 8/29/7
s 1
f 9/24/6 8/23/6 10/30/6
