# Blender v2.79 (sub 0) OBJ File: 'Fixing models.blend'
# www.blender.org
mtllib stone_tall2.mtl
o stone_tall2
v -0.495074 6.099324 -1.528910
v -1.703989 4.525875 0.298993
v -1.517063 3.211651 -0.246949
v -0.489779 6.099324 0.586046
v 1.943798 6.099324 0.586045
v 1.615606 6.099324 -1.528911
v -0.161246 8.837795 0.586045
v 0.118615 6.099324 -0.467725
v 0.282882 8.837795 1.355297
v 1.335404 6.099324 -0.467725
v 1.171138 8.837795 1.355297
v 0.118615 6.099324 1.639816
v 1.335404 6.099324 1.639816
v 0.282882 8.837795 -0.183207
v 3.093284 -0.000000 -0.000621
v 2.670946 6.099324 0.298992
v 1.792036 2.484108 -1.834496
v 1.615265 8.837795 0.586045
v 1.171137 8.837795 -0.183207
v -0.907831 1.767920 2.804643
v -2.064731 1.767920 1.903995
v -0.706455 1.767920 2.493020
v -0.625605 1.767920 2.729021
v -1.119607 0.000001 3.850189
v -2.145595 1.767920 1.602207
v 0.758218 1.472947 -1.919967
v -1.594859 4.525875 0.109974
v -1.917444 3.211651 -0.776363
v 0.365964 3.211651 -1.772998
v -0.635998 3.211651 -1.772998
v -2.557578 3.211651 -1.409381
v -2.192104 3.211651 -0.776363
v -1.117664 1.767920 1.780784
v -1.184505 4.525875 1.198765
v -1.550413 6.099324 0.298992
v -0.207471 3.211650 -2.766216
v 3.090084 -0.000000 -3.614163
v 2.336455 2.484108 -1.068409
v 1.516743 2.484108 -2.563135
v 0.711260 -0.000001 -3.850189
v 0.452636 -0.000000 -3.149316
v 0.364143 0.000000 2.642458
v 0.233174 -0.000000 -3.529435
v 0.198221 0.000000 3.497078
v -2.214854 -0.000000 -3.529435
v -2.904344 0.000000 2.460770
v -3.104570 0.000000 1.713514
v -3.182681 -0.000000 -0.965652
v 3.266266 0.000000 0.298993
v -3.823941 0.000000 1.505695
v -1.774209 3.211650 -2.766216
v -3.438868 -0.000000 -1.409380
v 1.551506 1.731840 2.914245
v 3.065050 1.731840 1.778683
v 2.464678 3.680161 2.698488
v 2.763189 1.731841 3.370377
v 1.172061 0.000001 3.768301
v 2.939981 0.000001 3.768301
v 1.647364 3.680161 2.698488
v 2.560536 1.731840 2.914245
v 2.873335 3.680160 1.778683
v 3.823941 0.000000 1.778684
v -2.685040 1.967632 -1.038892
v -2.055423 4.525875 -0.499019
v -3.823941 0.000000 0.349874
v -2.868833 4.525875 0.570264
v 1.348853 1.731841 3.370377
v 0.960410 1.731840 2.496069
v -0.579786 1.767920 2.493020
v -0.495073 6.099324 2.126895
v 1.733667 3.680160 2.331382
v 1.615607 6.099324 2.126894
v 0.671864 0.000000 2.642458
v 2.516488 3.680160 0.975494
v 2.707530 1.731840 0.973976
v 3.209905 0.000000 0.396613
v 3.600568 -0.000000 -0.835604
v 2.284095 2.484108 -0.982225
v 1.247872 2.484108 -1.834496
v 2.071961 2.484108 -2.508046
v 3.470357 1.731840 1.778683
v 2.936577 1.731840 0.577253
v -2.868833 4.525875 0.787451
v -2.347605 4.525875 -0.499019
v 1.365716 1.731840 2.496069
v 1.484264 3.680160 2.331382
v -1.445060 4.525875 1.198765
v -1.527445 1.767920 1.780784
vt 5.943351 33.599648
vt -11.747051 65.221970
vt -13.284804 33.599648
vt -5.402186 -23.208441
vt -5.402186 16.683281
vt -16.917934 -3.262581
vt -5.344416 -6.394876
vt 1.294314 -17.893494
vt 17.629311 -23.208441
vt 14.571774 -17.893494
vt 21.210505 -6.394876
vt 29.145058 -3.262581
vt 1.294314 5.103742
vt 17.629311 16.683281
vt 14.571774 5.103742
vt -3.274670 96.093643
vt 8.210333 66.050911
vt 6.417875 96.093643
vt -5.067128 66.050911
vt 14.350920 95.432800
vt 2.865917 65.390060
vt 16.143377 65.390060
vt 4.658374 95.432800
vt -3.086771 95.714104
vt -14.571774 65.671364
vt -1.294314 65.671364
vt -12.779317 95.714104
vt 12.779317 94.392403
vt 1.294314 64.349663
vt 14.571774 64.349663
vt 3.086771 94.392403
vt 3.086771 -14.788866
vt 3.086771 1.999115
vt -1.759501 -6.394876
vt 12.779317 -14.788866
vt 12.779317 1.999115
vt 17.625589 -6.394876
vt -17.398006 64.330086
vt -16.870918 -2.462373
vt 5.633489 64.330086
vt -3.179899 24.740589
vt 7.558676 24.740589
vt -2.865917 64.630966
vt -14.350920 94.673706
vt -16.143377 64.630966
vt -4.658374 94.673706
vt 5.067128 63.970119
vt -6.417875 94.012856
vt -8.210333 63.970119
vt 3.274670 94.012856
vt -14.301233 4.140630
vt -22.674456 -17.785938
vt -7.787203 -17.785938
vt -17.489487 4.140630
vt -22.530106 -20.776178
vt -16.667307 -19.431715
vt -23.412483 -17.483099
vt -9.906147 -30.603941
vt -12.195827 -19.431715
vt -7.708759 -27.203543
vt -6.826531 -29.778761
vt -6.326559 -27.203543
vt 10.983180 2.602085
vt -8.512431 -19.324482
vt 16.168150 -19.324482
vt -5.015233 2.602085
vt 14.237027 4.072924
vt 9.292620 -17.853645
vt 17.734224 -17.853645
vt 10.827781 4.072924
vt -31.968769 26.947344
vt -22.519201 14.691335
vt -23.493912 26.947344
vt -33.949894 -3.161870
vt -42.101803 -3.161870
vt -27.548363 -4.466121
vt -30.533976 17.460447
vt -37.048004 -4.466121
vt -27.910673 17.460447
vt 14.006826 11.558663
vt 27.272602 31.059555
vt 14.758097 31.059555
vt 27.291382 -4.961572
vt 32.080872 -4.961572
vt 12.134585 36.680599
vt 17.871906 51.337116
vt 9.540253 51.337116
vt 19.377520 36.680599
vt -3.993354 33.291103
vt -13.616642 25.323931
vt -8.273594 14.250916
vt -17.629311 64.913429
vt -19.554497 25.323931
vt 5.402186 64.913429
vt 6.939939 33.291103
vt -27.272602 30.285534
vt -24.466915 16.332905
vt -19.296602 30.285534
vt -32.080872 -5.735593
vt -26.489908 -5.735593
vt 17.398006 64.947174
vt 10.730446 17.514845
vt 19.704580 17.514845
vt 4.865706 47.716656
vt -5.633489 64.947174
vt -6.471387 47.716656
vt -23.919992 8.471582
vt -19.359962 30.184626
vt -27.907993 15.379001
vt -20.922932 8.471582
vt -16.554016 2.694675
vt -2.263899 30.184626
vt -6.939939 19.346746
vt 3.993354 19.346746
vt 6.329826 43.074215
vt 21.715015 -7.399328
vt 19.310131 43.074215
vt 5.745509 -7.399328
vt 2.647781 14.544128
vt 32.695236 -17.539797
vt 6.859509 12.569418
vt 1.868464 -17.539797
vt 22.831589 12.569418
vt 19.359962 27.116886
vt -2.544369 -8.904242
vt 24.168230 -8.904242
vt 2.263899 27.116886
vt -13.708178 11.575105
vt -29.660049 -18.534109
vt -3.575144 -18.534109
vt -19.796402 11.575105
vt -39.288986 9.118007
vt -33.753563 0.006769
vt -33.718643 39.437328
vt -32.080730 -41.119267
vt -12.789393 -41.119267
vt -7.761194 42.012814
vt -7.331303 -28.834196
vt -4.939113 34.364971
vt -3.973484 -28.834196
vt -2.544369 38.512791
vt -2.162958 -38.159710
vt 12.217025 -42.012814
vt 24.168230 38.512791
vt 31.691870 -26.851631
vt 33.876717 -18.697668
vt 34.729050 10.537086
vt 37.524529 15.379001
vt -35.026119 -4.327797
vt -35.641121 -3.262581
vt 41.726402 -16.429972
vt 41.726402 -3.817780
vt -41.726402 -19.408794
vt -16.460672 26.729876
vt 5.443659 -9.291252
vt 0.635391 26.729876
vt -21.268940 -9.291252
vt 14.718527 -36.777172
vt 14.902536 -27.236822
vt 10.479878 -27.236822
vt 16.929855 -31.799911
vt 30.151598 -36.777172
vt 27.940269 -31.799911
vt 33.445477 -19.408794
vt 37.868134 -19.408794
vt 32.043594 -6.298926
vt 29.544250 -10.627919
vt 17.975845 -29.445601
vt 18.917570 -25.439775
vt 16.196112 -25.439775
vt 26.894279 -29.445601
vt 27.459633 -10.644488
vt 31.353497 -19.408794
vt -21.707979 16.790005
vt -30.467100 38.135632
vt -31.316483 16.790005
vt 30.151598 10.182059
vt 12.789393 -9.208003
vt 32.080730 -9.208003
vt 14.718527 10.182059
vt 26.894279 36.672501
vt 16.929855 15.282697
vt 27.940269 15.282697
vt 17.975845 36.672501
vt -4.157558 15.378430
vt -15.989748 36.724056
vt -17.716581 15.378430
vt -5.006939 36.724056
vt -0.795354 -8.439429
vt -21.367287 10.784330
vt -24.552113 -8.439429
vt -2.361880 10.784330
vt 25.616798 47.197193
vt 23.919992 32.540676
vt 29.298843 18.667105
vt 20.922932 32.540676
vt 22.428545 47.197193
vt 8.592581 41.857670
vt 3.817780 -8.615874
vt 16.429972 -8.615874
vt 6.222664 41.857670
vt 39.585361 18.305328
vt 29.327208 -0.918431
vt 42.770187 -0.918431
vt 29.145800 18.305328
vt 16.196112 37.872055
vt 10.479878 16.536400
vt 14.902536 16.536400
vt -6.326559 16.931503
vt -7.708759 16.931503
vt -5.402186 64.363831
vt 18.917570 37.872055
vt 17.629311 64.363831
vt 3.973484 -2.428630
vt 7.331303 -2.428630
vt 4.511420 37.563515
vt -11.284445 64.055290
vt -12.572705 37.563515
vt 11.747051 64.055290
vt 5.568077 16.227858
vt 10.566768 16.227858
vt 13.765077 -2.737172
vt 14.995083 -2.737172
vt -12.925183 45.620564
vt -16.667307 14.863249
vt -12.195827 14.863249
vt 28.192410 -12.556764
vt 22.100988 17.552450
vt 17.531473 -12.556764
vt 23.201365 17.552450
vt 19.554497 20.017801
vt 16.550524 27.968620
vt 13.616642 20.017801
vt 22.609001 27.367502
vt 24.923784 10.717922
vt 25.495127 11.658345
vt -18.176254 -5.548684
vt -33.112160 13.675076
vt -34.678684 -5.548684
vt -18.766644 13.675076
vt -15.768328 -13.080792
vt -31.304373 -6.222664
vt -31.304373 -8.592581
vt -25.616798 5.445232
vt -22.428545 5.445232
vt -18.593731 -3.262581
vt -12.925183 -13.080792
vt -17.402916 -1.200030
vt 34.207821 40.396626
vt 30.941479 19.050997
vt 35.934654 19.050997
vt 29.824434 40.396626
vt -35.527145 -5.650518
vt -17.640423 14.065709
vt -27.689753 44.823025
vt -27.356466 -5.650518
vt 12.122343 47.991451
vt 11.284445 65.221970
vt 9.740714 47.991451
vt -20.646038 -2.462373
vt -20.876730 38.135632
vt -15.768328 45.620564
vt -11.518397 44.823025
vt -10.619418 14.065709
vn -0.8629 0.0842 -0.4982
vn -0.0000 1.0000 0.0000
vn 0.0001 1.0000 0.0000
vn -0.8614 0.1033 -0.4973
vn -0.8614 0.1033 0.4973
vn -0.0000 0.1033 -0.9946
vn 0.0000 0.1033 0.9946
vn 0.8629 0.0842 -0.4982
vn 0.8614 0.1033 -0.4973
vn 0.8614 0.1033 0.4973
vn 0.2277 0.4753 0.8498
vn -0.5405 0.4753 0.6942
vn -0.8498 0.4753 0.2277
vn -0.8446 0.4353 -0.3117
vn 0.8637 0.4753 0.1677
vn 0.8426 0.2312 -0.4865
vn 0.7804 0.2065 -0.5902
vn 0.0000 0.0842 -0.9964
vn -0.8426 0.2312 0.4865
vn -0.8629 0.0842 0.4982
vn -0.8795 0.2065 -0.4287
vn 0.8854 0.4353 -0.1627
vn 0.0000 0.2312 -0.9729
vn 0.0889 0.4353 -0.8959
vn -0.0000 -1.0000 0.0000
vn -0.8426 0.2312 -0.4865
vn 0.9102 0.0896 -0.4044
vn 0.0000 0.2239 0.9746
vn 0.0000 0.1101 0.9939
vn 0.9102 0.0896 0.4044
vn 0.8984 0.1834 0.3991
vn -0.0000 0.2065 -0.9784
vn -0.9784 0.2065 0.0000
vn -0.8984 0.1834 0.3991
vn 0.0000 0.0842 0.9964
vn 0.8629 0.0842 0.4982
vn 0.0000 0.2065 0.9784
vn 0.7694 0.4353 0.4674
vn 0.8984 0.1834 -0.3991
vn -0.9102 0.0896 0.4044
vn -0.2716 0.2065 0.9400
vn -0.2568 0.2069 0.9441
vn -0.1371 0.2085 0.9684
usemtl natureKit-stone
s off
f 3/1/1 1/2/1 30/3/1
f 70/4/2 1/5/2 35/6/2
f 1/5/3 70/4/3 4/7/3
f 4/7/2 70/4/2 12/8/2
f 12/8/2 70/4/2 72/9/2
f 12/8/2 72/9/2 13/10/2
f 13/10/2 72/9/2 5/11/2
f 5/11/2 72/9/2 16/12/2
f 8/13/2 1/5/2 4/7/2
f 1/5/2 8/13/2 6/14/2
f 6/14/2 5/11/2 16/12/2
f 6/14/2 8/13/2 10/15/2
f 6/14/2 10/15/2 5/11/2
f 14/16/4 4/17/4 7/18/4
f 4/17/4 14/16/4 8/19/4
f 9/20/5 4/21/5 12/22/5
f 4/21/5 9/20/5 7/23/5
f 14/24/6 10/25/6 8/26/6
f 10/25/6 14/24/6 19/27/6
f 11/28/7 12/29/7 13/30/7
f 12/29/7 11/28/7 9/31/7
f 9/32/2 14/33/2 7/34/2
f 14/33/2 9/32/2 11/35/2
f 14/33/2 11/35/2 19/36/2
f 19/36/2 11/35/2 18/37/2
f 16/38/8 15/39/8 6/40/8
f 6/40/8 15/39/8 78/41/8
f 6/40/8 78/41/8 17/42/8
f 10/43/9 18/44/9 5/45/9
f 18/44/9 10/43/9 19/46/9
f 5/47/10 11/48/10 13/49/10
f 11/48/10 5/47/10 18/50/10
f 23/51/11 24/52/11 44/53/11
f 24/52/11 23/51/11 20/54/11
f 21/55/2 88/56/2 25/57/2
f 88/56/2 21/55/2 20/58/2
f 88/56/2 20/58/2 33/59/2
f 33/59/2 20/58/2 22/60/2
f 22/60/2 20/58/2 23/61/2
f 22/60/2 23/61/2 69/62/2
f 20/63/12 46/64/12 24/65/12
f 46/64/12 20/63/12 21/66/12
f 21/67/13 47/68/13 46/69/13
f 47/68/13 21/67/13 25/70/13
f 39/71/14 26/72/14 79/73/14
f 26/72/14 39/71/14 41/74/14
f 41/74/14 39/71/14 40/75/14
f 42/76/15 23/77/15 44/78/15
f 23/77/15 42/76/15 69/79/15
f 26/80/16 36/81/16 29/82/16
f 36/81/16 26/80/16 41/83/16
f 36/81/16 41/83/16 43/84/16
f 3/85/17 64/86/17 27/87/17
f 64/86/17 3/85/17 28/88/17
f 29/89/18 79/90/18 26/91/18
f 6/92/18 79/90/18 29/89/18
f 79/90/18 6/92/18 17/93/18
f 6/92/18 29/89/18 1/94/18
f 1/94/18 29/89/18 30/95/18
f 31/96/19 63/97/19 32/98/19
f 52/99/19 63/97/19 31/96/19
f 63/97/19 52/99/19 48/100/19
f 70/101/20 33/102/20 22/103/20
f 33/102/20 70/101/20 34/104/20
f 34/104/20 70/101/20 35/105/20
f 34/104/20 35/105/20 2/106/20
f 32/107/2 51/108/2 31/109/2
f 51/108/2 32/107/2 28/110/2
f 51/108/2 28/110/2 3/111/2
f 51/108/2 3/111/2 36/112/2
f 36/112/2 3/111/2 30/113/2
f 36/112/2 30/113/2 29/114/2
f 84/115/21 65/116/21 66/117/21
f 65/116/21 84/115/21 48/118/21
f 48/118/21 84/115/21 63/119/21
f 37/120/22 38/121/22 77/122/22
f 38/121/22 37/120/22 80/123/22
f 51/124/23 43/125/23 45/126/23
f 43/125/23 51/124/23 36/127/23
f 39/128/24 37/129/24 40/130/24
f 37/129/24 39/128/24 80/131/24
f 77/132/25 15/133/25 37/134/25
f 58/135/25 37/134/25 15/133/25
f 57/136/25 37/134/25 58/135/25
f 57/136/25 40/137/25 37/134/25
f 73/138/25 40/137/25 57/136/25
f 73/138/25 41/139/25 40/137/25
f 42/140/25 41/139/25 73/138/25
f 42/140/25 43/141/25 41/139/25
f 44/142/25 43/141/25 42/140/25
f 24/143/25 43/141/25 44/142/25
f 24/143/25 45/144/25 43/141/25
f 46/145/25 45/144/25 24/143/25
f 47/146/25 45/144/25 46/145/25
f 48/147/25 45/144/25 47/146/25
f 45/144/25 48/147/25 52/148/25
f 58/135/25 15/133/25 76/149/25
f 49/150/25 76/149/25 15/133/25
f 50/151/25 48/147/25 47/146/25
f 48/147/25 50/151/25 65/152/25
f 58/135/25 76/149/25 62/153/25
f 51/154/26 52/155/26 31/156/26
f 52/155/26 51/154/26 45/157/26
f 67/158/2 85/159/2 68/160/2
f 85/159/2 67/158/2 53/161/2
f 53/161/2 67/158/2 56/162/2
f 53/161/2 56/162/2 60/163/2
f 60/163/2 56/162/2 54/164/2
f 54/164/2 56/162/2 81/165/2
f 82/166/2 54/164/2 81/165/2
f 54/164/2 82/166/2 75/167/2
f 59/168/2 71/169/2 86/170/2
f 71/169/2 59/168/2 55/171/2
f 71/169/2 55/171/2 74/172/2
f 74/172/2 55/171/2 61/173/2
f 75/174/27 61/175/27 54/176/27
f 56/177/28 57/178/28 58/179/28
f 57/178/28 56/177/28 67/180/28
f 55/181/29 53/182/29 60/183/29
f 53/182/29 55/181/29 59/184/29
f 54/185/30 55/186/30 60/187/30
f 55/186/30 54/185/30 61/188/30
f 62/189/31 56/190/31 58/191/31
f 56/190/31 62/189/31 81/192/31
f 84/193/32 32/194/32 63/195/32
f 32/194/32 84/193/32 28/196/32
f 28/196/32 84/193/32 64/197/32
f 83/198/33 65/199/33 50/200/33
f 65/199/33 83/198/33 66/201/33
f 67/202/34 73/203/34 57/204/34
f 73/203/34 67/202/34 68/205/34
f 86/206/35 68/207/35 85/208/35
f 68/207/35 86/206/35 69/209/35
f 69/209/35 86/206/35 22/210/35
f 22/210/35 86/206/35 70/211/35
f 70/211/35 86/206/35 71/212/35
f 70/211/35 71/212/35 72/213/35
f 42/214/35 68/207/35 69/209/35
f 68/207/35 42/214/35 73/215/35
f 74/216/36 72/217/36 71/218/36
f 72/217/36 74/216/36 16/219/36
f 16/219/36 74/216/36 75/220/36
f 16/219/36 75/220/36 82/221/36
f 16/219/36 82/221/36 76/222/36
f 16/219/36 76/222/36 49/223/36
f 34/224/37 88/225/37 33/226/37
f 77/227/38 78/228/38 15/229/38
f 78/228/38 77/227/38 38/230/38
f 17/231/2 39/232/2 79/233/2
f 39/232/2 17/231/2 80/234/2
f 80/234/2 17/231/2 78/235/2
f 80/234/2 78/235/2 38/236/2
f 76/237/39 81/238/39 62/239/39
f 81/238/39 76/237/39 82/240/39
f 87/241/2 66/242/2 83/243/2
f 66/242/2 87/241/2 84/244/2
f 84/244/2 87/241/2 64/245/2
f 64/245/2 87/241/2 2/246/2
f 2/246/2 87/241/2 34/247/2
f 27/248/2 64/245/2 2/246/2
f 59/249/40 85/250/40 53/251/40
f 85/250/40 59/249/40 86/252/40
f 50/253/41 25/254/41 83/255/41
f 25/254/41 50/253/41 47/256/41
s 1
f 1/2/1 2/257/1 35/258/1
f 2/257/1 1/2/1 27/259/1
f 27/259/1 1/2/1 3/1/1
f 15/39/8 16/38/8 49/260/8
f 61/175/27 75/174/27 74/261/27
f 88/225/42 34/224/37 87/262/43
f 87/263/43 25/254/41 88/264/42
f 83/255/41 25/254/41 87/263/43
