# Blender v2.79 (sub 0) OBJ File: 'Fixing models.blend'
# www.blender.org
mtllib cactus_short.mtl
o cactus_short
v 0.759351 2.422695 -1.172436
v 0.937859 2.422695 -0.675621
v 0.937859 2.081695 -0.675621
v 1.108359 1.523695 -0.970936
v 0.759351 1.523695 -1.172436
v 1.108359 2.422695 -0.970936
v 0.901593 -0.000000 -0.302807
v 0.767359 2.081695 -0.380307
v 0.588851 2.081695 -0.877121
v 0.418351 1.523695 -0.581807
v -1.108359 2.716096 -0.147806
v -0.333359 3.429096 0.255193
v -0.720859 3.429096 -0.147806
v 0.284117 4.774000 -0.481057
v 0.697351 2.269141 1.172436
v -0.178990 4.774000 0.321068
v 0.284117 4.557000 0.766693
v 0.747224 4.774000 0.321068
v 0.284117 4.774000 0.588443
v 0.767359 1.370141 0.487693
v 0.697351 1.370141 1.172436
v 0.284117 4.557000 -0.659307
v 0.747224 4.774000 -0.213682
v -0.720859 3.801096 0.255194
v 0.906859 1.866141 0.729315
v 0.906859 2.269141 0.729315
v 0.557851 1.866141 0.930815
v 0.418351 1.866141 0.689193
v -1.108359 3.801096 -0.147806
v -0.720859 3.801096 -0.147807
v -0.178990 4.774000 -0.213682
v -0.333359 4.557000 -0.302807
v 0.588851 2.422695 -0.877121
v 0.418351 2.081695 -0.581807
v 0.767359 1.523695 -0.380307
v 0.284117 -0.000000 -0.659306
v 1.046359 2.269141 0.970936
v 1.046359 1.370141 0.970936
v 0.767359 1.866141 0.487693
v 0.557851 2.269141 0.930815
v 0.901593 0.000000 0.410194
v 0.284117 0.000000 0.766694
v 0.418351 1.370141 0.689194
v -1.108359 2.716096 0.255194
v -0.333359 2.716096 0.255194
v -0.720859 3.429096 0.255194
v -1.108359 3.801096 0.255194
v -0.333359 4.557000 0.410193
v -0.333359 0.000000 0.410194
v -0.333359 -0.000000 -0.302806
v -0.333359 2.716096 -0.147806
v -0.333359 3.429096 -0.147807
v 0.901593 4.557000 0.410193
v 0.901593 4.557000 -0.302807
vt 11.910835 8.580405
vt 9.643776 14.889964
vt 7.478422 11.139461
vt 14.076189 12.330909
vt 6.024883 30.768286
vt 0.906773 26.437576
vt 6.024883 26.437576
vt 0.906773 30.768286
vt -0.906773 30.768286
vt -6.024883 19.350962
vt -0.906773 19.350962
vt -6.024883 30.768286
vt -3.608293 8.373208
vt 4.233670 -5.209469
vt 4.233670 3.845649
vt -3.608293 -9.737028
vt -11.450255 3.845649
vt -11.450255 -5.209469
vt 9.745481 4.829901
vt 7.478422 11.139461
vt 5.313067 7.388957
vt 11.910835 8.580405
vt -9.643776 14.889964
vt -9.745481 4.829901
vt -5.313067 7.388957
vt -14.076189 12.330909
vt 1.743641 57.874016
vt -7.311477 0.000000
vt 1.743641 0.000000
vt -7.311477 57.874016
vt 3.608293 -9.737028
vt -4.233670 3.845649
vt -4.233670 -5.209469
vt 3.608293 8.373208
vt 11.450255 -5.209469
vt 11.450255 3.845649
vt -1.877145 48.274017
vt 3.240965 34.494488
vt 3.240965 48.274017
vt -1.877145 34.494488
vt 7.993387 57.874016
vt -1.061731 0.000000
vt 7.993387 0.000000
vt -1.061731 57.874016
vt 4.233670 1.877145
vt 14.076189 -3.240965
vt 14.076189 1.877145
vt 4.233670 -3.240965
vt -4.233670 -3.240965
vt -9.154929 1.877145
vt -9.154929 -3.240965
vt -4.233670 1.877145
vt 3.608293 -7.473248
vt -2.273179 2.713759
vt -2.273179 -4.077579
vt 3.608293 6.109429
vt 9.489764 -4.077579
vt 9.489764 2.713759
vt 8.856374 -14.889964
vt 11.517134 -9.262315
vt 7.084721 -11.821370
vt 13.288788 -12.330909
vt 4.077579 48.086758
vt -3.845649 44.704670
vt 5.209469 44.704670
vt -2.713759 48.086758
vt 6.861497 46.698627
vt -1.061731 43.316540
vt 7.993387 43.316540
vt 0.070159 46.698627
vt 3.845649 40.521442
vt -4.077579 43.903534
vt -5.209469 40.521442
vt 2.713759 43.903534
vt 6.179587 44.607018
vt -1.743641 41.224926
vt 7.311477 41.224926
vt -0.611751 44.607018
vt 5.342973 28.818150
vt 0.224863 17.400827
vt 5.342973 17.400827
vt 0.224863 28.818150
vt -9.745481 -6.193721
vt -8.856374 -14.889964
vt -5.313067 -8.752776
vt -13.288788 -12.330909
vt -0.070159 45.291664
vt -7.993387 41.909573
vt 1.061731 41.909573
vt -6.861497 45.291664
vt 1.877145 43.549606
vt -3.240965 48.274017
vt -3.240965 43.549606
vt 1.877145 48.274017
vt -0.224863 28.818150
vt -5.342973 23.700039
vt -0.224863 23.700039
vt -5.342973 28.818150
vt 7.084721 -11.821370
vt 9.745481 -6.193721
vt 5.313067 -8.752776
vt 11.517134 -9.262315
vt -9.154929 -3.240965
vt -14.076189 1.877145
vt -14.076189 -3.240965
vt -9.154929 1.877145
vt 0.611751 47.383278
vt -7.311477 44.001186
vt 1.743641 44.001186
vt -6.179587 47.383278
vt -17.716974 30.768286
vt -13.386266 26.437576
vt -13.386266 30.768286
vt -17.716974 19.350962
vt -9.055557 19.350962
vt -9.055557 26.437576
vt 17.716974 19.350962
vt 9.055557 26.437576
vt 9.055557 19.350962
vt 13.386266 26.437576
vt 13.386266 30.768286
vt 17.716974 30.768286
vt 1.061731 0.000000
vt -0.906773 19.350962
vt -7.993387 0.000000
vt 1.061731 57.874016
vt -0.906773 26.437576
vt -6.024883 26.437576
vt -6.024883 19.350962
vt -7.993387 57.874016
vt -10.236660 17.400827
vt -17.323275 28.818150
vt -17.323275 17.400827
vt -13.779967 23.700039
vt -10.236660 23.700039
vt -13.779967 28.818150
vt 13.779967 28.818150
vt 17.323275 17.400827
vt 17.323275 28.818150
vt 13.779967 23.700039
vt 10.236660 17.400827
vt 10.236660 23.700039
vt 7.311477 0.000000
vt 5.342973 17.400827
vt -1.743641 0.000000
vt 7.311477 57.874016
vt 5.342973 23.700039
vt 0.224863 23.700039
vt 0.224863 17.400827
vt -1.743641 57.874016
vt -4.233670 43.549606
vt -14.076189 34.494488
vt -4.233670 34.494488
vt -9.154929 43.549606
vt -14.076189 48.274017
vt -9.154929 48.274017
vt 5.209469 57.874016
vt 3.240965 43.549606
vt 5.209469 0.000000
vt -3.845649 57.874016
vt -1.877145 43.549606
vt -1.877145 34.494488
vt 3.240965 34.494488
vt -3.845649 0.000000
vt 14.076189 48.274017
vt 4.233670 34.494488
vt 14.076189 34.494488
vt 9.154929 43.549606
vt 9.154929 48.274017
vt 4.233670 43.549606
vt 3.845649 0.000000
vt -5.209469 57.874016
vt -5.209469 0.000000
vt 3.845649 57.874016
vn 0.0000 1.0000 -0.0000
vn -0.5000 0.0000 0.8660
vn 0.5000 0.0000 -0.8660
vn 0.0000 -1.0000 0.0000
vn -0.5000 -0.0000 -0.8660
vn -1.0000 -0.0000 0.0000
vn -0.8149 0.5797 -0.0000
vn -0.4074 0.5797 0.7057
vn 0.8149 0.5797 0.0000
vn 0.4074 0.5797 0.7057
vn 0.5000 0.0000 0.8660
vn 0.4074 0.5797 -0.7057
vn 1.0000 0.0000 0.0000
vn -0.4074 0.5797 -0.7057
vn -0.8660 0.0000 -0.5000
vn 0.8660 -0.0000 0.5000
vn 0.8660 -0.0000 -0.5000
vn -0.8660 0.0000 0.5000
vn 0.0000 0.0000 1.0000
vn -0.0000 -0.0000 -1.0000
usemtl natureKit-leavesGreen
s off
f 2/1/1 1/2/1 33/3/1
f 1/2/1 2/1/1 6/4/1
f 2/5/2 9/6/2 3/7/2
f 9/6/2 2/5/2 33/8/2
f 1/9/3 4/10/3 5/11/3
f 4/10/3 1/9/3 6/12/3
f 36/13/4 49/14/4 50/15/4
f 49/14/4 36/13/4 42/16/4
f 42/16/4 36/13/4 7/17/4
f 42/16/4 7/17/4 41/18/4
f 8/19/1 9/20/1 34/21/1
f 9/20/1 8/19/1 3/22/1
f 5/23/4 35/24/4 10/25/4
f 35/24/4 5/23/4 4/26/4
f 32/27/5 36/28/5 50/29/5
f 36/28/5 32/27/5 22/30/5
f 17/31/1 32/32/1 48/33/1
f 32/32/1 17/31/1 22/34/1
f 22/34/1 17/31/1 53/35/1
f 22/34/1 53/35/1 54/36/1
f 29/37/6 44/38/6 47/39/6
f 44/38/6 29/37/6 11/40/6
f 17/41/2 49/42/2 42/43/2
f 49/42/2 17/41/2 48/44/2
f 51/45/4 44/46/4 11/47/4
f 44/46/4 51/45/4 45/48/4
f 12/49/1 13/50/1 46/51/1
f 13/50/1 12/49/1 52/52/1
f 19/53/1 31/54/1 16/55/1
f 31/54/1 19/53/1 14/56/1
f 14/56/1 19/53/1 18/57/1
f 14/56/1 18/57/1 23/58/1
f 15/59/1 26/60/1 40/61/1
f 26/60/1 15/59/1 37/62/1
f 16/63/7 32/64/7 48/65/7
f 32/64/7 16/63/7 31/66/7
f 19/67/8 48/68/8 17/69/8
f 48/68/8 19/67/8 16/70/8
f 54/71/9 18/72/9 53/73/9
f 18/72/9 54/71/9 23/74/9
f 18/75/10 17/76/10 53/77/10
f 17/76/10 18/75/10 19/78/10
f 37/79/11 21/80/11 38/81/11
f 21/80/11 37/79/11 15/82/11
f 20/83/4 21/84/4 43/85/4
f 21/84/4 20/83/4 38/86/4
f 14/87/12 54/88/12 22/89/12
f 54/88/12 14/87/12 23/90/12
f 13/91/13 24/92/13 46/93/13
f 24/92/13 13/91/13 30/94/13
f 40/95/5 25/96/5 27/97/5
f 25/96/5 40/95/5 26/98/5
f 27/99/1 39/100/1 28/101/1
f 39/100/1 27/99/1 25/102/1
f 24/103/1 29/104/1 47/105/1
f 29/104/1 24/103/1 30/106/1
f 31/107/14 22/108/14 32/109/14
f 22/108/14 31/107/14 14/110/14
f 1/111/15 9/112/15 33/113/15
f 5/114/15 9/112/15 1/111/15
f 10/115/15 9/112/15 5/114/15
f 9/112/15 10/115/15 34/116/15
f 4/117/16 8/118/16 35/119/16
f 8/118/16 4/117/16 3/120/16
f 3/120/16 4/117/16 2/121/16
f 2/121/16 4/117/16 6/122/16
f 36/123/3 10/124/3 7/125/3
f 10/124/3 36/123/3 22/126/3
f 10/124/3 22/126/3 34/127/3
f 34/127/3 22/126/3 8/128/3
f 35/129/3 7/125/3 10/124/3
f 7/125/3 35/129/3 54/130/3
f 54/130/3 35/129/3 8/128/3
f 54/130/3 8/128/3 22/126/3
f 20/131/17 37/132/17 38/133/17
f 37/132/17 20/131/17 25/134/17
f 25/134/17 20/131/17 39/135/17
f 26/136/17 37/132/17 25/134/17
f 40/137/18 21/138/18 15/139/18
f 21/138/18 40/137/18 27/140/18
f 21/138/18 27/140/18 43/141/18
f 43/141/18 27/140/18 28/142/18
f 41/143/11 20/144/11 42/145/11
f 20/144/11 41/143/11 53/146/11
f 20/144/11 53/146/11 39/147/11
f 39/147/11 53/146/11 28/148/11
f 43/149/11 42/145/11 20/144/11
f 42/145/11 43/149/11 17/150/11
f 17/150/11 43/149/11 28/148/11
f 17/150/11 28/148/11 53/146/11
f 12/151/19 44/152/19 45/153/19
f 44/152/19 12/151/19 46/154/19
f 44/152/19 46/154/19 47/155/19
f 47/155/19 46/154/19 24/156/19
f 48/157/6 12/158/6 49/159/6
f 12/158/6 48/157/6 32/160/6
f 12/158/6 32/160/6 52/161/6
f 52/161/6 32/160/6 51/162/6
f 45/163/6 49/159/6 12/158/6
f 49/159/6 45/163/6 50/164/6
f 50/164/6 45/163/6 51/162/6
f 50/164/6 51/162/6 32/160/6
f 29/165/20 51/166/20 11/167/20
f 51/166/20 29/165/20 13/168/20
f 13/168/20 29/165/20 30/169/20
f 52/170/20 51/166/20 13/168/20
f 7/171/13 53/172/13 41/173/13
f 53/172/13 7/171/13 54/174/13
