# Blender v2.79 (sub 0) OBJ File: 'Fixing models.blend'
# www.blender.org
mtllib cliffGrey_waterfallMid.mtl
o cliffGrey_waterfallMid
v 7.957304 -0.000001 -4.584223
v 9.999999 -0.000001 -4.584223
v 9.999999 10.000000 -0.000003
v -0.000000 9.999999 -4.584224
v 2.336769 9.999999 -4.584225
v 2.822126 9.999999 -4.584225
v 9.999999 -0.000000 -0.000001
v -0.000000 -0.000001 -4.584222
v 0.000000 0.000000 0.000000
v -0.000000 10.000000 -0.000002
v 1.239546 9.999999 -4.105897
v 1.239546 -0.000001 -4.105895
v 2.336769 -0.000001 -4.584222
v 2.822126 9.999999 -4.214213
v 2.822126 -0.000001 -4.214211
v 7.957304 9.999999 -3.996437
v 7.957304 -0.000001 -3.996435
v 9.999999 9.999999 -4.584225
v 2.822126 -0.000001 -4.584223
v 7.957304 9.999999 -4.584225
vt -31.327974 18.048120
vt -11.110736 16.591381
vt -11.110736 18.048120
vt -31.327974 15.733994
vt -39.370079 0.000000
vt -4.880104 16.164942
vt 0.000000 0.000000
vt 0.000000 18.048120
vt -9.199881 18.048120
vt -39.370079 18.048120
vt 39.370079 0.000000
vt 0.000000 18.048120
vt 0.000000 0.000000
vt 4.880104 16.164942
vt 11.110736 16.591381
vt 9.199881 18.048120
vt 11.110736 18.048120
vt 31.327974 15.733994
vt 39.370079 18.048120
vt 31.327974 18.048120
vt 18.048120 0.000000
vt -0.000000 39.370079
vt -0.000000 0.000000
vt 18.048120 39.370079
vt -18.048120 39.370079
vt 0.000000 39.370079
vt -18.048120 0.000000
vt 39.370079 39.370079
vt 39.370079 0.000000
vt 6.497579 0.000000
vt 1.266730 39.370079
vt 1.266730 0.000000
vt 6.497579 39.370079
vt -10.933348 39.370079
vt -15.645761 0.000000
vt -10.933348 0.000000
vt -15.645761 39.370079
vt 3.625669 0.000000
vt 1.222867 39.370079
vt 1.222867 0.000000
vt 3.625669 39.370079
vt -34.457272 39.370079
vt -42.825706 0.000000
vt -34.457272 0.000000
vt -42.825706 39.370079
vt -18.048120 39.370079
vt -16.591381 0.000000
vt -16.591381 39.370079
vt -18.048120 0.000000
vt -11.110736 0.000000
vt -31.327974 39.370079
vt -31.327974 0.000000
vt -11.110736 39.370079
vt 18.048120 0.000000
vt 15.733994 39.370079
vt 15.733994 0.000000
vt 18.048120 39.370079
vn 0.0000 -1.0000 0.0000
vn -0.0000 1.0000 -0.0000
vn 1.0000 -0.0000 0.0000
vn -1.0000 0.0000 0.0000
vn 0.0000 0.0000 1.0000
vn 0.3600 -0.0000 -0.9329
vn -0.3996 -0.0000 -0.9167
vn 0.6063 -0.0000 -0.7953
vn -0.2765 -0.0000 -0.9610
vn 0.0000 -0.0000 -1.0000
usemtl natureKit-stone
s off
f 1/1/1 15/2/1 19/3/1
f 15/2/1 1/1/1 17/4/1
f 7/5/1 15/2/1 17/4/1
f 7/5/1 12/6/1 15/2/1
f 9/7/1 12/6/1 7/5/1
f 12/6/1 9/7/1 8/8/1
f 15/2/1 12/6/1 13/9/1
f 7/5/1 17/4/1 2/10/1
f 3/11/2 4/12/2 10/13/2
f 4/12/2 3/11/2 11/14/2
f 11/14/2 3/11/2 14/15/2
f 11/14/2 14/15/2 5/16/2
f 14/15/2 3/11/2 6/17/2
f 6/17/2 3/11/2 16/18/2
f 16/18/2 3/11/2 18/19/2
f 20/20/2 6/17/2 16/18/2
f 2/21/3 3/22/3 7/23/3
f 3/22/3 2/21/3 18/24/3
f 4/25/4 9/7/4 10/26/4
f 9/7/4 4/25/4 8/27/4
f 3/28/5 9/7/5 7/29/5
f 9/7/5 3/28/5 10/26/5
f 8/30/6 11/31/6 12/32/6
f 11/31/6 8/30/6 4/33/6
f 11/34/7 13/35/7 12/36/7
f 13/35/7 11/34/7 5/37/7
f 13/38/8 14/39/8 15/40/8
f 14/39/8 13/38/8 5/41/8
f 16/42/9 2/43/9 17/44/9
f 2/43/9 16/42/9 18/45/9
usemtl natureKit-water
f 6/46/4 15/47/4 14/48/4
f 15/47/4 6/46/4 19/49/4
f 19/50/10 20/51/10 1/52/10
f 20/51/10 19/50/10 6/53/10
f 1/54/3 16/55/3 17/56/3
f 16/55/3 1/54/3 20/57/3
