# Blender v2.79 (sub 0) OBJ File: 'Fixing models.blend'
# www.blender.org
mtllib cliffGrey_halfCorner.mtl
o cliffGrey_halfCorner
v 4.584222 -0.000000 -0.000000
v -0.000000 -0.000001 -4.584222
v 0.000000 -0.000000 -0.000000
v -0.000000 5.000000 -0.000001
v 1.337065 4.590909 -2.121209
v 2.509300 4.181818 -1.270674
v 1.693950 4.181818 -2.086023
v 2.580006 4.386364 -1.039118
v 3.136573 5.000000 -0.000001
v 2.821281 4.181818 -0.958693
v 3.779973 4.181818 -0.000001
v -0.000000 4.181818 -3.779974
v 1.301879 4.181818 -2.478095
v -0.000000 5.000000 -3.136574
vt 8.731859 17.533699
vt -12.761949 -2.559643
vt 12.761949 -2.559643
vt -8.731859 17.533699
vt -18.048120 0.000000
vt -0.000000 0.000000
vt -0.000000 18.048120
vt 18.048120 0.000000
vt -0.000000 19.685040
vt 12.348714 19.685040
vt -18.048120 0.000000
vt -12.348714 19.685040
vt 2.182965 11.117880
vt -3.448195 9.275037
vt 1.091482 9.275037
vt -4.289660 10.196459
vt -8.731859 12.960722
vt -5.185236 9.275037
vt 12.348714 0.000000
vt 0.000000 12.348714
vt -0.000000 0.000000
vt -10.523010 9.275037
vt 8.731859 12.960722
vt 10.523010 9.275037
vt 3.274447 9.275037
vn 0.6927 0.2006 -0.6927
vn 0.0000 -1.0000 0.0000
vn 0.0000 0.0000 1.0000
vn -1.0000 -0.0000 0.0000
vn 0.6180 0.4860 -0.6180
vn -0.0000 1.0000 0.0000
usemtl natureKit-stone
s off
f 14/1/1 1/2/1 2/3/1
f 1/2/1 14/1/1 9/4/1
f 1/5/2 3/6/2 2/7/2
f 1/8/3 4/9/3 3/6/3
f 4/9/3 1/8/3 9/10/3
f 4/9/4 2/11/4 3/6/4
f 2/11/4 4/9/4 14/12/4
usemtl natureKit-leavesGreen
f 5/13/5 6/14/5 7/15/5
f 6/14/5 5/13/5 8/16/5
f 9/17/5 8/16/5 5/13/5
f 9/17/5 10/18/5 8/16/5
f 9/19/6 14/20/6 4/21/6
s 1
f 10/18/5 9/17/5 11/22/5
f 9/17/5 5/13/5 14/23/5
f 5/13/5 12/24/5 14/23/5
f 12/24/5 5/13/5 13/25/5
