# Blender v2.79 (sub 0) OBJ File: 'Fixing models.blend'
# www.blender.org
mtllib flower_red1.mtl
o flower_red1
v 0.350000 2.200000 0.349999
v -0.462000 2.800000 -0.291413
v -0.462000 2.800000 0.291412
v -0.350000 2.200000 -0.350000
v 0.087500 1.800000 0.087500
v 0.350000 2.200000 -0.350000
v 0.087500 1.800000 -0.087500
v 0.291412 2.800000 0.461999
v -0.087500 1.800000 0.087500
v -0.350000 2.200000 0.350000
v -0.291412 2.800000 0.461999
v -0.087500 1.800000 -0.087500
v -0.291412 2.800000 -0.462001
v 0.291412 2.800000 -0.462001
v 0.462000 2.800000 0.291412
v 0.462000 2.800000 -0.291413
v -0.000000 0.549969 -1.037845
v 0.536260 0.936597 -0.175000
v 1.037845 1.309450 -0.000000
v -0.536260 0.624398 -0.175000
v -1.037845 0.872967 -0.000000
v 0.150697 0.655618 0.536260
v -0.024303 0.916615 1.037845
v -0.199303 0.655618 0.536260
v -0.199303 0.000000 0.175000
v -0.175000 0.393371 -0.536260
v 0.175000 0.393371 -0.536260
v 0.175000 -0.000000 -0.175000
v 0.175000 0.000000 0.175000
v 0.536260 0.936597 0.175000
v 0.150697 0.000000 0.175000
v -0.536260 0.624398 0.175000
v -0.175000 0.000000 0.175000
v -0.175000 -0.000000 -0.175000
v -0.175000 0.000000 0.175000
v -0.175000 -0.000000 -0.175000
v -0.536260 0.624398 -0.175000
v -1.037845 0.872967 -0.000000
v 0.150697 0.655618 0.536260
v -0.024303 0.916615 1.037845
v 0.175000 0.000000 0.175000
v 0.536260 0.936597 0.175000
v 0.175000 -0.000000 -0.175000
v 0.536260 0.936597 -0.175000
v 1.037845 1.309450 -0.000000
v -0.536260 0.624398 0.175000
v -0.175000 0.393371 -0.536260
v -0.199303 0.655618 0.536260
v 0.175000 0.393371 -0.536260
v 0.150697 0.000000 0.175000
v -0.000000 0.549969 -1.037845
vt 1.377953 8.767199
vt -1.147293 11.170206
vt -1.377953 8.767199
vt 1.147293 11.170206
vt -0.474896 11.133613
vt -0.000000 8.766732
vt 0.474896 11.133613
vt 1.147293 11.170206
vt -1.377953 8.767199
vt 1.377953 8.767199
vt -1.147293 11.170206
vt 0.474896 11.133613
vt -0.474896 11.133613
vt 0.000000 8.766732
vt -0.344488 6.113755
vt 1.377953 7.997383
vt -1.377953 7.997383
vt 0.344488 6.113755
vt 0.474896 11.133613
vt -0.474896 11.133613
vt 0.000000 8.766732
vt 1.377953 7.997383
vt -0.344488 6.113755
vt 0.344488 6.113755
vt -1.377953 7.997383
vt 1.147293 11.170206
vt -1.377953 8.767199
vt 1.377953 8.767199
vt -1.147293 11.170206
vt -0.474896 11.133613
vt -0.000000 8.766732
vt 0.474896 11.133613
vt -1.377953 7.997383
vt 0.344488 6.113755
vt 1.377953 7.997383
vt -0.344488 6.113755
vt 1.147293 11.170206
vt -1.377953 8.767199
vt 1.377953 8.767199
vt -1.147293 11.170206
vt 1.377953 7.997383
vt -0.344488 6.113755
vt 0.344488 6.113755
vt -1.377953 7.997383
vt -1.147293 -1.818898
vt -1.818898 1.147293
vt -1.818898 -1.147293
vt -1.147293 1.818898
vt 1.147293 -1.818898
vt 1.147293 1.818898
vt 1.818898 -1.147293
vt 1.818898 1.147293
vt 0.000000 0.000000
vt 0.000000 0.000000
vt 0.000000 0.000000
vt 0.000000 0.000000
vt 0.000000 0.000000
vt 0.000000 0.000000
vt 0.000000 0.000000
vt 0.000000 0.000000
vt 0.000000 0.000000
vt 0.000000 0.000000
vt 0.000000 0.000000
vt 0.000000 0.000000
vt 0.000000 0.000000
vt 0.000000 0.000000
vt 0.000000 0.000000
vt 0.000000 0.000000
vt 0.000000 0.000000
vt 0.000000 0.000000
vt 0.000000 0.000000
vt 0.000000 0.000000
vt 0.000000 0.000000
vt 0.000000 0.000000
vt 0.000000 0.000000
vt 0.000000 0.000000
vt 0.000000 0.000000
vt 0.000000 0.000000
vt 0.000000 0.000000
vt 0.000000 0.000000
vt 0.000000 0.000000
vt 0.000000 0.000000
vt 0.000000 0.000000
vt 0.000000 0.000000
vt 0.000000 0.000000
vt 0.000000 0.000000
vt -0.688976 0.688976
vt 0.688976 -0.688976
vt 0.688976 0.688976
vt -0.593296 -0.688976
vt -0.688976 -0.688976
vt 0.688976 0.688976
vt 0.688976 -0.688976
vt -0.000000 6.354794
vt 0.688976 3.894222
vt -0.688976 3.894222
vt 0.688976 2.983261
vt -0.688976 2.983261
vt 0.000000 5.187189
vt -0.593296 3.064336
vt 0.095680 5.290422
vt 0.784656 3.064336
vt 0.688976 0.332504
vt -0.593296 0.332504
vt 0.784656 3.279595
vt -0.593296 3.279595
vt 0.688976 2.568735
vt 0.688976 0.466028
vt -0.688976 0.466028
vt 0.688976 4.200125
vt 0.688976 0.247944
vt -0.688976 0.247944
vt -0.688976 4.200125
vt -0.688976 0.345035
vt -0.688976 3.185094
vt 0.688976 3.185094
vt 0.688976 0.345035
vt 0.688976 -0.033452
vt -0.688976 -0.033452
vt -0.688976 -0.033452
vt 0.688976 -0.033452
vt 0.784656 3.279595
vt 0.688976 0.332504
vt 0.784656 0.332504
vt -0.344488 7.061530
vt 0.344488 7.061530
vt 0.344488 7.061530
vt -0.688976 -0.033452
vt 0.688976 -0.033452
vt -0.344488 7.061530
vt 0.593296 -0.033452
vt -0.688976 -0.033452
vt -0.688976 -0.033452
vt 0.593296 -0.033452
vt 0.344488 7.061530
vt -0.688976 -0.033452
vt 0.688976 -0.033452
vt -0.344488 7.061530
vt 0.344488 7.061530
vt 0.688976 -0.033452
vt -0.344488 7.061530
vt 0.688976 2.476870
vt -0.688976 2.476870
vt -0.000000 4.545617
vt -0.688976 2.568735
vt -0.688976 -0.033452
vt 0.688976 -0.033452
vn 0.9830 -0.1835 -0.0000
vn -0.7057 -0.0628 -0.7057
vn -0.9830 -0.1835 0.0000
vn 0.7057 -0.0628 -0.7057
vn 0.8360 -0.5487 -0.0000
vn 0.7057 -0.0628 0.7057
vn 0.0000 -0.5487 0.8360
vn 0.0000 -0.1835 0.9830
vn -0.7057 -0.0628 0.7057
vn -0.8360 -0.5487 0.0000
vn 0.0000 -0.1835 -0.9830
vn 0.0000 -0.5487 -0.8360
vn 0.0000 1.0000 -0.0000
vn 0.0000 0.0000 1.0000
vn 0.0000 -1.0000 0.0000
vn 0.5966 -0.8026 0.0000
vn -0.4440 -0.8960 0.0000
vn 0.0000 -0.8871 0.4616
vn 0.0000 -0.4826 0.8758
vn -0.0000 -0.6764 -0.7365
vn 0.9330 -0.3599 -0.0000
vn -0.8656 -0.5008 0.0000
vn 0.0000 0.4826 -0.8758
vn 0.9988 0.0486 -0.0000
vn -0.0000 0.0486 -0.9988
vn -0.9988 0.0486 0.0000
vn 0.0000 0.0486 0.9988
vn -0.0000 -0.9546 -0.2980
usemtl natureKit-mushroom
s off
f 6/1/1 15/2/1 1/3/1
f 15/2/1 6/1/1 16/4/1
f 13/5/2 4/6/2 2/7/2
f 3/8/3 4/9/3 10/10/3
f 4/9/3 3/8/3 2/11/3
f 14/12/4 16/13/4 6/14/4
f 5/15/5 6/16/5 1/17/5
f 6/16/5 5/15/5 7/18/5
f 15/19/6 8/20/6 1/21/6
f 1/22/7 9/23/7 5/24/7
f 9/23/7 1/22/7 10/25/7
f 8/26/8 10/27/8 1/28/8
f 10/27/8 8/26/8 11/29/8
f 3/30/9 10/31/9 11/32/9
f 4/33/10 9/34/10 10/35/10
f 9/34/10 4/33/10 12/36/10
f 13/37/11 6/38/11 4/39/11
f 6/38/11 13/37/11 14/40/11
f 4/41/12 7/42/12 12/43/12
f 7/42/12 4/41/12 6/44/12
f 11/45/13 2/46/13 3/47/13
f 2/46/13 11/45/13 13/48/13
f 13/48/13 11/45/13 8/49/13
f 13/48/13 8/49/13 14/50/13
f 14/50/13 8/49/13 15/51/13
f 14/50/13 15/51/13 16/52/13
f 23/53/14 22/54/14 39/55/14 40/56/14
f 17/57/14 26/58/14 47/59/14 51/60/14
f 30/61/14 19/62/14 45/63/14 42/64/14
f 20/65/14 21/66/14 38/67/14 37/68/14
f 26/58/14 34/69/14 36/70/14 47/59/14
f 29/71/14 30/61/14 42/64/14 41/72/14
f 22/54/14 31/73/14 50/74/14 39/55/14
f 21/66/14 32/75/14 46/76/14 38/67/14
f 24/77/14 23/53/14 40/56/14 48/78/14
f 19/62/14 18/79/14 44/80/14 45/63/14
f 34/69/14 20/65/14 37/68/14 36/70/14
f 18/79/14 28/81/14 43/82/14 44/80/14
f 27/83/14 17/57/14 51/60/14 49/84/14
f 32/75/14 33/85/14 35/86/14 46/76/14
f 28/81/14 27/83/14 49/84/14 43/82/14
usemtl natureKit-leavesGreen
f 28/87/15 33/88/15 34/89/15
f 33/88/15 28/87/15 31/90/15
f 31/90/15 28/87/15 29/91/15
f 33/88/14 34/89/14 36/92/14 35/93/14
f 45/94/16 42/95/16 44/96/16
f 37/97/17 46/98/17 38/99/17
f 39/100/18 40/101/18 48/102/18
f 35/103/19 50/104/19 48/105/19
f 50/104/19 39/106/19 48/105/19
f 49/107/20 43/108/20 36/109/20
f 42/110/21 41/111/21 43/112/21
f 43/112/21 44/113/21 42/110/21
f 35/114/22 46/115/22 37/116/22
f 37/116/22 36/117/22 35/114/22
s 1
f 28/118/14 29/119/14 41/120/14 43/121/14
f 24/122/23 33/123/23 25/124/23
f 33/123/14 24/122/14 48/105/14 35/103/14
f 28/118/24 5/125/24 29/119/24
f 5/125/24 28/118/24 7/126/24
f 12/127/25 28/128/25 34/129/25
f 28/128/25 12/127/25 7/130/25
f 31/131/14 33/132/14 35/133/14 50/134/14
f 9/135/26 34/136/26 33/137/26
f 34/136/26 9/135/26 12/138/26
f 5/139/27 31/131/27 29/140/27
f 31/131/27 5/139/27 33/132/27
f 33/132/27 5/139/27 9/141/27
f 49/142/28 47/143/28 51/144/28
f 36/109/20 47/145/20 49/107/20
f 34/129/14 28/128/14 43/146/14 36/147/14
