# Blender v2.79 (sub 0) OBJ File: 'Fixing models.blend'
# www.blender.org
mtllib flower_red2.mtl
o flower_red2
v 0.213500 0.000000 0.213500
v 0.213500 -0.000000 -0.213500
v -0.213500 0.000000 0.213500
v -0.213500 -0.000000 -0.213500
v 0.134505 -0.000000 -0.213500
v 0.496405 0.819550 0.269010
v 0.727344 0.950956 0.182897
v 0.857122 0.854000 -0.134505
v 0.727344 0.950956 -0.182897
v 0.857122 0.854000 0.134505
v 0.496405 0.819549 -0.269010
v 0.213500 -0.000000 -0.134505
v 0.213500 0.000000 0.134505
v -0.182897 0.950956 0.727344
v -0.269010 0.819550 0.496405
v -0.134505 0.854000 0.857122
v 0.182897 0.950956 0.727344
v 0.134505 0.854000 0.857122
v -0.134505 0.000000 0.213500
v 0.269010 0.819550 0.496405
v 0.134505 0.000000 0.213500
v -0.182897 0.950956 -0.727345
v -0.134505 0.854000 -0.857122
v 0.134505 0.854000 -0.857122
v 0.269010 0.819549 -0.496406
v -0.134505 -0.000000 -0.213500
v -0.269010 0.819549 -0.496406
v 0.182897 0.950956 -0.727345
v -0.857122 0.854000 -0.134505
v -0.857122 0.854000 0.134505
v -0.727344 0.950956 0.182897
v -0.727344 0.950956 -0.182897
v -0.213500 -0.000000 -0.134505
v -0.213500 0.000000 0.134505
v -0.496405 0.819550 0.269010
v -0.496405 0.819549 -0.269010
v -0.302957 2.196000 -0.302957
v 0.302957 2.196000 0.302956
v 0.302956 2.196000 -0.302957
v -0.302956 2.196000 0.302956
v -0.508130 1.952000 -0.508130
v -0.106750 1.464000 0.106750
v 0.106750 1.464000 -0.106750
v -0.106750 1.464000 -0.106750
v 0.508130 1.952000 -0.508130
v 0.508130 1.952000 0.508130
v -0.508130 1.952000 0.508130
v 0.106750 1.464000 0.106750
v -0.182897 0.950956 0.727344
v -0.269010 0.819550 0.496405
v -0.134505 0.854000 0.857122
v 0.182897 0.950956 0.727344
v 0.857122 0.854000 -0.134505
v 0.727344 0.950956 -0.182897
v -0.727344 0.950956 0.182897
v -0.727344 0.950956 -0.182897
v -0.496405 0.819550 0.269010
v -0.496405 0.819549 -0.269010
v 0.496405 0.819550 0.269010
v 0.727344 0.950956 0.182897
v 0.496405 0.819549 -0.269010
v 0.213500 -0.000000 -0.134505
v -0.134505 0.854000 -0.857122
v 0.134505 0.854000 -0.857122
v -0.857122 0.854000 -0.134505
v -0.857122 0.854000 0.134505
v 0.134505 0.000000 0.213500
v 0.269010 0.819550 0.496405
v 0.857122 0.854000 0.134505
v 0.182897 0.950956 -0.727345
v -0.182897 0.950956 -0.727345
v 0.134505 0.854000 0.857122
v -0.213500 0.000000 0.134505
v -0.213500 -0.000000 -0.134505
v -0.134505 -0.000000 -0.213500
v 0.269010 0.819549 -0.496406
v -0.134505 0.000000 0.213500
v 0.213500 0.000000 0.134505
v 0.134505 -0.000000 -0.213500
v -0.269010 0.819549 -0.496406
vt -0.434055 -0.050105
vt -0.344488 4.686847
vt -0.688976 -0.050105
vt 0.434055 -0.050105
vt 0.344488 4.686847
vt 0.688976 -0.050105
vt 0.344488 4.686847
vt 0.434055 -0.050105
vt 0.688976 -0.050105
vt -0.434055 -0.050105
vt -0.688976 -0.050105
vt -0.344488 4.686847
vt 0.344488 4.686847
vt 0.434055 -0.050105
vt 0.688976 -0.050105
vt -0.434055 -0.050105
vt -0.344488 4.686847
vt -0.688976 -0.050105
vt 0.344488 4.686847
vt 0.434055 -0.050105
vt 0.688976 -0.050105
vt -0.434055 -0.050105
vt -0.688976 -0.050105
vt -0.344488 4.686847
vt -0.688976 0.688976
vt -0.688976 0.434055
vt -0.434055 0.688976
vt -0.688976 -0.688976
vt -0.434055 -0.688976
vt 0.434055 0.688976
vt 0.434055 -0.688976
vt 0.688976 -0.434055
vt 0.688976 0.434055
vt 0.688976 0.688976
vt 0.688976 -0.688976
vt 0.000000 0.000000
vt 0.000000 0.000000
vt 0.000000 0.000000
vt 0.000000 0.000000
vt 0.000000 0.000000
vt 0.000000 0.000000
vt 0.000000 0.000000
vt 0.000000 0.000000
vt 0.000000 0.000000
vt 0.000000 0.000000
vt 0.000000 0.000000
vt 0.000000 0.000000
vt 0.000000 0.000000
vt 0.000000 0.000000
vt 0.000000 0.000000
vt 0.000000 0.000000
vt 0.000000 0.000000
vt 0.000000 0.000000
vt 0.000000 0.000000
vt 0.000000 0.000000
vt 0.000000 0.000000
vt 0.000000 0.000000
vt 0.000000 0.000000
vt 0.000000 0.000000
vt 0.000000 0.000000
vt 0.000000 0.000000
vt 0.434055 -0.688976
vt -0.434055 -0.688976
vt 0.000000 0.000000
vt 0.000000 0.000000
vt 0.688976 0.434055
vt 0.688976 -0.434055
vt 0.000000 0.000000
vt 0.000000 0.000000
vt 0.000000 0.000000
vt 0.000000 0.000000
vt 0.000000 0.000000
vt 0.000000 0.000000
vt 0.000000 0.000000
vt 0.000000 0.000000
vt 0.000000 0.000000
vt 0.000000 0.000000
vt 0.000000 0.000000
vt 0.000000 0.000000
vt 0.000000 0.000000
vt 0.000000 0.000000
vt 0.000000 0.000000
vt 0.000000 0.000000
vt 0.000000 0.000000
vt 0.000000 0.000000
vt 0.000000 0.000000
vt 0.000000 0.000000
vt 0.000000 0.000000
vt 0.000000 0.000000
vt -0.434055 0.688976
vt 0.434055 0.688976
vt 0.000000 0.000000
vt 0.000000 0.000000
vt 0.000000 0.000000
vt 0.000000 0.000000
vt 0.000000 0.000000
vt 0.000000 0.000000
vt 0.000000 0.000000
vt 0.000000 0.000000
vt 0.000000 0.000000
vt 0.000000 0.000000
vt 0.868110 2.700270
vt -0.868110 2.700270
vt -0.590218 3.557723
vt 0.590218 3.557723
vt -0.590218 -0.043672
vt 0.590218 -0.043672
vt 0.434055 -0.566440
vt -0.434055 -0.566440
vt -0.868110 3.022686
vt 0.868110 3.022686
vt 0.434055 0.224814
vt -0.434055 0.224814
vt 0.590218 3.557723
vt 0.868110 2.700270
vt -0.868110 2.700270
vt -0.590218 3.557723
vt -0.434055 -0.566440
vt -0.590218 -0.043672
vt 0.590218 -0.043672
vt 0.434055 -0.566440
vt 0.868110 3.022686
vt 0.434055 0.224814
vt -0.434055 0.224814
vt -0.868110 3.022686
vt -0.590218 -0.043672
vt 0.590218 -0.043672
vt 0.434055 -0.566440
vt -0.434055 -0.566440
vt 0.868110 3.022686
vt 0.434055 0.224814
vt -0.434055 0.224814
vt -0.868110 3.022686
vt 0.868110 2.700270
vt -0.868110 2.700270
vt -0.590218 3.557723
vt 0.590218 3.557723
vt 0.590218 -0.043672
vt 0.434055 -0.566440
vt -0.434055 -0.566440
vt -0.590218 -0.043672
vt -0.434055 0.224814
vt -0.868110 3.022686
vt 0.868110 3.022686
vt 0.434055 0.224814
vt -0.868110 2.700270
vt -0.590218 3.557723
vt 0.590218 3.557723
vt 0.868110 2.700270
vt 0.000000 0.000000
vt 0.000000 0.000000
vt 0.000000 0.000000
vt 0.000000 0.000000
vt -0.688976 -0.434055
vt -0.688976 -0.434055
vt -0.688976 0.434055
vt 0.977657 -0.977658
vt -0.977657 0.977657
vt -0.977657 -0.977658
vt 0.977657 0.977657
vt 0.977657 4.794712
vt -1.639764 3.765933
vt 1.639764 3.765933
vt -0.977657 4.794712
vt 1.639764 3.765933
vt -0.977657 4.794712
vt -1.639764 3.765933
vt 0.977657 4.794712
vt 0.977657 4.794712
vt -1.639764 3.765933
vt 1.639764 3.765933
vt -0.977657 4.794712
vt 0.977657 4.794712
vt -1.639764 3.765933
vt 1.639764 3.765933
vt -0.977657 4.794712
vt -1.639764 5.906642
vt 0.344488 3.867587
vt 1.639764 5.906642
vt -0.344488 3.867587
vt 1.639764 5.906642
vt -0.344488 3.867587
vt 0.344488 3.867587
vt -1.639764 5.906642
vt 1.639764 5.906642
vt -0.344488 3.867587
vt 0.344488 3.867587
vt -1.639764 5.906642
vt -0.344488 3.867587
vt 1.639764 5.906642
vt -1.639764 5.906642
vt 0.344488 3.867587
vn 0.9974 0.0727 0.0000
vn 0.0000 0.0727 -0.9974
vn -0.9974 0.0727 0.0000
vn 0.0000 0.0727 0.9974
vn 0.0000 -1.0000 0.0000
vn 0.0000 0.0000 1.0000
vn 0.4946 -0.8691 0.0000
vn -0.5985 -0.8011 0.0000
vn 0.9453 -0.3263 -0.0000
vn 0.0000 -0.8691 0.4946
vn 0.0000 -0.8011 -0.5985
vn 0.0000 -0.3263 0.9453
vn 0.0000 -0.8011 0.5985
vn 0.0000 -0.3263 -0.9453
vn 0.0000 -0.8691 -0.4946
vn 0.5985 -0.8011 0.0000
vn -0.9453 -0.3263 0.0000
vn -0.4946 -0.8691 0.0000
vn 0.0000 1.0000 -0.0000
vn -0.0000 0.6436 -0.7654
vn 0.7654 0.6436 -0.0000
vn -0.7654 0.6436 -0.0000
vn 0.0000 0.6436 0.7654
vn -0.7723 -0.6352 0.0000
vn 0.0000 -0.6352 -0.7723
vn 0.0000 -0.6352 0.7723
vn 0.7723 -0.6352 0.0000
usemtl natureKit-leavesGreen
s off
f 13/1/1 48/2/1 1/3/1
f 48/2/1 13/1/1 12/4/1
f 48/2/1 12/4/1 43/5/1
f 43/5/1 12/4/1 2/6/1
f 44/7/2 26/8/2 4/9/2
f 26/8/2 44/7/2 5/10/2
f 5/10/2 44/7/2 2/11/2
f 2/11/2 44/7/2 43/12/2
f 42/13/3 34/14/3 3/15/3
f 34/14/3 42/13/3 33/16/3
f 33/16/3 42/13/3 44/17/3
f 33/16/3 44/17/3 4/18/3
f 48/19/4 21/20/4 1/21/4
f 21/20/4 48/19/4 19/22/4
f 19/22/4 48/19/4 3/23/4
f 3/23/4 48/19/4 42/24/4
f 2/25/5 12/26/5 5/27/5
f 1/28/5 5/27/5 12/26/5
f 21/29/5 5/27/5 1/28/5
f 21/29/5 26/30/5 5/27/5
f 19/31/5 26/30/5 21/29/5
f 34/32/5 26/30/5 19/31/5
f 33/33/5 26/30/5 34/32/5
f 26/30/5 33/33/5 4/34/5
f 19/31/5 3/35/5 34/32/5
f 31/36/6 35/37/6 57/38/6 55/39/6
f 19/40/6 15/41/6 50/42/6 77/43/6
f 27/44/6 26/45/6 75/46/6 80/47/6
f 29/48/6 30/49/6 66/50/6 65/51/6
f 30/49/6 31/36/6 55/39/6 66/50/6
f 32/52/6 29/48/6 65/51/6 56/53/6
f 24/54/6 23/55/6 63/56/6 64/57/6
f 5/58/6 25/59/6 76/60/6 79/61/6
f 21/29/6 19/31/6 77/62/6 67/63/6
f 28/64/6 24/54/6 64/57/6 70/65/6
f 34/32/6 33/33/6 74/66/6 73/67/6
f 33/68/6 36/69/6 58/70/6 74/71/6
f 10/72/6 8/73/6 53/74/6 69/75/6
f 35/37/6 34/76/6 73/77/6 57/38/6
f 17/78/6 20/79/6 68/80/6 52/81/6
f 11/82/6 12/83/6 62/84/6 61/85/6
f 6/86/6 7/87/6 60/88/6 59/89/6
f 26/30/6 5/27/6 79/90/6 75/91/6
f 14/92/6 16/93/6 51/94/6 49/95/6
f 20/79/6 21/96/6 67/97/6 68/80/6
f 18/98/6 17/78/6 52/81/6 72/99/6
f 7/87/6 10/72/6 69/75/6 60/88/6
f 22/100/6 27/44/6 80/47/6 71/101/6
f 59/102/7 61/103/7 54/104/7
f 54/104/7 60/105/7 59/102/7
f 60/106/8 54/107/8 53/108/8
f 53/108/8 69/109/8 60/106/8
f 61/110/9 59/111/9 78/112/9
f 78/112/9 62/113/9 61/110/9
f 49/114/10 50/115/10 68/116/10
f 68/116/10 52/117/10 49/114/10
f 51/118/11 49/119/11 52/120/11
f 52/120/11 72/121/11 51/118/11
f 50/122/12 77/123/12 67/124/12
f 67/124/12 68/125/12 50/122/12
f 70/126/13 71/127/13 63/128/13
f 63/128/13 64/129/13 70/126/13
f 76/130/14 79/131/14 75/132/14
f 75/132/14 80/133/14 76/130/14
f 76/134/15 80/135/15 71/136/15
f 71/136/15 70/137/15 76/134/15
f 55/138/16 66/139/16 65/140/16
f 65/140/16 56/141/16 55/138/16
f 73/142/17 57/143/17 58/144/17
f 58/144/17 74/145/17 73/142/17
f 57/146/18 55/147/18 56/148/18
f 56/148/18 58/149/18 57/146/18
f 15/41/6 14/92/6 49/95/6 50/42/6
f 9/150/6 11/82/6 61/85/6 54/151/6
f 16/93/6 18/98/6 72/99/6 51/94/6
f 13/152/6 6/86/6 59/89/6 78/153/6
f 8/73/6 9/150/6 54/151/6 53/74/6
f 36/69/6 32/52/6 56/53/6 58/70/6
f 25/59/6 28/64/6 70/65/6 76/60/6
f 23/55/6 22/100/6 71/101/6 63/56/6
s 1
f 1/28/5 12/26/5 13/154/5
f 12/26/6 13/154/6 78/155/6 62/156/6
usemtl natureKit-mushroom
s off
f 38/157/19 37/158/19 40/159/19
f 37/158/19 38/157/19 39/160/19
f 37/161/20 45/162/20 41/163/20
f 45/162/20 37/161/20 39/164/20
f 45/165/21 38/166/21 46/167/21
f 38/166/21 45/165/21 39/168/21
f 40/169/22 41/170/22 47/171/22
f 41/170/22 40/169/22 37/172/22
f 38/173/23 47/174/23 46/175/23
f 47/174/23 38/173/23 40/176/23
f 41/177/24 42/178/24 47/179/24
f 42/178/24 41/177/24 44/180/24
f 41/181/25 43/182/25 44/183/25
f 43/182/25 41/181/25 45/184/25
f 46/185/26 42/186/26 48/187/26
f 42/186/26 46/185/26 47/188/26
f 48/189/27 45/190/27 46/191/27
f 45/190/27 48/189/27 43/192/27
