# Blender v2.79 (sub 0) OBJ File: 'Fixing models.blend'
# www.blender.org
mtllib grass.mtl
o grass
v -1.364389 0.328874 0.509148
v -1.364389 0.000000 0.590130
v -0.964389 0.000000 0.590130
v -0.964389 0.328874 0.509148
v -0.259263 0.585602 1.541896
v 0.140737 0.000000 1.460914
v -0.259263 0.000000 1.460914
v 0.140737 0.585602 1.541896
v 1.130773 -0.000000 -0.250591
v 0.730773 -0.000000 -0.250591
v 0.140737 0.984060 1.760913
v -0.259263 0.984060 1.760914
v 1.130773 1.623060 -0.550591
v 0.730773 0.965863 -0.331573
v 1.130773 0.965863 -0.331573
v 0.730773 1.623060 -0.550591
v 0.347606 0.000000 0.586317
v 0.428589 0.956736 0.186317
v 1.405370 0.000000 0.356279
v 1.486352 0.585602 0.356279
v 1.405370 -0.000000 -0.043721
v -1.705369 1.386000 -0.556279
v -1.905370 1.540000 -0.956279
v -1.905370 1.540000 -0.556279
v -1.705370 1.386000 -0.956279
v 0.730773 1.803400 -0.750591
v 1.130773 1.803400 -0.750591
v -0.230773 -0.000000 -0.349409
v -0.630773 -0.000000 -0.349409
v -0.630773 1.071158 -0.268427
v -0.347606 2.540000 -0.786318
v -0.347606 2.540000 -1.186318
v -0.147606 2.286000 -1.186318
v -0.230773 1.071158 -0.268427
v -0.630773 1.800000 -0.049410
v 1.486352 0.585602 -0.043721
v -0.259263 1.093400 1.960913
v 0.140737 1.093400 1.960913
v 0.428589 0.956736 0.586317
v 0.647606 1.607721 0.186317
v 0.847606 1.786357 0.186317
v 0.647606 1.607722 0.586317
v 0.847606 1.786357 0.586317
v -1.486352 0.824792 -0.556279
v -1.405370 -0.000000 -0.956279
v -1.405370 -0.000000 -0.556279
v -1.486352 0.824792 -0.956279
v 0.759263 -0.000000 -1.460914
v 0.759263 0.824792 -1.541896
v 0.359263 -0.000000 -1.460914
v -1.364389 0.552648 0.290130
v -0.964389 0.552648 0.290130
v -1.364389 0.614053 0.090130
v -0.964389 0.614053 0.090130
v 1.705369 0.984060 0.356279
v 1.905370 1.093400 0.356279
v 1.705369 0.984060 -0.043721
v 1.905370 1.093400 -0.043721
v -0.230773 2.000000 0.150590
v -0.230773 1.800000 -0.049410
v -0.630773 2.000000 0.150590
v 0.359263 1.540000 -1.960914
v 0.759263 1.386000 -1.760914
v 0.759263 1.540000 -1.960914
v 0.071411 1.360371 -0.786318
v -0.147606 2.286000 -0.786318
v 0.071411 1.360371 -1.186318
v 0.152393 -0.000000 -1.186317
v 0.359263 0.824792 -1.541896
v 0.359263 1.386000 -1.760914
v 0.347606 0.000000 0.186317
v 0.185642 0.462540 0.586317
v -1.364388 0.342280 0.705125
v -1.364388 0.575175 1.016130
v -0.964389 0.342280 0.705125
v -0.964389 0.575175 1.016130
v -0.252394 0.777263 0.186317
v -0.252394 0.777263 0.586317
v 0.185642 0.462540 0.186317
v 0.752393 1.160094 -0.786318
v 0.752393 1.160094 -1.186318
v 0.314358 0.690358 -0.786318
v 0.314358 0.690358 -1.186317
v 0.152394 -0.000000 -0.786317
v -1.364389 0.328874 0.509148
v -1.364389 0.000000 0.590130
v -0.964389 0.000000 0.590130
v -0.964389 0.328874 0.509148
v -0.259263 0.585602 1.541896
v 0.140737 0.000000 1.460914
v -0.259263 0.000000 1.460914
v 0.140737 0.585602 1.541896
v 1.130773 -0.000000 -0.250591
v 0.730773 -0.000000 -0.250591
v 0.140737 0.984060 1.760913
v -0.259263 0.984060 1.760914
v 1.130773 1.623060 -0.550591
v 0.730773 0.965863 -0.331573
v 1.130773 0.965863 -0.331573
v 0.730773 1.623060 -0.550591
v 0.347606 0.000000 0.586317
v 0.428589 0.956736 0.186317
v 1.405370 0.000000 0.356279
v 1.486352 0.585602 0.356279
v 1.405370 -0.000000 -0.043721
v -1.705369 1.386000 -0.556279
v -1.905370 1.540000 -0.956279
v -1.905370 1.540000 -0.556279
v -1.705370 1.386000 -0.956279
v 0.730773 1.803400 -0.750591
v 1.130773 1.803400 -0.750591
v -0.230773 -0.000000 -0.349409
v -0.630773 -0.000000 -0.349409
v -0.630773 1.071158 -0.268427
v -0.347606 2.540000 -0.786318
v -0.347606 2.540000 -1.186318
v -0.147606 2.286000 -1.186318
v -0.230773 1.071158 -0.268427
v -0.630773 1.800000 -0.049410
v 1.486352 0.585602 -0.043721
v -0.259263 1.093400 1.960913
v 0.140737 1.093400 1.960913
v 0.428589 0.956736 0.586317
v 0.647606 1.607721 0.186317
v 0.847606 1.786357 0.186317
v 0.647606 1.607722 0.586317
v 0.847606 1.786357 0.586317
v -1.486352 0.824792 -0.556279
v -1.405370 -0.000000 -0.956279
v -1.405370 -0.000000 -0.556279
v -1.486352 0.824792 -0.956279
v 0.759263 -0.000000 -1.460914
v 0.759263 0.824792 -1.541896
v 0.359263 -0.000000 -1.460914
v -1.364389 0.552648 0.290130
v -0.964389 0.552648 0.290130
v -1.364389 0.614053 0.090130
v -0.964389 0.614053 0.090130
v 1.705369 0.984060 0.356279
v 1.905370 1.093400 0.356279
v 1.705369 0.984060 -0.043721
v 1.905370 1.093400 -0.043721
v -0.230773 2.000000 0.150590
v -0.230773 1.800000 -0.049410
v -0.630773 2.000000 0.150590
v 0.359263 1.540000 -1.960914
v 0.759263 1.386000 -1.760914
v 0.759263 1.540000 -1.960914
v 0.071411 1.360371 -0.786318
v -0.147606 2.286000 -0.786318
v 0.071411 1.360371 -1.186318
v 0.152393 -0.000000 -1.186317
v 0.359263 0.824792 -1.541896
v 0.359263 1.386000 -1.760914
v 0.347606 0.000000 0.186317
v 0.185642 0.462540 0.586317
v -1.364388 0.342280 0.705125
v -1.364388 0.575175 1.016130
v -0.964389 0.342280 0.705125
v -0.964389 0.575175 1.016130
v -0.252394 0.777263 0.186317
v -0.252394 0.777263 0.586317
v 0.185642 0.462540 0.186317
v 0.752393 1.160094 -0.786318
v 0.752393 1.160094 -1.186318
v 0.314358 0.690358 -0.786318
v 0.314358 0.690358 -1.186317
v 0.152394 -0.000000 -0.786317
vt 5.371609 0.777947
vt 5.371609 -0.555510
vt 3.796806 -0.555510
vt 3.796806 0.777947
vt -1.020721 0.787889
vt 0.554082 3.115351
vt -1.020721 3.115351
vt 0.554082 0.787889
vt -2.877061 3.898385
vt -4.451864 0.082430
vt -2.877061 0.082430
vt -4.451864 3.898385
vt 0.554082 6.734606
vt -1.020721 4.944513
vt 0.554082 4.944513
vt -1.020721 6.734606
vt -3.764878 7.524240
vt -2.190075 5.152464
vt -2.190075 7.524240
vt -3.764878 5.152464
vt -4.451864 4.020278
vt -2.877061 6.747564
vt -4.451864 6.747564
vt -2.877061 4.020278
vt -2.308336 0.115426
vt -0.733533 3.895571
vt -2.308336 3.895571
vt -0.733533 0.115426
vt -1.402673 0.757934
vt 0.172130 3.085396
vt -1.402673 3.085396
vt 0.172130 0.757934
vt -2.190075 9.642616
vt -3.764878 8.648835
vt -2.190075 8.648835
vt -3.764878 9.642616
vt -2.877061 6.949238
vt -4.451864 5.889002
vt -2.877061 5.889002
vt -4.451864 6.949238
vt -0.908557 4.125489
vt -2.483360 -0.103705
vt -0.908557 -0.103705
vt -2.483360 4.125489
vt -4.670541 8.703367
vt -3.095738 7.430574
vt -3.095738 8.703367
vt -4.670541 7.430574
vt -0.908557 6.730827
vt -2.483360 3.734614
vt -0.908557 3.734614
vt -2.483360 6.730827
vt -1.402673 4.839178
vt 0.172130 6.629272
vt -1.402673 6.629272
vt 0.172130 4.839178
vt -1.020721 7.941482
vt 0.554082 8.838872
vt -1.020721 8.838872
vt 0.554082 7.941482
vt -2.308336 4.108100
vt -0.733533 6.812201
vt -2.308336 6.812201
vt -0.733533 4.108100
vt -0.733533 6.118028
vt -2.308336 7.173783
vt -2.308336 6.118028
vt -0.733533 7.173783
vt -3.764878 3.803481
vt -2.190075 0.540654
vt -2.190075 3.803481
vt -3.764878 0.540654
vt -1.414422 3.824850
vt -2.989225 0.562023
vt -1.414422 0.562023
vt -2.989225 3.824850
vt 5.371609 0.755978
vt 5.371609 -0.476774
vt 3.796806 -0.476774
vt 3.796806 0.755978
vt 5.371609 0.370342
vt 5.371609 -0.453336
vt 3.796806 -0.453336
vt 3.796806 0.370342
vt 0.172130 7.749607
vt -1.402673 8.646996
vt -1.402673 7.749607
vt 0.172130 8.646996
vt -0.908557 5.986997
vt -2.483360 4.873443
vt -0.908557 4.873443
vt -2.483360 5.986997
vt -2.989225 9.815881
vt -1.414422 8.822100
vt -1.414422 9.815881
vt -2.989225 8.822100
vt -4.670541 8.891977
vt -3.095738 5.147145
vt -3.095738 8.891977
vt -4.670541 5.147145
vt -4.670541 5.329620
vt -3.095738 -0.035653
vt -3.095738 5.329620
vt -4.670541 -0.035653
vt -1.414422 7.603742
vt -2.989225 5.231966
vt -1.414422 5.231966
vt -2.989225 7.603742
vt 0.733533 1.477155
vt 2.308336 -0.452283
vt 2.308336 1.477155
vt 0.733533 -0.452283
vt -3.796806 3.029834
vt -5.371609 3.029834
vt -5.371609 4.559524
vt -3.796806 4.559524
vt 0.733533 0.469006
vt 2.308336 2.592530
vt 0.733533 2.592530
vt 2.308336 0.469006
vt -3.796806 2.161504
vt -3.796806 0.739927
vt -5.371609 0.739927
vt -5.371609 2.161504
vt 3.095738 2.831842
vt 4.670541 5.360513
vt 3.095738 5.360513
vt 4.670541 2.831842
vt 4.670541 2.928782
vt 3.095738 0.137039
vt 4.670541 0.137039
vt 3.095738 2.928782
vt 5.371609 0.777947
vt 5.371609 -0.555510
vt 3.796806 -0.555510
vt 3.796806 0.777947
vt -1.020721 0.787889
vt 0.554082 3.115351
vt -1.020721 3.115351
vt 0.554082 0.787889
vt -2.877061 3.898385
vt -4.451864 0.082430
vt -2.877061 0.082430
vt -4.451864 3.898385
vt 0.554082 6.734606
vt -1.020721 4.944513
vt 0.554082 4.944513
vt -1.020721 6.734606
vt -3.764878 7.524240
vt -2.190075 5.152464
vt -2.190075 7.524240
vt -3.764878 5.152464
vt -4.451864 4.020278
vt -2.877061 6.747564
vt -4.451864 6.747564
vt -2.877061 4.020278
vt -2.308336 0.115426
vt -0.733533 3.895571
vt -2.308336 3.895571
vt -0.733533 0.115426
vt -1.402673 0.757934
vt 0.172130 3.085396
vt -1.402673 3.085396
vt 0.172130 0.757934
vt -2.190075 9.642616
vt -3.764878 8.648835
vt -2.190075 8.648835
vt -3.764878 9.642616
vt -2.877061 6.949238
vt -4.451864 5.889002
vt -2.877061 5.889002
vt -4.451864 6.949238
vt -0.908557 4.125489
vt -2.483360 -0.103705
vt -0.908557 -0.103705
vt -2.483360 4.125489
vt -4.670541 8.703367
vt -3.095738 7.430574
vt -3.095738 8.703367
vt -4.670541 7.430574
vt -0.908557 6.730827
vt -2.483360 3.734614
vt -0.908557 3.734614
vt -2.483360 6.730827
vt -1.402673 4.839178
vt 0.172130 6.629272
vt -1.402673 6.629272
vt 0.172130 4.839178
vt -1.020721 7.941482
vt 0.554082 8.838872
vt -1.020721 8.838872
vt 0.554082 7.941482
vt -2.308336 4.108100
vt -0.733533 6.812201
vt -2.308336 6.812201
vt -0.733533 4.108100
vt -0.733533 6.118028
vt -2.308336 7.173783
vt -2.308336 6.118028
vt -0.733533 7.173783
vt -3.764878 3.803481
vt -2.190075 0.540654
vt -2.190075 3.803481
vt -3.764878 0.540654
vt -1.414422 3.824850
vt -2.989225 0.562023
vt -1.414422 0.562023
vt -2.989225 3.824850
vt 5.371609 0.755978
vt 5.371609 -0.476774
vt 3.796806 -0.476774
vt 3.796806 0.755978
vt 5.371609 0.370342
vt 5.371609 -0.453336
vt 3.796806 -0.453336
vt 3.796806 0.370342
vt 0.172130 7.749607
vt -1.402673 8.646996
vt -1.402673 7.749607
vt 0.172130 8.646996
vt -0.908557 5.986997
vt -2.483360 4.873443
vt -0.908557 4.873443
vt -2.483360 5.986997
vt -2.989225 9.815881
vt -1.414422 8.822100
vt -1.414422 9.815881
vt -2.989225 8.822100
vt -4.670541 8.891977
vt -3.095738 5.147145
vt -3.095738 8.891977
vt -4.670541 5.147145
vt -4.670541 5.329620
vt -3.095738 -0.035653
vt -3.095738 5.329620
vt -4.670541 -0.035653
vt -1.414422 7.603742
vt -2.989225 5.231966
vt -1.414422 5.231966
vt -2.989225 7.603742
vt 0.733533 1.477155
vt 2.308336 -0.452283
vt 2.308336 1.477155
vt 0.733533 -0.452283
vt -3.796806 3.029834
vt -5.371609 3.029834
vt -5.371609 4.559524
vt -3.796806 4.559524
vt 0.733533 0.469006
vt 2.308336 2.592530
vt 0.733533 2.592530
vt 2.308336 0.469006
vt -3.796806 2.161504
vt -3.796806 0.739927
vt -5.371609 0.739927
vt -5.371609 2.161504
vt 3.095738 2.831842
vt 4.670541 5.360513
vt 3.095738 5.360513
vt 4.670541 2.831842
vt 4.670541 2.928782
vt 3.095738 0.137039
vt 4.670541 0.137039
vt 3.095738 2.928782
vn 0.0000 0.0802 0.9968
vn 0.0000 -0.0458 0.9990
vn 0.0000 -0.1580 0.9874
vn 0.0000 -0.2013 -0.9795
vn 0.0000 -0.0836 -0.9965
vn 0.0000 -0.1652 0.9863
vn -0.9316 -0.3636 0.0000
vn -0.9725 -0.2328 0.0000
vn 0.0000 -0.5475 -0.8368
vn 0.9964 -0.0843 -0.0000
vn 0.9792 -0.2031 -0.0000
vn 0.9906 -0.1370 0.0000
vn 0.9492 -0.3146 0.0000
vn -0.6101 -0.7923 0.0000
vn 0.0000 -0.7427 -0.6697
vn 0.0000 -0.0914 0.9958
vn 0.0000 -0.0251 0.9997
vn -0.7857 -0.6186 0.0000
vn -0.9006 -0.4347 0.0000
vn 0.0000 -0.2620 0.9651
vn 0.8763 -0.4817 0.0000
vn 0.0000 -0.8774 0.4797
vn 0.8347 -0.5507 -0.0000
vn 0.6661 -0.7458 -0.0000
vn -0.9952 -0.0977 0.0000
vn -0.0000 -0.2328 -0.9725
vn -0.0000 -0.0977 -0.9952
vn 0.0000 0.8541 0.5201
vn 0.0000 0.6995 0.7147
vn 0.0000 0.9560 0.2935
vn 0.4797 -0.8774 0.0000
vn 0.0000 -0.7071 0.7071
vn 0.0000 -0.7923 -0.6101
vn -0.9894 -0.1454 0.0000
vn -0.9982 -0.0594 0.0000
vn 0.0000 -0.3636 -0.9316
vn -0.9438 -0.3305 0.0000
vn -0.0000 0.8004 -0.5994
vn -0.5835 -0.8121 -0.0000
vn -0.0000 0.3185 -0.9479
vn 0.8821 -0.4710 0.0000
vn 0.7314 -0.6820 0.0000
vn 0.9736 -0.2284 -0.0000
vn 0.0000 0.2391 0.9710
vn 0.0000 -0.1370 0.9906
vn 0.0000 -0.3146 0.9492
vn 0.0000 -0.4817 0.8763
vn 0.0000 -0.1827 0.9832
vn 0.0000 -0.0754 0.9972
vn 0.0000 -0.5130 0.8584
vn 0.0000 0.0000 1.0000
usemtl natureKit-leavesGreen
s 1
f 1/1/1 2/2/1 3/3/1
f 3/3/1 4/4/1 1/1/1
f 7/5/2 8/6/3 5/7/3
f 6/8/2 8/6/3 7/5/2
f 14/9/4 9/10/5 10/11/5
f 9/10/5 14/9/4 15/12/4
f 11/13/6 5/14/3 8/15/3
f 5/14/3 11/13/6 12/16/6
f 25/17/7 44/18/8 22/19/7
f 44/18/8 25/17/7 47/20/8
f 15/21/4 16/22/9 13/23/9
f 14/24/4 16/22/9 15/21/4
f 17/25/10 18/26/11 39/27/11
f 18/26/11 17/25/10 71/28/10
f 19/29/12 36/30/13 20/31/13
f 36/30/13 19/29/12 21/32/12
f 24/33/14 25/34/14 22/35/14
f 23/36/14 25/34/14 24/33/14
f 26/37/15 13/38/9 16/39/9
f 13/38/9 26/37/15 27/40/15
f 34/41/16 29/42/17 28/43/17
f 29/42/17 34/41/16 30/44/16
f 32/45/18 66/46/19 31/47/18
f 66/46/19 32/45/18 33/48/19
f 60/49/20 30/50/16 34/51/16
f 30/50/16 60/49/20 35/52/20
f 20/53/13 57/54/21 55/55/21
f 57/54/21 20/53/13 36/56/13
f 12/57/22 38/58/22 37/59/22
f 38/58/22 12/57/22 11/60/22
f 39/61/11 40/62/23 42/63/23
f 40/62/23 39/61/11 18/64/11
f 40/65/23 43/66/24 42/67/23
f 43/66/24 40/65/23 41/68/24
f 47/69/8 46/70/25 44/71/8
f 46/70/25 47/69/8 45/72/25
f 69/73/26 48/74/27 50/75/27
f 48/74/27 69/73/26 49/76/26
f 51/77/28 1/78/29 4/79/29
f 4/79/29 52/80/28 51/77/28
f 53/81/30 51/82/28 52/83/28
f 52/83/28 54/84/30 53/81/30
f 57/85/31 56/86/31 55/87/31
f 58/88/31 56/86/31 57/85/31
f 59/89/32 35/90/20 60/91/20
f 35/90/20 59/89/32 61/92/32
f 64/93/33 70/94/33 62/95/33
f 70/94/33 64/93/33 63/96/33
f 33/97/19 65/98/34 66/99/19
f 65/98/34 33/97/19 67/100/34
f 67/101/34 84/102/35 65/103/34
f 84/102/35 67/101/34 68/104/35
f 70/105/36 49/106/26 69/107/26
f 49/106/26 70/105/36 63/108/36
f 79/109/37 17/110/37 72/111/37
f 17/110/37 79/109/37 71/112/37
f 75/113/38 73/114/38 74/115/38
f 76/116/38 75/113/38 74/115/38
f 79/117/39 78/118/39 77/119/39
f 78/118/39 79/117/39 72/120/39
f 75/121/40 3/122/40 2/123/40
f 2/123/40 73/124/40 75/121/40
f 82/125/41 81/126/42 80/127/42
f 81/126/42 82/125/41 83/128/41
f 83/129/41 84/130/43 68/131/43
f 82/132/41 84/130/43 83/129/41
f 85/133/44 86/134/44 87/135/44
f 87/135/44 88/136/44 85/133/44
f 91/137/45 92/138/46 89/139/46
f 90/140/45 92/138/46 91/137/45
f 98/141/4 93/142/5 94/143/5
f 93/142/5 98/141/4 99/144/4
f 95/145/47 89/146/46 92/147/46
f 89/146/46 95/145/47 96/148/47
f 109/149/7 128/150/8 106/151/7
f 128/150/8 109/149/7 131/152/8
f 99/153/4 100/154/9 97/155/9
f 98/156/4 100/154/9 99/153/4
f 101/157/10 102/158/11 123/159/11
f 102/158/11 101/157/10 155/160/10
f 103/161/12 120/162/13 104/163/13
f 120/162/13 103/161/12 105/164/12
f 108/165/14 109/166/14 106/167/14
f 107/168/14 109/166/14 108/165/14
f 110/169/15 97/170/9 100/171/9
f 97/170/9 110/169/15 111/172/15
f 118/173/48 113/174/49 112/175/49
f 113/174/49 118/173/48 114/176/48
f 116/177/18 150/178/19 115/179/18
f 150/178/19 116/177/18 117/180/19
f 144/181/50 114/182/48 118/183/48
f 114/182/48 144/181/50 119/184/50
f 104/185/13 141/186/21 139/187/21
f 141/186/21 104/185/13 120/188/13
f 96/189/22 122/190/22 121/191/22
f 122/190/22 96/189/22 95/192/22
f 123/193/11 124/194/23 126/195/23
f 124/194/23 123/193/11 102/196/11
f 124/197/23 127/198/24 126/199/23
f 127/198/24 124/197/23 125/200/24
f 131/201/8 130/202/25 128/203/8
f 130/202/25 131/201/8 129/204/25
f 153/205/26 132/206/27 134/207/27
f 132/206/27 153/205/26 133/208/26
f 135/209/28 85/210/29 88/211/29
f 88/211/29 136/212/28 135/209/28
f 137/213/30 135/214/28 136/215/28
f 136/215/28 138/216/30 137/213/30
f 141/217/31 140/218/31 139/219/31
f 142/220/31 140/218/31 141/217/31
f 143/221/32 119/222/50 144/223/50
f 119/222/50 143/221/32 145/224/32
f 148/225/33 154/226/33 146/227/33
f 154/226/33 148/225/33 147/228/33
f 117/229/19 149/230/34 150/231/19
f 149/230/34 117/229/19 151/232/34
f 151/233/34 168/234/35 149/235/34
f 168/234/35 151/233/34 152/236/35
f 154/237/36 133/238/26 153/239/26
f 133/238/26 154/237/36 147/240/36
f 163/241/37 101/242/37 156/243/37
f 101/242/37 163/241/37 155/244/37
f 159/245/38 157/246/38 158/247/38
f 160/248/38 159/245/38 158/247/38
f 163/249/39 162/250/39 161/251/39
f 162/250/39 163/249/39 156/252/39
f 159/253/40 87/254/40 86/255/40
f 86/255/40 157/256/40 159/253/40
f 166/257/41 165/258/42 164/259/42
f 165/258/42 166/257/41 167/260/41
f 167/261/41 168/262/43 152/263/43
f 166/264/41 168/262/43 167/261/41
f 43/66/51 41/68/51 125/200/51 127/198/51
f 30/50/16 35/52/20 119/184/51 114/182/51
f 77/119/51 78/118/51 162/250/51 161/251/51
f 1/78/1 51/77/51 135/209/51 85/210/51
f 10/11/51 9/10/51 93/142/51 94/143/51
f 67/100/51 33/97/51 117/229/51 151/232/51
f 20/53/51 55/55/51 139/187/51 104/185/51
f 81/126/51 83/128/51 167/260/51 165/258/51
f 24/33/51 22/35/51 106/167/51 108/165/51
f 75/113/51 76/116/51 160/248/51 159/245/51
f 52/80/51 4/79/1 88/211/51 136/212/51
f 63/96/51 64/93/51 148/225/51 147/228/51
f 73/124/51 2/123/1 86/255/51 157/256/51
f 48/74/51 49/76/51 133/208/51 132/206/51
f 38/58/51 11/60/6 95/192/51 122/190/51
f 19/29/51 20/31/51 104/163/51 103/161/51
f 60/49/20 34/51/16 118/183/51 144/181/51
f 37/59/51 38/58/51 122/190/51 121/191/51
f 29/42/17 30/44/16 114/176/51 113/174/51
f 21/32/51 19/29/51 103/161/51 105/164/51
f 7/5/2 5/7/3 89/139/51 91/137/51
f 23/36/51 24/33/51 108/165/51 107/168/51
f 50/75/51 48/74/51 132/206/51 134/207/51
f 16/22/51 14/24/51 98/156/51 100/154/51
f 9/10/51 15/12/51 99/144/51 93/142/51
f 56/86/51 58/88/51 142/220/51 140/218/51
f 64/93/51 62/95/51 146/227/51 148/225/51
f 6/8/2 7/5/2 91/137/51 90/140/51
f 35/90/20 61/92/51 145/224/51 119/222/51
f 46/70/51 45/72/51 129/204/51 130/202/51
f 4/4/1 3/3/1 87/135/51 88/136/51
f 80/127/51 81/126/51 165/258/51 164/259/51
f 59/89/51 60/91/20 144/223/51 143/221/51
f 83/129/51 68/131/51 152/263/51 167/261/51
f 76/116/51 74/115/51 158/247/51 160/248/51
f 12/57/6 37/59/51 121/191/51 96/189/51
f 78/118/51 72/120/51 156/252/51 162/250/51
f 40/62/51 18/64/51 102/196/51 124/194/51
f 84/130/51 82/132/51 166/264/51 168/262/51
f 42/67/51 43/66/51 127/198/51 126/199/51
f 82/125/51 80/127/51 164/259/51 166/257/51
f 32/45/51 31/47/51 115/179/51 116/177/51
f 61/92/51 59/89/51 143/221/51 145/224/51
f 62/95/51 70/94/51 154/226/51 146/227/51
f 65/103/51 84/102/51 168/234/51 149/235/51
f 66/99/51 65/98/51 149/230/51 150/231/51
f 71/112/51 79/109/51 163/241/51 155/244/51
f 54/84/51 52/83/51 136/215/51 138/216/51
f 25/34/51 23/36/51 107/168/51 109/166/51
f 28/43/17 29/42/17 113/174/51 112/175/51
f 55/87/51 56/86/51 140/218/51 139/219/51
f 3/122/1 75/121/51 159/253/51 87/254/51
f 8/6/3 6/8/2 90/140/51 92/138/51
f 47/20/51 25/17/51 109/149/51 131/152/51
f 11/13/6 8/15/3 92/147/51 95/145/51
f 22/19/51 44/18/51 128/150/51 106/151/51
f 5/14/3 12/16/6 96/148/51 89/146/51
f 51/82/51 53/81/51 137/213/51 135/214/51
f 14/9/51 10/11/51 94/143/51 98/141/51
f 33/48/51 32/45/51 116/177/51 117/180/51
f 68/104/51 67/101/51 151/233/51 152/236/51
f 26/37/51 16/39/51 100/171/51 110/169/51
f 17/25/51 39/27/51 123/159/51 101/157/51
f 15/21/51 13/23/51 97/155/51 99/153/51
f 2/2/1 1/1/1 85/133/51 86/134/51
f 36/30/51 21/32/51 105/164/51 120/162/51
f 13/38/51 27/40/51 111/172/51 97/170/51
f 57/54/51 36/56/51 120/188/51 141/186/51
f 44/71/51 46/70/51 130/202/51 128/203/51
f 45/72/51 47/69/51 131/201/51 129/204/51
f 74/115/51 73/114/51 157/246/51 158/247/51
f 27/40/51 26/37/51 110/169/51 111/172/51
f 79/117/51 77/119/51 161/251/51 163/249/51
f 69/73/51 50/75/51 134/207/51 153/205/51
f 41/68/51 40/65/51 124/197/51 125/200/51
f 31/47/51 66/46/51 150/178/51 115/179/51
f 70/105/51 69/107/51 153/239/51 154/237/51
f 72/111/51 17/110/51 101/242/51 156/243/51
f 58/88/51 57/85/51 141/217/51 142/220/51
f 53/81/51 54/84/51 138/216/51 137/213/51
f 49/106/51 63/108/51 147/240/51 133/238/51
f 34/41/16 28/43/17 112/175/51 118/173/51
f 39/61/51 42/63/51 126/195/51 123/193/51
f 18/26/51 71/28/51 155/160/51 102/158/51
