# Blender v2.79 (sub 0) OBJ File: 'Fixing models.blend'
# www.blender.org
mtllib ground_dirtRiverSideCorner.mtl
o ground_dirtRiverSideCorner
v 7.865219 2.500001 -1.279768
v 7.865219 2.000001 -1.279768
v 7.668375 2.000001 -0.610190
v 7.964872 2.500001 -2.370146
v 7.851592 2.500001 -3.459192
v 7.529661 2.000001 -4.505717
v 7.529661 2.500001 -4.505717
v 6.315983 2.500001 -6.315983
v 5.827058 2.500001 -6.717873
v 5.638722 2.500001 -6.867393
v 5.638723 2.000001 -6.867393
v 4.831187 2.000001 -7.281175
v 4.612076 2.500001 -7.343239
v 5.251333 2.000001 -7.106247
v 3.707497 2.500001 -7.414421
v 3.707497 2.000001 -7.414421
v 3.935046 2.500001 -7.423520
v 4.162604 2.500001 -7.414634
v 4.162605 2.000001 -7.414634
v 5.251333 2.500001 -7.106247
v 2.443125 2.000001 -7.192388
v 3.233427 2.000001 -7.337656
v 2.030086 2.500001 -7.164523
v 2.443125 2.500001 -7.192388
v 1.616129 2.000001 -7.168533
v 2.030086 2.000001 -7.164523
v 4.612076 2.000001 -7.343239
v 1.203707 2.000001 -7.204391
v 3.481376 2.500001 -7.387393
v 1.203707 2.500001 -7.204391
v 0.795270 2.000001 -7.271886
v 0.393239 2.500001 -7.370618
v 0.393239 2.000001 -7.370618
v -0.000001 2.500001 -8.125001
v -0.000001 2.500001 -7.500001
v -0.000001 2.500001 -10.000001
v 10.000002 0.000001 -0.000001
v 10.000002 0.000002 -10.000001
v -0.000001 0.000001 -10.000001
v 10.000002 2.500002 -10.000001
v 7.668375 2.500001 -0.610190
v 7.500001 2.500001 -0.000000
v 8.467450 2.500001 -1.164863
v 7.011255 2.500001 -5.470140
v 6.749506 2.500001 -6.749506
v 5.772771 2.500001 -7.498512
v 5.540056 2.500001 -7.622792
v 5.449748 2.500001 -6.994475
v 5.298259 2.500001 -7.728319
v 5.044716 2.500001 -7.202013
v 4.831186 2.500001 -7.281175
v 4.793498 2.500001 -7.880605
v 4.388751 2.500001 -7.387818
v 3.233427 2.500001 -7.337656
v 2.852793 2.500001 -7.251960
v 2.504244 2.500001 -7.711167
v 1.616128 2.500001 -7.168532
v 1.043613 2.500001 -7.781634
v 0.795270 2.500001 -7.271886
v 0.687260 2.500001 -7.869148
v 10.000002 2.500001 -0.000001
v 0.000000 0.000000 -0.000000
v 7.500001 2.000001 -0.000000
v 8.125001 2.500001 -0.000000
v 8.577956 2.500001 -2.373979
v 8.452338 2.500001 -3.581620
v 8.095350 2.500001 -4.742109
v 7.520492 2.500001 -5.811553
v 6.205215 2.500001 -7.196906
v 5.994954 2.500001 -7.356254
v 5.048888 2.500001 -7.814435
v 4.533683 2.500001 -7.926413
v 4.271064 2.500001 -7.951576
v 4.007278 2.500001 -7.955934
v 3.743971 2.500001 -7.939462
v 3.482785 2.500001 -7.902263
v 3.225348 2.500001 -7.844568
v 2.867367 2.500001 -7.763971
v 2.138134 2.500001 -7.686469
v 1.771209 2.500001 -7.690022
v 1.405645 2.500001 -7.721807
v 0.338699 2.500001 -7.983831
v -0.000000 2.000000 -0.000000
v -0.000001 2.000001 -7.500001
v 2.852793 2.000001 -7.251960
v 3.481376 2.000001 -7.387393
v 3.935046 2.000001 -7.423520
v 4.388752 2.000001 -7.387818
v 5.044716 2.000001 -7.202013
v 5.449748 2.000001 -6.994475
v 5.827058 2.000001 -6.717873
v 6.315983 2.000001 -6.315983
v 7.011255 2.000001 -5.470140
v 7.851592 2.000001 -3.459193
v 7.964872 2.000001 -2.370146
vt -10.346319 9.842520
vt -7.854218 7.874016
vt -7.854218 9.842520
vt -9.228411 7.874016
vt -7.598580 9.842520
vt -9.228411 9.842520
vt -31.988190 9.842520
vt -29.527559 7.874016
vt -29.527559 9.842520
vt -39.370079 0.000000
vt -0.000001 0.000000
vt -0.000001 7.874016
vt -39.370079 9.842520
vt 39.370079 0.000000
vt 0.000001 9.842520
vt 0.000001 0.000000
vt 39.370079 9.842520
vt -0.000000 39.370079
vt -39.370079 0.000001
vt -39.370079 39.370079
vt -0.000000 9.842520
vt -39.370079 0.000000
vt -0.000000 0.000000
vt -39.370079 9.842520
vt 31.988188 0.000000
vt 30.190449 2.402321
vt 29.527559 0.000000
vt 30.965425 5.038455
vt 31.357763 9.331281
vt 31.871456 18.669716
vt 33.276920 14.100863
vt 33.336414 4.586071
vt 33.771477 9.346373
vt 30.911776 13.618865
vt 29.644331 17.739042
vt 29.608234 22.880129
vt 27.603365 21.535980
vt 26.572857 26.572857
vt 24.866072 24.866072
vt 24.429983 28.334272
vt 23.602179 28.961626
vt 22.941174 26.448315
vt 22.727446 29.521694
vt 22.199694 27.036978
vt 21.811243 30.010986
vt 21.455698 27.537300
vt 20.859285 30.426449
vt 20.674538 27.977350
vt 19.877510 30.765491
vt 19.861088 28.354380
vt 19.020420 28.666040
vt 18.872040 31.026001
vt 18.157780 28.910387
vt 17.849148 31.206348
vt 17.278547 29.085896
vt 16.815214 31.305412
vt 16.388206 29.191471
vt 15.776686 31.322573
vt 15.492310 29.226456
vt 14.740043 31.257723
vt 14.596447 29.190632
vt 13.711751 31.111269
vt 13.706205 29.084221
vt 12.730028 28.888409
vt 12.698223 30.884123
vt 11.288847 30.566814
vt 11.231469 28.551022
vt 9.859229 30.358925
vt 9.618602 28.316484
vt 8.417850 30.261686
vt 7.992467 28.206781
vt 6.973264 30.275677
vt 6.362713 28.222567
vt 5.534039 30.400812
vt 4.739008 28.363741
vt 4.108716 30.636351
vt 3.130986 28.629471
vt 2.705750 30.980896
vt 1.548186 29.018179
vt 1.333464 31.432402
vt 0.000000 29.527559
vt 0.000000 31.988190
vt 39.370079 9.842520
vt 39.370079 0.000000
vt 29.527559 7.874016
vt 29.527559 9.842520
vt -13.567606 9.842520
vt -10.819917 7.874016
vt -10.819917 9.842520
vt -13.567606 7.874016
vt -12.146567 9.842520
vt -7.835850 7.874016
vt -7.835850 9.842520
vt -12.146567 7.874016
vt -10.346319 7.874016
vt -10.347642 9.842520
vt -6.036925 7.874016
vt -6.036925 9.842520
vt -10.347642 7.874016
vt -8.238869 9.842520
vt -3.928152 7.874016
vt -3.928152 9.842520
vt -8.238869 7.874016
vt -5.900005 9.842520
vt -1.589288 7.874016
vt -1.589288 9.842520
vt -5.900005 7.874016
vt -3.419512 9.842520
vt 0.891205 7.874016
vt 0.891205 9.842520
vt -3.419512 7.874016
vt 1.522300 9.842520
vt 0.575560 7.874016
vt 1.522300 7.874016
vt 0.575560 9.842520
vt 3.334120 9.842520
vt 2.437541 7.874016
vt 3.334120 7.874016
vt 2.437541 9.842520
vt 8.766236 9.842520
vt 7.869658 7.874016
vt 8.766236 7.874016
vt 7.869658 9.842520
vt 10.488013 9.842520
vt 9.591434 7.874016
vt 10.488013 7.874016
vt 9.591434 9.842520
vt 5.178100 9.842520
vt 4.281521 7.874016
vt 5.178100 7.874016
vt 4.281521 9.842520
vt 16.647745 7.874016
vt 15.751166 9.842520
vt 15.751166 7.874016
vt 16.647745 9.842520
vt 15.236669 9.842520
vt 14.340090 7.874016
vt 15.236669 7.874016
vt 14.340090 9.842520
vt 13.733350 9.842520
vt 12.836771 7.874016
vt 13.733350 7.874016
vt 12.836771 9.842520
vt 6.992578 9.842520
vt 6.095999 7.874016
vt 6.992578 7.874016
vt 6.095999 9.842520
vt 15.223141 9.842520
vt 13.593310 7.874016
vt 15.223141 7.874016
vt 13.593310 9.842520
vt 18.764296 9.842520
vt 17.228226 7.874016
vt 18.764296 7.874016
vt 17.228226 9.842520
vt 11.502742 7.874016
vt 9.872911 9.842520
vt 9.872911 7.874016
vt 11.502742 9.842520
vt 7.718934 9.842520
vt 6.089103 7.874016
vt 7.718934 7.874016
vt 6.089103 9.842520
vt 12.147167 9.842520
vt 11.250588 7.874016
vt 12.147167 7.874016
vt 11.250588 9.842520
vt 3.894165 7.874016
vt 2.264335 9.842520
vt 2.264335 7.874016
vt 3.894165 9.842520
vt 19.158600 9.842520
vt 18.162977 7.874016
vt 19.158600 7.874016
vt 18.162977 9.842520
vt 0.051128 9.842520
vt -1.578703 7.874016
vt 0.051128 7.874016
vt -1.578703 9.842520
vt 3.419511 9.842520
vt 0.927779 7.874016
vt 3.419511 7.874016
vt 0.927779 9.842520
vt -3.787378 7.874016
vt -5.417209 9.842520
vt -5.417209 7.874016
vt -3.787378 9.842520
vt 17.957779 9.842520
vt 17.061201 7.874016
vt 17.957779 7.874016
vt 17.061201 9.842520
vt -7.598580 7.874016
vt 31.988188 9.842520
vt 39.370079 0.000001
vt 39.370079 39.370079
vt 0.000000 39.370079
vt 0.000000 0.000001
vt 1.548186 29.018179
vt 0.000000 29.527559
vt 29.527559 0.000000
vt 3.130986 28.629471
vt 4.739008 28.363741
vt 6.362713 28.222567
vt 7.992467 28.206781
vt 9.618602 28.316484
vt 11.231469 28.551022
vt 12.730028 28.888409
vt 13.706205 29.084221
vt 14.596447 29.190632
vt 15.492310 29.226456
vt 16.388206 29.191471
vt 17.278547 29.085896
vt 18.157780 28.910387
vt 19.020420 28.666040
vt 19.861088 28.354380
vt 20.674538 27.977350
vt 21.455698 27.537300
vt 22.199694 27.036978
vt 22.941174 26.448315
vt 24.866072 24.866072
vt 27.603365 21.535980
vt 29.644331 17.739042
vt 30.190449 2.402321
vt 30.911776 13.618865
vt 30.965425 5.038455
vt 31.357763 9.331281
vn -0.9640 -0.0000 -0.2660
vn -0.3125 -0.0000 0.9499
vn -1.0000 -0.0000 0.0000
vn 1.0000 0.0000 0.0000
vn 0.0000 -1.0000 -0.0000
vn 0.0000 0.0000 -1.0000
vn 0.0000 1.0000 0.0000
vn 0.0000 -0.0000 1.0000
vn -0.9823 0.0000 -0.1874
vn -0.9617 0.0000 -0.2740
vn -0.9611 0.0000 -0.2762
vn -1.0000 0.0000 0.0063
vn -0.9799 0.0000 0.1997
vn -0.9227 -0.0000 0.3856
vn -0.8306 -0.0000 0.5569
vn -0.7071 0.0000 0.7071
vn -0.6284 -0.0000 0.7779
vn -0.5904 -0.0000 0.8071
vn -0.5248 0.0000 0.8512
vn -0.3844 -0.0000 0.9232
vn -0.3103 -0.0000 0.9506
vn -0.2343 -0.0000 0.9722
vn -0.4560 0.0000 0.8900
vn 0.0005 -0.0000 1.0000
vn 0.0794 0.0000 0.9968
vn -0.0784 -0.0000 0.9969
vn -0.1569 -0.0000 0.9876
vn 0.1819 0.0000 0.9833
vn 0.1057 0.0000 0.9944
vn 0.2082 0.0000 0.9781
vn 0.0288 -0.0000 0.9996
vn -0.0482 -0.0000 0.9988
vn -0.1249 -0.0000 0.9922
vn 0.1578 0.0000 0.9875
vn -0.2009 0.0000 0.9796
vn -0.2613 -0.0000 0.9653
vn -0.2757 -0.0000 0.9612
vn -0.0000 -0.0972 -0.9953
usemtl natureKit-wood
s off
f 41/1/1 63/2/1 42/3/1
f 84/4/2 32/5/2 35/6/2
f 34/7/3 84/8/3 35/9/3
f 39/10/3 84/8/3 34/7/3
f 62/11/3 84/8/3 39/10/3
f 84/8/3 62/11/3 83/12/3
f 39/10/3 34/7/3 36/13/3
f 38/14/4 61/15/4 37/16/4
f 61/15/4 38/14/4 40/17/4
f 39/18/5 37/19/5 62/11/5
f 37/19/5 39/18/5 38/20/5
f 36/21/6 38/22/6 39/23/6
f 38/22/6 36/21/6 40/24/6
f 64/25/7 41/26/7 42/27/7
f 41/26/7 64/25/7 1/28/7
f 1/28/7 64/25/7 4/29/7
f 4/29/7 64/25/7 67/30/7
f 67/30/7 64/25/7 66/31/7
f 66/31/7 64/25/7 43/32/7
f 66/31/7 43/32/7 65/33/7
f 67/30/7 5/34/7 4/29/7
f 67/30/7 7/35/7 5/34/7
f 68/36/7 7/35/7 67/30/7
f 68/36/7 44/37/7 7/35/7
f 45/38/7 44/37/7 68/36/7
f 45/38/7 8/39/7 44/37/7
f 69/40/7 8/39/7 45/38/7
f 70/41/7 8/39/7 69/40/7
f 70/41/7 9/42/7 8/39/7
f 46/43/7 9/42/7 70/41/7
f 46/43/7 10/44/7 9/42/7
f 47/45/7 10/44/7 46/43/7
f 47/45/7 48/46/7 10/44/7
f 49/47/7 48/46/7 47/45/7
f 49/47/7 20/48/7 48/46/7
f 71/49/7 20/48/7 49/47/7
f 71/49/7 50/50/7 20/48/7
f 71/49/7 51/51/7 50/50/7
f 52/52/7 51/51/7 71/49/7
f 52/52/7 13/53/7 51/51/7
f 72/54/7 13/53/7 52/52/7
f 72/54/7 53/55/7 13/53/7
f 73/56/7 53/55/7 72/54/7
f 73/56/7 18/57/7 53/55/7
f 74/58/7 18/57/7 73/56/7
f 74/58/7 17/59/7 18/57/7
f 75/60/7 17/59/7 74/58/7
f 75/60/7 15/61/7 17/59/7
f 76/62/7 15/61/7 75/60/7
f 76/62/7 29/63/7 15/61/7
f 76/62/7 54/64/7 29/63/7
f 77/65/7 54/64/7 76/62/7
f 78/66/7 54/64/7 77/65/7
f 78/66/7 55/67/7 54/64/7
f 56/68/7 55/67/7 78/66/7
f 56/68/7 24/69/7 55/67/7
f 79/70/7 24/69/7 56/68/7
f 79/70/7 23/71/7 24/69/7
f 80/72/7 23/71/7 79/70/7
f 80/72/7 57/73/7 23/71/7
f 81/74/7 57/73/7 80/72/7
f 81/74/7 30/75/7 57/73/7
f 58/76/7 30/75/7 81/74/7
f 58/76/7 59/77/7 30/75/7
f 60/78/7 59/77/7 58/76/7
f 60/78/7 32/79/7 59/77/7
f 82/80/7 32/79/7 60/78/7
f 82/80/7 35/81/7 32/79/7
f 35/81/7 82/80/7 34/82/7
f 61/83/8 62/11/8 37/84/8
f 62/11/8 61/83/8 63/85/8
f 63/85/8 61/83/8 42/86/8
f 83/12/8 62/11/8 63/85/8
s 1
f 1/87/9 3/88/10 41/89/11
f 3/88/10 1/87/9 2/90/9
f 4/91/12 2/92/9 1/93/9
f 2/92/9 4/91/12 95/94/12
f 63/2/1 41/1/11 3/95/10
f 5/96/13 95/97/12 4/98/12
f 95/97/12 5/96/13 94/99/13
f 7/100/14 94/101/13 5/102/13
f 94/101/13 7/100/14 6/103/14
f 44/104/15 6/105/14 7/106/14
f 6/105/14 44/104/15 93/107/15
f 8/108/16 93/109/15 44/110/15
f 93/109/15 8/108/16 92/111/16
f 9/112/17 11/113/18 91/114/17
f 11/113/18 9/112/17 10/115/18
f 10/116/18 90/117/19 11/118/18
f 90/117/19 10/116/18 48/119/19
f 50/120/20 12/121/21 89/122/20
f 12/121/21 50/120/20 51/123/21
f 51/124/21 27/125/22 12/126/21
f 27/125/22 51/124/21 13/127/22
f 48/128/19 14/129/23 90/130/19
f 14/129/23 48/128/19 20/131/23
f 87/132/24 15/133/25 16/134/25
f 15/133/25 87/132/24 17/135/24
f 18/136/26 87/137/24 19/138/26
f 87/137/24 18/136/26 17/139/24
f 53/140/27 19/141/26 88/142/27
f 19/141/26 53/140/27 18/143/26
f 20/144/23 89/145/20 14/146/23
f 89/145/20 20/144/23 50/147/20
f 55/148/28 21/149/29 85/150/28
f 21/149/29 55/148/28 24/151/29
f 54/152/30 85/153/28 22/154/30
f 85/153/28 54/152/30 55/155/28
f 21/156/29 23/157/31 26/158/31
f 23/157/31 21/156/29 24/159/29
f 23/160/31 25/161/32 26/162/31
f 25/161/32 23/160/31 57/163/32
f 13/164/22 88/165/27 27/166/22
f 88/165/27 13/164/22 53/167/27
f 25/168/32 30/169/33 28/170/33
f 30/169/33 25/168/32 57/171/32
f 29/172/34 22/173/30 86/174/34
f 22/173/30 29/172/34 54/175/30
f 30/176/33 31/177/35 28/178/33
f 31/177/35 30/176/33 59/179/35
f 8/180/16 91/181/17 92/182/16
f 91/181/17 8/180/16 9/183/17
f 31/184/35 32/185/36 33/186/37
f 32/185/36 31/184/35 59/187/35
f 15/188/25 86/189/34 16/190/25
f 86/189/34 15/188/25 29/191/34
f 32/5/36 84/4/2 33/192/37
f 42/86/38 61/83/38 64/193/38
usemtl natureKit-leavesGreen
s off
f 61/194/7 43/32/7 64/25/7
f 43/32/7 61/194/7 65/33/7
f 40/195/7 65/33/7 61/194/7
f 40/195/7 66/31/7 65/33/7
f 40/195/7 67/30/7 66/31/7
f 40/195/7 68/36/7 67/30/7
f 40/195/7 45/38/7 68/36/7
f 40/195/7 69/40/7 45/38/7
f 40/195/7 70/41/7 69/40/7
f 40/195/7 46/43/7 70/41/7
f 40/195/7 47/45/7 46/43/7
f 40/195/7 49/47/7 47/45/7
f 40/195/7 71/49/7 49/47/7
f 40/195/7 52/52/7 71/49/7
f 40/195/7 72/54/7 52/52/7
f 40/195/7 73/56/7 72/54/7
f 40/195/7 74/58/7 73/56/7
f 40/195/7 75/60/7 74/58/7
f 40/195/7 76/62/7 75/60/7
f 40/195/7 77/65/7 76/62/7
f 40/195/7 78/66/7 77/65/7
f 40/195/7 56/68/7 78/66/7
f 40/195/7 79/70/7 56/68/7
f 40/195/7 80/72/7 79/70/7
f 40/195/7 81/74/7 80/72/7
f 40/195/7 58/76/7 81/74/7
f 40/195/7 60/78/7 58/76/7
f 40/195/7 82/80/7 60/78/7
f 36/196/7 82/80/7 40/195/7
f 82/80/7 36/196/7 34/82/7
usemtl natureKit-water
f 83/197/7 33/198/7 84/199/7
f 33/198/7 83/197/7 63/200/7
f 33/198/7 63/200/7 31/201/7
f 31/201/7 63/200/7 28/202/7
f 28/202/7 63/200/7 25/203/7
f 25/203/7 63/200/7 26/204/7
f 26/204/7 63/200/7 21/205/7
f 21/205/7 63/200/7 85/206/7
f 85/206/7 63/200/7 22/207/7
f 22/207/7 63/200/7 86/208/7
f 86/208/7 63/200/7 16/209/7
f 16/209/7 63/200/7 87/210/7
f 87/210/7 63/200/7 19/211/7
f 19/211/7 63/200/7 88/212/7
f 88/212/7 63/200/7 27/213/7
f 27/213/7 63/200/7 12/214/7
f 12/214/7 63/200/7 89/215/7
f 89/215/7 63/200/7 14/216/7
f 14/216/7 63/200/7 90/217/7
f 90/217/7 63/200/7 11/218/7
f 11/218/7 63/200/7 91/219/7
f 91/219/7 63/200/7 92/220/7
f 92/220/7 63/200/7 93/221/7
f 93/221/7 63/200/7 6/222/7
f 6/222/7 63/200/7 3/223/7
f 6/222/7 3/223/7 94/224/7
f 94/224/7 3/223/7 2/225/7
f 94/224/7 2/225/7 95/226/7
