# Blender v2.79 (sub 0) OBJ File: 'Fixing models.blend'
# www.blender.org
mtllib lily_small.mtl
o lily_small
v -0.400000 0.330000 0.000000
v -0.885944 0.330000 0.511500
v -0.400000 0.000000 0.000000
v 0.885944 0.000000 0.511500
v 0.885944 0.165000 -0.511500
v 0.885944 0.330000 0.511500
v 0.885944 0.330000 -0.511500
v -0.885944 -0.000000 -0.511500
v -0.885944 0.330000 -0.511500
v 0.000000 0.000000 1.023000
v 0.000000 0.330000 1.023000
v 0.000000 0.165000 1.023000
v -0.885944 0.165000 -0.511500
v 0.885944 0.165000 0.511500
v -0.400000 0.165000 0.000000
v -0.000000 0.165000 -1.023000
v -0.885944 0.165000 0.511500
v -0.000000 0.330000 -1.023000
v -0.000000 -0.000000 -1.023000
v -0.885944 0.000000 0.511500
v 0.885944 -0.000000 -0.511500
v -0.400000 0.330000 0.000000
v -0.885944 0.330000 0.511500
v -0.400000 0.000000 0.000000
v 0.885944 0.000000 0.511500
v 0.885944 0.165000 -0.511500
v 0.885944 0.330000 0.511500
v 0.885944 0.330000 -0.511500
v -0.885944 -0.000000 -0.511500
v -0.885944 0.330000 -0.511500
v 0.000000 0.000000 1.023000
v 0.000000 0.330000 1.023000
v 0.000000 0.165000 1.023000
v -0.885944 0.165000 -0.511500
v 0.885944 0.165000 0.511500
v -0.400000 0.165000 0.000000
v -0.000000 0.165000 -1.023000
v -0.885944 0.165000 0.511500
v -0.000000 0.330000 -1.023000
v -0.000000 -0.000000 -1.023000
v -0.885944 0.000000 0.511500
v 0.885944 -0.000000 -0.511500
vt 3.286870 1.968504
vt 11.704083 1.968504
vt 11.704083 0.000000
vt 3.286870 0.000000
vt 3.286870 3.937008
vt 11.704083 3.937008
vt -11.704083 1.968504
vt -3.286870 1.968504
vt -3.286870 0.000000
vt -11.704083 0.000000
vt -11.704083 3.937008
vt -3.286870 3.937008
vt 6.102362 0.000000
vt -6.102362 0.000000
vt -6.102362 1.968504
vt 6.102362 1.968504
vt -6.102362 3.937008
vt 6.102362 3.937008
vt 6.102362 1.968504
vt 6.102362 0.000000
vt -6.102362 0.000000
vt -6.102362 1.968504
vt 6.102362 3.937008
vt -6.102362 3.937008
vt 6.102362 1.968504
vt 6.102362 0.000000
vt -6.102362 0.000000
vt -6.102362 1.968504
vt 6.102362 3.937008
vt -6.102362 3.937008
vt 0.000000 12.204724
vt 4.772131 0.000000
vt 10.569601 6.102362
vt -0.000000 -12.204724
vt 10.569601 -6.102362
vt -10.569601 6.102362
vt -10.569601 -6.102362
vt 6.102362 3.937008
vt 6.102362 1.968504
vt -6.102362 1.968504
vt -6.102362 3.937008
vt -6.102362 0.000000
vt 6.102362 0.000000
vt 6.102362 1.968504
vt 6.102362 0.000000
vt -6.102362 0.000000
vt -6.102362 1.968504
vt 6.102362 3.937008
vt -6.102362 3.937008
vt 0.000000 12.204724
vt 10.569601 6.102362
vt 4.772131 0.000000
vt -0.000000 -12.204724
vt 10.569601 -6.102362
vt -10.569601 6.102362
vt -10.569601 -6.102362
vt 3.286870 1.968504
vt 11.704083 1.968504
vt 11.704083 0.000000
vt 3.286870 0.000000
vt 3.286870 3.937008
vt 11.704083 3.937008
vt -11.704083 1.968504
vt -3.286870 1.968504
vt -3.286870 0.000000
vt -11.704083 0.000000
vt -11.704083 3.937008
vt -3.286870 3.937008
vt 6.102362 0.000000
vt -6.102362 0.000000
vt -6.102362 1.968504
vt 6.102362 1.968504
vt -6.102362 3.937008
vt 6.102362 3.937008
vt 6.102362 1.968504
vt 6.102362 0.000000
vt -6.102362 0.000000
vt -6.102362 1.968504
vt 6.102362 3.937008
vt -6.102362 3.937008
vt 6.102362 1.968504
vt 6.102362 0.000000
vt -6.102362 0.000000
vt -6.102362 1.968504
vt 6.102362 3.937008
vt -6.102362 3.937008
vt 0.000000 12.204724
vt 4.772131 0.000000
vt 10.569601 6.102362
vt -0.000000 -12.204724
vt 10.569601 -6.102362
vt -10.569601 6.102362
vt -10.569601 -6.102362
vt 6.102362 3.937008
vt 6.102362 1.968504
vt -6.102362 1.968504
vt -6.102362 3.937008
vt -6.102362 0.000000
vt 6.102362 0.000000
vt 6.102362 1.968504
vt 6.102362 0.000000
vt -6.102362 0.000000
vt -6.102362 1.968504
vt 6.102362 3.937008
vt -6.102362 3.937008
vt 0.000000 12.204724
vt 10.569601 6.102362
vt 4.772131 0.000000
vt -0.000000 -12.204724
vt 10.569601 -6.102362
vt -10.569601 6.102362
vt -10.569601 -6.102362
vn 0.7250 0.0000 0.6888
vn 0.7250 -0.0000 -0.6888
vn -1.0000 0.0000 0.0000
vn 0.5000 0.0000 0.8660
vn -0.5000 0.0000 -0.8660
vn 0.0000 -1.0000 0.0000
vn 0.5000 0.0000 -0.8660
vn -0.5000 0.0000 0.8660
vn -0.0000 1.0000 -0.0000
vn 0.0000 0.0000 1.0000
usemtl natureKit-leavesGreen
s off
f 15/1/1 17/2/1 20/3/1
f 20/3/1 3/4/1 15/1/1
f 17/2/1 15/1/1 1/5/1
f 1/5/1 2/6/1 17/2/1
f 13/7/2 15/8/2 3/9/2
f 3/9/2 8/10/2 13/7/2
f 15/8/2 13/7/2 9/11/2
f 9/11/2 1/12/2 15/8/2
f 21/13/3 4/14/3 14/15/3
f 14/15/3 5/16/3 21/13/3
f 5/16/3 14/15/3 6/17/3
f 6/17/3 7/18/3 5/16/3
f 13/19/4 8/20/4 19/21/4
f 19/21/4 16/22/4 13/19/4
f 9/23/4 13/19/4 16/22/4
f 16/22/4 18/24/4 9/23/4
f 14/25/5 4/26/5 10/27/5
f 10/27/5 12/28/5 14/25/5
f 6/29/5 14/25/5 12/28/5
f 12/28/5 11/30/5 6/29/5
f 16/31/6 15/32/6 13/33/6
f 12/34/6 15/32/6 16/31/6
f 15/32/6 12/34/6 17/35/6
f 12/34/6 16/31/6 5/36/6
f 12/34/6 5/36/6 14/37/6
f 11/38/7 12/39/7 17/40/7
f 17/40/7 2/41/7 11/38/7
f 20/42/7 17/40/7 12/39/7
f 12/39/7 10/43/7 20/42/7
f 16/44/8 19/45/8 21/46/8
f 21/46/8 5/47/8 16/44/8
f 18/48/8 16/44/8 5/47/8
f 5/47/8 7/49/8 18/48/8
f 19/50/9 8/51/9 3/52/9
f 10/53/9 19/50/9 3/52/9
f 3/52/9 20/54/9 10/53/9
f 10/53/9 21/55/9 19/50/9
f 10/53/9 4/56/9 21/55/9
f 36/57/1 38/58/1 41/59/1
f 41/59/1 24/60/1 36/57/1
f 38/58/1 36/57/1 22/61/1
f 22/61/1 23/62/1 38/58/1
f 34/63/2 36/64/2 24/65/2
f 24/65/2 29/66/2 34/63/2
f 36/64/2 34/63/2 30/67/2
f 30/67/2 22/68/2 36/64/2
f 42/69/3 25/70/3 35/71/3
f 35/71/3 26/72/3 42/69/3
f 26/72/3 35/71/3 27/73/3
f 27/73/3 28/74/3 26/72/3
f 34/75/4 29/76/4 40/77/4
f 40/77/4 37/78/4 34/75/4
f 30/79/4 34/75/4 37/78/4
f 37/78/4 39/80/4 30/79/4
f 35/81/5 25/82/5 31/83/5
f 31/83/5 33/84/5 35/81/5
f 27/85/5 35/81/5 33/84/5
f 33/84/5 32/86/5 27/85/5
f 37/87/6 36/88/6 34/89/6
f 33/90/6 36/88/6 37/87/6
f 36/88/6 33/90/6 38/91/6
f 33/90/6 37/87/6 26/92/6
f 33/90/6 26/92/6 35/93/6
f 32/94/7 33/95/7 38/96/7
f 38/96/7 23/97/7 32/94/7
f 41/98/7 38/96/7 33/95/7
f 33/95/7 31/99/7 41/98/7
f 37/100/8 40/101/8 42/102/8
f 42/102/8 26/103/8 37/100/8
f 39/104/8 37/100/8 26/103/8
f 26/103/8 28/105/8 39/104/8
f 40/106/9 29/107/9 24/108/9
f 31/109/9 40/106/9 24/108/9
f 24/108/9 41/110/9 31/109/9
f 31/109/9 42/111/9 40/106/9
f 31/109/9 25/112/9 42/111/9
f 18/48/10 7/49/10 28/105/10 39/104/10
f 1/12/10 9/11/10 30/67/10 22/68/10
f 6/29/10 11/30/10 32/86/10 27/85/10
f 11/38/10 2/41/10 23/97/10 32/94/10
f 7/18/10 6/17/10 27/73/10 28/74/10
f 2/6/10 1/5/10 22/61/10 23/62/10
f 9/23/10 18/24/10 39/80/10 30/79/10
