# Blender v2.79 (sub 0) OBJ File: 'Fixing models.blend'
# www.blender.org
mtllib logs_stackLarge.mtl
o logs_stackLarge
v -1.500000 3.464101 -3.550000
v -2.000000 2.598077 3.550000
v -0.500000 3.464102 3.549999
v -0.344764 2.598077 3.549999
v -0.672382 3.165528 3.549999
v -1.327617 2.030626 3.550000
v -1.655235 2.598077 3.549999
v -1.500000 3.464102 3.549999
v -0.655236 0.866026 3.550000
v 0.500000 0.000000 3.550000
v 2.327618 0.298575 3.550000
v 3.000000 0.866026 3.549999
v 2.327618 1.433477 3.549999
v 1.672382 1.433477 3.549999
v 1.327618 3.165528 3.549999
v 0.344764 2.598077 3.549999
v 0.672382 2.030626 3.549999
v -2.000000 2.598076 -3.550000
v -1.660166 2.598076 -3.550000
v -0.669917 3.169796 -3.550000
v -0.339835 2.598076 -3.550000
v -0.500000 3.464101 -3.550001
v -0.330083 0.294305 -3.550000
v 0.330082 0.294305 -3.550000
v -0.330083 1.437745 -3.550000
v 1.500000 -0.000000 -3.550000
v 2.330082 1.437745 -3.550000
v 2.330082 0.294305 -3.550000
v 2.000000 2.598076 -3.550001
v 1.330082 3.169796 -3.550001
v -0.500000 1.732051 3.550000
v -0.000000 2.598076 -3.550000
v -1.500000 1.732051 3.550000
v -0.500000 1.732050 -3.550000
v 0.500000 -0.000000 -3.550000
v -0.500000 -0.000000 -3.550000
v 1.000000 0.866025 -3.550000
v 1.000000 0.866026 3.550000
v -0.500000 0.000000 3.550000
v -1.000000 0.866026 3.550000
v 0.500000 1.732050 -3.550000
v 0.500000 1.732051 3.549999
v 2.500000 1.732051 3.549999
v 2.500000 1.732050 -3.550000
v 1.500000 0.000000 3.550000
v 2.500000 0.000000 3.550000
v 3.000000 0.866025 -3.550000
v 2.500000 -0.000000 -3.550000
v -3.000000 0.866026 3.550000
v -1.500000 0.000000 3.550000
v -2.500000 -0.000000 -3.550000
v -3.000000 0.866025 -3.550000
v -2.660166 0.866025 -3.550000
v -2.330083 1.437745 -3.550000
v -1.669917 1.437745 -3.550000
v -1.000000 0.866025 -3.550000
v -2.500000 1.732050 -3.550000
v -2.500000 1.732051 3.550000
v -1.500000 1.732050 -3.550000
v -2.500000 0.000000 3.550000
v -1.500000 -0.000000 -3.550000
v 1.500000 1.732050 -3.550000
v 1.500000 1.732051 3.549999
v 2.000000 2.598077 3.549999
v 1.500000 3.464101 -3.550001
v 1.500000 3.464102 3.549999
v 0.000000 2.598077 3.549999
v 0.500000 3.464101 -3.550001
v 0.500000 3.464102 3.549999
v -0.669917 2.026356 -3.550000
v -1.330083 2.026356 -3.550000
v -1.330083 3.169796 -3.550000
v -0.672382 2.030626 3.550000
v -1.327617 3.165528 3.549999
v -0.660166 0.866025 -3.550000
v 0.660165 0.866025 -3.550000
v 0.330082 1.437745 -3.550000
v 0.655236 0.866026 3.550000
v -0.327618 0.298575 3.550000
v 0.327618 0.298575 3.550000
v 0.327618 1.433477 3.550000
v -0.327618 1.433477 3.550000
v 2.655236 0.866026 3.549999
v 1.672382 0.298575 3.550000
v 1.344764 0.866026 3.550000
v 1.339834 0.866025 -3.550000
v 1.669917 0.294305 -3.550000
v 2.660165 0.866025 -3.550000
v 1.669917 1.437745 -3.550000
v -1.669917 0.294305 -3.550000
v -2.330083 0.294305 -3.550000
v -1.339835 0.866025 -3.550000
v -1.344764 0.866026 3.550000
v -2.327617 0.298575 3.550000
v -1.672382 0.298575 3.550000
v -2.655235 0.866026 3.550000
v -1.672382 1.433477 3.550000
v -2.327617 1.433477 3.550000
v 1.655236 2.598077 3.549999
v 1.327618 2.030626 3.549999
v 0.672382 3.165528 3.549999
v 0.339834 2.598076 -3.550000
v 1.330082 2.026356 -3.550000
v 0.669917 2.026356 -3.550000
v 1.660165 2.598076 -3.550001
v 0.669917 3.169796 -3.550001
vt -13.976377 8.858268
vt 13.976377 4.921260
vt 13.976377 8.858268
vt -13.976377 4.921260
vt -1.968504 -13.976377
vt -5.905512 13.976377
vt -5.905512 -13.976377
vt -1.968504 13.976377
vt -1.968504 6.819098
vt -2.647173 7.994588
vt -5.905512 6.819098
vt -0.000000 10.228646
vt -1.357339 10.228646
vt -1.968504 13.638195
vt -2.647173 12.462706
vt -5.226842 12.462706
vt -5.226842 7.994588
vt -7.874016 10.228646
vt -6.516677 10.228646
vt -5.905512 13.638195
vt -3.937008 3.409549
vt -1.289834 5.643608
vt -2.579669 3.409549
vt -1.289834 1.175490
vt -1.968504 0.000000
vt 1.289834 1.175490
vt 1.968504 0.000000
vt 3.937008 3.409549
vt 2.579669 3.409549
vt 1.968504 6.819098
vt 1.289834 5.643608
vt 5.905512 0.000000
vt 6.584181 1.175490
vt 9.163850 1.175490
vt 9.842520 0.000000
vt 11.811024 3.409549
vt 10.453685 3.409549
vt 9.842520 6.819098
vt 9.163850 5.643608
vt 6.584181 5.643608
vt 5.294347 3.409549
vt 5.905512 6.819098
vt 5.226842 7.994588
vt 7.874016 10.228646
vt 6.516677 10.228646
vt 5.905512 13.638195
vt 5.226842 12.462706
vt 2.647173 12.462706
vt 1.968504 13.638195
vt 1.357339 10.228646
vt 2.647173 7.994588
vt 5.905512 6.819098
vt 5.236547 7.977780
vt 1.968504 6.819098
vt 7.874016 10.228646
vt 6.536085 10.228646
vt 5.905512 13.638195
vt 5.236547 12.479513
vt 2.637470 12.479513
vt 2.637470 7.977780
vt 0.000000 10.228646
vt 1.337931 10.228646
vt 1.968504 13.638195
vt 2.599077 3.409549
vt 3.937008 3.409549
vt 1.299538 1.158682
vt 1.968504 0.000000
vt -1.968504 0.000000
vt -1.299538 1.158682
vt -3.937008 3.409549
vt -2.599077 3.409549
vt -1.299538 5.660416
vt -1.968504 6.819098
vt 1.299538 5.660416
vt -2.637470 7.977780
vt -5.905512 6.819098
vt -5.274939 3.409549
vt -6.574477 1.158682
vt -5.905512 0.000000
vt -9.842520 0.000000
vt -6.574477 5.660416
vt -9.173554 5.660416
vt -9.173554 1.158682
vt -11.811024 3.409549
vt -10.473093 3.409549
vt -9.842520 6.819098
vt -5.236547 7.977780
vt -7.874016 10.228646
vt -6.536085 10.228646
vt -5.236547 12.479513
vt -5.905512 13.638195
vt -1.968504 13.638195
vt -2.637470 12.479513
vt -1.337931 10.228646
vt 1.968504 13.976377
vt 5.905512 -13.976377
vt 5.905512 13.976377
vt 1.968504 -13.976377
vt -13.976377 4.921260
vt 13.976377 8.858268
vt -13.976377 8.858268
vt 13.976377 4.921260
vt 13.976377 12.795276
vt -13.976377 12.795276
vt -13.976377 12.795276
vt 13.976377 8.858268
vt 13.976377 12.795276
vt -13.976377 8.858268
vt -13.976377 4.921260
vt 13.976377 0.984252
vt 13.976377 4.921260
vt -13.976377 0.984252
vt 1.968504 -13.976377
vt -1.968504 13.976377
vt -1.968504 -13.976377
vt 1.968504 13.976377
vt -1.968504 13.976377
vt 1.968504 -13.976377
vt 1.968504 13.976377
vt -1.968504 -13.976377
vt -13.976377 0.984252
vt 13.976377 4.921260
vt -13.976377 4.921260
vt 13.976377 0.984252
vt -13.976377 4.921260
vt 13.976377 0.984252
vt 13.976377 4.921260
vt -13.976377 0.984252
vt -13.976377 0.984252
vt 13.976377 4.921260
vt -13.976377 4.921260
vt 13.976377 0.984252
vt 9.842520 -13.976377
vt 5.905512 13.976377
vt 5.905512 -13.976377
vt 9.842520 13.976377
vt -13.976377 8.858268
vt 13.976377 4.921260
vt 13.976377 8.858268
vt -13.976377 4.921260
vt -13.976377 -2.952756
vt 13.976377 0.984252
vt -13.976377 0.984252
vt 13.976377 -2.952756
vt -13.976377 0.984252
vt 13.976377 -2.952756
vt 13.976377 0.984252
vt -13.976377 -2.952756
vt -9.842520 13.976377
vt -5.905512 -13.976377
vt -5.905512 13.976377
vt -9.842520 -13.976377
vt -13.976377 4.921260
vt 13.976377 8.858268
vt -13.976377 8.858268
vt 13.976377 4.921260
vt -13.976377 8.858268
vt 13.976377 4.921260
vt 13.976377 8.858268
vt -13.976377 4.921260
vt -5.905512 0.000000
vt -6.584181 1.175490
vt -9.842520 0.000000
vt -5.294347 3.409549
vt -6.584181 5.643608
vt -9.163850 5.643608
vt -9.842520 6.819098
vt -9.163850 1.175490
vt -11.811024 3.409549
vt -10.453685 3.409549
vt 9.842520 0.000000
vt 9.173554 1.158682
vt 5.905512 0.000000
vt 11.811024 3.409549
vt 10.473093 3.409549
vt 9.842520 6.819098
vt 9.173554 5.660416
vt 6.574477 5.660416
vt 6.574477 1.158682
vt 5.274939 3.409549
vt -13.976377 4.921260
vt 13.976377 8.858268
vt -13.976377 8.858268
vt 13.976377 4.921260
vt -5.905512 -13.976377
vt -9.842520 13.976377
vt -9.842520 -13.976377
vt -5.905512 13.976377
vt -13.976377 0.984252
vt 13.976377 -2.952756
vt 13.976377 0.984252
vt -13.976377 -2.952756
vt 5.905512 13.976377
vt 9.842520 -13.976377
vt 9.842520 13.976377
vt 5.905512 -13.976377
vt -13.976377 -2.952756
vt 13.976377 0.984252
vt -13.976377 0.984252
vt 13.976377 -2.952756
vt -5.905512 13.976377
vt -1.968504 -13.976377
vt -1.968504 13.976377
vt -5.905512 -13.976377
vt -13.976377 8.858268
vt 13.976377 12.795276
vt -13.976377 12.795276
vt 13.976377 8.858268
vt -13.976377 4.921260
vt 13.976377 8.858268
vt -13.976377 8.858268
vt 13.976377 4.921260
vt -13.976377 8.858268
vt 13.976377 4.921260
vt 13.976377 8.858268
vt -13.976377 4.921260
vt -13.976377 12.795276
vt 13.976377 12.795276
vt 5.905512 -13.976377
vt 1.968504 13.976377
vt 1.968504 -13.976377
vt 5.905512 13.976377
vn -0.8660 0.5000 0.0000
vn -0.0000 1.0000 -0.0000
vn 0.0000 0.0000 1.0000
vn 0.0000 0.0000 -1.0000
vn 0.0000 -1.0000 0.0000
vn 0.8660 -0.5000 -0.0000
vn 0.8660 0.5000 -0.0000
vn -0.8660 -0.5000 0.0000
usemtl natureKit-wood
s off
f 1/1/1 2/2/1 8/3/1
f 2/2/1 1/1/1 18/4/1
f 3/5/2 1/6/2 8/7/2
f 1/6/2 3/5/2 22/8/2
f 31/9/3 73/10/3 33/11/3
f 73/10/3 31/9/3 67/12/3
f 73/10/3 67/12/3 4/13/3
f 4/13/3 67/12/3 3/14/3
f 4/13/3 3/14/3 5/15/3
f 5/15/3 3/14/3 74/16/3
f 6/17/3 33/11/3 73/10/3
f 33/11/3 6/17/3 2/18/3
f 2/18/3 6/17/3 7/19/3
f 2/18/3 7/19/3 74/16/3
f 2/18/3 74/16/3 8/20/3
f 8/20/3 74/16/3 3/14/3
f 40/21/3 82/22/3 31/9/3
f 40/21/3 9/23/3 82/22/3
f 40/21/3 79/24/3 9/23/3
f 39/25/3 79/24/3 40/21/3
f 79/24/3 39/25/3 80/26/3
f 10/27/3 80/26/3 39/25/3
f 80/26/3 10/27/3 38/28/3
f 80/26/3 38/28/3 78/29/3
f 78/29/3 38/28/3 42/30/3
f 78/29/3 42/30/3 81/31/3
f 81/31/3 42/30/3 82/22/3
f 31/9/3 82/22/3 42/30/3
f 45/32/3 84/33/3 38/28/3
f 84/33/3 45/32/3 11/34/3
f 46/35/3 11/34/3 45/32/3
f 11/34/3 46/35/3 12/36/3
f 11/34/3 12/36/3 83/37/3
f 83/37/3 12/36/3 43/38/3
f 83/37/3 43/38/3 13/39/3
f 13/39/3 43/38/3 14/40/3
f 38/28/3 84/33/3 85/41/3
f 38/28/3 85/41/3 14/40/3
f 38/28/3 14/40/3 63/42/3
f 63/42/3 14/40/3 43/38/3
f 63/42/3 100/43/3 42/30/3
f 100/43/3 63/42/3 64/44/3
f 100/43/3 64/44/3 99/45/3
f 99/45/3 64/44/3 66/46/3
f 99/45/3 66/46/3 15/47/3
f 15/47/3 66/46/3 101/48/3
f 69/49/3 101/48/3 66/46/3
f 67/12/3 101/48/3 69/49/3
f 67/12/3 16/50/3 101/48/3
f 67/12/3 17/51/3 16/50/3
f 42/30/3 17/51/3 67/12/3
f 17/51/3 42/30/3 100/43/3
f 59/52/4 71/53/4 34/54/4
f 71/53/4 59/52/4 18/55/4
f 71/53/4 18/55/4 19/56/4
f 19/56/4 18/55/4 1/57/4
f 19/56/4 1/57/4 72/58/4
f 72/58/4 1/57/4 20/59/4
f 70/60/4 34/54/4 71/53/4
f 34/54/4 70/60/4 32/61/4
f 32/61/4 70/60/4 21/62/4
f 32/61/4 21/62/4 20/59/4
f 32/61/4 20/59/4 22/63/4
f 22/63/4 20/59/4 1/57/4
f 75/64/4 56/65/4 34/54/4
f 23/66/4 56/65/4 75/64/4
f 23/66/4 36/67/4 56/65/4
f 36/67/4 23/66/4 35/68/4
f 24/69/4 35/68/4 23/66/4
f 35/68/4 24/69/4 37/70/4
f 37/70/4 24/69/4 76/71/4
f 37/70/4 76/71/4 77/72/4
f 37/70/4 77/72/4 41/73/4
f 77/72/4 34/54/4 41/73/4
f 75/64/4 34/54/4 25/74/4
f 25/74/4 34/54/4 77/72/4
f 104/75/4 41/73/4 32/61/4
f 41/73/4 104/75/4 62/76/4
f 86/77/4 37/70/4 62/76/4
f 87/78/4 37/70/4 86/77/4
f 87/78/4 26/79/4 37/70/4
f 26/79/4 87/78/4 48/80/4
f 86/77/4 62/76/4 89/81/4
f 89/81/4 62/76/4 27/82/4
f 28/83/4 48/80/4 87/78/4
f 48/80/4 28/83/4 47/84/4
f 47/84/4 28/83/4 88/85/4
f 47/84/4 88/85/4 27/82/4
f 47/84/4 27/82/4 44/86/4
f 44/86/4 27/82/4 62/76/4
f 103/87/4 62/76/4 104/75/4
f 62/76/4 103/87/4 29/88/4
f 29/88/4 103/87/4 105/89/4
f 29/88/4 105/89/4 30/90/4
f 29/88/4 30/90/4 65/91/4
f 65/91/4 30/90/4 68/92/4
f 106/93/4 68/92/4 30/90/4
f 102/94/4 68/92/4 106/93/4
f 102/94/4 32/61/4 68/92/4
f 104/75/4 32/61/4 102/94/4
f 34/95/5 33/96/5 59/97/5
f 33/96/5 34/95/5 31/98/5
f 31/99/6 32/100/6 67/101/6
f 32/100/6 31/99/6 34/102/6
f 67/101/7 22/103/7 3/104/7
f 22/103/7 67/101/7 32/100/7
f 18/105/8 33/106/8 2/107/8
f 33/106/8 18/105/8 59/108/8
f 34/109/1 40/110/1 31/111/1
f 40/110/1 34/109/1 56/112/1
f 42/113/2 34/114/2 31/115/2
f 34/114/2 42/113/2 41/116/2
f 35/117/5 39/118/5 36/119/5
f 39/118/5 35/117/5 10/120/5
f 10/121/6 37/122/6 38/123/6
f 37/122/6 10/121/6 35/124/6
f 56/125/8 39/126/8 40/127/8
f 39/126/8 56/125/8 36/128/8
f 38/129/7 41/130/7 42/131/7
f 41/130/7 38/129/7 37/132/7
f 43/133/2 62/134/2 63/135/2
f 62/134/2 43/133/2 44/136/2
f 62/137/1 38/138/1 63/139/1
f 38/138/1 62/137/1 37/140/1
f 12/141/7 44/142/7 43/143/7
f 44/142/7 12/141/7 47/144/7
f 37/145/8 45/146/8 38/147/8
f 45/146/8 37/145/8 26/148/8
f 48/149/5 45/150/5 26/151/5
f 45/150/5 48/149/5 46/152/5
f 46/153/6 47/154/6 12/155/6
f 47/154/6 46/153/6 48/156/6
f 52/157/8 60/158/8 49/159/8
f 60/158/8 52/157/8 51/160/8
f 50/161/3 95/162/3 60/163/3
f 95/162/3 50/161/3 40/21/3
f 95/162/3 40/21/3 93/164/3
f 93/164/3 40/21/3 33/11/3
f 93/164/3 33/11/3 97/165/3
f 97/165/3 33/11/3 98/166/3
f 98/166/3 33/11/3 58/167/3
f 94/168/3 60/163/3 95/162/3
f 60/163/3 94/168/3 49/169/3
f 49/169/3 98/166/3 58/167/3
f 49/169/3 94/168/3 96/170/3
f 49/169/3 96/170/3 98/166/3
f 51/171/4 91/172/4 61/173/4
f 91/172/4 51/171/4 52/174/4
f 91/172/4 52/174/4 53/175/4
f 53/175/4 52/174/4 57/176/4
f 53/175/4 57/176/4 54/177/4
f 54/177/4 57/176/4 55/178/4
f 90/179/4 61/173/4 91/172/4
f 61/173/4 90/179/4 56/65/4
f 56/65/4 90/179/4 92/180/4
f 56/65/4 92/180/4 55/178/4
f 56/65/4 55/178/4 59/52/4
f 59/52/4 55/178/4 57/176/4
f 40/181/7 59/182/7 33/183/7
f 59/182/7 40/181/7 56/184/7
f 33/185/2 57/186/2 58/187/2
f 57/186/2 33/185/2 59/188/2
f 57/189/1 49/190/1 58/191/1
f 49/190/1 57/189/1 52/192/1
f 61/193/5 60/194/5 51/195/5
f 60/194/5 61/193/5 50/196/5
f 50/197/6 56/198/6 40/199/6
f 56/198/6 50/197/6 61/200/6
f 62/201/5 42/202/5 41/203/5
f 42/202/5 62/201/5 63/204/5
f 63/205/6 29/206/6 64/207/6
f 29/206/6 63/205/6 62/208/6
f 64/209/7 65/210/7 66/211/7
f 65/210/7 64/209/7 29/212/7
f 32/213/8 42/214/8 67/215/8
f 42/214/8 32/213/8 41/216/8
f 68/217/1 67/215/1 69/218/1
f 67/215/1 68/217/1 32/213/1
f 66/219/2 68/220/2 69/221/2
f 68/220/2 66/219/2 65/222/2
usemtl natureKit-woodLight
f 19/56/4 70/60/4 71/53/4
f 70/60/4 19/56/4 21/62/4
f 21/62/4 19/56/4 72/58/4
f 21/62/4 72/58/4 20/59/4
f 4/13/3 6/17/3 73/10/3
f 6/17/3 4/13/3 7/19/3
f 7/19/3 4/13/3 5/15/3
f 7/19/3 5/15/3 74/16/3
f 75/64/4 24/69/4 23/66/4
f 24/69/4 75/64/4 76/71/4
f 76/71/4 75/64/4 25/74/4
f 76/71/4 25/74/4 77/72/4
f 78/29/3 79/24/3 80/26/3
f 79/24/3 78/29/3 9/23/3
f 9/23/3 78/29/3 81/31/3
f 9/23/3 81/31/3 82/22/3
f 83/37/3 84/33/3 11/34/3
f 84/33/3 83/37/3 85/41/3
f 85/41/3 83/37/3 13/39/3
f 85/41/3 13/39/3 14/40/3
f 86/77/4 28/83/4 87/78/4
f 28/83/4 86/77/4 88/85/4
f 88/85/4 86/77/4 89/81/4
f 88/85/4 89/81/4 27/82/4
f 53/175/4 90/179/4 91/172/4
f 90/179/4 53/175/4 92/180/4
f 92/180/4 53/175/4 54/177/4
f 92/180/4 54/177/4 55/178/4
f 93/164/3 94/168/3 95/162/3
f 94/168/3 93/164/3 96/170/3
f 96/170/3 93/164/3 97/165/3
f 96/170/3 97/165/3 98/166/3
f 99/45/3 17/51/3 100/43/3
f 17/51/3 99/45/3 16/50/3
f 16/50/3 99/45/3 15/47/3
f 16/50/3 15/47/3 101/48/3
f 102/94/4 103/87/4 104/75/4
f 103/87/4 102/94/4 105/89/4
f 105/89/4 102/94/4 106/93/4
f 105/89/4 106/93/4 30/90/4
