# Blender v2.79 (sub 0) OBJ File: 'Fixing models.blend'
# www.blender.org
mtllib mushroom_redTall.mtl
o mushroom_redTall
v 0.249975 0.000000 0.279220
v 0.463188 1.763356 0.267421
v 0.000000 1.763356 0.534843
v -0.617583 1.962156 0.356562
v 0.617583 1.962156 -0.356562
v -0.000000 1.763356 -0.534843
v -0.463188 1.763356 -0.267422
v -0.463188 1.763356 0.267421
v 0.463188 1.763356 -0.267422
v 0.189905 1.763356 -0.147705
v -0.176950 1.763356 0.219150
v 0.189905 1.763356 0.219150
v -0.237020 0.000000 0.279220
v 0.249975 -0.000000 -0.207775
v -0.237020 -0.000000 -0.207775
v -0.176950 1.763356 -0.147705
v -0.000000 2.504880 -0.170401
v 0.147571 2.504880 -0.085201
v 0.147571 2.504880 0.085199
v 0.617584 1.962156 0.356562
v 0.000000 2.504880 0.170400
v -0.147571 2.504880 0.085200
v -0.000000 1.962156 -0.713124
v -0.617584 1.962156 -0.356562
v -0.147571 2.504880 -0.085200
v 0.000000 1.962156 0.713124
vt 0.000000 0.000000
vt 0.000000 0.000000
vt 0.000000 0.000000
vt 0.000000 0.000000
vt -1.181102 24.909943
vt 4.942914 14.957126
vt 1.181102 24.909943
vt -1.181102 24.909943
vt 4.942914 14.957126
vt 1.181102 24.909943
vt -1.181102 24.909943
vt 4.942914 14.957126
vt 1.181102 24.909943
vt -1.181102 24.909943
vt 4.942914 14.957126
vt 1.181102 24.909943
vt -1.181102 24.909943
vt 4.942914 14.957126
vt 1.181102 24.909943
vt -1.181102 24.909943
vt 4.942914 14.957126
vt 1.181102 24.909943
vt -1.181102 24.909943
vt 4.942914 14.957126
vt 1.181102 24.909943
vt -1.181102 24.909943
vt 4.942914 14.957126
vt 1.181102 24.909943
vt -1.181102 24.909943
vt 1.181102 24.909943
vt 4.942914 14.957126
vt 4.942914 14.957126
vt -1.181102 24.909943
vt 1.181102 24.909943
vt -4.942914 14.957126
vt 1.181102 24.909943
vt -1.181102 24.909943
vt -4.942914 14.957126
vt -1.181102 24.909943
vt -4.942914 14.957126
vt -1.181102 24.909943
vt -4.942914 14.957126
vt -1.181102 24.909943
vt 1.181102 24.909943
vt -4.942914 14.957126
vt -4.942914 14.957126
vt 1.181102 24.909943
vt -4.942914 14.957126
vt -4.942914 14.957126
vt -1.181102 24.909943
vt -4.942914 14.957126
vt 1.181102 24.909943
vt 1.181102 24.909943
vt -1.181102 24.909943
vt -4.942914 14.957126
vt 1.181102 24.909943
vt -4.942914 14.957126
vt -1.181102 24.909943
vt -1.181102 24.909943
vt 1.181102 24.909943
vt 1.181102 24.909943
vt -4.942914 14.957126
vt -1.181102 24.909943
vt -1.181102 24.909943
vt -4.942914 14.957126
vt 1.181102 24.909943
vt 1.181102 24.909943
vt -4.942914 14.957126
vt -1.181102 24.909943
vt 0.000000 -2.362205
vt -2.045729 1.181102
vt -2.045729 -1.181102
vt 0.000000 2.362205
vt 2.045729 -1.181102
vt 2.045729 1.181102
vt 1.181102 24.909943
vt -4.942914 14.957126
vt -1.181102 24.909943
vt 1.181102 24.909943
vt -4.942914 14.957126
vt 4.942914 14.957126
vt -1.181102 24.909943
vt 1.181102 24.909943
vt -4.942914 14.957126
vt -1.181102 24.909943
vn 0.0000 -1.0000 0.0000
vn 0.3949 -0.6134 0.6840
vn -0.7898 -0.6134 0.0000
vn 0.3949 -0.6134 -0.6840
vn 0.7898 -0.6134 0.0000
vn -0.3949 -0.6134 0.6840
vn -0.3949 -0.6134 -0.6840
vn 0.9994 0.0340 -0.0000
vn -0.9994 0.0340 0.0000
vn 0.0000 0.0340 0.9994
vn -0.0000 0.0340 -0.9994
vn -0.3780 0.6547 -0.6547
vn 0.7559 0.6547 0.0000
vn 0.3780 0.6547 0.6547
vn 0.0000 1.0000 0.0000
vn 0.3780 0.6547 -0.6547
vn -0.7559 0.6547 0.0000
vn -0.3780 0.6547 0.6547
usemtl natureKit-_defaultMat
s off
f 14/1/1 13/2/1 15/3/1
f 13/2/1 14/1/1 1/4/1
f 20/5/2 3/6/2 2/7/2
f 3/8/2 20/9/2 26/10/2
f 24/11/3 8/12/3 4/13/3
f 8/14/3 24/15/3 7/16/3
f 23/17/4 9/18/4 6/19/4
f 9/20/4 23/21/4 5/22/4
f 2/23/5 5/24/5 20/25/5
f 5/26/5 2/27/5 9/28/5
f 26/29/6 8/12/6 3/30/6
f 8/14/6 26/31/6 4/13/6
f 24/11/7 6/32/7 7/16/7
f 6/33/7 24/15/7 23/34/7
f 6/35/1 8/36/1 7/37/1
f 8/38/1 6/19/1 16/39/1
f 16/40/1 6/19/1 10/41/1
f 10/42/1 6/19/1 9/20/1
f 10/42/1 9/28/1 12/43/1
f 8/38/1 11/44/1 3/8/1
f 11/45/1 8/36/1 16/39/1
f 3/46/1 11/44/1 12/43/1
f 3/46/1 12/47/1 2/23/1
f 2/48/1 12/47/1 9/20/1
f 14/49/8 12/47/8 1/50/8
f 12/51/8 14/52/8 10/41/8
f 11/45/9 15/53/9 13/54/9
f 15/55/9 11/44/9 16/39/9
f 12/51/10 13/56/10 1/50/10
f 13/57/10 12/47/10 11/58/10
f 16/40/11 14/52/11 15/59/11
f 14/49/11 16/60/11 10/41/11
usemtl natureKit-mushroom
f 25/61/12 23/62/12 24/15/12
f 23/62/12 25/61/12 17/63/12
f 5/24/13 19/64/13 20/65/13
f 19/64/13 5/24/13 18/66/13
f 19/67/14 26/68/14 20/9/14
f 26/68/14 19/67/14 21/69/14
f 21/70/15 25/71/15 22/72/15
f 25/71/15 21/70/15 17/73/15
f 17/73/15 21/70/15 19/74/15
f 17/73/15 19/74/15 18/75/15
f 17/76/16 5/77/16 23/21/16
f 5/77/16 17/76/16 18/78/16
f 22/79/17 24/80/17 4/81/17
f 24/80/17 22/79/17 25/82/17
f 21/83/18 4/84/18 26/31/18
f 4/84/18 21/83/18 22/85/18
