# Blender v2.79 (sub 0) OBJ File: 'Fixing models.blend'
# www.blender.org
mtllib mushroom_red.mtl
o mushroom_red
v 0.478923 -0.000000 -0.419486
v 0.478923 0.000000 0.520114
v -0.652377 0.983600 -0.376650
v -0.000000 0.983600 -0.753300
v 0.358243 0.983600 -0.298806
v 0.358243 0.983600 0.399433
v 0.000000 0.983600 0.753300
v 0.652377 0.983600 -0.376650
v 0.652377 0.983600 0.376650
v -0.652377 0.983600 0.376650
v -0.869836 1.263600 -0.502200
v -0.460677 -0.000000 -0.419486
v -0.339997 0.983600 -0.298806
v -0.460677 0.000000 0.520114
v -0.339997 0.983600 0.399433
v -0.000000 1.263600 -1.004400
v 0.869836 1.263600 -0.502200
v 0.207846 2.028000 0.120000
v 0.869836 1.263600 0.502200
v 0.000000 1.263600 1.004400
v 0.000000 2.028000 0.240000
v -0.000000 2.028000 -0.240000
v 0.207846 2.028000 -0.120000
v -0.207846 2.028000 0.120000
v -0.869836 1.263600 0.502200
v -0.207846 2.028000 -0.120000
vt 0.000000 0.000000
vt 0.000000 0.000000
vt 0.000000 0.000000
vt 0.000000 0.000000
vt 0.000000 0.000000
vt 0.000000 0.000000
vt -1.181102 13.749574
vt 4.942914 3.796757
vt 1.181102 13.749574
vt -1.181102 13.749574
vt 4.942914 3.796757
vt 1.181102 13.749574
vt 4.942914 3.796757
vt 1.181102 13.749574
vt -1.181102 13.749574
vt 1.181102 13.749574
vt 4.942914 3.796757
vt 1.181102 13.749574
vt -1.181102 13.749574
vt 4.942914 3.796757
vt 1.181102 13.749574
vt -1.181102 13.749574
vt 4.942914 3.796757
vt 1.181102 13.749574
vt -1.181102 13.749574
vt 4.942914 3.796757
vt 1.181102 13.749574
vt -1.181102 13.749574
vt -1.181102 13.749574
vt 4.942914 3.796757
vt 4.942914 3.796757
vt 1.181102 13.749574
vt -1.181102 13.749574
vt 1.181102 13.749574
vt 4.942914 3.796757
vt 1.181102 13.749574
vt -1.181102 13.749574
vt -1.181102 13.749574
vt 4.942914 3.796757
vt 1.181102 13.749574
vt 4.942914 3.796757
vt 1.181102 13.749574
vt -1.181102 13.749574
vt 4.942914 3.796757
vt -1.181102 13.749574
vt 4.942914 3.796757
vt -1.181102 13.749574
vt 1.181102 13.749574
vt 4.942914 3.796757
vt 1.181102 13.749574
vt -1.181102 13.749574
vt 4.942914 3.796757
vt 1.181102 13.749574
vt -1.181102 13.749574
vt -1.181102 13.749574
vt 4.942914 3.796757
vt 1.181102 13.749574
vt -1.181102 13.749574
vt 1.181102 13.749574
vt 1.181102 13.749574
vt -4.942914 3.796757
vt -1.181102 13.749574
vt -1.181102 13.749574
vt -4.942914 3.796757
vt 1.181102 13.749574
vt 1.181102 13.749574
vt -4.942914 3.796757
vt -1.181102 13.749574
vt 0.000000 -2.362205
vt -2.045729 1.181102
vt -2.045729 -1.181102
vt 0.000000 2.362205
vt 2.045729 -1.181102
vt 2.045729 1.181102
vt 1.181102 13.749574
vt -4.942914 3.796757
vt -1.181102 13.749574
vt 1.181102 13.749574
vt -4.942914 3.796757
vt 4.942914 3.796757
vt -1.181102 13.749574
vt -1.181102 13.749574
vt -4.942914 3.796757
vt 1.181102 13.749574
vn 0.0000 -1.0000 0.0000
vn 0.9926 0.1218 -0.0000
vn 0.3949 -0.6134 0.6840
vn -0.7898 -0.6134 0.0000
vn 0.3949 -0.6134 -0.6840
vn 0.7898 -0.6134 0.0000
vn -0.3949 -0.6134 0.6840
vn -0.3949 -0.6134 -0.6840
vn -0.9926 0.1218 0.0000
vn 0.0000 0.1218 -0.9926
vn 0.0000 0.1218 0.9926
vn -0.3780 0.6547 -0.6547
vn 0.7559 0.6547 -0.0000
vn 0.3780 0.6547 0.6547
vn 0.0000 1.0000 -0.0000
vn 0.3780 0.6547 -0.6547
vn -0.7559 0.6547 -0.0000
vn -0.3780 0.6547 0.6547
usemtl natureKit-_defaultMat
s off
f 1/1/1 14/2/1 12/3/1
f 14/2/1 1/1/1 2/4/1
f 1/1/2 6/5/2 2/4/2
f 6/5/2 1/1/2 5/6/2
f 3/7/1 13/8/1 10/9/1
f 13/10/1 3/11/1 4/12/1
f 13/10/1 4/13/1 5/14/1
f 5/15/1 4/13/1 8/16/1
f 5/15/1 8/17/1 6/18/1
f 10/19/1 15/20/1 7/21/1
f 15/22/1 10/23/1 13/24/1
f 7/25/1 15/20/1 6/18/1
f 7/25/1 6/26/1 9/27/1
f 9/28/1 6/26/1 8/16/1
f 19/29/3 7/30/3 9/27/3
f 7/25/3 19/31/3 20/32/3
f 11/33/4 10/23/4 25/34/4
f 10/19/4 11/35/4 3/36/4
f 16/37/5 8/17/5 4/12/5
f 8/38/5 16/39/5 17/40/5
f 9/28/6 17/41/6 19/42/6
f 17/43/6 9/44/6 8/16/6
f 20/45/7 10/23/7 7/21/7
f 10/19/7 20/46/7 25/34/7
f 11/33/8 4/13/8 3/36/8
f 4/47/8 11/35/8 16/48/8
f 15/22/9 12/49/9 14/50/9
f 12/51/9 15/20/9 13/24/9
f 13/10/10 1/52/10 12/53/10
f 1/54/10 13/8/10 5/14/10
f 6/55/11 14/56/11 2/57/11
f 14/58/11 6/26/11 15/59/11
usemtl natureKit-mushroom
f 26/60/12 16/61/12 11/35/12
f 16/61/12 26/60/12 22/62/12
f 17/41/13 18/63/13 19/64/13
f 18/63/13 17/41/13 23/65/13
f 18/66/14 20/67/14 19/31/14
f 20/67/14 18/66/14 21/68/14
f 21/69/15 26/70/15 24/71/15
f 26/70/15 21/69/15 22/72/15
f 22/72/15 21/69/15 18/73/15
f 22/72/15 18/73/15 23/74/15
f 22/75/16 17/76/16 16/39/16
f 17/76/16 22/75/16 23/77/16
f 24/78/17 11/79/17 25/80/17
f 11/79/17 24/78/17 26/81/17
f 20/46/18 24/82/18 25/83/18
f 24/82/18 20/46/18 21/84/18
