# Blender v2.79 (sub 0) OBJ File: 'Fixing models.blend'
# www.blender.org
mtllib palm_large.mtl
o palm_large_Group_140
v 0.486792 2.662893 0.505949
v 0.486792 2.662892 -0.467636
v -0.632197 0.498095 0.651355
v 0.632197 0.498095 0.651355
v -0.486792 2.662893 0.505949
v -0.632197 0.498095 -0.613040
v 0.360226 6.475235 0.915791
v -0.280976 9.310544 0.280973
v 0.280976 9.310544 0.280973
v -0.360226 6.475235 0.915791
v -0.280976 9.310544 -0.280980
v -0.360226 6.475235 0.195339
v -0.486792 2.662892 -0.467635
v 0.360226 6.475235 0.195339
v 0.543690 -0.000000 -0.524532
v 0.543690 0.000000 0.562847
v 0.632197 0.498095 -0.613040
v -0.543690 0.000000 0.562847
v 0.280976 9.310544 -0.280980
v -0.543690 -0.000000 -0.524532
v -0.317523 9.922230 -0.317524
v 0.317521 9.922230 0.317520
v 0.317521 9.922230 -0.317524
v -0.317523 9.922230 0.317520
v 0.453602 9.310544 -0.453605
v 0.604803 9.532975 -0.981879
v 0.604803 10.116857 -0.981879
v 0.604803 9.532975 -2.038426
v -0.604805 9.532975 -0.981879
v -0.604805 9.560779 -3.108876
v -0.604805 9.532975 -2.038426
v -0.604805 10.116857 -2.038426
v 0.604803 9.185427 -3.108876
v 0.604803 10.116857 -2.038426
v -0.435903 8.851779 -3.859438
v 0.289862 8.671054 -3.859438
v 0.289862 8.851779 -3.859438
v -0.604805 10.116857 -0.981879
v 0.604803 9.560779 -3.108876
v -0.604805 9.185427 -3.108876
v -0.435903 8.671054 -3.859438
v -2.038425 10.116858 0.604802
v -3.108874 9.560780 0.604803
v -0.981877 9.532976 -0.604806
v -3.108874 9.560780 -0.604806
v -3.108874 9.185428 -0.604805
v -3.859437 8.851781 -0.289864
v -3.859437 8.671056 -0.289864
v -3.859437 8.851781 0.435901
v -3.859437 8.671056 0.435901
v -3.108874 9.185428 0.604803
v -0.981877 9.532976 0.604802
v -0.453604 9.310544 0.453601
v -0.453604 9.713701 -0.453605
v -0.453604 9.310544 -0.453605
v -2.038425 9.532976 -0.604806
v -2.038425 9.532976 0.604802
v -0.981877 10.116858 -0.604806
v -2.038425 10.116858 -0.604806
v -0.981877 10.116858 0.604802
v 0.604803 9.532976 0.981875
v 0.604803 9.532976 2.038423
v -0.604805 10.116858 0.981875
v -0.604805 10.116858 2.038422
v -0.604805 9.532976 0.981875
v -0.289863 8.671057 3.859436
v -0.604805 9.185429 3.108872
v 0.604803 9.185429 3.108872
v 0.435901 8.671057 3.859436
v 0.604803 9.560781 3.108872
v 0.435901 8.851782 3.859436
v 0.604803 10.116858 0.981875
v -0.453604 9.713701 0.453601
v 0.453602 9.713701 0.453601
v -0.289863 8.851782 3.859436
v -0.604805 9.560781 3.108872
v 0.604803 10.116858 2.038422
v -0.604805 9.532976 2.038423
v 0.453602 9.713701 -0.453605
v 0.981876 9.532976 -0.604806
v 3.859436 8.851781 -0.435904
v 0.981876 9.532976 0.604802
v 3.108873 9.560780 0.604802
v 2.038423 9.532976 0.604802
v 2.038423 9.532976 -0.604806
v 3.108873 9.560780 -0.604806
v 2.038423 10.116858 -0.604806
v 0.981876 10.116858 -0.604806
v 3.108873 9.185428 0.604802
v 3.108873 9.185428 -0.604806
v 2.038423 10.116858 0.604802
v 0.453602 9.310544 0.453601
v 3.859436 8.671056 -0.435904
v 3.859436 8.851781 0.289861
v 0.981876 10.116858 0.604802
v 3.859436 8.671056 0.289861
vt -2.988189 52.696049
vt -25.984251 8.107619
vt -0.000000 8.107619
vt -22.996063 52.696049
vt 31.418661 8.471818
vt 8.422599 53.060249
vt 5.434410 8.471818
vt 28.430473 53.060249
vt 22.996063 55.165836
vt -0.000000 10.577406
vt 25.984251 10.577406
vt 2.988189 55.165836
vt -8.422599 54.801640
vt -31.418661 10.213207
vt -5.434410 10.213207
vt -28.430473 54.801640
vt 14.805827 132.449081
vt 13.045964 190.739548
vt 0.000000 132.449081
vt 24.594509 190.739548
vt -13.045964 191.465546
vt -14.805827 133.175079
vt -0.000000 133.175079
vt -24.594509 191.465546
vt 18.766397 189.566177
vt 5.589212 129.855835
vt 20.395039 129.855835
vt 7.217854 189.566177
vt 20.395039 132.308502
vt 2.988189 53.510612
vt 22.996063 53.510612
vt 5.589212 132.308502
vt -14.805827 133.183044
vt -8.422599 54.793427
vt 0.000000 133.183044
vt -28.430473 54.793427
vt -7.217854 192.769073
vt -20.395039 133.684845
vt -5.589212 133.684845
vt -18.766397 192.769073
vt -22.996063 49.044205
vt -5.589212 128.566513
vt -20.395039 128.566513
vt 8.422599 53.931252
vt 14.805827 132.320877
vt 0.000000 132.320877
vt 28.430473 53.931252
vt -24.165354 29.599764
vt -1.818898 7.253307
vt -1.818898 29.599764
vt -24.165354 7.253307
vt 7.253307 4.227771
vt 31.418661 14.624338
vt 5.434410 14.624338
vt 29.599764 4.227771
vt 25.984251 9.127588
vt 1.818898 -1.268979
vt 24.165354 -1.268979
vt 0.000000 9.127588
vt -31.418661 10.078347
vt -7.253307 -0.318219
vt -5.434410 10.078347
vt -29.599764 -0.318219
vt 18.766397 13.045964
vt 7.217854 24.594509
vt 7.217854 13.045964
vt 18.766397 24.594509
vt -0.000000 15.575097
vt -24.165354 5.178531
vt -1.818898 5.178531
vt -25.984251 15.575097
vt -2.988189 49.044205
vt -122.144615 77.439781
vt -100.306473 84.491501
vt -118.290825 84.491501
vt 118.290825 100.306473
vt 100.306473 118.290825
vt 100.306473 100.306473
vt 118.290825 118.290825
vt -96.452682 122.144615
vt -101.341438 117.255852
vt -96.452682 96.452682
vt -122.144615 122.144615
vt -117.255852 117.255852
vt -117.255852 101.341438
vt -101.341438 101.341438
vt -122.144615 96.452682
vt 96.452682 77.439781
vt 118.290825 84.491501
vt 100.306473 84.491501
vt 100.306473 -34.972672
vt 122.144615 -42.024391
vt 118.290825 -34.972672
vt -122.144615 -42.024391
vt -100.306473 -34.972672
vt -118.290825 -34.972672
vt 122.144615 96.452682
vt 96.452682 122.144615
vt 96.452682 96.452682
vt 122.144615 122.144615
vt -126.426598 135.833298
vt -96.452682 119.600601
vt -92.170692 135.833298
vt -122.144615 119.600601
vt 166.601013 24.409449
vt 151.039658 29.527559
vt 151.039658 18.110237
vt 166.601013 40.944881
vt 96.452682 115.012596
vt 126.426598 133.832153
vt 92.170692 133.832153
vt 122.144615 115.012596
vt -126.426598 167.026505
vt -92.170692 137.105240
vt -92.170692 167.026505
vt -126.426598 137.105240
vt -197.341461 25.196850
vt -167.026505 24.409449
vt -167.026505 40.944881
vt -197.341461 14.566929
vt -137.105240 24.409449
vt -137.105240 40.944881
vt 197.341461 14.566929
vt 167.026505 40.944881
vt 167.026505 24.409449
vt 197.341461 25.196850
vt 137.105240 40.944881
vt 137.105240 24.409449
vt -96.953972 5.118110
vt -117.507515 0.000000
vt -96.953972 0.000000
vt -117.507515 5.118110
vt -96.953972 -155.394409
vt -126.426598 -126.154602
vt -117.507515 -155.394409
vt 92.170692 137.105240
vt 126.426598 167.026505
vt 92.170692 167.026505
vt 126.426598 137.105240
vt -92.170692 -129.345047
vt -126.426598 -163.506393
vt -92.170692 -163.506393
vt -126.426598 -129.345047
vt 126.426598 -183.197998
vt 92.170692 -151.325241
vt 92.170692 -183.197998
vt 126.426598 -151.325241
vt 156.104645 0.000000
vt 133.053391 25.196850
vt 133.053391 14.566929
vt 156.104645 5.118110
vt 96.953972 -180.317108
vt 126.426598 -154.548798
vt 92.170692 -154.548798
vt 117.507515 -180.317108
vt -106.450027 40.944881
vt -90.888664 18.110237
vt -90.888664 29.527559
vt -106.450027 24.409449
vt -212.762344 14.566929
vt -234.549728 5.118110
vt -234.549728 0.000000
vt -92.170692 30.478033
vt -126.426598 64.639374
vt -126.426598 30.478033
vt -92.170692 64.639374
vt -81.492050 126.426598
vt -51.570793 92.170692
vt -51.570793 126.426598
vt -81.492050 92.170692
vt 0.501765 14.566929
vt -21.285620 5.118110
vt -21.285620 0.000000
vt 0.501765 25.196850
vt 51.570793 24.409449
vt 21.255833 25.196850
vt 21.255833 14.566929
vt 51.570793 40.944881
vt 81.492050 40.944881
vt 81.492050 24.409449
vt -51.570793 40.944881
vt -81.492050 24.409449
vt -51.570793 24.409449
vt -81.492050 40.944881
vt -21.255833 25.196850
vt -21.255833 14.566929
vt -117.507515 5.118110
vt -96.953972 0.000000
vt -96.953972 5.118110
vt -117.507515 0.000000
vt -126.426598 32.754372
vt -96.953972 3.514565
vt -92.170692 32.754372
vt 126.426598 25.768311
vt 96.953972 0.000000
vt 117.507515 0.000000
vt 92.170692 25.768311
vt 103.708572 24.409449
vt 119.269936 29.527559
vt 103.708572 40.944881
vt -122.144615 -81.866402
vt -92.170692 -65.633698
vt -126.426598 -65.633698
vt -96.452682 -81.866402
vt -43.557587 24.409449
vt -59.118946 29.527559
vt -59.118946 18.110237
vt -43.557587 40.944881
vt 126.426598 56.588062
vt 92.170692 24.715315
vt 126.426598 24.715315
vt 92.170692 56.588062
vt 92.170692 -39.942043
vt 122.144615 -58.761597
vt 126.426598 -39.942043
vt 96.452682 -58.761597
vt 51.570793 92.170692
vt 81.492050 126.426598
vt 51.570793 126.426598
vt 81.492050 92.170692
vt -45.466469 5.118110
vt -68.517723 14.566929
vt -45.466469 0.000000
vt -68.517723 25.196850
vt -126.426598 81.492050
vt -92.170692 51.570793
vt -92.170692 81.492050
vt -126.426598 51.570793
vt 51.570793 24.409449
vt 21.255833 25.196850
vt 21.255833 14.566929
vt 51.570793 40.944881
vt 81.492050 24.409449
vt 81.492050 40.944881
vt 92.170692 51.570793
vt 126.426598 81.492050
vt 92.170692 81.492050
vt 126.426598 51.570793
vt -81.492050 40.944881
vt -51.570793 24.409449
vt -51.570793 40.944881
vt -81.492050 24.409449
vt -21.255833 14.566929
vt -21.255833 25.196850
vt 16.062794 25.196850
vt 39.114052 0.000000
vt 39.114052 5.118110
vt 16.062794 14.566929
vt -126.426598 25.768311
vt -101.089775 0.000000
vt -92.170692 25.768311
vt -121.643318 0.000000
vt 101.089775 3.514565
vt 126.426598 32.754372
vt 92.170692 32.754372
vt 121.643318 3.514565
vt 48.493393 14.566929
vt 26.706007 5.118110
vt 26.706007 0.000000
vt 48.493393 25.196850
vt 96.452682 -81.866402
vt 126.426598 -65.633698
vt 92.170692 -65.633698
vt 122.144615 -81.866402
vt 59.118946 18.110237
vt 43.557587 40.944881
vt 43.557587 24.409449
vt 59.118946 29.527559
vt -119.269936 29.527559
vt -103.708572 24.409449
vt -103.708572 40.944881
vt -126.426598 -39.942043
vt -96.452682 -58.761597
vt -92.170692 -39.942043
vt -122.144615 -58.761597
vt 121.643318 5.118110
vt 101.089775 0.000000
vt 121.643318 0.000000
vt 101.089775 5.118110
vt 92.170692 30.478033
vt 126.426598 64.639374
vt 92.170692 64.639374
vt 126.426598 30.478033
vt -126.426598 56.588062
vt -92.170692 24.715315
vt -92.170692 56.588062
vt -126.426598 24.715315
vt -126.426598 -183.197998
vt -92.170692 -151.325241
vt -126.426598 -151.325241
vt -92.170692 -183.197998
vt -151.039658 29.527559
vt -166.601013 24.409449
vt -151.039658 18.110237
vt -166.601013 40.944881
vt 121.643318 -155.394409
vt 92.170692 -126.154602
vt 101.089775 -155.394409
vt 90.888664 29.527559
vt 106.450027 24.409449
vt 106.450027 40.944881
vt 197.341461 25.196850
vt 167.026505 24.409449
vt 197.341461 14.566929
vt 167.026505 40.944881
vt 137.105240 24.409449
vt 137.105240 40.944881
vt -167.026505 126.426598
vt -137.105240 92.170692
vt -137.105240 126.426598
vt -167.026505 92.170692
vt -167.026505 24.409449
vt -197.341461 25.196850
vt -197.341461 14.566929
vt -167.026505 40.944881
vt -137.105240 40.944881
vt -137.105240 24.409449
vt -121.643318 -180.317108
vt -92.170692 -154.548798
vt -126.426598 -154.548798
vt -101.089775 -180.317108
vt -164.770721 14.566929
vt -186.558105 5.118110
vt -186.558105 0.000000
vt 92.170692 -129.345047
vt 126.426598 -163.506393
vt 126.426598 -129.345047
vt 92.170692 -163.506393
vt 126.426598 135.833298
vt 96.452682 119.600601
vt 122.144615 119.600601
vt 92.170692 135.833298
vt 137.105240 92.170692
vt 167.026505 126.426598
vt 137.105240 126.426598
vt 167.026505 92.170692
vt 121.643318 0.000000
vt 101.089775 5.118110
vt 101.089775 0.000000
vt 121.643318 5.118110
vt -92.170692 133.832153
vt -122.144615 115.012596
vt -96.452682 115.012596
vt -126.426598 133.832153
vt 240.685165 5.118110
vt 217.633911 14.566929
vt 240.685165 0.000000
vt 217.633911 25.196850
vt -96.452682 77.439781
vt 122.144615 77.439781
vt 96.452682 -42.024391
vt -96.452682 -42.024391
vt -92.170692 -126.154602
vt -212.762344 25.196850
vt -117.507515 3.514565
vt 119.269936 18.110237
vt -119.269936 18.110237
vt 126.426598 -126.154602
vt 90.888664 18.110237
vt -164.770721 25.196850
vn 0.0000 0.0670 -0.9978
vn 0.9978 0.0670 -0.0000
vn 0.0000 0.0670 0.9978
vn -0.9978 0.0670 0.0000
vn 0.9996 0.0279 -0.0000
vn -0.9996 0.0279 0.0000
vn 0.0000 0.2185 0.9758
vn 0.0000 -0.1069 0.9943
vn -0.9994 0.0332 0.0000
vn -0.0000 -0.1657 -0.9862
vn -0.0000 0.1713 -0.9852
vn 0.9994 0.0332 -0.0000
vn 0.0000 -1.0000 0.0000
vn 0.9846 -0.1750 -0.0000
vn 0.0000 -0.1750 0.9846
vn -0.9846 -0.1750 0.0000
vn 0.0000 1.0000 0.0000
vn -0.0000 -0.1750 -0.9846
vn -0.8375 0.5465 -0.0000
vn 0.0000 0.5465 0.8375
vn 0.8375 0.5465 0.0000
vn -0.0000 0.5465 -0.8375
vn -0.0000 -0.9216 -0.3881
vn 0.9614 0.0000 0.2752
vn 0.0000 0.7950 0.6067
vn -1.0000 0.0000 0.0000
vn 1.0000 0.0000 -0.0000
vn 0.0000 0.0000 -1.0000
vn 0.0000 0.7269 -0.6867
vn -0.0000 0.8874 -0.4610
vn 0.0000 -0.9511 0.3088
vn 0.9221 -0.0000 -0.3869
vn 0.0000 -0.8249 0.5653
vn -0.9614 0.0000 0.2752
vn -0.9756 0.0000 -0.2195
vn -0.4610 0.8874 0.0000
vn -0.2195 -0.0000 0.9756
vn 0.0000 0.0000 1.0000
vn -0.6867 0.7269 0.0000
vn 0.5653 -0.8249 0.0000
vn 0.2752 0.0000 0.9614
vn -0.3881 -0.9216 0.0000
vn 0.2752 -0.0000 -0.9614
vn 0.3088 -0.9511 0.0000
vn 0.6067 0.7950 0.0000
vn -0.3869 0.0000 -0.9221
vn -0.9221 0.0000 0.3869
vn 0.0000 -0.8249 -0.5653
vn 0.0000 0.7269 0.6867
vn 0.9756 0.0000 0.2195
vn 0.0000 -0.9216 0.3881
vn 0.9614 -0.0000 -0.2752
vn -0.9614 -0.0000 -0.2752
vn -0.0000 0.7950 -0.6067
vn 0.0000 0.8874 0.4610
vn 0.0000 -0.9511 -0.3088
vn -0.3088 -0.9511 0.0000
vn -0.2752 -0.0000 -0.9614
vn 0.6867 0.7269 0.0000
vn -0.2752 0.0000 0.9614
vn -0.5653 -0.8249 0.0000
vn 0.2195 -0.0000 -0.9756
vn 0.4610 0.8874 -0.0000
vn 0.3881 -0.9216 -0.0000
vn -0.6067 0.7950 -0.0000
vn 0.3869 0.0000 0.9221
usemtl natureKit-wood
s off
f 13/1/1 17/2/1 6/3/1
f 17/2/1 13/1/1 2/4/1
f 17/5/2 1/6/2 4/7/2
f 1/6/2 17/5/2 2/8/2
f 1/9/3 3/10/3 4/11/3
f 3/10/3 1/9/3 5/12/3
f 5/13/4 6/14/4 3/15/4
f 6/14/4 5/13/4 13/16/4
f 14/17/5 9/18/5 7/19/5
f 9/18/5 14/17/5 19/20/5
f 8/21/6 12/22/6 10/23/6
f 12/22/6 8/21/6 11/24/6
f 9/25/7 10/26/7 7/27/7
f 10/26/7 9/25/7 8/28/7
f 7/29/8 5/30/8 1/31/8
f 5/30/8 7/29/8 10/32/8
f 12/33/9 5/34/9 10/35/9
f 5/34/9 12/33/9 13/36/9
f 11/37/10 14/38/10 12/39/10
f 14/38/10 11/37/10 19/40/10
f 2/41/11 12/42/11 14/43/11
f 1/44/12 14/45/12 7/46/12
f 14/45/12 1/44/12 2/47/12
f 15/48/13 18/49/13 20/50/13
f 18/49/13 15/48/13 16/51/13
f 16/52/14 17/53/14 4/54/14
f 17/53/14 16/52/14 15/55/14
f 4/56/15 18/57/15 16/58/15
f 18/57/15 4/56/15 3/59/15
f 6/60/16 18/61/16 3/62/16
f 18/61/16 6/60/16 20/63/16
f 9/64/17 11/65/17 8/66/17
f 11/65/17 9/64/17 19/67/17
f 6/68/18 15/69/18 20/70/18
f 15/69/18 6/68/18 17/71/18
s 1
f 12/42/11 2/41/11 13/72/11
usemtl natureKit-leavesGreen
s off
f 54/73/19 24/74/19 21/75/19
f 22/76/17 21/77/17 24/78/17
f 21/77/17 22/76/17 23/79/17
f 55/80/13 11/81/13 53/82/13
f 11/81/13 55/80/13 25/83/13
f 11/81/13 25/83/13 19/84/13
f 19/84/13 25/83/13 9/85/13
f 8/86/13 53/82/13 11/81/13
f 19/84/17 11/81/17 8/86/17
f 8/86/17 9/85/17 19/84/17
f 53/82/13 8/86/13 92/87/13
f 92/87/13 8/86/13 9/85/13
f 92/87/13 9/85/13 25/83/13
f 73/88/20 22/89/20 24/90/20
f 22/91/21 79/92/21 23/93/21
f 79/94/22 21/95/22 23/96/22
f 74/97/17 54/98/17 73/99/17
f 54/98/17 74/97/17 79/100/17
f 26/101/23 55/102/23 29/103/23
f 55/102/23 26/101/23 25/104/23
f 26/105/24 79/106/24 25/107/24
f 79/106/24 26/105/24 27/108/24
f 54/109/25 27/110/25 38/111/25
f 27/110/25 54/109/25 79/112/25
f 28/113/13 29/114/13 31/115/13
f 29/114/13 28/113/13 26/116/13
f 30/117/26 31/118/26 32/119/26
f 31/118/26 30/117/26 40/120/26
f 29/121/26 32/119/26 31/118/26
f 32/119/26 29/121/26 38/122/26
f 33/123/27 34/124/27 28/125/27
f 34/124/27 33/123/27 39/126/27
f 27/127/27 28/125/27 34/124/27
f 28/125/27 27/127/27 26/128/27
f 35/129/28 36/130/28 41/131/28
f 36/130/28 35/129/28 37/132/28
f 35/133/29 39/134/29 37/135/29
f 38/136/17 34/137/17 32/138/17
f 34/137/17 38/136/17 27/139/17
f 32/140/30 39/141/30 30/142/30
f 39/141/30 32/140/30 34/143/30
f 33/144/31 31/145/31 40/146/31
f 31/145/31 33/144/31 28/147/31
f 36/148/32 39/149/32 33/150/32
f 39/149/32 36/148/32 37/151/32
f 41/152/33 33/153/33 40/154/33
f 33/153/33 41/152/33 36/155/33
f 38/156/34 55/157/34 54/158/34
f 55/157/34 38/156/34 29/159/34
f 40/160/35 35/161/35 41/162/35
f 43/163/36 59/164/36 45/165/36
f 59/164/36 43/163/36 42/166/36
f 44/167/13 57/168/13 56/169/13
f 57/168/13 44/167/13 52/170/13
f 51/171/37 49/172/37 50/173/37
f 49/172/37 51/171/37 43/174/37
f 57/175/38 43/176/38 51/177/38
f 43/176/38 57/175/38 42/178/38
f 57/175/38 60/179/38 42/178/38
f 60/179/38 57/175/38 52/180/38
f 59/181/28 44/182/28 56/183/28
f 44/182/28 59/181/28 58/184/28
f 56/183/28 45/185/28 59/181/28
f 45/185/28 56/183/28 46/186/28
f 47/187/26 50/188/26 49/189/26
f 50/188/26 47/187/26 48/190/26
f 45/191/39 49/192/39 43/193/39
f 46/194/40 50/195/40 48/196/40
f 50/195/40 46/194/40 51/197/40
f 52/198/41 73/199/41 60/200/41
f 55/201/42 52/202/42 44/203/42
f 52/202/42 55/201/42 53/204/42
f 44/205/43 54/206/43 55/207/43
f 54/206/43 44/205/43 58/208/43
f 56/209/44 51/210/44 46/211/44
f 51/210/44 56/209/44 57/212/44
f 60/213/45 54/214/45 58/215/45
f 54/214/45 60/213/45 73/216/45
f 42/217/17 58/218/17 59/219/17
f 58/218/17 42/217/17 60/220/17
f 47/221/46 46/222/46 48/223/46
f 46/222/46 47/221/46 45/224/46
f 61/225/13 78/226/13 65/227/13
f 78/226/13 61/225/13 62/228/13
f 62/229/27 70/230/27 68/231/27
f 70/230/27 62/229/27 77/232/27
f 61/233/27 77/232/27 62/229/27
f 77/232/27 61/233/27 72/234/27
f 64/235/17 72/236/17 63/237/17
f 72/236/17 64/235/17 77/238/17
f 63/239/26 78/240/26 64/241/26
f 78/240/26 63/239/26 65/242/26
f 67/243/26 64/241/26 78/240/26
f 64/241/26 67/243/26 76/244/26
f 76/245/47 66/246/47 75/247/47
f 66/246/47 76/245/47 67/248/47
f 68/249/48 66/250/48 67/251/48
f 66/250/48 68/249/48 69/252/48
f 75/253/49 70/254/49 76/255/49
f 70/254/49 75/253/49 71/256/49
f 68/257/50 71/258/50 69/259/50
f 71/258/50 68/257/50 70/260/50
f 53/261/51 61/262/51 65/263/51
f 61/262/51 53/261/51 92/264/51
f 92/265/52 72/266/52 61/267/52
f 72/266/52 92/265/52 74/268/52
f 73/269/53 65/270/53 63/271/53
f 72/272/54 73/273/54 63/274/54
f 73/273/54 72/272/54 74/275/54
f 71/276/38 66/277/38 69/278/38
f 66/277/38 71/276/38 75/279/38
f 76/280/55 77/281/55 64/282/55
f 77/281/55 76/280/55 70/283/55
f 62/284/56 67/285/56 78/286/56
f 67/285/56 62/284/56 68/287/56
f 90/288/57 84/289/57 85/290/57
f 84/289/57 90/288/57 89/291/57
f 79/292/58 80/293/58 25/294/58
f 80/293/58 79/292/58 88/295/58
f 81/296/59 83/297/59 94/298/59
f 74/299/60 82/300/60 95/301/60
f 83/302/38 84/303/38 89/304/38
f 84/303/38 83/302/38 91/305/38
f 91/305/38 82/306/38 84/303/38
f 82/306/38 91/305/38 95/307/38
f 85/308/13 82/309/13 80/310/13
f 82/309/13 85/308/13 84/311/13
f 85/312/28 86/313/28 90/314/28
f 86/313/28 85/312/28 87/315/28
f 85/312/28 88/316/28 87/315/28
f 88/316/28 85/312/28 80/317/28
f 93/318/61 89/319/61 90/320/61
f 89/319/61 93/318/61 96/321/61
f 90/322/62 81/323/62 93/324/62
f 91/325/63 86/326/63 87/327/63
f 86/326/63 91/325/63 83/328/63
f 80/329/64 92/330/64 25/331/64
f 92/330/64 80/329/64 82/332/64
f 95/333/17 87/334/17 88/335/17
f 87/334/17 95/333/17 91/336/17
f 93/337/27 94/338/27 96/339/27
f 94/338/27 93/337/27 81/340/27
f 95/341/65 79/342/65 74/343/65
f 79/342/65 95/341/65 88/344/65
f 94/345/66 89/346/66 96/347/66
f 89/346/66 94/345/66 83/348/66
s 1
f 24/74/19 54/73/19 73/349/19
f 22/89/20 73/88/20 74/350/20
f 79/92/21 22/91/21 74/351/21
f 21/95/22 79/94/22 54/352/22
f 39/134/29 35/133/29 30/353/29
f 35/161/35 40/160/35 30/354/35
f 49/192/39 45/191/39 47/355/39
f 73/199/41 52/198/41 53/356/41
f 65/270/53 73/269/53 53/357/53
f 83/297/59 81/296/59 86/358/59
f 82/300/60 74/299/60 92/359/60
f 81/323/62 90/322/62 86/360/62
