# Blender v2.79 (sub 0) OBJ File: 'Fixing models.blend'
# www.blender.org
mtllib rock_large5.mtl
o rock_large5
v 0.646903 1.731840 -3.781269
v 3.239491 0.938079 -4.599357
v -1.050196 0.938081 4.599357
v -5.477293 0.938080 0.673402
v -5.477293 1.731840 0.673402
v -4.269395 1.731840 -2.993327
v 2.771983 1.731841 3.287755
v -4.874791 2.327160 0.599328
v -3.801208 2.922480 -0.904771
v 2.162147 2.922480 2.564448
v -1.050196 1.731841 4.599356
v 5.477293 0.938080 -2.099114
v 3.239491 1.731840 -4.599357
v 5.477293 1.731840 -2.099114
v -3.330128 2.922480 -2.334795
v -3.145809 2.922480 1.524217
v -0.819153 2.922480 3.587497
v 2.217587 0.000000 2.630204
v 0.504585 2.922479 -2.949390
v 3.791973 1.731840 0.549049
v -3.415515 -0.000000 -2.394662
v 0.517523 -0.000000 -3.025015
v 2.591593 -0.000000 -3.679485
v 3.033578 0.000000 0.439239
v 0.646903 0.938079 -3.781269
v -4.381835 0.000000 0.538722
v -0.840157 0.000000 3.679485
v 4.381835 -0.000000 -1.679291
v 3.791973 0.938080 0.549049
v 2.771983 0.938080 3.287755
v -4.269395 0.938080 -2.993327
v 2.526803 2.922479 -3.587499
v 2.957739 2.922480 0.428257
v 4.272289 2.922480 -1.637309
vt -48.813072 10.236220
vt -19.148041 18.897638
vt -48.813072 18.897638
vt 13.821535 10.236220
vt -22.792637 18.897638
vt -22.792637 10.236220
vt 13.821535 18.897638
vt 24.725124 10.236220
vt -39.841805 18.897638
vt -39.841805 10.236220
vt 24.725124 18.897638
vt 16.965557 18.897638
vt -27.128931 10.236220
vt 16.965557 10.236220
vt -27.128931 18.897638
vt -16.446629 18.897638
vt 25.679356 10.236220
vt 25.679356 18.897638
vt -16.446629 10.236220
vt 40.831135 18.897638
vt -13.499576 10.236220
vt 40.831135 10.236220
vt 8.826980 10.236220
vt -23.062784 18.897638
vt -23.062784 10.236220
vt 22.854626 -14.199491
vt -16.446629 -23.036701
vt 25.679356 -23.036701
vt 8.826980 -7.715229
vt -17.988972 8.084369
vt -23.062784 -7.715229
vt 13.233135 5.309432
vt -27.128931 -10.859671
vt 16.965557 -10.859671
vt -21.160566 5.309432
vt 17.161390 18.897638
vt 51.413361 10.236220
vt 51.413361 18.897638
vt 13.821535 -29.283026
vt -17.778257 -10.791479
vt -22.792637 -29.283026
vt 31.848284 9.261173
vt -13.499576 -6.384443
vt 40.831135 -6.384443
vt 24.725124 -12.413238
vt -35.459206 -4.235940
vt -39.841805 -12.413238
vt -14.647473 3.941358
vt 19.285597 3.941358
vt 16.965557 36.209099
vt -21.703144 22.742624
vt 13.572446 22.742624
vt -27.128931 36.209099
vt -48.813072 -3.862458
vt -14.935472 11.495275
vt -38.074196 11.495275
vt 13.385885 10.663151
vt 51.413361 -4.801130
vt 40.102421 10.663151
vt 37.269711 26.130272
vt 9.167700 -40.150116
vt 47.814079 -5.878467
vt -5.647151 33.008614
vt -24.198050 -28.700483
vt -28.279163 40.150116
vt -33.102058 -4.792929
vt -47.814079 18.324223
vt -39.050457 17.515770
vt -19.148041 30.173002
vt -48.813072 30.173002
vt -16.446629 46.702961
vt 20.543484 31.754736
vt 25.679356 46.702961
vt -13.157304 31.754736
vt -31.873444 23.897316
vt 24.725124 37.547657
vt -39.841805 37.547657
vt 19.780100 23.897316
vt 13.821535 52.098843
vt -18.234110 36.354870
vt 11.057228 36.354870
vt -22.792637 52.098843
vt 51.413361 30.983797
vt 13.729113 18.219801
vt 41.130688 18.219801
vt -18.450228 20.399523
vt 8.826980 33.498512
vt -23.062784 33.498512
vt 7.115443 -22.321692
vt -20.337288 -22.321692
vt -7.543232 -39.207176
vt 40.831135 32.350513
vt -10.799661 19.405172
vt 32.664906 19.405172
vt -19.148041 10.236220
vt -13.499576 18.897638
vt 8.826980 18.897638
vt 3.600763 -5.362281
vt -12.828371 -5.362281
vt 6.885044 8.084369
vt 17.161390 10.236220
vt 10.780798 -10.791479
vt -10.529669 9.261173
vt -19.148041 -3.862458
vt 17.161390 -4.801130
vt -15.318433 17.515770
vt 17.161390 30.983797
vt 7.061584 20.399523
vt -13.499576 32.350513
vt -34.326706 -16.632084
vt -36.337967 25.477015
vt -41.478348 9.872755
vt 5.505972 32.183399
vt -8.938507 -39.146362
vt 23.593098 -27.982971
vt 27.572184 39.146362
vt 32.274506 -4.673106
vt 46.618729 17.866117
vn -0.3009 0.0000 -0.9536
vn 0.7451 0.0000 -0.6669
vn -0.6635 0.0000 0.7482
vn 0.3246 0.0000 0.9459
vn -0.9498 -0.0000 -0.3129
vn -0.1583 -0.0000 -0.9874
vn 0.9371 0.0000 0.3490
vn -0.6982 0.6780 -0.2300
vn 0.7706 0.5690 0.2870
vn 0.2608 0.5953 0.7600
vn 0.8436 0.0000 0.5369
vn 0.5235 0.7116 -0.4686
vn -0.1314 0.5572 -0.8199
vn -0.5271 0.6074 0.5944
vn 0.2467 -0.6498 0.7190
vn -0.2546 0.5332 -0.8068
vn 0.7088 0.5424 0.4511
vn 0.0000 -1.0000 0.0000
vn -0.2434 -0.5882 -0.7712
vn -0.6504 -0.7288 -0.2143
vn -0.4975 -0.6616 0.5611
vn 0.4845 -0.7598 -0.4336
vn 0.6766 -0.5974 0.4306
vn 0.7323 -0.6240 0.2727
vn -0.3714 0.9230 0.1002
vn -0.1251 -0.6122 -0.7808
vn -0.0000 1.0000 -0.0000
usemtl natureKit-wood
s off
f 2/1/1 1/2/1 13/3/1
f 2/4/2 14/5/2 12/6/2
f 14/5/2 2/4/2 13/7/2
f 3/8/3 5/9/3 4/10/3
f 5/9/3 3/8/3 11/11/3
f 7/12/4 3/13/4 30/14/4
f 3/13/4 7/12/4 11/15/4
f 6/16/5 4/17/5 5/18/5
f 4/17/5 6/16/5 31/19/5
f 6/20/6 25/21/6 31/22/6
f 29/23/7 7/24/7 30/25/7
f 8/26/8 6/27/8 5/28/8
f 20/29/9 10/30/9 7/31/9
f 10/32/10 11/33/10 7/34/10
f 11/33/10 10/32/10 17/35/10
f 20/36/11 12/37/11 14/38/11
f 13/39/12 34/40/12 14/41/12
f 15/42/13 1/43/13 6/44/13
f 11/45/14 8/46/14 5/47/14
f 8/46/14 11/45/14 16/48/14
f 16/48/14 11/45/14 17/49/14
f 30/50/15 27/51/15 18/52/15
f 27/51/15 30/50/15 3/53/15
f 13/54/16 19/55/16 32/56/16
f 33/57/17 14/58/17 34/59/17
f 21/60/18 27/61/18 26/62/18
f 27/61/18 21/60/18 22/63/18
f 27/61/18 22/63/18 18/64/18
f 18/64/18 22/63/18 23/65/18
f 18/64/18 23/65/18 24/66/18
f 24/66/18 23/65/18 28/67/18
f 23/68/19 25/69/19 2/70/19
f 31/71/20 26/72/20 4/73/20
f 26/72/20 31/71/20 21/74/20
f 26/75/21 3/76/21 4/77/21
f 3/76/21 26/75/21 27/78/21
f 2/79/22 28/80/22 23/81/22
f 28/80/22 2/79/22 12/82/22
f 12/83/23 24/84/23 28/85/23
f 18/86/24 29/87/24 30/88/24
f 16/89/25 9/90/25 8/91/25
f 31/92/26 22/93/26 21/94/26
s 1
f 1/2/1 2/1/1 25/95/1
f 25/21/6 6/20/6 1/96/6
f 7/24/7 29/23/7 20/97/7
f 6/27/8 8/26/8 9/98/8
f 6/27/8 9/98/8 15/99/8
f 10/30/9 20/29/9 33/100/9
f 12/37/11 20/36/11 29/101/11
f 34/40/12 13/39/12 32/102/12
f 1/43/13 15/42/13 19/103/13
f 19/55/16 13/54/16 1/104/16
f 14/58/17 33/57/17 20/105/17
f 25/69/19 23/68/19 22/106/19
f 24/84/23 12/83/23 29/107/23
f 29/87/24 18/86/24 24/108/24
f 22/93/26 31/92/26 25/109/26
usemtl natureKit-leavesGreen
s off
f 16/110/27 15/111/27 9/112/27
f 15/111/27 16/110/27 19/113/27
f 19/113/27 16/110/27 17/114/27
f 19/113/27 17/114/27 10/115/27
f 19/113/27 10/115/27 32/116/27
f 32/116/27 10/115/27 33/117/27
f 32/116/27 33/117/27 34/118/27
