# Blender v2.79 (sub 0) OBJ File: 'Fixing models.blend'
# www.blender.org
mtllib rock_smallFlat1.mtl
o rock_smallFlat1
v -2.478949 -0.000000 -0.474740
v 0.862990 -0.000000 -2.147887
v 1.307282 0.000000 2.147887
v 2.478949 0.000000 0.200091
v 1.150408 0.649440 1.890140
v 0.759431 0.649440 -1.890141
v -2.181475 0.649440 -0.417771
v -1.105746 -0.000000 -1.469684
v -1.199121 0.649440 1.890140
v -1.362637 0.000000 2.147887
v -0.973056 0.649440 -1.293322
v 2.181475 0.649440 0.176080
vt 12.065767 16.037029
vt 14.868946 -23.437492
vt 27.050005 5.180312
vt -14.264913 -23.437492
vt -9.416848 23.437492
vt -27.050005 -2.183372
vt -16.537012 -5.873231
vt 5.442409 1.574534
vt -14.552570 1.574534
vt 12.553123 -1.021425
vt -14.868946 -8.645745
vt 14.264913 -8.645745
vt -13.084672 -1.021425
vt 12.072305 -9.250226
vt -11.203144 -1.586898
vt -12.730845 -9.250226
vt 10.623628 -1.586898
vt 13.968073 -7.064379
vt -15.078175 0.458763
vt -17.134289 -7.064379
vt 12.291903 0.458763
vt 16.601473 1.028987
vt 0.361374 -6.455536
vt 18.865311 -6.455536
vt 13.852865 -0.653486
vt -15.360470 -8.252529
vt 15.741893 -8.252529
vt -13.517213 -0.653486
vt 6.184556 -5.873231
vt 0.318009 1.028987
vt -13.084672 -20.624992
vt -10.617876 14.112585
vt -23.804005 4.558674
vt 12.553123 -20.624992
vt 8.286826 20.624992
vt 23.804005 -1.921367
vn -0.0000 -1.0000 0.0000
vn -0.3099 0.3076 -0.8996
vn 0.0000 0.3689 0.9295
vn 0.7924 0.3806 0.4767
vn 0.7760 0.3357 -0.5340
vn -0.5555 0.3217 -0.7667
vn -0.8581 0.3610 0.3652
vn 0.0000 1.0000 -0.0000
usemtl natureKit-wood
s off
f 8/1/1 10/2/1 1/3/1
f 10/2/1 8/1/1 3/4/1
f 3/4/1 8/1/1 2/5/1
f 3/4/1 2/5/1 4/6/1
f 2/7/2 11/8/2 6/9/2
f 5/10/3 10/11/3 3/12/3
f 10/11/3 5/10/3 9/13/3
f 4/14/4 5/15/4 3/16/4
f 5/15/4 4/14/4 12/17/4
f 2/18/5 12/19/5 4/20/5
f 12/19/5 2/18/5 6/21/5
f 7/22/6 8/23/6 1/24/6
f 9/25/7 1/26/7 10/27/7
f 1/26/7 9/25/7 7/28/7
s 1
f 11/8/2 2/7/2 8/29/2
f 8/23/6 7/22/6 11/30/6
usemtl natureKit-leavesGreen
s off
f 9/31/8 11/32/8 7/33/8
f 11/32/8 9/31/8 5/34/8
f 11/32/8 5/34/8 6/35/8
f 6/35/8 5/34/8 12/36/8
