# Blender v2.79 (sub 0) OBJ File: 'Fixing models.blend'
# www.blender.org
mtllib rock_smallFlat2.mtl
o rock_smallFlat2
v -1.200318 0.000000 1.111603
v -2.147540 -0.000000 -1.805250
v 1.153533 0.649440 1.669766
v -0.996264 0.649440 0.922631
v -1.782458 0.649440 -1.498358
v -0.375924 -0.000000 -2.011766
v 2.147540 0.000000 0.616757
v 1.389799 0.000000 2.011766
v -0.312017 0.649440 -1.669766
v 1.782458 0.649440 0.511909
vt 4.102036 21.952160
vt 13.097737 -12.129687
vt 23.433706 19.698681
vt -15.165327 -21.952160
vt -23.433706 -6.729988
vt 17.870964 2.004572
vt -8.389977 -5.571419
vt 21.531282 -5.571419
vt -6.963681 2.004572
vt 17.426083 -2.466429
vt 1.532709 -10.501684
vt 20.995279 -10.501684
vt 1.272149 -2.466429
vt 6.217710 1.732521
vt -25.973351 -5.870645
vt 7.491217 -5.870645
vt -21.557880 1.732521
vt 18.676605 -3.450388
vt -17.499479 3.935575
vt -21.083712 -3.450388
vt 15.501581 3.935575
vt 5.271293 -11.804166
vt -10.002780 -3.643520
vt -12.051542 -11.804166
vt 4.375173 -3.643520
vt -10.871122 -10.067640
vt -3.404689 18.220293
vt -19.449976 16.349905
vt 12.587221 -18.220293
vt 19.449976 -5.585890
vn 0.0000 -1.0000 0.0000
vn -0.3071 0.3536 0.8836
vn -0.1021 0.4714 -0.8760
vn -0.8865 0.3623 0.2879
vn 0.6921 0.2818 -0.6645
vn 0.7631 0.4959 0.4145
vn 0.0000 1.0000 -0.0000
usemtl natureKit-wood
s off
f 6/1/1 1/2/1 2/3/1
f 1/2/1 6/1/1 8/4/1
f 8/4/1 6/1/1 7/5/1
f 3/6/2 1/7/2 8/8/2
f 1/7/2 3/6/2 4/9/2
f 5/10/3 6/11/3 2/12/3
f 6/11/3 5/10/3 9/13/3
f 4/14/4 2/15/4 1/16/4
f 2/15/4 4/14/4 5/17/4
f 6/18/5 10/19/5 7/20/5
f 10/19/5 6/18/5 9/21/5
f 7/22/6 3/23/6 8/24/6
f 3/23/6 7/22/6 10/25/6
usemtl natureKit-leavesGreen
f 4/26/7 9/27/7 5/28/7
f 9/27/7 4/26/7 3/29/7
f 9/27/7 3/29/7 10/30/7
