# Blender v2.79 (sub 0) OBJ File: 'Fixing models.blend'
# www.blender.org
mtllib rock_tall7.mtl
o rock_tall7
v -2.124741 0.000000 1.226720
v -0.706759 5.339840 1.511922
v 0.000000 5.339840 1.919970
v -0.052313 7.829360 -0.215758
v 1.377810 7.829360 0.215480
v 2.124741 -0.000000 -1.226720
v 1.827278 3.824481 1.054978
v 0.000000 0.000000 2.453440
v 2.124741 0.000000 1.226720
v 0.000000 3.824481 2.109958
v 0.803332 3.824480 -1.646155
v -1.773722 4.141719 0.022066
v -1.571459 5.339840 0.566424
v -0.251214 7.829360 1.534095
v 0.012797 5.773284 1.885427
v 0.520764 7.829360 1.463341
v 1.571459 5.339840 1.012688
v -1.138516 5.339840 -0.053017
v 1.827278 3.824480 -0.000001
v -0.151581 5.339840 -0.414158
v 1.571459 5.339840 0.105406
v -0.513111 7.829360 1.382889
v 1.377810 7.829360 0.968524
v -2.124741 -0.000000 -1.226720
v -1.827277 3.824481 1.054979
v -1.827278 3.824480 -0.000001
v -1.827278 3.824480 -1.054980
v -0.000000 -0.000000 -2.453440
v -0.000000 1.912240 -2.281700
v 1.827277 3.824480 -1.054980
v -0.176257 3.824480 -0.604145
v -0.480562 3.824480 -1.832507
v -1.571458 5.339840 1.012688
vt 0.000000 26.771654
vt 23.184933 -13.385827
vt 23.184933 13.385827
vt 0.000000 -26.771654
vt -23.184933 13.385827
vt -23.184933 -13.385827
vt 18.258739 44.067646
vt -0.459210 40.579739
vt 18.724798 40.579739
vt 0.000328 57.240463
vt 11.468004 57.240463
vt 16.050356 85.205360
vt -3.884330 57.990517
vt 17.988514 57.990517
vt -2.104106 85.205360
vt 11.511811 40.060455
vt -13.385827 -1.797868
vt 13.385827 -1.797868
vt -12.448819 19.131294
vt -5.456755 40.060455
vt 12.448819 19.131294
vt -13.385827 -1.797868
vt 13.385827 -1.797868
vt -11.511811 40.060455
vt 1.389854 40.060455
vt -6.094803 35.366730
vt 3.576314 13.761175
vt 8.061706 35.366730
vt 6.642808 50.231884
vt 11.285078 36.157558
vt 14.889379 50.231884
vt -4.257646 81.115845
vt -1.738720 58.312099
vt 4.201392 81.115845
vt 11.050346 54.600342
vt 0.000000 37.830940
vt 11.511811 37.830940
vt 6.180759 54.600342
vt 0.240791 41.341599
vt 11.511811 40.060455
vt -7.712075 -16.497934
vt -17.147575 -11.050346
vt -10.475252 55.968784
vt -11.511811 39.336166
vt 9.325063 55.968784
vt 11.511811 39.336166
vt 2.888309 57.442966
vt -19.090031 40.797920
vt 3.744614 40.797920
vt 1.226215 85.119247
vt -16.749487 57.896935
vt 2.888309 57.896935
vt -15.073155 85.119247
vt -1.150189 56.762421
vt -10.568445 84.009834
vt -11.050346 56.762421
vt -2.351314 84.009834
vt 11.511811 40.060455
vt -13.385827 -1.797868
vt 13.385827 -1.797868
vt 11.511811 40.060455
vt -13.385827 -1.797868
vt 13.385827 -1.797868
vt -11.511811 40.060455
vt 13.385827 -1.797868
vt -11.511811 40.060455
vt -13.385827 -1.797868
vt -0.000000 40.060455
vt 11.511811 40.060455
vt -0.000000 37.830940
vt -11.050346 54.600342
vt -11.511811 37.830940
vt -1.150189 54.600342
vt -13.385827 -1.797868
vt 13.385827 -1.797868
vt -11.511811 40.060455
vt 10.407717 61.295795
vt 1.570114 56.549541
vt 10.475252 56.549541
vt 2.696091 83.810066
vt 5.995979 83.810066
vt 7.736041 84.404503
vt -10.475252 57.199196
vt 9.325063 57.199196
vt -10.165858 61.935833
vt -3.062711 84.404503
vt -16.749487 57.442966
vt 0.000000 40.060455
vt -11.511811 40.060455
vt -19.939041 0.000000
vt -1.923298 6.592355
vt -19.939041 11.511811
vt -5.243832 19.996094
vt 8.765872 17.962643
vt 19.939041 0.000000
vt 19.939041 11.511811
vt -17.147575 -6.180759
vt -12.423356 0.578507
vt -1.654037 4.519236
vt -5.599005 -15.089943
vt -2.741219 -16.739887
vt -0.570833 2.354308
vt 5.682512 -15.967821
vt 15.034506 -2.351314
vt 15.034506 -10.568445
vn 0.0000 -1.0000 0.0000
vn -0.3411 0.1224 -0.9320
vn -0.9591 0.0603 -0.2765
vn -0.4985 0.0775 -0.8634
vn 0.4985 0.0775 -0.8634
vn 0.1387 0.2594 -0.9558
vn -0.7614 0.3703 -0.5321
vn 0.0898 0.1789 0.9798
vn -0.9860 0.1665 0.0000
vn -0.9943 0.1064 0.0000
vn -0.9926 0.1211 0.0000
vn -0.4979 0.0922 0.8623
vn -0.4975 0.0999 0.8617
vn -0.4979 0.0919 0.8624
vn -0.4971 0.1079 0.8610
vn -0.4977 0.0960 0.8620
vn 0.4983 0.0827 0.8631
vn 0.4979 0.0922 0.8623
vn 0.4979 0.0919 0.8624
vn 0.4983 0.0822 0.8631
vn 0.2875 0.0905 -0.9535
vn 0.2868 0.1146 -0.9511
vn 0.2881 0.0647 -0.9554
vn 0.2875 0.0912 -0.9534
vn 0.9923 0.1237 -0.0000
vn 0.9970 0.0776 -0.0000
vn 0.9924 0.1228 -0.0000
vn -0.9970 0.0775 0.0000
vn 0.4985 0.0775 0.8634
vn 0.9970 0.0775 -0.0000
vn 0.9926 0.1211 -0.0000
vn 0.9943 0.1064 -0.0000
vn -0.4985 0.0775 0.8634
vn -0.4983 0.0835 0.8630
vn 0.4993 0.0542 0.8648
vn -0.0000 1.0000 0.0000
usemtl natureKit-wood
s off
f 28/1/1 1/2/1 24/3/1
f 1/2/1 28/1/1 8/4/1
f 8/4/1 28/1/1 6/5/1
f 8/4/1 6/5/1 9/6/1
f 12/7/2 31/8/2 26/9/2
f 31/8/2 12/7/2 20/10/2
f 20/10/2 12/7/2 18/11/2
f 22/12/3 20/13/3 2/14/3
f 20/13/3 22/12/3 4/15/3
f 27/16/4 28/17/4 24/18/4
f 28/17/4 27/16/4 29/19/4
f 29/19/4 27/16/4 32/20/4
f 29/21/5 6/22/5 28/23/5
f 6/22/5 29/21/5 30/24/5
f 30/24/5 29/21/5 11/25/5
f 11/26/6 29/27/6 32/28/6
f 18/29/7 12/30/7 13/31/7
f 14/32/8 15/33/8 16/34/8
s 1
f 33/35/9 26/36/10 25/37/11
f 26/36/10 33/35/9 13/38/9
f 26/36/10 13/38/9 12/39/9
f 10/40/12 2/41/13 25/37/14
f 33/42/15 25/37/14 2/41/13
f 3/43/16 2/41/13 10/44/12
f 17/45/17 10/44/18 7/46/19
f 10/44/18 17/45/17 3/43/20
f 20/47/21 19/48/22 31/49/22
f 4/50/23 21/51/24 20/52/21
f 21/51/24 4/50/23 5/53/23
f 21/54/25 23/55/26 17/56/27
f 23/55/26 21/54/25 5/57/26
f 25/58/11 24/59/28 1/60/28
f 7/61/19 8/62/29 9/63/29
f 8/62/29 7/61/19 10/64/18
f 6/65/30 7/66/31 9/67/30
f 7/66/31 6/65/30 19/68/32
f 19/68/32 6/65/30 30/69/30
f 19/70/32 17/71/27 7/72/31
f 17/71/27 19/70/32 21/73/25
f 10/40/12 1/74/33 8/75/33
f 1/74/33 10/40/12 25/76/14
f 15/77/34 2/78/13 3/79/16
f 2/78/13 15/77/34 22/80/34
f 22/80/34 15/77/34 14/81/34
f 23/82/35 3/83/20 17/84/17
f 3/83/20 23/82/35 15/85/35
f 15/85/35 23/82/35 16/86/35
f 21/87/24 19/48/22 20/47/21
f 26/88/10 24/59/28 25/58/11
f 27/89/28 24/59/28 26/88/10
usemtl natureKit-leavesGreen
s off
f 26/90/36 31/91/36 27/92/36
f 32/93/36 27/92/36 31/91/36
f 11/94/36 32/93/36 31/91/36
f 19/95/36 11/94/36 31/91/36
f 30/96/36 11/94/36 19/95/36
f 33/42/36 2/41/36 13/97/36
f 18/98/36 13/97/36 2/41/36
f 20/99/36 18/98/36 2/41/36
f 22/100/36 14/101/36 4/102/36
f 16/103/36 4/102/36 14/101/36
f 5/104/36 4/102/36 16/103/36
f 23/105/36 5/104/36 16/103/36
