# Blender v2.79 (sub 0) OBJ File: 'Fixing models.blend'
# www.blender.org
mtllib rock_small4.mtl
o rock_small4
v 2.128720 -0.000000 -0.000000
v 0.837142 1.369300 1.449972
v 1.064360 0.000000 1.843525
v 0.921526 2.309120 0.763582
v -0.681190 2.309120 -1.179857
v -0.681190 2.309120 1.179856
v 1.064360 -0.000000 -1.843526
v 0.732277 2.001253 -1.268342
v 1.362381 2.309120 -0.000001
v -1.064360 -0.000000 -1.843525
v -1.064360 0.000000 1.843526
v -2.128720 0.000000 0.000000
v -2.008057 0.363579 0.000000
v 0.000000 2.309120 1.179856
v -1.230748 2.309120 0.227994
v -1.147969 2.309120 -0.371373
v -0.452667 2.309120 -1.179857
v 1.248119 2.309120 -0.197908
vt 11.614173 -5.556726
vt -9.134795 9.989800
vt -11.614173 -5.556726
vt -2.188035 20.660179
vt 7.433071 20.660179
vt 2.753789 20.660179
vt 11.614173 -5.556726
vt 10.955844 -1.428779
vt -11.614173 -5.556726
vt -7.433071 20.660179
vt 9.134795 9.989800
vt -11.614173 -5.556726
vt 11.614173 -5.556726
vt -7.433071 20.660179
vt 0.000000 20.660179
vt 7.433071 20.660179
vt -11.614173 -5.556726
vt 11.614173 -5.556726
vt -7.990522 17.164772
vt -11.614173 -5.556726
vt -4.939452 20.660179
vt -7.433071 20.660179
vt 11.614173 -5.556726
vt 7.990522 17.164772
vt 11.614173 20.116339
vt 11.614173 -20.116339
vt 23.228346 0.000000
vt -11.614173 20.116339
vt -11.614173 -20.116339
vt -23.228346 0.000000
vt 7.433071 20.660179
vt -11.614173 -5.556726
vt 11.614173 -5.556726
vt -4.560354 20.660179
vt -10.955844 -1.428779
vt -5.300022 15.087811
vt 1.811435 2.974650
vt 5.733911 15.087811
vt -10.714919 2.646928
vt -0.000000 -5.390026
vt 10.714919 2.646928
vt -2.300481 18.362438
vt 2.997808 -4.596741
vt 4.301824 18.362438
vt 4.939452 20.660179
vt -7.433071 -12.874456
vt -12.526501 4.052377
vt -13.429783 -2.487846
vt -7.433071 12.874456
vt 0.000000 -12.874456
vt -4.939452 12.874456
vt 13.619332 2.159538
vt 10.055589 -8.332123
vt 14.866141 0.000000
vn 0.8323 0.2762 0.4805
vn -0.8323 0.2762 -0.4805
vn 0.0000 0.2762 0.9611
vn -0.0000 0.2762 -0.9611
vn 0.8323 0.2762 -0.4805
vn 0.0000 -1.0000 0.0000
vn -0.8323 0.2762 0.4805
vn 0.3485 0.5322 0.7716
vn 0.2090 0.9084 -0.3620
vn -0.9160 0.3808 -0.1265
vn -0.0000 1.0000 -0.0000
usemtl natureKit-wood
s off
f 1/1/1 2/2/1 3/3/1
f 2/2/1 1/1/1 4/4/1
f 4/4/1 1/1/1 9/5/1
f 16/6/2 12/7/2 13/8/2
f 12/7/2 16/6/2 10/9/2
f 10/9/2 16/6/2 5/10/2
f 2/11/3 11/12/3 3/13/3
f 11/12/3 2/11/3 6/14/3
f 6/14/3 2/11/3 14/15/3
f 5/16/4 7/17/4 10/18/4
f 7/17/4 5/16/4 8/19/4
f 1/20/5 18/21/5 9/22/5
f 18/21/5 1/20/5 7/23/5
f 18/21/5 7/23/5 8/24/5
f 10/25/6 11/26/6 12/27/6
f 11/26/6 10/25/6 7/28/6
f 11/26/6 7/28/6 3/29/6
f 3/29/6 7/28/6 1/30/6
f 6/31/7 12/32/7 11/33/7
f 12/32/7 6/31/7 15/34/7
f 12/32/7 15/34/7 13/35/7
f 14/36/8 2/37/8 4/38/8
f 18/39/9 8/40/9 17/41/9
f 16/42/10 13/43/10 15/44/10
s 1
f 8/19/4 5/16/4 17/45/4
usemtl natureKit-leavesGreen
s off
f 6/46/11 16/47/11 15/48/11
f 16/47/11 6/46/11 5/49/11
f 5/49/11 6/46/11 14/50/11
f 5/49/11 14/50/11 17/51/11
f 17/51/11 14/50/11 18/52/11
f 18/52/11 14/50/11 4/53/11
f 18/52/11 4/53/11 9/54/11
