# Blender v2.79 (sub 0) OBJ File: 'Fixing models.blend'
# www.blender.org
mtllib rock_small2.mtl
o rock_small2
v -1.804000 0.000000 1.155822
v 1.804000 -0.000000 -0.000000
v -0.035483 1.767920 -0.848892
v -1.804000 0.000000 0.000000
v -0.848892 1.767920 0.220391
v -0.924631 -0.000000 -1.804000
v -0.327664 1.767920 -0.848892
v 0.848892 1.767920 0.320494
v 0.848892 1.767920 0.848892
v 0.439685 0.000000 1.804000
v 0.574881 1.767920 0.848892
v 0.439684 -0.000000 -1.804000
v 1.804000 0.000000 1.804000
v -0.848892 1.767920 0.437578
vt 4.774801 12.569973
vt 0.000000 -9.356595
vt 12.612191 -9.356595
vt 2.404884 12.569973
vt -15.411292 -8.356090
vt 8.597454 13.570478
vt -7.573902 13.570478
vt -11.873957 -7.462748
vt 7.621654 14.463821
vt -8.376760 14.463821
vt 12.806623 -7.462748
vt -6.759802 13.515997
vt 8.625386 -8.410571
vt 6.220502 13.515997
vt -13.273832 -8.410571
vt 3.575437 12.569973
vt -4.797786 -9.356595
vt 10.089466 -9.356595
vt 0.387183 12.569973
vt -0.000000 -9.356595
vt -9.263012 12.569973
vt -19.685040 -9.356595
vt -3.497198 12.569973
vt 9.263012 12.569973
vt 4.797786 -9.356595
vt 19.685040 -9.356595
vt 10.089466 19.685040
vt 19.685040 -12.612191
vt 19.685040 0.000000
vt -4.797786 -19.685040
vt -4.797786 19.685040
vt -19.685040 0.000000
vt -19.685040 -19.685040
vt 10.072701 -8.356090
vt 6.273034 12.569973
vt 6.273034 -9.263012
vt -9.263012 -2.404884
vt -9.263012 -4.774801
vt -3.575437 9.263012
vt -0.387183 9.263012
vt 9.263012 -3.497198
vt 9.263012 -9.263012
vn -0.8798 0.4753 0.0000
vn -0.2442 0.4753 0.8453
vn 0.7017 0.4753 -0.5307
vn -0.7909 0.4753 -0.3855
vn 0.0000 0.4753 -0.8798
vn 0.8798 0.4753 -0.0000
vn 0.0000 0.4753 0.8798
vn 0.0000 -1.0000 0.0000
vn -0.0000 1.0000 -0.0000
usemtl natureKit-wood
s off
f 14/1/1 4/2/1 1/3/1
f 4/2/1 14/1/1 5/4/1
f 1/5/2 11/6/2 14/7/2
f 2/8/3 3/9/3 8/10/3
f 3/9/3 2/8/3 12/11/3
f 7/12/4 4/13/4 5/14/4
f 4/13/4 7/12/4 6/15/4
f 7/16/5 12/17/5 6/18/5
f 12/17/5 7/16/5 3/19/5
f 2/20/6 9/21/6 13/22/6
f 9/21/6 2/20/6 8/23/6
f 9/24/7 10/25/7 13/26/7
f 6/27/8 1/28/8 4/29/8
f 1/28/8 6/27/8 10/30/8
f 10/30/8 6/27/8 12/31/8
f 10/30/8 12/31/8 2/32/8
f 10/30/8 2/32/8 13/33/8
s 1
f 11/6/2 1/5/2 10/34/2
f 10/25/7 9/24/7 11/35/7
usemtl natureKit-leavesGreen
s off
f 11/36/9 5/37/9 14/38/9
f 5/37/9 11/36/9 7/39/9
f 7/39/9 11/36/9 3/40/9
f 3/40/9 11/36/9 8/41/9
f 8/41/9 11/36/9 9/42/9
