# Blender v2.79 (sub 0) OBJ File: 'Fixing models.blend'
# www.blender.org
mtllib rock_tall1.mtl
o rock_tall1
v 4.254526 0.000000 1.074604
v 4.915344 -0.000000 -1.238940
v 0.127458 -0.000000 -2.164271
v -4.915344 0.000000 1.562986
v 2.647018 4.864892 1.765869
v 2.998025 0.000000 1.968525
v 2.647018 4.864892 0.520994
v 2.647018 4.864892 -0.723881
v 0.311964 6.792490 0.032288
v 2.345152 6.792490 1.715967
v 0.282847 4.864892 -0.191896
v 2.345151 6.792490 0.645374
v 0.490831 6.792491 2.786560
v 0.490831 4.864892 3.010745
v -0.343145 6.792491 2.305064
v -1.363491 6.792490 1.715967
v -1.665357 4.864892 1.765870
v 2.116646 9.959260 0.775262
v 2.116647 9.959260 1.663854
v 0.577560 9.959260 2.552446
v -0.114640 9.959260 2.152804
v 3.218279 2.311707 -1.224155
v 3.111344 -0.000000 -2.533396
v 3.758886 2.311707 -0.836244
v -2.040694 0.917904 2.558794
v 2.831233 2.311707 0.073215
v 2.998025 0.000000 1.074604
v 3.499116 2.311707 0.073215
v 2.051157 -0.000000 -1.473209
v 0.490830 -0.000000 -2.374064
v 2.826877 2.311707 -0.832752
v -1.783384 3.229056 1.585763
v -1.851480 2.285268 1.873328
v -1.783385 3.229055 -0.213295
v -0.942411 0.000000 2.588572
v 0.490831 0.000000 3.416054
v -1.730500 1.507986 2.007934
v -1.665357 4.864892 -0.723881
v -0.752619 1.507985 -1.530524
v -4.915344 -0.000000 -1.756374
v -2.040695 0.917904 -2.752182
v -2.040694 0.000000 3.222666
v -4.340415 0.917904 1.231050
v -2.040695 -0.000000 -3.416054
v -3.972459 1.507985 0.435470
v -3.972459 1.507985 1.071720
v -3.392930 3.229056 0.953608
v -2.040694 1.507986 2.187025
v -3.392930 3.229055 0.508233
v -2.189528 1.507985 0.435470
v -2.323400 1.507985 -0.294888
v -1.907562 1.507985 -0.486980
v -2.457273 1.507985 -1.025247
v -1.451114 0.917904 2.218399
v -1.074812 1.507985 -1.716542
v -0.381244 0.917904 -1.794098
v -2.040694 3.229056 1.734321
v -2.144878 3.229055 0.508233
v -2.238589 3.229055 -0.003018
v 0.429101 9.959260 0.266401
v -1.665357 4.864892 0.520994
v 0.490830 4.864891 -1.968757
v -1.363491 6.792490 0.645374
v 2.831233 2.311707 -0.830238
v -2.217877 0.917904 0.473609
v -4.340415 0.917904 -1.424438
v -4.340415 0.917904 0.473609
v -2.536621 0.917904 -1.265340
v -0.890835 0.917904 -2.088310
v -1.907562 1.507985 -0.863717
vt -34.277225 35.945148
vt -27.193542 1.411002
vt -28.237211 35.945148
vt -43.554070 1.411002
vt -33.950634 27.644121
vt -32.714104 -11.725957
vt -22.381994 16.075481
vt -46.424896 -11.725957
vt -53.635674 13.519162
vt -32.714104 -21.480314
vt -5.355884 -37.275589
vt -5.355884 25.905512
vt -1.390807 23.616274
vt 10.283488 -28.246195
vt 22.267824 -35.165356
vt 22.267824 37.275589
vt 53.635674 -17.055119
vt 53.635674 19.165354
vt 22.918659 141.232910
vt -0.604269 96.314011
vt 25.205687 96.314011
vt 1.496395 141.232910
vt 16.392191 96.018593
vt -3.617994 68.596260
vt 19.019135 68.596260
vt -3.075739 96.018593
vt -35.696239 -13.369430
vt -20.744686 21.164717
vt -28.005236 21.164717
vt 27.730143 -15.143539
vt 9.718342 19.390608
vt 1.475403 -15.143539
vt 20.039137 19.390608
vt 46.424896 -3.710238
vt 30.894087 30.823910
vt 32.714104 -3.710238
vt 38.181957 30.823910
vt 6.103086 67.655022
vt -11.345634 -1.393026
vt 8.314425 -1.393026
vt -22.170458 31.417334
vt -22.225340 31.417334
vt -21.064787 67.655022
vt 11.788126 67.952118
vt -1.238224 20.307102
vt 13.314009 20.307102
vt -15.379748 67.952118
vt -6.185750 11.932002
vt -17.591087 -1.095931
vt -13.012611 -1.095931
vt 0.646706 -18.859999
vt 33.245132 -4.418307
vt 4.268753 -4.418307
vt 34.300247 5.254988
vt 10.603662 -9.186705
vt 37.922295 -9.186705
vt 21.666292 19.373442
vt 16.690247 43.982685
vt 16.667969 19.373442
vt 22.161736 43.982685
vt 18.978729 13.486290
vt -1.497323 4.689587
vt 18.581417 4.689587
vt 2.112588 13.486290
vt 13.391243 4.375812
vt 19.522297 13.879994
vt 15.462673 13.879994
vt -7.042262 94.690414
vt -18.155804 139.636795
vt -18.724447 94.690414
vt -8.459590 139.636795
vt 15.379748 67.108810
vt -13.999464 -1.939234
vt 17.591087 -1.939234
vt -11.788126 67.108810
vt -5.685040 64.988029
vt -18.724447 92.502441
vt -19.268976 64.988029
vt -7.042262 92.502441
vt -11.725957 -1.814678
vt -19.268976 67.233368
vt -21.480314 -1.814678
vt -5.685040 67.233368
vt -0.798926 30.995682
vt 7.898898 67.233368
vt 9.059449 30.995682
vt 12.799386 93.726868
vt -11.788126 66.328308
vt 15.379748 66.328308
vt -10.564986 93.726868
vt -3.360893 95.880287
vt -29.295334 68.471214
vt -2.350452 68.471214
vt -26.533491 95.880287
vt -6.103086 67.405907
vt 9.333586 94.673332
vt -14.878256 -18.724447
vt 19.841648 94.673332
vt 18.724447 93.784821
vt 5.685040 66.270401
vt 19.268976 66.270401
vt 7.042262 93.784821
vt -5.322164 141.050720
vt -26.533491 96.125519
vt -3.360893 96.125519
vt -24.555420 141.050720
vt 10.924340 139.973480
vt -10.564986 95.062622
vt 12.799386 95.062622
vt -8.468088 139.973480
vt 19.383930 139.630783
vt 10.662239 139.630783
vt -11.467843 -13.369430
vt -25.816439 6.048874
vt -36.867180 -8.392817
vt -23.028860 -8.392817
vt -33.245132 6.048874
vt 19.268976 67.827560
vt 17.303667 44.609921
vt 20.441545 31.214621
vt 5.685040 67.827560
vt -2.327442 44.609921
vt -7.898898 67.827560
vt -5.313870 20.182545
vt -9.424781 20.182545
vt 21.064787 67.405907
vt 5.217336 -1.642139
vt 23.276127 -1.642139
vt -1.609525 11.385794
vt -5.397996 19.760893
vt -7.275655 30.792969
vt 36.867180 -18.859999
vt -5.323871 -3.624421
vt -37.922295 -18.066113
vt -1.701824 -18.066113
vt -34.300247 -3.624421
vt 13.433071 -8.858011
vt -19.165354 -23.299704
vt 17.055119 -23.299704
vt 5.167970 -8.858011
vt -15.543307 -8.858011
vt 19.812059 5.254988
vt 13.391243 5.254988
vt 37.023258 45.916054
vt 23.891874 21.513371
vt 43.347019 21.513371
vt 23.404659 45.916054
vt -9.822144 40.316696
vt -31.692375 15.554584
vt -7.352217 15.554584
vt -26.860254 40.316696
vt -27.717201 30.584946
vt -31.216784 19.401693
vt -27.308342 19.401693
vt -28.746859 44.163803
vt -25.504763 44.163803
vt 10.405661 35.003063
vt 4.751803 9.806825
vt 11.694489 9.806825
vt 5.545781 35.003063
vt -4.436455 45.424530
vt 0.366390 21.032450
vt 1.235198 45.424530
vt -7.735972 21.032450
vt 0.366390 20.244436
vt -18.571375 11.873634
vt 0.719964 11.873634
vt -7.735972 20.244436
vt -15.838334 20.244436
vt -7.352217 7.384259
vt -34.300247 -1.685969
vt -5.323871 -1.685969
vt -31.692375 7.384259
vt -25.816439 6.939095
vt -31.216784 16.009323
vt -33.245132 6.939095
vt -27.308342 16.009323
vt 43.347019 21.107470
vt 24.201218 12.734916
vt 47.362103 12.734916
vt 23.891874 21.107470
vt 19.812059 4.375812
vt 11.694489 0.502257
vt 5.167970 -8.773915
vt 13.433071 -8.773915
vt 4.751803 0.502257
vt -22.267824 -18.924715
vt -37.023258 -5.545781
vt -37.023258 -10.405661
vt -23.404659 -5.545781
vt -19.460087 2.327442
vt -24.427221 0.032931
vt -19.460087 -17.303667
vt 6.302264 -27.852018
vt 4.682301 -2.906955
vt -1.250942 -23.491173
vt 23.096600 -8.459590
vt 23.096600 -18.155804
vt 3.086391 2.093939
vt -18.172186 7.898898
vt -18.172186 -5.685040
vt 5.355884 21.482834
vt 28.883953 -5.685040
vt 28.883953 7.898898
vt -3.744365 -25.152603
vt -14.878256 -7.042262
vt 3.404120 -0.352340
vt 38.181957 -0.798926
vt 30.894087 9.059449
vt 30.894087 -0.798926
vt 35.117493 13.357826
vt 41.016529 9.124985
vt 30.846558 9.086890
vt -24.201218 -5.167970
vt -47.362103 15.543307
vt -47.362103 -5.167970
vt -27.679317 13.807240
vt -22.267824 30.031496
vt -9.720684 22.787401
vt -26.813478 11.187373
vt -20.815092 9.424781
vt -11.728226 18.730709
vt -25.352676 3.217785
vt -20.815092 5.313870
vt -8.212490 16.700897
vn -0.6488 0.3975 -0.6488
vn -0.0000 -1.0000 0.0000
vn -0.9594 0.0559 -0.2765
vn -0.3414 0.1137 -0.9330
vn 0.5350 0.3975 -0.7455
vn 0.8823 0.3975 0.2520
vn 0.0000 0.3975 0.9176
vn 0.4987 0.0720 -0.8638
vn 0.4987 0.0719 -0.8638
vn -0.4987 0.0720 -0.8638
vn -0.4237 0.5308 -0.7339
vn 0.4237 0.5308 -0.7339
vn -0.4131 0.1720 -0.8943
vn -0.4118 0.3904 -0.8234
vn 0.4093 0.5743 -0.7090
vn 0.9934 0.1148 -0.0000
vn 0.9974 0.0720 -0.0000
vn 0.9935 0.1140 -0.0000
vn 0.4982 0.0853 0.8629
vn 0.4987 0.0720 0.8638
vn 0.4982 0.0856 0.8628
vn 0.9951 0.0989 -0.0000
vn 0.9936 0.1126 -0.0000
vn 0.4985 0.0766 0.8635
vn 0.4985 0.0762 0.8635
vn 0.2877 0.0840 -0.9540
vn 0.2871 0.1064 -0.9520
vn 0.2877 0.0846 -0.9540
vn -0.4982 0.0853 0.8629
vn -0.4978 0.0928 0.8623
vn -0.4975 0.1002 0.8617
vn -0.4982 0.0856 0.8628
vn -0.4980 0.0891 0.8626
vn -0.9880 0.1547 0.0000
vn -0.9951 0.0989 0.0000
vn -0.9936 0.1126 0.0000
vn 0.2882 0.0600 -0.9557
vn 0.4994 0.0503 0.8649
vn -0.4985 0.0775 0.8634
vn 0.4305 0.5087 0.7456
vn 0.4237 0.5308 0.7339
vn 0.4302 0.5098 0.7451
vn -0.9974 0.0720 0.0000
vn -0.4987 0.0720 0.8638
vn -0.4302 0.5098 0.7451
vn -0.4237 0.5308 0.7339
vn -0.4299 0.5105 0.7447
vn -0.8479 0.5301 -0.0000
vn -0.8475 0.5308 -0.0000
vn -0.8478 0.5302 -0.0000
vn 0.4191 0.5452 -0.7260
vn 0.4190 0.5456 -0.7258
vn -0.0000 0.0422 -0.9991
vn -0.0000 -0.0099 -1.0000
vn -0.0000 -0.0251 -0.9997
vn -0.4875 0.2221 0.8444
vn -0.4630 0.3773 0.8020
vn -0.4646 0.3695 0.8047
vn 0.4875 0.2221 0.8444
vn 0.4646 0.3695 0.8047
vn 0.4658 0.3636 0.8067
vn -0.9477 0.3191 -0.0000
vn -0.9045 0.4265 -0.0000
vn -0.8998 0.4363 -0.0000
vn -0.9835 0.0179 0.1803
vn -0.9829 0.0384 0.1802
vn -0.9826 0.0462 0.1801
vn -0.9819 0.0588 0.1800
vn -0.0000 -0.0645 -0.9979
vn 0.0000 1.0000 0.0000
usemtl natureKit-wood
s off
f 22/1/1 29/2/1 31/3/1
f 29/2/1 22/1/1 23/4/1
f 23/5/2 27/6/2 29/7/2
f 27/6/2 23/5/2 1/8/2
f 1/8/2 23/5/2 2/9/2
f 6/10/2 29/7/2 27/6/2
f 36/11/2 29/7/2 6/10/2
f 36/11/2 30/12/2 29/7/2
f 36/11/2 3/13/2 30/12/2
f 35/14/2 3/13/2 36/11/2
f 42/15/2 3/13/2 35/14/2
f 42/15/2 44/16/2 3/13/2
f 4/17/2 44/16/2 42/15/2
f 44/16/2 4/17/2 40/18/2
f 21/19/3 9/20/3 15/21/3
f 9/20/3 21/19/3 60/22/3
f 63/23/4 11/24/4 61/25/4
f 11/24/4 63/23/4 9/26/4
f 2/27/5 22/28/5 24/29/5
f 2/30/6 28/31/6 1/32/6
f 28/31/6 2/30/6 24/33/6
f 1/34/7 26/35/7 27/36/7
f 26/35/7 1/34/7 28/37/7
f 62/38/8 29/39/8 30/40/8
f 29/39/8 62/38/8 31/41/8
f 31/41/9 62/38/9 64/42/9
f 64/42/8 62/38/8 8/43/8
f 38/44/10 39/45/10 70/46/10
f 62/47/10 39/45/10 38/44/10
f 62/47/10 56/48/10 39/45/10
f 30/49/10 56/48/10 62/47/10
f 56/48/10 30/49/10 3/50/10
f 44/51/11 66/52/11 41/53/11
f 41/54/12 3/55/12 44/56/12
f 51/57/13 34/58/13 52/59/13
f 34/58/13 51/57/13 59/60/13
f 53/61/14 69/62/14 68/63/14
f 69/62/14 53/61/14 55/64/14
f 56/65/15 55/66/15 39/67/15
s 1
f 12/68/16 19/69/17 10/70/18
f 19/69/17 12/68/16 18/71/17
f 5/72/19 36/73/20 6/74/20
f 36/73/20 5/72/19 14/75/21
f 7/76/22 10/77/18 5/78/23
f 10/77/18 7/76/22 12/79/16
f 27/80/17 5/81/23 6/82/17
f 5/81/23 27/80/17 7/83/22
f 7/83/22 27/80/17 26/84/17
f 7/83/22 26/84/17 8/85/17
f 8/85/17 26/84/17 64/86/17
f 10/87/24 14/88/21 5/89/19
f 14/88/21 10/87/24 13/90/25
f 9/91/26 7/92/27 11/93/27
f 7/92/27 9/91/26 12/94/28
f 17/95/29 15/96/30 16/97/31
f 17/95/29 14/88/32 15/96/30
f 14/88/32 13/98/33 15/96/30
f 16/99/34 61/100/35 17/101/36
f 61/100/35 16/99/34 63/102/34
f 60/103/37 12/104/28 9/105/26
f 12/104/28 60/103/37 18/106/37
f 19/107/38 13/108/25 10/109/24
f 13/108/25 19/107/38 20/110/38
f 20/111/39 15/96/30 13/98/33
f 15/96/30 20/111/39 21/112/39
f 22/28/5 2/27/5 23/113/5
f 54/114/40 42/115/41 35/116/41
f 42/115/41 54/114/40 25/117/42
f 17/118/36 32/119/43 33/120/43
f 32/119/43 17/118/36 61/121/35
f 32/119/43 61/121/35 34/122/43
f 34/122/43 61/121/35 38/123/43
f 34/122/43 38/123/43 52/124/43
f 52/124/43 38/123/43 70/125/43
f 14/126/32 35/127/44 36/128/44
f 35/127/44 14/126/32 54/129/44
f 54/129/44 14/126/32 37/130/44
f 37/130/44 14/126/32 33/131/44
f 33/131/44 14/126/32 17/95/29
f 66/52/11 44/51/11 40/132/11
f 25/133/45 4/134/46 42/135/46
f 4/134/46 25/133/45 43/136/47
f 43/137/48 40/138/49 4/139/49
f 40/138/49 43/137/48 67/140/50
f 40/138/49 67/140/50 66/141/49
f 3/55/12 41/54/12 69/142/51
f 3/55/12 69/142/51 56/143/52
f 49/144/53 50/145/54 45/146/55
f 50/145/54 49/144/53 58/147/53
f 57/148/56 46/149/57 48/150/58
f 46/149/57 57/148/56 47/151/56
f 33/152/59 48/153/60 37/154/61
f 48/153/60 33/152/59 57/155/59
f 57/155/59 33/152/59 32/156/59
f 47/157/62 45/158/63 46/159/64
f 45/158/63 47/157/62 49/160/62
f 59/161/65 50/162/66 58/163/65
f 50/162/66 59/161/65 51/164/67
f 50/165/66 68/166/68 65/167/68
f 68/166/68 50/165/66 51/168/67
f 68/166/68 51/168/67 53/169/68
f 48/170/58 43/171/47 25/172/45
f 43/171/47 48/170/58 46/173/57
f 54/174/40 48/175/60 25/176/42
f 48/175/60 54/174/40 37/177/61
f 45/178/55 65/179/69 67/180/69
f 65/179/69 45/178/55 50/181/54
f 55/66/15 56/65/52 69/182/51
f 46/183/64 67/184/50 43/185/48
f 67/184/50 46/183/64 45/186/63
usemtl natureKit-leavesGreen
s off
f 57/187/70 49/188/70 47/189/70
f 49/188/70 57/187/70 58/190/70
f 34/191/70 58/190/70 57/187/70
f 58/190/70 34/191/70 59/192/70
f 34/191/70 57/187/70 32/193/70
f 20/194/70 60/195/70 21/196/70
f 60/195/70 20/194/70 18/197/70
f 18/197/70 20/194/70 19/198/70
f 11/199/70 38/200/70 61/201/70
f 38/200/70 11/199/70 62/202/70
f 62/202/70 11/199/70 7/203/70
f 62/202/70 7/203/70 8/204/70
f 15/205/70 63/206/70 16/97/70
f 63/206/70 15/205/70 9/207/70
f 28/208/70 64/209/70 26/210/70
f 64/209/70 28/208/70 22/211/70
f 22/211/70 28/208/70 24/212/70
f 22/211/70 31/213/70 64/209/70
f 65/214/70 66/215/70 67/216/70
f 66/215/70 65/214/70 68/217/70
f 68/217/70 41/218/70 66/215/70
f 41/218/70 68/217/70 69/219/70
f 53/220/70 70/221/70 55/222/70
f 70/221/70 53/220/70 51/223/70
f 70/221/70 51/223/70 52/224/70
f 55/222/70 70/221/70 39/225/70
