# Blender v2.79 (sub 0) OBJ File: 'Fixing models.blend'
# www.blender.org
mtllib rock_small5.mtl
o rock_small5
v 0.703560 1.767920 1.218601
v 0.902000 0.000000 1.562310
v 1.540032 1.175856 -0.000000
v -0.294434 1.767920 -0.511145
v -0.026252 2.561680 -0.321466
v -0.905647 1.767920 0.868577
v 0.489497 1.965520 0.846663
v 0.516758 1.767920 0.893882
v 0.703333 2.561680 0.191368
v 0.703560 1.767920 -1.218602
v 0.902000 -0.000000 -1.562310
v -0.902000 -0.000000 -1.562310
v -0.184923 2.561680 0.704203
v 0.111162 2.561680 0.704203
v -0.902000 0.000000 1.562310
v -1.804000 0.000000 0.000000
v 1.804000 -0.000000 -0.000000
v -1.407120 1.767920 -0.000000
v -0.739761 1.445400 -1.281304
v -0.700031 1.767920 0.191369
v 0.131543 1.767920 -1.218602
v -0.840368 0.549083 1.455560
v 0.555290 2.561680 0.447786
v 0.516758 1.767920 -0.511145
v 0.429278 2.401995 -0.359625
v 1.261496 1.767920 -0.252228
v -0.184923 2.561680 -0.321466
v -0.481008 2.561680 0.191369
v 0.623997 2.561680 0.053955
v -0.905647 1.767920 -0.868577
v -0.387599 1.767920 1.218601
v -0.294434 1.767920 0.893882
v 0.922355 1.767920 0.191369
v 1.219007 1.767920 0.325820
vt 7.677166 16.399128
vt -9.842520 -3.253404
vt 9.842520 -3.253404
vt -9.170001 2.850308
vt -4.229435 16.399128
vt 9.842520 -3.253404
vt -7.677166 16.399128
vt -9.842520 -3.253404
vt 3.571840 16.399128
vt 8.402328 9.817632
vt 2.017860 26.372019
vt -5.638808 17.466738
vt 3.212832 17.466738
vt -4.684236 24.580498
vt 0.286454 26.372019
vt 9.170001 2.850308
vt -9.842520 -3.253404
vt 9.842520 -3.253404
vt 3.266870 16.399128
vt -7.677166 16.399128
vt 3.223883 16.494583
vt -5.330279 18.711477
vt -5.627757 16.494583
vt -1.201937 25.399864
vt 2.028912 25.399864
vt 9.842520 -3.253404
vt -8.402328 9.817632
vt -9.842520 -3.253404
vt -4.499107 16.399128
vt 7.677166 16.399128
vt 8.072189 12.813934
vt -9.842520 -3.253404
vt 9.842520 -3.253404
vt -7.677166 16.399128
vt -1.435384 16.399128
vt 5.341331 18.712959
vt -3.212832 16.496067
vt 5.638808 16.496067
vt -2.017860 25.401348
vt 1.212988 25.401348
vt 9.842520 17.047745
vt 9.842520 -17.047745
vt 19.685040 0.000000
vt -9.842520 17.047745
vt -9.842520 -17.047745
vt -19.685040 0.000000
vt -3.266870 16.399128
vt 9.842520 -3.253404
vt 7.677166 16.399128
vt -9.842520 -3.253404
vt -8.072189 12.813934
vt -2.028912 26.373501
vt 5.627757 17.468220
vt 4.432786 26.373501
vt -3.223883 17.468220
vt 5.645774 25.888166
vt -2.010895 16.982885
vt 6.840745 16.982885
vt -0.815923 25.888166
vt -5.611905 4.534009
vt 3.177741 -0.564000
vt 6.332897 4.534009
vt -2.882289 13.463492
vt 1.293814 -0.713165
vt 3.939958 13.463492
vt -2.791617 21.385378
vt 0.006380 14.040382
vt 2.804377 21.385378
vt 2.010895 16.979919
vt -5.645774 25.885201
vt -6.840745 16.979919
vt -3.914367 25.885201
vt 1.056322 24.093679
vt 3.753956 11.198614
vt -2.570656 11.198614
vt 1.231885 3.974323
vt -6.191129 12.127272
vt -2.094577 8.790273
vt 2.001975 12.127272
vt -2.017860 -7.684191
vt -2.017860 3.507797
vt -5.248709 -2.088197
vt 1.212988 -7.684191
vt -0.286454 3.507797
vt 6.808982 -0.588754
vt 6.059261 -4.886194
vt 7.674685 -2.088197
vt -9.882313 -9.477813
vt -9.882313 9.477813
vt -15.354331 0.000000
vt -7.638652 -2.088197
vt -4.229435 -13.297240
vt -3.212832 -9.753942
vt 7.677166 -13.297240
vt 5.638808 -9.753942
vt 10.064629 -2.088197
vt 13.301668 -3.555316
vt -3.212832 5.577549
vt 1.435384 13.297240
vt 5.638808 5.577549
vt 7.677166 13.297240
vt 13.765302 2.752280
vn 0.0000 0.1908 0.9816
vn 0.8501 0.1908 0.4908
vn -0.0000 0.2324 -0.9726
vn -0.8501 0.1908 0.4908
vn 0.8423 0.2324 0.4863
vn 0.8501 0.1908 -0.4908
vn 0.0000 0.1908 -0.9816
vn 0.0000 0.2324 0.9726
vn 0.0000 -1.0000 0.0000
vn -0.8501 0.1908 -0.4908
vn -0.8423 0.2324 -0.4863
vn -0.8423 0.2324 0.4863
vn -0.2207 0.7235 -0.6541
vn -0.5252 0.3462 0.7773
vn 0.4428 0.4643 0.7670
vn 0.8423 0.2324 -0.4863
vn 0.8919 0.4475 0.0656
vn 0.2611 0.8528 -0.4522
vn 0.0000 1.0000 0.0000
usemtl natureKit-wood
s off
f 1/1/1 15/2/1 2/3/1
f 15/2/1 1/1/1 22/4/1
f 22/4/1 1/1/1 31/5/1
f 17/6/2 1/7/2 2/8/2
f 1/7/2 17/6/2 34/9/2
f 34/9/2 17/6/2 3/10/2
f 27/11/3 24/12/3 4/13/3
f 24/12/3 27/11/3 25/14/3
f 25/14/3 27/11/3 5/15/3
f 22/16/4 16/17/4 15/18/4
f 16/17/4 22/16/4 6/19/4
f 16/17/4 6/19/4 18/20/4
f 33/21/5 7/22/5 8/23/5
f 7/22/5 33/21/5 23/24/5
f 23/24/5 33/21/5 9/25/5
f 11/26/6 3/27/6 17/28/6
f 3/27/6 11/26/6 26/29/6
f 26/29/6 11/26/6 10/30/6
f 19/31/7 11/32/7 12/33/7
f 11/32/7 19/31/7 10/34/7
f 10/34/7 19/31/7 21/35/7
f 7/36/8 32/37/8 8/38/8
f 32/37/8 7/36/8 13/39/8
f 13/39/8 7/36/8 14/40/8
f 12/41/9 15/42/9 16/43/9
f 15/42/9 12/41/9 11/44/9
f 15/42/9 11/44/9 2/45/9
f 2/45/9 11/44/9 17/46/9
f 30/47/10 16/48/10 18/49/10
f 16/48/10 30/47/10 12/50/10
f 12/50/10 30/47/10 19/51/10
f 27/52/11 20/53/11 28/54/11
f 20/53/11 27/52/11 4/55/11
f 13/56/12 20/57/12 32/58/12
f 20/57/12 13/56/12 28/59/12
f 21/60/13 19/61/13 30/62/13
f 6/63/14 22/64/14 31/65/14
f 14/66/15 7/67/15 23/68/15
f 24/69/16 9/70/16 33/71/16
f 9/70/16 24/69/16 29/72/16
f 29/72/16 24/69/16 25/73/16
f 26/74/17 34/75/17 3/76/17
s 1
f 29/77/18 25/78/18 5/79/18
usemtl natureKit-leavesGreen
s off
f 13/80/19 27/81/19 28/82/19
f 27/81/19 13/80/19 14/83/19
f 27/81/19 14/83/19 5/84/19
f 5/84/19 14/83/19 29/85/19
f 29/85/19 14/83/19 23/86/19
f 29/85/19 23/86/19 9/87/19
f 6/88/19 30/89/19 18/90/19
f 30/89/19 6/88/19 20/91/19
f 20/91/19 6/88/19 31/92/19
f 20/91/19 31/92/19 32/93/19
f 32/93/19 31/92/19 1/94/19
f 32/93/19 1/94/19 8/95/19
f 8/95/19 1/94/19 33/96/19
f 33/96/19 1/94/19 34/97/19
f 4/98/19 30/89/19 20/91/19
f 30/89/19 4/98/19 21/99/19
f 21/99/19 4/98/19 24/100/19
f 21/99/19 24/100/19 10/101/19
f 10/101/19 24/100/19 33/96/19
f 10/101/19 33/96/19 26/102/19
f 26/102/19 33/96/19 34/97/19
