# Blender v2.79 (sub 0) OBJ File: 'Fixing models.blend'
# www.blender.org
mtllib rock_small1.mtl
o rock_small1
v -1.274651 0.000000 1.804000
v -0.524880 1.912240 0.802612
v -1.804000 0.000000 0.000000
v 1.143182 0.000000 1.804000
v 0.647541 1.912240 -0.106847
v 0.106935 1.912240 -0.494759
v 1.804000 -0.000000 -0.509544
v -0.675870 1.912240 0.288046
v -0.000000 -0.000000 -1.804000
v 0.387772 1.912240 0.802611
vt 4.231325 14.421980
vt -13.908844 -9.132125
vt 12.474264 -9.132125
vt -5.727435 14.421980
vt 0.000000 19.685040
vt 13.908844 -19.685040
vt 19.685040 0.000000
vt -12.474264 -19.685040
vt -19.685040 5.560080
vt 10.752698 -8.072532
vt -7.259102 15.481574
vt -15.502042 -8.072532
vt 3.061692 15.481574
vt 6.791078 14.791431
vt -5.542512 -8.762673
vt 14.972487 -8.762673
vt 0.939464 14.791431
vt 2.199376 16.134455
vt -12.752179 -7.419651
vt 11.476218 -7.419651
vt 7.437449 17.096718
vt -13.919425 -6.457387
vt 13.919425 -6.457387
vt -4.642582 17.096718
vt -5.061173 16.134455
vt -5.727435 -8.758008
vt 1.166860 5.398744
vt -7.375012 -3.143129
vt 4.231325 -8.758008
vt 7.065896 1.165902
vn 0.0000 0.4639 0.8859
vn 0.0000 -1.0000 0.0000
vn 0.8518 0.4639 0.2433
vn -0.8500 0.4639 0.2494
vn 0.5165 0.4639 -0.7198
vn -0.6264 0.4639 -0.6264
vn -0.0000 1.0000 -0.0000
usemtl natureKit-wood
s off
f 10/1/1 1/2/1 4/3/1
f 1/2/1 10/1/1 2/4/1
f 9/5/2 1/6/2 3/7/2
f 1/6/2 9/5/2 4/8/2
f 4/8/2 9/5/2 7/9/2
f 7/10/3 10/11/3 4/12/3
f 10/11/3 7/10/3 5/13/3
f 2/14/4 3/15/4 1/16/4
f 3/15/4 2/14/4 8/17/4
f 6/18/5 7/19/5 9/20/5
f 8/21/6 9/22/6 3/23/6
f 9/22/6 8/21/6 6/24/6
s 1
f 7/19/5 6/18/5 5/25/5
usemtl natureKit-leavesGreen
s off
f 2/26/7 6/27/7 8/28/7
f 6/27/7 2/26/7 10/29/7
f 6/27/7 10/29/7 5/30/7
