# Blender v2.79 (sub 0) OBJ File: 'Fixing models.blend'
# www.blender.org
mtllib rock_smallFlat3.mtl
o rock_smallFlat3
v 1.658930 -0.000000 -1.209487
v 0.992577 0.000000 1.801732
v -0.776520 0.000000 1.177013
v 0.873468 0.649440 1.585524
v -2.351893 -0.000000 -0.007107
v -0.721590 -0.000000 -1.801732
v -0.678294 0.324720 -1.693629
v -1.483233 0.649440 1.217246
v -1.164722 0.419486 1.373078
v -1.906065 0.000000 1.328358
v -1.262586 0.000000 1.488448
v 2.351893 0.000000 0.346125
v 1.471567 0.649440 0.945057
v 2.169597 0.419486 0.319297
v -1.677337 0.649440 1.168955
v -2.069666 0.649440 -0.006254
v -0.024095 0.649440 -1.433539
v -1.058298 0.649440 -1.119561
v -0.966570 0.649440 1.217246
v -0.683337 0.649440 1.035771
v 1.459858 0.649440 -1.064349
v 1.983595 0.649440 0.111372
vt 2.840905 7.093435
vt 7.504192 -5.229757
vt 9.259422 0.027982
vt 4.970810 -5.860033
vt 3.057164 -4.633910
vt -3.907782 -7.093435
vt -6.531220 4.761759
vt -9.259422 -1.362698
vt 6.046739 -1.320639
vt -1.178952 1.316677
vt -1.339718 -1.320639
vt 5.321130 1.316677
vt -1.548778 -2.842968
vt 0.618273 -4.992492
vt 2.706394 -2.842968
vt -4.465163 2.334308
vt -7.346805 -0.236789
vt -5.074049 -0.236789
vt -6.777351 1.423931
vt -5.789506 2.334308
vt -0.460906 0.576914
vt 6.205395 -2.109646
vt 5.460748 0.576914
vt -3.340180 -2.109646
vt -3.139769 -0.766366
vt -5.839502 -0.571806
vt -4.585521 -1.665435
vt -3.805393 -0.571806
vt 3.399132 -4.939538
vt 3.713431 -3.551302
vt -0.138410 -3.551302
vt -3.144754 -0.382387
vt -6.019593 -2.118029
vt -3.408986 -2.118029
vt -5.297242 0.569059
vt -4.509759 0.569059
vt 1.234887 0.103201
vt 5.323784 -2.615383
vt 4.911137 -0.859398
vt 1.692070 -2.748779
vt -4.624035 -0.987299
vt -5.012560 -2.748779
vt -3.578292 -0.021689
vt 1.489021 -0.021689
vt 2.274244 -0.575758
vt -2.958614 -3.340909
vt 2.584368 -3.340909
vt -2.603580 -0.575758
vt 4.201261 -0.399617
vt -5.188391 -1.731027
vt 4.469426 -1.731027
vt -4.565784 0.931794
vt 1.454643 0.931794
vt -2.215157 0.103201
vt -2.517223 -2.615383
vt -6.603689 -4.602186
vt -4.166526 4.407720
vt -8.148292 0.024624
vt -5.839502 -4.792307
vt -3.805393 -4.792307
vt -0.094860 5.643853
vt -2.690305 -4.077840
vt 3.438848 -6.242223
vt 5.747474 4.190348
vt 5.793570 -3.720698
vt 7.809431 -0.438475
vn 0.0000 -1.0000 0.0000
vn -0.3228 0.2451 0.9142
vn -0.1728 0.8039 -0.5691
vn 0.5365 0.1051 0.8373
vn -0.7044 0.3070 -0.6399
vn 0.0000 0.5610 0.8278
vn 0.5557 0.7581 0.3413
vn -0.2297 0.3076 0.9234
vn -0.2297 0.3075 0.9234
vn 0.6874 0.3398 0.6419
vn 0.8564 0.3478 -0.3815
vn -0.8771 0.3808 0.2928
vn 0.2318 0.2793 -0.9318
vn 0.0000 1.0000 -0.0000
usemtl natureKit-wood
s off
f 6/1/1 10/2/1 5/3/1
f 10/2/1 6/1/1 11/4/1
f 11/4/1 6/1/1 3/5/1
f 3/5/1 6/1/1 2/6/1
f 2/6/1 6/1/1 1/7/1
f 2/6/1 1/7/1 12/8/1
f 2/9/2 20/10/2 3/11/2
f 20/10/2 2/9/2 4/12/2
f 17/13/3 7/14/3 18/15/3
f 20/16/4 11/17/4 3/18/4
f 11/17/4 20/16/4 9/19/4
f 9/19/4 20/16/4 19/20/4
f 18/21/5 5/22/5 16/23/5
f 5/22/5 18/21/5 6/24/5
f 6/24/5 18/21/5 7/25/5
f 8/26/6 9/27/6 19/28/6
f 14/29/7 22/30/7 13/31/7
f 9/32/8 10/33/8 11/34/8
f 10/33/9 9/32/9 15/35/9
f 15/35/9 9/32/9 8/36/9
f 13/37/10 12/38/10 14/39/10
f 1/40/11 14/41/11 12/42/11
f 14/41/11 1/40/11 22/43/11
f 22/43/11 1/40/11 21/44/11
f 15/45/12 5/46/12 10/47/12
f 5/46/12 15/45/12 16/48/12
f 7/49/13 1/50/13 6/51/13
f 1/50/13 7/49/13 21/52/13
f 21/52/13 7/49/13 17/53/13
s 1
f 12/38/10 4/54/10 2/55/10
f 4/54/10 12/38/10 13/37/10
usemtl natureKit-leavesGreen
s off
f 15/56/14 18/57/14 16/58/14
f 18/57/14 15/56/14 8/59/14
f 18/57/14 8/59/14 19/60/14
f 18/57/14 19/60/14 17/61/14
f 17/61/14 19/60/14 20/62/14
f 17/61/14 20/62/14 4/63/14
f 17/61/14 4/63/14 21/64/14
f 21/64/14 4/63/14 13/65/14
f 21/64/14 13/65/14 22/66/14
