# Blender v2.79 (sub 0) OBJ File: 'Fixing models.blend'
# www.blender.org
mtllib rock_small6.mtl
o rock_small6
v -1.009029 1.154560 -0.000000
v -0.504515 1.154560 0.873845
v 0.504515 1.154560 -0.873845
v 0.314666 2.453440 -0.545018
v -0.883960 0.000000 1.531064
v 1.767920 -0.000000 -0.000000
v -1.613040 0.505731 0.000000
v 0.849358 0.225973 1.471131
v 0.883960 0.000000 1.531063
v 0.929742 1.154560 0.839341
v 1.414336 1.154560 -0.000000
v -0.707168 1.154560 1.224851
v -1.767920 0.000000 0.000000
v -1.171438 1.154560 0.420711
v -0.707168 1.154560 -1.224851
v 0.883960 -0.000000 -1.531064
v -0.883960 -0.000000 -1.531063
v 0.767095 0.763197 -1.328649
v 0.262020 1.154560 -1.224851
v -0.629332 2.453440 -0.000000
v -0.426088 2.453440 -0.352028
v -0.442316 1.580105 -0.766113
v 0.504515 1.154560 0.873845
v 0.629332 2.453440 -0.000001
v 0.314666 2.453440 0.545017
v -0.314666 2.453440 0.545017
v -0.504515 1.154560 -0.873845
v 1.009029 1.154560 -0.000000
v 0.071961 2.453440 -0.545018
v -1.244615 1.154560 -0.293965
v 0.262020 1.154560 1.224851
v 0.849358 1.154560 -0.978571
vt -7.716536 -13.365432
vt -11.010412 0.000000
vt -12.782597 -4.590755
vt -5.505206 -9.535296
vt 2.859134 -13.365432
vt 5.505206 -9.535296
vt 10.145236 -9.158798
vt 11.010412 0.000000
vt 15.433071 0.000000
vt -7.716536 13.365432
vt -13.581100 3.207708
vt -5.505206 9.535296
vt 2.859134 13.365432
vt 5.505206 9.535296
vt 9.268095 10.678051
vt -3.433597 -5.947165
vt -4.649426 3.841288
vt -6.867194 0.000000
vt 0.785226 5.947165
vt 3.433597 -5.947165
vt 3.433597 5.947165
vt 6.867194 0.000000
vt 9.645669 16.706789
vt 9.645669 -16.706789
vt 19.291338 0.000000
vt -9.645669 -16.706789
vt -9.645669 16.706789
vt -19.291338 0.000000
vt 4.012593 8.751088
vt 9.645669 -4.282906
vt 8.800652 1.426370
vt -9.645669 -4.282906
vt -7.716536 8.751088
vt 9.645669 -4.282906
vt -9.268095 -1.731866
vt -9.645669 -4.282906
vt -2.859134 8.751088
vt 7.716536 8.751088
vt 7.716536 8.751088
vt -9.645669 -4.282906
vt 9.645669 -4.282906
vt -2.415587 8.751088
vt 9.645669 -4.282906
vt -7.716536 8.751088
vt -9.645669 -4.282906
vt 4.613416 8.751088
vt 8.370458 4.332933
vt 7.716536 8.751088
vt -9.645669 -4.282906
vt 9.645669 -4.282906
vt -8.370458 4.332933
vt -2.859134 8.751088
vt 9.268095 -1.731866
vt -9.645669 -4.282906
vt 9.645669 -4.282906
vt -7.716536 8.751088
vt 2.859134 8.751088
vt 3.433597 24.493338
vt -5.505206 9.872972
vt 5.505206 9.872972
vt -1.001941 24.493338
vt -4.826496 14.662961
vt 5.505206 9.872972
vt -3.433597 24.493338
vt -5.505206 9.872972
vt 3.433597 24.493338
vt 3.433597 24.493338
vt -5.505206 9.872972
vt 5.505206 9.872972
vt -3.433597 24.493338
vt 3.433597 24.493338
vt -5.505206 9.872972
vt 5.505206 9.872972
vt -3.433597 24.493338
vt 4.826496 14.662961
vt -5.505206 9.872972
vt 5.505206 9.872972
vt -3.433597 24.493338
vt -0.785226 24.493338
vt 5.505206 9.872972
vt -3.433597 24.493338
vt -5.505206 9.872972
vt 3.433597 24.493338
vt -2.880970 22.269857
vt 1.479954 11.824282
vt 2.947422 22.269857
vt -4.574392 3.876456
vt -1.792865 -4.420538
vt 3.264846 3.876456
vt -4.206633 4.826392
vt -0.000000 -6.717929
vt 4.206633 4.826392
vt -4.417941 2.094663
vt -2.112951 -3.227223
vt 2.531649 2.094663
vt -8.800652 1.426370
vn -0.0000 1.0000 0.0000
vn 0.0000 -1.0000 0.0000
vn -0.8371 0.2564 -0.4833
vn 0.8371 0.2564 0.4833
vn -0.8371 0.2564 0.4833
vn 0.8371 0.2564 -0.4833
vn -0.0000 0.2564 -0.9666
vn 0.0000 0.2564 0.9666
vn -0.8395 0.2454 -0.4847
vn 0.8395 0.2454 0.4847
vn 0.0000 0.2454 0.9694
vn -0.8395 0.2454 0.4847
vn 0.0000 0.2454 -0.9694
vn 0.8395 0.2454 -0.4847
vn -0.3296 0.4095 -0.8507
vn -0.8489 0.5214 0.0869
vn 0.4389 0.4792 0.7601
vn 0.3103 0.5967 -0.7400
usemtl natureKit-leavesGreen
s off
f 12/1/1 1/2/1 14/3/1
f 1/2/1 12/1/1 2/4/1
f 2/4/1 12/1/1 31/5/1
f 2/4/1 31/5/1 23/6/1
f 23/6/1 31/5/1 10/7/1
f 23/6/1 10/7/1 28/8/1
f 28/8/1 10/7/1 11/9/1
f 15/10/1 14/3/1 1/2/1
f 14/3/1 15/10/1 30/11/1
f 15/10/1 1/2/1 27/12/1
f 15/10/1 27/12/1 19/13/1
f 19/13/1 27/12/1 3/14/1
f 19/13/1 3/14/1 32/15/1
f 32/15/1 3/14/1 28/8/1
f 32/15/1 28/8/1 11/9/1
f 26/16/1 21/17/1 20/18/1
f 21/17/1 26/16/1 29/19/1
f 29/19/1 26/16/1 25/20/1
f 29/19/1 25/20/1 4/21/1
f 4/21/1 25/20/1 24/22/1
usemtl natureKit-wood
f 17/23/2 5/24/2 13/25/2
f 5/24/2 17/23/2 9/26/2
f 9/26/2 17/23/2 16/27/2
f 9/26/2 16/27/2 6/28/2
f 30/29/3 13/30/3 7/31/3
f 13/30/3 30/29/3 17/32/3
f 17/32/3 30/29/3 15/33/3
f 6/34/4 8/35/4 9/36/4
f 8/35/4 6/34/4 10/37/4
f 10/37/4 6/34/4 11/38/4
f 12/39/5 13/40/5 5/41/5
f 13/40/5 12/39/5 14/42/5
f 16/43/6 11/44/6 6/45/6
f 11/44/6 16/43/6 32/46/6
f 32/46/6 16/43/6 18/47/6
f 15/48/7 16/49/7 17/50/7
f 16/49/7 15/48/7 18/51/7
f 18/51/7 15/48/7 19/52/7
f 8/53/8 5/54/8 9/55/8
f 5/54/8 8/53/8 12/56/8
f 12/56/8 8/53/8 31/57/8
f 20/58/9 27/59/9 1/60/9
f 27/59/9 20/58/9 21/61/9
f 27/59/9 21/61/9 22/62/9
f 28/63/10 25/64/10 23/65/10
f 25/64/10 28/63/10 24/66/10
f 25/67/11 2/68/11 23/69/11
f 2/68/11 25/67/11 26/70/11
f 26/71/12 1/72/12 2/73/12
f 1/72/12 26/71/12 20/74/12
f 22/75/13 3/76/13 27/77/13
f 3/76/13 22/75/13 4/78/13
f 4/78/13 22/75/13 29/79/13
f 3/80/14 24/81/14 28/82/14
f 24/81/14 3/80/14 4/83/14
f 29/84/15 22/85/15 21/86/15
f 30/87/16 7/88/16 14/89/16
f 31/90/17 8/91/17 10/92/17
f 32/93/18 18/94/18 19/95/18
s 1
f 13/40/5 14/42/5 7/96/5
