# Blender v2.79 (sub 0) OBJ File: 'Fixing models.blend'
# www.blender.org
mtllib rock_tall2.mtl
o rock_tall2
v -0.753043 6.099324 -1.419714
v -1.474941 6.099325 0.563675
v -1.536898 3.211651 0.020236
v 0.246771 8.837797 -0.229544
v -0.057032 8.837797 0.605143
v 0.035594 6.099325 -0.481215
v 1.121532 8.837797 -0.383787
v 1.388689 8.837797 1.131344
v 1.325572 6.099324 -1.786228
v 1.233898 6.099325 -0.692507
v 2.016034 6.099325 0.239608
v 1.599866 6.099325 1.383016
v 1.692492 8.837797 0.296657
v -0.407021 1.767921 2.919677
v -2.432917 0.000001 2.927716
v -1.834781 1.767921 1.950443
v -0.101110 -0.000001 -3.180071
v 0.817466 0.000001 2.539082
v -0.142215 1.767921 2.796196
v -0.138072 1.767921 2.555824
v 0.413303 1.472947 -2.022461
v -0.684664 3.211651 -2.688165
v -0.383244 -0.000001 -3.516306
v -2.023128 3.211651 -0.431610
v 1.446257 2.484108 -2.117808
v -3.302013 -0.000000 -0.398319
v -0.958348 4.525877 1.386240
v -2.726226 4.525876 1.059766
v -2.824650 1.967632 -0.556860
v -2.227601 3.211651 -2.416106
v -2.794082 -0.000001 -3.091213
v 0.031881 -0.000001 -3.915205
v 3.046184 0.000000 -0.537751
v 2.415551 -0.000001 -4.095841
v 1.808610 0.000001 3.507528
v 1.120512 0.000001 2.485647
v 0.802466 0.000001 3.409530
v -0.434024 0.000001 3.986113
v -3.705094 0.000000 1.008574
v 4.074711 0.000000 1.087646
v -3.631360 -0.000000 -0.790820
v 3.138547 3.680161 1.252716
v 3.306467 1.731841 2.839355
v 2.033986 1.731841 2.600558
v 3.549672 0.000001 3.200534
v -2.398594 4.525876 -0.083783
v -2.293616 3.211651 -0.383916
v 1.913618 1.731841 3.084951
v -0.262817 1.767921 2.577820
v 2.112167 3.680161 1.994918
v 2.835526 1.731841 0.489025
v 3.268565 0.000000 -0.272727
v -0.791457 1.767921 1.947810
v 3.400769 -0.000000 -1.448137
v 2.078835 2.484108 -1.363930
v 3.230012 0.000000 -0.166803
v 3.726499 1.731841 1.149045
v 1.778404 1.731841 2.220997
v 1.866553 3.680161 2.038226
v -1.214945 4.525877 1.431484
v -3.504389 0.000000 2.146837
v -2.759860 0.000000 2.226582
v -0.118223 6.099325 2.180552
v -0.380574 6.099325 0.662192
v 0.401562 6.099325 1.594308
v 1.960392 6.099325 1.814039
v 2.682289 6.099325 -0.169351
v 0.513928 8.837797 1.285587
v -1.702741 1.767921 2.233604
v -1.195013 1.767921 2.018967
v -2.763458 3.211651 -0.943854
v -0.934212 3.211651 -1.635623
v 0.052528 3.211651 -1.809611
v 1.379254 1.731841 2.291377
v 3.027687 1.731841 2.425343
v 3.327350 1.731841 1.219425
v 2.992204 1.731840 0.058556
v 2.090922 3.680161 2.371434
v 2.895820 3.680161 2.229509
v 2.647650 3.680161 0.523694
v 1.048620 2.484108 -2.787573
v 0.910360 2.484108 -2.023315
v 1.604970 2.484108 -2.829733
v 2.115434 2.484108 -1.457896
v -2.688512 4.525876 1.273653
v -2.110851 4.525876 -0.134519
v -1.626183 4.525876 0.590343
v -1.551533 4.525876 0.385246
vt 5.943351 33.599648
vt -11.747051 65.221970
vt -13.284804 33.599648
vt -3.274670 96.093643
vt 8.210333 66.050911
vt 6.417875 96.093643
vt -5.067128 66.050911
vt 14.350920 95.432800
vt 2.865917 65.390060
vt 16.143377 65.390060
vt 4.658374 95.432800
vt -3.086771 95.714104
vt -14.571774 65.671364
vt -1.294314 65.671364
vt -12.779317 95.714104
vt 12.779317 94.392403
vt 1.294314 64.349663
vt 14.571774 64.349663
vt 3.086771 94.392403
vt -17.398006 64.330086
vt -16.870918 -2.462373
vt 5.633489 64.330086
vt -3.179899 24.740589
vt 7.558676 24.740589
vt -2.865917 64.630966
vt -14.350920 94.673706
vt -16.143377 64.630966
vt -4.658374 94.673706
vt 5.067128 63.970119
vt -6.417875 94.012856
vt -8.210333 63.970119
vt 3.274670 94.012856
vt -14.301233 4.140630
vt -22.674456 -17.785938
vt -7.787203 -17.785938
vt -17.489487 4.140630
vt 10.983180 2.602085
vt -8.512431 -19.324482
vt 16.168150 -19.324482
vt -5.015233 2.602085
vt 14.237027 4.072924
vt 9.292620 -17.853645
vt 17.734224 -17.853645
vt 10.827781 4.072924
vt -31.968769 26.947344
vt -22.519201 14.691335
vt -23.493912 26.947344
vt -33.949894 -3.161870
vt -42.101803 -3.161870
vt -27.548363 -4.466121
vt -30.533976 17.460447
vt -37.048004 -4.466121
vt -27.910673 17.460447
vt 14.006826 11.558663
vt 27.272602 31.059555
vt 14.758097 31.059555
vt 27.291382 -4.961572
vt 32.080872 -4.961572
vt 12.134585 36.680599
vt 17.871906 51.337116
vt 9.540253 51.337116
vt 19.377520 36.680599
vt -3.993354 33.291103
vt -13.616642 25.323931
vt -8.273594 14.250916
vt -17.629311 64.913429
vt -19.554497 25.323931
vt 5.402186 64.913429
vt 6.939939 33.291103
vt -27.272602 30.285534
vt -24.466915 16.332905
vt -19.296602 30.285534
vt -32.080872 -5.735593
vt -26.489908 -5.735593
vt 17.398006 64.947174
vt 10.730446 17.514845
vt 19.704580 17.514845
vt 4.865706 47.716656
vt -5.633489 64.947174
vt -6.471387 47.716656
vt 6.329826 43.074215
vt 21.715015 -7.399328
vt 19.310131 43.074215
vt 5.745509 -7.399328
vt 2.647781 14.544128
vt 32.695236 -17.539797
vt 6.859509 12.569418
vt 1.868464 -17.539797
vt 22.831589 12.569418
vt 19.359962 27.116886
vt -2.544369 -8.904242
vt 24.168230 -8.904242
vt 2.263899 27.116886
vt -13.708178 11.575105
vt -29.660049 -18.534109
vt -3.575144 -18.534109
vt -19.796402 11.575105
vt -39.288986 9.118007
vt -33.753563 0.006769
vt -33.718643 39.437328
vt -32.080730 -41.119267
vt -12.789393 -41.119267
vt -7.761194 42.012814
vt -7.331303 -28.834196
vt -4.939113 34.364971
vt -3.973484 -28.834196
vt -2.544369 38.512791
vt -2.162958 -38.159710
vt 12.217025 -42.012814
vt 24.168230 38.512791
vt 31.691870 -26.851631
vt 33.876717 -18.697668
vt 34.729050 10.537086
vt 37.524529 15.379001
vt -35.026119 -4.327797
vt -35.641121 -3.262581
vt 41.726402 -16.429972
vt 41.726402 -3.817780
vt -41.726402 -19.408794
vt -16.460672 26.729876
vt 5.443659 -9.291252
vt 0.635391 26.729876
vt -21.268940 -9.291252
vt -21.707979 16.790005
vt -30.467100 38.135632
vt -31.316483 16.790005
vt 30.151598 10.182059
vt 12.789393 -9.208003
vt 32.080730 -9.208003
vt 14.718527 10.182059
vt 26.894279 36.672501
vt 16.929855 15.282697
vt 27.940269 15.282697
vt 17.975845 36.672501
vt -4.157558 15.378430
vt -15.989748 36.724056
vt -17.716581 15.378430
vt -5.006939 36.724056
vt -0.795354 -8.439429
vt -21.367287 10.784330
vt -24.552113 -8.439429
vt -2.361880 10.784330
vt 25.616798 47.197193
vt 23.919992 32.540676
vt 29.298843 18.667105
vt 20.922932 32.540676
vt 22.428545 47.197193
vt 8.592581 41.857670
vt 3.817780 -8.615874
vt 16.429972 -8.615874
vt 6.222664 41.857670
vt 39.585361 18.305328
vt 29.327208 -0.918431
vt 42.770187 -0.918431
vt 29.145800 18.305328
vt 16.196112 37.872055
vt 10.479878 16.536400
vt 14.902536 16.536400
vt -6.326559 16.931503
vt -7.708759 16.931503
vt -5.402186 64.363831
vt 18.917570 37.872055
vt 17.629311 64.363831
vt 3.973484 -2.428630
vt 7.331303 -2.428630
vt 4.511420 37.563515
vt -11.284445 64.055290
vt -12.572705 37.563515
vt 11.747051 64.055290
vt 5.568077 16.227858
vt 10.566768 16.227858
vt 13.765077 -2.737172
vt 14.995083 -2.737172
vt -12.925183 45.620564
vt -16.667307 14.863249
vt -12.195827 14.863249
vt 28.192410 -12.556764
vt 22.100988 17.552450
vt 17.531473 -12.556764
vt 23.201365 17.552450
vt -18.176254 -5.548684
vt -33.112160 13.675076
vt -34.678684 -5.548684
vt -18.766644 13.675076
vt 34.207821 40.396626
vt 30.941479 19.050997
vt 35.934654 19.050997
vt 29.824434 40.396626
vt -35.527145 -5.650518
vt -17.640423 14.065709
vt -27.689753 44.823025
vt -27.356466 -5.650518
vt 12.122343 47.991451
vt 11.284445 65.221970
vt 9.740714 47.991451
vt -20.646038 -2.462373
vt -20.876730 38.135632
vt -15.768328 45.620564
vt -11.518397 44.823025
vt -10.619418 14.065709
vt -5.402186 -23.208441
vt -5.402186 16.683281
vt -16.917934 -3.262581
vt -5.344416 -6.394876
vt 1.294314 -17.893494
vt 17.629311 -23.208441
vt 14.571774 -17.893494
vt 21.210505 -6.394876
vt 29.145058 -3.262581
vt 1.294314 5.103742
vt 17.629311 16.683281
vt 14.571774 5.103742
vt 3.086771 -14.788866
vt 3.086771 1.999115
vt -1.759501 -6.394876
vt 12.779317 -14.788866
vt 12.779317 1.999115
vt 17.625589 -6.394876
vt -22.530106 -20.776178
vt -16.667307 -19.431715
vt -23.412483 -17.483099
vt -9.906147 -30.603941
vt -12.195827 -19.431715
vt -7.708759 -27.203543
vt -6.826531 -29.778761
vt -6.326559 -27.203543
vt -23.919992 8.471582
vt -19.359962 30.184626
vt -27.907993 15.379001
vt -20.922932 8.471582
vt -16.554016 2.694675
vt -2.263899 30.184626
vt -6.939939 19.346746
vt 3.993354 19.346746
vt 14.718527 -36.777172
vt 14.902536 -27.236822
vt 10.479878 -27.236822
vt 16.929855 -31.799911
vt 30.151598 -36.777172
vt 27.940269 -31.799911
vt 33.445477 -19.408794
vt 37.868134 -19.408794
vt 32.043594 -6.298926
vt 29.544250 -10.627919
vt 17.975845 -29.445601
vt 18.917570 -25.439775
vt 16.196112 -25.439775
vt 26.894279 -29.445601
vt 27.459633 -10.644488
vt 31.353497 -19.408794
vt 19.554497 20.017801
vt 16.550524 27.968620
vt 13.616642 20.017801
vt 22.609001 27.367502
vt 24.923784 10.717922
vt 25.495127 11.658345
vt -15.768328 -13.080792
vt -31.304373 -6.222664
vt -31.304373 -8.592581
vt -25.616798 5.445232
vt -22.428545 5.445232
vt -18.593731 -3.262581
vt -12.925183 -13.080792
vt -17.402916 -1.200030
vn -0.9364 0.0842 -0.3408
vn -0.9347 0.1033 -0.3402
vn -0.7619 0.1033 0.6393
vn -0.1727 0.1033 -0.9795
vn 0.1727 0.1033 0.9795
vn 0.7633 0.0842 -0.6405
vn 0.7619 0.1033 -0.6393
vn 0.9347 0.1033 0.3402
vn 0.3718 0.4753 0.7974
vn -0.4117 0.4753 0.7775
vn -0.7974 0.4753 0.3718
vn -0.8859 0.4353 -0.1603
vn 0.8797 0.4753 0.0152
vn 0.7453 0.2312 -0.6254
vn 0.6661 0.2065 -0.7167
vn -0.1730 0.0842 -0.9813
vn -0.7453 0.2312 0.6254
vn -0.7633 0.0842 0.6405
vn -0.9406 0.2065 -0.2695
vn 0.8437 0.4353 -0.3140
vn -0.1689 0.2312 -0.9581
vn -0.0680 0.4353 -0.8977
vn 0.0000 -1.0000 0.0000
vn -0.9142 0.2312 -0.3328
vn 0.8261 0.0896 -0.5563
vn 0.1692 0.2239 0.9598
vn 0.1726 0.1101 0.9788
vn 0.9666 0.0896 0.2402
vn 0.9540 0.1834 0.2371
vn -0.1699 0.2065 -0.9636
vn -0.9636 0.2065 0.1699
vn -0.8154 0.1834 0.5491
vn 0.1730 0.0842 0.9813
vn 0.9364 0.0842 0.3408
vn 0.1699 0.2065 0.9636
vn 0.8389 0.4353 0.3267
vn 0.8154 0.1834 -0.5491
vn -0.8261 0.0896 0.5563
vn -0.1042 0.2065 0.9729
vn -0.0890 0.2069 0.9743
vn 0.0332 0.2085 0.9775
vn -0.0000 1.0000 -0.0000
usemtl natureKit-wood
s off
f 3/1/1 1/2/1 72/3/1
f 4/4/2 64/5/2 5/6/2
f 64/5/2 4/4/2 6/7/2
f 68/8/3 64/9/3 65/10/3
f 64/9/3 68/8/3 5/11/3
f 4/12/4 10/13/4 6/14/4
f 10/13/4 4/12/4 7/15/4
f 8/16/5 65/17/5 12/18/5
f 65/17/5 8/16/5 68/19/5
f 67/20/6 33/21/6 9/22/6
f 9/22/6 33/21/6 55/23/6
f 9/22/6 55/23/6 25/24/6
f 10/25/7 13/26/7 11/27/7
f 13/26/7 10/25/7 7/28/7
f 11/29/8 8/30/8 12/31/8
f 8/30/8 11/29/8 13/32/8
f 19/33/9 38/34/9 37/35/9
f 38/34/9 19/33/9 14/36/9
f 14/37/10 15/38/10 38/39/10
f 15/38/10 14/37/10 69/40/10
f 69/41/11 62/42/11 15/43/11
f 62/42/11 69/41/11 16/44/11
f 81/45/12 21/46/12 82/47/12
f 21/46/12 81/45/12 17/48/12
f 17/48/12 81/45/12 32/49/12
f 18/50/13 19/51/13 37/52/13
f 19/51/13 18/50/13 20/53/13
f 21/54/14 22/55/14 73/56/14
f 22/55/14 21/54/14 17/57/14
f 22/55/14 17/57/14 23/58/14
f 3/59/15 86/60/15 88/61/15
f 86/60/15 3/59/15 24/62/15
f 73/63/16 82/64/16 21/65/16
f 9/66/16 82/64/16 73/63/16
f 82/64/16 9/66/16 25/67/16
f 9/66/16 73/63/16 1/68/16
f 1/68/16 73/63/16 72/69/16
f 71/70/17 29/71/17 47/72/17
f 41/73/17 29/71/17 71/70/17
f 29/71/17 41/73/17 26/74/17
f 63/75/18 53/76/18 49/77/18
f 53/76/18 63/75/18 27/78/18
f 27/78/18 63/75/18 2/79/18
f 27/78/18 2/79/18 87/80/18
f 46/81/19 39/82/19 28/83/19
f 39/82/19 46/81/19 26/84/19
f 26/84/19 46/81/19 29/85/19
f 34/86/20 84/87/20 54/88/20
f 84/87/20 34/86/20 83/89/20
f 30/90/21 23/91/21 31/92/21
f 23/91/21 30/90/21 22/93/21
f 81/94/22 34/95/22 32/96/22
f 34/95/22 81/94/22 83/97/22
f 54/98/23 33/99/23 34/100/23
f 45/101/23 34/100/23 33/99/23
f 35/102/23 34/100/23 45/101/23
f 35/102/23 32/103/23 34/100/23
f 36/104/23 32/103/23 35/102/23
f 36/104/23 17/105/23 32/103/23
f 18/106/23 17/105/23 36/104/23
f 18/106/23 23/107/23 17/105/23
f 37/108/23 23/107/23 18/106/23
f 38/109/23 23/107/23 37/108/23
f 38/109/23 31/110/23 23/107/23
f 15/111/23 31/110/23 38/109/23
f 62/112/23 31/110/23 15/111/23
f 26/113/23 31/110/23 62/112/23
f 31/110/23 26/113/23 41/114/23
f 45/101/23 33/99/23 56/115/23
f 52/116/23 56/115/23 33/99/23
f 61/117/23 26/113/23 62/112/23
f 26/113/23 61/117/23 39/118/23
f 45/101/23 56/115/23 40/119/23
f 30/120/24 41/121/24 71/122/24
f 41/121/24 30/120/24 31/123/24
f 51/124/25 42/125/25 76/126/25
f 43/127/26 35/128/26 45/129/26
f 35/128/26 43/127/26 48/130/26
f 79/131/27 44/132/27 75/133/27
f 44/132/27 79/131/27 78/134/27
f 76/135/28 79/136/28 75/137/28
f 79/136/28 76/135/28 42/138/28
f 40/139/29 43/140/29 45/141/29
f 43/140/29 40/139/29 57/142/29
f 46/143/30 47/144/30 29/145/30
f 47/144/30 46/143/30 24/146/30
f 24/146/30 46/143/30 86/147/30
f 85/148/31 39/149/31 61/150/31
f 39/149/31 85/148/31 28/151/31
f 48/152/32 36/153/32 35/154/32
f 36/153/32 48/152/32 74/155/32
f 59/156/33 74/157/33 58/158/33
f 74/157/33 59/156/33 20/159/33
f 20/159/33 59/156/33 49/160/33
f 49/160/33 59/156/33 63/161/33
f 63/161/33 59/156/33 50/162/33
f 63/161/33 50/162/33 66/163/33
f 18/164/33 74/157/33 20/159/33
f 74/157/33 18/164/33 36/165/33
f 80/166/34 66/167/34 50/168/34
f 66/167/34 80/166/34 67/169/34
f 67/169/34 80/166/34 51/170/34
f 67/169/34 51/170/34 77/171/34
f 67/169/34 77/171/34 56/172/34
f 67/169/34 56/172/34 52/173/34
f 27/174/35 70/175/35 53/176/35
f 54/177/36 55/178/36 33/179/36
f 55/178/36 54/177/36 84/180/36
f 56/181/37 57/182/37 40/183/37
f 57/182/37 56/181/37 77/184/37
f 78/185/38 58/186/38 44/187/38
f 58/186/38 78/185/38 59/188/38
f 61/189/39 16/190/39 85/191/39
f 16/190/39 61/189/39 62/192/39
s 1
f 1/2/1 87/193/1 2/194/1
f 87/193/1 1/2/1 88/195/1
f 88/195/1 1/2/1 3/1/1
f 33/21/6 67/20/6 52/196/6
f 42/125/25 51/124/25 80/197/25
f 70/175/40 27/174/35 60/198/41
f 60/199/41 16/190/39 70/200/40
f 85/191/39 16/190/39 60/199/41
usemtl natureKit-leavesGreen
s off
f 63/201/42 1/202/42 2/203/42
f 1/202/42 63/201/42 64/204/42
f 64/204/42 63/201/42 65/205/42
f 65/205/42 63/201/42 66/206/42
f 65/205/42 66/206/42 12/207/42
f 12/207/42 66/206/42 11/208/42
f 11/208/42 66/206/42 67/209/42
f 6/210/42 1/202/42 64/204/42
f 1/202/42 6/210/42 9/211/42
f 9/211/42 11/208/42 67/209/42
f 9/211/42 6/210/42 10/212/42
f 9/211/42 10/212/42 11/208/42
f 68/213/42 4/214/42 5/215/42
f 4/214/42 68/213/42 8/216/42
f 4/214/42 8/216/42 7/217/42
f 7/217/42 8/216/42 13/218/42
f 69/219/42 70/220/42 16/221/42
f 70/220/42 69/219/42 14/222/42
f 70/220/42 14/222/42 53/223/42
f 53/223/42 14/222/42 49/224/42
f 49/224/42 14/222/42 19/225/42
f 49/224/42 19/225/42 20/226/42
f 47/227/42 30/228/42 71/229/42
f 30/228/42 47/227/42 24/230/42
f 30/228/42 24/230/42 3/231/42
f 30/228/42 3/231/42 22/232/42
f 22/232/42 3/231/42 72/233/42
f 22/232/42 72/233/42 73/234/42
f 48/235/42 58/236/42 74/237/42
f 58/236/42 48/235/42 44/238/42
f 44/238/42 48/235/42 43/239/42
f 44/238/42 43/239/42 75/240/42
f 75/240/42 43/239/42 76/241/42
f 76/241/42 43/239/42 57/242/42
f 77/243/42 76/241/42 57/242/42
f 76/241/42 77/243/42 51/244/42
f 78/245/42 50/246/42 59/247/42
f 50/246/42 78/245/42 79/248/42
f 50/246/42 79/248/42 80/249/42
f 80/249/42 79/248/42 42/250/42
f 25/251/42 81/252/42 82/253/42
f 81/252/42 25/251/42 83/254/42
f 83/254/42 25/251/42 55/255/42
f 83/254/42 55/255/42 84/256/42
f 60/257/42 28/258/42 85/259/42
f 28/258/42 60/257/42 46/260/42
f 46/260/42 60/257/42 86/261/42
f 86/261/42 60/257/42 87/262/42
f 87/262/42 60/257/42 27/263/42
f 88/264/42 86/261/42 87/262/42
