# Blender v2.79 (sub 0) OBJ File: 'Fixing models.blend'
# www.blender.org
mtllib stone_smallFlat1.mtl
o stone_smallFlat1
v 1.307282 0.000000 2.147887
v 2.478949 0.000000 0.200091
v 1.150408 0.649440 1.890140
v 2.181475 0.649440 0.176080
v -0.973056 0.649440 -1.293322
v -1.105746 -0.000000 -1.469684
v -1.362637 0.000000 2.147887
v 0.862990 -0.000000 -2.147887
v 0.759431 0.649440 -1.890141
v -2.181475 0.649440 -0.417771
v -1.199121 0.649440 1.890140
v -2.478949 -0.000000 -0.474740
vt 12.065767 16.037029
vt 14.868946 -23.437492
vt 27.050005 5.180312
vt -14.264913 -23.437492
vt -9.416848 23.437492
vt -27.050005 -2.183372
vt -13.084672 -20.624992
vt -10.617876 14.112585
vt -23.804005 4.558674
vt 12.553123 -20.624992
vt 8.286826 20.624992
vt 23.804005 -1.921367
vt -16.537012 -5.873231
vt 5.442409 1.574534
vt -14.552570 1.574534
vt 12.553123 -1.021425
vt -14.868946 -8.645745
vt 14.264913 -8.645745
vt -13.084672 -1.021425
vt 12.072305 -9.250226
vt -11.203144 -1.586898
vt -12.730845 -9.250226
vt 10.623628 -1.586898
vt 13.968073 -7.064379
vt -15.078175 0.458763
vt -17.134289 -7.064379
vt 12.291903 0.458763
vt 16.601473 1.028987
vt 0.361374 -6.455536
vt 18.865311 -6.455536
vt 13.852865 -0.653486
vt -15.360470 -8.252529
vt 15.741893 -8.252529
vt -13.517213 -0.653486
vt 6.184556 -5.873231
vt 0.318009 1.028987
vn -0.0000 -1.0000 0.0000
vn 0.0000 1.0000 -0.0000
vn -0.3099 0.3076 -0.8996
vn 0.0000 0.3689 0.9295
vn 0.7924 0.3806 0.4767
vn 0.7760 0.3357 -0.5340
vn -0.5555 0.3217 -0.7667
vn -0.8581 0.3610 0.3652
usemtl natureKit-stone
s off
f 6/1/1 7/2/1 12/3/1
f 7/2/1 6/1/1 1/4/1
f 1/4/1 6/1/1 8/5/1
f 1/4/1 8/5/1 2/6/1
f 11/7/2 5/8/2 10/9/2
f 5/8/2 11/7/2 3/10/2
f 5/8/2 3/10/2 9/11/2
f 9/11/2 3/10/2 4/12/2
f 8/13/3 5/14/3 9/15/3
f 3/16/4 7/17/4 1/18/4
f 7/17/4 3/16/4 11/19/4
f 2/20/5 3/21/5 1/22/5
f 3/21/5 2/20/5 4/23/5
f 8/24/6 4/25/6 2/26/6
f 4/25/6 8/24/6 9/27/6
f 10/28/7 6/29/7 12/30/7
f 11/31/8 12/32/8 7/33/8
f 12/32/8 11/31/8 10/34/8
s 1
f 5/14/3 8/13/3 6/35/3
f 6/29/7 10/28/7 5/36/7
