# Blender v2.79 (sub 0) OBJ File: 'Fixing models.blend'
# www.blender.org
mtllib stone_tall4.mtl
o stone_tall4
v -0.892164 5.159440 0.128911
v -0.371799 7.721119 0.682506
v 0.995408 7.721119 0.860071
v -0.015175 7.721119 1.014222
v 1.328509 5.159440 0.904383
v 2.214182 0.000000 0.190387
v 0.828364 0.000000 2.307410
v 2.214182 0.000000 1.507307
v 0.497019 5.159440 1.384445
v -0.455819 5.159440 0.980016
v -2.214182 -0.000000 -1.203655
v -0.302425 -0.000000 -2.307410
v -0.759699 0.000000 1.633362
v 1.328509 5.159440 0.114231
v -0.559063 7.721119 0.317240
v 0.413365 7.721119 1.196114
v -1.328509 5.159440 -0.722194
v -0.749176 5.159440 -1.056673
v 0.311479 5.159440 -0.895198
v -0.225128 3.296751 -1.717660
v -0.345387 6.558529 0.943422
vt 4.618106 84.362373
vt -16.939548 56.399776
vt 8.727163 56.399776
vt -13.348591 84.362373
vt -2.077482 -4.087686
vt -9.868536 53.035000
vt -16.447561 -4.087686
vt -1.246489 53.035000
vt 3.300023 25.178185
vt 8.289751 -17.823055
vt 24.160898 13.134152
vt -9.039014 -25.178185
vt -24.160898 -2.077482
vt -24.160898 -16.447561
vt -9.735194 -1.406671
vt -8.174919 11.530280
vt -14.496539 7.880492
vt 14.496539 -9.868536
vt 3.398820 9.768281
vt 14.496539 -1.246489
vt -4.057026 -7.447443
vt 10.861779 -9.385013
vt -6.100435 -3.461707
vt -0.165593 -11.067088
vt 4.510587 -13.051875
vt 8.614125 53.220104
vt -9.731189 -3.855484
vt 14.356875 -3.855484
vt -7.243996 32.614368
vt 1.314548 53.220104
vt 14.946982 34.485889
vt -18.611782 -1.706637
vt 20.078960 -1.706637
vt -11.167069 54.934937
vt 4.468932 54.934937
vt -1.889909 48.674591
vt 5.249524 26.834682
vt 9.817186 48.674591
vt 2.101649 82.124069
vt 4.251751 69.298233
vt 7.416260 82.124069
vt 7.441368 70.666237
vt -3.189617 55.348083
vt 7.246943 55.348083
vt 4.776355 83.395050
vt 0.297336 83.395050
vt 9.251543 83.563057
vt -0.400326 55.568188
vt 10.894728 55.568188
vt 0.552906 70.857887
vt 4.171578 83.563057
vt 4.714070 82.902489
vt -2.856646 54.860435
vt 7.620103 54.860435
vt -2.619654 82.902489
vt 10.894728 54.129265
vt -0.667209 -2.715710
vt 18.157881 -2.715710
vt -0.400326 54.129265
vt 7.620103 52.435844
vt -4.761077 -4.839608
vt 12.700171 -4.839608
vt -2.856646 52.435844
vt 7.246943 54.941494
vt -22.710295 -1.698431
vt 12.078238 -1.698431
vt -3.189617 54.941494
vt -13.626177 54.941494
vn 0.3296 0.0265 -0.9438
vn 0.9856 0.1692 -0.0000
vn 0.0000 -1.0000 0.0000
vn 0.0000 1.0000 0.0000
vn -0.4932 0.1644 -0.8542
vn 0.7002 0.1098 -0.7055
vn 0.1401 0.3659 -0.9201
vn -0.6737 0.1472 0.7242
vn -0.8869 0.0819 0.4547
vn -0.8853 0.1008 0.4539
vn -0.8858 0.0960 0.4541
vn -0.3901 0.0548 0.9191
vn -0.3888 0.0975 0.9161
vn -0.3888 0.0990 0.9160
vn 0.4984 0.0797 0.8633
vn 0.4956 0.1327 0.8584
vn 0.4954 0.1352 0.8581
vn -0.3870 0.1382 0.9117
vn 0.4915 0.1838 0.8513
vn -0.8845 0.1095 0.4535
usemtl natureKit-stone
s off
f 15/1/1 5/2/1 1/3/1
f 5/2/1 15/1/1 3/4/1
f 6/5/2 5/6/2 8/7/2
f 5/6/2 6/5/2 14/8/2
f 12/9/3 13/10/3 11/11/3
f 13/10/3 12/9/3 7/12/3
f 7/12/3 12/9/3 6/13/3
f 7/12/3 6/13/3 8/14/3
f 1/15/4 18/16/4 17/17/4
f 18/16/4 1/15/4 5/18/4
f 18/16/4 5/18/4 19/19/4
f 19/19/4 5/18/4 14/20/4
f 2/21/4 3/22/4 15/23/4
f 3/22/4 2/21/4 4/24/4
f 3/22/4 4/24/4 16/25/4
f 17/26/5 12/27/5 11/28/5
f 12/27/5 17/26/5 20/29/5
f 20/29/5 17/26/5 18/30/5
f 20/31/6 6/32/6 12/33/6
f 6/32/6 20/31/6 14/34/6
f 14/34/6 20/31/6 19/35/6
f 19/36/7 20/37/7 18/38/7
f 2/39/8 21/40/8 4/41/8
s 1
f 21/42/9 1/43/10 10/44/11
f 1/43/10 21/42/9 2/45/9
f 1/43/10 2/45/9 15/46/9
f 16/47/12 10/48/13 9/49/14
f 10/48/13 16/47/12 21/50/12
f 21/50/12 16/47/12 4/51/12
f 3/52/15 9/53/16 5/54/17
f 9/53/16 3/52/15 16/55/15
f 9/56/14 13/57/18 7/58/18
f 13/57/18 9/56/14 10/59/13
f 5/60/17 7/61/19 8/62/19
f 7/61/19 5/60/17 9/63/16
f 10/64/11 11/65/20 13/66/20
f 11/65/20 10/64/11 1/67/10
f 11/65/20 1/67/10 17/68/20
