# Blender v2.79 (sub 0) OBJ File: 'Fixing models.blend'
# www.blender.org
mtllib stone_large4.mtl
o stone_large4
v -2.913545 0.000000 3.691703
v -0.550813 1.473906 -4.745439
v 3.561084 -0.000000 -1.813729
v 1.545104 -0.000000 -2.939720
v 2.871544 4.018411 3.905209
v -0.805447 5.682600 3.347916
v 0.711659 5.682600 3.214783
v 2.812821 5.682600 -1.369429
v 2.906185 5.682600 1.717671
v -1.400621 5.682600 -1.519965
v -0.362348 5.682600 -3.142866
v -2.285949 5.682600 2.966098
v -3.668367 5.682600 1.161761
v 4.283077 0.000000 0.891387
v -1.101026 -0.000000 -3.648749
v -4.668996 0.000000 1.400481
v 1.180477 0.000001 3.982260
v 3.166874 1.177111 4.283601
v -1.033542 0.000001 4.176551
v 3.514322 2.354221 4.728768
v -0.598557 2.354219 -5.151415
v 3.381391 5.682600 0.760850
v -5.343886 3.121913 1.561489
v -2.119390 2.354220 -1.174024
v -1.320473 5.682600 -0.637109
v -1.927297 4.018410 -3.189779
v -2.373827 2.354219 -3.976738
v -0.921558 5.682600 -2.772843
v 5.343886 2.354220 1.044959
v 3.551252 0.000000 2.364911
v -3.651892 2.354221 4.545354
v -5.076462 0.814863 1.497690
v -1.891092 -0.000000 -3.125971
v -1.687543 -0.000000 -0.883799
v -1.301889 2.354221 5.151414
v 4.441395 2.354220 -2.336436
v -4.897313 2.354220 0.954319
v -5.343886 2.354220 2.336957
vt -24.999838 19.142879
vt -10.033297 40.840694
vt -24.669891 40.840694
vt -20.725134 18.524670
vt 0.281573 46.482208
vt -26.200441 46.482208
vt 30.497591 29.938723
vt -24.274420 12.755280
vt 0.922430 12.755280
vt -29.879522 40.201790
vt 33.112602 40.201790
vt 27.488798 17.735432
vt -19.065634 -2.789214
vt 33.690269 -2.789214
vt -11.948896 38.260075
vt 4.669213 38.260075
vt 15.725471 -5.869252
vt -24.227695 14.997636
vt -29.156418 -5.869252
vt -2.680862 35.864525
vt 8.976619 35.864525
vt -24.944021 -32.365734
vt -14.408853 6.952053
vt -40.028801 -12.677014
vt -8.788951 -36.532089
vt -10.055934 30.256927
vt -3.953898 34.294579
vt 7.765539 -35.079353
vt 30.693184 14.943036
vt 31.711960 -18.743038
vt 36.897346 -8.302319
vt -15.283411 16.585667
vt 20.174955 43.261356
vt -29.879522 2.780737
vt 33.112602 2.780737
vt -19.510084 43.261356
vt 10.521441 32.165813
vt -15.221748 -10.459223
vt 15.135771 -10.459223
vt -14.281709 32.165813
vt -21.938734 -0.627729
vt -21.449783 16.465576
vt 12.135128 44.313820
vt -26.053848 44.313820
vt 9.101398 16.465576
vt 12.014269 39.814724
vt 18.414278 9.643913
vt 20.635378 34.110233
vt 11.277895 -45.574043
vt 31.792271 -40.283436
vt 50.947544 -15.281887
vt -16.860003 32.077885
vt -12.881228 -43.453964
vt -38.750851 -25.805637
vt -38.858147 19.791193
vt -46.736450 -9.726717
vt 30.338123 30.431170
vt -15.218749 16.585072
vt 9.033219 16.585072
vt -19.065634 44.277267
vt 33.690269 44.277267
vt -2.343610 43.062222
vt -11.951241 15.253577
vt -1.613701 15.253577
vt -23.561867 32.663738
vt -25.571957 43.062222
vt 12.135128 -3.119145
vt -17.536327 38.289875
vt -26.053848 -3.119145
vt 6.522728 38.289875
vt -17.899517 57.497253
vt -14.849218 20.274649
vt -8.226289 57.497253
vt -45.557880 20.274649
vt -36.565311 38.885952
vt 56.650558 27.056496
vt 10.566554 18.370678
vt 48.752998 18.370678
vt 7.209636 56.028568
vt 39.484734 56.028568
vt 15.633890 17.839472
vt -13.354147 17.839472
vt 1.869508 -8.810759
vt 19.207689 43.088638
vt -7.983143 22.337267
vt 21.909702 22.337267
vt -1.668444 19.169861
vt -25.571957 -1.489059
vt -2.343610 -1.489059
vt -15.627136 39.828781
vt -8.310206 39.828781
vt -26.200441 -6.007480
vt 0.612546 35.652843
vt -16.071123 35.652843
vt -26.492243 32.331432
vt 15.725471 46.326199
vt -29.156418 46.326199
vt -5.875313 18.336666
vt 12.077443 18.336666
vt 53.910778 12.949254
vt 8.752004 3.864676
vt 49.736256 3.864676
vt 10.566554 30.110926
vt 48.752998 30.110926
vt -15.221748 49.516163
vt 12.641538 21.136913
vt 15.135771 49.516163
vt -18.854525 21.136913
vt -20.716621 30.959784
vt -14.849218 29.017311
vt -35.836185 2.953121
vt -11.269257 2.953121
vt -45.557880 29.017311
vt 17.468420 32.716354
vt 2.204746 52.412331
vt -13.847725 32.716354
vt -39.849033 -49.598377
vt -53.438911 -10.413422
vt -58.311867 -25.500605
vt -23.126543 12.810808
vt -14.206064 -56.211639
vt -6.531377 56.211639
vt -25.902918 43.393707
vt 38.347874 -51.599781
vt 48.463989 25.494909
vt 58.311867 -11.402479
vt 26.333950 38.662697
vt 42.188564 38.662697
vt 34.136333 47.434113
vt 26.333950 25.581453
vt 32.576977 8.784124
vt 42.188564 25.581453
vt 0.460477 18.524670
vt 0.281573 -6.007480
vn -0.7817 0.5473 -0.2989
vn -0.2295 -0.3946 0.8897
vn 0.4564 -0.3521 -0.8171
vn 0.0773 0.4660 0.8814
vn 0.7794 0.4926 0.3871
vn -0.0000 1.0000 -0.0000
vn 0.4375 0.4416 -0.7833
vn -0.6764 0.5235 0.5182
vn 0.8913 -0.3861 -0.2379
vn 0.0000 -1.0000 0.0000
vn 0.0811 -0.3734 0.9241
vn -0.5098 -0.3829 -0.7704
vn 0.8474 0.4803 -0.2262
vn -0.9717 0.2190 0.0882
vn -0.5866 0.2643 -0.7656
vn 0.3840 0.7319 0.5629
vn 0.2006 -0.6319 -0.7486
vn -0.4851 0.4768 -0.7331
vn -0.2177 0.4899 0.8442
vn 0.8220 -0.3970 0.4083
vn -0.5953 -0.2050 -0.7769
vn -0.7185 -0.4250 0.5505
vn -0.9816 -0.1691 0.0891
vn 0.3675 -0.7581 0.5387
vn -0.9088 -0.2965 -0.2935
vn -0.9516 0.0023 -0.3074
usemtl natureKit-stone
s off
f 26/1/1 10/2/1 28/3/1
f 1/4/2 35/5/2 31/6/2
f 2/7/3 3/8/3 4/9/3
f 3/8/3 2/7/3 36/10/3
f 36/10/3 2/7/3 21/11/3
f 5/12/4 35/13/4 20/14/4
f 6/15/4 5/12/4 7/16/4
f 29/17/5 5/18/5 20/19/5
f 5/18/5 29/17/5 9/20/5
f 9/20/5 29/17/5 22/21/5
f 12/22/6 25/23/6 13/24/6
f 25/23/6 12/22/6 6/25/6
f 25/23/6 6/25/6 28/26/6
f 28/26/6 6/25/6 11/27/6
f 11/27/6 6/25/6 7/28/6
f 11/27/6 7/28/6 8/29/6
f 8/29/6 7/28/6 9/30/6
f 8/29/6 9/30/6 22/31/6
f 28/26/6 10/32/6 25/23/6
f 11/33/7 36/34/7 21/35/7
f 36/34/7 11/33/7 8/36/7
f 12/37/8 38/38/8 31/39/8
f 38/38/8 12/37/8 13/40/8
f 38/38/8 13/40/8 23/41/8
f 14/42/9 36/43/9 29/44/9
f 36/43/9 14/42/9 3/45/9
f 15/46/10 34/47/10 33/48/10
f 19/49/10 34/47/10 15/46/10
f 1/50/10 34/47/10 19/49/10
f 34/47/10 1/50/10 16/51/10
f 19/49/10 15/46/10 4/52/10
f 19/49/10 4/52/10 17/53/10
f 17/53/10 4/52/10 30/54/10
f 30/54/10 4/52/10 3/55/10
f 30/54/10 3/55/10 14/56/10
f 18/57/11 19/58/11 17/59/11
f 35/60/11 18/57/11 20/61/11
f 27/62/12 15/63/12 33/64/12
f 15/63/12 27/62/12 2/65/12
f 2/65/12 27/62/12 21/66/12
f 36/67/13 22/68/13 29/69/13
f 22/68/13 36/67/13 8/70/13
f 10/71/14 24/72/14 25/73/14
f 24/72/14 10/71/14 27/74/14
f 27/74/14 10/71/14 26/75/14
f 23/76/15 24/77/15 37/78/15
f 24/77/15 23/76/15 25/79/15
f 25/79/15 23/76/15 13/80/15
f 9/81/16 7/82/16 5/83/16
f 2/84/17 4/85/17 15/86/17
f 26/87/18 21/88/18 27/89/18
f 21/88/18 26/87/18 11/90/18
f 11/90/18 26/87/18 28/91/18
f 31/92/19 6/93/19 12/94/19
f 18/95/20 29/96/20 20/97/20
f 29/96/20 18/95/20 30/98/20
f 29/96/20 30/98/20 14/99/20
f 32/100/21 34/101/21 16/102/21
f 34/101/21 32/100/21 24/103/21
f 24/103/21 32/100/21 37/104/21
f 38/105/22 1/106/22 31/107/22
f 1/106/22 38/105/22 16/108/22
f 16/108/22 38/105/22 32/109/22
f 24/110/23 33/111/23 34/112/23
f 33/111/23 24/110/23 27/113/23
f 30/114/24 18/115/24 17/116/24
f 31/117/6 37/118/6 38/119/6
f 37/118/6 31/117/6 24/120/6
f 24/120/6 31/117/6 35/121/6
f 21/122/6 24/120/6 35/121/6
f 24/120/6 21/122/6 27/123/6
f 21/122/6 35/121/6 20/124/6
f 21/122/6 20/124/6 36/125/6
f 36/125/6 20/124/6 29/126/6
f 37/127/25 38/128/25 23/129/25
f 37/130/26 32/131/26 38/132/26
s 1
f 35/5/2 1/4/2 19/133/2
f 35/13/4 5/12/4 6/15/4
f 19/58/11 18/57/11 35/60/11
f 6/93/19 31/92/19 35/134/19
