# Blender v2.79 (sub 0) OBJ File: 'Fixing models.blend'
# www.blender.org
mtllib stone_small2.mtl
o stone_small2
v -1.804000 0.000000 1.155822
v -0.848892 1.767920 0.437578
v 0.848892 1.767920 0.320494
v 0.574881 1.767920 0.848892
v -0.035483 1.767920 -0.848892
v -1.804000 0.000000 0.000000
v -0.848892 1.767920 0.220391
v -0.924631 -0.000000 -1.804000
v -0.327664 1.767920 -0.848892
v 0.439684 -0.000000 -1.804000
v 1.804000 -0.000000 -0.000000
v 0.848892 1.767920 0.848892
v 0.439685 0.000000 1.804000
v 1.804000 0.000000 1.804000
vt 4.774801 12.569973
vt 0.000000 -9.356595
vt 12.612191 -9.356595
vt 2.404884 12.569973
vt -15.411292 -8.356090
vt 8.597454 13.570478
vt -7.573902 13.570478
vt -11.873957 -7.462748
vt 7.621654 14.463821
vt -8.376760 14.463821
vt 12.806623 -7.462748
vt 6.273034 -9.263012
vt -9.263012 -2.404884
vt -9.263012 -4.774801
vt -3.575437 9.263012
vt -0.387183 9.263012
vt 9.263012 -3.497198
vt 9.263012 -9.263012
vt -6.759802 13.515997
vt 8.625386 -8.410571
vt 6.220502 13.515997
vt -13.273832 -8.410571
vt 3.575437 12.569973
vt -4.797786 -9.356595
vt 10.089466 -9.356595
vt 0.387183 12.569973
vt -0.000000 -9.356595
vt -9.263012 12.569973
vt -19.685040 -9.356595
vt -3.497198 12.569973
vt 9.263012 12.569973
vt 4.797786 -9.356595
vt 19.685040 -9.356595
vt 10.089466 19.685040
vt 19.685040 -12.612191
vt 19.685040 0.000000
vt -4.797786 -19.685040
vt -4.797786 19.685040
vt -19.685040 0.000000
vt -19.685040 -19.685040
vt 10.072701 -8.356090
vt 6.273034 12.569973
vn -0.8798 0.4753 0.0000
vn -0.2442 0.4753 0.8453
vn 0.7017 0.4753 -0.5307
vn -0.0000 1.0000 -0.0000
vn -0.7909 0.4753 -0.3855
vn 0.0000 0.4753 -0.8798
vn 0.8798 0.4753 -0.0000
vn 0.0000 0.4753 0.8798
vn 0.0000 -1.0000 0.0000
usemtl natureKit-stone
s off
f 2/1/1 6/2/1 1/3/1
f 6/2/1 2/1/1 7/4/1
f 1/5/2 4/6/2 2/7/2
f 11/8/3 5/9/3 3/10/3
f 5/9/3 11/8/3 10/11/3
f 4/12/4 7/13/4 2/14/4
f 7/13/4 4/12/4 9/15/4
f 9/15/4 4/12/4 5/16/4
f 5/16/4 4/12/4 3/17/4
f 3/17/4 4/12/4 12/18/4
f 9/19/5 6/20/5 7/21/5
f 6/20/5 9/19/5 8/22/5
f 9/23/6 10/24/6 8/25/6
f 10/24/6 9/23/6 5/26/6
f 11/27/7 12/28/7 14/29/7
f 12/28/7 11/27/7 3/30/7
f 12/31/8 13/32/8 14/33/8
f 8/34/9 1/35/9 6/36/9
f 1/35/9 8/34/9 13/37/9
f 13/37/9 8/34/9 10/38/9
f 13/37/9 10/38/9 11/39/9
f 13/37/9 11/39/9 14/40/9
s 1
f 4/6/2 1/5/2 13/41/2
f 13/32/8 12/31/8 4/42/8
