# Blender v2.79 (sub 0) OBJ File: 'Fixing models.blend'
# www.blender.org
mtllib stone_large5.mtl
o stone_large5
v 0.646903 0.938079 -3.781269
v -1.050196 0.938081 4.599357
v 2.771983 0.938080 3.287755
v 2.526803 2.922479 -3.587499
v -4.269395 1.731840 -2.993327
v -5.477293 0.938080 0.673402
v -5.477293 1.731840 0.673402
v -4.269395 0.938080 -2.993327
v 3.791973 1.731840 0.549049
v 2.162147 2.922480 2.564448
v 2.771983 1.731841 3.287755
v -1.050196 1.731841 4.599356
v -0.819153 2.922480 3.587497
v 3.791973 0.938080 0.549049
v 4.272289 2.922480 -1.637309
v 5.477293 1.731840 -2.099114
v -3.330128 2.922480 -2.334795
v 0.504585 2.922479 -2.949390
v 3.239491 1.731840 -4.599357
v 0.646903 1.731840 -3.781269
v 2.957739 2.922480 0.428257
v -3.415515 -0.000000 -2.394662
v -0.840157 0.000000 3.679485
v 0.517523 -0.000000 -3.025015
v 2.217587 0.000000 2.630204
v 2.591593 -0.000000 -3.679485
v 4.381835 -0.000000 -1.679291
v 3.239491 0.938079 -4.599357
v -4.381835 0.000000 0.538722
v 5.477293 0.938080 -2.099114
v 3.033578 0.000000 0.439239
v -3.145809 2.922480 1.524217
v -3.801208 2.922480 -0.904771
v -4.874791 2.327160 0.599328
vt -48.813072 10.236220
vt -19.148041 18.897638
vt -48.813072 18.897638
vt 13.821535 10.236220
vt -22.792637 18.897638
vt -22.792637 10.236220
vt 13.821535 18.897638
vt 24.725124 10.236220
vt -39.841805 18.897638
vt -39.841805 10.236220
vt 24.725124 18.897638
vt 16.965557 18.897638
vt -27.128931 10.236220
vt 16.965557 10.236220
vt -27.128931 18.897638
vt -34.326706 -16.632084
vt -36.337967 25.477015
vt -41.478348 9.872755
vt 5.505972 32.183399
vt -8.938507 -39.146362
vt 23.593098 -27.982971
vt 27.572184 39.146362
vt 32.274506 -4.673106
vt 46.618729 17.866117
vt -16.446629 18.897638
vt 25.679356 10.236220
vt 25.679356 18.897638
vt -16.446629 10.236220
vt 40.831135 18.897638
vt -13.499576 10.236220
vt 40.831135 10.236220
vt 8.826980 10.236220
vt -23.062784 18.897638
vt -23.062784 10.236220
vt 22.854626 -14.199491
vt -16.446629 -23.036701
vt 25.679356 -23.036701
vt 8.826980 -7.715229
vt -17.988972 8.084369
vt -23.062784 -7.715229
vt 13.233135 5.309432
vt -27.128931 -10.859671
vt 16.965557 -10.859671
vt -21.160566 5.309432
vt 17.161390 18.897638
vt 51.413361 10.236220
vt 51.413361 18.897638
vt 13.821535 -29.283026
vt -17.778257 -10.791479
vt -22.792637 -29.283026
vt 31.848284 9.261173
vt -13.499576 -6.384443
vt 40.831135 -6.384443
vt 24.725124 -12.413238
vt -35.459206 -4.235940
vt -39.841805 -12.413238
vt -14.647473 3.941358
vt 19.285597 3.941358
vt 16.965557 36.209099
vt -21.703144 22.742624
vt 13.572446 22.742624
vt -27.128931 36.209099
vt -48.813072 -3.862458
vt -14.935472 11.495275
vt -38.074196 11.495275
vt 13.385885 10.663151
vt 51.413361 -4.801130
vt 40.102421 10.663151
vt 37.269711 26.130272
vt 9.167700 -40.150116
vt 47.814079 -5.878467
vt -5.647151 33.008614
vt -24.198050 -28.700483
vt -28.279163 40.150116
vt -33.102058 -4.792929
vt -47.814079 18.324223
vt -39.050457 17.515770
vt -19.148041 30.173002
vt -48.813072 30.173002
vt -16.446629 46.702961
vt 20.543484 31.754736
vt 25.679356 46.702961
vt -13.157304 31.754736
vt -31.873444 23.897316
vt 24.725124 37.547657
vt -39.841805 37.547657
vt 19.780100 23.897316
vt 13.821535 52.098843
vt -18.234110 36.354870
vt 11.057228 36.354870
vt -22.792637 52.098843
vt 51.413361 30.983797
vt 13.729113 18.219801
vt 41.130688 18.219801
vt -18.450228 20.399523
vt 8.826980 33.498512
vt -23.062784 33.498512
vt 7.115443 -22.321692
vt -20.337288 -22.321692
vt -7.543232 -39.207176
vt 40.831135 32.350513
vt -10.799661 19.405172
vt 32.664906 19.405172
vt -19.148041 10.236220
vt -13.499576 18.897638
vt 8.826980 18.897638
vt 3.600763 -5.362281
vt -12.828371 -5.362281
vt 6.885044 8.084369
vt 17.161390 10.236220
vt 10.780798 -10.791479
vt -10.529669 9.261173
vt -19.148041 -3.862458
vt 17.161390 -4.801130
vt -15.318433 17.515770
vt 17.161390 30.983797
vt 7.061584 20.399523
vt -13.499576 32.350513
vn -0.3009 0.0000 -0.9536
vn 0.7451 0.0000 -0.6669
vn -0.6635 0.0000 0.7482
vn 0.3246 0.0000 0.9459
vn -0.0000 1.0000 -0.0000
vn -0.9498 -0.0000 -0.3129
vn -0.1583 -0.0000 -0.9874
vn 0.9371 0.0000 0.3490
vn -0.6982 0.6780 -0.2300
vn 0.7706 0.5690 0.2870
vn 0.2608 0.5953 0.7600
vn 0.8436 0.0000 0.5369
vn 0.5235 0.7116 -0.4686
vn -0.1314 0.5572 -0.8199
vn -0.5271 0.6074 0.5944
vn 0.2467 -0.6498 0.7190
vn -0.2546 0.5332 -0.8068
vn 0.7088 0.5424 0.4511
vn 0.0000 -1.0000 0.0000
vn -0.2434 -0.5882 -0.7712
vn -0.6504 -0.7288 -0.2143
vn -0.4975 -0.6616 0.5611
vn 0.4845 -0.7598 -0.4336
vn 0.6766 -0.5974 0.4306
vn 0.7323 -0.6240 0.2727
vn -0.3714 0.9230 0.1002
vn -0.1251 -0.6122 -0.7808
usemtl natureKit-stone
s off
f 28/1/1 20/2/1 19/3/1
f 28/4/2 16/5/2 30/6/2
f 16/5/2 28/4/2 19/7/2
f 2/8/3 7/9/3 6/10/3
f 7/9/3 2/8/3 12/11/3
f 11/12/4 2/13/4 3/14/4
f 2/13/4 11/12/4 12/15/4
f 32/16/5 17/17/5 33/18/5
f 17/17/5 32/16/5 18/19/5
f 18/19/5 32/16/5 13/20/5
f 18/19/5 13/20/5 10/21/5
f 18/19/5 10/21/5 4/22/5
f 4/22/5 10/21/5 21/23/5
f 4/22/5 21/23/5 15/24/5
f 5/25/6 6/26/6 7/27/6
f 6/26/6 5/25/6 8/28/6
f 5/29/7 1/30/7 8/31/7
f 14/32/8 11/33/8 3/34/8
f 34/35/9 5/36/9 7/37/9
f 9/38/10 10/39/10 11/40/10
f 10/41/11 12/42/11 11/43/11
f 12/42/11 10/41/11 13/44/11
f 9/45/12 30/46/12 16/47/12
f 19/48/13 15/49/13 16/50/13
f 17/51/14 20/52/14 5/53/14
f 12/54/15 34/55/15 7/56/15
f 34/55/15 12/54/15 32/57/15
f 32/57/15 12/54/15 13/58/15
f 3/59/16 23/60/16 25/61/16
f 23/60/16 3/59/16 2/62/16
f 19/63/17 18/64/17 4/65/17
f 21/66/18 16/67/18 15/68/18
f 22/69/19 23/70/19 29/71/19
f 23/70/19 22/69/19 24/72/19
f 23/70/19 24/72/19 25/73/19
f 25/73/19 24/72/19 26/74/19
f 25/73/19 26/74/19 31/75/19
f 31/75/19 26/74/19 27/76/19
f 26/77/20 1/78/20 28/79/20
f 8/80/21 29/81/21 6/82/21
f 29/81/21 8/80/21 22/83/21
f 29/84/22 2/85/22 6/86/22
f 2/85/22 29/84/22 23/87/22
f 28/88/23 27/89/23 26/90/23
f 27/89/23 28/88/23 30/91/23
f 30/92/24 31/93/24 27/94/24
f 25/95/25 14/96/25 3/97/25
f 32/98/26 33/99/26 34/100/26
f 8/101/27 24/102/27 22/103/27
s 1
f 20/2/1 28/1/1 1/104/1
f 1/30/7 5/29/7 20/105/7
f 11/33/8 14/32/8 9/106/8
f 5/36/9 34/35/9 33/107/9
f 5/36/9 33/107/9 17/108/9
f 10/39/10 9/38/10 21/109/10
f 30/46/12 9/45/12 14/110/12
f 15/49/13 19/48/13 4/111/13
f 20/52/14 17/51/14 18/112/14
f 18/64/17 19/63/17 20/113/17
f 16/67/18 21/66/18 9/114/18
f 1/78/20 26/77/20 24/115/20
f 31/93/24 30/92/24 14/116/24
f 14/96/25 25/95/25 31/117/25
f 24/102/27 8/101/27 1/118/27
