# Blender v2.79 (sub 0) OBJ File: 'Fixing models.blend'
# www.blender.org
mtllib stone_large3.mtl
o stone_large3
v -2.252337 3.211120 2.308121
v -3.352890 3.211120 0.397586
v -2.840206 3.211120 -2.142456
v 0.034449 1.731839 -5.055495
v -4.508265 1.731840 -3.400723
v 0.021703 3.211120 -3.184962
v 5.322047 1.731840 -2.879803
v 2.461239 1.731840 0.842824
v 2.162413 3.211120 2.195036
v 1.550581 3.211120 0.530979
v 2.021651 1.731841 5.078310
v 2.021651 1.046321 5.078310
v 2.461238 1.046319 -5.078311
v 1.273640 3.211121 3.199335
v 2.451735 3.211120 -0.641649
v 2.451735 3.211120 -2.506806
v 3.432401 1.731841 3.484186
v 2.461238 1.731839 -5.078311
v -3.575138 1.046320 3.663684
v -3.575138 1.731841 3.663684
v -4.508265 1.046319 -3.400723
v 0.034449 1.046319 -5.055494
v -5.322047 1.731840 0.631090
v 1.968991 -0.000001 -4.062649
v 1.617321 0.000001 4.062649
v -2.860111 0.000000 2.930948
v -3.606611 -0.000000 -2.720578
v 2.745921 0.000000 2.787349
v 1.550580 3.211120 -3.199336
v 4.337468 2.471480 -2.347040
v 0.027559 -0.000001 -4.044395
v -5.322047 1.046320 0.631090
v 1.968991 0.000000 0.674260
v 5.322047 1.046320 -2.879803
v 2.461239 1.046320 0.842824
v 4.257638 -0.000000 -2.303842
v 3.432401 1.046320 3.484186
v -4.257638 0.000000 0.504872
vt 34.966614 -23.199127
vt -17.656073 0.887671
vt -28.025511 -23.199127
vt 22.028967 0.887671
vt 15.168648 -29.835142
vt -14.502807 -4.218740
vt -23.020329 -29.835142
vt 9.556249 -4.218740
vt 11.491290 -5.893457
vt -26.641747 -32.031574
vt 18.240143 -32.031574
vt -16.784300 -5.893457
vt 21.118532 -2.299661
vt -19.234426 -27.330389
vt 33.521481 -27.330389
vt -0.894523 -31.539909
vt -17.247219 -5.519228
vt -27.376537 -31.539909
vt 60.303066 1.968345
vt 5.715833 20.931725
vt 9.072751 1.968345
vt 21.853382 20.931725
vt 49.146999 11.450034
vt -17.899809 6.935532
vt -30.623337 25.019100
vt -48.608471 6.935532
vt -11.276880 25.019100
vt -26.877893 -29.207663
vt -2.299214 -3.738915
vt -16.933073 -3.738915
vt -3.649547 -29.207663
vt -3.649547 11.417323
vt -26.877893 18.897638
vt -26.877893 11.417323
vt -3.649547 18.897638
vt 60.303066 11.417323
vt 9.072751 18.897638
vt 9.072751 11.417323
vt 60.303066 18.897638
vt 34.966614 18.897638
vt -28.025511 11.417323
vt 34.966614 11.417323
vt -28.025511 18.897638
vt -27.376537 11.417323
vt -0.894523 18.897638
vt -27.376537 18.897638
vt 23.595999 -23.951994
vt 16.919756 -5.793989
vt 13.897811 -34.910782
vt 16.919756 34.910782
vt 0.236824 34.753929
vt -24.577246 -25.185951
vt -30.992004 23.378225
vt -36.586349 -4.338419
vt 26.753052 7.001588
vt 26.753052 27.353971
vt -17.899809 11.417323
vt -48.608471 18.897638
vt -48.608471 11.417323
vt -17.899809 18.897638
vt 12.471162 18.897638
vt -26.898916 11.417323
vt 12.471162 11.417323
vt -26.898916 18.897638
vt -23.020329 18.897638
vt 15.168648 11.417323
vt 15.168648 18.897638
vt -23.020329 11.417323
vt 33.521481 43.171711
vt -15.387542 27.767513
vt 26.817183 27.767513
vt -46.458855 25.139257
vt -21.485403 -7.357447
vt -21.485403 44.331150
vt -17.648014 -44.331150
vt -0.300728 44.131973
vt 31.209202 -31.982162
vt 39.354927 29.686634
vt 46.458855 -5.509103
vt -29.963171 -30.415232
vt -4.544743 -10.242363
vt 12.471162 -37.781189
vt 7.856832 -10.242363
vt -21.922617 -24.011776
vt -26.898916 -37.781189
vt -21.901230 30.662270
vt -0.894523 46.538536
vt -27.376537 46.538536
vt 34.966614 39.931210
vt -22.420408 24.973179
vt 27.973291 24.973179
vt -28.025511 39.931210
vt 25.610617 -34.214397
vt 27.353971 -12.111275
vt 7.001588 -12.111275
vt -26.641747 46.935852
vt 14.592114 31.003319
vt 18.240143 46.935852
vt -21.313398 31.003319
vt -38.886776 6.346854
vt -17.899809 18.585064
vt -48.608471 18.585064
vt 7.258201 9.172449
vt 60.303066 21.793755
vt 9.072751 21.793755
vt 48.242455 9.172449
vt -2.919637 29.052769
vt -26.877893 44.665340
vt -21.502314 29.052769
vt -3.649547 44.665340
vt 12.471162 51.641731
vt -21.519135 35.034096
vt 9.976930 35.034096
vt -26.898916 51.641731
vt -18.416264 29.484432
vt 15.168648 45.167427
vt -23.020329 45.167427
vt 12.134918 29.484432
vt -12.117689 -2.299661
vt -0.563550 -5.519228
vt 33.521481 18.897638
vt -19.234426 11.417323
vt 33.521481 11.417323
vt -19.234426 18.897638
vt -0.894523 11.417323
vt -19.234426 43.171711
vt -26.641747 18.897638
vt 18.240143 11.417323
vt 18.240143 18.897638
vt -26.641747 11.417323
vt -0.715619 30.662270
vt -14.319848 6.346854
vn -0.1642 0.7422 0.6497
vn -0.5460 0.7765 0.3145
vn -0.6053 0.7865 -0.1222
vn -0.2207 0.7643 -0.6059
vn -0.0058 0.7843 -0.6203
vn 0.6749 0.5248 0.5187
vn 0.8378 0.4508 -0.3080
vn 0.4746 0.7735 0.4200
vn 0.7489 0.0000 0.6627
vn 0.7929 0.0000 0.6093
vn -0.2451 0.0000 0.9695
vn -0.0094 0.0000 -1.0000
vn 0.0000 1.0000 -0.0000
vn 0.9386 0.0000 -0.3451
vn 0.6093 0.0000 -0.7929
vn -0.8665 0.0000 0.4992
vn -0.2537 -0.6713 -0.6964
vn 0.0000 -1.0000 0.0000
vn 0.3572 0.8102 -0.4648
vn -0.0068 -0.6949 -0.7191
vn -0.1870 -0.6461 0.7400
vn 0.3651 0.9310 -0.0000
vn -0.7024 -0.6975 -0.1418
vn 0.8756 -0.3601 -0.3219
vn 0.7173 -0.4262 0.5512
vn 0.5476 -0.6821 0.4846
vn 0.4189 -0.7262 -0.5451
vn -0.6308 -0.6856 0.3634
vn -0.3423 -0.0000 -0.9396
vn -0.9802 -0.0000 -0.1979
usemtl natureKit-stone
s off
f 11/1/1 1/2/1 20/3/1
f 1/2/1 11/1/1 14/4/1
f 20/5/2 2/6/2 23/7/2
f 2/6/2 20/5/2 1/8/2
f 2/9/3 5/10/3 23/11/3
f 5/10/3 2/9/3 3/12/3
f 3/13/4 4/14/4 5/15/4
f 4/16/5 29/17/5 18/18/5
f 7/19/6 10/20/6 8/21/6
f 10/20/6 7/19/6 15/22/6
f 15/22/6 7/19/6 30/23/6
f 8/24/7 9/25/7 17/26/7
f 9/25/7 8/24/7 10/27/7
f 11/28/8 9/29/8 14/30/8
f 9/29/8 11/28/8 17/31/8
f 37/32/9 11/33/9 12/34/9
f 11/33/9 37/32/9 17/35/9
f 34/36/10 8/37/10 35/38/10
f 8/37/10 34/36/10 7/39/10
f 11/40/11 19/41/11 12/42/11
f 19/41/11 11/40/11 20/43/11
f 13/44/12 4/45/12 18/46/12
f 9/47/13 10/48/13 14/49/13
f 29/50/13 14/49/13 10/48/13
f 6/51/13 14/49/13 29/50/13
f 6/51/13 1/52/13 14/49/13
f 3/53/13 1/52/13 6/51/13
f 1/52/13 3/53/13 2/54/13
f 29/50/13 10/48/13 15/55/13
f 29/50/13 15/55/13 16/56/13
f 35/57/14 17/58/14 37/59/14
f 17/58/14 35/57/14 8/60/14
f 18/61/15 34/62/15 13/63/15
f 34/62/15 18/61/15 7/64/15
f 23/65/16 19/66/16 20/67/16
f 19/66/16 23/65/16 32/68/16
f 21/69/17 31/70/17 27/71/17
f 36/72/18 33/73/18 24/74/18
f 25/75/18 24/74/18 33/73/18
f 25/75/18 31/76/18 24/74/18
f 26/77/18 31/76/18 25/75/18
f 26/77/18 27/78/18 31/76/18
f 27/78/18 26/77/18 38/79/18
f 25/75/18 33/73/18 28/80/18
f 16/81/19 18/82/19 29/83/19
f 18/82/19 16/81/19 30/84/19
f 18/82/19 30/84/19 7/85/19
f 24/86/20 22/87/20 13/88/20
f 12/89/21 26/90/21 25/91/21
f 26/90/21 12/89/21 19/92/21
f 30/93/22 16/94/22 15/95/22
f 21/96/23 38/97/23 32/98/23
f 38/97/23 21/96/23 27/99/23
f 28/100/24 35/101/24 37/102/24
f 33/103/25 34/104/25 35/105/25
f 34/104/25 33/103/25 36/106/25
f 28/107/26 12/108/26 25/109/26
f 12/108/26 28/107/26 37/110/26
f 13/111/27 36/112/27 24/113/27
f 36/112/27 13/111/27 34/114/27
f 38/115/28 19/116/28 32/117/28
f 19/116/28 38/115/28 26/118/28
s 1
f 4/14/4 3/13/4 6/119/4
f 29/17/5 4/16/5 6/120/5
f 5/121/29 22/122/29 21/123/29
f 22/122/29 5/121/29 4/124/29
f 4/45/12 13/44/12 22/125/12
f 31/70/17 21/69/17 22/126/17
f 5/127/30 32/128/30 23/129/30
f 32/128/30 5/127/30 21/130/30
f 22/87/20 24/86/20 31/131/20
f 35/101/24 28/100/24 33/132/24
