# Blender v2.79 (sub 0) OBJ File: 'Fixing models.blend'
# www.blender.org
mtllib stone_small5.mtl
o stone_small5
v 0.703560 1.767920 1.218601
v 1.804000 -0.000000 -0.000000
v -0.184923 2.561680 -0.321466
v -0.840368 0.549083 1.455560
v -0.902000 0.000000 1.562310
v 0.516758 1.767920 0.893882
v 0.555290 2.561680 0.447786
v 0.902000 -0.000000 -1.562310
v 1.540032 1.175856 -0.000000
v -0.902000 -0.000000 -1.562310
v 0.703560 1.767920 -1.218602
v 0.131543 1.767920 -1.218602
v -0.184923 2.561680 0.704203
v 0.902000 0.000000 1.562310
v -1.804000 0.000000 0.000000
v -1.407120 1.767920 -0.000000
v -0.700031 1.767920 0.191369
v -0.481008 2.561680 0.191369
v -0.294434 1.767920 0.893882
v 0.111162 2.561680 0.704203
v -0.026252 2.561680 -0.321466
v 0.703333 2.561680 0.191368
v -0.905647 1.767920 -0.868577
v -0.294434 1.767920 -0.511145
v 1.261496 1.767920 -0.252228
v -0.739761 1.445400 -1.281304
v -0.905647 1.767920 0.868577
v -0.387599 1.767920 1.218601
v 0.489497 1.965520 0.846663
v 0.516758 1.767920 -0.511145
v 0.922355 1.767920 0.191369
v 0.429278 2.401995 -0.359625
v 0.623997 2.561680 0.053955
v 1.219007 1.767920 0.325820
vt 7.677166 16.399128
vt -9.842520 -3.253404
vt 9.842520 -3.253404
vt -9.170001 2.850308
vt -4.229435 16.399128
vt 9.842520 -3.253404
vt -7.677166 16.399128
vt -9.842520 -3.253404
vt 3.571840 16.399128
vt 8.402328 9.817632
vt 2.017860 26.372019
vt -5.638808 17.466738
vt 3.212832 17.466738
vt -4.684236 24.580498
vt 0.286454 26.372019
vt 9.170001 2.850308
vt -9.842520 -3.253404
vt 9.842520 -3.253404
vt 3.266870 16.399128
vt -7.677166 16.399128
vt 3.223883 16.494583
vt -5.330279 18.711477
vt -5.627757 16.494583
vt -1.201937 25.399864
vt 2.028912 25.399864
vt 9.842520 -3.253404
vt -8.402328 9.817632
vt -9.842520 -3.253404
vt -4.499107 16.399128
vt 7.677166 16.399128
vt 8.072189 12.813934
vt -9.842520 -3.253404
vt 9.842520 -3.253404
vt -7.677166 16.399128
vt -1.435384 16.399128
vt 5.341331 18.712959
vt -3.212832 16.496067
vt 5.638808 16.496067
vt -2.017860 25.401348
vt 1.212988 25.401348
vt 9.842520 17.047745
vt 9.842520 -17.047745
vt 19.685040 0.000000
vt -9.842520 17.047745
vt -9.842520 -17.047745
vt -19.685040 0.000000
vt -3.266870 16.399128
vt 9.842520 -3.253404
vt 7.677166 16.399128
vt -9.842520 -3.253404
vt -8.072189 12.813934
vt -2.028912 26.373501
vt 5.627757 17.468220
vt 4.432786 26.373501
vt -3.223883 17.468220
vt 5.645774 25.888166
vt -2.010895 16.982885
vt 6.840745 16.982885
vt -0.815923 25.888166
vt -2.017860 -7.684191
vt -2.017860 3.507797
vt -5.248709 -2.088197
vt 1.212988 -7.684191
vt -0.286454 3.507797
vt 6.808982 -0.588754
vt 6.059261 -4.886194
vt 7.674685 -2.088197
vt -9.882313 -9.477813
vt -9.882313 9.477813
vt -15.354331 0.000000
vt -7.638652 -2.088197
vt -4.229435 -13.297240
vt -3.212832 -9.753942
vt 7.677166 -13.297240
vt 5.638808 -9.753942
vt 10.064629 -2.088197
vt 13.301668 -3.555316
vt -3.212832 5.577549
vt 1.435384 13.297240
vt 5.638808 5.577549
vt 7.677166 13.297240
vt 13.765302 2.752280
vt -5.611905 4.534009
vt 3.177741 -0.564000
vt 6.332897 4.534009
vt -2.882289 13.463492
vt 1.293814 -0.713165
vt 3.939958 13.463492
vt -2.791617 21.385378
vt 0.006380 14.040382
vt 2.804377 21.385378
vt 2.010895 16.979919
vt -5.645774 25.885201
vt -6.840745 16.979919
vt -3.914367 25.885201
vt 1.056322 24.093679
vt 3.753956 11.198614
vt -2.570656 11.198614
vt 1.231885 3.974323
vt -6.191129 12.127272
vt -2.094577 8.790273
vt 2.001975 12.127272
vn 0.0000 0.1908 0.9816
vn 0.8501 0.1908 0.4908
vn -0.0000 0.2324 -0.9726
vn -0.8501 0.1908 0.4908
vn 0.8423 0.2324 0.4863
vn 0.8501 0.1908 -0.4908
vn 0.0000 0.1908 -0.9816
vn 0.0000 0.2324 0.9726
vn 0.0000 -1.0000 0.0000
vn -0.8501 0.1908 -0.4908
vn -0.8423 0.2324 -0.4863
vn -0.8423 0.2324 0.4863
vn 0.0000 1.0000 0.0000
vn -0.2207 0.7235 -0.6541
vn -0.5252 0.3462 0.7773
vn 0.4428 0.4643 0.7670
vn 0.8423 0.2324 -0.4863
vn 0.8919 0.4475 0.0656
vn 0.2611 0.8528 -0.4522
usemtl natureKit-stone
s off
f 1/1/1 5/2/1 14/3/1
f 5/2/1 1/1/1 4/4/1
f 4/4/1 1/1/1 28/5/1
f 2/6/2 1/7/2 14/8/2
f 1/7/2 2/6/2 34/9/2
f 34/9/2 2/6/2 9/10/2
f 3/11/3 30/12/3 24/13/3
f 30/12/3 3/11/3 32/14/3
f 32/14/3 3/11/3 21/15/3
f 4/16/4 15/17/4 5/18/4
f 15/17/4 4/16/4 27/19/4
f 15/17/4 27/19/4 16/20/4
f 31/21/5 29/22/5 6/23/5
f 29/22/5 31/21/5 7/24/5
f 7/24/5 31/21/5 22/25/5
f 8/26/6 9/27/6 2/28/6
f 9/27/6 8/26/6 25/29/6
f 25/29/6 8/26/6 11/30/6
f 26/31/7 8/32/7 10/33/7
f 8/32/7 26/31/7 11/34/7
f 11/34/7 26/31/7 12/35/7
f 29/36/8 19/37/8 6/38/8
f 19/37/8 29/36/8 13/39/8
f 13/39/8 29/36/8 20/40/8
f 10/41/9 5/42/9 15/43/9
f 5/42/9 10/41/9 8/44/9
f 5/42/9 8/44/9 14/45/9
f 14/45/9 8/44/9 2/46/9
f 23/47/10 15/48/10 16/49/10
f 15/48/10 23/47/10 10/50/10
f 10/50/10 23/47/10 26/51/10
f 3/52/11 17/53/11 18/54/11
f 17/53/11 3/52/11 24/55/11
f 13/56/12 17/57/12 19/58/12
f 17/57/12 13/56/12 18/59/12
f 13/60/13 3/61/13 18/62/13
f 3/61/13 13/60/13 20/63/13
f 3/61/13 20/63/13 21/64/13
f 21/64/13 20/63/13 33/65/13
f 33/65/13 20/63/13 7/66/13
f 33/65/13 7/66/13 22/67/13
f 27/68/13 23/69/13 16/70/13
f 23/69/13 27/68/13 17/71/13
f 17/71/13 27/68/13 28/72/13
f 17/71/13 28/72/13 19/73/13
f 19/73/13 28/72/13 1/74/13
f 19/73/13 1/74/13 6/75/13
f 6/75/13 1/74/13 31/76/13
f 31/76/13 1/74/13 34/77/13
f 24/78/13 23/69/13 17/71/13
f 23/69/13 24/78/13 12/79/13
f 12/79/13 24/78/13 30/80/13
f 12/79/13 30/80/13 11/81/13
f 11/81/13 30/80/13 31/76/13
f 11/81/13 31/76/13 25/82/13
f 25/82/13 31/76/13 34/77/13
f 12/83/14 26/84/14 23/85/14
f 27/86/15 4/87/15 28/88/15
f 20/89/16 29/90/16 7/91/16
f 30/92/17 22/93/17 31/94/17
f 22/93/17 30/92/17 33/95/17
f 33/95/17 30/92/17 32/96/17
f 25/97/18 34/98/18 9/99/18
s 1
f 33/100/19 32/101/19 21/102/19
