# Blender v2.79 (sub 0) OBJ File: 'Fixing models.blend'
# www.blender.org
mtllib stone_small4.mtl
o stone_small4
v 2.128720 -0.000000 -0.000000
v -0.681190 2.309120 1.179856
v -1.230748 2.309120 0.227994
v -0.452667 2.309120 -1.179857
v 1.362381 2.309120 -0.000001
v -1.147969 2.309120 -0.371373
v -0.681190 2.309120 -1.179857
v 0.837142 1.369300 1.449972
v 0.732277 2.001253 -1.268342
v 1.248119 2.309120 -0.197908
v -1.064360 -0.000000 -1.843525
v 1.064360 -0.000000 -1.843526
v 1.064360 0.000000 1.843525
v -2.128720 0.000000 0.000000
v -1.064360 0.000000 1.843526
v 0.000000 2.309120 1.179856
v 0.921526 2.309120 0.763582
v -2.008057 0.363579 0.000000
vt 11.614173 -5.556726
vt -9.134795 9.989800
vt -11.614173 -5.556726
vt -2.188035 20.660179
vt 7.433071 20.660179
vt -7.433071 -12.874456
vt -12.526501 4.052377
vt -13.429783 -2.487846
vt -7.433071 12.874456
vt 0.000000 -12.874456
vt -4.939452 12.874456
vt 13.619332 2.159538
vt 10.055589 -8.332123
vt 14.866141 0.000000
vt 2.753789 20.660179
vt 11.614173 -5.556726
vt 10.955844 -1.428779
vt -11.614173 -5.556726
vt -7.433071 20.660179
vt 9.134795 9.989800
vt -11.614173 -5.556726
vt 11.614173 -5.556726
vt -7.433071 20.660179
vt 0.000000 20.660179
vt 7.433071 20.660179
vt -11.614173 -5.556726
vt 11.614173 -5.556726
vt -7.990522 17.164772
vt -11.614173 -5.556726
vt -4.939452 20.660179
vt -7.433071 20.660179
vt 11.614173 -5.556726
vt 7.990522 17.164772
vt 11.614173 20.116339
vt 11.614173 -20.116339
vt 23.228346 0.000000
vt -11.614173 20.116339
vt -11.614173 -20.116339
vt -23.228346 0.000000
vt 7.433071 20.660179
vt -11.614173 -5.556726
vt 11.614173 -5.556726
vt -4.560354 20.660179
vt -10.955844 -1.428779
vt -5.300022 15.087811
vt 1.811435 2.974650
vt 5.733911 15.087811
vt -10.714919 2.646928
vt 0.000000 -5.390026
vt 10.714919 2.646928
vt -2.300481 18.362438
vt 2.997808 -4.596741
vt 4.301824 18.362438
vt 4.939452 20.660179
vn 0.8323 0.2762 0.4805
vn -0.0000 1.0000 -0.0000
vn -0.8323 0.2762 -0.4805
vn 0.0000 0.2762 0.9611
vn -0.0000 0.2762 -0.9611
vn 0.8323 0.2762 -0.4805
vn 0.0000 -1.0000 0.0000
vn -0.8323 0.2762 0.4805
vn 0.3485 0.5322 0.7716
vn 0.2090 0.9084 -0.3620
vn -0.9160 0.3808 -0.1265
usemtl natureKit-stone
s off
f 1/1/1 8/2/1 13/3/1
f 8/2/1 1/1/1 17/4/1
f 17/4/1 1/1/1 5/5/1
f 2/6/2 6/7/2 3/8/2
f 6/7/2 2/6/2 7/9/2
f 7/9/2 2/6/2 16/10/2
f 7/9/2 16/10/2 4/11/2
f 4/11/2 16/10/2 10/12/2
f 10/12/2 16/10/2 17/13/2
f 10/12/2 17/13/2 5/14/2
f 6/15/3 14/16/3 18/17/3
f 14/16/3 6/15/3 11/18/3
f 11/18/3 6/15/3 7/19/3
f 8/20/4 15/21/4 13/22/4
f 15/21/4 8/20/4 2/23/4
f 2/23/4 8/20/4 16/24/4
f 7/25/5 12/26/5 11/27/5
f 12/26/5 7/25/5 9/28/5
f 1/29/6 10/30/6 5/31/6
f 10/30/6 1/29/6 12/32/6
f 10/30/6 12/32/6 9/33/6
f 11/34/7 15/35/7 14/36/7
f 15/35/7 11/34/7 12/37/7
f 15/35/7 12/37/7 13/38/7
f 13/38/7 12/37/7 1/39/7
f 2/40/8 14/41/8 15/42/8
f 14/41/8 2/40/8 3/43/8
f 14/41/8 3/43/8 18/44/8
f 16/45/9 8/46/9 17/47/9
f 10/48/10 9/49/10 4/50/10
f 6/51/11 18/52/11 3/53/11
s 1
f 9/28/5 7/25/5 4/54/5
