# Blender v2.79 (sub 0) OBJ File: 'Fixing models.blend'
# www.blender.org
mtllib tree_blocks_fall.mtl
o tree_blocks_fall
v 0.824999 11.849999 -3.000002
v 2.999999 9.749999 -3.000002
v 2.499999 9.749999 -0.800002
v 2.999999 11.849999 -0.800003
v 0.824999 9.749999 -3.000002
v 2.999999 8.349999 -0.538280
v 3.000000 8.349999 2.999998
v -0.856633 11.350000 -0.538281
v 2.499999 8.349999 -0.538280
v 2.999999 9.749999 -0.800002
v 2.999999 11.849999 -3.000003
v -3.000000 8.013607 0.824998
v -3.000000 5.850000 2.999999
v -0.825001 5.849999 0.824999
v -0.825001 6.349999 0.824999
v 0.553422 5.849999 -3.000001
v -3.000000 5.849999 0.553507
v -0.450001 5.849999 -0.450001
v 0.449999 5.849999 0.449999
v -0.450001 5.849999 0.449999
v 0.553422 5.849999 0.553506
v -2.500000 6.349999 0.553507
v -3.000000 9.400000 0.553506
v -2.500000 9.400000 0.553506
v -2.500000 11.350000 2.499998
v -2.500000 6.349999 0.824999
v 0.824999 11.849999 -0.800003
v -2.500000 11.350000 -2.500002
v 0.553422 9.400000 -2.500002
v -2.500000 9.400000 -2.500002
v 0.824999 9.749999 -2.500002
v 2.499999 9.749999 -2.500002
v 0.553422 6.349999 -2.500001
v 2.500000 8.349999 2.499998
v -0.825000 6.350000 2.499999
v 2.500000 6.350000 2.499998
v 2.499999 6.349999 -2.500001
v 0.553422 6.349999 0.553506
v 2.499999 11.350000 -0.538281
v 0.824999 11.350000 -0.800003
v 2.499999 11.350000 -0.800003
v 0.824999 11.350000 -2.500002
v -0.856632 11.350000 2.499998
v -0.825000 8.013607 2.499998
v -3.000000 5.849999 0.824999
v -0.825000 5.850000 2.999999
v 3.000000 11.849999 2.999997
v -0.856632 8.349999 2.999998
v -0.856632 11.849999 2.999997
v -0.856632 8.349999 2.499998
v -0.856633 11.849999 -0.538281
v 2.999999 11.849999 -0.538281
v -2.500000 8.013607 2.499998
v -2.500000 8.013607 0.824998
v -0.825000 8.013607 2.999998
v -3.000000 8.013607 2.999998
v -3.000001 9.400000 -3.000002
v 0.553422 9.400000 -3.000002
v -3.000001 5.849999 -3.000001
v 0.449999 3.100000 -0.450001
v 0.449999 3.100000 0.449999
v 0.449999 5.849999 -0.450001
v -0.697501 -0.000000 0.697500
v -0.697501 -0.000000 -0.697500
v -0.450001 3.100000 0.449999
v -0.450001 3.100000 -0.450001
v 0.697499 -0.000000 0.697500
v 0.697499 -0.000000 -0.697500
vt -30.118111 93.307083
vt -47.244095 76.771652
vt -30.118111 76.771652
vt -47.244095 93.307083
vt -47.244095 47.244095
vt -30.118111 43.307087
vt -30.118111 47.244095
vt -43.307087 43.307087
vt -43.307087 29.921259
vt -47.244095 29.921259
vt 47.244095 29.921259
vt 30.118111 47.244095
vt 30.118111 29.921259
vt 47.244095 47.244095
vt -47.244095 93.307083
vt -29.921259 89.370079
vt -29.921259 93.307083
vt -43.307087 89.370079
vt -47.244095 76.771652
vt -43.307087 76.771652
vt 27.860460 65.748032
vt 0.000000 93.307083
vt 0.000000 65.748032
vt 27.860460 93.307083
vt -47.244095 27.860460
vt -43.307087 3.937008
vt -43.307087 27.860460
vt -47.244095 0.000000
vt -16.876913 0.000000
vt -16.876913 3.937008
vt -16.876913 93.307083
vt -43.307087 89.370079
vt -16.876913 89.370079
vt -47.244095 93.307083
vt -47.244095 65.748032
vt -43.307087 65.748032
vt 47.244095 76.771652
vt 29.921259 93.307083
vt 29.921259 76.771652
vt 47.244095 93.307083
vt -17.125984 63.099270
vt 0.000000 46.062992
vt 0.000000 63.099270
vt -17.125984 46.062992
vt 0.000000 46.062992
vt -3.937008 50.000000
vt -17.125984 46.062992
vt 0.000000 63.099270
vt -3.937008 63.099270
vt -17.125984 50.000000
vt -27.979710 47.244095
vt 0.000000 19.263718
vt 0.000000 47.244095
vt -20.078741 27.165354
vt -27.165354 27.165354
vt -27.165354 20.078741
vt -20.078741 20.078741
vt -27.979710 19.263718
vt 27.979710 50.000000
vt 0.000000 46.062992
vt 27.979710 46.062992
vt 3.937008 50.000000
vt 0.000000 74.015747
vt 3.937008 74.015747
vt 47.244095 46.062992
vt 19.263718 50.000000
vt 19.263718 46.062992
vt 43.307087 50.000000
vt 43.307087 74.015747
vt 47.244095 74.015747
vt -3.937008 89.370079
vt -19.263718 74.015747
vt -3.937008 63.099270
vt -43.307087 89.370079
vt -17.125984 63.099270
vt -17.125984 50.000000
vt -43.307087 74.015747
vt -19.263718 50.000000
vt 47.244095 93.307083
vt 43.307087 76.771652
vt 47.244095 76.771652
vt 43.307087 89.370079
vt 30.118111 93.307083
vt 30.118111 89.370079
vt -3.937008 89.370079
vt -27.979710 74.015747
vt -3.937008 74.015747
vt -30.118111 76.771652
vt -30.118111 89.370079
vt -43.307087 76.771652
vt -43.307087 50.000000
vt -27.979710 50.000000
vt 43.307087 50.000000
vt 3.937008 65.748032
vt 3.937008 50.000000
vt 27.860460 65.748032
vt 29.921259 76.771652
vt 27.860460 89.370079
vt 43.307087 76.771652
vt 29.921259 89.370079
vt 43.307087 65.748032
vt 17.125984 50.000000
vt 43.307087 50.000000
vt 17.125984 63.099270
vt 3.937008 63.099270
vt 16.876913 65.748032
vt 3.937008 89.370079
vt 16.876913 89.370079
vt -43.307087 43.307087
vt -27.979710 19.263718
vt -27.979710 43.307087
vt -43.307087 3.937008
vt -17.125984 3.937008
vt -17.125984 17.125984
vt -3.937008 17.125984
vt -3.937008 19.263718
vt 43.307087 27.860460
vt 30.118111 29.921259
vt 16.876913 27.860460
vt 43.307087 29.921259
vt 30.118111 43.307087
vt 3.937008 43.307087
vt 16.876913 3.937008
vt 3.937008 3.937008
vt 0.000000 46.062992
vt 3.937008 50.000000
vt 0.000000 63.099270
vt 17.125984 46.062992
vt 17.125984 50.000000
vt 3.937008 63.099270
vt -17.125984 17.125984
vt 0.000000 0.000000
vt 0.000000 17.125984
vt -17.125984 0.000000
vt 47.244095 93.307083
vt 16.876913 65.748032
vt 47.244095 65.748032
vt 16.876913 93.307083
vt -0.000000 93.307083
vt -3.937008 89.370079
vt -0.000000 65.748032
vt -27.860460 93.307083
vt -27.860460 89.370079
vt -3.937008 65.748032
vt 47.244095 0.000000
vt 16.876913 27.860460
vt 16.876913 0.000000
vt 47.244095 27.860460
vt 0.000000 0.000000
vt 3.937008 3.937008
vt 0.000000 17.125984
vt 17.125984 0.000000
vt 17.125984 3.937008
vt 3.937008 17.125984
vt 17.125984 63.099270
vt 17.125984 46.062992
vt 3.937008 19.263718
vt 0.000000 47.244095
vt 0.000000 19.263718
vt 3.937008 43.307087
vt 27.979710 47.244095
vt 27.979710 43.307087
vt -47.244095 74.015747
vt -19.263718 46.062992
vt -19.263718 74.015747
vt -47.244095 46.062992
vt 0.000000 74.015747
vt -27.979710 46.062992
vt 0.000000 46.062992
vt -27.979710 74.015747
vt -29.114174 29.114174
vt -18.129921 18.129921
vt -18.129921 29.114174
vt -29.114174 18.129921
vt 27.165354 24.409449
vt 20.078741 46.062992
vt 20.078741 24.409449
vt 27.165354 46.062992
vt 27.165354 46.062992
vt 20.078741 24.409449
vt 27.165354 24.409449
vt 20.078741 46.062992
vt -20.078741 46.062992
vt -27.165354 24.409449
vt -20.078741 24.409449
vt -27.165354 46.062992
vt -27.165354 46.062992
vt -20.078741 24.409449
vt -20.078741 46.062992
vt -27.165354 24.409449
vt 27.165354 25.929998
vt 18.129921 1.442878
vt 29.114174 1.442878
vt 20.078741 25.929998
vt -20.078741 25.929998
vt -29.114174 1.442878
vt -18.129921 1.442878
vt -27.165354 25.929998
vt 29.114174 -2.317065
vt 20.078741 22.170055
vt 18.129921 -2.317065
vt 27.165354 22.170055
vt -20.078741 22.170055
vt -29.114174 -2.317065
vt -18.129921 -2.317065
vt -27.165354 22.170055
vn 0.0000 -0.0000 -1.0000
vn 0.0000 -1.0000 0.0000
vn 0.0000 1.0000 0.0000
vn -1.0000 0.0000 0.0000
vn 1.0000 -0.0000 -0.0000
vn 0.0000 0.0000 1.0000
vn 0.9992 0.0408 -0.0000
vn 0.0000 0.0408 0.9992
vn -0.0000 0.0408 -0.9992
vn -0.9992 0.0408 0.0000
vn 0.0000 0.0796 0.9968
vn -0.9968 0.0796 0.0000
vn 0.9968 0.0796 -0.0000
vn -0.0000 0.0796 -0.9968
usemtl natureKit-leavesFall
s off
f 1/1/1 2/2/1 5/3/1
f 2/2/1 1/1/1 11/4/1
f 2/5/2 31/6/2 5/7/2
f 31/6/2 2/5/2 32/8/2
f 32/8/2 2/5/2 3/9/2
f 3/9/2 2/5/2 10/10/2
f 4/11/3 1/12/3 27/13/3
f 1/12/3 4/11/3 11/14/3
f 1/15/4 40/16/4 27/17/4
f 40/16/4 1/15/4 42/18/4
f 5/19/4 42/18/4 1/15/4
f 42/18/4 5/19/4 31/20/4
f 6/21/5 47/22/5 7/23/5
f 47/22/5 6/21/5 52/24/5
f 6/25/2 34/26/2 9/27/2
f 7/28/2 34/26/2 6/25/2
f 48/29/2 34/26/2 7/28/2
f 34/26/2 48/29/2 50/30/2
f 51/31/1 39/32/1 8/33/1
f 52/34/1 39/32/1 51/31/1
f 6/35/1 39/32/1 52/34/1
f 39/32/1 6/35/1 9/36/1
f 2/37/5 4/38/5 10/39/5
f 4/38/5 2/37/5 11/40/5
f 12/41/4 13/42/4 56/43/4
f 13/42/4 12/41/4 45/44/4
f 45/45/1 26/46/1 14/47/1
f 26/46/1 45/45/1 12/48/1
f 26/46/1 12/48/1 54/49/1
f 15/50/1 14/47/1 26/46/1
f 16/51/2 17/52/2 59/53/2
f 17/52/2 16/51/2 18/54/2
f 18/54/2 16/51/2 62/55/2
f 62/55/2 16/51/2 19/56/2
f 20/57/2 17/52/2 18/54/2
f 17/52/2 20/57/2 21/58/2
f 21/58/2 20/57/2 19/56/2
f 21/58/2 19/56/2 16/51/2
f 38/59/6 17/60/6 21/61/6
f 17/60/6 38/59/6 22/62/6
f 17/60/6 22/62/6 23/63/6
f 23/63/6 22/62/6 24/64/6
f 16/65/5 38/66/5 21/67/5
f 38/66/5 16/65/5 33/68/5
f 33/68/5 16/65/5 29/69/5
f 29/69/5 16/65/5 58/70/5
f 25/71/4 24/72/4 53/73/4
f 24/72/4 25/71/4 28/74/4
f 53/73/4 24/72/4 54/75/4
f 54/75/4 24/72/4 26/76/4
f 24/72/4 28/74/4 30/77/4
f 22/78/4 26/76/4 24/72/4
f 4/79/6 3/80/6 10/81/6
f 3/80/6 4/79/6 41/82/6
f 27/83/6 41/82/6 4/79/6
f 41/82/6 27/83/6 40/84/6
f 28/85/1 29/86/1 30/87/1
f 29/86/1 28/85/1 31/88/1
f 31/88/1 28/85/1 42/89/1
f 32/90/1 29/86/1 31/88/1
f 37/91/1 29/86/1 32/90/1
f 29/86/1 37/91/1 33/92/1
f 37/93/5 34/94/5 36/95/5
f 34/94/5 37/93/5 9/96/5
f 9/96/5 37/93/5 3/97/5
f 9/96/5 3/97/5 39/98/5
f 3/97/5 37/93/5 32/99/5
f 41/100/5 39/98/5 3/97/5
f 34/101/6 35/102/6 36/103/6
f 35/102/6 34/101/6 44/104/6
f 44/104/6 34/101/6 53/105/6
f 53/105/6 34/101/6 50/106/6
f 53/105/6 50/106/6 25/107/6
f 25/107/6 50/106/6 43/108/6
f 37/109/2 38/110/2 33/111/2
f 36/112/2 38/110/2 37/109/2
f 35/113/2 38/110/2 36/112/2
f 15/114/2 38/110/2 35/113/2
f 26/115/2 38/110/2 15/114/2
f 38/110/2 26/115/2 22/116/2
f 39/117/3 40/118/3 8/119/3
f 40/118/3 39/117/3 41/120/3
f 42/121/3 8/119/3 40/118/3
f 28/122/3 8/119/3 42/121/3
f 28/122/3 43/123/3 8/119/3
f 43/123/3 28/122/3 25/124/3
f 46/125/5 35/126/5 55/127/5
f 35/126/5 46/125/5 14/128/5
f 35/126/5 14/128/5 15/129/5
f 44/130/5 55/127/5 35/126/5
f 14/131/2 13/132/2 45/133/2
f 13/132/2 14/131/2 46/134/2
f 47/135/6 48/136/6 7/137/6
f 48/136/6 47/135/6 49/138/6
f 49/139/4 43/140/4 48/141/4
f 43/140/4 49/139/4 51/142/4
f 43/140/4 51/142/4 8/143/4
f 50/144/4 48/141/4 43/140/4
f 47/145/3 51/146/3 49/147/3
f 51/146/3 47/145/3 52/148/3
f 56/149/3 53/150/3 12/151/3
f 53/150/3 56/149/3 55/152/3
f 53/150/3 55/152/3 44/153/3
f 54/154/3 12/151/3 53/150/3
f 55/155/6 13/42/6 46/156/6
f 13/42/6 55/155/6 56/43/6
f 24/157/3 57/158/3 23/159/3
f 57/158/3 24/157/3 30/160/3
f 57/158/3 30/160/3 58/161/3
f 58/161/3 30/160/3 29/162/3
f 57/163/4 17/164/4 23/165/4
f 17/164/4 57/163/4 59/166/4
f 57/167/1 16/168/1 59/169/1
f 16/168/1 57/167/1 58/170/1
usemtl natureKit-wood
f 68/171/2 63/172/2 64/173/2
f 63/172/2 68/171/2 67/174/2
s 1
f 60/175/7 19/176/5 61/177/7
f 19/176/5 60/175/7 62/178/5
f 19/179/6 65/180/8 61/181/8
f 65/180/8 19/179/6 20/182/6
f 18/183/1 60/184/9 66/185/9
f 60/184/9 18/183/1 62/186/1
f 18/187/4 65/188/10 20/189/4
f 65/188/10 18/187/4 66/190/10
f 61/191/8 63/192/11 67/193/11
f 63/192/11 61/191/8 65/194/8
f 65/195/10 64/196/12 63/197/12
f 64/196/12 65/195/10 66/198/10
f 68/199/13 61/200/7 67/201/13
f 61/200/7 68/199/13 60/202/7
f 66/203/9 68/204/14 64/205/14
f 68/204/14 66/203/9 60/206/9
