# Blender v2.79 (sub 0) OBJ File: 'Fixing models.blend'
# www.blender.org
mtllib tree_pineSmall_round4.mtl
o tree_pineSmall_round4
v -0.000000 0.511143 -2.773500
v -2.401922 0.511143 -1.386750
v -0.000000 2.387286 -1.709161
v -0.000000 5.758774 -1.284282
v -1.137430 5.669650 -0.633662
v -0.634323 7.304256 -0.116568
v 0.000000 7.098450 0.983146
v -1.137430 5.491403 0.667577
v -1.520115 2.305993 0.877639
v -1.493254 2.360668 -0.862131
v 0.000000 2.277912 1.771208
v 1.137430 5.669650 -0.633663
v -0.000000 7.370589 -0.471015
v 2.401921 0.511143 -1.386750
v -2.401921 0.511143 1.386750
v 0.000000 0.511144 2.773500
v 1.969575 2.372639 -1.243061
v 1.182661 4.076481 0.631327
v 1.146971 4.198597 -0.710513
v -1.969575 2.301203 1.030087
v -1.146971 4.198597 -0.710513
v -1.969576 2.372639 -1.243061
v -0.000000 4.256933 -1.351514
v 0.000000 4.012527 1.334057
v 0.000000 2.265484 2.166661
v -0.368706 6.849833 0.827060
v -0.353788 6.837950 0.833599
v -0.337700 6.847346 0.844807
v -0.757575 7.159559 0.656613
v -0.568715 5.318522 -1.013175
v -1.137430 5.184836 -0.037245
v 0.568715 5.318522 -1.013175
v 0.568715 5.051150 0.938684
v -0.568715 5.051150 0.938684
v 0.000000 5.402279 1.318196
v 2.401921 -0.000000 -0.000000
v 1.200960 -0.000000 -2.080125
v -2.401921 0.000000 0.000000
v 1.200961 0.000000 2.080125
v 2.401922 0.511143 1.386750
v -1.200961 -0.000000 -2.080125
v -1.200960 0.000000 2.080125
v -0.000000 2.408357 -2.379635
v 1.493254 2.360668 -0.862131
v 1.520115 2.305993 0.877638
v 1.969576 2.301203 1.030087
v 0.984788 1.929674 -1.825830
v 1.969575 1.876097 -0.120969
v -0.984788 1.929674 -1.825830
v -1.969575 1.876097 -0.120969
v -0.757575 7.331095 -0.259982
v -0.757575 6.966602 0.146153
v 0.857575 6.966602 0.146153
v -0.089084 9.400435 0.519938
v -0.089084 9.370893 0.677798
v 0.857575 7.159559 0.656612
v 0.050000 9.356121 0.756727
v 0.984788 1.822520 1.583892
v 0.453788 7.095254 -0.541293
v 0.050000 7.073791 1.114910
v -0.984788 1.822520 1.583892
v -0.000000 4.293116 -1.749089
v 0.000000 3.983931 1.648276
v -1.477181 3.794158 -0.081746
v 1.477181 4.215819 -0.899748
v 1.477182 4.061227 0.798934
v 1.477181 3.794158 -0.081746
v 0.738591 3.678214 1.192266
v 0.050000 7.416863 -0.718280
v -0.645080 7.168216 0.610358
v -0.738591 3.910102 -1.355758
v -1.477181 4.061227 0.798935
v -0.738591 3.678214 1.192266
v 0.000000 5.437860 1.058444
v 0.453788 6.837950 0.833599
v 0.189084 9.400435 0.519938
v 0.189084 9.370893 0.677798
v 0.857575 7.331095 -0.259982
v -0.353788 7.095254 -0.541293
v -1.182661 4.076481 0.631327
v -0.824690 5.636570 -0.392177
v 0.738591 3.910102 -1.355758
v 0.050000 9.415206 0.441008
v -1.477182 4.215819 -0.899748
v -0.000000 5.699776 -0.853587
v 0.645080 7.168216 0.610358
v 0.634323 7.304256 -0.116568
v -0.844233 5.505667 0.563445
v 0.824690 5.636570 -0.392177
v 0.844233 5.505667 0.563445
v 1.137430 5.491403 0.667577
v 1.137430 5.184836 -0.037246
vt 13.576860 22.997042
vt -21.838583 -9.454671
vt 21.838583 -9.454671
vt -13.457954 23.464096
vt 7.564363 102.975182
vt -10.551710 76.477821
vt 10.075090 74.949783
vt -3.869871 104.112465
vt 9.193945 105.299767
vt -10.694028 80.696457
vt 9.781218 77.770004
vt -2.237541 107.533264
vt 10.539241 82.174629
vt -7.529114 107.856682
vt -10.094984 80.750351
vt 4.202419 108.971596
vt 7.529114 107.856682
vt -10.539241 82.174629
vt 10.094984 80.750351
vt -4.202419 108.971596
vt 13.821088 22.037724
vt -21.838583 -9.454671
vt 21.838583 -9.454671
vt -13.576860 22.997042
vt 13.821088 22.037724
vt -21.838583 -9.454671
vt 21.838583 -9.454671
vt -13.946527 21.545006
vt 10.551710 76.477821
vt -7.564363 102.975182
vt -10.075090 74.949783
vt 3.869871 104.112465
vt 10.381862 51.386154
vt -18.948778 22.214573
vt 16.861322 21.605713
vt -11.278486 52.476318
vt 21.838583 -9.454671
vt -13.821088 22.037724
vt -21.838583 -9.454671
vt 13.576860 22.997042
vt 13.946527 21.545006
vt -21.838583 -9.454671
vt 21.838583 -9.454671
vt -13.821088 22.037724
vt 18.974327 20.222364
vt -9.910728 51.489960
vt -16.835514 19.598524
vt 10.776466 52.508827
vt 20.008926 21.590057
vt -9.679934 50.973976
vt -15.785155 20.358086
vt 11.441437 53.079967
vt 9.679934 50.973976
vt -20.008926 21.590057
vt 15.785155 20.358086
vt -11.441437 53.079967
vt 9.910728 51.489960
vt -18.974327 20.222364
vt 16.835514 19.598524
vt -10.776466 52.508827
vt 18.948778 22.214573
vt -10.381862 51.386154
vt -16.861322 21.605713
vt 11.278486 52.476318
vt 13.457954 23.464096
vt -21.838583 -9.454671
vt 21.838583 -9.454671
vt -13.576860 22.997042
vt 1.589932 108.751350
vt 1.844655 108.561813
vt 2.152489 108.711700
vt 9.571336 112.323891
vt -5.049952 113.692039
vt -10.183027 88.006973
vt -0.295311 81.025475
vt 10.451951 86.593651
vt -9.978918 89.285828
vt -0.586527 81.650963
vt 10.513039 86.478783
vt 10.183027 88.006973
vt -10.451951 86.593651
vt 0.295311 81.025475
vt 10.183027 88.006973
vt -10.451951 86.593651
vt 0.295311 81.025475
vt -10.183027 88.006973
vt -0.295311 81.025475
vt 10.451951 86.593651
vt 0.000000 43.677166
vt 37.825535 -21.838583
vt 37.825535 21.838583
vt 0.000000 -43.677166
vt -37.825535 21.838583
vt -37.825535 -21.838583
vt 21.838583 8.049499
vt -21.838583 8.049499
vt 0.000000 0.000000
vt -21.838583 8.049499
vt 0.000000 0.000000
vt 21.838583 8.049499
vt -21.838583 8.049499
vt -0.000000 0.000000
vt 21.838583 8.049499
vt -21.838583 8.049499
vt 0.000000 0.000000
vt 21.838583 8.049499
vt -21.838583 8.049499
vt -0.000000 0.000000
vt 21.838583 8.049499
vt -21.838583 8.049499
vt -0.000000 0.000000
vt 21.838583 8.049499
vt 31.016939 20.739738
vt 23.515812 14.737883
vt 31.016939 -15.075537
vt 0.000000 38.647377
vt 23.938826 -12.673591
vt 0.000000 28.083517
vt -31.016939 20.739738
vt -23.515812 14.737883
vt -23.938826 -12.673591
vt -0.000000 -32.983173
vt -0.000000 -26.752502
vt -31.016939 -15.075537
vt 18.744215 37.030128
vt -17.066641 36.467430
vt 0.952860 29.489027
vt 19.575754 37.364391
vt -16.221849 36.239407
vt 1.905015 29.544834
vt -18.744215 37.030128
vt -0.952860 29.489027
vt 17.066641 36.467430
vt -19.575754 37.364391
vt -1.905015 29.544834
vt 16.221849 36.239407
vt -4.094185 115.450317
vt 2.301648 109.710274
vt 10.340377 112.748962
vt 4.094185 115.450317
vt -10.340377 112.748962
vt -2.301648 109.710274
vt 8.095905 141.207703
vt 9.651257 104.351486
vt 10.577929 140.721817
vt -4.760342 107.172783
vt 5.356853 100.438370
vt -6.880527 135.238464
vt -9.251011 98.933640
vt -4.364703 135.497620
vt 6.840255 109.577805
vt -5.059988 144.494629
vt -7.781478 108.214424
vt 15.098546 51.461826
vt -8.328174 73.690117
vt -11.630469 48.797695
vt 6.696231 75.946014
vt 18.744215 37.030128
vt -17.066641 36.467430
vt 0.952860 29.489027
vt 5.049952 113.692039
vt -9.571336 112.323891
vt -1.844655 108.561813
vt 6.439372 144.598099
vt -5.460872 109.681274
vt 9.160861 108.317894
vt -18.744215 37.030128
vt -0.952860 29.489027
vt 17.066641 36.467430
vt 14.314750 48.147823
vt -7.886096 72.231468
vt -12.510943 46.762165
vt 6.985851 73.364525
vt 14.255905 52.822544
vt -8.074732 75.826637
vt -12.574479 51.530895
vt 7.332393 76.959709
vt -14.169246 66.390854
vt -1.287331 59.750523
vt 12.581660 63.956333
vt 14.169246 66.390854
vt -12.581660 63.956333
vt 1.287331 59.750523
vt 13.814970 65.529137
vt -13.018721 64.308113
vt 0.645657 59.478767
vt 11.930319 25.261560
vt 9.989340 22.963863
vt 11.930319 10.576403
vt -0.787402 32.604141
vt 10.158740 11.317460
vt 0.000000 28.642614
vt -9.989340 22.963863
vt -13.505122 25.261560
vt -10.158740 11.317460
vt -0.787402 3.233824
vt -0.000000 5.344865
vt -13.505122 10.576403
vt -13.814970 65.529137
vt -0.645657 59.478767
vt 13.018721 64.308113
vt -13.814970 65.529137
vt -0.645657 59.478767
vt 13.018721 64.308113
vt 8.074732 75.826637
vt -14.255905 52.822544
vt 12.574479 51.530895
vt -7.332393 76.959709
vt 6.407839 113.819099
vt -8.213448 112.450951
vt -0.486767 108.688873
vt 0.787402 15.389845
vt -1.402895 16.654413
vt -1.402895 19.183550
vt 0.787402 20.448118
vt 2.977698 16.654413
vt 2.977698 19.183550
vt -9.562464 103.897919
vt -8.007113 140.754135
vt -10.489136 140.268250
vt 4.849134 106.719215
vt -6.407839 113.819099
vt 0.486767 108.688873
vt 8.213448 112.450951
vt 23.262703 20.128105
vt 18.062532 17.135706
vt 18.624578 -4.082955
vt 0.000000 33.558834
vt 0.000000 27.271929
vt -18.062532 17.135706
vt -23.262703 20.128105
vt -18.624578 -4.082955
vt 23.262703 -6.733352
vt -0.000000 -20.164080
vt -23.262703 -6.733352
vt 8.328174 73.690117
vt -15.098546 51.461826
vt 11.630469 48.797695
vt -6.696231 75.946014
vt 13.814970 65.529137
vt -13.018721 64.308113
vt 0.645657 59.478767
vt 5.547565 135.608078
vt -6.689816 100.807983
vt 7.918048 99.303261
vt 3.031740 135.867233
vt 7.886096 72.231468
vt -14.314750 48.147823
vt 12.510943 46.762165
vt -6.985851 73.364525
vt 10.694028 80.696457
vt -9.193945 105.299767
vt -9.781218 77.770004
vt 2.237541 107.533264
vt 17.912281 22.004068
vt 12.987251 18.165632
vt 17.912281 1.320746
vt -0.000000 32.345730
vt -0.000000 25.499792
vt -17.912281 22.004068
vt -12.987251 18.165632
vt 13.295005 2.975928
vt 0.000000 -9.020915
vt 0.000000 -4.892119
vt -13.295005 2.975928
vt -17.912281 1.320746
vt 9.978918 89.285828
vt -10.513039 86.478783
vt 0.586527 81.650963
vt -2.541775 144.729431
vt 3.921158 144.832901
vt -0.000000 -15.195303
vn -0.4488 0.4410 -0.7773
vn -0.4792 0.3954 -0.7836
vn -0.9584 0.2827 0.0387
vn 0.4792 0.1701 0.8611
vn -0.4792 0.1701 0.8611
vn -0.8975 0.4410 0.0000
vn 0.4488 0.4410 0.7773
vn 0.4792 0.3954 -0.7836
vn -0.4565 0.3828 0.8032
vn 0.8975 0.4410 -0.0000
vn -0.4488 0.4410 0.7773
vn 0.4565 0.4324 -0.7775
vn 0.9131 0.4076 0.0128
vn -0.9131 0.4076 0.0128
vn -0.4565 0.4324 -0.7775
vn 0.4565 0.3828 0.8032
vn 0.4488 0.4410 -0.7773
vn -0.5000 -0.1593 0.8513
vn -0.5000 -0.1593 0.8512
vn -0.5000 0.1175 -0.8580
vn -1.0000 0.0000 0.0000
vn 0.5000 0.1175 -0.8580
vn 0.5000 -0.1175 0.8580
vn -0.5000 -0.1175 0.8580
vn 0.0000 -1.0000 0.0000
vn 1.0000 0.0000 -0.0000
vn 0.5000 -0.0000 -0.8660
vn 0.5000 0.0000 0.8660
vn -0.5000 -0.0000 -0.8660
vn -0.5000 -0.0000 0.8660
vn 0.0000 -0.9995 -0.0314
vn 0.5000 0.0272 -0.8656
vn -0.5000 0.0272 -0.8656
vn -0.9560 0.2885 0.0540
vn 0.4780 0.4408 -0.7598
vn 0.4780 0.1362 0.8677
vn 0.9131 0.4061 0.0370
vn 0.5000 -0.0272 0.8656
vn 0.5000 0.1593 -0.8512
vn -0.4780 0.1362 0.8677
vn -0.5000 -0.0272 0.8656
vn 0.4565 0.4778 -0.7505
vn 0.4565 0.3345 0.8244
vn 0.5000 -0.0785 0.8625
vn -0.0000 -0.9829 -0.1840
vn 0.0000 -0.9829 -0.1839
vn -0.5000 0.0785 -0.8625
vn -0.5000 -0.0785 0.8625
vn -0.4565 0.3345 0.8244
vn 0.5000 -0.1593 0.8512
vn 0.9560 0.2885 0.0540
vn -0.5000 0.1593 -0.8512
vn -0.0000 -0.9959 -0.0906
vn -0.9131 0.4061 0.0370
vn 0.5000 0.0785 -0.8625
vn -0.4780 0.4408 -0.7598
vn -0.4565 0.4778 -0.7505
vn 0.9584 0.2827 0.0387
vn -0.0000 -0.9907 -0.1357
usemtl natureKit-leaves
s off
f 10/1/1 1/2/1 2/3/1
f 1/2/1 10/1/1 3/4/1
f 6/5/2 4/6/2 5/7/2
f 4/6/2 6/5/2 13/8/2
f 70/9/3 5/10/3 8/11/3
f 5/10/3 70/9/3 6/12/3
f 91/13/4 7/14/4 35/15/4
f 7/14/4 91/13/4 86/16/4
f 7/17/5 8/18/5 35/19/5
f 8/18/5 7/17/5 70/20/5
f 9/21/6 2/22/6 15/23/6
f 2/22/6 9/21/6 10/24/6
f 45/25/7 16/26/7 40/27/7
f 16/26/7 45/25/7 11/28/7
f 4/29/8 87/30/8 12/31/8
f 87/30/8 4/29/8 13/32/8
f 24/33/9 20/34/9 25/35/9
f 20/34/9 24/33/9 80/36/9
f 14/37/10 45/38/10 40/39/10
f 45/38/10 14/37/10 44/40/10
f 11/41/11 15/42/11 16/43/11
f 15/42/11 11/41/11 9/44/11
f 43/45/12 19/46/12 17/47/12
f 19/46/12 43/45/12 23/48/12
f 17/49/13 18/50/13 46/51/13
f 18/50/13 17/49/13 19/52/13
f 80/53/14 22/54/14 20/55/14
f 22/54/14 80/53/14 21/56/14
f 21/57/15 43/58/15 22/59/15
f 43/58/15 21/57/15 23/60/15
f 46/61/16 24/62/16 25/63/16
f 24/62/16 46/61/16 18/64/16
f 3/65/17 14/66/17 1/67/17
f 14/66/17 3/65/17 44/68/17
f 26/69/18 27/70/18 28/71/18
f 60/72/18 26/69/18 28/71/18
f 26/69/19 60/72/19 29/73/19
f 4/74/20 30/75/20 5/76/20
f 5/77/21 31/78/21 8/79/21
f 4/80/22 12/81/22 32/82/22
f 91/83/23 35/84/23 33/85/23
f 8/86/24 34/87/24 35/88/24
f 1/89/25 15/90/25 2/91/25
f 15/90/25 1/89/25 16/92/25
f 16/92/25 1/89/25 14/93/25
f 16/92/25 14/93/25 40/94/25
f 14/95/26 40/96/26 36/97/26
f 14/98/27 37/99/27 1/100/27
f 2/101/21 38/102/21 15/103/21
f 16/104/28 39/105/28 40/106/28
f 1/107/29 41/108/29 2/109/29
f 15/110/30 42/111/30 16/112/30
f 22/113/31 10/114/31 20/115/31
f 10/114/31 22/113/31 43/116/31
f 20/115/31 10/114/31 9/117/31
f 10/114/31 43/116/31 3/118/31
f 3/118/31 43/116/31 17/119/31
f 3/118/31 17/119/31 44/120/31
f 44/120/31 17/119/31 45/121/31
f 9/117/31 25/122/31 20/115/31
f 25/122/31 9/117/31 11/123/31
f 25/122/31 11/123/31 45/121/31
f 25/122/31 45/121/31 46/124/31
f 46/124/31 45/121/31 17/119/31
f 43/125/32 17/126/32 47/127/32
f 17/128/26 46/129/26 48/130/26
f 43/131/33 49/132/33 22/133/33
f 22/134/21 50/135/21 20/136/21
f 51/137/21 52/138/21 29/139/21
f 78/140/26 56/141/26 53/142/26
f 54/143/34 29/144/34 55/145/34
f 29/144/34 54/143/34 51/146/34
f 69/147/35 76/148/35 78/149/35
f 76/148/35 69/147/35 83/150/35
f 56/151/36 57/152/36 60/153/36
f 65/154/37 90/155/37 66/156/37
f 90/155/37 65/154/37 89/157/37
f 46/158/38 25/159/38 58/160/38
f 69/161/39 78/162/39 59/163/39
f 57/164/40 29/165/40 60/166/40
f 20/167/41 61/168/41 25/169/41
f 62/170/42 89/171/42 65/172/42
f 89/171/42 62/170/42 85/173/42
f 66/174/43 74/175/43 63/176/43
f 74/175/43 66/174/43 90/177/43
f 84/178/21 64/179/21 72/180/21
f 65/181/26 66/182/26 67/183/26
f 66/184/44 63/185/44 68/186/44
f 51/187/45 6/188/45 29/189/45
f 6/188/45 51/187/45 69/190/45
f 29/189/45 6/188/45 70/191/45
f 6/188/45 69/190/45 13/192/45
f 13/192/46 69/190/46 87/193/46
f 87/193/45 69/190/45 78/194/45
f 87/193/45 78/194/45 86/195/45
f 70/191/45 60/196/45 29/189/45
f 60/196/45 70/191/45 7/197/45
f 60/196/45 7/197/45 86/195/45
f 60/196/45 86/195/45 56/198/45
f 56/198/45 86/195/45 78/194/45
f 62/199/47 71/200/47 84/201/47
f 72/202/48 73/203/48 63/204/48
f 74/205/49 72/206/49 63/207/49
f 72/206/49 74/205/49 88/208/49
f 56/209/50 60/210/50 75/211/50
f 57/212/46 55/213/46 54/214/46
f 54/214/46 83/215/46 57/212/46
f 83/215/46 77/216/46 57/212/46
f 83/215/45 76/217/45 77/216/45
f 56/218/51 76/219/51 77/220/51
f 76/219/51 56/218/51 78/221/51
f 69/222/52 79/223/52 51/224/52
f 84/225/53 21/226/53 80/227/53
f 21/226/53 84/225/53 62/228/53
f 21/226/53 62/228/53 23/229/53
f 23/229/53 62/228/53 19/230/53
f 19/230/53 62/228/53 65/231/53
f 19/230/53 65/231/53 18/232/53
f 80/227/53 72/233/53 84/225/53
f 72/233/53 80/227/53 63/234/53
f 63/234/53 18/232/53 66/235/53
f 66/235/53 18/232/53 65/231/53
f 88/236/54 84/237/54 72/238/54
f 84/237/54 88/236/54 81/239/54
f 62/240/55 65/241/55 82/242/55
f 54/243/56 69/244/56 51/245/56
f 69/244/56 54/243/56 83/246/56
f 81/247/57 62/248/57 84/249/57
f 62/248/57 81/247/57 85/250/57
f 12/251/58 86/252/58 91/253/58
f 86/252/58 12/251/58 87/254/58
f 5/255/59 81/256/59 8/257/59
f 81/256/59 5/255/59 4/258/59
f 81/256/59 4/258/59 85/259/59
f 85/259/59 4/258/59 12/260/59
f 85/259/59 12/260/59 89/261/59
f 88/262/59 35/263/59 8/257/59
f 35/263/59 88/262/59 74/264/59
f 35/263/59 74/264/59 90/265/59
f 91/266/59 90/265/59 12/260/59
f 12/267/26 91/268/26 92/269/26
s 1
f 57/152/36 56/151/36 77/270/36
f 29/165/40 57/164/40 55/271/40
f 63/234/53 80/227/53 24/272/53
f 63/234/53 24/272/53 18/232/53
f 8/257/59 81/256/59 88/262/59
f 89/261/59 12/260/59 90/265/59
f 35/263/59 90/265/59 91/266/59
