# Blender v2.79 (sub 0) OBJ File: 'Fixing models.blend'
# www.blender.org
mtllib treeStump_old.mtl
o treeStump_old
v 0.176158 0.000000 1.855000
v 1.782635 0.000000 0.927500
v 1.364951 0.735000 -0.686350
v 1.782635 -0.000000 -0.927500
v 0.176158 -0.000000 -1.855000
v 1.364951 0.735000 0.686350
v 1.364951 1.465000 -0.686350
v 0.176158 0.735000 1.372700
v -1.012635 1.749303 0.370653
v -1.012635 1.749303 -0.370653
v -1.012635 2.265000 -0.686350
v -1.430319 0.000000 0.927500
v -1.012635 0.735000 0.686350
v -1.430319 -0.000000 -0.927500
v 1.364951 2.265000 0.686349
v 0.730792 0.926978 -1.052482
v 0.730792 1.416978 -1.052482
v 1.364951 1.865000 -0.686350
v 1.155144 0.926978 -0.807482
v -1.397635 1.127544 -0.289109
v -1.397635 1.672456 -0.289109
v -1.012635 1.050697 -0.370653
v -1.012635 1.050697 0.370653
v -1.397635 1.672456 0.289109
v -1.782635 1.672456 0.289109
v -1.782635 1.672456 -0.289109
v -1.782635 1.127544 -0.289109
v -1.397635 1.127544 0.289109
v -1.782635 1.127544 0.289109
v 1.094067 1.341028 -1.529792
v 1.094067 1.002928 -1.529792
v 1.386870 1.341028 -1.360742
v 1.155144 1.416978 -0.807482
v 1.386870 1.002928 -1.360742
v 0.176158 0.485000 0.977661
v -0.670521 0.485000 -0.488830
v 0.176158 0.485000 -0.977661
v 1.022837 0.485000 -0.488831
v -0.670521 0.485000 0.488830
v 0.176158 1.865000 0.977660
v 1.022837 0.485000 0.488830
v 1.022837 1.465000 0.488830
v 0.176158 1.865000 -0.977661
v 1.022837 1.865000 -0.488831
v -0.670521 1.865000 0.488830
v -0.670521 2.665000 -0.488831
v 1.364951 1.465000 0.686350
v 1.022837 1.465000 -0.488831
v 1.022837 2.265000 0.488830
v 0.176158 2.265000 0.977660
v 0.176158 1.865000 1.372700
v 0.176158 2.265000 1.372699
v -1.012635 1.865000 0.686350
v -0.670521 2.665000 0.488830
v -1.012635 2.665000 -0.686350
v -1.012635 2.665000 0.686350
v 0.176158 0.735000 -1.372700
v -1.012635 0.735000 -0.686350
v -0.670521 2.265000 -0.488831
v 0.176158 2.265000 -1.372700
v 0.176158 1.865000 -1.372700
v 0.176158 2.265000 -0.977661
vt 9.436527 0.091756
vt -8.717016 -9.417698
vt 12.149126 -9.417698
vt -6.004417 0.091756
vt 10.433071 -9.907207
vt -7.720472 -0.397754
vt -10.433071 -9.907207
vt 7.720472 -0.397754
vt 6.004417 0.091756
vt -12.149126 -9.417698
vt 8.717016 -9.417698
vt -9.436527 0.091756
vt -1.981529 20.866142
vt 16.089079 -10.433071
vt 16.089079 10.433071
vt -1.981529 -20.866142
vt -20.052139 10.433071
vt -20.052139 -10.433071
vt 7.720472 8.267716
vt -7.720472 16.479191
vt -7.720472 8.267716
vt 7.720472 16.479191
vt 9.436527 20.978628
vt -6.004417 8.267716
vt 9.436527 8.267716
vt -6.004417 20.978628
vt -7.720472 29.977503
vt 7.720472 20.978628
vt 7.720472 29.977503
vt 4.169324 19.677198
vt 7.720472 8.267716
vt -4.169324 19.677198
vt -4.169324 11.818865
vt 4.169324 11.818865
vt -7.720472 8.267716
vt 7.720472 1.560284
vt -10.433071 -7.949169
vt 10.433071 -7.949169
vt -7.720472 1.560284
vt 9.436527 1.070775
vt -8.717016 -8.438679
vt 12.149126 -8.438679
vt -6.004417 1.070775
vt 6.004417 1.070775
vt -12.149126 -8.438679
vt 8.717016 -8.438679
vt -9.436527 1.070775
vt 9.436527 16.479191
vt -6.004417 8.267716
vt 9.436527 8.267716
vt -6.004417 20.978628
vt 9.436527 25.478065
vt -6.004417 25.478065
vt 6.004417 8.267716
vt -1.199591 10.427205
vt -9.436527 8.267716
vt 6.004417 20.978628
vt -1.199591 15.939016
vt -6.711402 15.939016
vt -9.436527 16.479191
vt -9.436527 20.978628
vt -6.711402 10.427205
vt -3.252073 18.812782
vt 3.252073 12.683281
vt 3.252073 18.812782
vt -3.252073 12.683281
vt -2.053922 15.084685
vt -5.857071 11.281536
vt -2.053922 11.281536
vt -5.857071 15.084685
vt 20.144836 11.281536
vt 13.397616 15.939016
vt 13.397616 10.427205
vt 20.144836 15.084685
vt -21.146524 15.084685
vt -14.399304 10.427205
vt -14.399304 15.939016
vt -21.146524 11.281536
vt -6.711402 -12.229219
vt -2.053922 -18.976439
vt -1.199591 -12.229219
vt -5.857071 -18.976439
vt -2.053922 22.314920
vt -6.711402 15.567701
vt -1.199591 15.567701
vt -5.857071 22.314920
vt 1.981529 -10.997310
vt -7.542420 5.498655
vt -7.542420 -5.498655
vt 1.981529 10.997310
vt 11.505480 -5.498655
vt 11.505480 5.498655
vt 3.782600 20.978628
vt -7.214710 5.455568
vt 3.782600 5.455568
vt -7.214710 20.978628
vt 3.782600 20.978628
vt -7.214710 5.455568
vt 3.782600 5.455568
vt -7.214710 16.479191
vt -7.214710 25.478065
vt 3.782600 25.478065
vt -5.498655 16.479191
vt 5.498655 5.455568
vt 5.498655 16.479191
vt -5.498655 5.455568
vt 7.214710 16.479191
vt -3.782600 5.455568
vt 7.214710 5.455568
vt -3.782600 20.978628
vt 7.214710 20.978628
vt 7.214710 20.978628
vt -3.782600 5.455568
vt 7.214710 5.455568
vt -3.782600 25.478065
vt 7.214710 25.478065
vt 5.498655 5.455568
vt -5.498655 20.978628
vt -5.498655 5.455568
vt -5.498655 29.977503
vt 5.498655 29.977503
vt 11.505480 5.498655
vt 1.981529 15.440945
vt 1.981529 10.997310
vt 15.353780 7.720472
vt 15.353780 -7.720472
vt 11.505480 5.498655
vt 11.505480 -5.498655
vt 15.353780 7.720472
vt -12.713365 25.478065
vt -17.157000 16.479191
vt -12.713365 16.479191
vt -17.157000 25.478065
vt 17.157000 20.978628
vt 12.713365 16.479191
vt 17.157000 16.479191
vt 12.713365 20.978628
vt 15.353780 -7.720472
vt 1.981529 -10.997310
vt 1.981529 -15.440945
vt 11.505480 -5.498655
vt 10.997310 25.478065
vt 15.440945 20.978628
vt 15.440945 25.478065
vt 10.997310 20.978628
vt 1.981529 -15.440945
vt -7.542420 -5.498655
vt -11.390721 -7.720472
vt 1.981529 -10.997310
vt -9.281255 29.977503
vt -13.724890 20.978628
vt -9.281255 20.978628
vt -13.724890 29.977503
vt -7.542420 -5.498655
vt -11.390721 7.720472
vt -11.390721 -7.720472
vt -7.542420 5.498655
vt 13.724890 29.977503
vt 9.281255 25.478065
vt 13.724890 25.478065
vt 9.281255 29.977503
vt 6.004417 25.478065
vt -9.436527 8.267716
vt 6.004417 8.267716
vt -9.436527 20.978628
vt -9.436527 25.478065
vt -7.542420 5.498655
vt 1.981529 15.440945
vt -11.390721 7.720472
vt 1.981529 10.997310
vt 15.440945 20.978628
vt 10.997310 25.478065
vt 10.997310 20.978628
vt 15.440945 25.478065
vt -7.720472 25.478065
vt 4.169324 -7.318750
vt -3.252073 -11.734886
vt 3.252073 -11.734886
vt -4.169324 -7.318750
vt 14.706390 12.683281
vt 10.279610 19.677198
vt 10.279610 11.818865
vt 14.706390 18.812782
vt -4.169324 13.483807
vt 3.252073 17.899942
vt -3.252073 17.899942
vt 4.169324 13.483807
vt -10.279610 19.677198
vt -14.706390 12.683281
vt -10.279610 11.818865
vt -14.706390 18.812782
vt -15.721430 -3.252073
vt -20.052139 3.252073
vt -20.052139 -3.252073
vt -15.721430 3.252073
vt 15.721430 3.252073
vt 20.052139 -3.252073
vt 20.052139 3.252073
vt 15.721430 -3.252073
vt 20.052139 18.812782
vt 15.721430 12.683281
vt 20.052139 12.683281
vt 15.721430 18.812782
vt -15.721430 18.812782
vt -20.052139 12.683281
vt -15.721430 12.683281
vt -20.052139 18.812782
vt 5.498655 25.478065
vn 0.4347 0.4941 0.7529
vn 0.8694 0.4941 -0.0000
vn 0.4347 0.4941 -0.7529
vn 0.0000 -1.0000 0.0000
vn 1.0000 -0.0000 -0.0000
vn -0.5000 0.0000 0.8660
vn -1.0000 0.0000 0.0000
vn -0.8694 0.4941 0.0000
vn -0.4347 0.4941 0.7529
vn -0.4347 0.4941 -0.7529
vn 0.5000 0.0000 0.8660
vn 0.5000 -0.0000 -0.8660
vn 0.9224 0.0000 0.3863
vn -0.7957 -0.0000 -0.6056
vn 0.0633 0.9920 -0.1097
vn 0.0633 -0.9920 -0.1097
vn -0.0000 1.0000 -0.0000
vn -0.5000 -0.0000 -0.8660
vn -0.1957 0.9807 0.0000
vn -0.1044 0.9945 0.0000
vn -0.1102 -0.0000 -0.9939
vn -0.2072 -0.0000 -0.9783
vn -0.1957 -0.9807 0.0000
vn -0.1044 -0.9945 0.0000
vn -0.2072 0.0000 0.9783
vn -0.1102 0.0000 0.9939
vn -0.0000 -0.0000 -1.0000
vn 0.0000 0.0000 1.0000
usemtl natureKit-wood
s off
f 6/1/1 1/2/1 2/3/1
f 1/2/1 6/1/1 8/4/1
f 4/5/2 6/6/2 2/7/2
f 6/6/2 4/5/2 3/8/2
f 57/9/3 4/10/3 5/11/3
f 4/10/3 57/9/3 3/12/3
f 5/13/4 12/14/4 14/15/4
f 12/14/4 5/13/4 1/16/4
f 1/16/4 5/13/4 4/17/4
f 1/16/4 4/17/4 2/18/4
f 3/19/5 47/20/5 6/21/5
f 47/20/5 3/19/5 7/22/5
f 51/23/6 13/24/6 8/25/6
f 13/24/6 51/23/6 53/26/6
f 55/27/7 53/28/7 56/29/7
f 53/28/7 55/27/7 9/30/7
f 53/28/7 9/30/7 13/31/7
f 9/30/7 55/27/7 10/32/7
f 10/32/7 55/27/7 22/33/7
f 23/34/7 13/31/7 9/30/7
f 13/31/7 23/34/7 58/35/7
f 58/35/7 23/34/7 22/33/7
f 58/35/7 22/33/7 55/27/7
f 13/36/8 14/37/8 12/38/8
f 14/37/8 13/36/8 58/39/8
f 8/40/9 12/41/9 1/42/9
f 12/41/9 8/40/9 13/43/9
f 58/44/10 5/45/10 14/46/10
f 5/45/10 58/44/10 57/47/10
f 47/48/11 8/49/11 6/50/11
f 8/49/11 47/48/11 51/51/11
f 51/51/11 47/48/11 15/52/11
f 51/51/11 15/52/11 52/53/11
f 57/54/12 16/55/12 3/56/12
f 16/55/12 57/54/12 61/57/12
f 16/55/12 61/57/12 17/58/12
f 17/58/12 61/57/12 33/59/12
f 33/59/12 61/57/12 7/60/12
f 7/60/12 61/57/12 18/61/12
f 3/56/12 19/62/12 7/60/12
f 19/62/12 3/56/12 16/55/12
f 7/60/12 19/62/12 33/59/12
f 26/63/7 29/64/7 25/65/7
f 29/64/7 26/63/7 27/66/7
f 30/67/12 34/68/12 31/69/12
f 34/68/12 30/67/12 32/70/12
f 34/71/13 33/72/13 19/73/13
f 33/72/13 34/71/13 32/74/13
f 30/75/14 16/76/14 17/77/14
f 16/76/14 30/75/14 31/78/14
f 33/79/15 30/80/15 17/81/15
f 30/80/15 33/79/15 32/82/15
f 31/83/16 19/84/16 16/85/16
f 19/84/16 31/83/16 34/86/16
f 35/87/17 36/88/17 39/89/17
f 36/88/17 35/87/17 37/90/17
f 37/90/17 35/87/17 41/91/17
f 37/90/17 41/91/17 38/92/17
f 45/93/12 35/94/12 39/95/12
f 35/94/12 45/93/12 40/96/12
f 40/97/18 41/98/18 35/99/18
f 41/98/18 40/97/18 42/100/18
f 42/100/18 40/97/18 49/101/18
f 49/101/18 40/97/18 50/102/18
f 48/103/7 41/104/7 42/105/7
f 41/104/7 48/103/7 38/106/7
f 48/107/6 37/108/6 38/109/6
f 37/108/6 48/107/6 43/110/6
f 43/110/6 48/107/6 44/111/6
f 43/112/11 36/113/11 37/114/11
f 36/113/11 43/112/11 59/115/11
f 59/115/11 43/112/11 62/116/11
f 36/117/5 45/118/5 39/119/5
f 45/118/5 36/117/5 54/120/5
f 54/120/5 36/117/5 46/121/5
f 44/122/17 61/123/17 43/124/17
f 61/123/17 44/122/17 18/125/17
f 47/126/17 48/127/17 42/128/17
f 48/127/17 47/126/17 7/129/17
f 49/130/12 47/131/12 42/132/12
f 47/131/12 49/130/12 15/133/12
f 18/134/11 48/135/11 7/136/11
f 48/135/11 18/134/11 44/137/11
f 15/138/17 50/139/17 52/140/17
f 50/139/17 15/138/17 49/141/17
f 50/142/7 51/143/7 52/144/7
f 51/143/7 50/142/7 40/145/7
f 51/146/17 45/147/17 53/148/17
f 45/147/17 51/146/17 40/149/17
f 54/150/11 53/151/11 45/152/11
f 53/151/11 54/150/11 56/153/11
f 54/154/17 55/155/17 56/156/17
f 55/155/17 54/154/17 46/157/17
f 55/158/12 59/159/12 11/160/12
f 59/159/12 55/158/12 46/161/12
f 11/162/18 57/163/18 58/164/18
f 57/163/18 11/162/18 61/165/18
f 61/165/18 11/162/18 60/166/18
f 59/167/17 60/168/17 11/169/17
f 60/168/17 59/167/17 62/170/17
f 61/171/5 62/172/5 43/173/5
f 62/172/5 61/171/5 60/174/5
s 1
f 58/35/7 55/27/7 11/175/7
f 9/176/19 21/177/20 24/178/20
f 21/177/20 9/176/19 10/179/19
f 20/180/21 10/181/22 22/182/22
f 10/181/22 20/180/21 21/183/21
f 22/184/23 28/185/24 20/186/24
f 28/185/24 22/184/23 23/187/23
f 9/188/25 28/189/26 23/190/25
f 28/189/26 9/188/25 24/191/26
f 24/192/20 26/193/17 25/194/17
f 26/193/17 24/192/20 21/195/20
f 20/196/24 29/197/4 27/198/4
f 29/197/4 20/196/24 28/199/24
f 26/200/27 20/201/21 27/202/27
f 20/201/21 26/200/27 21/203/21
f 24/204/26 29/205/28 28/206/26
f 29/205/28 24/204/26 25/207/28
f 46/121/17 36/117/17 59/208/17
