# Blender v2.79 (sub 0) OBJ File: 'Fixing models.blend'
# www.blender.org
mtllib treeStump.mtl
o treeStump
v -1.406457 -0.000000 -1.406456
v 1.406457 0.000000 1.406456
v -0.537533 2.105000 -0.537533
v -0.833011 2.105000 0.833011
v -0.833012 2.105000 -0.833012
v 1.049595 0.805000 1.049594
v 1.406456 -0.000000 -1.406457
v 0.833012 2.105000 0.833011
v -1.049595 0.805000 -1.049595
v 0.833011 2.105000 -0.833012
v 1.049594 0.805000 -1.049595
v -1.406456 0.000000 1.406457
v -1.049594 0.805000 1.049594
v 0.376273 1.805000 0.376273
v -0.376273 1.805000 -0.376273
v 0.376273 1.805000 -0.376273
v -0.376273 1.805000 0.376273
v 0.537533 2.105000 0.537533
v -0.537533 2.105000 0.537533
v 0.537533 2.105000 -0.537533
vt -15.820660 15.820660
vt 15.820660 -15.820660
vt 15.820660 15.820660
vt -15.820660 -15.820660
vt -9.370209 -9.370209
vt -6.046491 -6.046491
vt -9.370209 9.370209
vt 9.370209 -9.370209
vt 6.046491 -6.046491
vt 6.046491 6.046491
vt -6.046491 6.046491
vt 9.370209 9.370209
vt 11.806462 3.493358
vt -15.820660 -6.411638
vt 15.820660 -6.411638
vt -11.806462 3.493358
vt 11.806462 3.493358
vt -15.820660 -6.411638
vt 15.820660 -6.411638
vt -11.806462 3.493358
vt 9.370209 21.816492
vt -11.806462 6.991765
vt 11.806462 6.991765
vt -9.370209 21.816492
vt 15.820660 -15.819107
vt -11.806462 -11.804516
vt -15.820660 -15.819107
vt 17.920973 -4.706997
vt 13.373861 4.964946
vt -9.996247 -4.646923
vt 8.979336 22.503862
vt -12.279223 7.796805
vt 11.313964 -1.253691
vt -9.370209 21.816492
vt -11.806462 6.991765
vt 9.370209 21.816492
vt 9.370209 21.816492
vt -11.806462 6.991765
vt 11.806462 6.991765
vt -9.370209 21.816492
vt 12.279223 7.796805
vt -8.979336 22.503862
vt -11.313964 -1.253691
vt 11.806462 6.991765
vt 9.370209 21.816492
vt -9.370209 21.816492
vt 15.820660 -15.819107
vt 11.806462 -11.804516
vt -15.820660 -15.819107
vt -13.373861 4.964946
vt -17.920973 -4.706997
vt 9.996247 -4.646923
vt 4.232543 -4.232543
vt -4.232543 4.232543
vt -4.232543 -4.232543
vt 4.232543 4.232543
vt 6.046491 23.718935
vt -4.232543 19.887722
vt 4.232543 19.887722
vt -6.046491 23.718935
vt -6.046491 23.718935
vt 4.232543 19.887722
vt 6.046491 23.718935
vt -4.232543 19.887722
vt -4.232543 19.887722
vt 6.046491 23.718935
vt -6.046491 23.718935
vt 4.232543 19.887722
vt 6.046491 23.718935
vt -4.232543 19.887722
vt 4.232543 19.887722
vt -6.046491 23.718935
vn 0.0000 -1.0000 0.0000
vn 0.0000 1.0000 0.0000
vn -0.9518 0.3068 0.0000
vn -0.9142 0.4053 0.0000
vn -0.0000 0.3068 -0.9518
vn -0.0000 0.4053 -0.9142
vn -0.9864 0.1643 0.0000
vn 0.9142 0.4053 -0.0000
vn 0.9518 0.3068 -0.0000
vn 0.0000 0.1643 0.9864
vn 0.0000 0.3068 0.9518
vn -0.0000 0.1643 -0.9864
vn 0.9864 0.1643 -0.0000
vn 0.0000 0.4053 0.9142
vn 0.0000 0.4735 -0.8808
vn -0.8808 0.4735 0.0000
vn 0.8808 0.4735 -0.0000
vn 0.0000 0.4735 0.8808
usemtl natureKit-wood
s off
f 7/1/1 12/2/1 1/3/1
f 12/2/1 7/1/1 2/4/1
f 4/5/2 19/6/2 5/7/2
f 19/6/2 4/5/2 8/8/2
f 19/6/2 8/8/2 18/9/2
f 18/9/2 8/8/2 20/10/2
f 3/11/2 5/7/2 19/6/2
f 5/7/2 3/11/2 10/12/2
f 10/12/2 3/11/2 20/10/2
f 10/12/2 20/10/2 8/8/2
s 1
f 13/13/3 1/14/4 12/15/4
f 1/14/4 13/13/3 9/16/3
f 9/17/5 7/18/6 1/19/6
f 7/18/6 9/17/5 11/20/5
f 4/21/7 9/22/3 13/23/3
f 9/22/3 4/21/7 5/24/7
f 7/25/8 6/26/9 2/27/8
f 7/28/8 11/29/9 6/30/9
f 8/31/10 13/32/11 6/33/11
f 4/34/10 13/35/11 8/36/10
f 5/37/12 11/38/5 9/39/5
f 11/38/5 5/37/12 10/40/12
f 11/41/9 8/42/13 6/43/9
f 11/44/9 10/45/13 8/46/13
f 2/47/14 6/48/11 12/49/14
f 13/50/11 12/51/14 6/52/11
usemtl natureKit-woodLight
s off
f 14/53/2 15/54/2 17/55/2
f 15/54/2 14/53/2 16/56/2
f 19/57/15 14/58/15 17/59/15
f 14/58/15 19/57/15 18/60/15
f 20/61/16 14/62/16 18/63/16
f 14/62/16 20/61/16 16/64/16
f 17/65/17 3/66/17 19/67/17
f 3/66/17 17/65/17 15/68/17
f 20/69/18 15/70/18 16/71/18
f 15/70/18 20/69/18 3/72/18
