# Blender v2.79 (sub 0) OBJ File: 'Fixing models.blend'
# www.blender.org
mtllib treeStump_round_side.mtl
o treeStump_round_side
v 1.782635 -0.000000 -0.927500
v 0.176158 0.735000 -1.372700
v 0.176158 -0.000000 -1.855000
v 0.176158 0.000000 1.855000
v 1.782635 0.000000 0.927500
v -1.012635 2.065000 0.686350
v -0.670521 2.065000 0.488830
v -1.012635 2.065000 -0.686350
v 1.364951 2.065000 0.686349
v 1.022837 2.065000 0.488830
v 1.022837 2.065000 -0.488831
v 0.176158 2.065000 -1.372700
v 0.176158 2.065000 -0.977661
v 1.364951 0.735000 -0.686350
v 1.364951 0.735000 0.686350
v 0.176158 2.065000 1.372699
v 0.176158 0.735000 1.372700
v -1.012635 1.749303 0.370653
v -1.012635 1.749303 -0.370653
v -1.012635 0.735000 -0.686350
v -1.430319 0.000000 0.927500
v -1.012635 0.735000 0.686350
v -1.430319 -0.000000 -0.927500
v 0.730792 1.416978 -1.052482
v 1.364951 2.065000 -0.686351
v -1.397635 1.672456 -0.289109
v -1.012635 1.050697 -0.370653
v -1.397635 1.127544 0.289109
v -1.012635 1.050697 0.370653
v -1.782635 1.127544 0.289109
v -1.782635 1.127544 -0.289109
v -1.782635 1.672456 -0.289109
v -1.397635 1.127544 -0.289109
v -1.397635 1.672456 0.289109
v -1.782635 1.672456 0.289109
v 1.094067 1.341028 -1.529792
v 1.386870 1.002928 -1.360742
v 1.386870 1.341028 -1.360742
v 1.155144 1.416978 -0.807482
v 0.730792 0.926978 -1.052482
v 1.094067 1.002928 -1.529792
v 1.155144 0.926978 -0.807482
v -0.501185 1.785000 0.391064
v 0.853501 1.785000 0.391064
v -0.501185 1.785000 -0.391065
v -0.670521 2.065000 -0.488831
v 0.176158 2.065000 0.977660
v 0.176158 1.785000 0.782128
v 0.176158 1.785000 -0.782129
v 0.853501 1.785000 -0.391065
vt 9.436527 0.091756
vt -8.717016 -9.417698
vt 12.149126 -9.417698
vt -6.004417 0.091756
vt 10.433071 -9.907207
vt -7.720472 -0.397754
vt -10.433071 -9.907207
vt 7.720472 -0.397754
vt 6.004417 0.091756
vt -12.149126 -9.417698
vt 8.717016 -9.417698
vt -9.436527 0.091756
vt -1.981529 20.866142
vt 16.089079 -10.433071
vt 16.089079 10.433071
vt -1.981529 -20.866142
vt -20.052139 10.433071
vt -20.052139 -10.433071
vt -11.390721 -7.720472
vt -7.542420 -5.498655
vt -11.390721 7.720472
vt 1.981529 -15.440945
vt 1.981529 -10.997310
vt 15.353780 -7.720472
vt 11.505480 -5.498655
vt 11.505480 5.498655
vt -7.542420 5.498655
vt 1.981529 15.440945
vt 1.981529 10.997310
vt 15.353780 7.720472
vt 7.720472 8.267716
vt -7.720472 23.228346
vt -7.720472 8.267716
vt 7.720472 23.228346
vt 9.436527 23.228346
vt -6.004417 8.267716
vt 9.436527 8.267716
vt -6.004417 23.228346
vt 7.720472 23.228346
vt 4.169324 19.677198
vt 7.720472 8.267716
vt -7.720472 23.228346
vt -4.169324 19.677198
vt -4.169324 11.818865
vt 4.169324 11.818865
vt -7.720472 8.267716
vt 7.720472 1.560284
vt -10.433071 -7.949169
vt 10.433071 -7.949169
vt -7.720472 1.560284
vt 9.436527 1.070775
vt -8.717016 -8.438679
vt 12.149126 -8.438679
vt -6.004417 1.070775
vt 6.004417 1.070775
vt -12.149126 -8.438679
vt 8.717016 -8.438679
vt -9.436527 1.070775
vt 9.436527 23.228346
vt -6.004417 8.267716
vt 9.436527 8.267716
vt -6.004417 23.228346
vt 6.004417 8.267716
vt -1.199591 10.427205
vt -9.436527 8.267716
vt 6.004417 23.228346
vt -1.199591 15.939016
vt -6.711402 15.939016
vt -6.711402 10.427205
vt -9.436527 23.228346
vt 6.004417 23.228346
vt -9.436527 8.267716
vt 6.004417 8.267716
vt -9.436527 23.228346
vt -3.252073 18.812782
vt 3.252073 12.683281
vt 3.252073 18.812782
vt -3.252073 12.683281
vt -2.053922 15.084685
vt -5.857071 11.281536
vt -2.053922 11.281536
vt -5.857071 15.084685
vt 20.144836 11.281536
vt 13.397616 15.939016
vt 13.397616 10.427205
vt 20.144836 15.084685
vt -21.146524 15.084685
vt -14.399304 10.427205
vt -14.399304 15.939016
vt -21.146524 11.281536
vt -6.711402 -12.229219
vt -2.053922 -18.976439
vt -1.199591 -12.229219
vt -5.857071 -18.976439
vt -2.053922 22.314920
vt -6.711402 15.567701
vt -1.199591 15.567701
vt -5.857071 22.314920
vt 4.169324 -7.318750
vt -3.252073 -11.734886
vt 3.252073 -11.734886
vt -4.169324 -7.318750
vt 14.706390 12.683281
vt 10.279610 19.677198
vt 10.279610 11.818865
vt 14.706390 18.812782
vt -4.169324 13.483807
vt 3.252073 17.899942
vt -3.252073 17.899942
vt 4.169324 13.483807
vt -10.279610 19.677198
vt -14.706390 12.683281
vt -10.279610 11.818865
vt -14.706390 18.812782
vt -15.721430 -3.252073
vt -20.052139 3.252073
vt -20.052139 -3.252073
vt -15.721430 3.252073
vt 15.721430 3.252073
vt 20.052139 -3.252073
vt 20.052139 3.252073
vt 15.721430 -3.252073
vt 20.052139 18.812782
vt 15.721430 12.683281
vt 20.052139 12.683281
vt 15.721430 18.812782
vt -15.721430 18.812782
vt -20.052139 12.683281
vt -15.721430 12.683281
vt -20.052139 18.812782
vt 1.981529 -8.797848
vt -5.637630 4.398924
vt -5.637630 -4.398924
vt 1.981529 8.797848
vt 9.600690 -4.398924
vt 9.600690 4.398924
vt -4.398924 20.098551
vt 5.498655 23.779346
vt -5.498655 23.779346
vt 4.398924 20.098551
vt 7.214710 24.292061
vt -2.682869 20.611267
vt 6.114979 20.611267
vt -3.782600 24.292061
vt 3.782600 25.317492
vt -6.114979 21.636698
vt 2.682869 21.636698
vt -7.214710 25.317492
vt 7.214710 25.317492
vt -2.682869 21.636698
vt 6.114979 21.636698
vt -3.782600 25.317492
vt 3.782600 24.292061
vt -6.114979 20.611267
vt 2.682869 20.611267
vt -7.214710 24.292061
vt -5.498655 25.830206
vt 4.398924 22.149412
vt 5.498655 25.830206
vt -4.398924 22.149412
vn 0.4347 0.4941 0.7529
vn 0.8694 0.4941 -0.0000
vn 0.4347 0.4941 -0.7529
vn 0.0000 -1.0000 0.0000
vn 0.0000 1.0000 0.0000
vn 1.0000 0.0000 -0.0000
vn -0.5000 0.0000 0.8660
vn -1.0000 0.0000 0.0000
vn -0.8694 0.4941 0.0000
vn -0.4347 0.4941 0.7529
vn -0.4347 0.4941 -0.7529
vn 0.5000 0.0000 0.8660
vn 0.5000 -0.0000 -0.8660
vn -0.5000 -0.0000 -0.8660
vn 0.9224 0.0000 0.3863
vn -0.7957 -0.0000 -0.6056
vn 0.0633 0.9920 -0.1097
vn 0.0633 -0.9920 -0.1097
vn -0.1957 0.9807 0.0000
vn -0.1044 0.9945 0.0000
vn -0.1102 -0.0000 -0.9939
vn -0.2072 -0.0000 -0.9783
vn -0.1957 -0.9807 0.0000
vn -0.1044 -0.9945 0.0000
vn -0.2072 0.0000 0.9783
vn -0.1102 0.0000 0.9939
vn -0.0000 -0.0000 -1.0000
vn 0.0000 0.0000 1.0000
vn 0.8557 0.5175 -0.0000
vn 0.4278 0.5175 0.7410
vn -0.4278 0.5175 -0.7410
vn -0.4278 0.5175 0.7410
vn 0.4278 0.5175 -0.7410
vn -0.8557 0.5175 0.0000
usemtl natureKit-wood
s off
f 15/1/1 4/2/1 5/3/1
f 4/2/1 15/1/1 17/4/1
f 1/5/2 15/6/2 5/7/2
f 15/6/2 1/5/2 14/8/2
f 2/9/3 1/10/3 3/11/3
f 1/10/3 2/9/3 14/12/3
f 3/13/4 21/14/4 23/15/4
f 21/14/4 3/13/4 4/16/4
f 4/16/4 3/13/4 1/17/4
f 4/16/4 1/17/4 5/18/4
f 6/19/5 7/20/5 8/21/5
f 7/20/5 6/19/5 16/22/5
f 7/20/5 16/22/5 47/23/5
f 47/23/5 16/22/5 9/24/5
f 47/23/5 9/24/5 10/25/5
f 10/25/5 9/24/5 11/26/5
f 46/27/5 8/21/5 7/20/5
f 8/21/5 46/27/5 12/28/5
f 12/28/5 46/27/5 13/29/5
f 12/28/5 13/29/5 11/26/5
f 12/28/5 11/26/5 25/30/5
f 25/30/5 11/26/5 9/24/5
f 14/31/6 9/32/6 15/33/6
f 9/32/6 14/31/6 25/34/6
f 16/35/7 22/36/7 17/37/7
f 22/36/7 16/35/7 6/38/7
f 6/39/8 18/40/8 22/41/8
f 18/40/8 6/39/8 8/42/8
f 18/40/8 8/42/8 19/43/8
f 19/43/8 8/42/8 27/44/8
f 29/45/8 22/41/8 18/40/8
f 22/41/8 29/45/8 20/46/8
f 20/46/8 29/45/8 27/44/8
f 20/46/8 27/44/8 8/42/8
f 22/47/9 23/48/9 21/49/9
f 23/48/9 22/47/9 20/50/9
f 17/51/10 21/52/10 4/53/10
f 21/52/10 17/51/10 22/54/10
f 20/55/11 3/56/11 23/57/11
f 3/56/11 20/55/11 2/58/11
f 9/59/12 17/60/12 15/61/12
f 17/60/12 9/59/12 16/62/12
f 2/63/13 40/64/13 14/65/13
f 40/64/13 2/63/13 12/66/13
f 40/64/13 12/66/13 24/67/13
f 24/67/13 12/66/13 39/68/13
f 42/69/13 14/65/13 40/64/13
f 14/65/13 42/69/13 25/70/13
f 25/70/13 42/69/13 39/68/13
f 25/70/13 39/68/13 12/66/13
f 8/71/14 2/72/14 20/73/14
f 2/72/14 8/71/14 12/74/14
f 32/75/8 30/76/8 35/77/8
f 30/76/8 32/75/8 31/78/8
f 36/79/13 37/80/13 41/81/13
f 37/80/13 36/79/13 38/82/13
f 37/83/15 39/84/15 42/85/15
f 39/84/15 37/83/15 38/86/15
f 36/87/16 40/88/16 24/89/16
f 40/88/16 36/87/16 41/90/16
f 39/91/17 36/92/17 24/93/17
f 36/92/17 39/91/17 38/94/17
f 41/95/18 42/96/18 40/97/18
f 42/96/18 41/95/18 37/98/18
s 1
f 18/99/19 26/100/20 34/101/20
f 26/100/20 18/99/19 19/102/19
f 33/103/21 19/104/22 27/105/22
f 19/104/22 33/103/21 26/106/21
f 27/107/23 28/108/24 33/109/24
f 28/108/24 27/107/23 29/110/23
f 18/111/25 28/112/26 29/113/25
f 28/112/26 18/111/25 34/114/26
f 34/115/20 32/116/5 35/117/5
f 32/116/5 34/115/20 26/118/20
f 33/119/24 30/120/4 31/121/4
f 30/120/4 33/119/24 28/122/24
f 32/123/27 33/124/21 31/125/27
f 33/124/21 32/123/27 26/126/21
f 34/127/26 30/128/28 28/129/26
f 30/128/28 34/127/26 35/130/28
usemtl natureKit-woodLight
s off
f 48/131/5 45/132/5 43/133/5
f 45/132/5 48/131/5 49/134/5
f 49/134/5 48/131/5 44/135/5
f 49/134/5 44/135/5 50/136/5
f 43/137/29 46/138/29 7/139/29
f 46/138/29 43/137/29 45/140/29
f 13/141/30 45/142/30 49/143/30
f 45/142/30 13/141/30 46/144/30
f 47/145/31 44/146/31 48/147/31
f 44/146/31 47/145/31 10/148/31
f 11/149/32 49/150/32 50/151/32
f 49/150/32 11/149/32 13/152/32
f 7/153/33 48/154/33 43/155/33
f 48/154/33 7/153/33 47/156/33
f 11/157/34 44/158/34 10/159/34
f 44/158/34 11/157/34 50/160/34
