# Blender v2.79 (sub 0) OBJ File: 'Fixing models.blend'
# www.blender.org
mtllib ground_dirtRiverEntrance.mtl
o ground_dirtRiverEntrance
v 0.939853 2.500001 -7.195308
v 0.939853 2.000001 -7.195308
v 0.617058 2.000001 -7.275190
v 9.026206 2.500002 -7.854781
v 9.026206 2.000002 -7.854781
v 10.000002 2.000001 -0.000001
v 10.000002 2.500002 -8.125001
v 10.000002 0.000001 -0.000001
v 10.000002 0.000002 -10.000001
v 10.000001 2.000002 -7.500001
v 10.000002 2.500002 -10.000001
v 7.226725 2.000002 -8.266439
v 7.285837 2.000002 -8.216456
v 1.396907 2.000001 -7.158809
v 1.396907 2.500001 -7.158809
v 7.500000 2.000002 -10.000001
v 1.473901 2.500001 -7.181120
v 2.019156 2.000001 -8.516794
v 2.019156 2.500001 -8.516794
v 7.497291 2.000002 -8.124483
v 7.497291 2.500002 -8.124483
v -0.000001 2.500001 -10.000001
v 2.500000 2.500001 -10.000001
v 1.394156 2.500001 -8.516794
v 1.303505 2.500001 -7.996871
v -0.000001 2.500001 -7.500001
v 0.303076 2.500001 -7.376980
v 1.829048 2.500001 -7.489431
v 7.696338 2.500002 -8.727654
v 7.500000 2.500002 -10.000001
v 7.422570 2.500002 -8.144717
v 7.305859 2.500002 -9.521708
v 7.226725 2.500002 -8.266439
v 7.080463 2.500002 -8.764527
v 7.068289 2.500002 -8.610598
v 7.930859 2.500002 -9.521708
v 8.125002 2.500002 -10.000001
v 7.574158 2.500002 -8.115320
v 9.521708 2.500002 -7.694142
v 7.100886 2.500002 -8.459666
v 7.068755 2.500002 -8.688007
v -0.000001 0.000001 -10.000001
v 2.145221 2.500001 -9.026206
v 7.079076 2.000002 -8.533941
v 1.616741 2.000001 -7.253241
v 1.680406 2.000001 -7.301949
v 1.680406 2.500001 -7.301948
v 0.303076 2.500001 -8.001981
v -0.000001 2.500001 -8.125001
v 0.617058 2.500001 -7.275190
v 0.939852 2.500001 -7.820308
v 1.520220 2.500001 -9.026206
v 1.616741 2.500001 -7.253240
v 1.874999 2.500001 -10.000001
v 1.899598 2.500001 -7.718050
v 7.422571 2.000002 -8.144717
v 1.237638 2.500001 -7.143387
v 1.317750 2.500001 -7.146168
v 7.068289 2.000002 -8.610598
v 7.080464 2.000002 -8.764527
v 7.145221 2.500002 -9.026206
v 7.145222 2.000002 -9.026206
v 7.305860 2.000002 -9.521708
v 7.133258 2.500002 -8.389348
v 7.100886 2.000002 -8.459666
v 2.500000 2.000001 -10.000001
v 2.305859 2.500001 -9.521708
v 2.305859 2.000001 -9.521708
v 1.899598 2.000001 -7.718050
v 1.928505 2.500001 -7.996871
v 7.079076 2.500002 -8.533941
v 7.351584 2.500002 -8.175593
v 1.861953 2.000001 -7.562527
v 1.861953 2.500001 -7.562526
v 8.516794 2.500002 -7.980845
v 8.516794 2.000002 -7.980845
v 7.996871 2.500002 -8.071495
v 1.787376 2.500001 -7.420953
v 1.787376 2.000001 -7.420953
v 1.737575 2.500001 -7.358139
v 1.547554 2.000001 -7.212758
v 1.495229 2.500001 -7.190281
v 1.547554 2.500001 -7.212758
v 1.885590 2.500001 -7.639123
v -0.000001 2.500001 -8.417695
v 0.000000 0.000000 -0.000000
v -0.000000 2.000000 0.000000
v -0.000001 2.500001 -9.417651
v 10.000001 2.500002 -7.500001
v 7.285837 2.500002 -8.216456
v 7.351585 2.000002 -8.175593
v 7.175503 2.000002 -8.324480
v 7.175503 2.500002 -8.324480
v 7.133258 2.000002 -8.389348
v 0.303076 2.000001 -7.376980
v 1.237638 2.000001 -7.143387
v 1.317750 2.000001 -7.146168
v 1.737575 2.000001 -7.358139
v 1.829048 2.000001 -7.489431
v 2.145221 2.000001 -9.026206
v 7.574158 2.000002 -8.115320
v 7.068755 2.000002 -8.688007
v 0.617058 2.500001 -7.900190
v 1.680858 2.500001 -9.521708
v 1.495228 2.500001 -8.925216
v 1.269309 2.500001 -7.762866
v 1.279138 2.500001 -7.761847
v 7.996871 2.500002 -8.696495
v 7.770221 2.500002 -9.026206
v 8.516795 2.500002 -8.605844
v 9.026207 2.500002 -8.479779
v 9.521709 2.500002 -8.319140
v -0.000001 2.000001 -7.500001
v 1.473901 2.000001 -7.181120
v 1.495229 2.000001 -7.190281
v 1.885591 2.000001 -7.639123
v 1.928505 2.000001 -7.996872
v 7.996871 2.000002 -8.071495
v 9.521708 2.000002 -7.694142
vt 39.370079 0.000000
vt 0.000000 7.874016
vt 0.000000 0.000000
vt 29.527559 7.874016
vt 29.527559 9.842520
vt 31.988190 9.842520
vt 39.370079 9.842520
vt 39.370079 7.874016
vt 0.000000 0.000000
vt 39.370079 0.000000
vt 0.000000 7.874016
vt -45.552578 7.874016
vt -47.584831 9.842520
vt -47.584831 7.874016
vt -0.000000 9.842520
vt -39.370079 0.000000
vt -0.000000 0.000000
vt -9.842520 7.874016
vt -9.842520 9.842520
vt -29.527559 7.874016
vt -39.370079 9.842520
vt -29.527559 9.842520
vt 5.035980 30.558447
vt 5.131910 31.483744
vt 4.997281 30.562460
vt 0.000000 31.988190
vt 0.000000 29.527559
vt 1.193215 31.503859
vt 1.193215 29.043228
vt 2.429364 31.103109
vt 2.429364 28.642479
vt 3.700209 30.788610
vt 3.700209 28.327980
vt 4.872591 28.123569
vt 5.187994 28.134516
vt 5.488805 33.530685
vt 5.499638 28.184286
vt 5.886728 35.138641
vt 5.802761 28.272123
vt 5.886728 28.308191
vt 6.092732 28.396683
vt 5.985122 35.536240
vt 6.617556 37.487038
vt 6.365123 28.556063
vt 6.615772 28.747828
vt 6.840848 28.969049
vt 7.381890 39.370079
vt 7.036916 29.216349
vt 7.200977 29.485947
vt 7.330528 29.773722
vt 7.423587 30.075283
vt 7.592540 31.483744
vt 7.949435 33.530685
vt 8.445752 35.536240
vt 9.078186 37.487038
vt 9.842520 39.370079
vt 7.478734 30.386021
vt 31.483744 31.777538
vt 30.300543 34.360836
vt 29.819517 31.950077
vt 31.483744 34.238167
vt 33.530685 33.881275
vt 33.530685 31.420645
vt 35.536240 33.384956
vt 35.536240 30.924326
vt 37.487038 32.752522
vt 37.487038 30.291893
vt 39.370079 31.988190
vt 39.370079 29.527559
vt 29.527559 39.370079
vt 29.516891 31.986151
vt 29.222717 32.065811
vt 28.943243 32.187374
vt 28.763226 37.487038
vt 28.684395 32.348251
vt 28.451672 32.545033
vt 28.250010 32.773540
vt 28.130793 35.536240
vt 28.083691 33.028927
vt 27.956244 33.305771
vt 27.875839 34.506012
vt 27.870377 33.598190
vt 27.829742 34.204750
vt 27.827908 33.899986
vt 30.591421 35.536240
vt 31.223854 37.487038
vt 31.988190 39.370079
vt -39.370079 39.370079
vt 0.000000 39.370079
vt -39.370079 0.000000
vt 38.148998 9.842520
vt 40.181252 7.874016
vt 40.181252 9.842520
vt 16.581640 9.842520
vt 16.490253 7.874016
vt 16.581640 7.874016
vt 16.805847 7.874016
vt -11.105366 7.874016
vt -9.817601 9.842520
vt -11.105366 9.842520
vt -31.988190 9.842520
vt -29.527559 7.874016
vt -29.527559 9.842520
vt -39.370079 0.000000
vt -33.140530 9.842520
vt -37.077366 9.842520
vt -39.370079 9.842520
vt 25.374098 9.842520
vt 23.341845 7.874016
vt 25.374098 7.874016
vt -6.522123 9.842520
vt -7.821610 7.874016
vt -6.522123 7.874016
vt -7.821610 9.842520
vt -3.213236 9.842520
vt -4.522418 7.874016
vt -3.213236 7.874016
vt -4.522418 9.842520
vt 27.066839 9.842520
vt 25.000786 7.874016
vt 27.066839 7.874016
vt 25.000786 9.842520
vt 28.038935 9.842520
vt 26.365788 7.874016
vt 28.038935 7.874016
vt 26.365788 9.842520
vt 26.318165 9.842520
vt 24.267412 7.874016
vt 26.318165 7.874016
vt 24.267412 9.842520
vt 1.017154 9.842520
vt 0.712385 7.874016
vt 1.017154 7.874016
vt 0.712385 9.842520
vt 36.524521 7.874016
vt 34.458469 9.842520
vt 34.458469 7.874016
vt 36.524521 9.842520
vt 9.875666 9.842520
vt 9.560073 7.874016
vt 9.875666 7.874016
vt 9.560073 9.842520
vt -45.552578 9.842520
vt 13.442229 9.842520
vt 13.126637 7.874016
vt 13.442229 7.874016
vt 13.126637 9.842520
vt 34.397781 7.874016
vt 32.319962 9.842520
vt 32.319962 7.874016
vt 34.397781 9.842520
vt 25.828190 9.842520
vt 25.523422 7.874016
vt 25.828190 7.874016
vt 25.523422 9.842520
vt -7.381890 9.842520
vt -31.988190 9.842520
vt -38.325310 9.842520
vt -38.020542 7.874016
vt -38.020542 9.842520
vt -38.325310 7.874016
vt 38.459538 7.874016
vt 36.408787 9.842520
vt 36.408787 7.874016
vt 38.459538 9.842520
vt -24.384602 9.842520
vt -24.079834 7.874016
vt -24.079834 9.842520
vt -24.384602 7.874016
vt 22.722591 9.842520
vt 22.407000 7.874016
vt 22.722591 7.874016
vt 22.407000 9.842520
vt 20.129963 9.842520
vt 19.825195 7.874016
vt 20.129963 7.874016
vt 19.825195 9.842520
vt 6.160644 7.874016
vt 5.845051 9.842520
vt 5.845051 7.874016
vt 6.160644 9.842520
vt -34.371601 9.842520
vt -34.066833 7.874016
vt -34.066833 9.842520
vt -34.371601 7.874016
vt -41.253361 9.842520
vt -40.192055 7.874016
vt -40.192055 9.842520
vt -41.253361 7.874016
vt -44.530224 9.842520
vt -42.479473 7.874016
vt -42.479473 9.842520
vt -44.530224 7.874016
vt -18.563288 9.842520
vt -18.258520 7.874016
vt -18.258520 9.842520
vt -18.563288 7.874016
vt -5.880194 9.842520
vt -5.575426 7.874016
vt -5.575426 9.842520
vt -5.880194 7.874016
vt 38.148998 7.874016
vt 32.098854 7.874016
vt 30.995245 9.842520
vt 30.995245 7.874016
vt 32.098854 9.842520
vt -29.691587 9.842520
vt -29.386818 7.874016
vt -29.386818 9.842520
vt -29.691587 7.874016
vt 14.007710 9.842520
vt 13.702943 7.874016
vt 14.007710 7.874016
vt 13.702943 9.842520
vt 30.158678 7.874016
vt 29.843086 9.842520
vt 29.843086 7.874016
vt 30.158678 9.842520
vt 27.635431 9.842520
vt 25.557610 7.874016
vt 27.635431 7.874016
vt 25.557610 9.842520
vt 28.931990 7.874016
vt 28.616398 9.842520
vt 28.616398 7.874016
vt 28.931990 9.842520
vt 25.185328 9.842520
vt 24.869736 7.874016
vt 25.185328 7.874016
vt 24.869736 9.842520
vt 19.915134 9.842520
vt 19.599543 7.874016
vt 19.915134 7.874016
vt 19.599543 9.842520
vt 16.490253 9.842520
vt 16.805847 9.842520
vt 30.927046 7.874016
vt 30.611454 9.842520
vt 30.611454 7.874016
vt 30.927046 9.842520
vt -0.030433 9.842520
vt -1.220502 7.874016
vt -0.030433 7.874016
vt -1.220502 9.842520
vt -9.817601 7.874016
vt 27.265722 7.874016
vt 26.950129 9.842520
vt 26.950129 7.874016
vt 27.265722 9.842520
vt 31.225355 7.874016
vt 30.909763 9.842520
vt 30.909763 7.874016
vt 31.225355 9.842520
vt 23.341845 9.842520
vt 7.591379 9.842520
vt 7.286611 7.874016
vt 7.591379 7.874016
vt 7.286611 9.842520
vt -12.351201 9.842520
vt -12.046432 7.874016
vt -12.046432 9.842520
vt -12.351201 7.874016
vt 0.000000 39.370079
vt 0.000000 37.077366
vt 0.000000 33.140530
vt 39.370079 39.370079
vt 0.000000 29.527559
vt 0.000000 0.000000
vt 1.193215 29.043228
vt 39.370079 0.000000
vt 2.429364 28.642479
vt 3.700209 28.327980
vt 4.872591 28.123569
vt 5.187994 28.134516
vt 5.499638 28.184286
vt 5.802761 28.272123
vt 5.886728 28.308191
vt 6.092732 28.396683
vt 6.365123 28.556063
vt 6.615772 28.747828
vt 6.840848 28.969049
vt 7.036916 29.216349
vt 7.200977 29.485947
vt 7.330528 29.773722
vt 7.423587 30.075283
vt 7.478734 30.386021
vt 7.592540 31.483744
vt 7.949435 33.530685
vt 8.445752 35.536240
vt 9.078186 37.487038
vt 9.842520 39.370079
vt 27.956244 33.305771
vt 27.870377 33.598190
vt 27.827908 33.899986
vt 28.083691 33.028927
vt 28.250010 32.773540
vt 28.451672 32.545033
vt 28.684395 32.348251
vt 28.943243 32.187374
vt 29.222717 32.065811
vt 29.516891 31.986151
vt 29.819517 31.950077
vt 27.829742 34.204750
vt 27.875839 34.506012
vt 28.130793 35.536240
vt 28.763226 37.487038
vt 29.527559 39.370079
vt 31.483744 31.777538
vt 33.530685 31.420645
vt 35.536240 30.924326
vt 37.487038 30.291893
vt 39.370079 29.527559
vn 1.0000 0.0000 0.0000
vn 0.0000 -0.0000 1.0000
vn -0.9266 0.0000 -0.3761
vn 0.0000 0.0000 -1.0000
vn 0.0000 1.0000 0.0000
vn 0.0000 -1.0000 -0.0000
vn 0.9266 0.0000 0.3761
vn 0.3947 0.0000 0.9188
vn -0.3761 -0.0000 0.9266
vn -1.0000 -0.0000 0.0000
vn -0.2745 -0.0000 0.9616
vn -0.3425 -0.0000 0.9395
vn -0.3268 -0.0000 0.9451
vn -0.2061 0.0000 0.9785
vn -0.1375 0.0000 0.9905
vn -0.1107 0.0000 0.9938
vn -0.3315 -0.0000 0.9435
vn -0.5883 0.0000 0.8086
vn -0.6996 -0.0000 0.7145
vn 0.9616 0.0000 0.2745
vn 0.9785 0.0000 0.2061
vn 0.2184 0.0000 0.9759
vn 0.0964 0.0000 0.9953
vn -0.9435 -0.0000 -0.3315
vn -0.9395 -0.0000 -0.3425
vn 0.3371 0.0000 0.9415
vn 0.2817 0.0000 0.9595
vn 0.9905 0.0000 0.1375
vn -0.1904 -0.0000 0.9817
vn -0.9806 -0.0000 -0.1959
vn -0.9969 -0.0000 -0.0788
vn 0.9395 0.0000 0.3425
vn 0.9435 0.0000 0.3315
vn -0.9775 -0.0000 0.2111
vn -0.9364 0.0000 0.3509
vn 0.6556 -0.0000 0.7551
vn 0.5574 -0.0000 0.8302
vn 0.5574 -0.0000 0.8303
vn -0.3310 -0.0000 0.9436
vn -0.0689 0.0000 0.9976
vn -0.9978 -0.0000 0.0668
vn -0.9616 0.0000 -0.2745
vn -0.8755 0.0000 0.4832
vn -0.7960 -0.0000 0.6053
vn 0.9903 -0.0000 0.1390
vn -0.4646 -0.0000 0.8855
vn 0.9355 0.0000 0.3534
vn 0.8848 -0.0000 0.4661
vn 0.8205 -0.0000 0.5717
vn 0.8205 -0.0000 0.5716
vn 0.7437 -0.0000 0.6685
vn 0.4978 -0.0000 0.8673
vn 0.4507 -0.0000 0.8927
vn 0.9719 0.0000 0.2353
usemtl natureKit-wood
s off
f 9/1/1 6/2/1 8/3/1
f 6/2/1 9/1/1 10/4/1
f 10/4/1 9/1/1 89/5/1
f 89/5/1 9/1/1 7/6/1
f 7/6/1 9/1/1 11/7/1
f 6/8/2 86/9/2 8/10/2
f 86/9/2 6/8/2 87/11/2
f 63/12/3 30/13/3 16/14/3
f 22/15/4 9/16/4 42/17/4
f 9/16/4 22/15/4 66/18/4
f 66/18/4 22/15/4 23/19/4
f 16/20/4 9/16/4 66/18/4
f 9/16/4 16/20/4 11/21/4
f 11/21/4 16/20/4 30/22/4
f 107/23/5 25/24/5 106/25/5
f 49/26/5 26/27/5 48/28/5
f 27/29/5 48/28/5 26/27/5
f 103/30/5 48/28/5 27/29/5
f 50/31/5 103/30/5 27/29/5
f 51/32/5 103/30/5 50/31/5
f 1/33/5 51/32/5 50/31/5
f 106/25/5 51/32/5 1/33/5
f 57/34/5 106/25/5 1/33/5
f 58/35/5 106/25/5 57/34/5
f 107/23/5 106/25/5 58/35/5
f 25/24/5 107/23/5 58/35/5
f 24/36/5 25/24/5 58/35/5
f 15/37/5 24/36/5 58/35/5
f 105/38/5 24/36/5 15/37/5
f 17/39/5 105/38/5 15/37/5
f 82/40/5 105/38/5 17/39/5
f 83/41/5 105/38/5 82/40/5
f 52/42/5 105/38/5 83/41/5
f 104/43/5 52/42/5 83/41/5
f 53/44/5 104/43/5 83/41/5
f 47/45/5 104/43/5 53/44/5
f 80/46/5 104/43/5 47/45/5
f 54/47/5 104/43/5 80/46/5
f 78/48/5 54/47/5 80/46/5
f 28/49/5 54/47/5 78/48/5
f 74/50/5 54/47/5 28/49/5
f 84/51/5 54/47/5 74/50/5
f 70/52/5 54/47/5 84/51/5
f 19/53/5 54/47/5 70/52/5
f 43/54/5 54/47/5 19/53/5
f 67/55/5 54/47/5 43/54/5
f 23/56/5 54/47/5 67/55/5
f 55/57/5 70/52/5 84/51/5
f 77/58/5 29/59/5 38/60/5
f 29/59/5 77/58/5 108/61/5
f 108/61/5 77/58/5 110/62/5
f 110/62/5 77/58/5 75/63/5
f 110/62/5 75/63/5 111/64/5
f 111/64/5 75/63/5 4/65/5
f 111/64/5 4/65/5 112/66/5
f 112/66/5 4/65/5 39/67/5
f 112/66/5 39/67/5 7/68/5
f 7/68/5 39/67/5 89/69/5
f 30/70/5 38/60/5 29/59/5
f 30/70/5 21/71/5 38/60/5
f 30/70/5 31/72/5 21/71/5
f 30/70/5 72/73/5 31/72/5
f 32/74/5 72/73/5 30/70/5
f 32/74/5 90/75/5 72/73/5
f 32/74/5 33/76/5 90/75/5
f 32/74/5 93/77/5 33/76/5
f 61/78/5 93/77/5 32/74/5
f 61/78/5 64/79/5 93/77/5
f 61/78/5 40/80/5 64/79/5
f 34/81/5 40/80/5 61/78/5
f 34/81/5 71/82/5 40/80/5
f 41/83/5 71/82/5 34/81/5
f 71/82/5 41/83/5 35/84/5
f 30/70/5 29/59/5 109/85/5
f 30/70/5 109/85/5 36/86/5
f 30/70/5 36/86/5 37/87/5
f 9/88/6 86/9/6 42/89/6
f 86/9/6 9/88/6 8/90/6
f 67/91/7 66/92/7 23/93/7
f 82/94/8 114/95/8 115/96/8
f 81/97/8 82/94/8 115/96/8
f 113/98/9 27/99/9 26/100/9
f 49/101/10 113/102/10 26/103/10
f 42/104/10 113/102/10 49/101/10
f 86/9/10 113/102/10 42/104/10
f 113/102/10 86/9/10 87/11/10
f 42/104/10 49/101/10 85/105/10
f 42/104/10 85/105/10 88/106/10
f 42/104/10 88/106/10 22/107/10
f 89/108/9 119/109/9 10/110/9
s 1
f 50/111/11 95/112/12 3/113/11
f 95/112/12 50/111/11 27/114/13
f 1/115/14 3/116/11 2/117/14
f 3/116/11 1/115/14 50/118/11
f 4/119/11 76/120/14 5/121/11
f 76/120/14 4/119/11 75/122/14
f 77/123/15 101/124/16 118/125/15
f 101/124/16 77/123/15 38/126/16
f 39/127/12 5/128/11 119/129/17
f 5/128/11 39/127/12 4/130/11
f 90/131/18 12/132/19 13/133/18
f 12/132/19 90/131/18 33/134/19
f 100/135/20 19/136/21 18/137/21
f 19/136/21 100/135/20 43/138/20
f 15/139/22 97/140/23 14/141/22
f 97/140/23 15/139/22 58/142/23
f 30/13/3 63/12/24 32/143/25
f 17/144/26 14/145/22 114/146/27
f 14/145/22 17/144/26 15/147/22
f 18/148/21 70/149/28 117/150/28
f 70/149/28 18/148/21 19/151/21
f 38/152/16 20/153/29 101/154/16
f 20/153/29 38/152/16 21/155/29
f 23/19/2 22/15/2 54/156/2
f 11/21/4 30/22/4 37/157/4
f 34/158/30 102/159/31 41/160/31
f 102/159/31 34/158/30 60/161/30
f 68/162/32 43/163/20 100/164/20
f 43/163/20 68/162/32 67/165/33
f 71/166/34 65/167/35 40/168/35
f 65/167/35 71/166/34 44/169/34
f 47/170/36 45/171/37 46/172/36
f 45/171/37 47/170/36 53/173/38
f 21/174/29 56/175/39 20/176/29
f 56/175/39 21/174/29 31/177/39
f 97/178/23 57/179/40 96/180/40
f 57/179/40 97/178/23 58/181/23
f 41/182/31 59/183/41 35/184/41
f 59/183/41 41/182/31 102/185/31
f 61/186/42 60/187/30 34/188/30
f 62/189/42 60/187/30 61/186/42
f 32/190/25 62/191/42 61/192/42
f 62/191/42 32/190/25 63/193/24
f 40/194/35 94/195/43 64/196/43
f 94/195/43 40/194/35 65/197/35
f 93/198/44 12/199/19 33/200/19
f 12/199/19 93/198/44 92/201/44
f 66/92/7 67/91/33 68/202/32
f 117/203/28 55/204/45 69/205/45
f 55/204/45 117/203/28 70/206/28
f 35/207/41 44/208/34 71/209/34
f 44/208/34 35/207/41 59/210/41
f 31/211/39 91/212/46 56/213/39
f 91/212/46 31/211/39 72/214/46
f 73/215/47 28/216/48 99/217/48
f 28/216/48 73/215/47 74/218/47
f 75/219/14 118/220/15 76/221/14
f 118/220/15 75/219/14 77/222/15
f 99/223/48 78/224/49 79/225/50
f 78/224/49 99/223/48 28/226/48
f 80/227/51 46/228/36 98/229/51
f 46/228/36 80/227/51 47/230/36
f 53/231/38 81/232/52 45/233/37
f 81/232/52 53/231/38 83/234/53
f 114/95/27 82/94/8 17/235/26
f 82/94/8 81/97/52 83/236/53
f 116/237/54 74/238/47 73/239/47
f 74/238/47 116/237/54 84/240/54
f 57/241/40 2/242/14 96/243/40
f 2/242/14 57/241/40 1/244/14
f 27/99/13 113/98/9 95/245/12
f 79/246/50 80/247/51 98/248/51
f 80/247/51 79/246/50 78/249/49
f 69/250/45 84/251/54 116/252/54
f 84/251/54 69/250/45 55/253/45
f 119/109/17 89/108/9 39/254/12
f 72/255/46 13/256/18 91/257/46
f 13/256/18 72/255/46 90/258/18
f 64/259/43 92/260/44 93/261/44
f 92/260/44 64/259/43 94/262/43
usemtl natureKit-leavesGreen
s off
f 22/263/5 88/264/5 54/47/5
f 85/265/5 54/47/5 88/264/5
f 49/26/5 54/47/5 85/265/5
f 48/28/5 54/47/5 49/26/5
f 103/30/5 54/47/5 48/28/5
f 51/32/5 54/47/5 103/30/5
f 104/43/5 54/47/5 51/32/5
f 52/42/5 104/43/5 51/32/5
f 105/38/5 52/42/5 51/32/5
f 24/36/5 105/38/5 51/32/5
f 25/24/5 24/36/5 51/32/5
f 106/25/5 25/24/5 51/32/5
f 29/59/5 108/61/5 109/85/5
f 36/86/5 109/85/5 108/61/5
f 37/87/5 36/86/5 108/61/5
f 110/62/5 37/87/5 108/61/5
f 11/266/5 37/87/5 110/62/5
f 111/64/5 11/266/5 110/62/5
f 112/66/5 11/266/5 111/64/5
f 7/68/5 11/266/5 112/66/5
usemtl natureKit-water
f 113/267/5 87/268/5 95/269/5
f 6/270/5 95/269/5 87/268/5
f 3/271/5 95/269/5 6/270/5
f 2/272/5 3/271/5 6/270/5
f 96/273/5 2/272/5 6/270/5
f 97/274/5 96/273/5 6/270/5
f 14/275/5 97/274/5 6/270/5
f 114/276/5 14/275/5 6/270/5
f 115/277/5 114/276/5 6/270/5
f 81/278/5 115/277/5 6/270/5
f 45/279/5 81/278/5 6/270/5
f 46/280/5 45/279/5 6/270/5
f 98/281/5 46/280/5 6/270/5
f 79/282/5 98/281/5 6/270/5
f 99/283/5 79/282/5 6/270/5
f 73/284/5 99/283/5 6/270/5
f 116/285/5 73/284/5 6/270/5
f 69/286/5 116/285/5 6/270/5
f 117/287/5 69/286/5 6/270/5
f 18/288/5 117/287/5 6/270/5
f 100/289/5 18/288/5 6/270/5
f 68/290/5 100/289/5 6/270/5
f 66/291/5 68/290/5 6/270/5
f 65/292/5 66/291/5 6/270/5
f 44/293/5 66/291/5 65/292/5
f 59/294/5 66/291/5 44/293/5
f 94/295/5 65/292/5 6/270/5
f 92/296/5 94/295/5 6/270/5
f 12/297/5 92/296/5 6/270/5
f 13/298/5 12/297/5 6/270/5
f 91/299/5 13/298/5 6/270/5
f 56/300/5 91/299/5 6/270/5
f 20/301/5 56/300/5 6/270/5
f 101/302/5 20/301/5 6/270/5
f 59/294/5 102/303/5 66/291/5
f 102/303/5 60/304/5 66/291/5
f 60/304/5 62/305/5 66/291/5
f 62/305/5 63/306/5 66/291/5
f 16/307/5 66/291/5 63/306/5
f 118/308/5 101/302/5 6/270/5
f 76/309/5 118/308/5 6/270/5
f 5/310/5 76/309/5 6/270/5
f 119/311/5 5/310/5 6/270/5
f 10/312/5 119/311/5 6/270/5
