# Blender v2.79 (sub 0) OBJ File: 'Fixing models.blend'
# www.blender.org
mtllib tree_pine_shortSquare_detailed.mtl
o tree_pine_shortSquare_detailed
v 0.364436 6.285310 0.265664
v 1.492283 10.214425 -1.145003
v -0.803801 10.214425 -1.145003
v -0.857360 10.214425 1.494999
v 1.931364 6.285310 1.659167
v 1.261548 10.214425 1.494999
v -0.506040 15.296060 0.271319
v -1.931364 8.040632 1.403635
v -1.931364 8.040632 -1.013870
v -0.927805 10.214425 -0.899421
v -1.505261 8.040632 -1.359887
v 1.395939 8.040632 1.424323
v -1.102710 8.040632 1.424323
v 1.681499 8.040632 -1.013870
v 1.221034 10.214425 -0.899422
v 1.816615 10.214425 -0.820671
v -0.310917 15.296060 0.248258
v 1.816616 10.214425 1.178973
v -0.310917 15.296060 0.102342
v -0.351421 15.296060 0.271319
v -0.334584 15.296060 0.078675
v -0.529100 15.296060 0.248258
v -1.173387 10.214425 -0.866646
v -1.173386 10.214425 1.178973
v -0.529100 15.296060 0.098987
v -1.638135 6.285310 1.517811
v 1.492283 8.040632 -1.359887
v -1.625115 8.040632 1.709884
v 1.681500 8.040632 1.520667
v -0.085296 6.285310 -0.224436
v -0.105480 6.285310 -0.224436
v 0.139570 6.285310 0.020614
v -1.196197 6.285310 1.959749
v 1.630783 6.285310 1.959749
v -1.365730 6.285309 -1.959751
v 1.395939 8.040632 -1.074327
v -0.502131 15.296060 0.078675
v 1.624839 6.285309 -1.959751
v 1.931364 6.285310 -1.653226
v -1.638135 6.285310 -1.576710
v -1.102710 8.040632 -1.074327
v -0.927805 10.214425 1.249417
v 1.492283 8.040632 1.709883
v 1.221034 10.214425 1.249417
v 0.742393 -0.000000 -0.582208
v 0.742393 0.000000 0.623438
v 0.384620 6.285310 -0.224436
v 0.744564 3.305594 0.151045
v 0.733768 3.598645 -0.107705
v -0.463253 0.000000 0.623438
v -0.324140 0.350000 -0.443095
v -0.105480 6.285310 0.265664
v -0.274068 1.709139 -0.215080
v -0.324140 0.350000 0.484325
v -0.049719 4.364049 0.336444
v -0.000969 4.732418 0.523009
v -0.459685 2.103240 0.128920
v -0.274068 1.709139 0.184920
v -0.257501 2.158834 0.184920
v -0.459685 2.103240 -0.159080
v 0.603280 0.350000 0.484325
v -0.463253 -0.000000 -0.582208
v 0.603280 0.350000 -0.443095
v 0.384620 6.285310 0.265664
v 0.481512 3.655272 0.209170
v -0.471613 1.779459 -0.159080
v -0.257501 2.158834 -0.215080
v 0.481512 3.655272 -0.165830
v 0.497159 3.230560 0.209170
v 0.733768 3.598645 0.151045
v -0.000969 4.435119 0.533962
v 0.275281 4.364049 0.336444
v 0.226531 4.435119 0.533962
v 0.275281 4.788762 0.320798
v -0.471613 1.779459 0.128920
v -0.049719 4.788762 0.320798
v 0.226531 4.732418 0.523009
v 0.744564 3.305594 -0.107705
v 0.497159 3.230560 -0.165830
vt -2.197957 -0.324644
vt 1.661098 3.534411
vt 1.661098 -4.183699
vt -5.739155 -4.183699
vt -6.057013 3.534411
vt 1.343241 3.534411
vt -6.057013 -4.183699
vt -25.588018 30.862206
vt 21.507566 30.862206
vt 18.837749 -30.862206
vt 25.797409 -23.902546
vt 25.797409 24.830053
vt -25.681616 -30.862206
vt -30.415190 26.035034
vt -30.415190 -26.128630
vt 7.907580 234.478683
vt -23.500521 152.165405
vt 12.658289 152.165405
vt 5.269039 234.478683
vt 0.062232 151.520035
vt -2.613711 233.445129
vt -3.127298 233.445129
vt 26.035034 85.800911
vt -22.430315 114.701180
vt -26.128630 85.800911
vt 16.918505 114.701180
vt -5.534187 233.188309
vt -13.501741 150.875015
vt 19.866903 150.875015
vt -7.969128 233.188309
vt -0.316087 150.115631
vt -2.423115 114.926369
vt 1.790940 114.926369
vt -15.966428 102.215546
vt 19.675898 139.920502
vt -14.164086 139.920502
vt 14.611101 154.430115
vt -23.500521 119.437584
vt 23.704901 119.437584
vt -19.228882 154.430115
vt 21.983299 114.570763
vt -18.837749 85.670494
vt 25.681616 85.670494
vt -17.365519 114.570763
vt 15.966428 118.388016
vt -19.675898 153.380554
vt -23.947536 118.388016
vt 14.164086 153.380554
vt -6.189399 225.849823
vt 5.616117 140.623932
vt 15.674809 140.623932
vt -6.923391 225.849823
vt 18.478529 13.647936
vt 14.611101 14.164086
vt 18.478529 -18.566538
vt 12.658289 18.031513
vt -19.228882 14.164086
vt -23.500521 18.031513
vt -19.228882 -19.675898
vt -19.866903 -23.543324
vt -28.608120 -18.566538
vt -28.608120 12.923914
vt 14.611101 -19.675898
vt 13.501741 -23.543324
vt 12.923914 137.329498
vt -3.909622 224.085892
vt -18.566538 137.329498
vt -1.611735 224.085892
vt 8.332289 -3.909622
vt 7.969128 -4.272782
vt 8.332289 -1.558902
vt 7.907580 -1.239028
vt 5.534187 -4.272782
vt 5.269039 -1.239028
vt 4.896333 -3.909622
vt 4.896333 -1.611735
vt 2.413600 146.303329
vt 4.901816 110.234177
vt 13.545918 110.234177
vt 2.849648 223.531403
vt -11.090408 136.594360
vt -3.867172 136.594360
vt 2.322562 223.531403
vt -0.316087 111.628990
vt -3.663230 82.685951
vt 3.031055 82.685951
vt 3.909622 237.921753
vt -13.647936 157.255341
vt 18.566538 157.255341
vt 1.558902 237.921753
vt 3.581352 141.990494
vt -5.876540 105.410316
vt 0.943951 105.410316
vt 3.581352 115.835297
vt -1.339870 87.319084
vt 8.502574 87.319084
vt -23.500521 21.415512
vt 17.365519 16.918505
vt 23.704901 21.415512
vt -21.983299 16.918505
vt -21.983299 -22.430315
vt 17.365519 -22.430315
vt 25.592375 -26.927322
vt 30.415190 -22.104507
vt 30.415190 15.966428
vt -23.500521 -26.927322
vt -26.480309 15.966428
vt -26.480309 -23.947536
vt 17.365519 105.435768
vt -25.588018 74.475220
vt 21.507566 74.475220
vt -21.983299 105.435768
vt 7.593577 234.014709
vt -0.736756 151.934097
vt 6.549597 151.934097
vt 7.061885 234.014709
vt 3.729413 73.953995
vt -3.581352 104.254196
vt -3.097238 73.953995
vt 22.430315 116.048454
vt -24.830053 87.148186
vt 23.902546 87.148186
vt -16.918505 116.048454
vt 19.228882 153.287918
vt -25.592375 118.295387
vt 23.500521 118.295387
vt -14.611101 153.287918
vt -12.685954 77.880325
vt -5.283956 77.880325
vt -3.723270 107.803268
vt 7.100471 151.520035
vt 22.104507 102.215546
vt 7.514303 117.511894
vt 3.201512 152.499374
vt 1.303696 117.511894
vt -11.691233 9.168632
vt 7.295318 -9.817920
vt 7.295318 9.168632
vt -11.691233 -9.817920
vt 9.168632 -4.318268
vt -7.627164 1.612960
vt -9.817920 -4.318268
vt 6.977876 1.612960
vt 1.661098 98.784035
vt -9.500477 5.251180
vt 5.104562 5.251180
vt -6.057013 98.784035
vt 1.696125 51.589626
vt -2.378678 56.207737
vt -2.378678 51.589626
vt 1.696125 56.207737
vt 7.627164 3.236633
vt -9.168632 -2.694596
vt 9.817920 -2.694596
vt -6.977876 3.236633
vt -3.534411 98.853004
vt 2.912129 33.825043
vt 4.183699 98.853004
vt -3.387084 33.825043
vt -3.387084 26.738430
vt 2.912129 26.738430
vt 7.627164 5.320147
vt -6.977876 5.320147
vt 9.500477 5.227276
vt 4.335139 68.483536
vt -5.104562 5.227276
vt 6.057013 98.760132
vt 4.335139 75.176445
vt -0.782971 75.176445
vt -0.782971 68.483536
vt -1.661098 98.760132
vt 3.567422 74.172508
vt -0.015255 69.487473
vt 3.567422 69.487473
vt -0.015255 74.172508
vt -2.505194 32.832916
vt 2.030239 27.730556
vt 2.030239 32.832916
vt -2.505194 27.730556
vt -3.120442 33.957024
vt -6.605200 27.982327
vt -3.371689 26.874865
vt -6.424302 33.081482
vt 2.912129 5.103649
vt -2.505194 1.801478
vt 2.030239 1.801478
vt -3.387084 5.103649
vt -9.500477 6.977876
vt 5.104562 6.977876
vt 5.104562 -7.627164
vt -9.500477 -7.627164
vt 9.500477 2.304886
vt -7.295318 -3.626342
vt 11.691233 -3.626342
vt -5.104562 2.304886
vt 5.104562 2.544707
vt -11.691233 -3.386521
vt 7.295318 -3.386521
vt -9.500477 2.544707
vt -7.627164 5.158309
vt -3.294033 50.552227
vt -4.183699 98.691162
vt 6.977876 5.158309
vt 2.611479 50.552227
vt 2.611479 57.245140
vt 3.534411 98.691162
vt -3.294033 57.245140
vt 6.477218 27.977787
vt 2.992460 33.952484
vt 3.243707 26.870325
vt 6.296320 33.076942
vt -6.795114 57.525814
vt -11.037340 52.018887
vt -7.035124 50.837204
vt -10.871734 56.634029
vt 10.882869 52.013344
vt 6.640643 57.520271
vt 6.880653 50.831661
vt 10.717262 56.628487
vt 7.998783 74.506302
vt 4.962528 68.705009
vt 8.166365 69.824265
vt 4.723125 75.393639
vt 4.335139 28.253458
vt -0.015255 31.559196
vt -0.782971 28.253458
vt 3.567422 31.559196
vt -4.121855 68.674919
vt -7.158110 74.476212
vt -7.325692 69.794174
vt -3.882452 75.363548
vt -3.387084 13.092439
vt 2.030239 16.394609
vt -2.505194 16.394609
vt 2.912129 13.092439
vt -0.015255 12.069651
vt 4.335139 15.375389
vt -0.782971 15.375389
vt 3.567422 12.069651
vt 1.696125 26.329124
vt -3.294033 22.257732
vt 2.611479 22.257732
vt -2.378678 26.329124
vt -2.378678 1.137932
vt 2.611479 5.209324
vt -3.294033 5.209324
vt 1.696125 1.137932
vt 1.343241 98.784035
vt 5.739155 98.760132
vn 0.0000 1.0000 -0.0000
vn 0.0000 -1.0000 0.0000
vn -0.0000 0.2341 -0.9722
vn -0.6907 0.2141 0.6907
vn 0.9565 0.2918 -0.0000
vn 0.0000 0.2341 0.9722
vn 0.6879 0.2315 0.6879
vn -0.9079 0.4192 0.0000
vn -0.0000 0.2072 -0.9783
vn 0.0000 0.2918 0.9565
vn 0.9783 0.2072 -0.0000
vn 0.4646 0.3440 0.8160
vn 0.9224 0.3862 -0.0000
vn -0.5983 0.3150 -0.7368
vn 0.6509 0.3907 -0.6509
vn 0.6753 0.2964 0.6753
vn -0.9921 0.1258 0.0000
vn -0.6617 0.3524 0.6617
vn -0.6855 0.2456 0.6855
vn 0.0000 1.0000 0.0001
vn -0.0000 0.4504 -0.8928
vn -0.5866 0.2224 -0.7788
vn 0.6451 0.4095 -0.6451
vn -0.9565 0.2918 0.0000
vn 0.0000 0.2072 0.9783
vn -0.7528 0.3829 -0.5354
vn 0.8585 0.2066 -0.4694
vn 0.9293 0.3694 -0.0000
vn -0.0000 0.0368 -0.9993
vn 0.9993 0.0368 0.0000
vn -0.9293 0.3694 0.0000
vn -0.9993 0.0368 0.0000
vn 0.0000 0.0368 0.9993
vn -0.2694 0.0099 0.9630
vn -0.2651 0.9642 0.0000
vn 0.0000 0.3694 0.9293
vn -0.0000 0.3694 -0.9293
vn -0.2694 0.0099 -0.9630
vn 0.2263 0.0083 -0.9740
vn 0.2263 0.0083 0.9740
vn -0.9716 0.0087 0.2367
vn 0.0000 -0.9409 0.3386
vn 0.9716 0.0087 0.2367
vn -0.3354 -0.9421 0.0000
vn 0.0000 0.9633 0.2684
vn 0.2902 -0.9570 0.0000
vn 0.2190 0.9757 0.0000
vn 0.0000 0.0076 -1.0000
vn 0.0000 0.0040 1.0000
usemtl natureKit-leaves
s off
f 32/1/1 31/2/1 52/3/1
f 52/3/1 1/4/1 32/1/1
f 47/5/1 30/6/1 32/1/1
f 32/1/1 64/7/1 47/5/1
f 64/7/1 32/1/1 1/4/1
f 31/2/2 38/8/2 30/6/2
f 30/6/2 38/8/2 47/5/2
f 47/5/2 38/8/2 64/7/2
f 31/2/2 35/9/2 38/8/2
f 33/10/2 35/9/2 31/2/2
f 52/3/2 33/10/2 31/2/2
f 26/11/2 35/9/2 33/10/2
f 35/9/2 26/11/2 40/12/2
f 33/10/2 52/3/2 34/13/2
f 34/13/2 52/3/2 1/4/2
f 34/13/2 1/4/2 64/7/2
f 34/13/2 64/7/2 38/8/2
f 34/13/2 38/8/2 39/14/2
f 34/13/2 39/14/2 5/15/2
f 37/16/3 2/17/3 3/18/3
f 2/17/3 37/16/3 21/19/3
f 24/20/4 7/21/4 22/22/4
f 39/23/5 12/24/5 5/25/5
f 12/24/5 39/23/5 36/26/5
f 20/27/6 4/28/6 6/29/6
f 4/28/6 20/27/6 7/30/6
f 44/31/7 43/32/7 29/33/7
f 9/34/8 42/35/8 10/36/8
f 10/37/9 27/38/9 11/39/9
f 27/38/9 10/37/9 15/40/9
f 12/41/10 33/42/10 34/43/10
f 33/42/10 12/41/10 13/44/10
f 14/45/11 44/46/11 29/47/11
f 44/46/11 14/45/11 15/48/11
f 17/49/12 6/50/12 18/51/12
f 6/50/12 17/49/12 20/52/12
f 23/53/2 10/54/2 24/55/2
f 10/54/2 23/53/2 3/56/2
f 10/54/2 3/56/2 15/57/2
f 15/57/2 3/56/2 2/58/2
f 15/57/2 2/58/2 44/59/2
f 44/59/2 2/58/2 6/60/2
f 6/60/2 2/58/2 18/61/2
f 18/61/2 2/58/2 16/62/2
f 42/63/2 24/55/2 10/54/2
f 24/55/2 42/63/2 4/64/2
f 4/64/2 42/63/2 44/59/2
f 4/64/2 44/59/2 6/60/2
f 16/65/13 17/66/13 18/67/13
f 17/66/13 16/65/13 19/68/13
f 22/69/1 7/70/1 25/71/1
f 37/72/1 25/71/1 7/70/1
f 20/73/1 37/72/1 7/70/1
f 21/74/1 37/72/1 20/73/1
f 17/75/1 21/74/1 20/73/1
f 19/76/1 21/74/1 17/75/1
f 10/77/14 11/78/14 9/79/14
f 21/80/15 16/81/15 2/82/15
f 16/81/15 21/80/15 19/83/15
f 12/84/16 34/85/16 5/86/16
f 22/87/17 23/88/17 24/89/17
f 23/88/17 22/87/17 25/90/17
f 42/91/18 8/92/18 28/93/18
f 13/94/19 26/95/19 33/96/19
f 27/97/2 41/98/2 11/99/2
f 41/98/2 27/97/2 36/100/2
f 36/100/2 27/97/2 12/101/2
f 13/102/2 11/99/2 41/98/2
f 28/103/2 11/99/2 13/102/2
f 8/104/2 11/99/2 28/103/2
f 11/99/2 8/104/2 9/105/2
f 28/103/2 13/102/2 43/106/2
f 43/106/2 13/102/2 12/101/2
f 43/106/2 12/101/2 27/97/2
f 43/106/2 27/97/2 14/107/2
f 43/106/2 14/107/2 29/108/2
f 30/6/20 31/2/20 32/1/20
f 41/109/21 38/110/21 35/111/21
f 38/110/21 41/109/21 36/112/21
f 25/113/22 3/114/22 23/115/22
f 3/114/22 25/113/22 37/116/22
f 38/117/23 36/118/23 39/119/23
f 13/120/24 40/121/24 26/122/24
f 40/121/24 13/120/24 41/123/24
f 44/124/25 28/125/25 43/126/25
f 28/125/25 44/124/25 42/127/25
f 35/128/26 40/129/26 41/130/26
s 1
f 7/21/4 24/20/4 4/131/4
f 42/35/8 9/34/8 8/132/8
f 27/133/27 15/134/27 14/135/27
usemtl natureKit-wood
s off
f 45/136/2 50/137/2 62/138/2
f 50/137/2 45/136/2 46/139/2
f 45/140/28 61/141/28 46/142/28
f 61/141/28 45/140/28 63/143/28
f 31/144/29 63/145/29 51/146/29
f 63/145/29 31/144/29 47/147/29
f 78/148/30 70/149/30 48/150/30
f 70/149/30 78/148/30 49/151/30
f 54/152/31 62/153/31 50/154/31
f 62/153/31 54/152/31 51/155/31
f 31/156/32 59/157/32 52/158/32
f 59/157/32 31/156/32 67/159/32
f 67/159/32 31/156/32 53/160/32
f 58/161/32 52/158/32 59/157/32
f 58/161/32 54/162/32 52/158/32
f 54/162/32 58/161/32 51/163/32
f 51/163/32 58/161/32 53/160/32
f 51/163/32 53/160/32 31/156/32
f 61/164/33 72/165/33 54/166/33
f 72/165/33 61/164/33 64/167/33
f 72/165/33 64/167/33 74/168/33
f 74/168/33 64/167/33 76/169/33
f 55/170/33 54/166/33 72/165/33
f 54/166/33 55/170/33 52/171/33
f 52/171/33 55/170/33 76/169/33
f 52/171/33 76/169/33 64/167/33
f 77/172/33 71/173/33 73/174/33
f 71/173/33 77/172/33 56/175/33
f 60/176/32 75/177/32 57/178/32
f 75/177/32 60/176/32 66/179/32
f 59/180/34 75/181/34 58/182/34
f 75/181/34 59/180/34 57/183/34
f 59/184/35 60/185/35 57/186/35
f 60/185/35 59/184/35 67/187/35
f 63/188/1 51/189/1 54/190/1
f 54/190/1 61/191/1 63/188/1
f 61/192/36 50/193/36 46/194/36
f 50/193/36 61/192/36 54/195/36
f 51/196/37 45/197/37 62/198/37
f 45/197/37 51/196/37 63/199/37
f 61/200/30 69/201/30 64/202/30
f 69/201/30 61/200/30 63/203/30
f 69/201/30 63/203/30 79/204/30
f 79/204/30 63/203/30 68/205/30
f 68/205/30 63/203/30 47/206/30
f 64/202/30 65/207/30 47/206/30
f 65/207/30 64/202/30 69/201/30
f 47/206/30 65/207/30 68/205/30
f 66/208/38 67/209/38 53/210/38
f 67/209/38 66/208/38 60/211/38
f 68/212/39 78/213/39 79/214/39
f 78/213/39 68/212/39 49/215/39
f 48/216/40 65/217/40 69/218/40
f 65/217/40 48/216/40 70/219/40
f 56/220/41 55/221/41 71/222/41
f 55/221/41 56/220/41 76/223/41
f 72/224/42 71/225/42 55/226/42
f 71/225/42 72/224/42 73/227/42
f 72/228/43 77/229/43 73/230/43
f 77/229/43 72/228/43 74/231/43
f 53/232/44 75/233/44 66/234/44
f 75/233/44 53/232/44 58/235/44
f 56/236/45 74/237/45 76/238/45
f 74/237/45 56/236/45 77/239/45
f 78/240/46 69/241/46 79/242/46
f 69/241/46 78/240/46 48/243/46
f 70/244/47 68/245/47 65/246/47
f 68/245/47 70/244/47 49/247/47
s 1
f 47/147/48 31/144/48 30/248/48
f 52/171/49 64/167/49 1/249/49
