# Blender v2.79 (sub 0) OBJ File: 'Fixing models.blend'
# www.blender.org
mtllib tree_oak.mtl
o tree_oak
v 1.263702 5.003999 -0.726241
v 0.002769 5.003999 0.467188
v -1.258164 5.003999 0.729759
v 0.002769 5.603999 -2.910241
v -1.258164 5.003999 -0.726241
v -2.519097 5.604000 -1.454241
v 0.002769 5.003999 -1.454241
v 1.263702 5.003999 0.729759
v 0.002769 5.604000 2.913759
v 0.002769 5.003999 1.457759
v 0.002769 11.125601 -3.141746
v -1.358408 12.262400 0.787634
v -3.200001 7.227999 -1.847361
v -2.719585 11.125601 -1.569994
v 0.002769 7.227999 -3.696481
v 2.725123 11.125601 1.573510
v 0.002769 12.262400 1.573510
v 1.363946 12.262400 -0.784118
v 1.363946 12.262400 0.787633
v 2.725123 11.125601 -1.569994
v -1.358408 12.262400 -0.784118
v 0.002769 12.262400 -1.569994
v -2.719585 11.125601 1.573510
v -2.519097 5.604000 1.457759
v 2.524635 5.604000 1.457759
v 3.205538 7.227999 -1.847362
v 3.205538 7.228000 1.850878
v 2.524634 5.604000 -1.454241
v 0.002769 11.125601 3.145262
v -3.200000 7.228000 1.850879
v 0.002769 7.228000 3.699999
v -0.400304 5.003999 0.234474
v 1.602924 -0.000001 -0.344740
v -0.597231 -0.000001 -1.730470
v 0.802769 -0.000000 2.080401
v 0.502769 -0.000001 -1.557266
v 0.002769 -0.000001 -0.691240
v -1.197387 -0.000001 -1.383970
v -0.597387 -0.000001 -0.344740
v 0.405842 5.003999 -0.230955
v 0.002769 -0.000000 0.694760
v -0.897231 -0.000000 2.253606
v -0.597387 0.699999 -0.344740
v -1.297386 -0.000001 -0.344740
v 1.602924 -0.000000 0.348260
v -0.597387 1.200000 -0.344740
v 0.002769 0.700000 0.694760
v 1.402925 -0.000000 1.733901
v -1.297386 -0.000000 0.348260
v -0.597387 0.700000 0.348260
v 0.602924 0.499999 -0.344740
v 0.602924 -0.000001 -0.344740
v 0.602924 0.899999 -0.344740
v 0.602925 -0.000000 0.348260
v 0.602925 1.600000 0.348260
v 0.602925 0.700000 0.348260
v 0.002769 1.000000 0.694760
v 0.002769 1.600000 0.694760
v 1.102924 -0.000001 -1.210765
v 0.602925 0.500000 0.348260
v -0.597387 -0.000000 0.348260
v -1.497386 -0.000000 1.907106
v -0.597387 1.600000 0.348260
v 0.002769 1.199999 -0.691240
v 0.002769 0.899999 -0.691240
v 0.602924 1.600000 -0.344740
v -0.597387 1.000000 0.348260
v 0.002769 1.599999 -0.691240
v 0.002769 5.003999 -0.463670
v -0.400304 5.003999 -0.230955
v -0.597387 1.600000 -0.344740
v 0.405842 5.003999 0.234474
v 0.120037 3.068473 0.528881
v 0.454398 2.287540 -0.962845
v 0.607684 2.287540 -0.874344
v 0.421102 3.158771 0.927342
v 0.111366 3.367971 0.513864
v 0.379844 3.068473 0.378881
v 0.574388 3.158771 0.838842
v 0.569273 3.335475 0.829982
v 0.415986 3.335475 0.918482
v 0.371174 3.367971 0.363864
v 0.418256 2.020539 -0.423244
v 0.409586 2.320037 -0.408227
v 0.612800 2.110836 -0.883205
v 0.158448 2.020539 -0.573244
v 0.149778 2.320037 -0.558227
v 0.459513 2.110836 -0.971705
vt -12.609330 20.292284
vt -7.645027 11.693858
vt -7.645027 17.426142
vt -11.022429 15.476198
vt -12.609330 16.392397
vt -14.196231 15.476198
vt -17.573633 17.426142
vt -14.196231 13.643802
vt -11.022429 13.643802
vt -12.609330 8.827717
vt -12.609330 12.727604
vt -17.573633 11.693858
vt -17.426142 1.561584
vt -8.827717 7.059248
vt -20.292284 7.059248
vt -11.693858 1.561584
vt -23.932283 24.138283
vt -15.333858 18.640617
vt -12.467716 24.138283
vt -21.066141 18.640617
vt 2.092283 35.524307
vt -6.506142 30.026640
vt -0.773858 30.026640
vt -9.372284 35.524307
vt 9.372284 1.366237
vt 0.773858 -4.131428
vt 6.506142 -4.131428
vt 20.292284 29.831293
vt 11.693858 24.333630
vt 17.426142 24.333630
vt 8.827717 29.831293
vt 21.066141 7.254595
vt 12.467716 12.752259
vt 15.333858 7.254595
vt 2.548000 39.847607
vt -10.920000 24.386597
vt 3.640000 24.386597
vt -9.828000 39.847607
vt 12.609330 8.372000
vt 7.250365 17.653999
vt 7.250365 11.466000
vt 12.609330 20.747999
vt 17.968294 11.466000
vt 17.968294 17.653999
vt -8.372000 43.703964
vt -21.840000 28.242956
vt -7.280000 28.242956
vt -20.747999 43.703964
vt -12.012000 41.390148
vt -25.480000 25.929140
vt -10.920000 25.929140
vt -24.388000 41.390148
vt 24.388000 42.932693
vt 10.920000 27.471684
vt 25.480000 27.471684
vt 12.012000 42.932693
vt -11.466000 36.511089
vt -20.747999 29.529009
vt -8.372000 29.529009
vt -17.653999 36.511089
vt 24.388000 24.689980
vt 15.106000 31.672058
vt 12.012000 24.689980
vt 21.294001 31.672058
vt 8.372000 10.172894
vt 17.653999 17.154972
vt 11.466000 17.154972
vt 20.747999 10.172894
vt -6.734000 12.315943
vt 2.548000 5.333864
vt -0.546000 12.315943
vt -9.828000 5.333864
vt -15.106000 21.994001
vt -24.388000 15.011922
vt -12.012000 15.011922
vt -21.294001 21.994001
vt 9.828000 34.368038
vt 0.546000 41.350117
vt -2.548000 34.368038
vt 6.734000 41.350117
vt 3.640000 38.432297
vt -9.372284 31.499355
vt 2.092283 31.499355
vt -10.920000 38.432297
vt 25.480000 28.681133
vt 12.467716 21.748192
vt 23.932283 21.748192
vt 10.920000 28.681133
vt 10.920000 23.805552
vt -2.092283 16.872610
vt 9.372284 16.872610
vt -3.640000 23.805552
vt -10.920000 33.556717
vt -23.932283 26.623774
vt -12.467716 26.623774
vt -25.480000 33.556717
vt -21.840000 26.243343
vt -8.827717 19.310400
vt -7.280000 26.243343
vt -20.292284 19.310400
vt 8.827717 29.061563
vt 21.840000 35.994507
vt 7.280000 35.994507
vt 20.292284 29.061563
vt 21.840000 25.157869
vt 8.372000 40.618877
vt 7.280000 25.157869
vt 20.747999 40.618877
vt 9.828000 44.475235
vt -3.640000 29.014229
vt 10.920000 29.014229
vt -2.548000 44.475235
vt -2.092283 1.366237
vt 23.932283 12.752259
vt -15.924173 6.880936
vt -13.643802 20.304953
vt -15.476198 20.304953
vt 10.246512 2.755906
vt 7.490607 0.000000
vt 10.246512 0.000000
vt -14.972147 1.968504
vt -18.909155 0.000000
vt -14.972147 0.000000
vt -10.247126 21.379805
vt -10.246512 15.924173
vt -7.884308 20.015633
vt -10.246512 13.195827
vt -12.609330 11.831654
vt -9.066023 5.694466
vt -6.703206 7.058639
vt -12.609330 17.288347
vt -14.577834 20.697895
vt -14.972147 13.195827
vt -15.758936 6.376375
vt -14.972147 15.924173
vt -16.940651 19.333721
vt -18.909155 15.924173
vt -18.909155 13.195827
vt -18.121754 7.740549
vt -7.490607 13.195827
vt -7.490607 15.924173
vt -25.213820 0.000000
vt -21.276812 0.000000
vt -21.276812 3.543307
vt -3.941848 0.000000
vt 2.357365 0.000000
vt -3.941848 2.755906
vt -13.391891 0.000000
vt -8.667482 2.755906
vt -8.667482 4.724410
vt -8.667482 0.000000
vt 2.275827 7.245349
vt 4.556198 20.669367
vt 2.723802 20.669367
vt 13.643802 18.847300
vt 15.924173 5.423283
vt 15.476198 18.847300
vt 16.551178 0.000000
vt 16.551178 3.937008
vt 9.464563 0.000000
vt -10.246512 2.755906
vt -10.246512 0.000000
vt -7.490607 0.000000
vt 5.004173 8.273517
vt 2.275827 16.380312
vt 2.275827 8.273517
vt 5.004173 16.380312
vt 13.195827 -16.912863
vt 15.924173 -12.511154
vt 13.195827 -12.511154
vt 15.924173 -16.912863
vt -16.835827 -2.788173
vt -19.564173 -9.469498
vt -16.835827 -9.469498
vt -19.564173 -2.788173
vt 16.835827 -2.159717
vt 19.564173 4.715971
vt 16.835827 4.715971
vt 19.564173 -2.159717
vt -15.924173 9.194098
vt -13.195827 5.296659
vt -13.195827 9.194098
vt -15.924173 5.296659
vt 25.213820 0.000000
vt 21.276812 1.968504
vt 21.276812 0.000000
vt 21.276812 3.543307
vt -16.835827 6.299212
vt -19.564173 4.724410
vt -16.835827 4.724410
vt 15.924173 1.968504
vt 13.195827 2.755906
vt 13.195827 1.968504
vt 3.941848 0.000000
vt 3.941848 2.755906
vt -2.357365 0.000000
vt 19.564173 6.299212
vt 16.835827 2.755906
vt 19.564173 2.755906
vt 16.835827 3.937008
vt -5.004173 -13.444582
vt -2.275827 -18.741285
vt -2.275827 -13.444582
vt -5.004173 -18.741285
vt 14.972147 1.968504
vt 14.972147 0.000000
vt 18.909155 0.000000
vt 13.391891 0.000000
vt 8.667482 3.543307
vt 8.667482 0.000000
vt 8.667482 4.724410
vt -16.551178 3.937008
vt -16.551178 0.000000
vt -9.464563 0.000000
vt -13.195827 3.937008
vt -15.924173 6.299212
vt -13.195827 2.755906
vt -15.924173 2.755906
vt -2.275827 4.724410
vt -5.004173 3.543307
vt -2.275827 3.543307
vt 5.004173 6.299212
vt 2.275827 3.937008
vt 5.004173 3.937008
vt -3.038898 6.717308
vt -2.275827 5.058869
vt -2.723802 18.482887
vt -5.004173 5.058869
vt -4.220001 6.717308
vt -3.038898 7.898410
vt -4.220001 7.898410
vt -4.556198 18.482887
vt -19.564173 5.787696
vt -17.283802 19.211714
vt -19.116198 19.211714
vt 18.743290 12.307597
vt 19.564173 6.516522
vt 19.116198 19.940540
vt 18.743290 13.488700
vt 17.562187 13.488700
vt 17.562187 12.307597
vt 16.835827 6.516522
vt 17.283802 19.940540
vt -3.281024 7.656284
vt -3.977875 6.959434
vt -3.281024 6.959434
vt -3.977875 7.656284
vt 18.501163 13.246573
vt 17.804314 12.549724
vt 18.501163 12.549724
vt 17.804314 13.246573
vt -0.178029 13.258196
vt -2.104233 12.206983
vt -0.138051 12.562493
vt -2.171992 13.386140
vt 18.743290 -2.041937
vt 17.804314 -0.058598
vt 17.562187 -2.041937
vt 18.501163 -0.058598
vt 4.602901 13.003924
vt 6.529105 11.952711
vt 6.596865 13.131867
vt 17.804314 3.207810
vt 18.743290 5.191148
vt 17.562187 5.191148
vt 18.501163 3.207810
vt -3.281024 24.247124
vt -4.220001 22.263784
vt -3.038898 22.263784
vt -3.977875 24.247124
vt 20.508720 7.906909
vt 22.434923 8.958122
vt 20.440960 9.086065
vt 22.474901 8.262420
vt -4.220001 -20.479498
vt -3.281024 -22.462837
vt -3.038898 -20.479498
vt -3.977875 -22.462837
vt -23.319630 9.008961
vt -21.393427 7.957747
vt -21.325666 9.136905
vt -23.359608 8.313258
vt -13.195827 6.880936
vt 5.004173 7.245349
vt 13.195827 5.423283
vt 16.551178 2.755906
vt -19.564173 6.299212
vt 13.195827 6.299212
vt 15.924173 6.299212
vt 15.924173 3.543307
vt 3.941848 1.968504
vt 16.835827 6.299212
vt -16.551178 2.755906
vt -13.195827 6.299212
vt -15.924173 4.724410
vt -5.004173 6.299212
vt -2.275827 6.299212
vt 2.275827 6.299212
vt -16.835827 5.787696
vt 4.562923 12.308222
vn 0.0000 -1.0000 -0.0000
vn -0.4297 -0.9030 0.0000
vn -0.2148 -0.9030 -0.3721
vn 0.2148 -0.9030 -0.3721
vn -0.2148 -0.9030 0.3721
vn 0.4297 -0.9030 -0.0000
vn 0.2148 -0.9030 0.3721
vn 0.4962 0.1223 -0.8595
vn 0.0000 1.0000 -0.0000
vn -0.9925 0.1223 0.0000
vn -0.4962 0.1223 -0.8595
vn 0.4962 0.1223 0.8595
vn -0.6410 0.7675 0.0000
vn 0.3205 0.7675 0.5551
vn 0.6410 0.7675 -0.0000
vn 0.3205 0.7675 -0.5551
vn -0.3205 0.7675 -0.5551
vn -0.3205 0.7675 0.5551
vn 0.4611 -0.3867 -0.7987
vn 0.4611 -0.3867 0.7987
vn -0.4611 -0.3867 0.7987
vn -0.4611 -0.3867 -0.7987
vn -0.9222 -0.3867 0.0000
vn 0.9222 -0.3867 0.0000
vn 0.9925 0.1223 -0.0000
vn -0.4962 0.1223 0.8595
vn -0.9983 0.0578 0.0000
vn 0.0000 0.0000 1.0000
vn -0.0000 -0.0000 -1.0000
vn -0.8660 -0.0000 -0.5000
vn -0.8660 0.0000 0.5000
vn -0.4992 0.0578 0.8646
vn 0.9983 0.0578 -0.0000
vn 0.8660 0.0000 0.5000
vn -0.2428 0.8742 0.4206
vn 0.4472 0.8944 -0.0000
vn -0.3536 0.7071 -0.6124
vn 0.2004 0.9162 0.3471
vn -0.7071 0.7071 0.0000
vn -0.5000 -0.0000 -0.8660
vn 1.0000 -0.0000 -0.0000
vn 0.8660 0.0000 -0.5000
vn 0.5000 0.0000 0.8660
vn 0.3345 0.7433 -0.5793
vn -1.0000 0.0000 0.0000
vn 0.5000 -0.0000 -0.8660
vn -0.5000 0.0000 0.8660
vn 0.4992 0.0578 -0.8646
vn -0.4992 0.0578 -0.8646
vn 0.4992 0.0578 0.8646
vn -0.7986 0.0071 0.6018
vn 0.0896 -0.9838 0.1552
vn 0.9205 0.0071 -0.3907
vn 0.0323 0.9979 0.0559
vn 0.0896 -0.9838 -0.1552
vn 0.9205 0.0071 0.3907
vn 0.0323 0.9979 -0.0559
vn -0.7986 0.0071 -0.6018
vn -0.9993 0.0383 0.0000
vn -0.9996 0.0286 0.0000
vn -0.4998 0.0273 0.8657
vn -0.4996 0.0395 0.8653
vn 0.9996 0.0273 -0.0000
vn 0.9996 0.0286 -0.0000
vn -0.4995 0.0431 -0.8652
vn -0.4998 0.0273 -0.8657
vn 0.4996 0.0386 0.8654
vn 0.4998 0.0257 0.8657
vn 0.4999 0.0178 -0.8659
vn 0.4999 0.0243 -0.8658
usemtl natureKit-leavesGreen
s off
f 7/1/1 3/2/1 5/3/1
f 3/2/1 7/1/1 70/4/1
f 70/4/1 7/1/1 69/5/1
f 69/5/1 7/1/1 40/6/1
f 40/6/1 7/1/1 1/7/1
f 40/6/1 1/7/1 72/8/1
f 32/9/1 3/2/1 70/4/1
f 3/2/1 32/9/1 10/10/1
f 10/10/1 32/9/1 2/11/1
f 10/10/1 2/11/1 72/8/1
f 10/10/1 72/8/1 8/12/1
f 8/12/1 72/8/1 1/7/1
f 5/13/2 24/14/2 6/15/2
f 24/14/2 5/13/2 3/16/2
f 4/17/3 5/18/3 6/19/3
f 5/18/3 4/17/3 7/20/3
f 4/21/4 1/22/4 7/23/4
f 1/22/4 4/21/4 28/24/4
f 9/25/5 3/26/5 10/27/5
f 28/28/6 8/29/6 1/30/6
f 8/29/6 28/28/6 25/31/6
f 8/32/7 9/33/7 10/34/7
f 11/35/8 26/36/8 15/37/8
f 26/36/8 11/35/8 20/38/8
f 17/39/9 21/40/9 12/41/9
f 21/40/9 17/39/9 22/42/9
f 22/42/9 17/39/9 19/43/9
f 22/42/9 19/43/9 18/44/9
f 23/45/10 13/46/10 30/47/10
f 13/46/10 23/45/10 14/48/10
f 14/49/11 15/50/11 13/51/11
f 15/50/11 14/49/11 11/52/11
f 16/53/12 31/54/12 27/55/12
f 31/54/12 16/53/12 29/56/12
f 12/57/13 14/58/13 23/59/13
f 14/58/13 12/57/13 21/60/13
f 16/61/14 17/62/14 29/63/14
f 17/62/14 16/61/14 19/64/14
f 16/65/15 18/66/15 19/67/15
f 18/66/15 16/65/15 20/68/15
f 18/69/16 11/70/16 22/71/16
f 11/70/16 18/69/16 20/72/16
f 21/73/17 11/74/17 14/75/17
f 11/74/17 21/73/17 22/76/17
f 29/77/18 12/78/18 23/79/18
f 12/78/18 29/77/18 17/80/18
f 15/81/19 28/82/19 4/83/19
f 28/82/19 15/81/19 26/84/19
f 27/85/20 9/86/20 25/87/20
f 9/86/20 27/85/20 31/88/20
f 31/89/21 24/90/21 9/91/21
f 24/90/21 31/89/21 30/92/21
f 13/93/22 4/94/22 6/95/22
f 4/94/22 13/93/22 15/96/22
f 13/97/23 24/98/23 30/99/23
f 24/98/23 13/97/23 6/100/23
f 25/101/24 26/102/24 27/103/24
f 26/102/24 25/101/24 28/104/24
f 26/105/25 16/106/25 27/107/25
f 16/106/25 26/105/25 20/108/25
f 29/109/26 30/110/26 31/111/26
f 30/110/26 29/109/26 23/112/26
s 1
f 3/26/5 9/25/5 24/113/5
f 9/33/7 8/32/7 25/114/7
usemtl natureKit-wood
s off
f 71/115/27 32/116/27 70/117/27
f 50/118/28 49/119/28 61/120/28
f 51/121/29 33/122/29 52/123/29
f 34/124/1 39/125/1 38/126/1
f 39/125/1 34/124/1 61/127/1
f 41/128/1 61/127/1 34/124/1
f 42/129/1 61/127/1 41/128/1
f 61/127/1 42/129/1 62/130/1
f 41/128/1 34/124/1 37/131/1
f 41/128/1 37/131/1 36/132/1
f 41/128/1 36/132/1 54/133/1
f 41/128/1 54/133/1 35/134/1
f 54/133/1 36/132/1 52/135/1
f 59/136/1 52/135/1 36/132/1
f 33/137/1 54/133/1 52/135/1
f 54/133/1 33/137/1 45/138/1
f 35/134/1 54/133/1 48/139/1
f 49/140/1 39/125/1 61/127/1
f 39/125/1 49/140/1 44/141/1
f 36/142/30 37/143/30 65/144/30
f 41/145/31 35/146/31 47/147/31
f 38/148/31 43/149/31 46/150/31
f 43/149/31 38/148/31 39/151/31
f 63/152/32 2/153/32 32/154/32
f 72/155/33 66/156/33 40/157/33
f 41/158/34 57/159/34 42/160/34
f 43/161/29 39/162/29 44/163/29
f 42/164/35 67/165/35 62/166/35
f 67/165/35 42/164/35 57/167/35
f 45/168/36 51/169/36 60/170/36
f 51/169/36 45/168/36 33/171/36
f 46/172/37 34/173/37 38/174/37
f 34/173/37 46/172/37 64/175/37
f 35/176/38 56/177/38 47/178/38
f 56/177/38 35/176/38 48/179/38
f 43/180/39 49/181/39 50/182/39
f 49/181/39 43/180/39 44/183/39
f 59/184/34 51/185/34 52/186/34
f 51/185/34 59/184/34 53/187/34
f 71/188/40 64/189/40 46/190/40
f 51/191/41 56/192/41 60/193/41
f 54/194/42 56/195/42 48/196/42
f 55/197/43 47/198/43 56/199/43
f 47/198/43 55/197/43 57/200/43
f 53/201/44 36/202/44 65/203/44
f 36/202/44 53/201/44 59/204/44
f 60/205/28 54/206/28 45/207/28
f 34/208/42 65/209/42 37/210/42
f 65/209/42 34/208/42 64/211/42
f 67/212/30 61/213/30 62/214/30
f 67/215/45 71/216/45 50/217/45
f 50/217/45 71/216/45 43/218/45
f 64/219/46 53/220/46 65/221/46
f 58/222/47 67/223/47 57/224/47
f 86/225/48 68/226/48 69/227/48
f 66/228/48 86/225/48 83/229/48
f 86/225/48 69/227/48 87/230/48
f 87/230/48 69/227/48 84/231/48
f 40/232/48 83/229/48 84/231/48
f 40/232/48 84/231/48 69/227/48
f 68/233/49 70/234/49 69/235/49
f 78/236/50 55/237/50 72/238/50
f 78/236/50 72/238/50 82/239/50
f 82/239/50 72/238/50 77/240/50
f 73/241/50 58/242/50 78/236/50
f 58/242/50 73/241/50 2/243/50
f 2/243/50 73/241/50 77/240/50
f 2/243/50 77/240/50 72/238/50
f 74/244/48 85/245/48 88/246/48
f 85/245/48 74/244/48 75/247/48
f 80/248/50 76/249/50 79/250/50
f 76/249/50 80/248/50 81/251/50
f 81/252/51 73/253/51 76/254/51
f 73/253/51 81/252/51 77/255/51
f 78/256/52 76/257/52 73/258/52
f 76/257/52 78/256/52 79/259/52
f 80/260/53 78/261/53 82/262/53
f 81/263/54 82/264/54 77/265/54
f 82/264/54 81/263/54 80/266/54
f 88/267/55 83/268/55 86/269/55
f 83/268/55 88/267/55 85/270/55
f 83/271/56 75/272/56 84/273/56
f 75/272/56 83/271/56 85/274/56
f 84/275/57 74/276/57 87/277/57
f 74/276/57 84/275/57 75/278/57
f 74/279/58 86/280/58 87/281/58
f 86/280/58 74/279/58 88/282/58
s 1
f 32/116/27 71/115/59 63/283/60
f 2/153/32 63/152/61 58/284/62
f 66/156/63 72/155/33 55/285/64
f 57/159/45 41/158/45 47/286/45
f 64/189/40 71/188/65 68/287/66
f 56/192/41 51/191/41 55/288/64
f 55/288/64 51/191/41 66/289/63
f 66/289/45 51/191/45 53/290/45
f 56/195/41 54/194/41 60/291/41
f 57/200/43 55/197/67 58/292/68
f 61/213/41 67/212/41 50/293/41
f 71/216/59 67/215/45 63/294/60
f 43/218/28 71/216/28 46/295/28
f 53/220/46 64/219/46 66/296/69
f 66/296/69 64/219/46 68/297/70
f 67/223/47 58/222/62 63/298/61
f 68/226/70 86/225/48 66/228/69
f 83/229/48 40/232/48 66/228/48
f 70/234/49 68/233/66 71/299/65
f 55/237/67 78/236/50 58/242/68
f 78/261/53 80/260/53 79/300/53
