# Blender v2.79 (sub 0) OBJ File: 'Fixing models.blend'
# www.blender.org
mtllib tree_pine_short.mtl
o tree_pine_short
v -0.082601 8.490839 -2.227742
v 1.161236 10.711666 -0.583788
v 1.786334 8.271119 -1.155393
v 0.090137 16.714653 -0.090623
v -0.923362 13.333174 -0.534326
v -0.054747 16.709957 0.160880
v -1.125526 13.285742 0.524420
v 1.116485 10.807351 0.659557
v -2.401921 6.285310 1.386749
v -1.295608 10.374529 -0.733606
v -1.229114 10.386323 -0.696891
v 0.145428 10.495854 -1.580917
v 0.043963 10.500534 -1.359450
v 1.586464 10.753709 -0.757448
v -1.142254 10.514508 0.731214
v 0.068221 10.721498 1.305345
v -0.000000 6.285309 -2.773501
v -2.401922 6.285310 -1.386751
v -0.000000 8.449331 -1.696613
v -1.951536 8.568595 -1.140347
v -0.054747 16.719624 -0.006498
v 0.235021 16.700022 -0.007369
v -0.134470 13.307224 -1.011380
v 0.744067 13.222219 -0.571094
v -1.125526 13.354817 -0.671718
v -0.090137 13.319321 -1.272900
v 0.794100 13.159897 0.449337
v -0.090137 13.181167 1.119377
v -0.106788 13.192902 0.935723
v -0.939611 13.280634 0.394534
v -1.295608 10.511059 0.937174
v -1.951535 8.426631 1.019396
v 1.586464 10.890238 0.913331
v 0.145428 10.768913 1.760642
v 0.000000 6.285310 2.773499
v 2.401922 6.285310 1.386749
v 0.000000 8.218745 1.811357
v 0.945252 13.145671 0.518196
v 0.090137 16.695322 0.244133
v 0.945252 13.214746 -0.677943
v 0.235021 16.690355 0.160009
v 0.245050 6.285310 -0.245051
v 2.401921 6.285310 -1.386751
v -1.444059 8.507918 -0.833730
v 1.598522 8.149505 0.922906
v 1.545272 8.273065 -0.892165
v 1.786334 8.129155 1.004349
v -0.082600 8.206910 2.091744
v -1.490457 8.400257 0.860514
v -0.463710 0.000000 0.463710
v -0.463710 -0.000000 -0.463710
v 0.463710 0.000000 0.463710
v -0.245050 6.285310 0.245049
v 0.245050 6.285310 0.245049
v 0.463710 -0.000000 -0.463710
v -0.245050 6.285310 -0.245051
vt 19.591476 117.596718
vt -10.698188 154.469818
vt -14.321546 113.948639
vt 10.692354 150.964310
vt 11.609350 198.213638
vt -3.104366 253.362061
vt -7.190966 196.507751
vt 8.139522 206.626724
vt -14.773076 161.610580
vt 11.551587 159.685669
vt -6.378772 206.215027
vt 2.517513 250.748398
vt -10.898469 195.358795
vt 7.935252 194.218399
vt -0.117927 250.907974
vt 18.659014 119.493881
vt -10.093848 160.685287
vt -15.348010 117.188217
vt 9.495381 159.131271
vt 14.262663 109.083847
vt -21.838583 75.928871
vt 21.838583 75.928871
vt -13.551431 112.196465
vt -0.897540 1.944281
vt -0.838945 3.153369
vt -23.280426 15.941557
vt 22.382885 14.382727
vt 18.576017 14.862492
vt 17.433804 36.508259
vt 23.280426 40.818447
vt -19.251741 16.295195
vt -22.382885 42.377277
vt -16.922548 37.516197
vt 0.406654 46.317902
vt 0.897540 54.815723
vt 13.129574 114.042656
vt -21.838583 75.928871
vt 21.838583 75.928871
vt -13.359141 113.037987
vt 11.222838 151.960526
vt -7.424184 192.023254
vt -15.078300 154.233734
vt 17.984659 113.372681
vt -11.097531 146.225494
vt -16.062937 112.050438
vt 11.491677 144.283325
vt -2.006816 19.767242
vt -0.481102 24.080357
vt -2.487918 22.364635
vt 2.006816 23.198687
vt 0.481102 18.885571
vt 2.487918 20.601294
vt 9.286922 201.537216
vt -16.561499 160.313385
vt 9.559835 156.150589
vt -6.185553 200.164917
vt 3.438113 38.932022
vt 3.021277 35.090183
vt 17.779476 26.670912
vt -14.341363 32.631310
vt 14.323962 25.764429
vt -10.753168 30.484209
vt -14.444260 15.395916
vt -17.779476 14.069485
vt -2.720431 4.333664
vt 14.341363 8.109088
vt 12.309411 10.192088
vt -3.438113 1.808375
vt 16.569315 160.021835
vt -9.294711 200.647278
vt -9.550768 155.851196
vt 6.343149 199.228271
vt 11.049049 147.555664
vt -18.742197 114.651840
vt 15.258265 112.251335
vt -11.468512 145.388138
vt 14.874924 153.850403
vt -8.616488 192.246811
vt -11.442378 151.827332
vt 7.505372 191.696457
vt 14.533974 107.896492
vt -21.838583 75.928871
vt 21.838583 75.928871
vt -14.262663 109.083847
vt 1.912789 257.532501
vt -10.160220 201.294647
vt 8.694094 200.725769
vt -0.725533 257.612122
vt 3.089637 254.838760
vt -11.591576 199.580139
vt 7.209742 197.885315
vt 0.458731 255.075928
vt 10.848744 201.088791
vt -2.476633 256.923187
vt -7.986809 199.979095
vt 0.159064 257.078461
vt 6.365812 205.641174
vt -11.341278 159.510986
vt 14.968805 161.678192
vt -8.263777 206.475159
vt 10.192286 194.165970
vt -1.938957 249.867279
vt -8.661426 193.577484
vt 0.699281 249.949631
vt 0.000000 43.677166
vt 37.825535 -21.838583
vt 37.825535 21.838583
vt 3.859055 3.859055
vt -3.859055 3.859055
vt -37.825535 21.838583
vt -3.859055 -3.859055
vt 3.859055 -3.859055
vt 0.000000 -43.677166
vt -37.825535 -21.838583
vt 13.359141 113.037987
vt -21.838583 75.928871
vt 21.838583 75.928871
vt -14.049819 110.015327
vt 13.551431 112.196465
vt -21.838583 75.928871
vt 21.838583 75.928871
vt -13.129574 114.042656
vt 21.838583 75.928871
vt -14.533974 107.896492
vt -21.838583 75.928871
vt 14.049819 110.015327
vt 9.820711 161.405640
vt -17.928034 119.306679
vt 16.121965 118.047874
vt -9.565870 160.015762
vt 10.620505 156.403564
vt -19.564518 118.629044
vt 14.351867 115.012360
vt -10.454300 152.996414
vt 5.667799 48.836273
vt 4.316536 39.548058
vt 31.926651 27.104580
vt -26.258852 36.933495
vt 25.380087 23.067427
vt -20.627945 30.579544
vt -31.926651 3.299024
vt -26.313505 3.596920
vt -4.778253 -15.317509
vt 26.258852 -6.529891
vt 22.023079 -4.718228
vt -5.667799 -18.432669
vt -0.473600 253.600769
vt 8.661363 193.060928
vt -7.302520 7.302520
vt 7.302520 -7.302520
vt 7.302520 7.302520
vt -7.302520 -7.302520
vt 3.859055 98.787247
vt -7.302520 -0.253894
vt 7.302520 -0.253894
vt -3.859055 98.787247
vt 7.302520 -0.253894
vt -3.859055 98.787247
vt -7.302520 -0.253894
vt 3.859055 98.787247
vt 3.859055 98.787247
vt -7.302520 -0.253894
vt 7.302520 -0.253894
vt -3.859055 98.787247
vt 3.859055 98.787247
vt -7.302520 -0.253894
vt 7.302520 -0.253894
vt -3.859055 98.787247
vn 0.4998 0.3168 -0.8061
vn 0.5006 0.2608 -0.8254
vn -0.5107 0.1216 -0.8511
vn -0.9538 0.3001 0.0173
vn 0.9695 0.2446 0.0161
vn -0.4592 0.3958 0.7953
vn 0.1307 -0.9881 0.0807
vn 0.1307 -0.9881 0.0808
vn -0.4592 0.3958 -0.7953
vn 0.9455 0.3246 -0.0265
vn -0.4539 0.3773 -0.8072
vn 0.0676 0.9961 0.0575
vn 0.0675 0.9961 0.0575
vn 0.4540 0.2201 -0.8634
vn -0.0675 -0.9961 -0.0575
vn -0.0676 -0.9961 -0.0575
vn -0.5135 0.2281 0.8272
vn -0.9310 0.3642 0.0239
vn 0.4580 0.3287 0.8260
vn 0.4592 0.3958 0.7953
vn 0.4982 0.1854 0.8470
vn -0.4661 0.2363 0.8526
vn 0.9802 0.1976 0.0114
vn -0.9920 0.1255 -0.0103
vn -0.4689 0.3125 -0.8261
vn -0.0000 -1.0000 0.0000
vn 0.4592 0.3958 -0.7953
vn -0.9183 0.3958 0.0000
vn 0.9183 0.3958 -0.0000
vn 0.4964 0.2319 0.8366
vn -0.4502 0.2910 0.8442
vn -0.0794 -0.9947 -0.0654
vn 0.0000 0.0348 0.9994
vn 0.9994 0.0348 -0.0000
vn -0.0000 0.0348 -0.9994
vn -0.9994 0.0348 0.0000
usemtl natureKit-leaves
s off
f 1/1/1 2/2/1 3/3/1
f 2/2/1 1/1/1 13/4/1
f 26/5/2 22/6/2 40/7/2
f 5/8/3 12/9/3 10/10/3
f 12/9/3 5/8/3 23/11/3
f 6/12/4 25/13/4 7/14/4
f 25/13/4 6/12/4 21/15/4
f 3/16/5 8/17/5 47/18/5
f 8/17/5 3/16/5 2/19/5
f 37/20/6 9/21/6 35/22/6
f 9/21/6 37/20/6 49/23/6
f 10/24/7 11/25/7 31/26/7
f 11/25/7 12/27/7 13/28/7
f 13/28/8 12/27/8 2/29/8
f 2/29/7 12/27/7 14/30/7
f 15/31/7 31/26/7 11/25/7
f 31/26/8 15/31/8 34/32/8
f 34/32/7 15/31/7 16/33/7
f 34/32/7 16/33/7 8/34/7
f 34/32/7 8/34/7 33/35/7
f 33/35/7 8/34/7 2/29/7
f 33/35/7 2/29/7 14/30/7
f 44/36/9 17/37/9 18/38/9
f 17/37/9 44/36/9 19/39/9
f 14/40/10 27/41/10 33/42/10
f 20/43/11 13/44/11 1/45/11
f 13/44/11 20/43/11 11/46/11
f 39/47/12 21/48/12 6/49/12
f 21/48/12 39/47/12 4/50/12
f 4/50/13 39/47/13 41/51/13
f 4/50/13 41/51/13 22/52/13
f 23/53/14 14/54/14 12/55/14
f 14/54/14 23/53/14 24/56/14
f 25/57/15 5/58/15 7/59/15
f 5/58/15 25/57/15 26/60/15
f 7/59/16 5/58/16 30/61/16
f 5/58/15 26/60/15 23/62/15
f 23/62/15 26/60/15 24/63/15
f 24/63/15 26/60/15 40/64/15
f 24/63/15 40/64/15 27/65/15
f 30/61/16 28/66/16 7/59/16
f 28/66/15 30/61/15 29/67/15
f 28/66/15 29/67/15 27/65/15
f 28/66/15 27/65/15 38/68/15
f 38/68/15 27/65/15 40/64/15
f 34/69/17 30/70/17 31/71/17
f 30/70/17 34/69/17 29/72/17
f 15/73/18 20/74/18 32/75/18
f 20/74/18 15/73/18 11/76/18
f 33/77/19 29/78/19 34/79/19
f 29/78/19 33/77/19 27/80/19
f 45/81/20 35/82/20 36/83/20
f 35/82/20 45/81/20 37/84/20
f 41/85/21 28/86/21 38/87/21
f 28/86/21 41/85/21 39/88/21
f 39/89/22 7/90/22 28/91/22
f 7/90/22 39/89/22 6/92/22
f 40/93/23 41/94/23 38/95/23
f 41/94/23 40/93/23 22/96/23
f 30/97/24 10/98/24 31/99/24
f 10/98/24 30/97/24 5/100/24
f 25/101/25 4/102/25 26/103/25
f 4/102/25 25/101/25 21/104/25
f 17/105/26 9/106/26 18/107/26
f 9/106/26 17/105/26 56/108/26
f 56/108/26 17/105/26 42/109/26
f 42/109/26 17/105/26 43/110/26
f 42/109/26 43/110/26 54/111/26
f 53/112/26 9/106/26 56/108/26
f 9/106/26 53/112/26 35/113/26
f 35/113/26 53/112/26 54/111/26
f 35/113/26 54/111/26 36/114/26
f 36/114/26 54/111/26 43/110/26
f 19/115/27 43/116/27 17/117/27
f 43/116/27 19/115/27 46/118/27
f 49/119/28 18/120/28 9/121/28
f 18/120/28 49/119/28 44/122/28
f 43/123/29 45/124/29 36/125/29
f 45/124/29 43/123/29 46/126/29
f 8/127/30 48/128/30 47/129/30
f 48/128/30 8/127/30 16/130/30
f 16/131/31 32/132/31 48/133/31
f 32/132/31 16/131/31 15/134/31
f 20/135/32 44/136/32 32/137/32
f 44/136/32 20/135/32 1/138/32
f 32/137/32 44/136/32 49/139/32
f 44/136/32 1/138/32 19/140/32
f 19/140/32 1/138/32 3/141/32
f 19/140/32 3/141/32 46/142/32
f 46/142/32 3/141/32 45/143/32
f 49/139/32 48/144/32 32/137/32
f 48/144/32 49/139/32 37/145/32
f 48/144/32 37/145/32 47/146/32
f 47/146/32 37/145/32 45/143/32
f 47/146/32 45/143/32 3/141/32
s 1
f 22/6/2 26/5/2 4/147/2
f 11/25/7 10/24/7 12/27/7
f 27/41/10 14/40/10 24/148/10
usemtl natureKit-wood
s off
f 55/149/26 50/150/26 51/151/26
f 50/150/26 55/149/26 52/152/26
f 54/153/33 50/154/33 52/155/33
f 50/154/33 54/153/33 53/156/33
f 55/157/34 54/158/34 52/159/34
f 54/158/34 55/157/34 42/160/34
f 56/161/35 55/162/35 51/163/35
f 55/162/35 56/161/35 42/164/35
f 53/165/36 51/166/36 50/167/36
f 51/166/36 53/165/36 56/168/36
