# Blender v2.79 (sub 0) OBJ File: 'Fixing models.blend'
# www.blender.org
mtllib tree_thin_dark.mtl
o tree_thin_dark
v 0.351923 0.000000 -0.356364
v 0.139285 3.293710 -0.271202
v -0.356553 0.000000 -0.356364
v 0.351924 0.000000 0.352112
v 0.222627 5.000625 0.222814
v -0.356553 0.000000 0.352112
v -0.227256 7.275625 -0.127186
v 0.222627 5.000625 -0.227068
v -1.644756 6.323503 0.129679
v -0.227256 5.606003 -0.320204
v -0.227256 5.000625 -0.227068
v -1.644756 6.323503 -0.320204
v -0.227256 5.000625 0.222814
v -1.644756 5.718124 0.222814
v -2.271200 7.111792 0.008403
v -2.570755 7.111792 -0.441479
v -1.644756 5.718124 -0.227068
v -2.271200 7.111792 -0.441479
v -0.227256 9.075624 -0.086160
v -0.227256 9.075624 0.363722
v -0.227256 5.606003 0.129679
v 0.222627 7.275625 -0.577069
v -0.227256 7.275625 -0.577069
v 0.348653 4.999469 -1.929972
v -0.101229 4.999469 -1.929972
v -0.183273 4.466180 -1.506174
v -0.276408 3.860802 -1.506173
v 0.266609 4.466180 -1.506174
v 0.214043 3.776154 -0.258728
v -0.224368 3.293710 -0.271202
v -0.101229 4.999469 -2.262743
v 0.348653 4.999469 -2.262743
v -0.148739 3.776154 -0.258728
v 0.222627 9.075624 0.363722
v 0.222627 7.275625 -0.127186
v 0.173474 3.860802 -1.506174
v -1.008332 7.647891 -0.227240
v -1.814295 7.647891 1.168728
v -1.362956 7.111792 -0.227240
v -3.426219 7.647891 1.168728
v -3.248908 7.111792 -1.316095
v -1.814295 7.647891 -1.623208
v -3.426219 7.647891 -1.623208
v -4.232182 7.647891 -0.227240
v -3.240848 9.532882 -1.302135
v -3.861439 9.532882 -0.227240
v -3.240848 9.532882 0.847655
v -2.844629 9.991088 0.161384
v -1.991606 7.111792 -1.316095
v -2.570755 7.111792 0.008403
v -1.991606 7.111792 0.861615
v -3.248908 7.111792 0.861615
v -3.877559 7.111792 -0.227240
v -2.844629 9.991088 -0.615864
v -2.585747 9.991088 0.161384
v -1.391568 10.160625 -2.064334
v -2.266444 9.991088 -0.391666
v -1.747470 9.532882 -0.865319
v -1.100893 9.075624 -1.560870
v -1.580003 9.075624 -0.731027
v 0.947045 13.975625 -1.537987
v 0.960257 9.075624 2.009146
v 1.990832 9.075624 0.224138
v 0.960257 9.075624 -1.560871
v 0.222627 9.075624 -0.086160
v -2.712817 10.160625 0.224138
v 1.250932 10.160625 2.512609
v -1.100892 9.075624 2.009146
v 1.964407 13.975625 0.224137
v -1.391567 10.160625 2.512610
v -1.087680 13.975625 1.986260
v -1.087680 13.975625 -1.537987
v 0.297506 14.902979 -0.412952
v 1.250932 10.160625 -2.064335
v 0.947045 13.975625 1.986260
v -0.438141 14.902979 -0.412952
v 0.665329 14.902979 0.224137
v 0.297506 14.902979 0.861225
v -0.805964 14.902979 0.224137
v -2.105042 13.975625 0.224137
v -0.438141 14.902979 0.861225
v 2.572182 10.160625 0.224137
v -1.996580 9.501499 0.853001
v 0.318920 7.878765 -2.645269
v -0.354197 7.878765 -2.256645
v -0.129825 7.878765 -2.645269
v 0.715139 7.420558 -3.331541
v -0.711415 5.535567 -0.860677
v 0.723198 4.999469 -1.167790
v 0.723198 4.999468 -3.345500
v -2.016481 9.532882 0.847655
v -2.599528 9.949188 0.224138
v -1.999666 9.532882 -1.302135
v -1.517377 5.535567 -2.256645
v -1.146634 7.420559 -2.256645
v 0.900510 5.535567 -3.652613
v 0.543292 7.878765 -2.256645
v 0.318920 7.878765 -1.868021
v 0.715139 7.420559 -1.181750
v -0.129825 7.878765 -1.868021
v -0.526043 7.420559 -1.181750
v -0.711415 5.535567 -3.652613
v -1.162754 4.999469 -2.256645
v -0.534103 4.999468 -3.345500
v -0.526044 7.420558 -3.331541
v -1.840606 9.075624 0.727925
v -1.289141 9.075624 -0.227240
v 0.900510 5.535567 -0.860677
v 1.335730 7.420559 -2.256645
v -3.069001 9.991088 -0.227240
v -2.395885 9.991088 -0.615864
v -0.534103 4.999469 -1.167790
v 1.351849 4.999469 -2.256645
v 1.706472 5.535567 -2.256645
vt 12.485277 78.969032
vt 3.364342 0.192716
vt 14.521449 0.192716
vt 5.400514 78.969032
vt -18.612968 -3.364342
vt -7.455862 -14.521449
vt -7.455862 -3.364342
vt -18.612968 -14.521449
vt -3.364342 -0.481099
vt -12.485277 78.295219
vt -14.521449 -0.481099
vt -11.018584 31.401163
vt -3.933821 56.420776
vt -11.018584 56.420776
vt -3.933821 31.401163
vt 11.018584 99.582718
vt 5.400514 90.049210
vt 12.485277 90.049210
vt 3.933821 99.582718
vt 5.400514 27.095695
vt 12.485277 52.115311
vt 5.400514 52.115311
vt 12.485277 27.095695
vt -12.830801 96.749283
vt -27.413471 109.309341
vt -12.830801 87.103615
vt -22.696062 109.309341
vt -3.933821 85.945404
vt -9.108737 101.801979
vt -11.018584 85.945404
vt -2.023974 101.801979
vt 9.108737 108.453873
vt 5.400514 82.103394
vt 12.485277 82.103394
vt 2.023974 108.453873
vt 7.619555 142.923233
vt 6.973466 114.576775
vt 14.704318 142.923233
vt -0.111297 114.576775
vt 3.933821 88.283508
vt 11.018584 88.283508
vt -9.492034 139.891998
vt -16.576797 110.510239
vt -9.492034 110.510239
vt -16.576797 139.891998
vt 18.561476 74.963234
vt 10.184673 64.236023
vt 17.269436 64.236023
vt 11.476712 74.963234
vt -10.184673 70.333542
vt -15.802743 60.800034
vt -8.717979 60.800034
vt -17.269436 70.333542
vt -21.416872 79.561394
vt -14.742877 61.418663
vt -14.742877 71.064331
vt -26.657349 79.561394
vt -5.356320 53.553528
vt 13.988058 72.234451
vt -5.603114 61.240295
vt 14.051011 62.588989
vt 10.728522 24.494633
vt 17.269436 46.944584
vt 10.184673 46.944584
vt 16.441626 24.494633
vt -15.802743 38.769798
vt -9.537513 17.369001
vt -8.717979 38.769798
vt -15.264333 17.369001
vt -11.476712 80.328812
vt -15.802743 58.799698
vt -8.717979 58.799698
vt -18.561476 80.328812
vt -13.508561 71.304893
vt 5.744746 52.626282
vt 6.073432 60.312099
vt -13.672939 61.660625
vt -7.619555 142.923233
vt -6.973466 114.576775
vt 0.111297 114.576775
vt -14.704318 142.923233
vt 16.576797 141.756119
vt 9.492034 112.374367
vt 16.576797 112.374367
vt 9.492034 141.756119
vt 26.657349 80.638687
vt 14.742877 72.141624
vt 14.742877 62.495953
vt 21.416872 80.638687
vt -7.455862 0.086960
vt -9.537513 51.973743
vt -18.612968 0.086960
vt -9.492034 78.863281
vt -15.264333 51.973743
vt -10.728522 59.573830
vt -16.441626 59.573830
vt -16.576797 78.863281
vt -5.400514 78.295219
vt 16.576797 78.400978
vt 7.455862 -0.375343
vt 18.612968 -0.375343
vt 9.492034 78.400978
vt 16.576797 112.184074
vt 9.492034 75.935799
vt 16.576797 75.935799
vt 9.492034 85.581467
vt 9.492034 112.184074
vt -9.492034 86.658752
vt -16.576797 77.013084
vt -9.492034 77.013084
vt -16.576797 113.261360
vt -9.492034 113.261360
vt 8.607925 85.485802
vt -13.761401 87.272156
vt 8.494055 75.840805
vt -13.647531 96.917152
vt 13.211356 88.343025
vt -9.157970 86.556671
vt -9.044100 76.911674
vt 13.097486 97.988022
vt 27.413471 110.386635
vt 12.830801 97.826576
vt 12.830801 88.180908
vt 22.696062 110.386635
vt -5.400514 78.750000
vt -12.485277 78.750000
vt -28.671177 94.908653
vt -6.078842 104.638336
vt -31.463488 104.638336
vt -8.871153 94.908653
vt -15.500707 118.116539
vt -38.093040 108.386856
vt -18.293016 108.386856
vt -40.885353 118.116539
vt 40.885353 112.750244
vt 18.293016 103.020561
vt 38.093040 103.020561
vt 15.500707 112.750244
vt 6.078842 126.228447
vt 28.671177 116.498764
vt 31.463488 126.228447
vt 8.871153 116.498764
vt 8.998075 141.503754
vt 31.463488 111.391304
vt 28.544252 141.503754
vt 6.078842 111.391304
vt 8.998075 51.221806
vt 22.304586 64.216751
vt 15.237742 64.216751
vt -12.955286 59.727585
vt 0.351224 46.732635
vt -5.888443 59.727585
vt 38.093040 11.749502
vt 38.093040 -22.545145
vt 47.993053 -5.397821
vt 27.413471 -2.023974
vt 18.293016 11.749502
vt 22.696062 -2.023974
vt 27.413471 -9.108737
vt 18.293016 -22.545145
vt 22.696062 -9.108737
vt 8.393005 -5.397821
vt 0.351224 140.597382
vt -22.114187 110.484940
vt 3.270458 110.484940
vt -19.194954 140.597382
vt 19.321877 92.225510
vt -3.270458 101.955193
vt -0.478147 92.225510
vt 22.114187 101.955193
vt 37.966118 146.056671
vt 15.500707 115.944221
vt 40.885353 115.944221
vt 18.419941 146.056671
vt -22.114187 128.911591
vt 0.478147 119.181908
vt 3.270458 128.911591
vt -19.321877 119.181908
vt 31.726450 86.767128
vt 18.419941 73.772179
vt 37.966118 73.772179
vt 24.659607 86.767128
vt -11.172575 216.501282
vt 25.655968 155.853424
vt 20.870338 216.501282
vt -15.958204 155.853424
vt 25.655968 153.321320
vt 23.799566 150.378006
vt 24.763929 149.650589
vt -15.958204 153.321320
vt 13.742763 150.378006
vt 3.196576 142.423157
vt -11.380646 134.484787
vt 3.709437 134.484787
vt 3.994703 153.021362
vt -32.833839 213.669220
vt -37.619469 153.021362
vt -0.790927 213.669220
vt -21.078409 148.470734
vt 15.958204 167.307266
vt -25.655968 167.307266
vt 11.380646 148.470734
vt 7.230569 -5.397821
vt 4.266026 -40.616505
vt 15.915056 -20.439793
vt 4.266026 15.604229
vt -9.492034 -7.619555
vt -28.193029 15.604229
vt -16.576797 -7.619555
vt -16.576797 -14.704318
vt -9.492034 -14.704318
vt -28.193029 -40.616505
vt -44.422558 -12.506138
vt 11.811068 2.535834
vt 32.833839 214.792023
vt -3.994703 154.144165
vt 37.619469 154.144165
vt 0.790927 214.792023
vt 32.770588 165.578308
vt -4.266026 146.741776
vt 28.193029 146.741776
vt -8.843585 165.578308
vt -3.994703 158.585327
vt 33.041912 139.748810
vt 37.619469 158.585327
vt 9.991913 147.687180
vt 10.221514 147.142349
vt -3.102664 154.914612
vt 9.743852 139.748810
vt 4.057955 215.939880
vt -32.770588 155.292023
vt 8.843585 155.292023
vt -27.984959 215.939880
vt -22.604877 138.366364
vt -0.790927 115.406143
vt -11.019889 138.366364
vt -32.833839 115.406143
vt 27.984959 212.521362
vt -8.843585 151.873505
vt 32.770588 151.873505
vt -4.057955 212.521362
vt -6.171007 151.186249
vt -27.984959 128.226028
vt 4.057955 128.226028
vt -17.755997 151.186249
vt 15.958204 151.312103
vt -20.870338 211.959961
vt -25.655968 151.312103
vt 11.172575 211.959961
vt 8.843585 155.050278
vt -28.193029 136.213745
vt 4.266026 136.213745
vt -32.770588 155.050278
vt 6.171007 -22.539032
vt 6.171007 -2.473242
vt 0.378512 -12.506138
vt 17.755997 -22.539032
vt 17.755997 -2.473242
vt 23.548491 -12.506138
vt 27.984959 108.925491
vt 6.171007 131.885727
vt -4.057955 108.925491
vt 17.755997 131.885727
vt 10.641376 154.355865
vt -11.172575 131.395645
vt 20.870338 131.395645
vt -0.943613 154.355865
vt -20.870338 105.755875
vt 0.943613 128.716095
vt -10.641376 128.716095
vt 11.172575 105.755875
vt 32.833839 121.745377
vt 11.019889 144.705612
vt 0.790927 121.745377
vt 22.604877 144.705612
vt -0.582856 143.206726
vt -37.619469 162.043243
vt -33.041912 143.206726
vt 3.994703 162.043243
vt 8.878403 104.828331
vt 19.194954 91.833382
vt 12.955286 104.828331
vt 11.251776 91.833382
vt -18.371340 143.742615
vt -40.885353 114.131493
vt -15.500707 114.131493
vt -37.966118 144.243942
vt -18.684740 144.243942
vt -19.256296 85.338211
vt -5.949786 72.343262
vt -12.189452 85.338211
vt -11.026387 41.716522
vt -24.332897 28.721575
vt -4.786720 28.721575
vt -18.093231 41.716522
vt -26.749262 63.248138
vt -40.055771 50.253189
vt -20.509594 50.253189
vt -33.816105 63.248138
vt 12.189452 42.274982
vt 25.495962 29.280033
vt 19.256296 42.274982
vt 5.949786 29.280033
vt 24.332897 116.817657
vt 1.867486 86.705215
vt 27.252132 86.705215
vt 4.786720 116.817657
vt 27.252132 73.366158
vt 4.659797 63.636478
vt 24.459820 63.636478
vt 1.867486 73.366158
vt -1.867486 99.772324
vt -24.459820 90.042641
vt -4.659797 90.042641
vt -27.252132 99.772324
vt 11.026387 20.441254
vt 11.026387 32.681385
vt 7.492965 26.561321
vt 18.093231 20.441254
vt 18.093231 32.681385
vt 21.626652 26.561321
vt -18.684740 64.793839
vt -31.726450 77.788788
vt -37.966118 64.793839
vt -27.866592 76.600502
vt -27.649567 77.788788
vt 22.114187 119.590775
vt -1.059365 142.398605
vt -3.270458 119.590775
vt 8.101630 142.398605
vt 11.251776 149.703217
vt -5.949786 116.704903
vt -28.415197 86.592461
vt -3.030551 86.592461
vt -25.495962 116.704903
vt -40.055771 112.244919
vt -17.590361 82.132477
vt -20.509594 112.244919
vt -42.975006 82.132477
vt 28.415197 77.897995
vt 5.949786 108.010445
vt 3.030551 77.897995
vt 25.495962 108.010445
vt -28.415197 73.699944
vt -5.822862 63.970264
vt -3.030551 73.699944
vt -25.622887 63.970264
vt 33.816105 64.365051
vt 20.509594 51.370106
vt 40.055771 51.370106
vt 24.332897 72.901726
vt 11.026387 85.896667
vt 4.786720 72.901726
vt 18.093231 85.896667
vt -42.975006 86.903030
vt -20.382671 77.173347
vt -17.590361 86.903030
vt -40.182693 77.173347
vt 25.622887 89.708855
vt 3.030551 99.438538
vt 5.822862 89.708855
vt 28.415197 99.438538
vt -4.786720 107.897690
vt -27.252132 77.785248
vt -1.867486 77.785248
vt -24.332897 107.897690
vt -31.463488 118.684410
vt -25.658907 141.492249
vt -28.592854 148.295532
vt -6.078842 118.684410
vt -8.289935 141.492249
vt 42.975006 82.357979
vt 20.509594 112.470428
vt 17.590361 82.357979
vt 40.055771 112.470428
vt -31.726450 -11.517887
vt -31.726450 0.722245
vt -35.259872 -5.397821
vt -27.649567 -11.517887
vt -24.659607 0.722245
vt -22.621166 -2.808440
vt -4.659797 43.708645
vt -4.659797 9.413997
vt 5.240215 26.561321
vt -11.476712 26.657349
vt -24.459820 43.708645
vt -18.561476 26.657349
vt -18.561476 21.416872
vt -11.476712 21.416872
vt -24.459820 9.413997
vt -34.359833 26.561321
vt 20.382671 76.505775
vt 42.975006 86.235458
vt 17.590361 86.235458
vt 40.182693 76.505775
vt 28.544252 51.221806
vt -19.194954 46.732635
vt -25.495962 72.343262
vt 19.194954 149.703217
vt 26.749262 64.365051
vn -0.9997 0.0258 0.0000
vn 0.0000 -1.0000 0.0000
vn 0.9997 0.0258 -0.0000
vn 0.4516 0.8922 0.0000
vn -1.0000 0.0000 0.0000
vn -0.4516 -0.8922 0.0000
vn -0.0000 0.1521 0.9884
vn 0.7829 0.6222 0.0000
vn -0.8329 -0.5534 0.0000
vn -0.0000 0.2631 -0.9648
vn 0.0000 0.6222 0.7829
vn 0.0000 -0.0000 -1.0000
vn -0.9884 0.1521 -0.0000
vn 0.9875 -0.1519 -0.0424
vn 0.0000 0.8750 0.4840
vn -0.0000 -0.9088 -0.4173
vn 0.0000 -0.5534 -0.8329
vn -0.9823 0.1511 0.1108
vn 1.0000 0.0000 0.0000
vn 0.0000 -0.2631 0.9648
vn 0.9884 -0.1521 0.0000
vn -0.0000 0.0258 -0.9997
vn -0.0200 -0.0859 -0.9961
vn -0.0000 -0.0626 -0.9980
vn 0.9999 0.0131 -0.0000
vn 0.9999 0.0124 -0.0000
vn 0.0000 0.0886 0.9961
vn 0.0000 0.0258 0.9997
vn 0.0199 0.1051 0.9943
vn 0.0302 0.1520 0.9879
vn -0.0302 -0.1520 -0.9879
vn -0.0000 -0.1521 -0.9884
vn 0.0767 0.1516 0.9855
vn -0.0767 -0.1516 -0.9855
vn 0.7515 -0.4971 0.4339
vn 0.0000 -0.4971 0.8677
vn 0.0000 -0.4971 -0.8677
vn -0.7515 -0.4971 -0.4339
vn -0.8537 0.1679 -0.4929
vn -0.4809 0.8317 -0.2776
vn -0.4809 0.8317 0.2776
vn -0.8537 0.1679 0.4929
vn 0.7515 -0.4971 -0.4339
vn 0.0000 0.1679 -0.9858
vn -0.7515 -0.4971 0.4339
vn 0.0000 0.8317 -0.5553
vn -0.8579 0.1367 -0.4953
vn -0.7856 -0.4209 -0.4536
vn -0.7856 -0.4209 -0.4535
vn 0.8579 0.1367 -0.4953
vn 0.7856 -0.4209 0.4536
vn 0.7856 -0.4209 0.4535
vn -0.8579 0.1367 0.4953
vn 0.0000 -0.4209 0.9071
vn -0.7856 -0.4209 0.4536
vn -0.7856 -0.4209 0.4535
vn -0.0000 0.1367 -0.9906
vn 0.5508 0.7716 -0.3180
vn 0.0000 0.1367 0.9906
vn -0.0000 0.7716 -0.6361
vn 0.8579 0.1367 0.4953
vn -0.0000 -0.4209 -0.9071
vn 0.0000 1.0000 0.0000
vn 0.0000 0.7716 0.6361
vn -0.5508 0.7716 -0.3180
vn 0.5508 0.7716 0.3180
vn -0.5508 0.7716 0.3180
vn 0.7856 -0.4209 -0.4536
vn 0.4809 0.8317 -0.2776
vn 0.0000 0.1679 0.9858
vn 0.0000 0.8317 0.5553
vn 0.8537 0.1679 -0.4929
vn 0.4809 0.8317 0.2776
vn 0.8537 0.1679 0.4929
usemtl natureKit-wood
s off
f 13/1/1 3/2/1 6/3/1
f 3/2/1 13/1/1 11/4/1
f 1/5/2 6/6/2 3/7/2
f 6/6/2 1/5/2 4/8/2
f 1/9/3 5/10/3 4/11/3
f 21/12/4 12/13/4 9/14/4
f 12/13/4 21/12/4 10/15/4
f 9/16/5 17/17/5 14/18/5
f 17/17/5 9/16/5 12/19/5
f 11/20/6 14/21/6 17/22/6
f 14/21/6 11/20/6 13/23/6
f 9/24/7 50/25/7 14/26/7
f 50/25/7 9/24/7 15/27/7
f 12/28/8 15/29/8 9/30/8
f 15/29/8 12/28/8 18/31/8
f 50/32/9 17/33/9 14/34/9
f 17/33/9 50/32/9 16/35/9
f 19/36/5 7/37/5 20/38/5
f 7/37/5 19/36/5 23/39/5
f 7/37/5 23/39/5 10/40/5
f 10/40/5 21/41/5 7/37/5
f 19/42/10 22/43/10 23/44/10
f 22/43/10 19/42/10 65/45/10
f 24/46/11 26/47/11 28/48/11
f 26/47/11 24/46/11 25/49/11
f 26/50/12 36/51/12 27/52/12
f 36/51/12 26/50/12 28/53/12
f 25/54/13 27/55/13 26/56/13
f 27/55/13 25/54/13 31/57/13
f 2/58/14 28/59/14 29/60/14
f 28/59/14 2/58/14 36/61/14
f 33/62/15 28/63/15 26/64/15
f 28/63/15 33/62/15 29/65/15
f 36/66/16 30/67/16 27/68/16
f 30/67/16 36/66/16 2/69/16
f 31/70/17 36/71/17 27/72/17
f 36/71/17 31/70/17 32/73/17
f 26/74/18 30/75/18 33/76/18
f 30/75/18 26/74/18 27/77/18
f 65/78/19 35/79/19 22/80/19
f 35/79/19 65/78/19 34/81/19
f 34/82/20 7/83/20 35/84/20
f 7/83/20 34/82/20 20/85/20
f 32/86/21 28/87/21 36/88/21
f 28/87/21 32/86/21 24/89/21
s 1
f 3/90/22 30/91/22 1/92/22
f 30/91/22 3/90/22 11/93/23
f 1/92/22 30/91/22 2/94/22
f 30/91/22 11/93/23 33/95/22
f 29/96/22 1/92/22 2/94/22
f 1/92/22 29/96/22 8/97/24
f 8/97/24 29/96/22 33/95/22
f 8/97/24 33/95/22 11/93/23
f 5/10/25 1/9/3 8/98/26
f 5/99/27 6/100/28 4/101/28
f 6/100/28 5/99/27 13/102/29
f 35/103/7 13/104/29 5/105/27
f 13/104/29 35/103/7 21/106/30
f 21/106/30 35/103/7 7/107/7
f 10/108/31 8/109/24 11/110/23
f 8/109/24 10/108/31 22/111/32
f 22/111/32 10/108/31 23/112/32
f 21/113/30 14/114/33 13/115/29
f 14/114/33 21/113/30 9/116/33
f 17/117/34 10/118/31 11/119/23
f 10/118/31 17/117/34 12/120/34
f 16/121/32 12/122/32 17/123/32
f 12/122/32 16/121/32 18/124/32
f 8/125/26 35/79/19 5/126/25
f 22/80/19 35/79/19 8/125/26
usemtl natureKit-leaves
s off
f 51/127/35 37/128/35 38/129/35
f 37/128/35 51/127/35 39/130/35
f 38/131/36 52/132/36 51/133/36
f 52/132/36 38/131/36 40/134/36
f 43/135/37 49/136/37 41/137/37
f 49/136/37 43/135/37 42/138/37
f 43/139/38 53/140/38 44/141/38
f 53/140/38 43/139/38 41/142/38
f 45/143/39 44/144/39 46/145/39
f 44/144/39 45/143/39 43/146/39
f 45/147/40 110/148/40 54/149/40
f 110/150/41 47/151/41 48/152/41
f 41/153/2 52/154/2 53/155/2
f 52/154/2 41/153/2 16/156/2
f 16/156/2 41/153/2 49/157/2
f 16/156/2 49/157/2 18/158/2
f 50/159/2 52/154/2 16/156/2
f 52/154/2 50/159/2 51/160/2
f 51/160/2 18/158/2 49/157/2
f 51/160/2 50/159/2 15/161/2
f 51/160/2 15/161/2 18/158/2
f 51/160/2 49/157/2 39/162/2
f 47/163/42 44/164/42 40/165/42
f 44/164/42 47/163/42 46/166/42
f 49/167/43 37/168/43 39/169/43
f 37/168/43 49/167/43 42/170/43
f 45/171/44 42/172/44 43/173/44
f 42/172/44 45/171/44 93/174/44
f 44/175/45 52/176/45 40/177/45
f 52/176/45 44/175/45 53/178/45
f 54/179/46 93/180/46 45/181/46
f 93/180/46 54/179/46 111/182/46
f 72/183/47 66/184/47 80/185/47
f 66/184/47 72/183/47 56/186/47
f 66/187/48 55/188/48 92/189/48
f 55/188/49 66/187/49 56/190/49
f 55/188/48 56/190/48 57/191/48
f 57/191/48 56/190/48 58/192/48
f 58/192/48 56/190/48 59/193/48
f 59/193/49 60/194/49 58/192/49
f 74/195/50 69/196/50 82/197/50
f 69/196/50 74/195/50 61/198/50
f 62/199/51 82/200/51 67/201/51
f 82/200/52 62/199/52 63/202/52
f 107/203/2 68/204/2 106/205/2
f 68/204/2 107/203/2 59/206/2
f 68/204/2 59/206/2 19/207/2
f 19/207/2 59/206/2 64/208/2
f 19/207/2 64/208/2 65/209/2
f 65/209/2 64/208/2 34/210/2
f 20/211/2 68/204/2 19/207/2
f 68/204/2 20/211/2 62/212/2
f 62/212/2 20/211/2 34/210/2
f 62/212/2 34/210/2 64/208/2
f 62/212/2 64/208/2 63/213/2
f 59/206/2 107/203/2 60/214/2
f 71/215/53 66/216/53 70/217/53
f 66/216/53 71/215/53 80/218/53
f 67/219/54 68/220/54 62/221/54
f 68/220/54 67/219/54 70/222/54
f 66/223/55 68/224/55 70/225/55
f 68/224/56 66/223/56 91/226/56
f 68/224/56 91/226/56 83/227/56
f 91/226/56 66/223/56 92/228/56
f 106/229/55 68/224/55 83/227/55
f 72/230/57 74/231/57 56/232/57
f 74/231/57 72/230/57 61/233/57
f 77/234/58 61/235/58 73/236/58
f 61/235/58 77/234/58 69/237/58
f 75/238/59 70/239/59 67/240/59
f 70/239/59 75/238/59 71/241/59
f 76/242/60 61/243/60 72/244/60
f 61/243/60 76/242/60 73/245/60
f 82/246/61 75/247/61 67/248/61
f 75/247/61 82/246/61 69/249/61
f 56/250/62 64/251/62 59/252/62
f 64/251/62 56/250/62 74/253/62
f 81/254/63 76/255/63 79/256/63
f 76/255/63 81/254/63 78/257/63
f 76/255/63 78/257/63 73/258/63
f 73/258/63 78/257/63 77/259/63
f 75/260/64 81/261/64 71/262/64
f 81/261/64 75/260/64 78/263/64
f 79/264/65 72/265/65 80/266/65
f 72/265/65 79/264/65 76/267/65
f 75/268/66 77/269/66 78/270/66
f 77/269/66 75/268/66 69/271/66
f 71/272/67 79/273/67 80/274/67
f 79/273/67 71/272/67 81/275/67
f 64/276/68 82/277/68 63/278/68
f 82/277/68 64/276/68 74/279/68
f 57/280/69 93/281/69 111/282/69
f 93/281/69 57/280/69 58/283/69
f 83/284/70 40/285/70 38/286/70
f 40/285/70 83/284/70 47/287/70
f 47/287/70 83/284/70 91/288/70
f 85/289/41 101/290/41 100/291/41
f 86/292/46 87/293/46 105/294/46
f 87/293/46 86/292/46 84/295/46
f 85/296/40 105/297/40 95/298/40
f 105/297/40 85/296/40 86/299/40
f 97/300/69 87/301/69 84/302/69
f 87/301/69 97/300/69 109/303/69
f 99/304/70 88/305/70 108/306/70
f 88/305/70 99/304/70 101/307/70
f 108/308/36 112/309/36 89/310/36
f 112/309/36 108/308/36 88/311/36
f 102/312/37 90/313/37 104/314/37
f 90/313/37 102/312/37 96/315/37
f 100/316/63 86/317/63 85/318/63
f 86/317/63 100/316/63 98/319/63
f 86/317/63 98/319/63 84/320/63
f 84/320/63 98/319/63 97/321/63
f 91/322/71 48/323/71 47/324/71
f 48/323/71 91/322/71 92/325/71
f 55/326/71 48/323/71 92/325/71
f 42/327/72 107/328/72 37/329/72
f 107/328/72 42/327/72 60/330/72
f 60/330/72 42/327/72 58/331/72
f 101/332/42 94/333/42 88/334/42
f 94/333/42 101/332/42 95/335/42
f 105/336/39 94/337/39 95/338/39
f 94/337/39 105/336/39 102/339/39
f 96/340/72 109/341/72 114/342/72
f 109/341/72 96/340/72 87/343/72
f 94/344/45 112/345/45 88/346/45
f 112/345/45 94/344/45 103/347/45
f 97/348/73 99/349/73 109/350/73
f 99/351/71 100/352/71 101/353/71
f 100/352/71 99/351/71 98/354/71
f 102/355/38 103/356/38 94/357/38
f 103/356/38 102/355/38 104/358/38
f 90/359/43 114/360/43 113/361/43
f 114/360/43 90/359/43 96/362/43
f 105/363/44 96/364/44 102/365/44
f 96/364/44 105/363/44 87/366/44
f 38/367/74 106/368/74 83/369/74
f 106/368/74 38/367/74 37/370/74
f 106/368/74 37/370/74 107/371/74
f 114/372/74 99/373/74 108/374/74
f 99/373/74 114/372/74 109/375/74
f 48/376/63 54/377/63 110/378/63
f 54/377/63 48/376/63 55/379/63
f 54/377/63 55/379/63 111/380/63
f 111/380/63 55/379/63 57/381/63
f 104/382/2 112/383/2 103/384/2
f 112/383/2 104/382/2 31/385/2
f 31/385/2 104/382/2 90/386/2
f 31/385/2 90/386/2 32/387/2
f 32/387/2 90/386/2 24/388/2
f 25/389/2 112/383/2 31/385/2
f 112/383/2 25/389/2 89/390/2
f 89/390/2 25/389/2 24/388/2
f 89/390/2 24/388/2 90/386/2
f 89/390/2 90/386/2 113/391/2
f 89/392/35 114/393/35 108/394/35
f 114/393/35 89/392/35 113/395/35
s 1
f 110/148/40 45/147/40 46/396/40
f 47/151/41 110/150/41 46/397/41
f 101/290/41 85/289/41 95/398/41
f 58/331/72 42/327/72 93/399/72
f 99/349/73 97/348/73 98/400/73
