# Blender v2.79 (sub 0) OBJ File: 'Fixing models.blend'
# www.blender.org
mtllib tree_default_fall.mtl
o tree_default_fall
v -0.437029 8.003875 -0.437030
v 0.688234 -0.000000 -0.688234
v -0.220109 2.475248 -0.610548
v 0.329891 2.475248 -0.610548
v 0.437029 8.003875 -0.437030
v 0.688234 0.000000 0.688234
v -0.688234 0.000000 0.688234
v 0.437029 8.003875 0.437027
v -0.437029 8.003875 0.437027
v -0.688234 -0.000000 -0.688234
v 0.473910 6.828755 0.272125
v 0.473910 6.828755 -0.202875
v 0.459010 7.303521 -0.202875
v 0.459010 7.303521 0.272125
v 0.216569 5.886149 1.353912
v -1.444634 2.995593 0.261440
v -1.444634 2.995593 -0.140560
v -0.598158 2.869978 0.360440
v -0.598158 2.869978 -0.239560
v -0.579336 3.469682 0.360440
v -1.432024 3.397396 -0.140560
v -1.432024 3.397396 0.261440
v -0.579336 3.469682 -0.239560
v -0.203181 5.886149 1.353912
v -0.280806 5.362354 0.519933
v -0.203181 5.466606 1.367079
v 0.216569 5.466606 1.367079
v 0.294194 5.937071 0.501895
v -0.280806 5.937071 0.501895
v 0.294194 5.362354 0.519933
v 1.221828 6.906881 -0.148250
v 1.221828 6.906881 0.217500
v 1.210354 7.272451 -0.148250
v 1.210354 7.272451 0.217500
v -0.220109 1.925518 -0.627801
v -0.129359 2.407285 -1.338038
v 0.329891 1.925518 -0.627801
v 0.239141 2.407285 -1.338038
v 0.239141 2.038967 -1.349598
v -0.129359 2.038967 -1.349597
v 1.453375 15.003874 2.517316
v -1.887500 9.553875 3.269244
v 1.887500 9.553875 3.269244
v -1.453375 15.003874 2.517316
v -3.775000 9.553875 -0.000002
v 3.775000 9.553875 -0.000002
v -2.944499 8.003875 -0.000001
v 1.472250 8.003875 2.550010
v -0.000000 17.078875 -0.000003
v -1.472250 8.003875 -2.550013
v 2.944499 8.003875 -0.000002
v -2.906749 15.003874 -0.000003
v 1.887500 9.553875 -3.269248
v -1.472250 8.003875 2.550010
v -1.887500 9.553875 -3.269248
v 1.472250 8.003875 -2.550013
v -1.453375 15.003874 -2.517322
v 2.906749 15.003874 -0.000003
v 1.453375 15.003874 -2.517322
vt -6.882341 125.767342
vt 5.676225 54.327572
vt 6.882341 125.767342
vt -3.772594 54.327572
vt -3.772594 44.878754
vt 5.676225 44.878754
vt 10.838332 -0.339999
vt -10.838332 -0.339999
vt 10.838332 -0.339999
vt 3.466288 29.998056
vt -10.838332 -0.339999
vt 6.882341 125.767342
vt 3.466288 38.659473
vt -5.195129 38.659473
vt -5.195129 29.998056
vt -6.882341 125.767342
vt 10.838332 -0.339999
vt 4.632971 84.148117
vt -10.838332 -0.339999
vt 6.882341 125.767342
vt 4.632971 93.203232
vt -4.422147 93.203232
vt -4.422147 84.148117
vt -6.882341 125.767342
vt -10.838332 10.838332
vt 10.838332 -10.838332
vt 10.838332 10.838332
vt -10.838332 -10.838332
vt -10.838332 -0.339999
vt -4.285461 107.252403
vt -6.882341 125.767342
vt 10.838332 -0.339999
vt 3.194854 107.252403
vt 3.194854 114.732719
vt 6.882341 125.767342
vt -4.285461 114.732719
vt -2.213539 52.768517
vt 4.117170 46.437809
vt 4.117170 52.768517
vt -2.213539 46.437809
vt 3.410530 91.980797
vt -3.199706 85.370560
vt 3.410530 85.370560
vt -3.199706 91.980797
vt -8.405854 54.616016
vt -22.121466 47.149998
vt -8.700276 45.171783
vt -21.924204 53.477634
vt -3.772594 15.952218
vt 4.117170 29.428532
vt -2.213539 29.428532
vt 5.676225 15.952218
vt 22.341587 47.156860
vt 8.625976 54.622879
vt 8.920398 45.178646
vt 22.144325 53.484497
vt -2.213539 -17.951496
vt 5.676225 -4.475183
vt -3.772594 -4.475183
vt 20.942337 92.680275
vt 7.752063 84.431503
vt 21.148842 86.073265
vt 7.469180 93.482201
vt 4.632971 18.440962
vt -3.199706 31.882492
vt -4.422147 18.440962
vt 3.410530 31.882492
vt -3.199706 -15.753260
vt 4.632971 -2.311730
vt -4.422147 -2.311730
vt 3.410530 -15.753260
vt -7.732899 84.430901
vt -20.923174 92.679672
vt -21.129679 86.072662
vt -7.450016 93.481606
vt 2.334617 108.112640
vt -3.425225 113.872482
vt -3.425225 108.112640
vt 2.334617 113.872482
vt 18.941908 108.758530
vt 6.898273 115.004852
vt 7.132311 107.528198
vt 18.761698 114.515549
vt 2.334617 30.437601
vt -4.285461 18.595293
vt 3.194854 18.595293
vt -3.425225 30.437601
vt -6.977456 115.007332
vt -19.021091 108.761002
vt -7.211495 107.530678
vt -18.840881 114.518028
vt -3.425225 -14.312398
vt 3.194854 -2.470089
vt -4.285461 -2.470089
vt 2.334617 -14.312398
vt 2.037154 37.230339
vt -3.765996 31.427191
vt 2.037154 31.427191
vt -3.765996 37.230339
vt -20.655554 37.891655
vt -9.379832 30.304710
vt -9.110225 38.961933
vt -20.836189 32.091316
vt -5.195129 -5.947487
vt 2.037154 -17.453905
vt 3.466288 -5.947487
vt -3.765996 -17.453905
vt 9.165208 30.298027
vt 20.440929 37.884972
vt 8.895601 38.955246
vt 20.621567 32.084633
vt 2.037154 25.981390
vt -5.195129 14.474971
vt 3.466288 14.474971
vt -3.765996 25.981390
vt 4.117170 -17.951496
vt 22.887794 228.646149
vt -29.724409 142.006363
vt 29.724409 142.006363
vt -22.887794 228.646149
vt 22.887794 228.646149
vt -29.724409 142.006363
vt 29.724409 142.006363
vt -22.887794 228.646149
vt 29.724409 142.006363
vt -22.887794 228.646149
vt -29.724409 142.006363
vt 22.887794 228.646149
vt -22.887794 228.646149
vt 29.724409 142.006363
vt 22.887794 228.646149
vt -29.724409 142.006363
vt 22.887794 228.646149
vt -29.724409 142.006363
vt 29.724409 142.006363
vt -22.887794 228.646149
vt 29.724409 142.006363
vt -22.887794 228.646149
vt -29.724409 142.006363
vt 22.887794 228.646149
vt 23.185040 40.157665
vt 23.185040 -40.157665
vt 46.370079 0.000000
vt 6.882341 6.882341
vt -23.185040 40.157665
vt -6.882341 6.882341
vt -6.882341 -6.882341
vt 6.882341 -6.882341
vt -23.185040 -40.157665
vt -46.370079 0.000000
vt 22.887794 119.698349
vt -0.000000 171.072952
vt -22.887794 119.698349
vt -29.724409 158.147964
vt 23.185040 131.238647
vt 29.724409 158.147964
vt -23.185040 131.238647
vt -29.724409 158.147964
vt 23.185040 131.238647
vt 29.724409 158.147964
vt -23.185040 131.238647
vt -23.185040 131.238647
vt 29.724409 158.147964
vt -29.724409 158.147964
vt 23.185040 131.238647
vt -22.887794 119.698349
vt 22.887794 119.698349
vt 23.185040 131.238647
vt -29.724409 158.147964
vt -23.185040 131.238647
vt 29.724409 158.147964
vt 29.724409 158.147964
vt -23.185040 131.238647
vt 23.185040 131.238647
vt -29.724409 158.147964
vt -22.887794 119.698349
vt 22.887794 119.698349
vt 22.887794 119.698349
vt -22.887794 119.698349
vt 29.724409 158.147964
vt -23.185040 131.238647
vt 23.185040 131.238647
vt -29.724409 158.147964
vt -22.887794 119.698349
vt 22.887794 119.698349
vt -22.887794 119.698349
vt 22.887794 119.698349
vn -0.9995 0.0314 0.0000
vn 0.0000 0.0314 -0.9995
vn 0.0000 0.0314 0.9995
vn 0.0000 -1.0000 0.0000
vn 0.9995 0.0314 -0.0000
vn -0.1156 0.0036 0.9933
vn -0.1468 -0.9892 0.0000
vn -0.1156 0.0036 -0.9933
vn -0.0845 0.9964 -0.0000
vn -0.9959 0.0029 0.0909
vn 0.0000 -0.9925 0.1221
vn 0.0000 0.9982 0.0597
vn 0.9959 0.0029 0.0909
vn 0.0726 0.0023 0.9974
vn 0.1039 -0.9946 -0.0000
vn 0.0726 0.0023 -0.9974
vn 0.0413 0.9991 0.0000
vn -0.9923 0.0039 -0.1241
vn 0.0000 0.9957 -0.0930
vn 0.9923 0.0039 -0.1241
vn 0.0000 -0.9879 -0.1553
vn 0.0000 0.1367 0.9906
vn -0.8579 0.1367 0.4953
vn 0.8579 0.1367 -0.4953
vn -0.8579 0.1367 -0.4953
vn -0.0000 0.1367 -0.9906
vn 0.8579 0.1367 0.4953
vn 0.5508 0.7716 0.3180
vn -0.7856 -0.4209 -0.4535
vn -0.7856 -0.4209 -0.4536
vn -0.7856 -0.4209 0.4535
vn -0.7856 -0.4209 0.4536
vn 0.7856 -0.4209 0.4536
vn 0.7856 -0.4209 0.4535
vn -0.5508 0.7716 0.3180
vn 0.7856 -0.4209 -0.4536
vn 0.7856 -0.4209 -0.4535
vn 0.0000 -0.4209 0.9071
vn -0.5508 0.7716 -0.3180
vn 0.0000 0.7716 0.6361
vn 0.0000 -0.4209 -0.9071
vn -0.0000 0.7716 -0.6361
vn 0.5508 0.7716 -0.3180
usemtl natureKit-wood
s off
f 1/1/1 20/2/1 9/3/1
f 20/2/1 1/1/1 23/4/1
f 23/4/1 1/1/1 19/5/1
f 18/6/1 9/3/1 20/2/1
f 18/6/1 7/7/1 9/3/1
f 7/7/1 18/6/1 10/8/1
f 10/8/1 18/6/1 19/5/1
f 10/8/1 19/5/1 1/1/1
f 10/9/2 35/10/2 2/11/2
f 35/10/2 10/9/2 1/12/2
f 35/10/2 1/12/2 3/13/2
f 3/13/2 1/12/2 4/14/2
f 37/15/2 2/11/2 35/10/2
f 2/11/2 37/15/2 5/16/2
f 5/16/2 37/15/2 4/14/2
f 5/16/2 4/14/2 1/12/2
f 6/17/3 30/18/3 7/19/3
f 30/18/3 6/17/3 8/20/3
f 30/18/3 8/20/3 28/21/3
f 28/21/3 8/20/3 29/22/3
f 25/23/3 7/19/3 30/18/3
f 7/19/3 25/23/3 9/24/3
f 9/24/3 25/23/3 29/22/3
f 9/24/3 29/22/3 8/20/3
f 2/25/4 7/26/4 10/27/4
f 7/26/4 2/25/4 6/28/4
f 6/29/5 11/30/5 8/31/5
f 11/30/5 6/29/5 2/32/5
f 11/30/5 2/32/5 12/33/5
f 12/33/5 2/32/5 13/34/5
f 13/34/5 2/32/5 5/35/5
f 8/31/5 14/36/5 5/35/5
f 14/36/5 8/31/5 11/30/5
f 5/35/5 14/36/5 13/34/5
f 21/37/1 16/38/1 22/39/1
f 16/38/1 21/37/1 17/40/1
f 15/41/3 26/42/3 27/43/3
f 26/42/3 15/41/3 24/44/3
f 20/45/6 16/46/6 18/47/6
f 16/46/6 20/45/6 22/48/6
f 19/49/7 16/50/7 17/51/7
f 16/50/7 19/49/7 18/52/7
f 17/53/8 23/54/8 19/55/8
f 23/54/8 17/53/8 21/56/8
f 21/57/9 20/58/9 23/59/9
f 24/60/10 25/61/10 26/62/10
f 25/61/10 24/60/10 29/63/10
f 30/64/11 26/65/11 25/66/11
f 26/65/11 30/64/11 27/67/11
f 24/68/12 28/69/12 29/70/12
f 28/69/12 24/68/12 15/71/12
f 30/72/13 15/73/13 27/74/13
f 15/73/13 30/72/13 28/75/13
f 31/76/5 34/77/5 32/78/5
f 34/77/5 31/76/5 33/79/5
f 32/80/14 14/81/14 11/82/14
f 14/81/14 32/80/14 34/83/14
f 31/84/15 11/85/15 12/86/15
f 11/85/15 31/84/15 32/87/15
f 13/88/16 31/89/16 12/90/16
f 31/89/16 13/88/16 33/91/16
f 34/92/17 13/93/17 14/94/17
f 13/93/17 34/92/17 33/95/17
f 36/96/2 39/97/2 40/98/2
f 39/97/2 36/96/2 38/99/2
f 36/100/18 35/101/18 3/102/18
f 35/101/18 36/100/18 40/103/18
f 4/104/19 36/105/19 3/106/19
f 36/105/19 4/104/19 38/107/19
f 37/108/20 38/109/20 4/110/20
f 38/109/20 37/108/20 39/111/20
f 40/112/21 37/113/21 35/114/21
f 37/113/21 40/112/21 39/115/21
s 1
f 20/58/9 21/57/9 22/116/9
usemtl natureKit-leavesFall
s off
f 41/117/22 42/118/22 43/119/22
f 42/118/22 41/117/22 44/120/22
f 44/121/23 45/122/23 42/123/23
f 45/122/23 44/121/23 52/124/23
f 53/125/24 58/126/24 46/127/24
f 58/126/24 53/125/24 59/128/24
f 57/129/25 45/130/25 52/131/25
f 45/130/25 57/129/25 55/132/25
f 57/133/26 53/134/26 55/135/26
f 53/134/26 57/133/26 59/136/26
f 46/137/27 41/138/27 43/139/27
f 41/138/27 46/137/27 58/140/27
f 50/141/4 54/142/4 47/143/4
f 54/142/4 50/141/4 1/144/4
f 1/144/4 50/141/4 56/145/4
f 1/144/4 56/145/4 5/146/4
f 5/146/4 56/145/4 8/147/4
f 9/148/4 54/142/4 1/144/4
f 54/142/4 9/148/4 48/149/4
f 48/149/4 9/148/4 8/147/4
f 48/149/4 8/147/4 56/145/4
f 48/149/4 56/145/4 51/150/4
f 58/151/28 49/152/28 41/153/28
f 55/154/29 47/155/29 45/156/29
f 47/155/30 55/154/30 50/157/30
f 45/158/31 54/159/31 42/160/31
f 54/159/32 45/158/32 47/161/32
f 48/162/33 46/163/33 43/164/33
f 46/163/34 48/162/34 51/165/34
f 49/152/35 52/166/35 44/167/35
f 56/168/36 46/169/36 51/170/36
f 46/169/37 56/168/37 53/171/37
f 43/172/38 54/173/38 48/174/38
f 54/173/38 43/172/38 42/175/38
f 49/152/39 57/176/39 52/177/39
f 41/178/40 49/152/40 44/179/40
f 55/180/41 56/181/41 50/182/41
f 56/181/41 55/180/41 53/183/41
f 59/184/42 57/185/42 49/152/42
f 58/186/43 59/187/43 49/152/43
