# Blender v2.79 (sub 0) OBJ File: 'Fixing models.blend'
# www.blender.org
mtllib tree_pine_tall_detailed.mtl
o tree_pine_tall_detailed
v -0.082601 12.890839 -2.227743
v 1.786334 12.671119 -1.155394
v -0.082600 12.606911 2.091743
v 0.945252 17.614746 -0.677944
v 0.090137 21.114655 -0.090624
v -0.923362 17.733173 -0.534327
v -1.295608 14.774529 -0.733607
v -0.134470 17.707226 -1.011380
v -1.125526 17.754818 -0.671719
v 1.116485 15.207350 0.659556
v 1.161236 15.111668 -0.583789
v 0.000000 12.618746 1.811356
v -1.490457 12.800257 0.860513
v -0.000000 12.849331 -1.696614
v -1.229114 14.786324 -0.696891
v 0.090137 21.095324 0.244132
v -0.054747 21.119621 -0.006499
v 0.235021 21.100023 -0.007370
v 0.744067 17.622219 -0.571095
v -1.125526 17.685740 0.524419
v -0.939611 17.680634 0.394533
v 0.794100 17.559896 0.449336
v -1.295608 14.911059 0.937173
v -1.142254 14.914508 0.731213
v -1.951535 12.826632 1.019395
v -0.106788 17.592903 0.935722
v 0.000000 10.685310 2.773498
v 2.401922 10.685310 1.386748
v -0.090137 17.581167 1.119376
v -0.054747 21.109955 0.160879
v 0.235021 21.090355 0.160008
v 0.945252 17.545670 0.518195
v -0.090137 17.719322 -1.272901
v -1.951536 12.968596 -1.140348
v 1.598522 12.549505 0.922905
v 1.786334 12.529155 1.004349
v -2.401921 10.685310 1.386748
v 0.245050 10.685310 -0.245052
v 0.245050 10.685310 0.245048
v 2.401921 10.685310 -1.386752
v -0.000000 10.685310 -2.773502
v 1.545272 12.673064 -0.892166
v -2.401922 10.685310 -1.386752
v -1.444059 12.907920 -0.833730
v 0.145428 14.895854 -1.580917
v 0.043963 14.900534 -1.359451
v 1.586464 15.153708 -0.757449
v 0.145428 15.168914 1.760641
v 0.068221 15.121498 1.305344
v 1.586464 15.290239 0.913330
v 0.151119 4.755552 -0.870616
v -0.107881 4.755552 -0.870616
v 0.151119 5.088478 -0.863573
v -0.305931 7.807662 0.164968
v -0.294808 8.333405 0.164968
v -0.646398 8.261947 -0.111282
v -0.646398 8.261947 0.116218
v -0.654184 7.893927 -0.111282
v -0.654184 7.893927 0.116218
v 0.196619 4.686489 -0.371966
v -0.107881 5.088478 -0.863573
v 0.682580 6.551746 0.137219
v 0.675495 6.886671 -0.114031
v 0.117815 3.992285 0.686718
v -0.106185 4.258225 0.681092
v -0.194185 4.356356 0.378948
v 0.117815 4.258225 0.681091
v 0.205815 3.881463 0.388995
v -0.106185 3.992285 0.686718
v 0.682580 6.551746 -0.114031
v 0.334404 6.461861 -0.175906
v 0.334404 6.461861 0.199094
v 0.675495 6.886671 0.137219
v 0.205815 4.356356 0.378948
v -0.194185 3.881463 0.388995
v -0.153381 4.686489 -0.371966
v 0.463710 0.350000 -0.463710
v -0.153381 5.136389 -0.362447
v 0.196619 5.136389 -0.362447
v -0.245050 10.685310 -0.245052
v -0.245050 10.685310 0.245048
v -0.294808 8.333405 -0.160032
v -0.305931 7.807662 -0.160032
v -0.463710 0.350000 0.463710
v -0.602823 0.000000 0.602823
v 0.602823 -0.000000 -0.602823
v 0.602823 0.000000 0.602823
v -0.602823 -0.000000 -0.602823
v -0.463710 0.350000 -0.463710
v 0.463710 0.350000 0.463710
v 0.323828 6.961749 -0.175906
v 0.323828 6.961749 0.199094
vt 19.591476 183.318680
vt -10.698188 220.191788
vt -14.321546 179.670593
vt 10.692354 216.686264
vt 10.620505 222.695999
vt -19.564518 184.921463
vt 14.351867 181.304779
vt -10.454300 219.288849
vt -3.104366 320.254791
vt 11.609350 265.106354
vt -0.473600 320.493500
vt 8.139522 275.404022
vt -14.773076 230.387878
vt 11.551587 228.462967
vt -6.378772 274.992340
vt 2.517513 316.846252
vt -10.898469 261.456635
vt 7.935252 260.316254
vt -0.117927 317.005829
vt 18.659014 186.681244
vt -10.093848 227.872650
vt -15.348010 184.375565
vt 9.495381 226.318634
vt 14.262663 172.717407
vt -21.838583 139.562424
vt 21.838583 139.562424
vt -13.551431 175.830017
vt 13.129574 177.676208
vt -21.838583 139.562424
vt 21.838583 139.562424
vt -13.359141 176.671539
vt 17.984659 177.541794
vt -11.097531 210.394608
vt -16.062937 176.219543
vt 11.491677 208.452438
vt -2.006816 25.914881
vt -0.481102 30.227995
vt -2.487918 28.512274
vt 2.006816 29.346323
vt 0.481102 25.033209
vt 2.487918 26.748930
vt 9.286922 269.129242
vt -16.561499 227.905396
vt 9.559835 223.742599
vt -6.185553 267.756927
vt 9.820711 228.808868
vt -17.928034 186.709915
vt 16.121965 185.451111
vt -9.565870 227.418991
vt 3.438113 45.079662
vt 3.021277 41.237823
vt 17.779476 32.818550
vt -14.341363 38.778946
vt 14.323962 31.912067
vt -10.753168 36.631847
vt -14.444260 21.543554
vt -17.779476 20.217123
vt -2.720431 10.481302
vt 14.341363 14.256726
vt 12.309411 16.339725
vt -3.438113 7.956012
vt 16.569315 227.486801
vt -9.294711 268.112244
vt -9.550768 223.316162
vt 6.343149 266.693237
vt 11.049049 212.088745
vt -18.742197 179.184921
vt 15.258265 176.784424
vt -11.468512 209.921219
vt 14.874924 219.290680
vt -8.616488 257.687073
vt -11.442378 217.267609
vt 7.505372 257.136719
vt 14.533974 171.530060
vt -21.838583 139.562424
vt 21.838583 139.562424
vt -14.262663 172.717407
vt 1.912789 325.622467
vt -10.160220 269.384613
vt 8.694094 268.815735
vt -0.725533 325.702057
vt 3.089637 322.168396
vt -11.591576 266.909760
vt 7.209742 265.214935
vt 0.458731 322.405548
vt 10.848744 269.014526
vt -2.476633 324.848907
vt -7.986809 267.904816
vt 0.159064 325.004181
vt 6.365812 274.384613
vt -11.341278 228.254425
vt 14.968805 230.421631
vt -8.263777 275.218597
vt 10.192286 259.985992
vt -1.938957 315.687317
vt -8.661426 259.397522
vt 5.667799 55.964645
vt 4.316536 46.676434
vt 31.926651 34.232956
vt -26.258852 44.061867
vt 25.380087 30.195801
vt -20.627945 37.707916
vt -31.926651 10.427398
vt -26.313505 10.725293
vt -4.778253 -8.189135
vt 26.258852 0.598483
vt 22.023079 2.410146
vt -5.667799 -11.304296
vt 0.000000 43.677166
vt 37.825535 -21.838583
vt 37.825535 21.838583
vt 3.859055 3.859055
vt -3.859055 3.859055
vt -37.825535 21.838583
vt -3.859055 -3.859055
vt 3.859055 -3.859055
vt 0.000000 -43.677166
vt -37.825535 -21.838583
vt 13.359141 176.671539
vt -21.838583 139.562424
vt 21.838583 139.562424
vt -14.049819 173.648895
vt 13.551431 175.830017
vt -21.838583 139.562424
vt 21.838583 139.562424
vt -13.129574 177.676208
vt 21.838583 139.562424
vt -14.533974 171.530060
vt -21.838583 139.562424
vt 14.049819 173.648895
vt -0.897540 12.587897
vt -0.838945 13.796986
vt -23.280426 26.585173
vt 22.382885 25.026342
vt 18.576017 25.506107
vt 17.433804 47.151875
vt 23.280426 51.462063
vt -19.251741 26.938810
vt -22.382885 53.020893
vt -16.922548 48.159813
vt 0.406654 56.961517
vt 0.897540 65.459335
vt 11.222838 217.498672
vt -7.424184 257.561401
vt -15.078300 219.771881
vt 8.661363 258.599091
vt -7.190966 263.400482
vt 0.699281 315.769653
vt 1.698914 79.827919
vt -2.379826 74.583824
vt 1.698914 74.583824
vt -2.379826 79.827919
vt -1.752442 129.864990
vt 1.830236 124.068092
vt 1.830236 129.864990
vt -1.752442 124.068092
vt -4.239961 131.224808
vt -9.951226 124.303848
vt -4.413451 122.945343
vt -9.829783 130.099472
vt 2.597952 21.588560
vt -1.752442 15.938508
vt 1.830236 15.938508
vt -2.520158 21.588560
vt 9.961956 124.304077
vt 4.250690 131.225021
vt 4.424181 122.945572
vt 9.840512 130.099701
vt -2.520158 34.239853
vt 1.830236 39.889904
vt -1.752442 39.889904
vt 2.597952 34.239853
vt 5.553070 73.795914
vt 13.327994 80.126450
vt 5.403791 80.880959
vt 13.438460 74.883522
vt 1.698914 23.855074
vt -3.096362 15.927347
vt 2.415449 15.927347
vt -2.379826 23.855074
vt -3.096362 2.016428
vt 1.698914 -5.911298
vt 2.415449 2.016428
vt -2.379826 -5.911298
vt -13.389688 80.127754
vt -5.614765 73.797218
vt -5.465486 80.882256
vt -13.500154 74.884819
vt 1.795746 102.926651
vt -2.160947 108.202240
vt -2.160947 102.926651
vt 1.795746 108.202240
vt 1.855356 66.816788
vt -1.672203 62.627815
vt 1.855356 62.627815
vt -1.672203 66.816788
vt -1.672203 10.513083
vt 3.241183 15.515908
vt -3.058030 15.515908
vt 1.855356 10.513083
vt -4.966233 61.095531
vt -9.770263 67.028908
vt -9.855287 62.840794
vt -4.814404 68.574303
vt 3.241183 27.064623
vt -1.672203 32.067451
vt -3.058030 27.064623
vt 1.855356 32.067451
vt 9.821805 67.029953
vt 5.017775 61.096577
vt 9.906829 62.841839
vt 4.865947 68.575348
vt -4.539675 109.619789
vt -10.272686 103.163002
vt -4.703683 101.747482
vt -10.162801 108.437447
vt 10.209124 103.161674
vt 4.476112 109.618469
vt 4.640120 101.746162
vt 10.099238 108.436119
vt 1.795746 36.198540
vt -3.135356 30.535677
vt 2.770155 30.535677
vt -2.160947 36.198540
vt -2.160947 12.240091
vt 2.770155 17.902954
vt -3.135356 17.902954
vt 1.795746 12.240091
vt 7.302520 5.356116
vt 3.241183 60.982143
vt -7.302520 5.356116
vt 3.859055 168.153320
vt 3.241183 68.462456
vt -3.058030 68.462456
vt -3.058030 60.982143
vt -3.859055 168.153320
vt 7.302520 5.356116
vt 2.415449 73.662567
vt -7.302520 5.356116
vt 3.859055 168.153320
vt 2.415449 80.749184
vt -3.096362 80.749184
vt -3.096362 73.662567
vt -3.859055 168.153320
vt -3.859055 168.153320
vt 2.597952 131.107178
vt 3.859055 168.153320
vt -2.520158 131.107178
vt -2.520158 122.825905
vt 2.597952 122.825905
vt 7.302520 5.356116
vt -7.302520 5.356116
vt -9.493276 9.493276
vt 9.493276 -9.493276
vt 9.493276 9.493276
vt -9.493276 -9.493276
vt 7.302520 2.424797
vt -9.493276 -3.506432
vt 9.493276 -3.506432
vt -7.302520 2.424797
vt 9.493276 -3.506432
vt -7.302520 2.424797
vt -9.493276 -3.506432
vt 7.302520 2.424797
vt 7.302520 2.424797
vt -9.493276 -3.506432
vt 9.493276 -3.506432
vt -7.302520 2.424797
vt 7.302520 2.424797
vt -9.493276 -3.506432
vt 9.493276 -3.506432
vt -7.302520 2.424797
vt -7.302520 5.356116
vt -3.135356 101.627434
vt -3.859055 168.153320
vt 7.302520 5.356116
vt 2.770155 101.627434
vt 2.770155 109.501450
vt 3.859055 168.153320
vt -3.135356 109.501450
vn 0.4998 0.3168 -0.8061
vn -0.4502 0.2910 0.8442
vn 0.5006 0.2608 -0.8254
vn -0.5107 0.1216 -0.8511
vn -0.9538 0.3001 0.0173
vn 0.9695 0.2446 0.0161
vn -0.4592 0.3958 0.7953
vn -0.4592 0.3958 -0.7953
vn -0.4539 0.3773 -0.8072
vn 0.0675 0.9961 0.0575
vn 0.0676 0.9961 0.0575
vn 0.4540 0.2201 -0.8634
vn 0.4964 0.2319 0.8366
vn -0.0675 -0.9961 -0.0575
vn -0.0676 -0.9961 -0.0575
vn -0.5135 0.2281 0.8272
vn -0.9310 0.3642 0.0239
vn 0.4580 0.3287 0.8260
vn 0.4592 0.3958 0.7953
vn 0.4982 0.1854 0.8470
vn -0.4661 0.2363 0.8526
vn 0.9802 0.1976 0.0114
vn -0.9920 0.1255 -0.0103
vn -0.4689 0.3125 -0.8261
vn -0.0794 -0.9947 -0.0654
vn 0.0000 -1.0000 0.0000
vn 0.4592 0.3958 -0.7953
vn -0.9183 0.3958 0.0000
vn 0.9183 0.3958 -0.0000
vn 0.1307 -0.9881 0.0807
vn 0.1307 -0.9881 0.0808
vn 0.9455 0.3246 -0.0265
vn 0.0000 0.0212 -0.9998
vn -0.9998 0.0212 0.0000
vn -0.1379 0.0029 0.9904
vn -0.1992 0.9800 0.0000
vn -0.1379 0.0029 -0.9904
vn -0.2404 -0.9707 0.0000
vn 0.9959 0.0019 -0.0906
vn 0.0000 -0.9905 -0.1372
vn 0.0000 0.9955 -0.0952
vn -0.9959 0.0019 -0.0906
vn 0.9998 0.0212 0.0000
vn 0.0000 0.0212 0.9998
vn 0.0000 0.9511 0.3089
vn 0.9596 0.0060 0.2814
vn 0.0000 -0.9372 0.3488
vn 0.0000 -0.9372 0.3489
vn -0.9596 0.0060 0.2814
vn 0.1740 0.0037 -0.9847
vn 0.1740 0.0037 0.9847
vn 0.2500 -0.9683 0.0000
vn 0.2088 0.9780 0.0000
vn 0.0000 0.3694 0.9293
vn 0.9293 0.3694 -0.0000
vn -0.9293 0.3694 0.0000
vn -0.0000 0.3694 -0.9293
usemtl natureKit-leaves
s off
f 1/1/1 11/2/1 2/3/1
f 11/2/1 1/1/1 46/4/1
f 49/5/2 25/6/2 3/7/2
f 25/6/2 49/5/2 24/8/2
f 18/9/3 33/10/3 5/11/3
f 6/12/4 45/13/4 7/14/4
f 45/13/4 6/12/4 8/15/4
f 30/16/5 9/17/5 20/18/5
f 9/17/5 30/16/5 17/19/5
f 2/20/6 10/21/6 36/22/6
f 10/21/6 2/20/6 11/23/6
f 12/24/7 37/25/7 27/26/7
f 37/25/7 12/24/7 13/27/7
f 44/28/8 41/29/8 43/30/8
f 41/29/8 44/28/8 14/31/8
f 34/32/9 46/33/9 1/34/9
f 46/33/9 34/32/9 15/35/9
f 16/36/10 17/37/10 30/38/10
f 17/37/10 16/36/10 5/39/10
f 5/39/11 16/36/11 31/40/11
f 5/39/10 31/40/10 18/41/10
f 8/42/12 47/43/12 45/44/12
f 47/43/12 8/42/12 19/45/12
f 10/46/13 3/47/13 36/48/13
f 3/47/13 10/46/13 49/49/13
f 9/50/14 6/51/14 20/52/14
f 6/51/14 9/50/14 33/53/14
f 20/52/14 6/51/14 21/54/14
f 6/51/14 33/53/14 8/55/14
f 8/55/14 33/53/14 19/56/14
f 19/56/14 33/53/14 4/57/14
f 19/56/14 4/57/14 22/58/14
f 21/54/14 29/59/14 20/52/14
f 29/59/14 21/54/14 26/60/14
f 29/59/15 26/60/15 22/58/15
f 29/59/14 22/58/14 32/61/14
f 32/61/14 22/58/14 4/57/14
f 48/62/16 21/63/16 23/64/16
f 21/63/16 48/62/16 26/65/16
f 24/66/17 34/67/17 25/68/17
f 34/67/17 24/66/17 15/69/17
f 50/70/18 26/71/18 48/72/18
f 26/71/18 50/70/18 22/73/18
f 35/74/19 27/75/19 28/76/19
f 27/75/19 35/74/19 12/77/19
f 31/78/20 29/79/20 32/80/20
f 29/79/20 31/78/20 16/81/20
f 16/82/21 20/83/21 29/84/21
f 20/83/21 16/82/21 30/85/21
f 4/86/22 31/87/22 32/88/22
f 31/87/22 4/86/22 18/89/22
f 21/90/23 7/91/23 23/92/23
f 7/91/23 21/90/23 6/93/23
f 9/94/24 5/95/24 33/96/24
f 34/97/25 44/98/25 25/99/25
f 44/98/25 34/97/25 1/100/25
f 25/99/25 44/98/25 13/101/25
f 44/98/25 1/100/25 14/102/25
f 14/102/25 1/100/25 2/103/25
f 14/102/25 2/103/25 42/104/25
f 42/104/25 2/103/25 35/105/25
f 13/101/25 3/106/25 25/99/25
f 3/106/25 13/101/25 12/107/25
f 3/106/25 12/107/25 36/108/25
f 36/108/25 12/107/25 35/105/25
f 36/108/25 35/105/25 2/103/25
f 41/109/26 37/110/26 43/111/26
f 37/110/26 41/109/26 80/112/26
f 80/112/26 41/109/26 38/113/26
f 38/113/26 41/109/26 40/114/26
f 38/113/26 40/114/26 39/115/26
f 81/116/26 37/110/26 80/112/26
f 37/110/26 81/116/26 27/117/26
f 27/117/26 81/116/26 39/115/26
f 27/117/26 39/115/26 28/118/26
f 28/118/26 39/115/26 40/114/26
f 14/119/27 40/120/27 41/121/27
f 40/120/27 14/119/27 42/122/27
f 13/123/28 43/124/28 37/125/28
f 43/124/28 13/123/28 44/126/28
f 40/127/29 35/128/29 28/129/29
f 35/128/29 40/127/29 42/130/29
f 7/131/30 15/132/30 23/133/30
f 15/132/31 7/131/31 45/134/31
f 15/132/30 45/134/30 46/135/30
f 46/135/30 45/134/30 11/136/30
f 11/136/30 45/134/30 47/137/30
f 24/138/30 23/133/30 15/132/30
f 23/133/31 24/138/31 48/139/31
f 48/139/30 24/138/30 49/140/30
f 48/139/31 49/140/31 10/141/31
f 48/139/30 10/141/30 50/142/30
f 50/142/30 10/141/30 11/136/30
f 50/142/30 11/136/30 47/137/30
f 47/143/32 22/144/32 50/145/32
f 22/144/32 47/143/32 19/146/32
s 1
f 33/10/3 18/9/3 4/147/3
f 5/95/24 9/94/24 17/148/24
usemtl natureKit-wood
s off
f 61/149/33 51/150/33 52/151/33
f 51/150/33 61/149/33 53/152/33
f 56/153/34 59/154/34 57/155/34
f 59/154/34 56/153/34 58/156/34
f 55/157/35 59/158/35 54/159/35
f 59/158/35 55/157/35 57/160/35
f 55/161/36 56/162/36 57/163/36
f 56/162/36 55/161/36 82/164/36
f 58/165/37 82/166/37 83/167/37
f 82/166/37 58/165/37 56/168/37
f 83/169/38 59/170/38 58/171/38
f 59/170/38 83/169/38 54/172/38
f 60/173/39 53/174/39 79/175/39
f 53/174/39 60/173/39 51/176/39
f 52/177/40 60/178/40 76/179/40
f 60/178/40 52/177/40 51/180/40
f 79/181/41 61/182/41 78/183/41
f 61/182/41 79/181/41 53/184/41
f 61/185/42 76/186/42 78/187/42
f 76/186/42 61/185/42 52/188/42
f 70/189/43 73/190/43 62/191/43
f 73/190/43 70/189/43 63/192/43
f 67/193/44 69/194/44 64/195/44
f 69/194/44 67/193/44 65/196/44
f 65/197/45 74/198/45 66/199/45
f 74/198/45 65/197/45 67/200/45
f 68/201/46 67/202/46 64/203/46
f 67/202/46 68/201/46 74/204/46
f 68/205/47 69/206/47 75/207/47
f 69/206/48 68/205/48 64/208/48
f 65/209/49 75/210/49 69/211/49
f 75/210/49 65/209/49 66/212/49
f 91/213/50 70/214/50 71/215/50
f 70/214/50 91/213/50 63/216/50
f 62/217/51 92/218/51 72/219/51
f 92/218/51 62/217/51 73/220/51
f 70/221/52 72/222/52 71/223/52
f 72/222/52 70/221/52 62/224/52
f 73/225/53 91/226/53 92/227/53
f 91/226/53 73/225/53 63/228/53
f 90/229/44 68/230/44 84/231/44
f 68/230/44 90/229/44 39/232/44
f 68/230/44 39/232/44 74/233/44
f 74/233/44 39/232/44 66/234/44
f 75/235/44 84/231/44 68/230/44
f 84/231/44 75/235/44 81/236/44
f 81/236/44 75/235/44 66/234/44
f 81/236/44 66/234/44 39/232/44
f 89/237/33 76/238/33 77/239/33
f 76/238/33 89/237/33 80/240/33
f 76/238/33 80/240/33 78/241/33
f 78/241/33 80/240/33 79/242/33
f 60/243/33 77/239/33 76/238/33
f 77/239/33 60/243/33 38/244/33
f 38/244/33 60/243/33 79/242/33
f 38/244/33 79/242/33 80/240/33
f 80/245/34 55/246/34 81/247/34
f 55/246/34 80/245/34 82/248/34
f 82/248/34 80/245/34 83/249/34
f 54/250/34 81/247/34 55/246/34
f 54/250/34 84/251/34 81/247/34
f 84/251/34 54/250/34 89/252/34
f 89/252/34 54/250/34 83/249/34
f 89/252/34 83/249/34 80/245/34
f 86/253/26 85/254/26 88/255/26
f 85/254/26 86/253/26 87/256/26
f 90/257/54 85/258/54 87/259/54
f 85/258/54 90/257/54 84/260/54
f 86/261/55 90/262/55 87/263/55
f 90/262/55 86/261/55 77/264/55
f 84/265/56 88/266/56 85/267/56
f 88/266/56 84/265/56 89/268/56
f 89/269/57 86/270/57 88/271/57
f 86/270/57 89/269/57 77/272/57
f 90/273/43 72/274/43 39/275/43
f 72/274/43 90/273/43 77/276/43
f 72/274/43 77/276/43 71/277/43
f 71/277/43 77/276/43 91/278/43
f 91/278/43 77/276/43 38/279/43
f 39/275/43 92/280/43 38/279/43
f 92/280/43 39/275/43 72/274/43
f 38/279/43 92/280/43 91/278/43
