# Blender v2.79 (sub 0) OBJ File: 'Fixing models.blend'
# www.blender.org
mtllib tree_pineSmall_round3.mtl
o tree_pineSmall_round3
v -1.505743 2.732240 -0.869341
v 0.000000 2.732240 1.738681
v 1.292714 3.239556 0.746348
v -0.000000 3.239556 -1.492698
v 1.292714 3.239556 -0.746350
v -2.401922 0.598037 -1.386750
v -2.401921 0.598038 1.386750
v -0.984788 2.192810 -1.705703
v -1.200960 0.000000 2.080125
v 0.000000 0.598038 2.773500
v 1.200961 0.000000 2.080125
v 2.401922 0.598038 1.386750
v 0.000000 3.239557 1.492697
v -1.292714 3.239556 0.746348
v 1.200960 -0.000000 -2.080125
v -0.000000 0.598037 -2.773500
v 1.969575 2.732239 -1.137136
v 0.984788 2.192810 -1.705703
v -1.200961 -0.000000 -2.080125
v -1.167007 4.834642 0.673771
v -1.167007 4.834642 -0.673773
v -2.401921 0.000000 0.000000
v -0.000000 5.114890 -1.224013
v -0.984788 2.192810 1.705702
v 0.000000 2.732240 2.274270
v 0.984788 2.192810 1.705702
v 1.969576 2.732240 1.137134
v -1.060025 5.114890 -0.612007
v -0.000000 2.732239 -2.274271
v 2.401921 0.598037 -1.386750
v 2.401921 -0.000000 -0.000000
v 0.000000 4.834642 1.347543
v -1.969575 2.732240 1.137135
v 0.000000 5.114890 1.224011
v -1.060025 5.114890 0.612005
v -1.969576 2.732239 -1.137135
v -1.969575 2.192810 -0.000000
v 1.969575 2.192810 -0.000001
v 1.060025 5.114890 0.612005
v 1.060025 5.114890 -0.612007
v -1.505742 2.732240 0.869341
v 1.505742 2.732240 -0.869342
v 1.505743 2.732240 0.869340
v -0.000000 6.621629 -1.313392
v -0.612165 8.685600 -0.353435
v -0.000000 8.685600 -0.706869
v 1.137430 6.621629 -0.656697
v 0.612165 8.685600 0.353432
v 0.000000 6.621629 1.313390
v -0.612165 8.685600 0.353432
v 0.639319 8.578899 0.369109
v 1.137430 6.621629 0.656694
v 0.000000 8.578899 0.738221
v 0.000000 8.685600 0.706865
v 0.807575 8.578899 0.466252
v -0.807575 8.578899 -0.466255
v -0.807575 8.247130 -0.000002
v -0.568715 6.154349 -0.985044
v 0.612165 8.685600 -0.353435
v -0.639319 8.578899 -0.369113
v -1.137430 6.154349 -0.000001
v -1.137430 6.621629 0.656694
v -0.807575 8.578899 0.466252
v -0.403787 8.247130 0.699379
v 0.568715 6.154349 -0.985044
v -0.000000 4.834642 -1.347545
v 1.167007 4.834642 -0.673773
v 1.477181 4.834642 -0.852852
v 1.167007 4.834642 0.673771
v 0.403787 8.247130 -0.699382
v 1.137430 6.154349 -0.000001
v -0.795019 6.621629 -0.459006
v -1.137430 6.621629 -0.656697
v -0.000000 6.621629 -0.918010
v 0.795019 6.621629 -0.459006
v 0.795019 6.621629 0.459003
v -0.795019 6.621629 0.459003
v 0.000000 6.621629 0.918008
v -0.568715 6.154349 0.985042
v 0.403788 8.247130 0.699379
v -0.403788 8.247130 -0.699382
v -0.000000 11.126569 -0.160602
v 0.139084 11.126569 -0.080302
v 0.568715 6.154349 0.985042
v -0.139084 11.126569 -0.080302
v -0.139084 11.126569 0.080298
v -0.639319 8.578899 0.369109
v -0.000000 8.578899 -0.932509
v -0.000000 8.578899 -0.738224
v 0.639319 8.578899 -0.369113
v 0.000000 8.578899 0.932506
v 0.807575 8.578899 -0.466256
v 0.807575 8.247130 -0.000002
v 0.139084 11.126569 0.080298
v 0.000000 11.126569 0.160598
v 1.477181 4.430070 -0.000001
v -1.477182 4.834642 -0.852852
v -1.477181 4.430070 -0.000001
v -1.477181 4.834642 0.852850
v -0.738591 4.430070 1.279276
v 0.000000 4.834642 1.705701
v 0.738591 4.430070 -1.279278
v 0.738591 4.430070 1.279276
v 1.477182 4.834642 0.852850
v -0.000000 2.732239 -1.738683
v -1.292714 3.239556 -0.746349
v -0.000000 4.834642 -1.705703
v -0.738591 4.430070 -1.279278
vt 11.753525 30.159027
vt -13.690410 22.551023
vt 13.690410 22.551023
vt -11.753525 30.159027
vt -21.838583 -9.454671
vt 21.838583 -9.454671
vt 11.753525 30.159027
vt -13.690410 22.551023
vt 13.690410 22.551023
vt -11.753525 30.159027
vt -21.838583 -9.454671
vt 21.838583 -9.454671
vt 21.838583 -9.454671
vt -13.690410 22.551023
vt -21.838583 -9.454671
vt 13.690410 22.551023
vt -11.753525 30.159027
vt 11.753525 30.159027
vt 11.753525 30.159027
vt -13.690410 22.551023
vt 13.690410 22.551023
vt -11.753525 30.159027
vt -21.838583 -9.454671
vt 21.838583 -9.454671
vt 37.825535 21.838583
vt 37.825535 -21.838583
vt -0.000000 -43.677166
vt -0.000000 43.677166
vt -37.825535 21.838583
vt -37.825535 -21.838583
vt -17.907639 36.775555
vt 0.000000 29.514908
vt 17.907639 36.775555
vt -21.838583 8.049499
vt -0.000000 0.000000
vt 21.838583 8.049499
vt -21.838583 8.049499
vt 0.000000 0.000000
vt 21.838583 8.049499
vt 13.690410 22.551023
vt -21.838583 -9.454671
vt 21.838583 -9.454671
vt -13.690410 22.551023
vt 11.753525 30.159027
vt -11.753525 30.159027
vt -21.838583 8.049499
vt 0.000000 0.000000
vt 21.838583 8.049499
vt -17.907639 36.775555
vt 0.000000 29.514908
vt 17.907639 36.775555
vt -21.838583 8.049499
vt -0.000000 0.000000
vt 21.838583 8.049499
vt 10.610579 51.921894
vt -17.907639 20.929638
vt 17.907639 20.929638
vt -10.610579 51.921894
vt 9.637891 56.053123
vt -9.637891 56.053123
vt -21.838583 8.049499
vt -0.000000 0.000000
vt 21.838583 8.049499
vt 10.610579 51.921894
vt -17.907639 20.929638
vt 17.907639 20.929638
vt -10.610579 51.921894
vt 9.637891 56.053123
vt -9.637891 56.053123
vt -17.907639 36.775555
vt -0.000000 29.514908
vt 17.907639 36.775555
vt -17.907639 36.775555
vt -0.000000 29.514908
vt 17.907639 36.775555
vt 10.610579 51.921894
vt -9.637891 56.053123
vt -10.610579 51.921894
vt 9.637891 56.053123
vt -17.907639 20.929638
vt 17.907639 20.929638
vt 10.610579 51.921894
vt -17.907639 20.929638
vt 17.907639 20.929638
vt -10.610579 51.921894
vt 9.637891 56.053123
vt -9.637891 56.053123
vt 21.838583 8.049499
vt -21.838583 8.049499
vt 0.000000 0.000000
vt 10.610579 51.921894
vt -17.907639 20.929638
vt 17.907639 20.929638
vt -10.610579 51.921894
vt 9.637891 56.053123
vt -9.637891 56.053123
vt -17.907639 36.775555
vt -0.000000 29.514908
vt 17.907639 36.775555
vt 17.907639 36.775555
vt -17.907639 36.775555
vt -0.000000 29.514908
vt 10.610579 51.921894
vt -9.637891 56.053123
vt -10.610579 51.921894
vt 9.637891 56.053123
vt 17.907639 20.929638
vt -17.907639 20.929638
vt 31.016939 17.907639
vt 23.712484 -13.690410
vt 23.712484 13.690410
vt 0.000000 35.815277
vt 0.000000 27.380819
vt -23.712484 13.690410
vt -31.016939 17.907639
vt 31.016939 -17.907639
vt 0.000000 -35.815277
vt 0.000000 -27.380819
vt -23.712484 -13.690410
vt -31.016939 -17.907639
vt 5.812774 107.795876
vt -10.341660 80.308266
vt 10.341660 80.308266
vt -5.812774 107.795876
vt 5.565882 109.294365
vt -5.565882 109.294365
vt 10.341660 80.308266
vt -5.812774 107.795876
vt -10.341660 80.308266
vt 5.812774 107.795876
vt -5.565882 109.294365
vt 5.565882 109.294365
vt 5.812774 107.795876
vt -10.341660 80.308266
vt 10.341660 80.308266
vt -5.812774 107.795876
vt 5.565882 109.294365
vt -5.565882 109.294365
vt 5.812774 107.795876
vt -10.341660 80.308266
vt 10.341660 80.308266
vt -5.812774 107.795876
vt 5.565882 109.294365
vt -5.565882 109.294365
vt 7.342579 106.653564
vt -1.264568 142.524399
vt -7.342579 106.653564
vt -7.342579 115.470757
vt 0.000000 111.005188
vt 7.342579 115.470757
vt 1.264568 142.524399
vt -7.342579 106.653564
vt 7.342579 106.653564
vt -1.264568 142.524399
vt -10.341660 89.126183
vt 0.000000 82.836647
vt 10.341660 89.126183
vt 5.812774 107.795876
vt -10.341660 80.308266
vt 10.341660 80.308266
vt -5.812774 107.795876
vt 5.565882 109.294365
vt -5.565882 109.294365
vt 5.565882 109.294365
vt -5.812774 107.795876
vt 5.812774 107.795876
vt -5.565882 109.294365
vt -10.341660 80.308266
vt 10.341660 80.308266
vt -10.341660 89.126183
vt 0.000000 82.836647
vt 10.341660 89.126183
vt -7.342579 115.470757
vt 0.000000 111.005188
vt 7.342579 115.470757
vt -10.341660 89.126183
vt -0.000000 82.836647
vt 10.341660 89.126183
vt 7.228418 76.272514
vt -13.430728 49.929901
vt 13.430728 49.929901
vt -7.228418 76.272514
vt 13.430728 49.929901
vt -7.228418 76.272514
vt -13.430728 49.929901
vt 7.228418 76.272514
vt 23.262703 13.430728
vt 18.378061 -10.610579
vt 18.378061 10.610579
vt 0.000000 26.861456
vt 0.000000 21.221159
vt -18.378061 10.610579
vt -23.262703 13.430728
vt -18.378061 -10.610579
vt 23.262703 -13.430728
vt 0.000000 -26.861456
vt 0.000000 -21.221159
vt -23.262703 -13.430728
vt -7.342579 115.470757
vt -0.000000 111.005188
vt 7.342579 115.470757
vt 10.341660 89.126183
vt -10.341660 89.126183
vt -0.000000 82.836647
vt 0.000000 20.683321
vt 17.912281 10.341660
vt 12.519987 7.228418
vt 0.000000 14.456836
vt -12.519987 7.228418
vt -17.912281 10.341660
vt -12.519987 -7.228418
vt 12.519987 -7.228418
vt 17.912281 -10.341660
vt 0.000000 -20.683321
vt 0.000000 -14.456836
vt -17.912281 -10.341660
vt -10.341660 89.126183
vt 0.000000 82.836647
vt 10.341660 89.126183
vt -7.342579 115.470757
vt -0.000000 111.005188
vt 7.342579 115.470757
vt -7.342579 115.470757
vt 0.000000 111.005188
vt 7.342579 115.470757
vt 1.264568 142.524399
vt -7.342579 106.653564
vt 7.342579 106.653564
vt -1.264568 142.524399
vt 1.264568 142.524399
vt -7.342579 106.653564
vt 7.342579 106.653564
vt -1.264568 142.524399
vt 7.228418 76.272514
vt -13.430728 49.929901
vt 13.430728 49.929901
vt -7.228418 76.272514
vt 7.228418 76.272514
vt -13.430728 49.929901
vt 13.430728 49.929901
vt -7.228418 76.272514
vt 7.228418 76.272514
vt -13.430728 49.929901
vt 13.430728 49.929901
vt -7.228418 76.272514
vt 1.264568 142.524399
vt -7.342579 106.653564
vt 7.342579 106.653564
vt -1.264568 142.524399
vt 7.228418 76.272514
vt -13.430728 49.929901
vt 13.430728 49.929901
vt -7.228418 76.272514
vt -10.341660 89.126183
vt -0.000000 82.836647
vt 10.341660 89.126183
vt -0.000000 -2.529137
vt -2.190297 1.264568
vt -2.190297 -1.264568
vt -0.000000 2.529137
vt 2.190297 -1.264568
vt 2.190297 1.264568
vt 12.717720 7.342579
vt 10.068020 -5.812774
vt 10.068020 5.812774
vt 0.000000 14.685159
vt 0.000000 11.625548
vt -10.068020 5.812774
vt -12.717720 7.342579
vt -10.068020 -5.812774
vt 12.717720 -7.342579
vt 0.000000 -14.685159
vt 0.000000 -11.625548
vt -12.717720 -7.342579
vt 7.342579 115.470757
vt -7.342579 115.470757
vt -0.000000 111.005188
vt 1.264568 142.524399
vt -7.342579 106.653564
vt 7.342579 106.653564
vt -1.264568 142.524399
vt 13.430728 65.073593
vt -13.430728 65.073593
vt -0.000000 59.628105
vt -13.430728 65.073593
vt 0.000000 59.628105
vt 13.430728 65.073593
vt -13.430728 65.073593
vt 0.000000 59.628105
vt 13.430728 65.073593
vt -13.430728 65.073593
vt -0.000000 59.628105
vt 13.430728 65.073593
vt -13.430728 65.073593
vt -0.000000 59.628105
vt 13.430728 65.073593
vt 13.690410 22.551023
vt -21.838583 -9.454671
vt 21.838583 -9.454671
vt -13.690410 22.551023
vt 11.753525 30.159027
vt -11.753525 30.159027
vt -13.430728 65.073593
vt 0.000000 59.628105
vt 13.430728 65.073593
vt 1.264568 142.524399
vn -0.9220 0.3872 0.0000
vn 0.4610 0.3872 0.7985
vn 0.9220 0.3872 -0.0000
vn 0.4610 0.3872 -0.7985
vn -0.0000 1.0000 -0.0000
vn -0.5000 -0.0000 -0.8660
vn -0.5000 -0.0000 0.8660
vn 0.5000 0.0000 0.8660
vn -0.4610 0.3872 0.7985
vn 0.5000 -0.0000 -0.8660
vn -0.9342 0.3566 0.0000
vn -1.0000 0.0000 0.0000
vn 0.4671 0.3566 -0.8091
vn -0.4671 0.3566 -0.8091
vn 0.4671 0.3566 0.8091
vn 1.0000 0.0000 -0.0000
vn -0.4671 0.3566 0.8091
vn 0.9342 0.3566 0.0000
vn -0.4846 0.2466 -0.8393
vn 0.9691 0.2466 0.0000
vn -0.4846 0.2466 0.8393
vn 0.4846 0.2466 0.8393
vn 0.9673 0.2538 0.0000
vn -0.9673 0.2538 -0.0000
vn 0.4846 0.2466 -0.8393
vn -0.9691 0.2466 0.0000
vn -0.4836 0.2538 0.8377
vn 0.4836 0.2538 -0.8377
vn -0.4836 0.2538 -0.8377
vn 0.4836 0.2538 0.8377
vn -0.4610 0.3872 -0.7985
usemtl natureKit-leaves
s off
f 14/1/1 1/2/1 41/3/1
f 1/2/1 14/1/1 106/4/1
f 6/5/1 41/3/1 1/2/1
f 41/3/1 6/5/1 7/6/1
f 3/7/2 2/8/2 43/9/2
f 2/8/2 3/7/2 13/10/2
f 10/11/2 43/9/2 2/8/2
f 43/9/2 10/11/2 12/12/2
f 30/13/3 43/14/3 12/15/3
f 43/14/3 30/13/3 42/16/3
f 42/16/3 3/17/3 43/14/3
f 3/17/3 42/16/3 5/18/3
f 4/19/4 42/20/4 105/21/4
f 42/20/4 4/19/4 5/22/4
f 30/23/4 105/21/4 42/20/4
f 105/21/4 30/23/4 16/24/4
f 6/25/5 7/26/5 10/27/5
f 10/27/5 16/28/5 6/25/5
f 10/27/5 30/29/5 16/28/5
f 10/27/5 12/30/5 30/29/5
f 29/31/6 8/32/6 36/33/6
f 7/34/7 9/35/7 10/36/7
f 10/37/8 11/38/8 12/39/8
f 2/40/9 7/41/9 10/42/9
f 7/41/9 2/40/9 41/43/9
f 13/44/9 41/43/9 2/40/9
f 41/43/9 13/44/9 14/45/9
f 30/46/10 15/47/10 16/48/10
f 17/49/10 18/50/10 29/51/10
f 16/52/6 19/53/6 6/54/6
f 20/55/11 36/56/11 33/57/11
f 36/56/11 20/55/11 21/58/11
f 35/59/11 21/58/11 20/55/11
f 21/58/11 35/59/11 28/60/11
f 6/61/12 22/62/12 7/63/12
f 66/64/13 17/65/13 29/66/13
f 17/65/13 66/64/13 67/67/13
f 23/68/13 67/67/13 66/64/13
f 67/67/13 23/68/13 40/69/13
f 33/70/7 24/71/7 25/72/7
f 25/73/8 26/74/8 27/75/8
f 21/76/14 23/77/14 66/78/14
f 23/77/14 21/76/14 28/79/14
f 29/80/14 21/76/14 66/78/14
f 21/76/14 29/80/14 36/81/14
f 69/82/15 25/83/15 27/84/15
f 25/83/15 69/82/15 32/85/15
f 39/86/15 32/85/15 69/82/15
f 32/85/15 39/86/15 34/87/15
f 30/88/16 12/89/16 31/90/16
f 32/91/17 33/92/17 25/93/17
f 33/92/17 32/91/17 20/94/17
f 34/95/17 20/94/17 32/91/17
f 20/94/17 34/95/17 35/96/17
f 36/97/12 37/98/12 33/99/12
f 17/100/16 27/101/16 38/102/16
f 67/103/18 39/104/18 69/105/18
f 39/104/18 67/103/18 40/106/18
f 69/105/18 17/107/18 67/103/18
f 17/107/18 69/105/18 27/108/18
f 36/109/5 41/110/5 1/111/5
f 1/111/5 29/112/5 36/109/5
f 1/111/5 105/113/5 29/112/5
f 105/113/5 42/114/5 29/112/5
f 42/114/5 17/115/5 29/112/5
f 41/110/5 36/109/5 33/116/5
f 33/116/5 25/117/5 41/110/5
f 25/117/5 2/118/5 41/110/5
f 25/117/5 43/119/5 2/118/5
f 25/117/5 27/120/5 43/119/5
f 27/120/5 42/114/5 43/119/5
f 27/120/5 17/115/5 42/114/5
f 60/121/19 44/122/19 73/123/19
f 44/122/19 60/121/19 89/124/19
f 45/125/19 89/124/19 60/121/19
f 89/124/19 45/125/19 46/126/19
f 47/127/20 51/128/20 52/129/20
f 51/128/20 47/127/20 90/130/20
f 90/130/20 48/131/20 51/128/20
f 48/131/20 90/130/20 59/132/20
f 53/133/21 62/134/21 49/135/21
f 62/134/21 53/133/21 87/136/21
f 54/137/21 87/136/21 53/133/21
f 87/136/21 54/137/21 50/138/21
f 51/139/22 49/140/22 52/141/22
f 49/140/22 51/139/22 53/142/22
f 48/143/22 53/142/22 51/139/22
f 53/142/22 48/143/22 54/144/22
f 92/145/23 94/146/23 55/147/23
f 56/148/12 57/149/12 63/150/12
f 86/151/24 56/152/24 63/153/24
f 56/152/24 86/151/24 85/154/24
f 44/155/6 58/156/6 73/157/6
f 89/158/25 47/159/25 44/160/25
f 47/159/25 89/158/25 90/161/25
f 46/162/25 90/161/25 89/158/25
f 90/161/25 46/162/25 59/163/25
f 50/164/26 60/165/26 87/166/26
f 60/165/26 50/164/26 45/167/26
f 73/168/26 87/166/26 60/165/26
f 87/166/26 73/168/26 62/169/26
f 73/170/12 61/171/12 62/172/12
f 63/173/7 64/174/7 91/175/7
f 47/176/10 65/177/10 44/178/10
f 72/179/14 107/180/14 97/181/14
f 107/180/14 72/179/14 74/182/14
f 68/183/18 76/184/18 104/185/18
f 76/184/18 68/183/18 75/186/18
f 97/187/5 20/188/5 21/189/5
f 21/189/5 107/190/5 97/187/5
f 21/189/5 66/191/5 107/190/5
f 66/191/5 67/192/5 107/190/5
f 67/192/5 68/193/5 107/190/5
f 67/192/5 69/194/5 68/193/5
f 20/188/5 97/187/5 99/195/5
f 99/195/5 101/196/5 20/188/5
f 101/196/5 32/197/5 20/188/5
f 101/196/5 69/194/5 32/197/5
f 101/196/5 104/198/5 69/194/5
f 104/198/5 68/193/5 69/194/5
f 92/199/10 70/200/10 88/201/10
f 47/202/16 52/203/16 71/204/16
f 44/205/5 73/206/5 72/207/5
f 72/207/5 74/208/5 44/205/5
f 74/208/5 75/209/5 44/205/5
f 75/209/5 47/210/5 44/205/5
f 75/209/5 76/211/5 47/210/5
f 77/212/5 72/207/5 73/206/5
f 77/212/5 73/206/5 62/213/5
f 62/213/5 49/214/5 77/212/5
f 49/214/5 78/215/5 77/212/5
f 49/214/5 76/211/5 78/215/5
f 49/214/5 52/216/5 76/211/5
f 52/216/5 47/210/5 76/211/5
f 62/217/7 79/218/7 49/219/7
f 91/220/8 80/221/8 55/222/8
f 88/223/6 81/224/6 56/225/6
f 95/226/27 63/227/27 91/228/27
f 63/227/27 95/226/27 86/229/27
f 82/230/28 92/231/28 88/232/28
f 92/231/28 82/230/28 83/233/28
f 74/234/13 68/235/13 107/236/13
f 68/235/13 74/234/13 75/237/13
f 77/238/11 97/239/11 99/240/11
f 97/239/11 77/238/11 72/241/11
f 76/242/15 101/243/15 104/244/15
f 101/243/15 76/242/15 78/245/15
f 85/246/29 88/247/29 56/248/29
f 88/247/29 85/246/29 82/249/29
f 78/250/17 99/251/17 101/252/17
f 99/251/17 78/250/17 77/253/17
f 49/254/8 84/255/8 52/256/8
f 95/257/5 85/258/5 86/259/5
f 85/258/5 95/257/5 82/260/5
f 82/260/5 95/257/5 94/261/5
f 82/260/5 94/261/5 83/262/5
f 56/263/5 87/264/5 60/265/5
f 60/265/5 88/266/5 56/263/5
f 60/265/5 89/267/5 88/266/5
f 89/267/5 90/268/5 88/266/5
f 90/268/5 92/269/5 88/266/5
f 90/268/5 51/270/5 92/269/5
f 87/264/5 56/263/5 63/271/5
f 63/271/5 91/272/5 87/264/5
f 91/272/5 53/273/5 87/264/5
f 91/272/5 51/270/5 53/273/5
f 91/272/5 55/274/5 51/270/5
f 55/274/5 92/269/5 51/270/5
f 92/275/16 55/276/16 93/277/16
f 94/278/30 91/279/30 55/280/30
f 91/279/30 94/278/30 95/281/30
f 68/282/16 104/283/16 96/284/16
f 97/285/12 98/286/12 99/287/12
f 99/288/7 100/289/7 101/290/7
f 68/291/10 102/292/10 107/293/10
f 101/294/8 103/295/8 104/296/8
f 1/297/31 16/298/31 6/299/31
f 16/298/31 1/297/31 105/300/31
f 106/301/31 105/300/31 1/297/31
f 105/300/31 106/301/31 4/302/31
f 107/303/6 108/304/6 97/305/6
s 1
f 94/146/23 92/145/23 83/306/23
