# Blender v2.79 (sub 0) OBJ File: 'Fixing models.blend'
# www.blender.org
mtllib tree_simple.mtl
o tree_simple
v 1.773187 9.150871 -1.023752
v -1.773187 9.150871 1.023748
v -1.773187 11.432293 -1.023752
v -0.000000 11.432293 -2.047502
v 1.773187 11.432293 -1.023752
v -0.000000 14.438934 -1.187553
v -1.028448 14.438934 -0.593778
v -1.773187 11.432293 1.023748
v -1.028448 14.438934 0.593772
v 1.028448 14.438934 0.593772
v 0.000000 14.438934 1.187547
v 0.000000 11.432293 2.047498
v 1.773187 11.432293 1.023747
v 1.028448 14.438934 -0.593778
v -0.000000 15.194370 -0.000003
v -0.000000 8.682500 -1.146602
v -0.257076 8.682500 -0.257077
v 0.257076 8.682500 -0.257077
v 0.257076 8.682500 0.257074
v -0.257076 8.682500 0.257074
v 0.992985 8.682500 -0.573302
v -1.773187 9.150871 -1.023752
v -0.992985 8.682500 0.573298
v 0.992985 8.682500 0.573298
v 0.000000 9.150871 2.047498
v 0.000000 8.682500 1.146598
v 1.773187 9.150871 1.023748
v -0.000000 9.150871 -2.047502
v -0.992985 8.682500 -0.573302
v -0.404844 0.000000 0.404844
v 0.404844 0.000000 0.404844
v 0.404844 -0.000000 -0.404844
v -0.404844 -0.000000 -0.404844
vt -10.389764 135.064362
vt 10.389764 135.064362
vt 0.000000 157.393051
vt 10.389764 135.064362
vt -10.389764 135.064362
vt 10.389764 135.064362
vt -10.389764 135.064362
vt 10.389764 135.064362
vt -10.389764 135.064362
vt -10.389764 135.064362
vt 10.389764 135.064362
vt -10.389764 135.064362
vt 10.389764 135.064362
vt 0.000000 20.062992
vt 17.375061 -10.031496
vt 17.375061 10.031496
vt 4.498262 4.498262
vt -4.498262 4.498262
vt -17.375061 10.031496
vt -4.498262 -4.498262
vt 4.498262 -4.498262
vt 0.000000 -20.062992
vt -17.375061 -10.031496
vt 17.913385 109.015091
vt -10.031496 93.092201
vt 10.031496 93.092201
vt -17.913385 109.015091
vt -10.031496 93.092201
vt 17.913385 109.015091
vt -17.913385 109.015091
vt 10.031496 93.092201
vt -17.913385 109.015091
vt -10.031496 93.092201
vt 17.913385 109.015091
vt -10.031496 93.092201
vt 17.913385 109.015091
vt -17.913385 109.015091
vt 10.031496 93.092201
vt -10.031496 93.092201
vt 17.913385 109.015091
vt -17.913385 109.015091
vt -17.913385 109.015091
vt 10.031496 93.092201
vt 17.913385 109.015091
vt -10.031496 93.092201
vt 17.913385 200.040115
vt -17.913385 160.120239
vt 17.913385 160.120239
vt -17.913385 200.040115
vt -17.913385 200.040115
vt 17.913385 160.120239
vt 17.913385 200.040115
vt -17.913385 160.120239
vt 10.389764 240.911819
vt -17.913385 186.712280
vt 17.913385 186.712280
vt -10.389764 240.911819
vt 17.913385 200.040115
vt -17.913385 160.120239
vt 17.913385 160.120239
vt -17.913385 200.040115
vt 10.389764 240.911819
vt -17.913385 186.712280
vt 17.913385 186.712280
vt -10.389764 240.911819
vt 10.389764 240.911819
vt -17.913385 186.712280
vt 17.913385 186.712280
vt -10.389764 240.911819
vt 17.913385 186.712280
vt -10.389764 240.911819
vt -17.913385 186.712280
vt 10.389764 240.911819
vt 10.389764 240.911819
vt -17.913385 186.712280
vt 17.913385 186.712280
vt -10.389764 240.911819
vt 17.913385 200.040115
vt -17.913385 160.120239
vt 17.913385 160.120239
vt -17.913385 200.040115
vt 17.913385 160.120239
vt -17.913385 200.040115
vt -17.913385 160.120239
vt 17.913385 200.040115
vt 10.389764 240.911819
vt -17.913385 186.712280
vt 17.913385 186.712280
vt -10.389764 240.911819
vt 17.913385 200.040115
vt -17.913385 160.120239
vt 17.913385 160.120239
vt -17.913385 200.040115
vt 10.031496 93.092201
vt 10.031496 93.092201
vt -7.083878 7.083878
vt 7.083878 -7.083878
vt 7.083878 7.083878
vt -7.083878 -7.083878
vt -7.083878 -0.120543
vt 4.498262 151.826218
vt -4.498262 151.826218
vt -7.083878 -0.120543
vt 4.498262 151.826218
vt -4.498262 151.826218
vt -7.083878 -0.120543
vt 4.498262 151.826218
vt -4.498262 151.826218
vt -4.498262 151.826218
vt 7.083878 -0.120543
vt 4.498262 151.826218
vt 7.083878 -0.120543
vt 7.083878 -0.120543
vt 7.083878 -0.120543
vt -7.083878 -0.120543
vn -0.2960 0.8059 -0.5127
vn -0.2960 0.8059 0.5127
vn 0.2960 0.8059 0.5127
vn 0.5920 0.8059 0.0000
vn -0.5920 0.8059 0.0000
vn 0.2960 0.8059 -0.5127
vn 0.0000 -1.0000 0.0000
vn 0.2573 -0.8574 -0.4457
vn -0.5147 -0.8574 0.0000
vn 0.2573 -0.8574 0.4457
vn -0.2573 -0.8574 0.4457
vn 0.5147 -0.8574 -0.0000
vn -0.2573 -0.8574 -0.4457
vn 0.4967 0.1155 -0.8602
vn 0.5000 -0.0000 -0.8660
vn -0.9933 0.1155 0.0000
vn -1.0000 -0.0000 0.0000
vn -0.4853 0.2404 -0.8406
vn -0.4967 0.1155 -0.8602
vn -0.5000 -0.0000 -0.8660
vn 0.4853 0.2404 -0.8406
vn -0.4853 0.2404 0.8406
vn -0.4967 0.1155 0.8602
vn 0.9933 0.1155 -0.0000
vn 0.9707 0.2404 -0.0000
vn -0.9707 0.2404 0.0000
vn 0.4967 0.1155 0.8602
vn 0.5000 0.0000 0.8660
vn 1.0000 -0.0000 -0.0000
vn 0.4853 0.2404 0.8406
vn -0.5000 0.0000 0.8660
vn 0.0000 0.0170 0.9999
vn -0.0000 0.0170 -0.9999
vn -0.9999 0.0170 0.0000
vn 0.9999 0.0170 -0.0000
usemtl natureKit-leavesGreen
s off
f 6/1/1 7/2/1 15/3/1
f 11/4/2 15/3/2 9/5/2
f 10/6/3 15/3/3 11/7/3
f 14/8/4 15/3/4 10/9/4
f 15/3/5 7/10/5 9/11/5
f 14/12/6 6/13/6 15/3/6
f 16/14/7 23/15/7 29/16/7
f 23/15/7 16/14/7 17/17/7
f 17/17/7 16/14/7 18/18/7
f 18/18/7 16/14/7 21/19/7
f 18/18/7 21/19/7 19/20/7
f 20/21/7 23/15/7 17/17/7
f 23/15/7 20/21/7 26/22/7
f 26/22/7 20/21/7 19/20/7
f 26/22/7 19/20/7 24/23/7
f 24/23/7 19/20/7 21/19/7
f 28/24/8 21/25/8 16/26/8
f 21/25/8 28/24/8 1/27/8
f 29/28/9 2/29/9 22/30/9
f 24/31/10 25/32/10 26/33/10
f 25/32/10 24/31/10 27/34/10
f 23/35/11 25/36/11 2/37/11
f 25/36/11 23/35/11 26/38/11
f 24/39/12 1/40/12 27/41/12
f 28/42/13 29/43/13 22/44/13
f 29/43/13 28/42/13 16/45/13
s 1
f 4/46/14 1/47/15 28/48/15
f 1/47/15 4/46/14 5/49/14
f 3/50/16 2/51/17 8/52/16
f 2/51/17 3/50/16 22/53/17
f 7/54/18 4/55/19 3/56/19
f 4/55/19 7/54/18 6/57/18
f 3/58/19 28/59/20 22/60/20
f 28/59/20 3/58/19 4/61/19
f 6/62/21 5/63/14 4/64/14
f 5/63/14 6/62/21 14/65/21
f 11/66/22 8/67/23 12/68/23
f 8/67/23 11/66/22 9/69/22
f 5/70/24 10/71/25 13/72/24
f 10/71/25 5/70/24 14/73/25
f 9/74/26 3/75/16 8/76/16
f 3/75/16 9/74/26 7/77/26
f 13/78/27 25/79/28 27/80/28
f 25/79/28 13/78/27 12/81/27
f 1/82/29 13/83/24 27/84/29
f 13/83/24 1/82/29 5/85/24
f 10/86/30 12/87/27 13/88/27
f 12/87/27 10/86/30 11/89/30
f 12/90/23 2/91/31 25/92/31
f 2/91/31 12/90/23 8/93/23
f 2/29/9 29/28/9 23/94/9
f 1/40/12 24/39/12 21/95/12
usemtl natureKit-wood
s off
f 32/96/7 30/97/7 33/98/7
f 30/97/7 32/96/7 31/99/7
f 30/100/32 19/101/32 20/102/32
f 32/103/33 17/104/33 18/105/33
f 33/106/34 20/107/34 17/108/34
f 19/109/35 32/110/35 18/111/35
s 1
f 19/101/32 30/100/32 31/112/32
f 17/104/33 32/103/33 33/113/33
f 20/107/34 33/106/34 30/114/34
f 32/110/35 19/109/35 31/115/35
