# Blender v2.79 (sub 0) OBJ File: 'Fixing models.blend'
# www.blender.org
mtllib tree_pineSmall_round2.mtl
o tree_pineSmall_round2
v 2.401921 -0.000000 -1.386750
v 1.514980 1.805301 -0.874675
v -2.401921 0.000000 1.386750
v -2.401922 -0.000000 -1.386750
v 0.000000 1.805302 1.749349
v 0.000000 0.000000 2.773500
v -1.037215 6.104973 0.598835
v -0.000000 6.104973 -1.197674
v -0.000000 6.104973 -0.970977
v 1.037215 6.104973 -0.598838
v 0.840889 6.104973 -0.485489
v -0.145140 9.144687 -0.083798
v -0.145140 9.144687 0.083795
v 0.145140 9.144687 -0.083798
v 0.145140 9.144687 0.083794
v 1.037215 6.104973 0.598835
v 0.000000 9.144687 0.167591
v -0.000000 9.144687 -0.167595
v 0.000000 6.104973 1.197671
v -1.037215 6.104973 -0.598837
v -1.144195 3.801621 0.660601
v -1.873499 1.805301 -1.081665
v 0.000000 3.801621 1.321202
v -1.873498 1.805302 1.081665
v 0.000000 1.805302 2.163330
v -0.000000 1.805301 -1.749349
v 1.514981 1.805302 0.874674
v 1.873499 1.805302 1.081665
v -0.000000 3.801621 -1.321204
v 1.450650 3.801621 -0.837534
v -0.000000 3.801621 -1.675067
v 0.840889 6.104973 0.485486
v 1.450650 3.801621 0.837532
v 0.000000 6.104973 0.970974
v -0.840889 6.104973 0.485486
v -1.450650 3.801621 0.837533
v 1.144195 3.801621 0.660601
v 1.144195 3.801621 -0.660602
v 2.401922 0.000000 1.386750
v -1.144195 3.801621 -0.660602
v -0.000000 1.805301 -2.163331
v -0.000000 -0.000000 -2.773500
v -1.514980 1.805302 0.874674
v -1.514981 1.805301 -0.874675
v 1.873498 1.805301 -1.081666
v -0.840889 6.104973 -0.485489
v -1.450650 3.801621 -0.837534
v 0.000000 3.801621 1.675066
vt 25.393702 -19.394573
vt -16.016747 17.437725
vt -25.393702 -19.394573
vt 16.016747 17.437725
vt -25.393702 -19.394573
vt 16.016747 17.437725
vt -16.016747 17.437725
vt 0.000000 50.787403
vt 43.983181 -25.393702
vt 43.983181 25.393702
vt 0.000000 -50.787403
vt -43.983181 25.393702
vt -43.983181 -25.393702
vt -25.393702 -19.394573
vt 16.016747 17.437725
vt -16.016747 17.437725
vt 18.993130 10.965689
vt 15.398082 8.890086
vt 18.993130 -10.965689
vt 0.000000 21.931377
vt 0.000000 17.780172
vt -18.993130 10.965689
vt -15.398082 8.890086
vt -15.398082 -8.890086
vt 15.398082 -8.890086
vt 0.000000 -21.931377
vt 0.000000 -17.780172
vt -18.993130 -10.965689
vt 1.534451 159.929596
vt -10.965689 101.919876
vt 10.965689 101.919876
vt -1.534451 159.929596
vt 0.000000 -3.068902
vt -2.657747 1.534451
vt -2.657747 -1.534451
vt 0.000000 3.068902
vt 2.657747 -1.534451
vt 2.657747 1.534451
vt 1.534451 159.929596
vt -10.965689 101.919876
vt 10.965689 101.919876
vt -1.534451 159.929596
vt 1.534451 159.929596
vt -10.965689 101.919876
vt 10.965689 101.919876
vt -1.534451 159.929596
vt 1.534451 159.929596
vt -10.965689 101.919876
vt 10.965689 101.919876
vt -1.534451 159.929596
vt 10.965689 101.919876
vt -1.534451 159.929596
vt -10.965689 101.919876
vt 1.534451 159.929596
vt 1.534451 159.929596
vt -10.965689 101.919876
vt 10.965689 101.919876
vt -1.534451 159.929596
vt 12.096712 58.197704
vt -19.807087 19.278740
vt 19.807087 19.278740
vt -12.096712 58.197704
vt 12.096712 58.197704
vt -19.807087 19.278740
vt 19.807087 19.278740
vt -12.096712 58.197704
vt 12.096712 58.197704
vt -19.807087 19.278740
vt 19.807087 19.278740
vt 34.306881 19.807087
vt 27.741817 16.016747
vt 34.306881 -19.807087
vt 0.000000 39.614174
vt 0.000000 32.033493
vt -34.306881 19.807087
vt -27.741817 16.016747
vt -27.741817 -16.016747
vt 27.741817 -16.016747
vt 0.000000 -39.614174
vt 0.000000 -32.033493
vt -34.306881 -19.807087
vt 26.563818 15.336627
vt 20.952120 12.096712
vt 26.563818 -15.336628
vt 0.000000 30.673254
vt 0.000000 24.193424
vt -20.952120 12.096712
vt -26.563818 15.336627
vt -20.952120 -12.096712
vt 20.952120 -12.096712
vt 0.000000 -30.673254
vt 0.000000 -24.193424
vt -26.563818 -15.336628
vt 8.890086 104.128990
vt -15.336627 60.497860
vt 15.336627 60.497860
vt -8.890086 104.128990
vt 8.890086 104.128990
vt -15.336627 60.497860
vt 15.336627 60.497860
vt -8.890086 104.128990
vt 8.890086 104.128990
vt -15.336627 60.497860
vt 15.336627 60.497860
vt -8.890086 104.128990
vt 19.807087 19.278740
vt -12.096712 58.197704
vt -19.807087 19.278740
vt 12.096712 58.197704
vt -25.393702 -19.394573
vt 16.016747 17.437725
vt -16.016747 17.437725
vt 12.096712 58.197704
vt -19.807087 19.278740
vt 19.807087 19.278740
vt -25.393702 -19.394573
vt 16.016747 17.437725
vt -16.016747 17.437725
vt 15.336627 60.497860
vt -8.890086 104.128990
vt -15.336627 60.497860
vt 8.890086 104.128990
vt 16.016747 17.437725
vt -25.393702 -19.394573
vt 25.393702 -19.394573
vt -16.016747 17.437725
vt 12.096712 58.197704
vt -19.807087 19.278740
vt 19.807087 19.278740
vt -12.096712 58.197704
vt 8.890086 104.128990
vt -15.336627 60.497860
vt 15.336627 60.497860
vt -8.890086 104.128990
vt 8.890086 104.128990
vt -15.336627 60.497860
vt 15.336627 60.497860
vt -8.890086 104.128990
vt 25.393702 -19.394573
vt 25.393702 -19.394573
vt -12.096712 58.197704
vt 25.393702 -19.394573
vt -12.096712 58.197704
vt 25.393702 -19.394573
vn 0.8975 0.4410 -0.0000
vn 0.4488 0.4410 -0.7773
vn 0.0000 -1.0000 0.0000
vn -0.4488 0.4410 0.7773
vn -0.4798 0.2816 -0.8310
vn 0.0000 1.0000 0.0000
vn 0.4798 0.2816 0.8310
vn 0.4798 0.2816 -0.8310
vn -0.4798 0.2816 0.8310
vn 0.9595 0.2816 0.0000
vn -0.9595 0.2816 0.0000
vn -0.9393 0.3431 0.0000
vn -0.4696 0.3431 0.8134
vn 0.4696 0.3431 0.8134
vn 0.4833 0.2559 -0.8372
vn 0.4834 0.2559 -0.8372
vn 0.4834 0.2559 0.8372
vn -0.9667 0.2559 0.0000
vn 0.9393 0.3431 -0.0000
vn 0.4488 0.4410 0.7773
vn -0.4696 0.3431 -0.8134
vn -0.4488 0.4410 -0.7773
vn 0.9667 0.2559 -0.0000
vn -0.8975 0.4410 0.0000
vn 0.4696 0.3431 -0.8134
vn -0.4834 0.2559 -0.8372
vn -0.4833 0.2559 0.8372
vn -0.4834 0.2559 0.8372
usemtl natureKit-leaves
s off
f 1/1/1 27/2/1 39/3/1
f 27/2/1 1/1/1 2/4/1
f 1/5/2 26/6/2 2/7/2
f 42/8/3 3/9/3 4/10/3
f 3/9/3 42/8/3 6/11/3
f 6/11/3 42/8/3 1/12/3
f 6/11/3 1/12/3 39/13/3
f 3/14/4 5/15/4 43/16/4
f 20/17/3 46/18/3 7/19/3
f 46/18/3 20/17/3 8/20/3
f 46/18/3 8/20/3 9/21/3
f 9/21/3 8/20/3 10/22/3
f 9/21/3 10/22/3 11/23/3
f 11/23/3 10/22/3 32/24/3
f 35/25/3 7/19/3 46/18/3
f 7/19/3 35/25/3 19/26/3
f 19/26/3 35/25/3 34/27/3
f 19/26/3 34/27/3 32/24/3
f 19/26/3 32/24/3 16/28/3
f 16/28/3 32/24/3 10/22/3
f 12/29/5 8/30/5 20/31/5
f 8/30/5 12/29/5 18/32/5
f 17/33/6 12/34/6 13/35/6
f 12/34/6 17/33/6 18/36/6
f 18/36/6 17/33/6 15/37/6
f 18/36/6 15/37/6 14/38/6
f 15/39/7 19/40/7 16/41/7
f 19/40/7 15/39/7 17/42/7
f 18/43/8 10/44/8 8/45/8
f 10/44/8 18/43/8 14/46/8
f 17/47/9 7/48/9 19/49/9
f 7/48/9 17/47/9 13/50/9
f 10/51/10 15/52/10 16/53/10
f 15/52/10 10/51/10 14/54/10
f 13/55/11 20/56/11 7/57/11
f 20/56/11 13/55/11 12/58/11
f 21/59/12 22/60/12 24/61/12
f 22/60/12 21/59/12 40/62/12
f 23/63/13 24/64/13 25/65/13
f 24/64/13 23/63/13 21/66/13
f 37/67/14 25/68/14 28/69/14
f 22/70/3 44/71/3 24/72/3
f 44/71/3 22/70/3 41/73/3
f 44/71/3 41/73/3 26/74/3
f 26/74/3 41/73/3 45/75/3
f 26/74/3 45/75/3 2/76/3
f 2/76/3 45/75/3 27/77/3
f 43/78/3 24/72/3 44/71/3
f 24/72/3 43/78/3 25/79/3
f 25/79/3 43/78/3 5/80/3
f 25/79/3 5/80/3 27/77/3
f 25/79/3 27/77/3 28/81/3
f 28/81/3 27/77/3 45/75/3
f 47/82/3 40/83/3 36/84/3
f 40/83/3 47/82/3 31/85/3
f 40/83/3 31/85/3 29/86/3
f 29/86/3 31/85/3 38/87/3
f 38/87/3 31/85/3 30/88/3
f 38/87/3 30/88/3 37/89/3
f 21/90/3 36/84/3 40/83/3
f 36/84/3 21/90/3 48/91/3
f 48/91/3 21/90/3 23/92/3
f 48/91/3 23/92/3 37/89/3
f 48/91/3 37/89/3 33/93/3
f 33/93/3 37/89/3 30/88/3
f 9/94/15 30/95/15 31/96/15
f 30/95/16 9/94/16 11/97/16
f 32/98/17 48/99/17 33/100/17
f 48/99/17 32/98/17 34/101/17
f 35/102/18 47/103/18 36/104/18
f 47/103/18 35/102/18 46/105/18
f 45/106/19 37/107/19 28/108/19
f 37/107/19 45/106/19 38/109/19
f 6/110/20 27/111/20 5/112/20
f 40/113/21 41/114/21 22/115/21
f 42/116/22 44/117/22 26/118/22
f 30/119/23 32/120/23 33/121/23
f 32/120/23 30/119/23 11/122/23
f 43/123/24 4/124/24 3/125/24
f 4/124/24 43/123/24 44/126/24
f 29/127/25 45/128/25 41/129/25
f 45/128/25 29/127/25 38/130/25
f 46/131/26 31/132/26 47/133/26
f 31/132/26 46/131/26 9/134/26
f 34/135/27 36/136/27 48/137/27
f 36/136/28 34/135/28 35/138/28
s 1
f 26/6/2 1/5/2 42/139/2
f 5/15/4 3/14/4 6/140/4
f 25/68/14 37/67/14 23/141/14
f 27/111/20 6/110/20 39/142/20
f 41/114/21 40/113/21 29/143/21
f 44/117/22 42/116/22 4/144/22
