# Blender v2.79 (sub 0) OBJ File: 'Fixing models.blend'
# www.blender.org
mtllib tree_short_fall.mtl
o tree_short_fall
v -0.688234 0.000000 0.688234
v -0.437029 2.428875 -0.437029
v 0.437029 2.428875 0.437028
v 0.688234 0.000000 0.688234
v -0.688234 -0.000000 -0.688234
v 0.688234 -0.000000 -0.688234
v 0.437029 2.428875 -0.437029
v -1.887500 3.978875 3.269245
v 1.887500 3.978874 -3.269247
v 2.906749 9.428875 -0.000002
v -3.775000 3.978875 -0.000000
v -1.453375 9.428875 -2.517321
v 1.453375 9.428875 -2.517321
v 3.775000 3.978875 -0.000001
v 1.453375 9.428875 2.517317
v 1.887500 3.978875 3.269245
v -0.437029 2.428875 0.437028
v 1.472250 2.428875 2.550011
v 2.944499 2.428875 -0.000001
v -1.472250 2.428875 2.550011
v -2.944499 2.428875 -0.000000
v -2.906749 9.428875 -0.000002
v 1.472250 2.428875 -2.550012
v -0.000000 11.503876 -0.000002
v -1.453375 9.428875 2.517318
v -1.887500 3.978874 -3.269247
v -1.472250 2.428875 -2.550012
vt 6.882341 37.339027
vt -10.838332 -1.115003
vt 10.838332 -1.115003
vt -6.882341 37.339027
vt 6.882341 37.339027
vt -10.838332 -1.115003
vt 10.838332 -1.115003
vt -6.882341 37.339027
vt 6.882341 37.339027
vt -10.838332 -1.115003
vt 10.838332 -1.115003
vt -6.882341 37.339027
vt -10.838332 10.838332
vt 10.838332 -10.838332
vt 10.838332 10.838332
vt -10.838332 -10.838332
vt 10.838332 -1.115003
vt -6.882341 37.339027
vt -10.838332 -1.115003
vt 6.882341 37.339027
vt 22.887794 141.674728
vt -29.724409 55.034939
vt 29.724409 55.034939
vt -22.887794 141.674728
vt 22.887794 141.674728
vt -29.724409 55.034939
vt 29.724409 55.034939
vt -22.887794 141.674728
vt 29.724409 55.034939
vt -22.887794 141.674728
vt -29.724409 55.034939
vt 22.887794 141.674728
vt -22.887794 141.674728
vt 29.724409 55.034939
vt 22.887794 141.674728
vt -29.724409 55.034939
vt 22.887794 141.674728
vt -29.724409 55.034939
vt 29.724409 55.034939
vt -22.887794 141.674728
vt 29.724409 55.034939
vt -22.887794 141.674728
vt -29.724409 55.034939
vt 22.887794 141.674728
vt 23.185040 40.157665
vt 23.185040 -40.157665
vt 46.370079 0.000000
vt 6.882341 6.882341
vt -23.185040 40.157665
vt -6.882341 6.882341
vt -6.882341 -6.882341
vt 6.882341 -6.882341
vt -23.185040 -40.157665
vt -46.370079 0.000000
vt 22.887794 63.855576
vt -0.000000 115.230186
vt -22.887794 63.855576
vt -29.724409 78.508850
vt 23.185040 51.599529
vt 29.724409 78.508850
vt -23.185040 51.599529
vt -29.724409 78.508850
vt 23.185040 51.599529
vt 29.724409 78.508850
vt -23.185040 51.599529
vt -23.185040 51.599529
vt 29.724409 78.508850
vt -29.724409 78.508850
vt 23.185040 51.599529
vt -22.887794 63.855576
vt 22.887794 63.855576
vt 23.185040 51.599529
vt -29.724409 78.508850
vt -23.185040 51.599529
vt 29.724409 78.508850
vt 29.724409 78.508850
vt -23.185040 51.599529
vt 23.185040 51.599529
vt -29.724409 78.508850
vt -22.887794 63.855576
vt 22.887794 63.855576
vt 22.887794 63.855576
vt -22.887794 63.855576
vt 29.724409 78.508850
vt -23.185040 51.599529
vt 23.185040 51.599529
vt -29.724409 78.508850
vt -22.887794 63.855576
vt 22.887794 63.855576
vt -22.887794 63.855576
vt 22.887794 63.855576
vn -0.9947 0.1029 0.0000
vn 0.0000 0.1029 -0.9947
vn 0.0000 0.1029 0.9947
vn 0.0000 -1.0000 0.0000
vn 0.9947 0.1029 -0.0000
vn 0.0000 0.1367 0.9906
vn -0.8579 0.1367 0.4953
vn 0.8579 0.1367 -0.4953
vn -0.8579 0.1367 -0.4953
vn 0.0000 0.1367 -0.9906
vn 0.8579 0.1367 0.4953
vn 0.5508 0.7716 0.3180
vn -0.7856 -0.4209 -0.4536
vn -0.7856 -0.4209 -0.4535
vn -0.7856 -0.4209 0.4536
vn 0.7856 -0.4209 0.4536
vn -0.5508 0.7716 0.3180
vn 0.7856 -0.4209 -0.4536
vn 0.0000 -0.4209 0.9071
vn -0.5508 0.7716 -0.3180
vn 0.0000 0.7716 0.6361
vn 0.0000 -0.4209 -0.9071
vn -0.0000 0.7716 -0.6361
vn 0.5508 0.7716 -0.3180
usemtl natureKit-wood
s off
f 17/1/1 5/2/1 1/3/1
f 5/2/1 17/1/1 2/4/1
f 2/5/2 6/6/2 5/7/2
f 6/6/2 2/5/2 7/8/2
f 3/9/3 1/10/3 4/11/3
f 1/10/3 3/9/3 17/12/3
f 6/13/4 1/14/4 5/15/4
f 1/14/4 6/13/4 4/16/4
f 6/17/5 3/18/5 4/19/5
f 3/18/5 6/17/5 7/20/5
usemtl natureKit-leavesFall
f 15/21/6 8/22/6 16/23/6
f 8/22/6 15/21/6 25/24/6
f 25/25/7 11/26/7 8/27/7
f 11/26/7 25/25/7 22/28/7
f 9/29/8 10/30/8 14/31/8
f 10/30/8 9/29/8 13/32/8
f 12/33/9 11/34/9 22/35/9
f 11/34/9 12/33/9 26/36/9
f 12/37/10 9/38/10 26/39/10
f 9/38/10 12/37/10 13/40/10
f 14/41/11 15/42/11 16/43/11
f 15/42/11 14/41/11 10/44/11
f 27/45/4 20/46/4 21/47/4
f 20/46/4 27/45/4 2/48/4
f 2/48/4 27/45/4 23/49/4
f 2/48/4 23/49/4 7/50/4
f 7/50/4 23/49/4 3/51/4
f 17/52/4 20/46/4 2/48/4
f 20/46/4 17/52/4 18/53/4
f 18/53/4 17/52/4 3/51/4
f 18/53/4 3/51/4 23/49/4
f 18/53/4 23/49/4 19/54/4
f 10/55/12 24/56/12 15/57/12
f 26/58/13 21/59/13 11/60/13
f 21/59/14 26/58/14 27/61/14
f 11/62/15 20/63/15 8/64/15
f 20/63/15 11/62/15 21/65/15
f 18/66/16 14/67/16 16/68/16
f 14/67/16 18/66/16 19/69/16
f 24/56/17 22/70/17 25/71/17
f 23/72/18 14/73/18 19/74/18
f 14/73/18 23/72/18 9/75/18
f 16/76/19 20/77/19 18/78/19
f 20/77/19 16/76/19 8/79/19
f 24/56/20 12/80/20 22/81/20
f 15/82/21 24/56/21 25/83/21
f 26/84/22 23/85/22 27/86/22
f 23/85/22 26/84/22 9/87/22
f 13/88/23 12/89/23 24/56/23
f 10/90/24 13/91/24 24/56/24
