# Blender v2.79 (sub 0) OBJ File: 'Fixing models.blend'
# www.blender.org
mtllib treeStump_round.mtl
o treeStump_round
v 1.188793 0.735000 0.686350
v 1.606477 0.000000 0.927500
v 1.606477 -0.000000 -0.927500
v -0.000000 -0.000000 -1.855000
v -1.606477 -0.000000 -0.927500
v 0.000000 0.000000 1.855000
v 1.188793 0.735000 -0.686350
v 1.188793 2.065000 0.686349
v 1.188793 2.065000 -0.686351
v 0.000000 0.735000 1.372700
v -1.188793 2.065000 -0.686350
v -1.188793 0.735000 0.686350
v -1.188793 2.065000 0.686350
v -1.606477 0.000000 0.927500
v 0.000000 2.065000 1.372699
v -0.000000 2.065000 -1.372700
v -0.000000 0.735000 -1.372700
v -1.188793 0.735000 -0.686350
v 0.000000 1.785000 0.782128
v 0.677343 1.785000 -0.391065
v -0.677343 1.785000 0.391064
v 0.000000 2.065000 0.977660
v -0.000000 1.785000 -0.782129
v -0.000000 2.065000 -0.977661
v -0.677343 1.785000 -0.391065
v -0.846679 2.065000 -0.488831
v -0.846679 2.065000 0.488830
v 0.846679 2.065000 -0.488831
v 0.846679 2.065000 0.488830
v 0.677343 1.785000 0.391064
vt 7.720472 0.581265
vt -10.433071 -8.928188
vt 10.433071 -8.928188
vt -7.720472 0.581265
vt 10.433071 -8.928188
vt -7.720472 0.581265
vt -10.433071 -8.928188
vt 7.720472 0.581265
vt 7.720472 0.581265
vt -10.433071 -8.928188
vt 10.433071 -8.928188
vt -7.720472 0.581265
vt 0.000000 20.866142
vt 18.070608 -10.433071
vt 18.070608 10.433071
vt 0.000000 -20.866142
vt -18.070608 10.433071
vt -18.070608 -10.433071
vt -13.372251 -7.720472
vt -9.523950 -5.498655
vt -13.372251 7.720472
vt 0.000000 -15.440945
vt 0.000000 -10.997310
vt 13.372251 -7.720472
vt 9.523950 -5.498655
vt 9.523950 5.498655
vt -9.523950 5.498655
vt 0.000000 15.440945
vt 0.000000 10.997310
vt 13.372251 7.720472
vt 7.720472 8.267716
vt -7.720472 23.228346
vt -7.720472 8.267716
vt 7.720472 23.228346
vt 7.720472 23.228346
vt -7.720472 8.267716
vt 7.720472 8.267716
vt -7.720472 23.228346
vt -7.720472 23.228346
vt 7.720472 8.267716
vt 7.720472 23.228346
vt -7.720472 8.267716
vt 7.720472 0.581265
vt -10.433071 -8.928188
vt 10.433071 -8.928188
vt -7.720472 0.581265
vt 7.720472 0.581265
vt -10.433071 -8.928188
vt 10.433071 -8.928188
vt -7.720472 0.581265
vt 7.720472 0.581265
vt -10.433071 -8.928188
vt 10.433071 -8.928188
vt -7.720472 0.581265
vt 7.720472 23.228346
vt -7.720472 8.267716
vt 7.720472 8.267716
vt -7.720472 23.228346
vt 7.720472 23.228346
vt -7.720472 8.267716
vt 7.720472 8.267716
vt -7.720472 23.228346
vt 7.720472 23.228346
vt -7.720472 8.267716
vt 7.720472 8.267716
vt -7.720472 23.228346
vt 0.000000 -8.797848
vt -7.619160 4.398924
vt -7.619160 -4.398924
vt 0.000000 8.797848
vt 7.619160 -4.398924
vt 7.619160 4.398924
vt 5.498655 24.804775
vt -4.398924 21.123981
vt 4.398924 21.123981
vt -5.498655 24.804775
vt 5.498655 24.804775
vt -4.398924 21.123981
vt 4.398924 21.123981
vt -5.498655 24.804775
vt 5.498655 24.804775
vt -4.398924 21.123981
vt 4.398924 21.123981
vt -5.498655 24.804775
vt -4.398924 21.123981
vt 5.498655 24.804775
vt -5.498655 24.804775
vt 4.398924 21.123981
vt -5.498655 24.804775
vt 4.398924 21.123981
vt 5.498655 24.804775
vt -4.398924 21.123981
vt 5.498655 24.804775
vt -4.398924 21.123981
vt 4.398924 21.123981
vt -5.498655 24.804775
vn 0.4347 0.4941 0.7529
vn 0.8694 0.4941 -0.0000
vn 0.4347 0.4941 -0.7529
vn 0.0000 -1.0000 0.0000
vn 0.0000 1.0000 0.0000
vn 1.0000 0.0000 -0.0000
vn -0.5000 0.0000 0.8660
vn -1.0000 -0.0000 0.0000
vn -0.8694 0.4941 0.0000
vn -0.4347 0.4941 0.7529
vn -0.4347 0.4941 -0.7529
vn 0.5000 0.0000 0.8660
vn 0.5000 -0.0000 -0.8660
vn -0.5000 -0.0000 -0.8660
vn 0.4278 0.5175 -0.7410
vn -0.4278 0.5175 0.7410
vn 0.4278 0.5175 0.7410
vn 0.8557 0.5175 -0.0000
vn -0.8557 0.5175 0.0000
vn -0.4278 0.5175 -0.7410
usemtl natureKit-wood
s off
f 1/1/1 6/2/1 2/3/1
f 6/2/1 1/1/1 10/4/1
f 3/5/2 1/6/2 2/7/2
f 1/6/2 3/5/2 7/8/2
f 17/9/3 3/10/3 4/11/3
f 3/10/3 17/9/3 7/12/3
f 4/13/4 14/14/4 5/15/4
f 14/14/4 4/13/4 6/16/4
f 6/16/4 4/13/4 3/17/4
f 6/16/4 3/17/4 2/18/4
f 13/19/5 27/20/5 11/21/5
f 27/20/5 13/19/5 15/22/5
f 27/20/5 15/22/5 22/23/5
f 22/23/5 15/22/5 8/24/5
f 22/23/5 8/24/5 29/25/5
f 29/25/5 8/24/5 28/26/5
f 26/27/5 11/21/5 27/20/5
f 11/21/5 26/27/5 16/28/5
f 16/28/5 26/27/5 24/29/5
f 16/28/5 24/29/5 28/26/5
f 16/28/5 28/26/5 9/30/5
f 9/30/5 28/26/5 8/24/5
f 7/31/6 8/32/6 1/33/6
f 8/32/6 7/31/6 9/34/6
f 15/35/7 12/36/7 10/37/7
f 12/36/7 15/35/7 13/38/7
f 11/39/8 12/40/8 13/41/8
f 12/40/8 11/39/8 18/42/8
f 12/43/9 5/44/9 14/45/9
f 5/44/9 12/43/9 18/46/9
f 10/47/10 14/48/10 6/49/10
f 14/48/10 10/47/10 12/50/10
f 18/51/11 4/52/11 5/53/11
f 4/52/11 18/51/11 17/54/11
f 8/55/12 10/56/12 1/57/12
f 10/56/12 8/55/12 15/58/12
f 16/59/13 7/60/13 17/61/13
f 7/60/13 16/59/13 9/62/13
f 11/63/14 17/64/14 18/65/14
f 17/64/14 11/63/14 16/66/14
usemtl natureKit-woodLight
f 19/67/5 25/68/5 21/69/5
f 25/68/5 19/67/5 23/70/5
f 23/70/5 19/67/5 30/71/5
f 23/70/5 30/71/5 20/72/5
f 27/73/15 19/74/15 21/75/15
f 19/74/15 27/73/15 22/76/15
f 28/77/16 23/78/16 20/79/16
f 23/78/16 28/77/16 24/80/16
f 24/81/17 25/82/17 23/83/17
f 25/82/17 24/81/17 26/84/17
f 21/85/18 26/86/18 27/87/18
f 26/86/18 21/85/18 25/88/18
f 28/89/19 30/90/19 29/91/19
f 30/90/19 28/89/19 20/92/19
f 22/93/20 30/94/20 19/95/20
f 30/94/20 22/93/20 29/96/20
