# Blender v2.79 (sub 0) OBJ File: 'Fixing models.blend'
# www.blender.org
mtllib tree_pine_tallSquare_detailed.mtl
o tree_pine_tallSquare_detailed
v 0.345385 4.356356 0.399563
v 0.364436 10.685310 0.265663
v 0.603280 0.350000 0.484325
v 0.384620 10.685310 0.265663
v 0.384620 10.685310 -0.224437
v 0.345385 3.881463 0.409610
v -0.054615 3.881463 0.409610
v 0.257385 3.992285 0.707333
v 0.473974 6.461861 0.219709
v 0.815065 6.886671 0.157834
v 0.033385 4.258225 0.701706
v -0.054615 4.356356 0.399563
v 0.822151 6.551746 -0.093416
v 0.473974 6.461861 -0.155291
v 0.463398 6.961749 -0.155291
v 0.463398 6.961749 0.219709
v 0.815065 6.886671 -0.093416
v 0.603280 0.350000 -0.443095
v 0.336189 4.686489 -0.351351
v -0.085296 10.685310 -0.224437
v 0.742393 0.000000 0.623438
v -0.166361 7.807662 -0.139417
v -0.166361 7.807662 0.185583
v -0.324140 0.350000 -0.443095
v -0.463253 -0.000000 -0.582208
v -0.463253 0.000000 0.623438
v 0.742393 -0.000000 -0.582208
v 0.290689 4.755552 -0.850001
v 0.290689 5.088478 -0.842958
v -0.514614 7.893927 0.136833
v -0.514614 7.893927 -0.090667
v -0.324140 0.350000 0.484325
v -0.155238 8.333405 -0.139417
v -0.155238 8.333405 0.185583
v -0.506828 8.261947 -0.090667
v -0.506828 8.261947 0.136833
v 0.336189 5.136389 -0.341832
v 0.031689 4.755552 -0.850001
v -0.013811 4.686489 -0.351351
v 0.031689 5.088478 -0.842958
v -0.013811 5.136389 -0.341832
v 0.822151 6.551746 0.157834
v 0.257385 4.258225 0.701706
v 0.033385 3.992285 0.707333
v 1.931364 10.685310 1.659166
v -0.351421 19.696062 0.271318
v -0.334584 19.696062 0.078674
v -0.310917 19.696062 0.248257
v -0.310917 19.696062 0.102341
v -0.927805 14.614425 -0.899422
v -0.803801 14.614425 -1.145004
v 1.492283 12.440633 -1.359888
v -1.931364 12.440633 -1.013870
v 1.681500 12.440633 1.520666
v -1.505261 12.440633 -1.359887
v 1.681499 12.440633 -1.013871
v -1.931364 12.440633 1.403634
v -1.196197 10.685310 1.959748
v 1.395939 12.440633 1.424322
v 0.139570 10.685310 0.020613
v -0.105480 10.685310 0.265663
v 1.931364 10.685310 -1.653227
v -0.105480 10.685310 -0.224437
v 1.630783 10.685310 1.959748
v 1.221034 14.614425 1.249416
v 1.261548 14.614425 1.494998
v 1.221034 14.614425 -0.899423
v 1.816615 14.614425 -0.820672
v -1.102710 12.440633 1.424323
v -1.638135 10.685310 1.517810
v -1.638135 10.685310 -1.576710
v 1.624839 10.685310 -1.959752
v 1.395939 12.440633 -1.074328
v -0.529100 19.696062 0.248257
v -0.529100 19.696062 0.098986
v 1.492283 14.614425 -1.145004
v 1.816616 14.614425 1.178972
v -1.173386 14.614425 1.178972
v -1.173387 14.614425 -0.866647
v -0.857360 14.614425 1.494998
v 1.492283 12.440633 1.709882
v -0.927805 14.614425 1.249417
v -1.625115 12.440633 1.709883
v -1.102710 12.440633 -1.074327
v -1.365730 10.685310 -1.959752
v -0.506040 19.696062 0.271318
v -0.502131 19.696062 0.078674
vt 9.500477 5.349249
vt 5.439140 60.975277
vt -5.104562 5.349249
vt 6.057013 168.146454
vt 5.439140 68.455589
vt -0.860073 68.455589
vt -0.860073 60.975277
vt -1.661098 168.146454
vt -7.627164 5.309625
vt -3.460001 101.580948
vt -4.183699 168.106827
vt 6.977876 5.309625
vt 2.445511 101.580948
vt 2.445511 109.454964
vt 3.534411 168.106827
vt -3.460001 109.454964
vt 5.439140 27.368874
vt 0.525754 32.371700
vt -0.860073 27.368874
vt 4.053313 32.371700
vt 12.317030 103.159088
vt 6.584018 109.615883
vt 6.748026 101.743576
vt 12.207145 108.433540
vt -6.760589 109.619560
vt -12.493600 103.162773
vt -6.924596 101.747253
vt -12.383715 108.437218
vt 10.751868 67.041969
vt 5.947838 61.108589
vt 10.836892 62.853851
vt 5.796010 68.587364
vt -4.659217 61.082428
vt -9.463247 67.015808
vt -9.548271 62.827690
vt -4.507389 68.561203
vt 1.471102 38.326725
vt -3.460001 32.663860
vt 2.445511 32.663860
vt -2.485591 38.326725
vt -2.485591 10.090574
vt 2.445511 15.753437
vt -3.460001 15.753437
vt 1.471102 10.090574
vt 0.525754 10.204315
vt 5.439140 15.207141
vt -0.860073 15.207141
vt 4.053313 10.204315
vt 5.104562 5.362983
vt 0.217492 73.669434
vt -9.500477 5.362983
vt 1.661098 168.160187
vt 0.217492 80.756050
vt -5.294319 80.756050
vt -5.294319 73.669434
vt -6.057013 168.160187
vt -11.691233 9.168632
vt 7.295318 -9.817920
vt 7.295318 9.168632
vt -11.691233 -9.817920
vt 9.168632 -4.318268
vt -7.627164 1.612960
vt -9.817920 -4.318268
vt 6.977876 1.612960
vt -3.534411 168.199814
vt 2.922596 131.153671
vt 4.183699 168.199814
vt -2.195514 131.153671
vt -2.195514 122.872391
vt 2.922596 122.872391
vt 7.627164 5.402607
vt -6.977876 5.402607
vt 7.627164 3.236633
vt -9.168632 -2.694596
vt 9.817920 -2.694596
vt -6.977876 3.236633
vt 5.104562 2.544707
vt -11.691233 -3.386521
vt 7.295318 -3.386521
vt -9.500477 2.544707
vt 9.500477 2.304886
vt -7.295318 -3.626342
vt 11.691233 -3.626342
vt -5.104562 2.304886
vt -2.197957 -0.324644
vt 1.343241 3.534411
vt 1.661098 3.534411
vt -6.057013 3.534411
vt -6.057013 -4.183699
vt -0.499043 79.834785
vt -4.577784 74.590691
vt -0.499043 74.590691
vt -4.577784 79.834785
vt -1.427797 129.911484
vt 2.154880 124.114586
vt 2.154880 129.911484
vt -1.427797 124.114586
vt -9.500477 6.977876
vt 5.104562 6.977876
vt 5.104562 -7.627164
vt -9.500477 -7.627164
vt 7.829781 124.305893
vt 2.118515 131.226852
vt 2.292006 122.947395
vt 7.708338 130.101517
vt -2.195514 32.106373
vt 2.154880 37.756428
vt -1.427797 37.756428
vt 2.922596 32.106373
vt -2.018234 131.224747
vt -7.729499 124.303795
vt -2.191724 122.945290
vt -7.608056 130.099411
vt 2.922596 23.742481
vt -1.427797 18.092428
vt 2.154880 18.092428
vt -2.195514 23.742481
vt -5.294319 2.339599
vt -0.499043 -5.588127
vt 0.217492 2.339599
vt -4.577784 -5.588127
vt -0.499043 23.533499
vt -5.294319 15.605773
vt 0.217492 15.605773
vt -4.577784 23.533499
vt 5.030614 73.791779
vt 12.805539 80.122314
vt 4.881336 80.876816
vt 12.916005 74.879379
vt -13.265527 80.132004
vt -5.490602 73.801468
vt -5.341324 80.886505
vt -13.375993 74.889076
vt 1.471102 102.880157
vt -2.485591 108.155746
vt -2.485591 102.880157
vt 1.471102 108.155746
vt 4.053313 66.809921
vt 0.525754 62.620949
vt 4.053313 62.620949
vt 0.525754 66.809921
vt 5.739155 168.146454
vt 1.343241 168.160187
vt 26.035034 152.077530
vt -22.430315 180.977798
vt -26.128630 152.077530
vt 16.918505 180.977798
vt -12.685954 141.891815
vt -5.283956 141.891815
vt -3.723270 171.814758
vt 8.332289 -3.909622
vt 7.969128 -4.272782
vt 8.332289 -1.558902
vt 7.907580 -1.239028
vt 5.534187 -4.272782
vt 5.269039 -1.239028
vt 4.896333 -3.909622
vt 4.896333 -1.611735
vt 14.611101 222.217331
vt -23.500521 187.224792
vt 23.704901 187.224792
vt -19.228882 222.217331
vt -23.500521 219.531097
vt 7.907580 301.844391
vt 5.269039 301.844391
vt -23.500521 21.415512
vt 17.365519 16.918505
vt 23.704901 21.415512
vt -21.983299 16.918505
vt -21.983299 -22.430315
vt 17.365519 -22.430315
vt 25.592375 -26.927322
vt 30.415190 -22.104507
vt 30.415190 15.966428
vt -23.500521 -26.927322
vt -26.480309 15.966428
vt -26.480309 -23.947536
vt 19.675898 202.831238
vt -15.966428 165.126282
vt 22.104507 165.126282
vt -14.164086 202.831238
vt 21.983299 180.847382
vt -18.837749 151.947113
vt 25.681616 151.947113
vt -17.365519 180.847382
vt -0.316087 177.807663
vt -3.663230 148.864624
vt 3.031055 148.864624
vt 3.581352 183.004517
vt -1.339870 154.488312
vt 8.502574 154.488312
vt -5.739155 -4.183699
vt 1.661098 -4.183699
vt 18.837749 -30.862206
vt 21.507566 30.862206
vt 25.797409 -23.902546
vt 25.797409 24.830053
vt -25.588018 30.862206
vt -25.681616 -30.862206
vt -30.415190 26.035034
vt -30.415190 -26.128630
vt 2.849648 287.314240
vt -11.090408 200.377213
vt -3.867172 200.377213
vt 2.322562 287.314240
vt -0.316087 217.523865
vt -2.423115 182.334595
vt 1.790940 182.334595
vt -6.189399 290.913300
vt 5.616117 205.687408
vt 15.674809 205.687408
vt -6.923391 290.913300
vt -5.534187 300.554016
vt -13.501741 218.240723
vt 19.866903 218.240723
vt -7.969128 300.554016
vt 15.966428 186.175232
vt -19.675898 221.167770
vt -23.947536 186.175232
vt 14.164086 221.167770
vt 2.413600 212.067184
vt 4.901816 175.998032
vt 13.545918 175.998032
vt 12.923914 201.245163
vt -3.909622 288.001556
vt -18.566538 201.245163
vt -1.611735 288.001556
vt 22.430315 182.325073
vt -24.830053 153.424805
vt 23.902546 153.424805
vt -16.918505 182.325073
vt 0.062232 219.204941
vt -2.613711 301.130035
vt -3.127298 301.130035
vt 3.909622 306.662781
vt -13.647936 225.996368
vt 18.566538 225.996368
vt 1.558902 306.662781
vt 7.593577 301.571381
vt -0.736756 219.490753
vt 6.549597 219.490753
vt 7.061885 301.571381
vt 18.478529 13.647936
vt 14.611101 14.164086
vt 18.478529 -18.566538
vt 12.658289 18.031513
vt -19.228882 14.164086
vt -23.500521 18.031513
vt -19.228882 -19.675898
vt -19.866903 -23.543324
vt -28.608120 -18.566538
vt -28.608120 12.923914
vt 14.611101 -19.675898
vt 13.501741 -23.543324
vt 7.514303 185.308884
vt 3.201512 220.296371
vt 1.303696 185.308884
vt 19.228882 221.075134
vt -25.592375 186.082596
vt 23.500521 186.082596
vt -14.611101 221.075134
vt 3.581352 206.835617
vt -5.876540 170.255432
vt 0.943951 170.255432
vt 17.365519 167.301987
vt -25.588018 136.341446
vt 21.507566 136.341446
vt -21.983299 167.301987
vt 12.658289 219.531097
vt 3.729413 137.168488
vt -3.581352 167.468689
vt -3.097238 137.168488
vt 7.100471 219.204941
vn 0.0000 0.0212 0.9998
vn -0.0001 0.0212 0.9998
vn 0.9998 0.0212 -0.0000
vn 0.0000 -0.9372 0.3488
vn 0.0000 -0.9372 0.3489
vn 0.1740 0.0037 0.9847
vn 0.1740 0.0037 -0.9847
vn -0.9596 0.0060 0.2814
vn 0.9596 0.0060 0.2814
vn 0.2500 -0.9683 0.0000
vn 0.2088 0.9780 0.0000
vn 0.0000 0.9511 0.3089
vn -0.0000 0.0212 -0.9998
vn 0.0000 -1.0000 0.0000
vn 0.9293 0.3694 -0.0000
vn -0.9998 0.0212 0.0000
vn -0.9293 0.3694 0.0000
vn -0.0000 0.3694 -0.9293
vn 0.0000 0.3694 0.9293
vn 0.0000 1.0000 0.0001
vn 0.0000 1.0000 -0.0000
vn -0.1379 0.0029 -0.9904
vn -0.2404 -0.9707 0.0000
vn -0.1379 0.0029 0.9904
vn -0.1992 0.9800 0.0000
vn 0.0000 0.9955 -0.0952
vn 0.0000 -0.9905 -0.1372
vn 0.9959 0.0019 -0.0906
vn -0.9959 0.0019 -0.0906
vn 0.0000 0.0081 -1.0000
vn 0.0000 0.0019 -1.0000
vn 0.9565 0.2918 0.0000
vn -0.7528 0.3829 -0.5354
vn -0.0000 0.2072 -0.9783
vn 0.0000 0.2341 -0.9722
vn -0.9079 0.4192 -0.0000
vn 0.0000 0.2918 0.9565
vn 0.6753 0.2964 0.6753
vn -0.6855 0.2456 0.6855
vn 0.0000 1.0000 -0.0001
vn 0.6509 0.3907 -0.6509
vn 0.6879 0.2315 0.6879
vn 0.4646 0.3440 0.8160
vn 0.0000 0.2341 0.9722
vn 0.9783 0.2072 -0.0000
vn -0.5983 0.3150 -0.7368
vn 0.9224 0.3862 0.0000
vn -0.9565 0.2918 0.0000
vn -0.6907 0.2141 0.6907
vn -0.9921 0.1258 0.0000
vn -0.5866 0.2224 -0.7788
vn 0.8585 0.2066 -0.4694
vn 0.0000 0.2072 0.9783
vn -0.6617 0.3524 0.6617
vn -0.0000 0.4504 -0.8928
vn 0.6451 0.4095 -0.6451
usemtl natureKit-wood
s off
f 3/1/1 6/2/1 32/3/1
f 6/2/1 3/1/1 4/4/1
f 6/2/2 4/4/2 1/5/2
f 1/5/1 4/4/1 12/6/1
f 7/7/1 32/3/1 6/2/1
f 32/3/1 7/7/1 61/8/1
f 61/8/1 7/7/1 12/6/1
f 61/8/1 12/6/1 4/4/1
f 3/9/3 9/10/3 4/11/3
f 9/10/3 3/9/3 18/12/3
f 9/10/3 18/12/3 14/13/3
f 14/13/3 18/12/3 15/14/3
f 15/14/3 18/12/3 5/15/3
f 4/11/3 16/16/3 5/15/3
f 16/16/3 4/11/3 9/10/3
f 5/15/3 16/16/3 15/14/3
f 6/17/4 44/18/4 7/19/4
f 44/18/5 6/17/5 8/20/5
f 42/21/6 16/22/6 9/23/6
f 16/22/6 42/21/6 10/24/6
f 15/25/7 13/26/7 14/27/7
f 13/26/7 15/25/7 17/28/7
f 11/29/8 7/30/8 44/31/8
f 7/30/8 11/29/8 12/32/8
f 6/33/9 43/34/9 8/35/9
f 43/34/9 6/33/9 1/36/9
f 13/37/10 9/38/10 14/39/10
f 9/38/10 13/37/10 42/40/10
f 10/41/11 15/42/11 16/43/11
f 15/42/11 10/41/11 17/44/11
f 11/45/12 1/46/12 12/47/12
f 1/46/12 11/45/12 43/48/12
f 24/49/13 39/50/13 18/51/13
f 39/50/13 24/49/13 63/52/13
f 39/50/13 63/52/13 41/53/13
f 41/53/13 63/52/13 37/54/13
f 19/55/13 18/51/13 39/50/13
f 18/51/13 19/55/13 5/56/13
f 5/56/13 19/55/13 37/54/13
f 5/56/13 37/54/13 63/52/13
f 27/57/14 26/58/14 25/59/14
f 26/58/14 27/57/14 21/60/14
f 27/61/15 3/62/15 21/63/15
f 3/62/15 27/61/15 18/64/15
f 63/65/16 34/66/16 61/67/16
f 34/66/16 63/65/16 33/68/16
f 33/68/16 63/65/16 22/69/16
f 23/70/16 61/67/16 34/66/16
f 23/70/16 32/71/16 61/67/16
f 32/71/16 23/70/16 24/72/16
f 24/72/16 23/70/16 22/69/16
f 24/72/16 22/69/16 63/65/16
f 32/73/17 25/74/17 26/75/17
f 25/74/17 32/73/17 24/76/17
f 24/77/18 27/78/18 25/79/18
f 27/78/18 24/77/18 18/80/18
f 3/81/19 26/82/19 21/83/19
f 26/82/19 3/81/19 32/84/19
f 60/85/20 20/86/20 63/87/20
f 5/88/21 20/86/21 60/85/21
f 60/85/21 4/89/21 5/88/21
f 40/90/13 28/91/13 38/92/13
f 28/91/13 40/90/13 29/93/13
f 35/94/16 30/95/16 36/96/16
f 30/95/16 35/94/16 31/97/16
f 18/98/21 24/99/21 32/100/21
f 32/100/21 3/101/21 18/98/21
f 31/102/22 33/103/22 22/104/22
f 33/103/22 31/102/22 35/105/22
f 22/106/23 30/107/23 31/108/23
f 30/107/23 22/106/23 23/109/23
f 34/110/24 30/111/24 23/112/24
f 30/111/24 34/110/24 36/113/24
f 34/114/25 35/115/25 36/116/25
f 35/115/25 34/114/25 33/117/25
f 37/118/26 40/119/26 41/120/26
f 40/119/26 37/118/26 29/121/26
f 38/122/27 19/123/27 39/124/27
f 19/123/27 38/122/27 28/125/27
f 19/126/28 29/127/28 37/128/28
f 29/127/28 19/126/28 28/129/28
f 40/130/29 39/131/29 41/132/29
f 39/131/29 40/130/29 38/133/29
f 13/134/3 10/135/3 42/136/3
f 10/135/3 13/134/3 17/137/3
f 43/138/1 44/139/1 8/140/1
f 44/139/1 43/138/1 11/141/1
s 1
f 61/8/30 4/4/30 2/142/30
f 5/56/31 63/52/31 20/143/31
usemtl natureKit-leaves
s off
f 62/144/32 59/145/32 45/146/32
f 59/145/32 62/144/32 73/147/32
f 85/148/33 71/149/33 84/150/33
f 74/151/21 86/152/21 75/153/21
f 87/154/21 75/153/21 86/152/21
f 46/155/21 87/154/21 86/152/21
f 47/156/21 87/154/21 46/155/21
f 48/157/21 47/156/21 46/155/21
f 49/158/21 47/156/21 48/157/21
f 50/159/34 52/160/34 55/161/34
f 52/160/34 50/159/34 67/162/34
f 76/163/35 87/164/35 47/165/35
f 52/166/14 84/167/14 55/168/14
f 84/167/14 52/166/14 73/169/14
f 73/169/14 52/166/14 59/170/14
f 69/171/14 55/168/14 84/167/14
f 83/172/14 55/168/14 69/171/14
f 57/173/14 55/168/14 83/172/14
f 55/168/14 57/173/14 53/174/14
f 83/172/14 69/171/14 81/175/14
f 81/175/14 69/171/14 59/170/14
f 81/175/14 59/170/14 52/166/14
f 81/175/14 52/166/14 56/176/14
f 81/175/14 56/176/14 54/177/14
f 82/178/36 53/179/36 57/180/36
f 53/179/36 82/178/36 50/181/36
f 59/182/37 58/183/37 64/184/37
f 58/183/37 59/182/37 69/185/37
f 59/186/38 64/187/38 45/188/38
f 69/189/39 70/190/39 58/191/39
f 4/89/40 60/85/40 2/192/40
f 61/193/21 2/192/21 60/85/21
f 60/85/21 63/87/21 61/193/21
f 61/193/14 58/194/14 63/87/14
f 58/194/14 85/195/14 63/87/14
f 70/196/14 85/195/14 58/194/14
f 85/195/14 70/196/14 71/197/14
f 63/87/14 85/195/14 72/198/14
f 63/87/14 72/198/14 20/86/14
f 20/86/14 72/198/14 5/88/14
f 5/88/14 72/198/14 4/89/14
f 58/194/14 61/193/14 64/199/14
f 64/199/14 61/193/14 2/192/14
f 64/199/14 2/192/14 4/89/14
f 64/199/14 4/89/14 72/198/14
f 64/199/14 72/198/14 62/200/14
f 64/199/14 62/200/14 45/201/14
f 47/202/41 68/203/41 76/204/41
f 68/203/41 47/202/41 49/205/41
f 65/206/42 81/207/42 54/208/42
f 48/209/43 66/210/43 77/211/43
f 66/210/43 48/209/43 46/212/43
f 46/213/44 80/214/44 66/215/44
f 80/214/44 46/213/44 86/216/44
f 56/217/45 65/218/45 54/219/45
f 65/218/45 56/217/45 67/220/45
f 50/221/46 55/222/46 53/223/46
f 68/224/47 48/225/47 77/226/47
f 48/225/47 68/224/47 49/227/47
f 69/228/48 71/229/48 70/230/48
f 71/229/48 69/228/48 84/231/48
f 78/232/49 86/233/49 74/234/49
f 74/235/50 79/236/50 78/237/50
f 79/236/50 74/235/50 75/238/50
f 75/239/51 51/240/51 79/241/51
f 51/240/51 75/239/51 87/242/51
f 79/243/14 50/244/14 78/245/14
f 50/244/14 79/243/14 51/246/14
f 50/244/14 51/246/14 67/247/14
f 67/247/14 51/246/14 76/248/14
f 67/247/14 76/248/14 65/249/14
f 65/249/14 76/248/14 66/250/14
f 66/250/14 76/248/14 77/251/14
f 77/251/14 76/248/14 68/252/14
f 82/253/14 78/245/14 50/244/14
f 78/245/14 82/253/14 80/254/14
f 80/254/14 82/253/14 65/249/14
f 80/254/14 65/249/14 66/250/14
f 52/255/52 67/256/52 56/257/52
f 65/258/53 83/259/53 81/260/53
f 83/259/53 65/258/53 82/261/53
f 82/262/54 57/263/54 83/264/54
f 84/265/55 72/266/55 85/267/55
f 72/266/55 84/265/55 73/268/55
s 1
f 87/164/35 76/163/35 51/269/35
f 72/270/56 73/271/56 62/272/56
f 86/233/49 78/232/49 80/273/49
