# Blender v2.79 (sub 0) OBJ File: 'Fixing models.blend'
# www.blender.org
mtllib bridge_straight.mtl
o bridge_straight
v -1.821587 0.448630 2.250000
v -2.384823 0.337923 2.250000
v -2.417339 0.331531 2.250000
v -3.003343 0.181787 2.250000
v -3.003344 0.181786 -2.250000
v -0.000000 0.600000 -2.250000
v 0.610475 0.583135 -2.250000
v 2.417340 0.331531 2.250000
v 2.384824 0.337923 2.250000
v -4.147520 -0.000000 -2.392080
v -4.431680 -0.000000 -2.107920
v -4.431680 0.000000 2.107921
v -4.147520 0.000000 2.250000
v -4.747519 0.000000 2.107921
v -0.610475 0.583136 2.250000
v 3.003344 0.181787 2.250000
v -1.218488 0.532612 2.250000
v -2.417340 0.331531 -2.250000
v 4.147520 0.800000 2.250000
v 0.610475 0.583136 2.250000
v 0.000000 0.600000 2.250000
v -4.147520 0.800000 2.250000
v -3.577235 0.000000 2.250000
v 1.821587 0.448630 2.250000
v 1.218488 0.532612 2.250000
v 1.821587 0.448630 -2.250000
v 4.147520 0.000000 2.250000
v 3.577236 0.000000 2.250000
v -3.577236 -0.000000 -2.250000
v -4.147520 -0.000000 -2.250000
v -2.384824 0.337922 -2.250000
v -1.821587 0.448630 -2.250000
v -1.218488 0.532611 -2.250000
v -0.610475 0.583135 -2.250000
v 4.147520 0.800000 -2.250000
v 2.384823 0.337922 -2.250000
v 2.417339 0.331531 -2.250000
v 4.147520 -0.000000 -2.250000
v 3.577235 -0.000000 -2.250000
v 1.218488 0.532611 -2.250000
v 3.003343 0.181786 -2.250000
v 4.147520 1.300000 -2.107921
v 4.147520 1.300000 -1.969209
v -4.147520 1.476300 -1.969208
v 4.147520 1.476300 -2.530792
v 4.147520 1.300000 -2.530792
v -4.147520 1.476300 -2.530792
v 4.147520 1.476300 -2.107921
v 4.147520 1.476300 -1.969209
v -4.147520 0.800000 -2.250000
v -4.147520 1.300000 -2.392080
v -4.147520 1.300000 -2.530792
v 4.147520 0.942080 2.392080
v 4.147520 1.300000 2.392079
v -4.147520 1.300000 2.107920
v -4.147520 0.800000 2.107920
v -4.147520 1.300000 2.392080
v 4.147520 1.300000 2.530791
v -4.147520 1.300000 1.969209
v 4.147520 1.476300 2.530791
v -4.431680 0.500000 -2.107920
v -4.747519 0.264572 2.107921
v -4.431680 0.264571 -2.107920
v -4.747519 0.264571 -2.107920
v -4.431680 0.264572 2.107920
v 4.147520 0.800000 -2.107921
v -4.747519 -0.000000 -2.107920
v -4.147520 0.800000 -2.107920
v -4.147520 0.500000 -2.107920
v 4.147520 1.476300 2.107919
v 4.147520 1.300000 1.969208
v -4.147520 1.476300 -2.107920
v -4.147520 1.300000 -1.969208
v -4.147520 1.300000 -2.107920
v -4.147520 1.476300 2.530792
v -4.147520 1.300000 2.530792
v 4.747519 -0.000000 -2.107921
v 4.431680 -0.000000 -2.107921
v 4.147520 0.500000 -2.107921
v 4.147520 0.500000 2.107920
v 4.431680 0.500000 -2.107921
v 4.747519 0.264571 -2.107921
v 4.431680 0.264571 -2.107921
v 4.431680 0.264572 2.107920
v 4.747519 0.264572 2.107920
v 4.431680 0.000000 2.107920
v 4.747519 0.000000 2.107920
v 4.147520 1.476300 1.969208
v -4.147520 1.476300 1.969209
v 4.147520 0.942080 -2.392081
v 4.147520 -0.000000 -2.392081
v 4.147520 1.300000 -2.392081
v 4.147520 1.476300 -2.392081
v 4.147520 1.676300 -2.392081
v 4.147520 1.676300 -2.107921
v 4.431680 1.676300 -2.392081
v 4.431680 0.000000 2.392080
v 4.431680 0.500000 2.107920
v 4.431680 1.676300 2.392079
v 4.147520 1.676300 2.392079
v 4.431680 1.676300 2.107919
v -4.147520 0.942080 2.392080
v -4.147520 0.000000 2.392081
v 4.431680 -0.000000 -2.392081
v 4.431680 1.676300 -2.107921
v -4.147520 0.500000 2.107920
v 4.147520 1.476300 2.392079
v 4.147520 0.000000 2.392080
v -4.431680 -0.000000 -2.392080
v -4.147520 0.942080 -2.392080
v -4.147520 1.476300 -2.392080
v -4.147520 1.676300 2.107920
v -4.431680 1.676300 2.107920
v -4.431680 0.000000 2.392081
v -4.431680 1.676300 2.392080
v -4.431680 0.500000 2.107920
v -4.431680 1.676300 -2.392080
v -4.147520 1.676300 -2.392080
v -4.431680 1.676300 -2.107920
v -4.147520 1.476300 2.107920
v -4.147520 1.676300 2.392080
v -4.147520 1.476300 2.392080
v -4.147520 1.676300 -2.107920
v 4.147520 0.800000 2.107920
v 4.147520 1.300000 2.107919
v 4.147520 1.676300 2.107919
vt 8.858268 -8.956203
vt -8.858268 -6.696305
vt -8.858268 -8.956203
vt 8.858268 -9.086667
vt 16.328819 -8.298898
vt -16.328819 8.298898
vt -16.328819 -8.298898
vt 16.328819 8.298898
vt -8.858268 -8.956203
vt 8.858268 -9.086667
vt 8.858268 -8.956203
vt -8.858268 -6.696305
vt 16.328819 9.417638
vt 17.447559 8.298898
vt 17.447559 9.417638
vt 17.447559 -8.298898
vt 17.447559 -9.417638
vt 16.328819 -9.417638
vt 18.691023 -8.298898
vt 18.691023 8.298898
vt 16.328819 0.000000
vt 11.824189 0.715695
vt 14.083607 0.000000
vt 16.328819 3.149606
vt 9.517086 1.305241
vt 9.389071 1.330403
vt 7.171603 1.766261
vt 4.797197 2.096895
vt 2.403445 2.295810
vt -0.000000 2.362205
vt -16.328819 3.149606
vt -2.403445 2.295810
vt -4.797197 2.096895
vt -7.171603 1.766261
vt -9.389071 1.330403
vt -9.517086 1.305241
vt -11.824189 0.715695
vt -14.083607 0.000000
vt -16.328819 0.000000
vt -18.691023 8.298898
vt -17.447559 -8.298898
vt -17.447559 8.298898
vt -18.691023 -8.298898
vt -16.328819 -9.417638
vt -17.447559 9.417638
vt -17.447559 -9.417638
vt -16.328819 -8.858268
vt -16.328819 8.858268
vt -16.328819 9.417638
vt 16.328819 3.149606
vt 14.083607 0.000000
vt 16.328819 0.000000
vt 11.824189 0.715695
vt 9.517086 1.305241
vt 9.389071 1.330403
vt 7.171603 1.766261
vt 4.797197 2.096895
vt 2.403445 2.295810
vt 0.000000 2.362205
vt -16.328819 3.149606
vt -2.403445 2.295810
vt -4.797197 2.096895
vt -7.171603 1.766261
vt -9.389071 1.330403
vt -9.517086 1.305241
vt -11.824189 0.715695
vt -16.328819 0.000000
vt -14.083607 0.000000
vt -9.963746 5.812205
vt -9.417638 5.118110
vt -9.417638 5.812205
vt -9.963746 5.118110
vt -16.328819 8.298898
vt 16.328819 7.752790
vt 16.328819 8.298898
vt -16.328819 7.752790
vt 16.328819 5.118110
vt -16.328819 3.149606
vt 16.328819 3.149606
vt -16.328819 5.118110
vt 16.328819 5.812205
vt -16.328819 5.118110
vt 16.328819 5.118110
vt -16.328819 5.812205
vt 16.328819 5.118110
vt -16.328819 5.812205
vt -16.328819 5.118110
vt 16.328819 5.812205
vt 7.752790 5.118110
vt 8.298898 5.812205
vt 7.752790 5.812205
vt 8.298898 5.118110
vt -16.328819 9.281918
vt 16.328819 8.490849
vt 16.328819 9.281918
vt -16.328819 8.490849
vt -16.328819 9.963746
vt 16.328819 9.417638
vt 16.328819 9.963746
vt -16.328819 9.417638
vt -16.328819 9.417638
vt 16.328819 9.963746
vt -16.328819 9.963746
vt -16.328819 8.298898
vt -16.328819 7.752790
vt 16.328819 7.752790
vt 16.328819 3.708976
vt -16.328819 5.118110
vt -16.328819 3.708976
vt 16.328819 5.118110
vt 16.328819 3.708976
vt -16.328819 5.118110
vt -16.328819 3.708976
vt 16.328819 5.118110
vt 16.328819 5.118110
vt -16.328819 3.149606
vt 16.328819 3.149606
vt -16.328819 5.118110
vt -16.328819 -7.752790
vt 16.328819 -8.298898
vt 16.328819 -7.752790
vt -16.328819 -8.298898
vt 16.328819 -9.417638
vt -16.328819 -9.963746
vt 16.328819 -9.963746
vt -16.328819 -9.417638
vt -9.417638 5.118110
vt -9.963746 5.812205
vt -9.963746 5.118110
vt -9.417638 5.812205
vt 16.328819 5.812205
vt -16.328819 5.118110
vt 16.328819 5.118110
vt -16.328819 5.812205
vt 16.328819 8.490849
vt -16.328819 9.281918
vt -16.328819 8.490849
vt 16.328819 9.281918
vt 7.752790 5.812205
vt 8.298898 5.118110
vt 8.298898 5.812205
vt 7.752790 5.118110
vt 16.328819 5.118110
vt -16.328819 5.812205
vt -16.328819 5.118110
vt 16.328819 5.812205
vt -16.328819 -8.298898
vt -17.447559 8.298898
vt -17.447559 -8.298898
vt -16.328819 8.298898
vt -17.447559 -8.298898
vt -18.691023 8.298898
vt -18.691023 -8.298898
vt -17.447559 8.298898
vt -8.298898 1.968504
vt 8.298898 1.041620
vt 8.298898 1.968504
vt -8.298898 1.041620
vt -8.298898 1.041620
vt 8.298898 0.000000
vt 8.298898 1.041620
vt -8.298898 0.000000
vt -17.447559 1.041620
vt -18.691023 0.000000
vt -17.447559 0.000000
vt -18.691023 1.041620
vt -8.298898 1.968504
vt 8.298898 3.149606
vt -8.298898 3.149606
vt 8.298898 1.968504
vt 18.691023 1.041620
vt 17.447559 0.000000
vt 18.691023 0.000000
vt 17.447559 1.041620
vt -8.298898 3.149606
vt 8.298898 1.968504
vt 8.298898 3.149606
vt -8.298898 1.968504
vt -8.298898 5.118110
vt -7.752790 5.812205
vt -8.298898 5.812205
vt -7.752790 5.118110
vt -8.298898 5.812205
vt -7.752790 5.118110
vt -7.752790 5.812205
vt -8.298898 5.118110
vt 9.417638 5.118110
vt 9.963746 5.812205
vt 9.417638 5.812205
vt 9.963746 5.118110
vt 9.963746 5.812205
vt 9.417638 5.118110
vt 9.963746 5.118110
vt 9.417638 5.812205
vt -17.447559 1.041620
vt -18.691023 0.000000
vt -17.447559 0.000000
vt -18.691023 1.041620
vt 17.447559 -8.298898
vt 16.328819 8.298898
vt 16.328819 -8.298898
vt 17.447559 8.298898
vt 8.298898 0.000000
vt -8.298898 1.041620
vt -8.298898 0.000000
vt 8.298898 1.041620
vt 18.691023 -8.298898
vt 17.447559 8.298898
vt 17.447559 -8.298898
vt 18.691023 8.298898
vt 8.298898 1.041620
vt -8.298898 1.968504
vt -8.298898 1.041620
vt 8.298898 1.968504
vt 18.691023 1.041620
vt 17.447559 0.000000
vt 18.691023 0.000000
vt 17.447559 1.041620
vt 16.328819 -9.963746
vt -16.328819 -9.417638
vt -16.328819 -9.963746
vt 16.328819 -7.752790
vt -16.328819 -8.298898
vt -16.328819 -7.752790
vt 8.858268 -6.696305
vt -8.858268 -9.086667
vt 8.858268 -13.426133
vt -8.858268 -11.056072
vt -8.858268 -13.426133
vt 8.858268 -11.056072
vt 8.858268 -6.859468
vt -8.858268 -4.462152
vt -8.858268 -6.859468
vt 8.858268 -4.462152
vt -8.858268 0.065230
vt 8.858268 -2.339131
vt 8.858268 0.065230
vt -8.858268 -2.339131
vt -8.858268 -9.086667
vt 8.858268 -6.696305
vt 16.328819 8.858268
vt 16.328819 -8.858268
vt 14.083607 8.858268
vt 14.083607 -8.858268
vt 8.858268 -2.339131
vt -8.858268 0.065230
vt -8.858268 -2.339131
vt 8.858268 0.065230
vt -8.858268 -11.056072
vt 8.858268 -13.426133
vt 8.858268 -11.056072
vt -8.858268 -13.426133
vt 8.858268 -4.607070
vt -8.858268 -2.205068
vt -8.858268 -4.607070
vt 8.858268 -2.205068
vt 8.858268 -11.278881
vt -8.858268 -8.897644
vt -8.858268 -11.278881
vt 8.858268 -8.897644
vt -8.858268 -4.462152
vt 8.858268 -6.859468
vt 8.858268 -4.462152
vt -8.858268 -6.859468
vt -14.083607 8.858268
vt -14.083607 -8.858268
vt -8.858268 -2.205068
vt 8.858268 -4.607070
vt 8.858268 -2.205068
vt -8.858268 -4.607070
vt -8.858268 -8.897644
vt 8.858268 -11.278881
vt 8.858268 -8.897644
vt -8.858268 -11.278881
vt 16.328819 9.417638
vt 16.328819 8.298898
vt 16.328819 -8.298898
vt 16.328819 -9.417638
vt 17.447559 6.599607
vt 16.328819 1.968504
vt 17.447559 1.968504
vt 16.328819 5.812205
vt 16.328819 6.599607
vt -17.447559 0.000000
vt -16.328819 0.000000
vt -17.447559 6.599607
vt -16.328819 5.812205
vt -16.328819 6.599607
vt 17.447559 8.298898
vt 16.328819 9.417638
vt 16.328819 8.298898
vt 17.447559 9.417638
vt -9.417638 6.599607
vt -8.298898 5.812205
vt -8.298898 6.599607
vt -9.417638 5.812205
vt -8.298898 0.000000
vt -9.417638 6.599607
vt -9.417638 0.000000
vt -8.298898 6.599607
vt 17.447559 -9.417638
vt 16.328819 -8.298898
vt 16.328819 -9.417638
vt 17.447559 -8.298898
vt -8.858268 0.000000
vt -9.417638 3.708976
vt -9.417638 0.000000
vt -8.858268 3.149606
vt 9.417638 0.000000
vt 8.298898 0.000000
vt 8.298898 6.599607
vt 9.417638 6.599607
vt 17.447559 6.599607
vt 16.328819 1.968504
vt 17.447559 1.968504
vt 16.328819 5.812205
vt 16.328819 6.599607
vt 17.447559 6.599607
vt 16.328819 0.000000
vt 17.447559 0.000000
vt 16.328819 5.812205
vt 16.328819 6.599607
vt 9.417638 3.708976
vt 8.858268 0.000000
vt 9.417638 0.000000
vt 8.858268 3.149606
vt 9.417638 0.000000
vt 8.858268 3.149606
vt 8.858268 0.000000
vt 9.417638 3.708976
vt -17.447559 0.000000
vt -16.328819 0.000000
vt -17.447559 6.599607
vt -16.328819 5.812205
vt -16.328819 6.599607
vt 17.447559 6.599607
vt 16.328819 0.000000
vt 17.447559 0.000000
vt 16.328819 5.812205
vt 16.328819 6.599607
vt -16.328819 -9.417638
vt -17.447559 -8.298898
vt -17.447559 -9.417638
vt -16.328819 -8.298898
vt 8.298898 6.599607
vt 9.417638 0.000000
vt 9.417638 6.599607
vt 8.298898 0.000000
vt -16.328819 8.298898
vt -17.447559 9.417638
vt -17.447559 8.298898
vt -16.328819 9.417638
vt -9.417638 6.599607
vt -8.298898 6.599607
vt -8.298898 0.000000
vt -9.417638 0.000000
vt -9.417638 3.708976
vt -8.858268 0.000000
vt -8.858268 3.149606
vt -9.417638 0.000000
vt 9.417638 5.812205
vt 8.298898 6.599607
vt 8.298898 5.812205
vt 9.417638 6.599607
vt -8.298898 5.812205
vt -9.417638 6.599607
vt -9.417638 5.812205
vt -8.298898 6.599607
vt -17.447559 1.968504
vt -16.328819 1.968504
vt -17.447559 6.599607
vt -16.328819 5.812205
vt -16.328819 6.599607
vt -17.447559 1.968504
vt -16.328819 1.968504
vt -17.447559 6.599607
vt -16.328819 5.812205
vt -16.328819 6.599607
vt 8.298898 6.599607
vt 9.417638 5.812205
vt 9.417638 6.599607
vt 8.298898 5.812205
vn 0.1929 -0.9812 0.0000
vn -0.0000 1.0000 -0.0000
vn -0.1929 -0.9812 0.0000
vn 0.0000 -1.0000 0.0000
vn 0.0000 0.0000 1.0000
vn -0.0000 -0.0000 -1.0000
vn -1.0000 0.0000 0.0000
vn 1.0000 0.0000 0.0000
vn -0.0000 -0.7071 -0.7071
vn 0.0000 -0.7071 0.7071
vn 0.1420 -0.9899 0.0000
vn 0.1655 -0.9862 0.0000
vn 0.2473 -0.9689 0.0000
vn 0.2203 -0.9754 0.0000
vn 0.3020 -0.9533 0.0000
vn 0.2749 -0.9615 0.0000
vn 0.1104 -0.9939 0.0000
vn -0.0552 -0.9985 0.0000
vn -0.2473 -0.9689 0.0000
vn -0.2203 -0.9754 0.0000
vn -0.1420 -0.9899 0.0000
vn -0.1655 -0.9862 0.0000
vn 0.0552 -0.9985 0.0000
vn -0.2749 -0.9615 0.0000
vn -0.3020 -0.9533 0.0000
vn -0.1104 -0.9939 0.0000
vn -0.1374 -0.9905 0.0000
vn 0.0692 0.9976 0.0000
vn -0.0692 -0.9976 0.0000
vn -0.3015 -0.9045 0.3015
usemtl natureKit-stone
s off
f 31/1/1 1/2/1 2/3/1
f 2/3/1 18/4/1 31/1/1
f 124/5/2 68/6/2 56/7/2
f 68/6/2 124/5/2 66/8/2
f 36/9/3 8/10/3 9/11/3
f 9/11/3 26/12/3 36/9/3
f 10/13/4 11/14/4 109/15/4
f 11/14/4 10/13/4 12/16/4
f 12/16/4 10/13/4 114/17/4
f 114/17/4 10/13/4 103/18/4
f 14/19/4 11/14/4 12/16/4
f 11/14/4 14/19/4 67/20/4
f 27/21/5 16/22/5 28/23/5
f 16/22/5 27/21/5 19/24/5
f 16/22/5 19/24/5 8/25/5
f 8/25/5 19/24/5 9/26/5
f 9/26/5 19/24/5 24/27/5
f 24/27/5 19/24/5 25/28/5
f 25/28/5 19/24/5 20/29/5
f 20/29/5 19/24/5 21/30/5
f 21/30/5 19/24/5 22/31/5
f 22/31/5 15/32/5 21/30/5
f 22/31/5 17/33/5 15/32/5
f 22/31/5 1/34/5 17/33/5
f 22/31/5 2/35/5 1/34/5
f 22/31/5 3/36/5 2/35/5
f 22/31/5 4/37/5 3/36/5
f 22/31/5 23/38/5 4/37/5
f 23/38/5 22/31/5 13/39/5
f 77/40/4 86/41/4 78/42/4
f 86/41/4 77/40/4 87/43/4
f 108/44/4 104/45/4 97/46/4
f 27/47/4 104/45/4 108/44/4
f 38/48/4 104/45/4 27/47/4
f 104/45/4 38/48/4 91/49/4
f 50/50/6 29/51/6 30/52/6
f 29/51/6 50/50/6 5/53/6
f 5/53/6 50/50/6 18/54/6
f 18/54/6 50/50/6 31/55/6
f 31/55/6 50/50/6 32/56/6
f 32/56/6 50/50/6 33/57/6
f 33/57/6 50/50/6 34/58/6
f 34/58/6 50/50/6 6/59/6
f 35/60/6 6/59/6 50/50/6
f 35/60/6 7/61/6 6/59/6
f 35/60/6 40/62/6 7/61/6
f 35/60/6 26/63/6 40/62/6
f 35/60/6 36/64/6 26/63/6
f 35/60/6 37/65/6 36/64/6
f 35/60/6 41/66/6 37/65/6
f 38/67/6 41/66/6 35/60/6
f 41/66/6 38/67/6 39/68/6
f 47/69/7 51/70/7 111/71/7
f 51/70/7 47/69/7 52/72/7
f 42/73/4 73/74/4 74/75/4
f 73/74/4 42/73/4 43/76/4
f 42/77/5 68/78/5 66/79/5
f 68/78/5 42/77/5 74/80/5
f 49/81/5 73/82/5 43/83/5
f 73/82/5 49/81/5 44/84/5
f 52/85/6 45/86/6 46/87/6
f 45/86/6 52/85/6 47/88/6
f 43/89/8 48/90/8 49/91/8
f 48/90/8 43/89/8 42/92/8
f 90/93/9 50/94/9 110/95/9
f 50/94/9 90/93/9 35/96/9
f 46/97/4 51/98/4 52/99/4
f 51/98/4 46/97/4 92/100/4
f 111/101/2 45/102/2 47/103/2
f 45/102/2 111/101/2 72/104/2
f 45/102/2 72/104/2 44/105/2
f 45/102/2 44/105/2 49/106/2
f 110/107/6 92/108/6 90/109/6
f 92/108/6 110/107/6 51/110/6
f 53/111/5 57/112/5 102/113/5
f 57/112/5 53/111/5 54/114/5
f 55/115/6 124/116/6 56/117/6
f 124/116/6 55/115/6 125/118/6
f 71/119/4 55/120/4 59/121/4
f 55/120/4 71/119/4 125/122/4
f 57/123/4 58/124/4 76/125/4
f 58/124/4 57/123/4 54/126/4
f 54/127/8 60/128/8 58/129/8
f 60/128/8 54/127/8 107/130/8
f 89/131/6 71/132/6 59/133/6
f 71/132/6 89/131/6 88/134/6
f 19/135/10 102/136/10 22/137/10
f 102/136/10 19/135/10 53/138/10
f 89/139/7 55/140/7 120/141/7
f 55/140/7 89/139/7 59/142/7
f 58/143/5 75/144/5 76/145/5
f 75/144/5 58/143/5 60/146/5
f 106/147/2 61/148/2 116/149/2
f 61/148/2 106/147/2 69/150/2
f 65/151/2 64/152/2 62/153/2
f 64/152/2 65/151/2 63/154/2
f 61/155/7 65/156/7 116/157/7
f 65/156/7 61/155/7 63/158/7
f 64/159/7 14/160/7 62/161/7
f 14/160/7 64/159/7 67/162/7
f 65/163/5 14/164/5 12/165/5
f 14/164/5 65/163/5 62/166/5
f 80/167/8 66/168/8 124/169/8
f 66/168/8 80/167/8 79/170/8
f 64/171/6 11/172/6 67/173/6
f 11/172/6 64/171/6 63/174/6
f 68/175/7 106/176/7 56/177/7
f 106/176/7 68/175/7 69/178/7
f 125/179/8 88/180/8 70/181/8
f 88/180/8 125/179/8 71/182/8
f 72/183/7 73/184/7 44/185/7
f 73/184/7 72/183/7 74/186/7
f 92/187/8 45/188/8 93/189/8
f 45/188/8 92/187/8 46/190/8
f 75/191/7 57/192/7 76/193/7
f 57/192/7 75/191/7 122/194/7
f 83/195/6 77/196/6 78/197/6
f 77/196/6 83/195/6 82/198/6
f 98/199/2 79/200/2 80/201/2
f 79/200/2 98/199/2 81/202/2
f 77/203/8 85/204/8 87/205/8
f 85/204/8 77/203/8 82/206/8
f 85/207/2 83/208/2 84/209/2
f 83/208/2 85/207/2 82/210/2
f 83/211/8 98/212/8 84/213/8
f 98/212/8 83/211/8 81/214/8
f 85/215/5 86/216/5 87/217/5
f 86/216/5 85/215/5 84/218/5
f 60/219/2 122/220/2 75/221/2
f 122/220/2 60/219/2 88/222/2
f 88/222/2 120/223/2 122/220/2
f 120/223/2 88/222/2 89/224/2
s 1
f 1/2/11 31/1/1 32/225/12
f 18/4/13 2/3/1 3/226/14
f 29/227/15 4/228/16 23/229/15
f 4/228/16 29/227/15 5/230/16
f 32/231/12 17/232/17 1/233/11
f 17/232/17 32/231/12 33/234/17
f 6/235/4 20/236/18 21/237/4
f 20/236/18 6/235/4 7/238/18
f 8/10/19 36/9/3 37/239/20
f 26/12/21 9/11/3 24/240/22
f 103/18/2 10/13/2 30/241/2
f 103/18/4 30/241/4 13/242/4
f 13/242/4 30/241/4 29/243/4
f 13/242/4 29/243/4 23/244/4
f 34/245/23 21/246/4 15/247/23
f 21/246/4 34/245/23 6/248/4
f 41/249/24 28/250/25 16/251/24
f 28/250/25 41/249/24 39/252/25
f 33/253/17 15/254/23 17/255/17
f 15/254/23 33/253/17 34/256/23
f 5/257/16 3/258/14 4/259/16
f 3/258/14 5/257/16 18/260/13
f 40/261/26 24/262/22 25/263/26
f 24/262/22 40/261/26 26/264/21
f 97/46/4 78/42/4 86/41/4
f 97/46/2 104/45/2 78/42/2
f 27/47/4 39/265/4 38/48/4
f 39/265/4 27/47/4 28/266/4
f 7/267/18 25/268/26 20/269/18
f 25/268/26 7/267/18 40/270/26
f 37/271/20 16/272/24 8/273/19
f 16/272/24 37/271/20 41/274/24
f 45/102/8 49/106/8 93/275/8
f 93/275/27 49/106/27 48/276/27
f 88/222/28 60/219/28 70/277/28
f 70/277/29 60/219/29 107/278/29
usemtl natureKit-wood
s off
f 105/279/5 79/280/5 81/281/5
f 79/280/5 105/279/5 66/79/5
f 66/79/5 105/279/5 42/77/5
f 42/77/5 105/279/5 48/282/5
f 48/282/5 105/279/5 95/283/5
f 90/109/6 104/284/6 91/285/6
f 104/284/6 90/109/6 96/286/6
f 96/286/6 90/109/6 92/108/6
f 96/286/6 92/108/6 93/287/6
f 96/286/6 93/287/6 94/288/6
f 105/289/2 94/290/2 95/291/2
f 94/290/2 105/289/2 96/292/2
f 94/293/7 48/294/7 95/295/7
f 48/294/7 94/293/7 93/296/7
f 86/297/8 99/298/8 97/299/8
f 99/298/8 86/297/8 84/213/8
f 98/212/8 99/298/8 84/213/8
f 99/298/8 98/212/8 101/300/8
f 99/301/2 126/302/2 100/303/2
f 126/302/2 99/301/2 101/304/2
f 13/305/8 102/306/8 103/307/8
f 102/306/8 13/305/8 22/308/8
f 104/309/8 83/211/8 78/310/8
f 83/211/8 104/309/8 81/214/8
f 81/214/8 104/309/8 105/311/8
f 105/311/8 104/309/8 96/312/8
f 113/313/6 106/314/6 116/315/6
f 106/314/6 113/313/6 56/117/6
f 56/117/6 113/313/6 55/115/6
f 55/115/6 113/313/6 120/316/6
f 120/316/6 113/313/6 112/317/6
f 99/318/5 108/319/5 97/320/5
f 108/319/5 99/318/5 53/111/5
f 53/111/5 99/318/5 54/114/5
f 54/114/5 99/318/5 107/321/5
f 107/321/5 99/318/5 100/322/5
f 53/323/7 27/324/7 108/325/7
f 27/324/7 53/323/7 19/326/7
f 10/327/8 50/328/8 30/329/8
f 50/328/8 10/327/8 110/330/8
f 102/113/5 114/331/5 103/332/5
f 114/331/5 102/113/5 115/333/5
f 115/333/5 102/113/5 57/112/5
f 115/333/5 57/112/5 122/334/5
f 115/333/5 122/334/5 121/335/5
f 117/336/6 10/337/6 109/338/6
f 10/337/6 117/336/6 110/107/6
f 110/107/6 117/336/6 51/110/6
f 51/110/6 117/336/6 111/339/6
f 111/339/6 117/336/6 118/340/6
f 121/341/2 113/342/2 115/343/2
f 113/342/2 121/341/2 112/344/2
f 113/345/7 114/346/7 115/347/7
f 114/346/7 113/345/7 12/348/7
f 123/349/2 117/350/2 119/351/2
f 117/350/2 123/349/2 118/352/2
f 117/353/7 61/155/7 119/354/7
f 61/155/7 117/353/7 63/158/7
f 63/158/7 117/353/7 11/355/7
f 11/355/7 117/353/7 109/356/7
f 90/357/7 38/358/7 35/359/7
f 38/358/7 90/357/7 91/360/7
f 111/361/8 123/362/8 72/363/8
f 123/362/8 111/361/8 118/364/8
f 120/365/8 121/366/8 122/367/8
f 121/366/8 120/365/8 112/368/8
f 68/78/5 61/369/5 69/370/5
f 61/369/5 68/78/5 119/371/5
f 119/371/5 68/78/5 74/80/5
f 119/371/5 74/80/5 72/372/5
f 119/371/5 72/372/5 123/373/5
f 124/116/6 98/374/6 80/375/6
f 98/374/6 124/116/6 101/376/6
f 101/376/6 124/116/6 125/118/6
f 101/376/6 125/118/6 70/377/6
f 101/376/6 70/377/6 126/378/6
f 126/379/7 107/380/7 100/381/7
f 107/380/7 126/379/7 70/382/7
s 1
f 12/348/30 113/345/7 116/157/7
f 12/348/30 116/157/7 65/156/7
