# Blender v2.79 (sub 0) OBJ File: 'Fixing models.blend'
# www.blender.org
mtllib campfireStones_rocks.mtl
o campfireStones_rocks
v 1.890794 0.000000 0.838736
v 2.009046 0.000000 0.903334
v 1.745352 0.777510 0.295333
v 0.477753 0.498780 -1.553383
v 0.646414 0.065357 -1.216742
v 0.662499 0.498780 -1.873372
v 1.046830 0.071785 -1.919608
v 0.611105 -0.000000 -1.060772
v -1.237190 0.000000 0.156165
v -1.569420 0.000000 1.939534
v -1.199533 -0.000000 -0.875815
v -0.187126 -0.000000 -2.107159
v 0.611105 -0.000000 -0.754936
v 1.081790 -0.000000 -1.958389
v 1.412344 0.000000 0.577371
v 1.338191 0.000000 0.536863
v 1.014623 0.000000 2.408771
v 0.428539 0.000000 1.016992
v 0.102030 0.000000 2.522428
v 2.229019 -0.000000 -0.646960
v -2.558638 -0.000000 -1.046379
v -2.126662 0.000000 0.792960
v -2.350995 0.000000 1.105539
v -2.704190 0.000000 0.156165
v 2.199098 0.777510 0.137469
v 2.704190 0.000000 0.208190
v 1.936704 0.777510 0.399864
v 2.012307 0.777510 -0.198692
v -0.116511 -0.000000 -1.530386
v -0.303476 -0.000000 -0.875816
v -0.132342 0.162673 -1.918064
v -0.192111 0.173302 -1.737761
v 0.152501 0.498780 -1.982434
v -0.089926 -0.000000 -2.364850
v -0.317821 0.000000 2.442075
v -1.781659 0.777510 -1.247546
v -1.678191 -0.000000 -1.674438
v -1.825138 -0.000000 -1.779879
v -1.285276 0.320185 -1.186130
v -1.561850 0.777510 -1.089823
v -1.290271 0.274187 -1.080936
v -2.245945 0.248568 -0.443048
v -2.278147 0.202845 -0.467749
v -1.858724 0.248568 -0.443048
v -0.287702 0.000000 2.297415
v -0.215277 0.094405 1.707024
v -0.368428 0.223272 2.111527
v 1.797214 0.109657 0.722182
v 2.017199 0.112738 -0.552295
v 1.689762 0.718830 -0.879733
v 1.168255 0.000000 1.745014
v 0.879363 0.190382 1.500791
v 1.183584 0.498780 1.368051
v 1.745352 0.777510 -0.154791
v 1.436188 -0.000000 -0.516578
v 1.338191 -0.000000 -0.500462
v 2.078105 -0.000000 -0.622142
v -1.773647 0.238891 0.760606
v -2.315846 0.718830 0.334082
v -1.736945 0.718830 0.501321
v -1.667472 0.777510 -0.720040
v -1.591915 -0.000000 -0.312879
v -1.360325 -0.000000 -0.312879
v -2.099944 0.777510 -0.929261
v 1.159161 0.000000 0.535156
v -1.893991 0.498780 1.089263
v -0.134058 0.000000 1.558136
v 0.052994 0.718830 1.917048
v -1.296183 0.109197 0.830672
v -1.331619 0.498780 1.190083
v -0.883995 0.000000 1.254110
v -0.792224 0.631338 -1.960029
v -0.842660 -0.000000 -2.577536
v -0.537246 0.631338 -1.777070
v -2.038553 0.777510 -0.720040
v 1.578350 0.718830 -0.879733
v 0.999449 0.718830 -1.135279
v 1.211378 0.718830 -1.570046
v 1.330178 0.718830 -1.570046
v -2.315846 0.718830 0.245775
v -1.985117 0.718830 -0.188992
v -1.625533 0.718830 0.501321
v -2.704190 0.000000 0.626118
v -2.103917 0.718830 -0.188992
v -2.393062 -0.000000 -0.482103
v -1.625533 0.718830 0.286477
v -1.038886 0.777510 2.131768
v -1.552385 0.207959 1.709175
v -1.022818 0.777510 1.651613
v -1.189226 0.777510 1.792505
v -0.658019 0.777510 2.078518
v -0.602873 0.777510 1.813657
v -1.084755 0.166074 1.284511
v -0.894566 0.000000 1.264681
v -0.134010 0.000346 1.558349
v -1.286696 0.000000 2.577536
v -1.090220 0.631338 -1.348122
v -1.161435 0.631338 -1.590818
v -1.617495 0.000000 1.987609
v -1.693519 -0.000000 -1.726675
v -1.592889 0.498780 1.451353
v -1.380678 0.498780 1.100548
v -1.129591 0.000000 0.805886
v 1.967284 0.000000 1.498772
v 1.673544 0.000000 1.917028
v -1.237190 0.000000 0.767594
v -1.865204 0.243494 0.731567
v -1.796011 0.498780 0.952740
v 1.533363 0.498780 1.487126
v 1.375535 0.498780 0.938020
v 1.541290 0.498780 0.965657
v 1.592039 0.498780 1.403577
v -0.659766 0.631338 -1.348122
v -0.002712 0.718830 2.013534
v 0.487277 0.718830 1.499325
v 0.563754 0.718830 1.543478
v 2.078105 -0.000000 -1.224890
v 1.689762 0.718830 -1.094578
v 1.523379 -0.000000 -1.958389
v 1.526235 0.037347 -0.511566
v 0.999449 0.718830 -1.046972
v 1.005140 0.108054 -1.900014
v 0.592779 -0.000000 -1.029031
v 0.758206 -0.000000 -2.296767
v 0.591938 0.498780 -1.947159
v 0.093195 0.498780 -1.825205
v 1.291986 0.000000 1.928364
v 0.834308 0.718830 1.944398
v 0.835530 0.000000 1.251968
v 0.837740 0.000000 1.255243
v 0.774908 0.718830 2.047282
v 0.183349 0.718830 2.120956
vt 19.561472 -1.042557
vt 10.491386 -12.819610
vt 23.682941 -12.819610
vt 14.582091 -1.042557
vt 25.379004 12.837745
vt 27.661613 1.060692
vt 29.469707 1.060692
vt 25.809822 2.721685
vt 22.453196 12.837745
vt 19.212208 1.060692
vt 20.346014 1.060692
vt 3.962949 20.107340
vt -6.715488 8.330287
vt 7.203937 8.330287
vt -2.077067 20.107340
vt 16.427120 0.009085
vt 21.256966 8.277305
vt 15.935307 0.009085
vt 18.476513 1.092498
vt 28.823488 1.800281
vt 26.215015 8.277305
vt 29.330900 1.199053
vt -14.048860 14.860943
vt -14.234040 3.897659
vt -10.130164 3.897659
vt -15.233817 14.860943
vt -16.326933 4.894453
vt 11.861946 -16.828352
vt 12.003796 -16.970201
vt 15.157491 -10.813833
vt 4.264708 -32.769154
vt 16.601315 -10.300007
vt 17.265625 -34.586838
vt 16.601315 -2.095507
vt 21.059366 -26.025772
vt 21.361217 4.198391
vt 21.704466 -26.670872
vt 22.518925 22.468555
vt 11.307284 34.586838
vt 22.724607 23.169514
vt 18.253611 4.198391
vt 16.096016 11.752191
vt 4.072211 11.752191
vt 2.510963 28.275055
vt 1.563405 20.535589
vt 1.206671 31.732906
vt -7.954253 13.808117
vt -10.174042 30.819323
vt -8.200159 14.234040
vt -8.200159 10.130164
vt -19.271587 6.931737
vt -14.516070 26.278780
vt -20.441572 26.278780
vt -22.456566 -25.723778
vt -18.951632 -7.747492
vt -17.956612 6.715488
vt -17.956612 -7.203937
vt -15.676305 -23.415590
vt -15.554285 -7.181023
vt -13.614785 -32.322254
vt -11.241277 -16.843569
vt -11.211619 -16.799622
vt -5.750381 -13.646573
vt -1.369100 -33.847366
vt 1.798868 -20.907955
vt 3.860554 -30.828024
vt -17.336597 -25.875887
vt -27.885199 16.436260
vt -25.371746 -11.254642
vt -26.958517 -12.121455
vt -27.885199 8.348252
vt -36.286354 -2.793618
vt -29.910252 8.681273
vt -26.398140 -20.111378
vt 24.490744 23.883430
vt 32.111473 6.469141
vt 34.333263 14.040911
vt 28.536766 -10.640383
vt 31.546986 -14.834746
vt 36.286354 -8.401603
vt 36.286354 -2.095507
vt -6.939257 -14.085167
vt -15.945156 -2.308115
vt -20.066626 -14.085167
vt -10.784760 -2.308115
vt 25.987793 -5.365602
vt 23.420126 2.077067
vt 23.420126 -3.962949
vt 27.002287 2.666156
vt 29.508747 -1.844648
vt 20.948809 14.858982
vt 19.316515 4.279045
vt 21.713570 7.183238
vt 24.260208 7.005117
vt -23.356981 1.029564
vt -23.454758 -4.542039
vt -20.907988 -4.365842
vt -25.611879 1.029564
vt -25.569420 -7.238655
vt -29.265083 -7.238655
vt -30.967716 -1.161773
vt -29.104969 10.615279
vt -32.950470 -1.161773
vt -28.746529 2.220150
vt -23.013737 0.268193
vt -25.474693 10.615279
vt -20.838335 -1.156537
vt -20.276497 10.925128
vt -19.967770 2.656909
vt -16.523521 2.656909
vt -25.381437 4.474685
vt -22.531395 10.925128
vt 29.183615 9.398643
vt 31.395115 -2.378410
vt 33.822037 -2.378410
vt 23.291449 2.471483
vt 25.553339 9.398643
vt 6.879547 8.677356
vt 3.145120 20.454409
vt -0.976350 8.677356
vt 8.305517 20.454409
vt 9.191722 12.830504
vt 10.567408 13.527249
vt 28.231554 7.281013
vt 30.137375 0.108786
vt 30.569479 -0.588566
vt 24.941412 0.108786
vt 26.637426 7.281013
vt 16.360760 -2.644095
vt 12.070674 -13.607379
vt 18.109358 -13.607379
vt 9.885400 -10.202141
vt 13.477852 -2.644095
vt 12.023931 -8.555692
vt 15.242426 -16.823910
vt 13.393890 -8.555692
vt 8.908046 -15.633942
vt 8.959930 -16.823910
vt 23.417114 14.892636
vt 21.281376 5.369177
vt 27.009567 7.334591
vt -14.100563 -14.037381
vt -21.168039 -5.769163
vt -23.016575 -14.037381
vt -15.252454 -5.769163
vt -12.402411 -12.219605
vt 21.179195 14.097387
vt 27.067928 4.853531
vt 22.674185 14.097387
vt 25.908667 -1.780593
vt 22.386003 -10.048813
vt 29.548382 -10.048813
vt 17.660204 -6.892880
vt 20.950617 -1.780593
vt -23.446770 10.054713
vt -20.140985 -1.722339
vt -18.808348 -1.722339
vt -21.322367 -1.156634
vt -27.911770 -0.014685
vt -27.077044 10.054713
vt -30.922546 -1.722339
vt -28.870295 -1.722339
vt -32.529015 -8.623393
vt -21.320606 -4.909725
vt -28.610321 2.339891
vt -24.462526 -8.623393
vt -21.812328 5.288961
vt -23.799805 -2.030869
vt -17.392916 -4.008900
vt -22.375082 13.724736
vt -21.361217 1.947684
vt -18.253611 1.947684
vt -24.941412 5.712784
vt -27.354462 13.724736
vt -30.137375 5.712784
vt -16.972933 -1.672179
vt -14.629733 -10.376709
vt -14.190018 -9.684132
vt -15.248716 -13.449232
vt -23.139727 -13.449232
vt -19.898739 -1.672179
vt 10.289617 18.326502
vt 10.798914 10.058283
vt 13.580029 13.214215
vt 3.970452 18.326502
vt 0.217476 10.058283
vt 26.693068 -1.701672
vt 25.283281 -9.969891
vt 30.446043 -9.969891
vt 24.438169 -1.701672
vt 22.568386 -5.933515
vt 15.792049 6.574901
vt 5.315862 6.569628
vt 15.790538 6.569628
vt 9.234557 17.532913
vt -10.300007 7.890854
vt -6.727013 18.854139
vt -11.146426 9.556278
vt -2.095507 7.890854
vt -3.844106 18.854139
vt -33.294220 -2.061959
vt -28.884871 6.206261
vt -34.206528 -2.061959
vt -30.946857 1.385345
vt -23.926821 6.206261
vt -22.480448 0.691022
vt -20.287104 -2.061959
vt -20.487711 -2.061959
vt 23.970196 -2.304547
vt 18.524229 -12.884484
vt 29.350765 -12.884484
vt 16.447678 -10.158412
vt 19.759077 -2.304547
vt 11.107872 -4.091383
vt 0.429435 -15.868435
vt 14.348860 -15.868435
vt 5.067857 -4.091383
vt -27.354462 9.661906
vt -23.907314 16.740282
vt -28.178249 12.469346
vt -22.375082 9.661906
vt -20.957796 14.623861
vt 21.179195 11.804753
vt 13.411173 15.233817
vt 13.411173 14.048860
vt 16.254961 21.067766
vt 17.849087 21.067766
vt 22.674185 14.687660
vt 22.674185 11.804753
vt -23.307318 -6.727013
vt -31.075340 -3.297949
vt -31.075340 -4.482907
vt -28.231554 2.535999
vt -26.637426 2.535999
vt -21.812328 -3.844106
vt -21.812328 -6.727013
vt 4.482907 -6.284165
vt 2.095507 -17.247450
vt 8.401603 -17.247450
vt 3.297949 -6.284165
vt 10.090619 -4.103887
vt 17.783215 -15.067171
vt 16.580772 -4.103887
vt 8.255212 -15.067171
vt 7.752695 -11.973466
vt 8.342504 6.894484
vt 18.090309 17.857769
vt 10.091103 17.857769
vt 16.233625 6.894484
vt 19.786324 10.685542
vt 30.717611 4.347860
vt 24.795229 12.974937
vt 22.246506 3.713422
vt 27.721037 12.974937
vt 20.504660 -2.046471
vt 15.262140 -13.823524
vt 24.626129 -13.823524
vt 15.525280 -2.046471
vt 12.528705 -10.673548
vt -13.940363 -28.605268
vt -13.724755 -22.162289
vt -15.957717 -24.052851
vt -8.829675 -27.890734
vt -8.089701 -24.336676
vt -5.848537 9.349560
vt 7.374930 11.865097
vt -5.850169 9.354796
vt -1.213810 21.126612
vt 4.826206 21.126612
vt -12.606517 -3.004566
vt -21.888384 -14.781619
vt -8.761014 -14.781619
vt -17.766914 -3.004566
vt -21.477011 1.425799
vt -20.128197 -3.788485
vt -18.792618 -4.559325
vt -27.899981 -9.154139
vt -24.870947 1.425799
vt -28.630493 -9.154139
vt 1.307839 -11.543095
vt -8.764301 -19.811314
vt 6.629498 -19.811314
vt -5.011326 -11.543095
vt -4.074142 -8.859743
vt -16.461130 -19.439680
vt -0.314597 -19.439680
vt -11.080561 -8.859743
vt -8.853116 17.619827
vt -16.096016 7.039890
vt -4.072211 7.039890
vt -17.313589 11.634705
vt -14.629196 17.619827
vt -21.374294 -19.475082
vt -24.099905 -12.784405
vt -25.414654 -14.616343
vt -18.526724 -14.767783
vt -17.868423 -15.969212
vt -2.199963 10.855995
vt -5.418458 19.124214
vt -9.058173 10.855995
vt -4.048499 19.124214
vt -1.286468 -19.470840
vt -4.504962 -11.202622
vt -8.144678 -19.470840
vt -3.135003 -11.202622
vt 12.649014 10.775950
vt 10.654490 8.965807
vt 12.187018 8.965807
vt 12.503025 17.234026
vt 19.000288 12.925867
vt 20.288393 13.002183
vt 18.418610 17.234026
vt 20.575542 -19.955101
vt 18.457708 -12.586883
vt 15.882008 -18.357292
vt 20.681900 -12.957741
vt 21.362890 -18.833998
vt -14.629196 18.089869
vt -10.630506 26.300785
vt -15.584791 21.346498
vt -8.853116 18.089869
vt -7.209064 23.845737
vt 2.460275 -28.460196
vt 0.711099 -25.724043
vt -0.036395 -27.018742
vt 6.538563 -20.118792
vt 10.398157 -27.471592
vt 7.564767 -20.711271
vt 11.195221 -26.091038
vt -15.721957 15.214068
vt -18.109358 4.250784
vt -11.803263 4.250784
vt -16.906916 15.214068
vt 8.348252 -13.254253
vt 11.804753 -2.290970
vt 7.411009 -11.534826
vt 16.436260 -13.254253
vt 14.687660 -2.290970
vt -14.046962 -11.395868
vt -20.441572 -12.490699
vt -14.516070 -12.490699
vt -17.849087 -1.527414
vt -13.487537 -10.842709
vt -16.254961 -1.527414
vt -3.710836 -15.283907
vt 6.036970 -4.320623
vt -1.962237 -4.320623
vt 8.629455 -15.283907
vt 17.770145 6.277221
vt 5.066473 5.707615
vt 16.590641 5.707615
vt 8.985168 16.670898
vt -26.060083 11.043703
vt -18.476816 1.077213
vt -19.569931 11.043703
vt -28.827507 1.728409
vt -6.796349 17.584566
vt -13.129932 9.316346
vt -1.474690 9.316346
vt -15.564509 12.189159
vt -13.115514 17.584566
vt 0.088787 -10.247475
vt -7.675333 -18.515694
vt 3.741990 -18.515694
vt -5.826797 -10.247475
vt 6.410767 20.844172
vt 2.046354 26.601429
vt 1.250544 24.491631
vt 7.942970 26.128078
vt 8.889792 25.137968
vt -31.146563 0.049387
vt -21.399395 11.012671
vt -27.889547 11.012671
vt -28.178459 0.049387
vt -23.293575 2.953003
vt -20.196953 0.049387
vt -20.249971 0.049387
vt -13.740875 -13.285947
vt -18.592016 -2.322663
vt -21.184502 -13.285947
vt -16.997890 -2.322663
vt 6.923287 -5.081964
vt -2.824519 -16.045248
vt 9.515772 -16.045248
vt -1.075920 -5.081964
vt 14.962749 14.858982
vt 10.181844 4.279045
vt 21.922125 14.892636
vt 20.479897 3.703709
vt -20.524643 2.339891
vt -20.032154 -4.979939
vt -23.307318 5.288961
vt 17.960985 8.009453
vt 17.320236 17.532913
vt 5.089765 9.349560
vt 17.070847 16.670898
vn 0.6264 0.4639 0.6264
vn -0.4247 0.4639 0.7774
vn -0.8859 0.4639 -0.0000
vn 0.7010 0.5872 0.4047
vn -0.8798 0.4753 0.0000
vn 0.0000 -1.0000 0.0000
vn 0.7744 0.4639 -0.4303
vn 0.0000 1.0000 0.0000
vn 0.7699 0.5990 0.2199
vn -0.7574 0.5872 -0.2857
vn 0.8673 0.4639 0.1806
vn 0.1331 0.5872 -0.7985
vn 0.5165 0.4639 -0.7198
vn 0.8518 0.4639 0.2433
vn 0.0000 0.4753 -0.8798
vn -0.4399 0.4753 0.7619
vn 0.5850 0.5872 -0.5595
vn -0.7619 0.4753 -0.4399
vn 0.8041 0.5872 -0.0932
vn 0.0000 0.4753 0.8798
vn -0.2609 0.5872 0.7663
vn -0.1438 0.4639 -0.8741
vn -0.2442 0.4753 0.8453
vn 0.0000 0.4639 0.8859
vn -0.8500 0.4639 0.2494
vn -0.7392 0.5872 -0.3299
vn -0.6576 0.5872 -0.4720
vn -0.6099 0.4753 -0.6341
vn 0.8798 0.4753 0.0000
vn 0.5724 0.5872 0.5724
vn 0.4668 0.5990 -0.6506
vn -0.6264 0.4639 -0.6264
vn -0.7909 0.4753 -0.3855
vn 0.7017 0.4753 -0.5307
vn -0.5724 0.4639 -0.6761
vn -0.8099 0.4639 0.3589
vn 0.3188 0.4639 -0.8265
vn 0.3189 0.4639 -0.8265
vn 0.1227 0.4639 0.8773
vn -0.7683 0.5990 0.2255
vn -0.6224 0.5872 0.5176
vn -0.5662 0.5990 -0.5662
vn 0.0000 0.5990 0.8007
vn 0.7099 0.5872 -0.3890
vn 0.6624 0.5872 0.4652
vn 0.2714 0.5872 -0.7626
vn 0.4399 0.4753 -0.7619
vn -0.4672 0.5872 0.6610
vn 0.0648 0.5872 -0.8069
vn 0.7293 0.4753 -0.4922
vn 0.7293 0.4753 -0.4921
vn 0.7619 0.4753 0.4399
vn 0.1087 0.4753 0.8731
vn -0.6215 0.4762 -0.6220
vn -0.6912 0.4790 -0.5411
vn -0.1771 0.4783 0.8602
vn -0.0794 0.4785 0.8745
vn -0.1230 0.4790 0.8692
vn -0.2155 0.4769 0.8521
usemtl natureKit-stone
s off
f 25/1/1 2/2/1 26/3/1
f 2/2/1 25/1/1 27/4/1
f 27/5/2 1/6/2 2/7/2
f 1/6/2 27/5/2 48/8/2
f 3/9/2 48/8/2 27/5/2
f 16/10/2 48/8/2 3/9/2
f 48/8/2 16/10/2 15/11/2
f 3/12/3 56/13/3 16/14/3
f 56/13/3 3/12/3 54/15/3
f 8/16/4 4/17/4 123/18/4
f 4/17/4 8/16/4 5/19/4
f 4/17/4 5/19/4 122/20/4
f 4/17/4 122/20/4 6/21/4
f 6/21/4 122/20/4 7/22/4
f 121/23/5 8/24/5 13/25/5
f 8/24/5 121/23/5 77/26/5
f 8/24/5 77/26/5 5/27/5
f 71/28/6 94/29/6 103/30/6
f 35/31/6 103/30/6 94/29/6
f 35/31/6 106/32/6 103/30/6
f 96/33/6 106/32/6 35/31/6
f 96/33/6 9/34/6 106/32/6
f 10/35/6 9/34/6 96/33/6
f 10/35/6 62/36/6 9/34/6
f 62/36/6 10/35/6 99/37/6
f 37/38/6 62/36/6 99/37/6
f 37/38/6 73/39/6 62/36/6
f 73/39/6 37/38/6 100/40/6
f 62/36/6 73/39/6 63/41/6
f 63/41/6 73/39/6 11/42/6
f 11/42/6 73/39/6 30/43/6
f 30/43/6 73/39/6 12/44/6
f 30/43/6 12/44/6 29/45/6
f 29/45/6 12/44/6 34/46/6
f 29/45/6 34/46/6 123/47/6
f 123/47/6 34/46/6 124/48/6
f 123/47/6 124/48/6 8/49/6
f 8/49/6 124/48/6 13/50/6
f 13/50/6 124/48/6 55/51/6
f 55/51/6 124/48/6 14/52/6
f 55/51/6 14/52/6 119/53/6
f 105/54/6 55/51/6 119/53/6
f 105/54/6 15/55/6 55/51/6
f 15/55/6 56/56/6 55/51/6
f 56/56/6 15/55/6 16/57/6
f 51/58/6 15/55/6 105/54/6
f 15/55/6 51/58/6 65/59/6
f 17/60/6 65/59/6 51/58/6
f 17/60/6 130/61/6 65/59/6
f 17/60/6 129/62/6 130/61/6
f 17/60/6 18/63/6 129/62/6
f 19/64/6 18/63/6 17/60/6
f 19/64/6 67/65/6 18/63/6
f 45/66/6 67/65/6 19/64/6
f 35/31/6 67/65/6 45/66/6
f 35/31/6 94/29/6 67/65/6
f 17/60/6 51/58/6 127/67/6
f 105/54/6 119/53/6 117/68/6
f 105/54/6 117/68/6 1/69/6
f 1/69/6 117/68/6 2/70/6
f 2/70/6 117/68/6 57/71/6
f 2/70/6 57/71/6 26/72/6
f 26/72/6 57/71/6 20/73/6
f 104/74/6 105/54/6 1/69/6
f 38/75/6 85/76/6 21/77/6
f 85/76/6 38/75/6 22/78/6
f 99/37/6 22/78/6 38/75/6
f 22/78/6 99/37/6 23/79/6
f 99/37/6 38/75/6 37/38/6
f 83/80/6 85/76/6 22/78/6
f 85/76/6 83/80/6 24/81/6
f 20/82/7 25/83/7 26/84/7
f 25/83/7 20/82/7 28/85/7
f 27/86/8 54/87/8 3/88/8
f 54/87/8 27/86/8 28/89/8
f 28/89/8 27/86/8 25/90/8
f 74/91/9 29/92/9 32/93/9
f 74/91/9 32/93/9 31/94/9
f 126/95/10 31/96/10 32/97/10
f 31/96/10 126/95/10 33/98/10
f 31/96/10 33/98/10 12/99/10
f 12/99/10 33/98/10 34/100/10
f 45/101/11 91/102/11 35/103/11
f 91/102/11 45/101/11 47/104/11
f 91/102/11 46/105/11 92/106/11
f 92/106/11 46/105/11 95/107/11
f 110/108/12 15/109/12 65/110/12
f 15/109/12 110/108/12 48/111/12
f 48/111/12 110/108/12 111/112/12
f 36/113/13 37/114/13 38/115/13
f 37/114/13 36/113/13 39/116/13
f 39/116/13 36/113/13 40/117/13
f 11/118/14 61/119/14 63/120/14
f 61/119/14 11/118/14 40/121/14
f 40/121/14 11/118/14 41/122/14
f 40/121/14 41/122/14 39/123/14
f 84/124/15 42/125/15 43/126/15
f 42/125/15 84/124/15 44/127/15
f 44/127/15 84/124/15 81/128/15
f 132/129/16 45/130/16 19/131/16
f 45/130/16 132/129/16 47/132/16
f 47/132/16 132/129/16 114/133/16
f 6/134/17 124/135/17 125/136/17
f 124/135/17 6/134/17 7/137/17
f 124/135/17 7/137/17 14/138/17
f 114/139/18 46/140/18 47/141/18
f 1/142/19 112/143/19 104/144/19
f 112/143/19 1/142/19 111/145/19
f 111/145/19 1/142/19 48/146/19
f 76/147/20 49/148/20 50/149/20
f 109/150/21 51/151/21 105/152/21
f 51/151/21 109/150/21 52/153/21
f 52/153/21 109/150/21 53/154/21
f 54/155/22 55/156/22 56/157/22
f 55/156/22 54/155/22 120/158/22
f 120/158/22 54/155/22 49/159/22
f 28/160/22 49/159/22 54/155/22
f 20/161/22 49/159/22 28/160/22
f 49/159/22 20/161/22 57/162/22
f 83/163/23 107/164/23 59/165/23
f 107/164/23 83/163/23 22/166/23
f 82/167/20 58/168/20 69/169/20
f 61/170/24 62/171/24 63/172/24
f 62/171/24 61/170/24 44/173/24
f 75/174/24 44/173/24 61/170/24
f 44/173/24 75/174/24 42/175/24
f 75/176/25 43/177/25 42/178/25
f 43/177/25 75/176/25 85/179/25
f 85/179/25 75/176/25 21/180/25
f 21/180/25 75/176/25 64/181/25
f 53/182/26 130/183/26 52/184/26
f 130/183/26 53/182/26 110/185/26
f 130/183/26 110/185/26 65/186/26
f 66/187/27 22/188/27 23/189/27
f 22/188/27 66/187/27 108/190/27
f 22/188/27 108/190/27 107/191/27
f 95/192/28 18/193/28 67/194/28
f 18/193/28 95/192/28 115/195/28
f 106/196/29 82/197/29 69/198/29
f 82/197/29 106/196/29 9/199/29
f 82/197/29 9/199/29 86/200/29
f 10/201/30 101/202/30 99/203/30
f 101/202/30 10/201/30 88/204/30
f 101/202/30 88/204/30 70/205/30
f 70/205/30 88/204/30 93/206/30
f 70/205/30 93/206/30 71/207/30
f 71/207/30 93/206/30 94/208/30
f 72/209/31 12/210/31 73/211/31
f 12/210/31 72/209/31 31/212/31
f 31/212/31 72/209/31 74/213/31
f 64/214/32 38/215/32 21/216/32
f 38/215/32 64/214/32 36/217/32
f 75/218/8 36/219/8 64/220/8
f 36/219/8 75/218/8 61/221/8
f 36/219/8 61/221/8 40/222/8
f 76/223/8 77/224/8 121/225/8
f 77/224/8 76/223/8 78/226/8
f 78/226/8 76/223/8 79/227/8
f 79/227/8 76/223/8 118/228/8
f 118/228/8 76/223/8 50/229/8
f 60/230/8 80/231/8 59/232/8
f 80/231/8 60/230/8 84/233/8
f 84/233/8 60/230/8 81/234/8
f 81/234/8 60/230/8 86/235/8
f 86/235/8 60/230/8 82/236/8
f 59/237/5 24/238/5 83/239/5
f 24/238/5 59/237/5 80/240/5
f 84/241/33 24/242/33 80/243/33
f 24/242/33 84/241/33 85/244/33
f 85/244/33 84/241/33 43/245/33
f 9/246/34 81/247/34 86/248/34
f 81/247/34 9/246/34 62/249/34
f 81/247/34 62/249/34 44/250/34
f 88/251/35 89/252/35 93/253/35
f 89/252/35 88/251/35 90/254/35
f 87/255/36 10/256/36 96/257/36
f 10/256/36 87/255/36 90/258/36
f 10/256/36 90/258/36 88/259/36
f 87/260/8 89/261/8 90/262/8
f 89/261/8 87/260/8 91/263/8
f 89/261/8 91/263/8 92/264/8
f 67/265/37 93/266/37 95/267/37
f 95/267/38 93/266/38 92/268/38
f 92/268/38 93/266/38 89/269/38
f 91/270/39 96/271/39 35/272/39
f 96/271/39 91/270/39 87/273/39
f 97/274/40 39/275/40 41/276/40
f 39/275/40 97/274/40 37/277/40
f 37/277/40 97/274/40 98/278/40
f 37/277/40 98/278/40 100/279/40
f 101/280/41 23/281/41 99/282/41
f 23/281/41 101/280/41 66/283/41
f 98/284/42 73/285/42 100/286/42
f 73/285/42 98/284/42 72/287/42
f 113/288/43 11/289/43 30/290/43
f 11/289/43 113/288/43 41/291/43
f 41/291/43 113/288/43 97/292/43
f 101/293/8 108/294/8 66/295/8
f 108/294/8 101/293/8 102/296/8
f 102/296/8 101/293/8 70/297/8
f 103/298/44 70/299/44 71/300/44
f 70/299/44 103/298/44 102/301/44
f 104/302/45 109/303/45 105/304/45
f 109/303/45 104/302/45 112/305/45
f 69/306/46 103/307/46 106/308/46
f 103/307/46 69/306/46 102/309/46
f 102/309/46 69/306/46 58/310/46
f 102/309/46 58/310/46 107/311/46
f 102/309/46 107/311/46 108/312/46
f 109/313/8 110/314/8 53/315/8
f 110/314/8 109/313/8 111/316/8
f 111/316/8 109/313/8 112/317/8
f 97/318/8 72/319/8 98/320/8
f 72/319/8 97/318/8 113/321/8
f 72/319/8 113/321/8 74/322/8
f 132/323/8 68/324/8 114/325/8
f 68/324/8 132/323/8 115/326/8
f 115/326/8 132/323/8 131/327/8
f 115/326/8 131/327/8 116/328/8
f 116/328/8 131/327/8 128/329/8
f 115/330/47 129/331/47 18/332/47
f 129/331/47 115/330/47 116/333/47
f 57/334/29 50/335/29 49/336/29
f 50/335/29 57/334/29 117/337/29
f 50/335/29 117/337/29 118/338/29
f 7/339/15 119/340/15 14/341/15
f 119/340/15 7/339/15 79/342/15
f 79/342/15 7/339/15 122/343/15
f 79/342/15 122/343/15 78/344/15
f 117/345/34 79/346/34 118/347/34
f 79/346/34 117/345/34 119/348/34
f 120/349/23 13/350/23 55/351/23
f 13/350/23 120/349/23 121/352/23
f 78/353/33 5/354/33 77/355/33
f 5/354/33 78/353/33 122/356/33
f 4/357/48 29/358/48 123/359/48
f 29/358/48 4/357/48 32/360/48
f 32/360/48 4/357/48 126/361/48
f 33/362/49 124/363/49 34/364/49
f 124/363/49 33/362/49 125/365/49
f 4/366/8 33/367/8 126/368/8
f 33/367/8 4/366/8 125/369/8
f 125/369/8 4/366/8 6/370/8
f 127/371/50 116/372/50 128/373/50
f 116/372/51 127/371/51 51/374/51
f 116/372/50 51/374/50 52/375/50
f 116/372/50 52/375/50 129/376/50
f 129/376/51 52/375/51 130/377/51
f 127/378/52 131/379/52 17/380/52
f 131/379/52 127/378/52 128/381/52
f 131/382/53 19/383/53 17/384/53
f 19/383/53 131/382/53 132/385/53
s 1
f 29/92/9 113/386/9 30/387/9
f 113/386/9 29/92/9 74/91/9
f 91/102/11 47/104/11 46/105/11
f 46/140/54 114/139/18 68/388/55
f 49/148/20 76/147/56 120/389/57
f 60/390/58 107/164/23 58/391/59
f 59/165/23 107/164/23 60/390/58
f 58/168/59 82/167/20 60/392/58
f 115/195/28 95/192/28 46/393/54
f 115/195/28 46/393/54 68/394/55
f 93/266/38 67/265/38 94/395/38
f 121/352/23 120/349/57 76/396/56
