# Blender v2.79 (sub 0) OBJ File: 'Fixing models.blend'
# www.blender.org
mtllib campfire_small.mtl
o campfire_small
v 0.814472 0.375599 1.459261
v -0.814472 -0.000000 -1.459261
v 0.814471 -0.000000 -1.459262
v -0.814471 0.000000 1.459262
v -0.814471 0.375599 1.459261
v -1.459261 0.000000 0.814472
v 1.398063 0.000000 0.396465
v 1.398063 0.625998 -0.396466
v -1.398063 0.625998 0.396466
v -1.398063 -0.000000 -0.396465
v 0.396466 0.625998 1.398063
v -0.396465 0.000000 1.398063
v -0.814472 0.375599 -1.459261
v 0.814472 0.000000 1.459261
v -0.396465 0.000000 1.041255
v 0.396465 -0.000000 -1.041255
v 1.041255 -0.000000 -0.396466
v 1.041255 0.000000 0.396465
v 0.396466 0.000000 1.398063
v 0.396465 -0.000000 -1.398063
v -0.396466 -0.000000 -1.398063
v -1.041255 -0.000000 -0.396465
v -1.459262 -0.000000 -0.814471
v -1.398063 0.000000 0.396466
v -1.459262 0.375599 -0.814471
v -1.041255 0.312072 -0.396465
v -1.459261 0.375599 0.814472
v 1.459262 0.375599 0.814471
v 1.459262 0.000000 0.814471
v 1.041255 0.312072 0.396465
v 1.459261 0.375599 -0.814472
v 1.459261 -0.000000 -0.814472
v 0.396466 0.263076 0.396465
v 0.814471 0.375599 -1.459262
v 1.041255 0.312072 -0.396466
v 0.396465 0.263076 -0.396466
v 1.398063 -0.000000 -0.396466
v -0.396465 0.312073 1.041255
v -0.396465 0.446608 0.396465
v -1.041255 0.312072 0.396466
v -0.396465 0.263076 0.396465
v -1.041255 0.000000 0.396466
v -1.398063 0.625998 -0.396466
v -0.396466 0.263076 -0.396466
v 1.398063 0.625998 0.396465
v 0.396466 0.446608 0.396465
v -0.000000 0.375599 -0.000000
v -0.396465 0.625998 1.398063
v 0.396465 0.446608 -0.396466
v 0.396465 0.312072 -1.041256
v -0.396466 0.625998 -1.398063
v -0.396466 0.312072 -1.041255
v -0.396466 -0.000000 -1.041255
v 0.396466 0.000000 1.041255
v 0.396466 0.312073 1.041255
v -0.396466 0.446608 -0.396466
v 0.396465 0.625998 -1.398063
vt 4.301181 3.543307
vt -4.301181 0.000000
vt 4.301181 0.000000
vt -4.301181 3.543307
vt 4.301181 3.543307
vt -4.301181 0.000000
vt 4.301181 0.000000
vt -4.301181 3.543307
vt 4.301181 0.000000
vt -4.301181 3.543307
vt -4.301181 0.000000
vt 4.301181 3.543307
vt -4.301181 3.543307
vt 4.301181 0.000000
vt 4.301181 3.543307
vt -4.301181 0.000000
vt 3.740157 0.000000
vt -3.740157 5.905512
vt -3.740157 0.000000
vt 3.740157 5.905512
vt -3.740157 5.905512
vt 3.740157 0.000000
vt 3.740157 5.905512
vt -3.740157 0.000000
vt 3.740157 5.905512
vt -3.740157 0.000000
vt 3.740157 0.000000
vt -3.740157 5.905512
vt 3.740157 5.905512
vt -3.740157 0.000000
vt 3.740157 0.000000
vt -3.740157 5.905512
vt 15.167323 0.000000
vt 9.590563 2.944013
vt 9.590563 0.000000
vt 15.167323 3.543307
vt 9.590563 2.944013
vt 15.167323 0.000000
vt 15.167323 3.543307
vt 9.590563 0.000000
vt -9.590563 2.944013
vt -15.167323 0.000000
vt -9.590563 0.000000
vt -15.167323 3.543307
vt -9.590563 2.944013
vt -15.167323 0.000000
vt -9.590563 0.000000
vt -15.167323 3.543307
vt -13.766311 7.683523
vt -9.822946 3.740157
vt -7.683523 13.766311
vt -9.822947 -3.740158
vt -13.188976 3.740157
vt -13.188976 -3.740158
vt -7.683523 -13.766311
vt -3.740157 -9.822947
vt -3.740157 9.822947
vt -13.766311 -7.683523
vt 3.740157 -13.188976
vt -3.740157 13.188976
vt -3.740157 -13.188976
vt 3.740157 -9.822947
vt 3.740157 9.822947
vt 3.740157 13.188976
vt 7.683523 13.766311
vt 7.683523 -13.766311
vt 9.822946 -3.740157
vt 9.822947 3.740158
vt 13.766311 7.683523
vt 13.766311 -7.683523
vt 13.188976 3.740158
vt 13.188976 -3.740157
vt -15.167323 3.543307
vt -9.590563 0.000000
vt -9.590563 2.944013
vt -15.167323 0.000000
vt 15.167323 3.543307
vt 9.590562 0.000000
vt 15.167323 0.000000
vt 9.590562 2.944013
vt -9.590563 0.000000
vt -15.167323 3.543307
vt -15.167323 0.000000
vt -9.590563 2.944013
vt 15.167323 3.543307
vt 9.590562 0.000000
vt 15.167323 0.000000
vt 9.590562 2.944013
vt 4.301181 15.459090
vt 0.000000 5.524276
vt 4.301181 9.850221
vt -4.301181 9.850222
vt -4.301181 15.459090
vt -4.301181 9.850222
vt 4.301181 15.459090
vt -4.301181 15.459090
vt 0.000000 5.524276
vt 4.301181 9.850221
vt 4.301181 9.850221
vt -4.301181 9.850221
vt 0.000000 5.524276
vt -4.301181 15.459090
vt 4.301181 15.459090
vt -3.740157 4.213186
vt -9.822946 2.944013
vt -3.740157 2.481797
vt -13.188976 5.905512
vt -13.188976 0.000000
vt -9.822946 0.000000
vt -4.301181 15.459090
vt 4.301181 9.850221
vt 4.301181 15.459090
vt 0.000000 5.524276
vt -3.740157 4.213186
vt -9.822946 2.944013
vt -3.740157 2.481797
vt -13.188976 5.905512
vt -13.188976 0.000000
vt -9.822946 0.000000
vt 13.188976 5.905512
vt 9.822947 0.000000
vt 13.188976 0.000000
vt 9.822947 2.944013
vt 3.740158 4.213186
vt 3.740158 2.481797
vt 13.188976 5.905512
vt 9.822947 0.000000
vt 13.188976 0.000000
vt 9.822947 2.944013
vt 3.740158 4.213186
vt 3.740158 2.481797
vt 13.188976 5.905512
vt 9.822947 2.944013
vt 13.188976 0.000000
vt 3.740157 4.213186
vt 3.740157 2.481797
vt 9.822947 0.000000
vt 3.740157 2.481797
vt 13.188976 5.905512
vt 3.740157 4.213186
vt 9.822947 2.944013
vt 9.822947 0.000000
vt 13.188976 0.000000
vt -13.188976 5.905512
vt -3.740158 2.481797
vt -3.740158 4.213186
vt -9.822947 2.944013
vt -9.822947 0.000000
vt -13.188976 0.000000
vt -9.822947 0.000000
vt -13.188976 5.905512
vt -13.188976 0.000000
vt -9.822947 2.944013
vt -3.740158 4.213186
vt -3.740158 2.481797
vt 3.740157 4.424355
vt -3.740157 14.023529
vt -3.740157 4.424355
vt 3.740157 14.023529
vt -3.740157 4.424355
vt 3.740157 14.023529
vt -3.740157 14.023529
vt 3.740157 4.424355
vt -3.740157 14.023529
vt 3.740157 4.424355
vt 3.740157 14.023529
vt -3.740157 4.424355
vt 3.740157 14.023529
vt -3.740157 4.424355
vt 3.740157 4.424355
vt -3.740157 14.023529
vt 3.740157 -3.740158
vt -3.740157 3.740158
vt -3.740157 -3.740157
vt 3.740157 3.740157
vt -4.301181 9.850221
vt 0.000000 0.624682
vn 0.7071 0.0000 0.7071
vn -0.7071 0.0000 -0.7071
vn 0.7071 -0.0000 -0.7071
vn -0.7071 0.0000 0.7071
vn 1.0000 -0.0000 0.0000
vn -1.0000 0.0000 0.0000
vn 0.0000 0.0000 1.0000
vn 0.0000 -0.0000 -1.0000
vn 0.0000 -1.0000 0.0000
vn -0.0756 0.9943 -0.0756
vn 0.0756 0.9943 0.0756
vn -0.0756 0.9943 0.0756
vn 0.0756 0.9943 -0.0756
vn 0.0000 0.9843 0.1763
vn 0.1763 0.9843 -0.0000
vn 0.0000 0.9843 -0.1763
vn -0.1763 0.9843 -0.0000
vn -0.0000 1.0000 -0.0000
vn -0.0888 0.9921 0.0888
vn -0.0888 0.9921 -0.0888
vn 0.0888 0.9921 0.0888
vn 0.0888 0.9921 -0.0888
usemtl natureKit-woodLight
s off
f 28/1/1 14/2/1 29/3/1
f 14/2/1 28/1/1 1/4/1
f 25/5/2 2/6/2 23/7/2
f 2/6/2 25/5/2 13/8/2
f 3/9/3 31/10/3 32/11/3
f 31/10/3 3/9/3 34/12/3
f 27/13/4 4/14/4 5/15/4
f 4/14/4 27/13/4 6/16/4
f 37/17/5 45/18/5 7/19/5
f 45/18/5 37/17/5 8/20/5
f 43/21/6 24/22/6 9/23/6
f 24/22/6 43/21/6 10/24/6
f 11/25/7 12/26/7 19/27/7
f 12/26/7 11/25/7 48/28/7
f 51/29/8 20/30/8 21/31/8
f 20/30/8 51/29/8 57/32/8
usemtl natureKit-wood
f 2/33/3 52/34/3 53/35/3
f 52/34/3 2/33/3 13/36/3
f 55/37/4 14/38/4 1/39/4
f 14/38/4 55/37/4 54/40/4
f 38/41/1 4/42/1 15/43/1
f 4/42/1 38/41/1 5/44/1
f 50/45/2 3/46/2 16/47/2
f 3/46/2 50/45/2 34/48/2
f 32/49/9 17/50/9 3/51/9
f 18/52/9 3/51/9 17/50/9
f 37/53/9 18/52/9 17/50/9
f 18/52/9 37/53/9 7/54/9
f 14/55/9 3/51/9 18/52/9
f 54/56/9 3/51/9 14/55/9
f 3/51/9 54/56/9 16/57/9
f 14/55/9 18/52/9 29/58/9
f 12/59/9 20/60/9 19/61/9
f 15/62/9 20/60/9 12/59/9
f 53/63/9 20/60/9 15/62/9
f 20/60/9 53/63/9 21/64/9
f 15/62/9 2/65/9 53/63/9
f 4/66/9 2/65/9 15/62/9
f 42/67/9 2/65/9 4/66/9
f 22/68/9 2/65/9 42/67/9
f 2/65/9 22/68/9 23/69/9
f 4/66/9 6/70/9 42/67/9
f 42/67/9 10/71/9 22/68/9
f 10/71/9 42/67/9 24/72/9
f 25/73/4 22/74/4 26/75/4
f 22/74/4 25/73/4 23/76/4
f 27/77/2 42/78/2 6/79/2
f 42/78/2 27/77/2 40/80/2
f 18/81/3 28/82/3 29/83/3
f 28/82/3 18/81/3 30/84/3
f 31/85/1 17/86/1 32/87/1
f 17/86/1 31/85/1 35/88/1
f 1/89/10 33/90/10 55/91/10
f 33/90/10 1/89/10 30/92/10
f 30/92/10 1/89/10 28/93/10
f 26/94/11 13/95/11 25/96/11
f 13/95/11 26/94/11 44/97/11
f 13/95/11 44/97/11 52/98/11
f 35/99/12 50/100/12 36/101/12
f 50/100/12 35/99/12 34/102/12
f 34/102/12 35/99/12 31/103/12
f 49/104/8 35/105/8 36/106/8
f 8/107/8 35/105/8 49/104/8
f 37/108/8 35/105/8 8/107/8
f 35/105/8 37/108/8 17/109/8
f 5/110/13 40/111/13 27/112/13
f 40/111/13 5/110/13 41/113/13
f 39/114/7 40/115/7 41/116/7
f 9/117/7 40/115/7 39/114/7
f 24/118/7 40/115/7 9/117/7
f 40/115/7 24/118/7 42/119/7
f 43/120/8 22/121/8 10/122/8
f 22/121/8 43/120/8 26/123/8
f 26/123/8 43/120/8 56/124/8
f 56/124/8 44/125/8 26/123/8
f 45/126/7 18/127/7 7/128/7
f 18/127/7 45/126/7 30/129/7
f 30/129/7 45/126/7 46/130/7
f 46/130/7 33/131/7 30/129/7
f 48/132/6 38/133/6 12/134/6
f 38/133/6 48/132/6 39/135/6
f 38/133/6 39/135/6 41/136/6
f 15/137/6 12/134/6 38/133/6
f 36/138/5 57/139/5 49/140/5
f 57/139/5 36/138/5 50/141/5
f 57/139/5 50/141/5 16/142/5
f 57/139/5 16/142/5 20/143/5
f 51/144/6 44/145/6 56/146/6
f 44/145/6 51/144/6 52/147/6
f 52/147/6 51/144/6 53/148/6
f 53/148/6 51/144/6 21/149/6
f 54/150/5 11/151/5 19/152/5
f 11/151/5 54/150/5 55/153/5
f 11/151/5 55/153/5 46/154/5
f 46/154/5 55/153/5 33/155/5
f 49/156/14 51/157/14 56/158/14
f 51/157/14 49/156/14 57/159/14
f 39/160/15 43/161/15 9/162/15
f 43/161/15 39/160/15 56/163/15
f 11/164/16 39/165/16 48/166/16
f 39/165/16 11/164/16 46/167/16
f 45/168/17 49/169/17 46/170/17
f 49/169/17 45/168/17 8/171/17
f 46/172/18 56/173/18 39/174/18
f 56/173/18 46/172/18 49/175/18
s 1
f 19/61/18 16/57/18 54/56/18
f 19/61/9 20/60/9 16/57/9
f 41/113/13 5/110/13 38/176/13
f 49/169/19 47/177/18 46/170/20
f 47/177/18 56/163/21 39/160/22
f 49/156/19 56/158/21 47/177/18
f 46/167/20 47/177/18 39/165/22
