# Blender v2.79 (sub 0) OBJ File: 'Fixing models.blend'
# www.blender.org
mtllib campfire_large.mtl
o campfire_large
v -1.750000 0.400000 -0.350000
v -1.750000 -0.000000 -0.350000
v 1.750000 0.400000 0.350000
v 1.750000 0.000000 0.350000
v 1.750000 0.400000 -0.350000
v -0.955125 0.000000 1.484924
v 1.519748 0.300000 -0.989950
v 1.024774 0.300000 -1.484924
v 0.017412 0.100000 -0.477563
v 0.350000 -0.000000 -0.810150
v -0.110150 0.300000 -0.350000
v 0.989950 0.000000 1.484924
v 0.989950 0.200000 1.484924
v 0.179799 0.200000 0.350000
v -0.989950 -0.000000 -1.484924
v -0.844975 -0.000000 -0.350000
v -1.484924 -0.000000 -0.989949
v -0.350000 0.000000 1.750000
v 0.350000 0.000000 0.844975
v 0.350000 0.000000 1.750000
v -1.450099 0.000000 0.989950
v -1.750000 0.000000 0.350000
v 1.024774 -0.000000 -1.484924
v 0.879799 -0.000000 -0.350000
v 0.844975 0.000000 0.350000
v 1.484924 0.000000 0.989949
v 0.350000 0.100000 1.750000
v -0.350000 0.100000 1.750000
v -0.350000 0.100000 -1.750000
v 0.350000 -0.000000 -1.750000
v 0.350000 0.100000 -1.750000
v -0.350000 -0.000000 -1.750000
v -0.844975 0.200000 -0.350000
v 1.750000 -0.000000 -0.350000
v -0.955125 0.300000 1.484924
v -0.350000 0.000000 0.879799
v 0.179799 0.300000 0.350000
v 0.350000 0.100000 0.844975
v 0.017412 0.200000 0.512387
v 1.519748 -0.000000 -0.989950
v 0.879799 0.300000 -0.350000
v -0.989950 0.200000 -1.484924
v -0.350000 -0.000000 -0.844975
v -0.350000 0.100000 -0.844975
v 0.017412 0.200000 -0.477563
v 1.484924 0.200000 0.989949
v 0.017412 0.100000 0.512387
v -0.350000 0.100000 0.879799
v -1.484924 0.200000 -0.989949
v -0.110150 0.200000 -0.350000
v 0.350000 0.100000 -0.810150
v -1.450099 0.300000 0.989950
v 0.844975 0.200000 0.350000
v -0.810150 0.300000 0.350000
v -1.750000 0.400000 0.350000
v -0.810150 0.000000 0.350000
vt -1.377953 1.574803
vt 1.377953 0.000000
vt 1.377953 1.574803
vt -1.377953 0.000000
vt 1.377953 0.000000
vt -1.377953 1.574803
vt -1.377953 0.000000
vt 1.377953 1.574803
vt 6.889764 -1.377953
vt -6.889764 1.377953
vt -6.889764 -1.377953
vt 6.889764 1.377953
vt -1.281005 1.181102
vt 1.474900 0.000000
vt 1.474900 1.181102
vt -1.281005 0.000000
vt 1.281005 0.000000
vt -1.474900 1.181102
vt -1.474900 0.000000
vt 1.281005 1.181102
vt -1.377953 0.787402
vt -3.229725 0.393701
vt -1.377953 0.393701
vt -6.986712 1.181102
vt -6.986712 0.000000
vt -3.229725 0.000000
vt -0.667714 1.181102
vt -0.667714 0.787402
vt 1.377953 0.000000
vt -1.377953 0.787402
vt -1.377953 0.000000
vt 1.377953 0.787402
vt -1.377953 0.787402
vt 1.377953 0.000000
vt 1.377953 0.787402
vt -1.377953 0.000000
vt 3.897439 -5.846159
vt 0.707871 -1.377953
vt 0.068552 -2.017272
vt 3.326672 -1.377953
vt 5.846159 -3.897439
vt 3.897439 5.846159
vt 3.326672 1.377953
vt 5.846159 3.897439
vt 1.377953 3.326672
vt 3.189568 -1.377953
vt 1.377953 -3.463777
vt -1.377953 6.889764
vt 1.377953 6.889764
vt 1.377953 -6.889764
vt -1.377953 3.189568
vt -1.377953 -3.326673
vt -1.377953 -6.889764
vt 3.760334 -5.846159
vt 5.709054 -3.897439
vt 6.889764 -1.377953
vt 6.889764 1.377953
vt -4.034544 5.846159
vt -3.463777 1.377953
vt -3.326672 -1.377953
vt -5.983263 3.897439
vt -6.889764 -1.377953
vt -6.889764 1.377953
vt -3.897439 -5.846159
vt -5.846159 -3.897439
vt 1.377953 0.393701
vt -1.377953 0.000000
vt 1.377953 0.000000
vt -1.377953 0.393701
vt 1.377953 0.393701
vt -1.377953 0.000000
vt 1.377953 0.000000
vt -1.377953 0.393701
vt 6.889764 0.000000
vt 3.189568 0.393701
vt 3.189568 0.000000
vt 6.889764 0.393701
vt -3.326672 0.393701
vt -6.889764 0.000000
vt -3.326672 0.000000
vt -6.889764 0.393701
vt 6.889764 1.574803
vt 3.326672 0.000000
vt 6.889764 0.000000
vt 3.326672 0.787402
vt 0.433662 0.787402
vt 0.433662 1.181102
vt -3.463777 1.181102
vt -6.889764 1.574803
vt -6.889764 0.000000
vt -3.463777 0.000000
vt -1.377953 0.787402
vt -3.423620 0.393701
vt -1.377953 0.393701
vt -6.792816 1.181102
vt -6.792816 0.000000
vt -3.423620 0.000000
vt -0.473819 1.181102
vt -0.473819 0.787402
vt 3.326672 0.393701
vt 6.889764 0.787402
vt 1.474900 0.393701
vt 1.474900 0.787402
vt 6.986712 1.181102
vt 3.423620 0.000000
vt 6.986712 0.000000
vt 3.423620 1.181102
vt 3.326672 0.393701
vt 6.889764 0.787402
vt 1.281005 0.393701
vt 1.281005 0.787402
vt -1.377953 -6.889764
vt 0.068552 -2.017272
vt -1.377953 -3.463777
vt 1.377953 -6.889764
vt 1.377953 -3.326673
vt -3.326672 0.000000
vt -6.889764 0.393701
vt -6.889764 0.000000
vt -3.326672 0.393701
vt 3.463777 0.393701
vt 6.889764 0.000000
vt 6.889764 0.393701
vt 3.463777 0.000000
vt -3.326672 1.377953
vt -3.897439 5.846159
vt -5.846159 3.897439
vt 0.068552 1.880167
vt -0.433662 1.377953
vt -1.377953 3.326672
vt 1.377953 6.889764
vt -1.377953 6.889764
vt 0.068552 1.880167
vt 1.377953 3.189568
vt 3.463777 1.377953
vt 4.034544 5.846159
vt -0.433662 1.377953
vt 5.983263 3.897439
vt -3.760334 -5.846159
vt -3.189568 -1.377953
vt -5.709054 -3.897439
vt 0.707871 -1.377953
vt 6.792816 1.181102
vt 3.229725 0.000000
vt 6.792816 0.000000
vt 3.229725 1.181102
vt 6.889764 1.574803
vt 3.326672 0.000000
vt 6.889764 0.000000
vt 3.326672 0.787402
vt 0.707871 0.787402
vt 0.707871 1.181102
vt -3.189568 1.181102
vt -6.889764 1.574803
vt -6.889764 0.000000
vt -3.189568 0.000000
vt 3.326672 0.000000
vt 6.889764 0.000000
vt 3.326672 0.000000
vt 6.889764 0.000000
vt -3.326672 0.787402
vt -6.889764 0.000000
vt -3.326672 0.000000
vt -6.889764 0.787402
vt -3.326672 0.787402
vt -6.889764 0.000000
vt -3.326672 0.000000
vt -6.889764 0.787402
vn -1.0000 -0.0000 0.0000
vn 1.0000 -0.0000 0.0000
vn -0.0000 1.0000 -0.0000
vn -0.7071 0.0000 0.7071
vn 0.7071 -0.0000 -0.7071
vn -0.7071 0.0000 -0.7071
vn 0.7071 0.0000 0.7071
vn 0.0000 -1.0000 0.0000
vn 0.0000 0.0000 1.0000
vn 0.0000 0.0000 -1.0000
usemtl natureKit-wood
s off
f 1/1/1 22/2/1 55/3/1
f 22/2/1 1/1/1 2/4/1
f 34/5/2 3/6/2 4/7/2
f 3/6/2 34/5/2 5/8/2
f 3/9/3 1/10/3 55/11/3
f 1/10/3 3/9/3 5/12/3
f 52/13/4 6/14/4 35/15/4
f 6/14/4 52/13/4 21/16/4
f 23/17/5 7/18/5 40/19/5
f 7/18/5 23/17/5 8/20/5
f 45/21/6 51/22/6 9/23/6
f 8/24/6 51/22/6 45/21/6
f 23/25/6 51/22/6 8/24/6
f 51/22/6 23/25/6 10/26/6
f 8/24/6 45/21/6 11/27/6
f 11/27/6 45/21/6 50/28/6
f 26/29/7 13/30/7 12/31/7
f 13/30/7 26/29/7 46/32/7
f 42/33/6 17/34/6 49/35/6
f 17/34/6 42/33/6 15/36/6
f 13/37/3 14/38/3 39/39/3
f 14/38/3 13/37/3 53/40/3
f 53/40/3 13/37/3 46/41/3
f 15/42/8 16/43/8 17/44/8
f 16/43/8 15/42/8 43/45/8
f 16/43/8 43/45/8 56/46/8
f 36/47/8 56/46/8 43/45/8
f 43/45/8 30/48/8 36/47/8
f 30/48/8 43/45/8 32/49/8
f 36/47/8 30/48/8 18/50/8
f 18/50/8 30/48/8 10/51/8
f 18/50/8 10/51/8 19/52/8
f 18/50/8 19/52/8 20/53/8
f 6/54/8 56/46/8 36/47/8
f 56/46/8 6/54/8 21/55/8
f 22/56/8 16/43/8 56/46/8
f 16/43/8 22/56/8 2/57/8
f 23/58/8 19/52/8 10/51/8
f 19/52/8 23/58/8 24/59/8
f 19/52/8 24/59/8 25/60/8
f 24/59/8 23/58/8 40/61/8
f 24/59/8 4/62/8 25/60/8
f 4/62/8 24/59/8 34/63/8
f 25/60/8 12/64/8 19/52/8
f 12/64/8 25/60/8 26/65/8
f 27/66/9 18/67/9 20/68/9
f 18/67/9 27/66/9 28/69/9
f 29/70/10 30/71/10 32/72/10
f 30/71/10 29/70/10 31/73/10
f 30/74/2 51/75/2 10/76/2
f 51/75/2 30/74/2 31/77/2
f 44/78/1 32/79/1 43/80/1
f 32/79/1 44/78/1 29/81/1
f 1/82/10 16/83/10 2/84/10
f 16/83/10 1/82/10 33/85/10
f 33/85/10 1/82/10 50/86/10
f 50/86/10 1/82/10 11/87/10
f 11/87/10 1/82/10 41/88/10
f 5/89/10 41/88/10 1/82/10
f 34/90/10 41/88/10 5/89/10
f 41/88/10 34/90/10 24/91/10
f 39/92/7 48/93/7 47/94/7
f 35/95/7 48/93/7 39/92/7
f 6/96/7 48/93/7 35/95/7
f 48/93/7 6/96/7 36/97/7
f 35/95/7 39/92/7 37/98/7
f 37/98/7 39/92/7 14/99/7
f 38/100/4 13/101/4 47/102/4
f 47/102/4 13/101/4 39/103/4
f 7/104/7 24/105/7 40/106/7
f 24/105/7 7/104/7 41/107/7
f 44/108/5 42/109/5 9/110/5
f 9/110/5 42/109/5 45/111/5
f 28/112/3 47/113/3 48/114/3
f 47/113/3 28/112/3 27/115/3
f 47/113/3 27/115/3 38/116/3
f 19/117/2 27/118/2 20/119/2
f 27/118/2 19/117/2 38/120/2
f 48/121/1 18/122/1 28/123/1
f 18/122/1 48/121/1 36/124/1
f 33/125/3 42/126/3 49/127/3
f 42/126/3 33/125/3 45/128/3
f 45/128/3 33/125/3 50/129/3
f 44/130/3 31/131/3 29/132/3
f 31/131/3 44/130/3 9/133/3
f 31/131/3 9/133/3 51/134/3
f 41/135/3 8/136/3 11/137/3
f 8/136/3 41/135/3 7/138/3
f 35/139/3 54/140/3 52/141/3
f 54/140/3 35/139/3 37/142/3
f 52/143/6 56/144/6 21/145/6
f 56/144/6 52/143/6 54/146/6
f 3/147/9 25/148/9 4/149/9
f 25/148/9 3/147/9 53/150/9
f 53/150/9 3/147/9 14/151/9
f 14/151/9 3/147/9 37/152/9
f 37/152/9 3/147/9 54/153/9
f 55/154/9 54/153/9 3/147/9
f 22/155/9 54/153/9 55/154/9
f 54/153/9 22/155/9 56/156/9
s 1
f 13/101/4 19/157/4 12/158/4
f 19/157/4 13/101/4 38/100/4
f 42/109/5 43/159/5 15/160/5
f 43/159/5 42/109/5 44/108/5
f 53/161/5 26/162/5 25/163/5
f 26/162/5 53/161/5 46/164/5
f 33/165/4 17/166/4 16/167/4
f 17/166/4 33/165/4 49/168/4
