# Blender v2.79 (sub 0) OBJ File: 'Fixing models.blend'
# www.blender.org
mtllib stone_obelisk.mtl
o stone_obelisk
v 0.400272 5.783552 0.400270
v 0.667119 0.688128 -0.667119
v -0.400272 5.783552 -0.400273
v 1.120506 0.000000 1.120506
v -0.952430 0.688128 -0.952430
v -1.120506 -0.000000 -1.120506
v 1.120506 -0.000000 -1.120506
v 0.952430 0.688128 0.952430
v -0.400271 5.783552 0.400270
v -0.667119 0.688128 -0.667119
v -1.120506 0.000000 1.120506
v 0.400271 5.783552 -0.400273
v -0.000000 6.389760 -0.000001
v -0.952430 0.688128 0.952430
v -0.667119 0.688128 0.667119
v 0.667119 0.688128 0.667119
v 0.952430 0.688128 -0.952430
vt 1.575872 22.656313
vt -2.626454 2.568099
vt 2.626454 2.568099
vt -1.575872 22.656313
vt 1.575872 22.656313
vt -2.626454 2.568099
vt 2.626454 2.568099
vt -1.575872 22.656313
vt 3.749724 1.742080
vt -4.411440 -1.046727
vt 4.411440 -1.046727
vt -3.749724 1.742080
vt 2.626454 2.568099
vt -1.575872 22.656313
vt -2.626454 2.568099
vt 1.575872 22.656313
vt 0.000000 20.993107
vt -1.575872 18.133133
vt 1.575872 18.133133
vt 3.749724 1.742080
vt -4.411440 -1.046727
vt 4.411440 -1.046727
vt -3.749724 1.742080
vt 3.749724 1.742080
vt -4.411440 -1.046727
vt 4.411440 -1.046727
vt -3.749724 1.742080
vt 4.411440 -1.046727
vt -3.749724 1.742080
vt -4.411440 -1.046727
vt 3.749724 1.742080
vt 1.575872 22.656313
vt -2.626454 2.568099
vt 2.626454 2.568099
vt -1.575872 22.656313
vt -1.575872 18.133133
vt 1.575872 18.133133
vt -4.411440 4.411440
vt 4.411440 -4.411440
vt 4.411440 4.411440
vt -4.411440 -4.411440
vt 1.575872 18.133133
vt -1.575872 18.133133
vt -1.575872 18.133133
vt 1.575872 18.133133
vt -3.749724 -3.749724
vt -2.626454 -2.626454
vt -3.749724 3.749724
vt 3.749724 -3.749724
vt 2.626454 -2.626454
vt 2.626454 2.626454
vt -2.626454 2.626454
vt 3.749724 3.749724
vn -0.0000 0.0523 -0.9986
vn 0.0000 0.0523 0.9986
vn -0.9714 0.2373 0.0000
vn 0.9986 0.0523 -0.0000
vn -0.0000 0.5510 -0.8345
vn 0.0000 0.2373 0.9714
vn -0.0000 0.2373 -0.9714
vn 0.9714 0.2373 -0.0000
vn -0.9986 0.0523 0.0000
vn -0.8345 0.5510 0.0000
vn 0.0000 -1.0000 0.0000
vn 0.8345 0.5510 -0.0000
vn 0.0000 0.5510 0.8345
vn -0.0000 1.0000 -0.0000
usemtl natureKit-stone
s off
f 3/1/1 2/2/1 10/3/1
f 2/2/1 3/1/1 12/4/1
f 1/5/2 15/6/2 16/7/2
f 15/6/2 1/5/2 9/8/2
f 14/9/3 6/10/3 11/11/3
f 6/10/3 14/9/3 5/12/3
f 2/13/4 1/14/4 16/15/4
f 1/14/4 2/13/4 12/16/4
f 13/17/5 12/18/5 3/19/5
f 8/20/6 11/21/6 4/22/6
f 11/21/6 8/20/6 14/23/6
f 5/24/7 7/25/7 6/26/7
f 7/25/7 5/24/7 17/27/7
f 7/28/8 8/29/8 4/30/8
f 8/29/8 7/28/8 17/31/8
f 9/32/9 10/33/9 15/34/9
f 10/33/9 9/32/9 3/35/9
f 3/36/10 9/37/10 13/17/10
f 7/38/11 11/39/11 6/40/11
f 11/39/11 7/38/11 4/41/11
f 12/42/12 13/17/12 1/43/12
f 13/17/13 9/44/13 1/45/13
f 14/46/14 15/47/14 5/48/14
f 15/47/14 14/46/14 8/49/14
f 15/47/14 8/49/14 16/50/14
f 16/50/14 8/49/14 2/51/14
f 10/52/14 5/48/14 15/47/14
f 5/48/14 10/52/14 17/53/14
f 17/53/14 10/52/14 2/51/14
f 17/53/14 2/51/14 8/49/14
