# Blender v2.79 (sub 0) OBJ File: 'Fixing models.blend'
# www.blender.org
mtllib tent_smallClosed.mtl
o tent_smallClosed
v -0.142080 -0.000000 -2.601840
v -0.142080 5.611307 -2.886001
v -0.000000 5.180000 -2.886001
v -0.142080 -0.000000 -2.886000
v 0.142080 5.611307 -2.601841
v -0.142080 5.611307 -2.601841
v 0.142080 4.968800 -2.601841
v 0.142080 5.611307 -2.886001
v -0.142080 4.968801 2.613679
v -0.142080 5.611308 2.897839
v 0.142080 5.611308 2.897839
v 0.142080 4.968801 2.897839
v 0.142080 5.611308 2.613679
v -0.142080 5.611308 2.613679
v -0.142080 4.968801 2.897839
v -0.142080 0.000000 2.897840
v -0.142080 0.000000 2.613680
v 0.142080 0.000000 2.613680
v 0.142080 -0.000000 -2.886000
v 0.142080 -0.000000 -2.601840
v 0.142080 0.000000 2.897840
v 0.000000 5.180001 2.897839
v -0.142080 4.968800 -2.601841
v -0.142080 4.968800 -2.886001
v -0.000000 5.180000 -2.601841
v 0.142080 4.968801 2.613679
v 0.000000 5.180001 2.613679
v 0.142080 4.968800 -2.886001
v 0.647214 1.945000 3.181999
v 0.647214 2.745001 3.181999
v -0.647213 2.745001 3.181999
v -0.647213 1.945000 3.182000
v 2.253367 1.830400 2.139391
v 1.843309 2.439947 2.228292
v 0.142080 4.968801 2.613679
v -1.001593 3.691145 0.730881
v -1.121744 3.512542 -0.583610
v -0.000000 5.180000 -2.601841
v 1.607130 2.791022 0.089770
v -1.845961 2.436003 -1.803261
v -1.893695 2.365048 -0.845070
v -1.572263 2.842852 0.898303
v -2.737999 0.000000 3.182000
v 2.738000 1.110000 3.181999
v -0.647213 2.745001 3.181999
v -0.647213 1.945000 3.182000
v 1.564055 2.855053 0.862928
v 1.851761 2.427382 0.914376
v 2.183896 1.933668 1.110894
v 0.000000 5.180001 3.181999
v 0.647214 1.945000 3.181999
v 0.647214 2.745001 3.181999
v -0.142080 4.968800 -2.601841
v -0.142080 4.968800 -2.886001
v -0.142080 0.000000 2.897840
v -0.142080 0.000000 2.613680
v 0.000000 5.180001 2.613679
v 0.142080 -0.000000 -2.886000
v 0.142080 -0.000000 -2.601840
v 0.100000 5.031351 -3.182001
v 2.737999 1.109999 -3.182000
v -2.102350 2.054885 -0.639406
v -1.692414 2.664249 -0.416189
v -1.475688 2.986410 -1.744058
v 2.737999 -0.000000 -3.182000
v 0.142080 0.000000 2.613680
v 0.142080 0.000000 2.897840
v 0.100000 -0.000000 -3.182000
v -2.089376 2.074171 0.026188
v -2.738000 1.109999 -3.182000
v -0.142080 -0.000000 -2.601840
v 0.142080 4.968801 2.897839
v -0.142080 4.968801 2.897839
v -0.100000 -0.000000 -3.182000
v -0.142080 -0.000000 -2.886000
v -0.142080 4.968801 2.613679
v 1.773837 2.543216 1.199795
v 1.894836 2.363351 0.141218
v -2.737999 1.110000 3.182000
v -2.378335 1.644636 0.044266
v -1.523421 2.915456 -0.785866
v -2.391309 1.625351 -0.621328
v 2.738000 0.000000 3.182000
v 0.000000 5.180001 2.897839
v 0.142080 4.968800 -2.601841
v 0.142080 4.968800 -2.886001
v -0.000000 5.180000 -2.886001
v -0.000000 5.180000 -3.182001
v -2.738000 -0.000000 -3.182000
v -0.100000 5.031351 -3.182001
vt -11.362205 22.091763
vt -10.243464 19.562204
vt -10.243464 22.091763
vt -11.362205 19.562204
vt -10.243464 0.000000
vt -11.362205 0.000000
vt 0.559370 22.091763
vt 0.000000 20.393702
vt 0.559370 19.562204
vt -0.559370 22.091763
vt -0.559370 19.562204
vt -0.559370 0.000000
vt 0.559370 0.000000
vt 0.559370 10.243464
vt -0.559370 11.362205
vt -0.559370 10.243464
vt 0.559370 11.362205
vt 0.559370 19.562204
vt -0.559370 0.000000
vt 0.559370 0.000000
vt -0.559370 19.562204
vt 0.559370 22.091763
vt -0.000000 20.393702
vt -0.559370 22.091763
vt 11.362205 0.000000
vt 10.243464 19.562204
vt 10.243464 0.000000
vt 11.362205 19.562204
vt 10.243464 22.091763
vt 11.362205 22.091763
vt 0.559370 19.562204
vt -0.559370 0.000000
vt 0.559370 0.000000
vt -0.559370 19.562204
vt 0.559370 22.091763
vt 0.000000 20.393702
vt -0.559370 22.091763
vt 0.559370 22.091763
vt -0.000000 20.393702
vt 0.559370 19.562204
vt -0.559370 22.091763
vt -0.559370 19.562204
vt -0.559370 0.000000
vt 0.559370 0.000000
vt 0.559370 -11.408819
vt -0.559370 -10.290079
vt -0.559370 -11.408819
vt 0.559370 -10.290079
vt -10.290079 0.000000
vt -11.408819 19.562204
vt -11.408819 0.000000
vt -10.290079 19.562204
vt -11.408819 22.091763
vt -10.290079 22.091763
vt 10.290079 22.091763
vt 11.408819 19.562204
vt 11.408819 22.091763
vt 10.290079 19.562204
vt 11.408819 0.000000
vt 10.290079 0.000000
vt 0.000000 0.000000
vt 0.000000 0.000000
vt 0.000000 0.000000
vt 0.000000 0.000000
vt -11.408819 19.562204
vt -10.290079 19.562204
vt 0.559370 19.562204
vt -0.559370 19.562204
vt 0.000000 0.000000
vt 0.000000 0.000000
vt 0.000000 0.000000
vt 0.000000 0.000000
vt 10.290079 19.562204
vt 11.408819 19.562204
vt 0.559370 19.562204
vt -0.559370 19.562204
vt 0.559370 19.562204
vt -0.559370 19.562204
vt 0.559370 19.562204
vt -0.559370 19.562204
vt 0.000000 20.393702
vt -0.000000 20.393702
vt 0.000000 20.393702
vt -0.000000 20.393702
vt -0.559370 22.091763
vt 0.000000 20.393702
vt 0.559370 22.091763
vt -0.559370 22.091763
vt 0.000000 20.393702
vt 0.559370 22.091763
vt -0.559370 19.562204
vt -0.000000 20.393702
vt 0.559370 19.562204
vt -0.559370 19.562204
vt -0.000000 20.393702
vt 0.559370 19.562204
vt 0.393701 0.000000
vt 0.393701 19.808470
vt 10.779528 4.370079
vt 0.393701 0.000000
vt 0.393701 19.808470
vt 10.779528 4.370079
vt 0.393701 0.000000
vt 0.393701 19.808470
vt 0.393701 0.000000
vt 0.393701 19.808470
vt 0.393701 19.808470
vt 10.779528 4.370079
vt 0.393701 19.808470
vt 10.779528 4.370079
vt 0.393701 0.000000
vt 0.393701 19.808470
vt 0.393701 0.000000
vt 0.393701 19.808470
vt 0.393701 19.808470
vt 10.779528 4.370079
vt 0.393701 0.000000
vt 0.393701 19.808470
vt 0.393701 0.000000
vt 0.393701 0.000000
vt 10.779528 4.370079
vt 10.779528 4.370079
vt 0.393701 0.000000
vt 10.779528 4.370079
vt 0.393701 19.808470
vt 10.779528 4.370079
vt -10.243464 16.921104
vt 10.290079 16.921104
vt 10.290079 15.918966
vt 2.877489 9.856531
vt 3.536629 5.831403
vt -2.297676 9.009065
vt -3.093960 6.175906
vt -2.517346 2.092524
vt -6.866367 6.512584
vt -7.099452 3.900918
vt 0.174277 0.145905
vt 11.408819 15.918966
vt 12.527559 -2.390930
vt 11.408819 16.921104
vt 12.527559 16.921104
vt -12.527559 -2.390930
vt -2.446173 0.054397
vt -3.327045 3.564239
vt -10.243464 15.918966
vt -11.362205 15.918966
vt -12.527559 16.921104
vt -11.362205 16.921104
vt 0.103104 2.184032
vt -1.638536 4.983937
vt 11.362205 15.918966
vt 10.243464 15.918966
vt 10.243464 16.921104
vt 11.362205 16.921104
vt 12.527559 -2.390930
vt -0.353428 5.585472
vt -0.555978 3.556185
vt -3.599908 3.860010
vt -4.373602 1.517352
vt -8.422801 1.027345
vt -12.527559 -2.390930
vt -12.527559 16.921104
vt -11.408819 15.918966
vt -10.290079 15.918966
vt -8.772806 3.919630
vt -10.290079 16.921104
vt 12.527559 16.921104
vt -3.397358 5.889296
vt -4.723607 4.409637
vt -11.408819 16.921104
vt 10.779528 4.370079
vt 10.779528 0.000000
vt -10.779528 0.000000
vt -10.779528 4.370079
vt 2.548085 7.657480
vt 2.548085 10.807087
vt -0.000000 20.393702
vt -2.548085 10.807087
vt -2.548085 7.657480
vt -12.527559 4.370079
vt 12.527559 4.370079
vt 12.527559 0.000000
vt -12.527559 0.000000
vt 12.527559 0.000000
vt -12.527559 0.000000
vt -12.527559 4.370079
vt 12.527559 4.370079
vt 10.779528 4.370079
vt 10.779528 0.000000
vt 0.393701 19.808470
vt -0.393701 19.808470
vt -0.393701 0.000000
vt -10.779528 0.000000
vt -10.779528 4.370079
vt -12.527559 16.215771
vt 12.527559 16.215771
vt 0.000000 20.393702
vn -1.0000 -0.0000 0.0000
vn 0.0000 -0.0000 -1.0000
vn 0.0000 1.0000 -0.0000
vn 0.0000 0.0000 1.0000
vn 1.0000 0.0000 -0.0000
vn 0.0000 -1.0000 0.0000
vn 0.9999 0.0000 0.0139
vn 0.8297 -0.5582 0.0000
vn -0.8297 -0.5582 0.0000
vn -0.8297 -0.5582 -0.0001
vn -0.9854 -0.0438 0.1642
vn 0.7070 -0.0177 -0.7070
usemtl natureKit-wood
s off
f 2/1/1 23/2/1 6/3/1
f 23/2/1 2/1/1 24/4/1
f 24/4/1 1/5/1 23/2/1
f 1/5/1 24/4/1 4/6/1
f 2/7/2 3/8/2 24/9/2
f 8/10/2 3/8/2 2/7/2
f 3/8/2 8/10/2 28/11/2
f 19/12/2 24/9/2 28/11/2
f 24/9/2 19/12/2 4/13/2
f 5/14/3 2/15/3 6/16/3
f 2/15/3 5/14/3 8/17/3
f 7/18/4 1/19/4 20/20/4
f 1/19/4 7/18/4 23/21/4
f 5/22/4 25/23/4 7/18/4
f 25/23/4 6/24/4 23/21/4
f 6/24/4 25/23/4 5/22/4
f 19/25/5 7/26/5 20/27/5
f 7/26/5 19/25/5 28/28/5
f 28/28/5 5/29/5 7/26/5
f 5/29/5 28/28/5 8/30/5
f 9/31/2 18/32/2 17/33/2
f 18/32/2 9/31/2 26/34/2
f 14/35/2 27/36/2 9/31/2
f 27/36/2 13/37/2 26/34/2
f 13/37/2 27/36/2 14/35/2
f 11/38/4 22/39/4 12/40/4
f 10/41/4 22/39/4 11/38/4
f 22/39/4 10/41/4 15/42/4
f 16/43/4 12/40/4 15/42/4
f 12/40/4 16/43/4 21/44/4
f 11/45/3 14/46/3 10/47/3
f 14/46/3 11/45/3 13/48/3
f 18/49/5 12/50/5 21/51/5
f 12/50/5 18/49/5 26/52/5
f 26/52/5 11/53/5 12/50/5
f 11/53/5 26/52/5 13/54/5
f 14/55/1 15/56/1 10/57/1
f 15/56/1 14/55/1 9/58/1
f 9/58/1 16/59/1 15/56/1
f 16/59/1 9/58/1 17/60/1
f 30/61/4 29/62/4 51/63/4 52/64/4
f 26/52/4 12/50/4 72/65/4 35/66/4
f 23/21/4 7/18/4 85/67/4 53/68/4
f 32/69/4 31/70/4 45/71/4 46/72/4
f 15/56/4 9/58/4 76/73/4 73/74/4
f 28/11/4 24/9/4 54/75/4 86/76/4
f 29/62/4 32/69/4 46/72/4 51/63/4
f 31/70/4 30/61/4 52/64/4 45/71/4
f 15/42/4 12/40/4 72/77/4 73/78/4
f 26/34/4 9/31/4 76/79/4 35/80/4
f 86/76/4 87/81/4 54/75/4
f 53/68/2 38/82/2 85/67/2
f 35/80/4 57/83/4 76/79/4
f 73/78/2 84/84/2 72/77/2
usemtl natureKit-_defaultMat
f 58/85/6 71/86/6 75/87/6
f 71/88/6 58/89/6 59/90/6
f 66/91/3 56/92/3 55/93/3
f 55/94/3 67/95/3 66/96/3
f 74/97/3 89/98/3 43/99/3
f 43/100/3 75/101/3 74/102/3
f 75/103/3 58/104/3 74/102/3
f 58/105/3 68/106/3 74/102/3
f 58/105/3 65/107/3 68/108/3
f 58/105/3 59/109/3 65/110/3
f 59/111/3 66/112/3 65/110/3
f 66/113/3 67/114/3 65/110/3
f 43/100/3 83/115/3 55/116/3
f 55/117/3 71/118/3 43/99/3
f 71/119/3 75/101/3 43/99/3
f 83/120/3 67/114/3 55/116/3
f 83/120/3 65/107/3 67/121/3
f 59/111/3 71/118/3 56/122/3
f 56/123/3 66/112/3 59/124/3
s 1
f 55/117/7 56/125/7 71/126/7
usemtl natureKit-mushroom
s off
f 38/127/8 57/128/8 76/129/8
f 76/129/8 36/130/8 38/127/8
f 76/129/8 42/131/8 36/130/8
f 36/130/8 37/132/8 38/127/8
f 37/132/8 81/133/8 38/127/8
f 37/132/8 62/134/8 81/133/8
f 81/133/8 64/135/8 38/127/8
f 64/135/8 40/136/8 38/127/8
f 80/137/8 42/131/8 76/129/8
f 80/137/8 76/129/8 73/138/8
f 79/139/8 80/137/8 73/138/8
f 79/139/8 73/138/8 84/140/8
f 84/140/8 50/141/8 79/139/8
f 79/139/8 70/142/8 80/137/8
f 70/142/8 82/143/8 80/137/8
f 70/142/8 62/134/8 82/143/8
f 70/142/8 41/144/8 62/134/8
f 41/144/8 81/133/8 62/134/8
f 70/142/8 40/136/8 41/144/8
f 70/142/8 53/145/8 40/136/8
f 53/145/8 38/127/8 40/136/8
f 70/142/8 54/146/8 53/145/8
f 70/142/8 88/147/8 54/146/8
f 88/147/8 87/148/8 54/146/8
f 87/148/8 38/127/8 53/145/8
f 53/145/8 54/146/8 87/148/8
f 42/131/8 80/137/8 69/149/8
f 69/149/8 63/150/8 42/131/8
f 69/149/8 62/134/8 63/150/8
f 62/134/8 37/132/8 63/150/8
f 86/151/9 85/152/9 38/153/9
f 38/153/9 87/154/9 86/151/9
f 85/152/9 86/151/9 61/155/9
f 86/151/9 87/154/9 61/155/9
f 39/156/9 85/152/9 61/155/9
f 38/153/9 85/152/9 39/156/9
f 78/157/9 39/156/9 61/155/9
f 48/158/9 78/157/9 61/155/9
f 49/159/9 48/158/9 61/155/9
f 33/160/9 49/159/9 61/155/9
f 33/160/9 61/155/9 44/161/9
f 44/161/9 50/162/9 33/160/9
f 50/162/9 72/163/9 33/160/9
f 72/163/9 35/164/9 33/160/9
f 35/164/10 34/165/10 33/160/10
f 35/164/9 57/166/9 34/165/9
f 34/165/9 57/166/9 38/153/9
f 87/154/9 88/167/9 61/155/9
f 47/168/9 48/158/9 49/159/9
f 38/153/9 47/168/9 34/165/9
f 38/153/9 39/156/9 47/168/9
f 47/168/9 77/169/9 34/165/9
f 47/168/9 49/159/9 77/169/9
f 84/170/9 72/163/9 50/162/9
f 44/171/2 83/172/2 43/173/2
f 43/173/2 79/174/2 44/171/2
f 79/174/2 51/175/2 44/171/2
f 51/175/2 52/176/2 44/171/2
f 52/176/2 50/177/2 44/171/2
f 52/176/2 45/178/2 50/177/2
f 79/174/2 50/177/2 45/178/2
f 45/178/2 46/179/2 79/174/2
f 46/179/2 51/175/2 79/174/2
f 70/180/5 79/181/5 43/182/5
f 43/182/5 89/183/5 70/180/5
f 65/184/1 83/185/1 44/186/1
f 44/186/1 61/187/1 65/184/1
f 70/188/4 89/189/4 74/97/4
f 74/97/4 90/190/4 70/188/4
f 60/191/4 68/192/4 65/193/4
f 65/193/4 61/194/4 60/191/4
s 1
f 70/142/11 90/195/11 88/147/11
f 88/167/12 60/196/12 61/155/12
usemtl natureKit-mushroomDark
s off
f 81/133/8 41/144/8 64/135/8
f 40/136/8 64/135/8 41/144/8
f 80/137/8 82/143/8 69/149/8
f 62/134/8 69/149/8 82/143/8
f 42/131/8 63/150/8 36/130/8
f 37/132/8 36/130/8 63/150/8
f 39/156/9 78/157/9 47/168/9
f 48/158/9 47/168/9 78/157/9
f 49/159/9 33/160/9 77/169/9
f 34/165/9 77/169/9 33/160/9
f 90/190/4 74/97/4 68/192/4
f 68/192/4 60/191/4 90/190/4
f 60/191/4 88/197/4 90/190/4
