# Blender v2.79 (sub 0) OBJ File: 'Fixing models.blend'
# www.blender.org
mtllib tent_detailedClosed.mtl
o tent_detailedClosed
v -4.090479 0.810000 2.613680
v -4.090480 0.810000 -2.886000
v -4.090479 0.810000 2.897840
v -4.090479 0.810000 -2.601840
v -0.142080 4.968800 -2.886001
v -0.142080 4.968801 2.613679
v -0.142080 4.968800 -2.601841
v 0.000000 5.180001 2.897839
v -0.000000 5.180000 -2.886001
v 0.142080 4.968800 -2.601841
v -0.000000 5.180000 -2.601841
v 0.000000 5.180001 2.613679
v 0.142080 4.968800 -2.886001
v 0.647214 1.945000 3.181999
v 0.647214 2.745001 3.181999
v -0.647213 2.745001 3.181999
v -0.647213 1.945000 3.182000
v 4.090480 0.810000 2.897840
v 0.142080 4.968801 2.613679
v 4.090479 0.810000 -2.886000
v 0.142080 4.968801 2.897839
v -0.142080 5.611308 2.897839
v 0.142080 5.611308 2.613679
v 0.142080 5.611307 -2.886001
v 0.142080 5.611308 2.897839
v -0.142080 4.968801 2.897839
v 0.142080 5.611307 -2.601841
v -0.142080 5.611307 -2.886001
v -0.142080 5.611307 -2.601841
v -0.142080 5.611308 2.613679
v 4.374640 1.110000 -2.601841
v 4.090479 1.110000 -2.886000
v 4.090479 1.110000 -2.601840
v 4.374640 0.000000 2.897840
v 4.374640 1.110000 2.613679
v -4.090479 1.110000 -2.601840
v -4.374640 -0.000000 -2.601840
v 4.090479 0.810000 -2.601840
v 4.090479 -0.000000 -2.601840
v -4.090479 -0.000000 -2.601840
v 4.374639 -0.000000 -2.886000
v 4.090479 -0.000000 -2.886000
v -4.090479 0.000000 2.613680
v -4.374639 0.000000 2.897840
v -4.374640 0.000000 2.613681
v 4.090479 0.810000 2.613680
v -4.374640 1.110000 2.613680
v -4.374639 1.110000 2.897840
v 4.374640 0.000000 2.613680
v 4.090479 0.000000 2.613680
v -4.090479 1.110000 2.613680
v -4.374640 1.110000 -2.886000
v -4.090480 -0.000000 -2.886000
v -4.374640 -0.000000 -2.885999
v -4.090480 1.110000 -2.886000
v -4.090479 0.000000 2.897840
v -4.090479 1.110000 2.897840
v -4.374640 1.110000 -2.601840
v 4.090480 0.000000 2.897840
v 4.090479 1.110000 2.613680
v 4.090480 1.110000 2.897840
v 4.374640 1.110000 2.897839
v 4.374640 -0.000000 -2.601840
v 4.374639 1.110000 -2.886001
v 0.142080 -0.000000 -2.601840
v 0.142080 0.000000 2.897840
v 0.142080 -0.000000 -2.886000
v -0.142080 -0.000000 -2.886000
v -0.142080 0.000000 2.897840
v -0.142080 0.000000 2.613680
v -0.142080 -0.000000 -2.601840
v 0.142080 0.000000 2.613680
v 2.737999 1.109999 -3.182000
v 1.607130 2.791022 0.089770
v -0.142080 4.968800 -2.601841
v -0.000000 5.180000 -2.886001
v -1.001593 3.691145 0.730881
v -2.378335 1.644636 0.044266
v -2.391309 1.625351 -0.621328
v 1.894836 2.363351 0.141218
v -2.738000 1.109999 -3.182000
v -1.845961 2.436003 -1.803261
v 2.738000 1.110000 3.181999
v 0.647214 1.945000 3.181999
v -0.142080 4.968801 2.613679
v 2.738000 0.000000 3.182000
v 2.737999 -0.000000 -3.182000
v -1.121744 3.512542 -0.583610
v 0.000000 5.180001 2.897839
v 0.000000 5.180001 3.181999
v 0.142080 4.968800 -2.601841
v -0.000000 5.180000 -2.601841
v -1.523421 2.915456 -0.785866
v -1.475688 2.986410 -1.744058
v 1.773837 2.543216 1.199795
v 2.253367 1.830400 2.139391
v -1.893695 2.365048 -0.845070
v -0.100000 5.031351 -3.182001
v 0.100000 5.031351 -3.182001
v 0.647214 2.745001 3.181999
v -0.647213 2.745001 3.181999
v -1.572263 2.842852 0.898303
v -2.089376 2.074171 0.026188
v 0.142080 4.968800 -2.886001
v -0.142080 0.000000 2.613680
v -0.142080 -0.000000 -2.601840
v -0.000000 5.180000 -3.182001
v -4.090479 0.810000 -2.601840
v -0.142080 4.968800 -2.886001
v 0.142080 0.000000 2.613680
v -1.692414 2.664249 -0.416189
v 4.090479 0.810000 2.613680
v -2.737999 1.110000 3.182000
v 0.142080 -0.000000 -2.601840
v 4.090479 0.810000 -2.601840
v 4.090479 0.810000 -2.886000
v 0.142080 4.968801 2.613679
v 1.843309 2.439947 2.228292
v -2.102350 2.054885 -0.639406
v -4.090479 0.810000 2.897840
v -4.090479 0.810000 2.613680
v -0.142080 0.000000 2.897840
v -2.737999 0.000000 3.182000
v 0.142080 -0.000000 -2.886000
v -0.647213 1.945000 3.182000
v 0.142080 4.968801 2.897839
v 0.142080 0.000000 2.897840
v 0.000000 5.180001 2.613679
v 2.183896 1.933668 1.110894
v 1.851761 2.427382 0.914376
v 1.564055 2.855053 0.862928
v -0.142080 4.968801 2.897839
v -0.100000 -0.000000 -3.182000
v -2.738000 -0.000000 -3.182000
v 4.090480 0.810000 2.897840
v 0.100000 -0.000000 -3.182000
v -4.090480 0.810000 -2.886000
v -0.142080 -0.000000 -2.886000
vt 0.000000 0.000000
vt 0.000000 0.000000
vt 0.000000 0.000000
vt 0.000000 0.000000
vt 0.000000 0.000000
vt 0.000000 0.000000
vt 0.000000 0.000000
vt 0.000000 0.000000
vt 0.000000 0.000000
vt 0.000000 0.000000
vt 0.000000 0.000000
vt 0.000000 0.000000
vt 0.000000 0.000000
vt 0.000000 0.000000
vt 0.000000 0.000000
vt 0.000000 0.000000
vt 0.000000 0.000000
vt 0.000000 0.000000
vt 0.000000 0.000000
vt 0.000000 0.000000
vt 0.000000 0.000000
vt 0.000000 0.000000
vt 0.000000 0.000000
vt 0.000000 0.000000
vt 0.000000 0.000000
vt 0.000000 0.000000
vt 0.000000 0.000000
vt 0.000000 0.000000
vt 0.000000 0.000000
vt 0.000000 0.000000
vt 0.000000 0.000000
vt 0.000000 0.000000
vt 10.290079 13.801638
vt 11.408819 13.801638
vt 11.408819 -8.775475
vt 10.290079 -8.775475
vt -10.243464 13.801638
vt -10.243464 -8.775475
vt -11.362205 13.801638
vt -11.362205 -8.775475
vt 3.536629 5.831403
vt 2.877489 9.856531
vt 10.290079 15.918966
vt -10.243464 15.918966
vt -2.297676 9.009065
vt -3.093960 6.175906
vt -2.517346 2.092524
vt -1.638536 4.983937
vt -6.866367 6.512584
vt -3.327045 3.564239
vt -7.099452 3.900918
vt 0.174277 0.145905
vt 11.408819 15.918966
vt 12.527559 -2.390930
vt 11.408819 16.921104
vt 12.527559 16.921104
vt -12.527559 -2.390930
vt -2.446173 0.054397
vt -11.362205 15.918966
vt -11.362205 16.921104
vt -10.243464 16.921104
vt -12.527559 16.921104
vt 0.103104 2.184032
vt 10.290079 16.921104
vt -8.772806 3.919630
vt -8.422801 1.027345
vt -10.290079 15.918966
vt -11.408819 15.918966
vt -12.527559 16.921104
vt -12.527559 -2.390930
vt 12.527559 -2.390930
vt -4.373602 1.517352
vt -3.599908 3.860010
vt -0.555978 3.556185
vt -4.723607 4.409637
vt -3.397358 5.889296
vt 10.243464 15.918966
vt -0.353428 5.585472
vt -10.290079 16.921104
vt 10.243464 16.921104
vt 11.362205 15.918966
vt 11.362205 16.921104
vt 12.527559 16.921104
vt -11.408819 16.921104
vt 10.779528 4.370079
vt 10.779528 0.000000
vt -10.779528 0.000000
vt -10.779528 4.370079
vt 2.548085 7.657480
vt 2.548085 10.807087
vt -0.000000 20.393702
vt -2.548085 10.807087
vt -2.548085 7.657480
vt 10.779528 4.370079
vt 10.779528 0.000000
vt 0.393701 0.000000
vt 0.393701 19.808470
vt 12.527559 0.000000
vt -12.527559 0.000000
vt -12.527559 4.370079
vt 12.527559 4.370079
vt -12.527559 4.370079
vt 12.527559 4.370079
vt 12.527559 0.000000
vt -12.527559 0.000000
vt -10.290079 -8.775475
vt -11.408819 -8.775475
vt -11.408819 13.801638
vt -10.290079 13.801638
vt 10.243464 13.801638
vt 10.243464 -8.775475
vt 11.362205 -8.775475
vt 11.362205 13.801638
vt -0.393701 19.808470
vt -0.393701 0.000000
vt -10.779528 0.000000
vt -10.779528 4.370079
vt -12.527559 16.215771
vt 12.527559 16.215771
vt 0.000000 20.393702
vt 0.559370 -11.408819
vt -0.559370 -10.290079
vt -0.559370 -11.408819
vt 0.559370 -10.290079
vt -10.290079 19.562204
vt -11.408819 22.091763
vt -11.408819 19.562204
vt -10.290079 22.091763
vt -10.290079 0.000000
vt -11.408819 0.000000
vt -11.362205 19.562204
vt -10.243464 0.000000
vt -10.243464 19.562204
vt -11.362205 0.000000
vt -11.362205 22.091763
vt -10.243464 22.091763
vt 0.559370 19.562204
vt -0.559370 0.000000
vt 0.559370 0.000000
vt -0.559370 19.562204
vt 0.559370 22.091763
vt 0.000000 20.393702
vt -0.559370 22.091763
vt 0.559370 22.091763
vt -0.000000 20.393702
vt 0.559370 19.562204
vt -0.559370 22.091763
vt -0.559370 19.562204
vt -0.559370 0.000000
vt 0.559370 0.000000
vt 11.362205 0.000000
vt 10.243464 19.562204
vt 10.243464 0.000000
vt 11.362205 19.562204
vt 10.243464 22.091763
vt 11.362205 22.091763
vt 0.559370 10.243464
vt -0.559370 11.362205
vt -0.559370 10.243464
vt 0.559370 11.362205
vt 0.559370 19.562204
vt -0.559370 0.000000
vt 0.559370 0.000000
vt -0.559370 19.562204
vt 0.559370 22.091763
vt -0.000000 20.393702
vt -0.559370 22.091763
vt 0.559370 22.091763
vt 0.000000 20.393702
vt 0.559370 19.562204
vt -0.559370 22.091763
vt -0.559370 19.562204
vt -0.559370 0.000000
vt 0.559370 0.000000
vt 17.222992 10.243464
vt 16.104252 11.362205
vt 16.104252 10.243464
vt 17.222992 11.362205
vt -10.290079 0.000000
vt -11.408819 4.370079
vt -11.408819 0.000000
vt -10.290079 4.370079
vt -16.104252 3.188976
vt -17.222992 0.000000
vt -16.104252 0.000000
vt -17.222992 4.370079
vt -16.104252 4.370079
vt 16.104252 11.362205
vt 17.222992 10.243464
vt 17.222992 11.362205
vt 16.104252 10.243464
vt 17.222992 4.370079
vt 16.104252 0.000000
vt 17.222992 0.000000
vt 16.104252 3.188976
vt 16.104252 4.370079
vt 10.290079 19.562204
vt 11.408819 0.000000
vt 11.408819 19.562204
vt 10.290079 0.000000
vt 10.290079 22.091763
vt 11.408819 22.091763
vt -11.362205 4.370079
vt -10.243464 3.188976
vt -10.243464 4.370079
vt -11.362205 3.188976
vt -10.243464 0.000000
vt -11.362205 0.000000
vt -16.104252 10.243464
vt -17.222992 11.362205
vt -17.222992 10.243464
vt -16.104252 11.362205
vt 11.362205 0.000000
vt 10.243464 3.188976
vt 10.243464 0.000000
vt 11.362205 3.188976
vt 10.243464 4.370079
vt 11.362205 4.370079
vt -16.104252 3.188976
vt -17.222992 0.000000
vt -16.104252 0.000000
vt -17.222992 4.370079
vt -16.104252 4.370079
vt 16.104252 -10.290079
vt 17.222992 -11.408819
vt 17.222992 -10.290079
vt 16.104252 -11.408819
vt -16.104252 3.188976
vt -17.222992 0.000000
vt -16.104252 0.000000
vt -17.222992 4.370079
vt -16.104252 4.370079
vt -16.104252 -11.408819
vt -17.222992 -10.290079
vt -17.222992 -11.408819
vt -16.104252 -10.290079
vt -17.222992 -10.290079
vt -16.104252 -11.408819
vt -16.104252 -10.290079
vt -17.222992 -11.408819
vt 17.222992 4.370079
vt 16.104252 0.000000
vt 17.222992 0.000000
vt 16.104252 3.188976
vt 16.104252 4.370079
vt 10.290079 4.370079
vt 11.408819 0.000000
vt 11.408819 4.370079
vt 10.290079 0.000000
vt 17.222992 4.370079
vt 16.104252 0.000000
vt 17.222992 0.000000
vt 16.104252 3.188976
vt 16.104252 4.370079
vt -10.290079 0.000000
vt -11.408819 3.188976
vt -11.408819 0.000000
vt -10.290079 3.188976
vt -11.408819 4.370079
vt -10.290079 4.370079
vt -17.222992 11.362205
vt -16.104252 10.243464
vt -16.104252 11.362205
vt -17.222992 10.243464
vt -11.362205 4.370079
vt -10.243464 0.000000
vt -10.243464 4.370079
vt -11.362205 0.000000
vt 17.222992 4.370079
vt 16.104252 0.000000
vt 17.222992 0.000000
vt 16.104252 3.188976
vt 16.104252 4.370079
vt 10.290079 4.370079
vt 11.408819 3.188976
vt 11.408819 4.370079
vt 10.290079 3.188976
vt 11.408819 0.000000
vt 10.290079 0.000000
vt 17.222992 -11.408819
vt 16.104252 -10.290079
vt 16.104252 -11.408819
vt 17.222992 -10.290079
vt 11.362205 0.000000
vt 10.243464 4.370079
vt 10.243464 0.000000
vt 11.362205 4.370079
vt -16.104252 3.188976
vt -17.222992 0.000000
vt -16.104252 0.000000
vt -17.222992 4.370079
vt -16.104252 4.370079
vt 0.559370 19.562204
vt -0.559370 19.562204
vt 0.559370 19.562204
vt -0.559370 19.562204
vt 10.243464 3.188976
vt 11.362205 3.188976
vt 0.559370 19.562204
vt -0.559370 19.562204
vt 10.290079 3.188976
vt 11.408819 3.188976
vt -11.362205 3.188976
vt -10.243464 3.188976
vt 0.559370 19.562204
vt -0.559370 19.562204
vt -11.408819 3.188976
vt -10.290079 3.188976
vt 0.000000 20.393702
vt -0.000000 20.393702
vt -0.000000 20.393702
vt 0.000000 20.393702
vt -11.408819 22.091763
vt -10.290079 19.562204
vt -10.290079 22.091763
vt -11.408819 22.091763
vt -10.290079 19.562204
vt -10.290079 22.091763
vt -17.222992 4.370079
vt -16.104252 4.370079
vt -16.104252 3.188976
vt -17.222992 4.370079
vt -16.104252 4.370079
vt -16.104252 3.188976
vt -11.408819 4.370079
vt -10.290079 4.370079
vt -10.290079 3.188976
vt -11.408819 4.370079
vt -10.290079 4.370079
vt -10.290079 3.188976
vt -11.408819 4.370079
vt -10.290079 4.370079
vt -11.408819 4.370079
vt -10.290079 4.370079
vt -10.290079 4.370079
vt -10.290079 3.188976
vt -10.290079 4.370079
vt -10.290079 3.188976
vt -11.408819 4.370079
vt -10.290079 4.370079
vt -11.408819 4.370079
vt -10.290079 4.370079
vt -10.290079 4.370079
vt -10.290079 3.188976
vt -11.408819 4.370079
vt -10.290079 4.370079
vt -11.408819 4.370079
vt -11.408819 4.370079
vt -10.290079 3.188976
vt -10.290079 3.188976
vt -11.408819 4.370079
vt -10.290079 3.188976
vt -10.290079 4.370079
vt -10.290079 3.188976
vn 0.0000 0.0000 1.0000
vn 0.7252 -0.6885 0.0000
vn 0.8297 -0.5582 0.0000
vn -0.8297 -0.5582 -0.0002
vn -0.8297 -0.5582 0.0000
vn 0.0000 -0.0000 -1.0000
vn -1.0000 -0.0000 0.0000
vn 1.0000 -0.0000 -0.0000
vn -0.7252 -0.6885 0.0000
vn -0.9988 -0.0499 0.0000
vn 0.7070 -0.0177 -0.7070
vn 0.0000 1.0000 -0.0000
vn 0.0000 -1.0000 0.0000
vn 0.9999 0.0000 0.0139
usemtl natureKit-mushroom
s off
f 3/1/1 26/2/1 132/3/1 120/4/1
f 15/5/1 14/6/1 84/7/1 100/8/1
f 16/9/1 15/5/1 100/8/1 101/10/1
f 21/11/1 18/12/1 135/13/1 126/14/1
f 5/15/1 2/16/1 137/17/1 109/18/1
f 14/6/1 17/19/1 125/20/1 84/7/1
f 46/21/1 38/22/1 115/23/1 112/24/1
f 20/25/1 13/26/1 104/27/1 116/28/1
f 4/29/1 1/30/1 121/31/1 108/32/1
f 17/19/1 16/9/1 101/10/1 125/20/1
f 85/33/2 132/34/2 120/35/2
f 120/35/2 121/36/2 85/33/2
f 121/36/2 75/37/2 85/33/2
f 121/36/2 108/38/2 75/37/2
f 108/38/2 109/39/2 75/37/2
f 108/38/2 137/40/2 109/39/2
f 102/41/3 77/42/3 85/43/3
f 75/44/3 85/43/3 77/42/3
f 88/45/3 75/44/3 77/42/3
f 93/46/3 75/44/3 88/45/3
f 119/47/3 93/46/3 88/45/3
f 88/45/3 111/48/3 119/47/3
f 94/49/3 75/44/3 93/46/3
f 93/46/3 119/47/3 97/50/3
f 82/51/3 75/44/3 94/49/3
f 102/41/3 85/43/3 78/52/3
f 85/43/3 132/53/3 78/52/3
f 78/52/3 132/53/3 113/54/3
f 132/53/3 89/55/3 113/54/3
f 90/56/3 113/54/3 89/55/3
f 81/57/3 78/52/3 113/54/3
f 97/50/3 119/47/3 81/57/3
f 75/44/3 82/51/3 81/57/3
f 79/58/3 78/52/3 81/57/3
f 119/47/3 79/58/3 81/57/3
f 109/59/3 75/44/3 81/57/3
f 109/59/3 76/60/3 75/44/3
f 92/61/3 75/44/3 76/60/3
f 76/60/3 109/59/3 107/62/3
f 107/62/3 109/59/3 81/57/3
f 78/52/3 103/63/3 102/41/3
f 111/48/3 102/41/3 103/63/3
f 119/47/3 111/48/3 103/63/3
f 128/64/3 85/43/3 92/61/3
f 75/44/3 92/61/3 85/43/3
f 118/65/4 96/66/4 117/67/4
f 117/67/5 96/66/5 126/68/5
f 126/68/5 96/66/5 90/69/5
f 90/69/5 96/66/5 83/70/5
f 73/71/5 83/70/5 96/66/5
f 129/72/5 73/71/5 96/66/5
f 130/73/5 73/71/5 129/72/5
f 80/74/5 73/71/5 130/73/5
f 95/75/5 118/65/5 131/76/5
f 129/72/5 95/75/5 131/76/5
f 130/73/5 129/72/5 131/76/5
f 91/77/5 73/71/5 74/78/5
f 117/67/5 91/77/5 118/65/5
f 131/76/5 118/65/5 91/77/5
f 74/78/5 131/76/5 91/77/5
f 117/67/5 128/79/5 91/77/5
f 92/80/5 91/77/5 128/79/5
f 91/77/5 92/80/5 104/81/5
f 104/81/5 73/71/5 91/77/5
f 76/82/5 104/81/5 92/80/5
f 76/82/5 73/71/5 104/81/5
f 107/83/5 73/71/5 76/82/5
f 126/68/5 90/69/5 89/84/5
f 81/57/3 82/51/3 97/50/3
f 80/74/5 74/78/5 73/71/5
f 83/85/6 86/86/6 123/87/6
f 123/87/6 113/88/6 83/85/6
f 113/88/6 84/89/6 83/85/6
f 84/89/6 100/90/6 83/85/6
f 100/90/6 90/91/6 83/85/6
f 100/90/6 101/92/6 90/91/6
f 113/88/6 90/91/6 101/92/6
f 101/92/6 125/93/6 113/88/6
f 125/93/6 84/89/6 113/88/6
f 81/94/1 134/95/1 133/96/1
f 133/96/1 98/97/1 81/94/1
f 87/98/7 86/99/7 83/100/7
f 83/100/7 73/101/7 87/98/7
f 81/102/8 113/103/8 123/104/8
f 123/104/8 134/105/8 81/102/8
f 112/106/9 135/107/9 126/108/9
f 126/108/9 117/109/9 112/106/9
f 117/109/9 91/110/9 112/106/9
f 91/110/9 115/111/9 112/106/9
f 91/110/9 116/112/9 115/111/9
f 91/110/9 104/113/9 116/112/9
f 99/114/1 136/115/1 87/116/1
f 87/116/1 73/117/1 99/114/1
s 1
f 98/118/10 107/62/10 81/57/10
f 99/119/11 73/71/11 107/83/11
usemtl natureKit-mushroomDark
s off
f 102/41/3 111/48/3 77/42/3
f 88/45/3 77/42/3 111/48/3
f 93/46/3 97/50/3 94/49/3
f 82/51/3 94/49/3 97/50/3
f 78/52/3 79/58/3 103/63/3
f 119/47/3 103/63/3 79/58/3
f 118/65/5 95/75/5 96/66/5
f 129/72/5 96/66/5 95/75/5
f 130/73/5 131/76/5 80/74/5
f 74/78/5 80/74/5 131/76/5
f 98/97/1 133/96/1 136/115/1
f 136/115/1 99/114/1 98/97/1
f 99/114/1 107/120/1 98/97/1
usemtl natureKit-wood
f 25/121/12 30/122/12 22/123/12
f 30/122/12 25/121/12 23/124/12
f 19/125/8 25/126/8 21/127/8
f 25/126/8 19/125/8 23/128/8
f 21/127/8 72/129/8 19/125/8
f 72/129/8 21/127/8 66/130/8
f 5/131/7 71/132/7 7/133/7
f 71/132/7 5/131/7 68/134/7
f 7/133/7 28/135/7 5/131/7
f 28/135/7 7/133/7 29/136/7
f 5/137/6 67/138/6 68/139/6
f 67/138/6 5/137/6 13/140/6
f 28/141/6 9/142/6 5/137/6
f 9/142/6 24/143/6 13/140/6
f 24/143/6 9/142/6 28/141/6
f 25/144/1 8/145/1 21/146/1
f 22/147/1 8/145/1 25/144/1
f 8/145/1 22/147/1 26/148/1
f 69/149/1 21/146/1 26/148/1
f 21/146/1 69/149/1 66/150/1
f 67/151/8 10/152/8 65/153/8
f 10/152/8 67/151/8 13/154/8
f 13/154/8 27/155/8 10/152/8
f 27/155/8 13/154/8 24/156/8
f 27/157/12 28/158/12 29/159/12
f 28/158/12 27/157/12 24/160/12
f 10/161/1 71/162/1 65/163/1
f 71/162/1 10/161/1 7/164/1
f 27/165/1 11/166/1 10/161/1
f 11/166/1 29/167/1 7/164/1
f 29/167/1 11/166/1 27/165/1
f 30/168/6 12/169/6 6/170/6
f 23/171/6 12/169/6 30/168/6
f 12/169/6 23/171/6 19/172/6
f 72/173/6 6/170/6 19/172/6
f 6/170/6 72/173/6 70/174/6
f 31/175/12 32/176/12 33/177/12
f 32/176/12 31/175/12 64/178/12
f 49/179/8 62/180/8 34/181/8
f 62/180/8 49/179/8 35/182/8
f 4/183/1 37/184/1 40/185/1
f 37/184/1 4/183/1 58/186/1
f 58/186/1 4/183/1 36/187/1
f 53/188/13 37/189/13 54/190/13
f 37/189/13 53/188/13 40/191/13
f 31/192/1 39/193/1 63/194/1
f 39/193/1 31/192/1 38/195/1
f 38/195/1 31/192/1 33/196/1
f 6/197/7 69/198/7 26/199/7
f 69/198/7 6/197/7 70/200/7
f 26/199/7 30/201/7 6/197/7
f 30/201/7 26/199/7 22/202/7
f 32/203/7 38/204/7 33/205/7
f 38/204/7 32/203/7 20/206/7
f 20/206/7 39/207/7 38/204/7
f 39/207/7 20/206/7 42/208/7
f 36/209/12 52/210/12 58/211/12
f 52/210/12 36/209/12 55/212/12
f 53/213/8 4/214/8 40/215/8
f 4/214/8 53/213/8 2/216/8
f 2/216/8 36/217/8 4/214/8
f 36/217/8 2/216/8 55/218/8
f 20/219/6 41/220/6 42/221/6
f 41/220/6 20/219/6 64/222/6
f 64/222/6 20/219/6 32/223/6
f 43/224/13 44/225/13 45/226/13
f 44/225/13 43/224/13 56/227/13
f 46/228/6 49/229/6 50/230/6
f 49/229/6 46/228/6 35/231/6
f 35/231/6 46/228/6 60/232/6
f 57/233/12 47/234/12 48/235/12
f 47/234/12 57/233/12 51/236/12
f 49/237/13 59/238/13 50/239/13
f 59/238/13 49/237/13 34/240/13
f 47/241/6 43/242/6 45/243/6
f 43/242/6 47/241/6 1/244/6
f 1/244/6 47/241/6 51/245/6
f 47/246/7 44/247/7 48/248/7
f 44/247/7 47/246/7 45/249/7
f 52/250/6 53/251/6 54/252/6
f 53/251/6 52/250/6 2/253/6
f 2/253/6 52/250/6 55/254/6
f 43/255/8 3/256/8 56/257/8
f 3/256/8 43/255/8 1/258/8
f 1/258/8 57/259/8 3/256/8
f 57/259/8 1/258/8 51/260/8
f 41/261/13 39/262/13 42/263/13
f 39/262/13 41/261/13 63/264/13
f 52/265/7 37/266/7 58/267/7
f 37/266/7 52/265/7 54/268/7
f 62/269/1 59/270/1 34/271/1
f 59/270/1 62/269/1 18/272/1
f 18/272/1 62/269/1 61/273/1
f 60/274/7 18/275/7 61/276/7
f 18/275/7 60/274/7 46/277/7
f 46/277/7 59/278/7 18/275/7
f 59/278/7 46/277/7 50/279/7
f 62/280/12 60/281/12 61/282/12
f 60/281/12 62/280/12 35/283/12
f 41/284/8 31/285/8 63/286/8
f 31/285/8 41/284/8 64/287/8
f 3/288/1 44/289/1 56/290/1
f 44/289/1 3/288/1 48/291/1
f 48/291/1 3/288/1 57/292/1
f 7/164/1 10/161/1 91/293/1 75/294/1
f 13/140/1 5/137/1 109/295/1 104/296/1
f 2/216/1 4/214/1 108/297/1 137/298/1
f 19/172/1 6/170/1 85/299/1 117/300/1
f 18/275/1 46/277/1 112/301/1 135/302/1
f 38/204/1 20/206/1 116/303/1 115/304/1
f 26/148/1 21/146/1 126/305/1 132/306/1
f 1/258/1 3/256/1 120/307/1 121/308/1
f 104/296/1 76/309/1 109/295/1
f 132/306/6 89/310/6 126/305/6
f 75/294/6 92/311/6 91/293/6
f 117/300/1 128/312/1 85/299/1
usemtl natureKit-_defaultMat
f 124/313/13 106/314/13 138/315/13
f 106/316/13 124/317/13 114/318/13
f 110/319/12 105/320/12 122/321/12
f 122/322/12 127/323/12 110/324/12
f 133/325/12 134/326/12 123/327/12
f 123/328/12 138/329/12 133/330/12
f 138/331/12 124/332/12 133/330/12
f 124/333/12 136/334/12 133/330/12
f 124/333/12 87/335/12 136/336/12
f 124/333/12 114/337/12 87/338/12
f 114/339/12 110/340/12 87/338/12
f 110/341/12 127/342/12 87/338/12
f 123/328/12 86/343/12 122/344/12
f 122/345/12 106/346/12 123/327/12
f 106/347/12 138/329/12 123/327/12
f 86/348/12 127/342/12 122/344/12
f 86/348/12 87/335/12 127/349/12
f 114/339/12 106/346/12 105/350/12
f 105/351/12 110/340/12 114/352/12
s 1
f 122/345/14 105/353/14 106/354/14
