# Blender v2.79 (sub 0) OBJ File: 'Fixing models.blend'
# www.blender.org
mtllib lily_large.mtl
o lily_large
v 0.000000 0.165000 1.606110
v 0.000000 0.330000 1.606110
v -1.390932 0.330000 0.803055
v -0.000000 -0.000000 -1.606110
v 1.390932 0.165000 -0.803055
v 1.390932 0.330000 -0.803055
v -0.900000 0.165000 0.000000
v -0.900000 0.330000 0.000000
v -1.390932 0.165000 -0.803055
v 0.000000 0.000000 1.606110
v 1.390932 0.000000 0.803055
v 1.390932 0.165000 0.803055
v 1.390932 0.330000 0.803055
v -1.390932 0.000000 0.803055
v -1.390932 0.165000 0.803055
v -0.000000 0.165000 -1.606110
v -1.390932 -0.000000 -0.803055
v -1.390932 0.330000 -0.803055
v -0.000000 0.330000 -1.606110
v -0.900000 0.000000 0.000000
v 1.390932 -0.000000 -0.803055
v 1.054942 0.733000 0.377010
v 0.890932 0.165000 -0.213000
v 1.054942 0.733000 -0.377010
v 0.300922 0.733000 -0.377010
v 0.890932 0.165000 0.213000
v 0.300922 0.733000 0.377010
v 0.464932 0.165000 -0.213000
v 0.464932 0.165000 0.213000
v 0.000000 0.165000 1.606110
v 0.000000 0.330000 1.606110
v -1.390932 0.330000 0.803055
v -0.000000 -0.000000 -1.606110
v 1.390932 0.165000 -0.803055
v 1.390932 0.330000 -0.803055
v -0.900000 0.165000 0.000000
v -0.900000 0.330000 0.000000
v -1.390932 0.165000 -0.803055
v 0.000000 0.000000 1.606110
v 1.390932 0.000000 0.803055
v 1.390932 0.165000 0.803055
v 1.390932 0.330000 0.803055
v -1.390932 0.000000 0.803055
v -1.390932 0.165000 0.803055
v -0.000000 0.165000 -1.606110
v -1.390932 -0.000000 -0.803055
v -1.390932 0.330000 -0.803055
v -0.000000 0.330000 -1.606110
v -0.900000 0.000000 0.000000
v 1.390932 -0.000000 -0.803055
v 1.054942 0.733000 0.377010
v 0.890932 0.165000 -0.213000
v 1.054942 0.733000 -0.377010
v 0.300922 0.733000 -0.377010
v 0.890932 0.165000 0.213000
v 0.300922 0.733000 0.377010
v 0.464932 0.165000 -0.213000
v 0.464932 0.165000 0.213000
vt 3.161634 0.649606
vt 3.161634 0.000000
vt -3.161634 0.000000
vt -3.161634 0.649606
vt 3.161634 1.299213
vt -3.161634 1.299213
vt 3.161634 0.649606
vt 3.161634 0.000000
vt -3.161634 0.000000
vt -3.161634 0.649606
vt 3.161634 1.299213
vt -3.161634 1.299213
vt -5.553766 0.649606
vt -1.848140 0.649606
vt -1.848140 0.000000
vt -5.553766 0.000000
vt -5.553766 1.299213
vt -1.848140 1.299213
vt 3.161634 0.649606
vt 3.161634 0.000000
vt -3.161634 0.000000
vt -3.161634 0.649606
vt 3.161634 1.299213
vt -3.161634 1.299213
vt 1.848140 0.649606
vt 5.553766 0.649606
vt 5.553766 0.000000
vt 1.848140 0.000000
vt 1.848140 1.299213
vt 5.553766 1.299213
vt 3.161634 0.649606
vt -3.161634 0.649606
vt -3.161634 1.299213
vt 3.161634 1.299213
vt 3.161634 0.000000
vt -3.161634 0.000000
vt 3.543307 0.000000
vt -0.000000 -6.323268
vt 5.476110 -3.161634
vt 0.000000 6.323268
vt -1.830441 0.838583
vt -5.476110 3.161634
vt -3.507607 0.838583
vt -3.507607 -0.838583
vt -1.830441 -0.838583
vt -5.476110 -3.161634
vt 5.476110 3.161634
vt 3.161634 0.649606
vt 3.161634 0.000000
vt -3.161634 0.000000
vt -3.161634 0.649606
vt 3.161634 1.299213
vt -3.161634 1.299213
vt 0.000000 6.323268
vt 5.476110 3.161634
vt 3.543307 0.000000
vt -0.000000 -6.323268
vt 5.476110 -3.161634
vt -5.476110 3.161634
vt -5.476110 -3.161634
vt 3.161634 0.649606
vt 3.161634 0.000000
vt -3.161634 0.000000
vt -3.161634 0.649606
vt 3.161634 1.299213
vt -3.161634 1.299213
vt 3.161634 0.649606
vt 3.161634 0.000000
vt -3.161634 0.000000
vt -3.161634 0.649606
vt 3.161634 1.299213
vt -3.161634 1.299213
vt -5.553766 0.649606
vt -1.848140 0.649606
vt -1.848140 0.000000
vt -5.553766 0.000000
vt -5.553766 1.299213
vt -1.848140 1.299213
vt 3.161634 0.649606
vt 3.161634 0.000000
vt -3.161634 0.000000
vt -3.161634 0.649606
vt 3.161634 1.299213
vt -3.161634 1.299213
vt 1.848140 0.649606
vt 5.553766 0.649606
vt 5.553766 0.000000
vt 1.848140 0.000000
vt 1.848140 1.299213
vt 5.553766 1.299213
vt 3.161634 0.649606
vt -3.161634 0.649606
vt -3.161634 1.299213
vt 3.161634 1.299213
vt 3.161634 0.000000
vt -3.161634 0.000000
vt 3.543307 0.000000
vt -0.000000 -6.323268
vt 5.476110 -3.161634
vt 0.000000 6.323268
vt -1.830441 0.838583
vt -5.476110 3.161634
vt -3.507607 0.838583
vt -3.507607 -0.838583
vt -1.830441 -0.838583
vt -5.476110 -3.161634
vt 5.476110 3.161634
vt 3.161634 0.649606
vt 3.161634 0.000000
vt -3.161634 0.000000
vt -3.161634 0.649606
vt 3.161634 1.299213
vt -3.161634 1.299213
vt 0.000000 6.323268
vt 5.476110 3.161634
vt 3.543307 0.000000
vt -0.000000 -6.323268
vt 5.476110 -3.161634
vt -5.476110 3.161634
vt -5.476110 -3.161634
vt -0.838583 1.597177
vt -1.484291 3.924756
vt 1.484291 3.924756
vt 0.838583 1.597177
vt -1.184733 3.184324
vt -1.830441 0.856746
vt -3.507607 0.856746
vt -4.153315 3.184324
vt 4.153315 3.184324
vt 3.507607 0.856746
vt 1.830441 0.856746
vt 1.184733 3.184324
vt -1.484291 2.443893
vt 1.484291 2.443893
vt 0.838583 0.116315
vt -0.838583 0.116315
vt -0.838583 1.597177
vt -1.484291 3.924756
vt 1.484291 3.924756
vt 0.838583 1.597177
vt -1.184733 3.184324
vt -1.830441 0.856746
vt -3.507607 0.856746
vt -4.153315 3.184324
vt 4.153315 3.184324
vt 3.507607 0.856746
vt 1.830441 0.856746
vt 1.184733 3.184324
vt -1.484291 2.443893
vt 1.484291 2.443893
vt 0.838583 0.116315
vt -0.838583 0.116315
vn 0.5000 0.0000 -0.8660
vn -0.5000 0.0000 0.8660
vn 0.8532 0.0000 -0.5216
vn -0.5000 -0.0000 -0.8660
vn 0.8532 -0.0000 0.5216
vn -1.0000 0.0000 0.0000
vn 0.0000 -1.0000 0.0000
vn 0.5000 0.0000 0.8660
vn -0.0000 1.0000 -0.0000
vn 0.0000 0.0000 1.0000
vn -0.9607 0.2774 -0.0000
vn 0.0000 0.2774 0.9607
vn 0.0000 0.2774 -0.9607
vn 0.9607 0.2774 -0.0000
usemtl natureKit-leavesGreen
s off
f 1/1/1 10/2/1 14/3/1
f 14/3/1 15/4/1 1/1/1
f 2/5/1 1/1/1 15/4/1
f 15/4/1 3/6/1 2/5/1
f 16/7/2 4/8/2 21/9/2
f 21/9/2 5/10/2 16/7/2
f 19/11/2 16/7/2 5/10/2
f 5/10/2 6/12/2 19/11/2
f 9/13/3 7/14/3 20/15/3
f 20/15/3 17/16/3 9/13/3
f 7/14/3 9/13/3 18/17/3
f 18/17/3 8/18/3 7/14/3
f 12/19/4 11/20/4 10/21/4
f 10/21/4 1/22/4 12/19/4
f 13/23/4 12/19/4 1/22/4
f 1/22/4 2/24/4 13/23/4
f 7/25/5 15/26/5 14/27/5
f 14/27/5 20/28/5 7/25/5
f 15/26/5 7/25/5 8/29/5
f 8/29/5 3/30/5 15/26/5
f 5/31/6 12/32/6 13/33/6
f 13/33/6 6/34/6 5/31/6
f 12/32/6 5/31/6 21/35/6
f 21/35/6 11/36/6 12/32/6
f 7/37/7 1/38/7 15/39/7
f 1/38/7 7/37/7 16/40/7
f 1/38/7 16/40/7 28/41/7
f 28/41/7 16/40/7 5/42/7
f 28/41/7 5/42/7 23/43/7
f 23/43/7 5/42/7 26/44/7
f 29/45/7 1/38/7 28/41/7
f 23/43/7 29/45/7 28/41/7
f 29/45/7 23/43/7 26/44/7
f 1/38/7 29/45/7 12/46/7
f 12/46/7 29/45/7 26/44/7
f 12/46/7 26/44/7 5/42/7
f 16/40/7 7/37/7 9/47/7
f 9/48/8 17/49/8 4/50/8
f 4/50/8 16/51/8 9/48/8
f 18/52/8 9/48/8 16/51/8
f 16/51/8 19/53/8 18/52/8
f 4/54/9 17/55/9 20/56/9
f 10/57/9 4/54/9 20/56/9
f 20/56/9 14/58/9 10/57/9
f 10/57/9 21/59/9 4/54/9
f 10/57/9 11/60/9 21/59/9
f 30/61/1 39/62/1 43/63/1
f 43/63/1 44/64/1 30/61/1
f 31/65/1 30/61/1 44/64/1
f 44/64/1 32/66/1 31/65/1
f 45/67/2 33/68/2 50/69/2
f 50/69/2 34/70/2 45/67/2
f 48/71/2 45/67/2 34/70/2
f 34/70/2 35/72/2 48/71/2
f 38/73/3 36/74/3 49/75/3
f 49/75/3 46/76/3 38/73/3
f 36/74/3 38/73/3 47/77/3
f 47/77/3 37/78/3 36/74/3
f 41/79/4 40/80/4 39/81/4
f 39/81/4 30/82/4 41/79/4
f 42/83/4 41/79/4 30/82/4
f 30/82/4 31/84/4 42/83/4
f 36/85/5 44/86/5 43/87/5
f 43/87/5 49/88/5 36/85/5
f 44/86/5 36/85/5 37/89/5
f 37/89/5 32/90/5 44/86/5
f 34/91/6 41/92/6 42/93/6
f 42/93/6 35/94/6 34/91/6
f 41/92/6 34/91/6 50/95/6
f 50/95/6 40/96/6 41/92/6
f 36/97/7 30/98/7 44/99/7
f 30/98/7 36/97/7 45/100/7
f 30/98/7 45/100/7 57/101/7
f 57/101/7 45/100/7 34/102/7
f 57/101/7 34/102/7 52/103/7
f 52/103/7 34/102/7 55/104/7
f 58/105/7 30/98/7 57/101/7
f 52/103/7 58/105/7 57/101/7
f 58/105/7 52/103/7 55/104/7
f 30/98/7 58/105/7 41/106/7
f 41/106/7 58/105/7 55/104/7
f 41/106/7 55/104/7 34/102/7
f 45/100/7 36/97/7 38/107/7
f 38/108/8 46/109/8 33/110/8
f 33/110/8 45/111/8 38/108/8
f 47/112/8 38/108/8 45/111/8
f 45/111/8 48/113/8 47/112/8
f 33/114/9 46/115/9 49/116/9
f 39/117/9 33/114/9 49/116/9
f 49/116/9 43/118/9 39/117/9
f 39/117/9 50/119/9 33/114/9
f 39/117/9 40/120/9 50/119/9
f 19/11/10 6/12/10 35/72/10 48/71/10
f 8/18/10 18/17/10 47/77/10 37/78/10
f 18/52/10 19/53/10 48/113/10 47/112/10
f 13/23/10 2/24/10 31/84/10 42/83/10
f 6/34/10 13/33/10 42/93/10 35/94/10
f 3/30/10 8/29/10 37/89/10 32/90/10
f 2/5/10 3/6/10 32/66/10 31/65/10
usemtl natureKit-mushroom
f 26/121/11 22/122/11 24/123/11
f 24/123/11 23/124/11 26/121/11
f 25/125/12 28/126/12 23/127/12
f 23/127/12 24/128/12 25/125/12
f 22/129/13 26/130/13 29/131/13
f 29/131/13 27/132/13 22/129/13
f 25/133/14 27/134/14 29/135/14
f 29/135/14 28/136/14 25/133/14
f 55/137/11 51/138/11 53/139/11
f 53/139/11 52/140/11 55/137/11
f 54/141/12 57/142/12 52/143/12
f 52/143/12 53/144/12 54/141/12
f 51/145/13 55/146/13 58/147/13
f 58/147/13 56/148/13 51/145/13
f 54/149/14 56/150/14 58/151/14
f 58/151/14 57/152/14 54/149/14
f 24/123/10 22/122/10 51/138/10 53/139/10
f 25/125/10 24/128/10 53/144/10 54/141/10
f 27/134/10 25/133/10 54/149/10 56/150/10
f 22/129/10 27/132/10 56/148/10 51/145/10
