# Blender v2.79 (sub 0) OBJ File: 'Fixing models.blend'
# www.blender.org
mtllib plant_bush.mtl
o plant_bush
v -0.000000 -0.000000 -0.000000
v -0.736499 1.837925 0.720000
v -0.736499 1.837925 -0.720000
v -1.401438 2.444436 -0.720000
v -1.401438 2.444436 0.720000
v -1.980000 2.323006 -0.000000
v 0.000000 1.486724 1.980000
v 0.720000 1.176272 0.736499
v 0.736499 1.837925 0.720000
v 1.980000 2.323006 -0.000001
v -0.720000 1.176272 -0.736499
v -0.720000 1.564439 -1.401439
v 0.720000 1.564439 -1.401439
v 0.720000 1.564439 1.401438
v -0.720000 1.176272 0.736499
v -0.720000 1.564439 1.401438
v 0.720000 1.176272 -0.736499
v 0.736499 1.837925 -0.720000
v 1.401438 2.444436 -0.720001
v 1.401438 2.444436 0.719999
v -0.000000 1.486724 -1.980000
v -0.000000 -0.000000 -0.000000
v -0.736499 1.837925 0.720000
v -0.736499 1.837925 -0.720000
v -1.401438 2.444436 -0.720000
v -1.401438 2.444436 0.720000
v -1.980000 2.323006 -0.000000
v 0.000000 1.486724 1.980000
v 0.720000 1.176272 0.736499
v 0.736499 1.837925 0.720000
v 1.980000 2.323006 -0.000001
v -0.720000 1.176272 -0.736499
v -0.720000 1.564439 -1.401439
v 0.720000 1.564439 -1.401439
v 0.720000 1.564439 1.401438
v -0.720000 1.176272 0.736499
v -0.720000 1.564439 1.401438
v 0.720000 1.176272 -0.736499
v 0.736499 1.837925 -0.720000
v 1.401438 2.444436 -0.720001
v 1.401438 2.444436 0.719999
v -0.000000 1.486724 -1.980000
vt 3.149606 8.661417
vt 0.000000 0.000000
vt -3.149606 8.661417
vt -3.149606 7.798429
vt -3.149606 11.735437
vt 3.149606 11.735437
vt 3.149606 7.798429
vt -3.149606 -3.803363
vt 3.149606 -3.803363
vt 0.000000 -6.389397
vt 3.149606 -5.164876
vt -0.000000 -7.718497
vt -3.149606 -5.164876
vt -3.149606 6.070958
vt 3.149606 6.070958
vt -3.149606 8.661417
vt 3.149606 8.661417
vt 0.000000 -6.389397
vt -3.149606 -3.803363
vt 3.149606 -3.803363
vt -3.149606 5.376502
vt -3.149606 8.744598
vt 3.149606 8.744598
vt 3.149606 5.376502
vt 3.149606 8.744598
vt 3.149606 5.376502
vt -3.149606 5.376502
vt -3.149606 8.744598
vt -3.149606 6.070958
vt 3.149606 6.070958
vt 3.149606 7.798429
vt -3.149606 7.798429
vt -3.149606 11.735437
vt 3.149606 11.735437
vt -3.149606 -5.164876
vt 3.149606 -5.164876
vt 0.000000 -7.718497
vt 3.149606 8.661417
vt 0.000000 0.000000
vt -3.149606 8.661417
vt -3.149606 7.798429
vt -3.149606 11.735437
vt 3.149606 11.735437
vt 3.149606 7.798429
vt -3.149606 -3.803363
vt 3.149606 -3.803363
vt 0.000000 -6.389397
vt 3.149606 -5.164876
vt -0.000000 -7.718497
vt -3.149606 -5.164876
vt -3.149606 6.070958
vt 3.149606 6.070958
vt -3.149606 8.661417
vt 3.149606 8.661417
vt 0.000000 -6.389397
vt -3.149606 -3.803363
vt 3.149606 -3.803363
vt -3.149606 5.376502
vt -3.149606 8.744598
vt 3.149606 8.744598
vt 3.149606 5.376502
vt 3.149606 8.744598
vt 3.149606 5.376502
vt -3.149606 5.376502
vt -3.149606 8.744598
vt -3.149606 6.070958
vt 3.149606 6.070958
vt 3.149606 7.798429
vt -3.149606 7.798429
vt -3.149606 11.735437
vt 3.149606 11.735437
vt -3.149606 -5.164876
vt 3.149606 -5.164876
vt 0.000000 -7.718497
vn -0.9282 -0.3720 0.0000
vn -0.6739 -0.7388 -0.0000
vn 0.2054 -0.9787 0.0000
vn 0.0000 -0.9911 -0.1331
vn 0.0000 -0.5307 0.8476
vn 0.9282 -0.3720 -0.0000
vn -0.2054 -0.9787 -0.0000
vn -0.0000 -0.8636 -0.5041
vn 0.0000 -0.8636 0.5041
vn -0.0000 -0.5307 -0.8476
vn 0.6739 -0.7388 0.0000
vn 0.0000 -0.9911 0.1331
vn 0.0000 0.0000 1.0000
usemtl natureKit-leavesGreen
s off
f 3/1/1 1/2/1 2/3/1
f 2/4/2 5/5/2 4/6/2
f 4/6/2 3/7/2 2/4/2
f 4/8/3 5/9/3 6/10/3
f 14/11/4 7/12/4 16/13/4
f 8/14/5 15/15/5 1/2/5
f 18/16/6 9/17/6 1/2/6
f 10/18/7 20/19/7 19/20/7
f 11/21/8 12/22/8 13/23/8
f 13/23/8 17/24/8 11/21/8
f 16/25/9 15/26/9 8/27/9
f 8/27/9 14/28/9 16/25/9
f 11/29/10 17/30/10 1/2/10
f 9/31/11 18/32/11 19/33/11
f 19/33/11 20/34/11 9/31/11
f 13/35/12 12/36/12 21/37/12
f 24/38/1 22/39/1 23/40/1
f 23/41/2 26/42/2 25/43/2
f 25/43/2 24/44/2 23/41/2
f 25/45/3 26/46/3 27/47/3
f 35/48/4 28/49/4 37/50/4
f 29/51/5 36/52/5 22/39/5
f 39/53/6 30/54/6 22/39/6
f 31/55/7 41/56/7 40/57/7
f 32/58/8 33/59/8 34/60/8
f 34/60/8 38/61/8 32/58/8
f 37/62/9 36/63/9 29/64/9
f 29/64/9 35/65/9 37/62/9
f 32/66/10 38/67/10 22/39/10
f 30/68/11 39/69/11 40/70/11
f 40/70/11 41/71/11 30/68/11
f 34/72/12 33/73/12 42/74/12
f 18/16/13 1/2/13 22/39/13 39/53/13
f 11/29/13 1/2/13 22/39/13 32/66/13
f 17/24/13 13/23/13 34/60/13 38/61/13
f 16/13/13 7/12/13 28/49/13 37/50/13
f 20/19/13 10/18/13 31/55/13 41/56/13
f 7/12/13 14/11/13 35/48/13 28/49/13
f 13/35/13 21/37/13 42/74/13 34/72/13
f 1/2/13 17/30/13 38/67/13 22/39/13
f 12/22/13 11/21/13 32/58/13 33/59/13
f 3/7/13 4/6/13 25/43/13 24/44/13
f 14/28/13 8/27/13 29/64/13 35/65/13
f 5/5/13 2/4/13 23/41/13 26/42/13
f 2/3/13 1/2/13 22/39/13 23/40/13
f 19/33/13 18/32/13 39/69/13 40/70/13
f 10/18/13 19/20/13 40/57/13 31/55/13
f 9/31/13 20/34/13 41/71/13 30/68/13
f 1/2/13 15/15/13 36/52/13 22/39/13
f 1/2/13 3/1/13 24/38/13 22/39/13
f 15/26/13 16/25/13 37/62/13 36/63/13
f 1/2/13 9/17/13 30/54/13 22/39/13
f 21/37/13 12/36/13 33/73/13 42/74/13
f 4/8/13 6/10/13 27/47/13 25/45/13
f 6/10/13 5/9/13 26/46/13 27/47/13
f 8/14/13 1/2/13 22/39/13 29/51/13
