# Blender v2.79 (sub 0) OBJ File: 'Fixing models.blend'
# www.blender.org
mtllib cliffBrown_entrance.mtl
o cliffBrown_entrance
v 7.697063 4.296056 -0.000002
v 9.999999 -0.000001 -4.584223
v -0.000000 10.000000 -0.000002
v 6.414384 9.999999 -4.584225
v 9.999999 9.999999 -4.584225
v -0.000000 -0.000001 -4.584222
v 0.552198 -0.000000 -0.000000
v 3.148269 4.874189 -3.965577
v 8.497064 4.296055 -4.151752
v 9.447802 -0.000000 -0.000001
v 8.497064 4.296056 -0.000002
v 9.447802 -0.000001 -4.425327
v 9.999999 -0.000000 -0.000001
v 7.957304 4.296055 -3.996436
v 7.697063 4.296055 -4.095577
v 7.957304 9.999999 -3.996437
v 1.948269 4.874190 -0.000001
v 1.239546 2.399781 -4.105896
v 6.414384 7.979775 -4.584225
v 4.264214 7.979775 -3.135643
v 6.764214 7.979775 -4.450954
v 9.999999 10.000000 -0.000003
v 2.336769 9.999999 -4.584225
v 2.336769 4.874189 -4.584224
v 4.249727 7.939458 -3.125883
v 4.249727 10.000000 -3.125883
v 1.239546 9.999999 -4.105897
v 1.948269 4.874189 -4.414859
v 0.552197 -0.000001 -4.371135
v -0.000000 9.999999 -4.584224
v 4.264215 7.979775 -0.000002
v 3.148269 4.874190 -0.000001
v 0.000000 0.000000 0.000000
v 6.764215 7.979775 -0.000002
vt -31.327974 15.733994
vt -30.303402 0.000000
vt -30.303402 16.124313
vt -33.453011 0.000000
vt -33.453011 16.345476
vt -9.199881 18.048120
vt -7.670352 0.000000
vt -7.670352 17.381332
vt -12.394762 0.000000
vt -12.394762 15.612505
vt -20.752104 39.370079
vt -20.820879 31.416441
vt -20.752104 31.257711
vt -31.027998 39.370079
vt -31.027998 31.416441
vt -34.457272 39.370079
vt -36.668537 16.913607
vt -34.457272 16.913607
vt -42.825706 39.370079
vt -42.825706 0.000000
vt -40.563484 0.000000
vt 39.370079 0.000000
vt 0.000000 18.048120
vt 0.000000 0.000000
vt 4.880104 16.164942
vt 16.731211 12.306617
vt 9.199881 18.048120
vt 25.253483 18.048120
vt 31.327974 15.733994
vt 39.370079 18.048120
vt -18.048120 39.370079
vt 0.000000 0.000000
vt 0.000000 39.370079
vt -18.048120 0.000000
vt -2.174007 17.209194
vt 0.000000 18.048120
vt -2.174007 0.000000
vt 15.612505 22.250671
vt 0.000000 35.242798
vt 0.000000 22.250671
vt 12.306617 35.074131
vt 12.345043 35.242798
vt -16.345476 9.285626
vt -0.000000 -8.037209
vt -0.000000 9.285626
vt -17.422546 -8.037209
vt -39.370079 18.048120
vt -37.196072 0.000000
vt -37.196072 17.422546
vt -39.370079 0.000000
vt -18.647736 31.416441
vt -23.674248 16.913607
vt -22.577847 16.913607
vt -23.674248 39.370079
vt -17.173891 31.416441
vt -17.173891 39.370079
vt -17.523434 23.917599
vt 0.000000 8.956968
vt 0.000000 23.917599
vt -16.124313 8.956968
vt 17.209194 0.598612
vt -0.000000 20.559956
vt -0.000000 0.598612
vt 16.164942 10.426476
vt 17.381332 20.559956
vt -25.253483 18.048120
vt -16.788248 0.000000
vt -16.788248 12.345043
vt -26.630768 0.000000
vt -26.630768 17.523434
vt 18.048120 0.000000
vt -0.000000 39.370079
vt -0.000000 0.000000
vt 18.048120 39.370079
vt 3.625669 39.370079
vt -0.391730 19.189724
vt 3.625669 19.189724
vt -5.844590 31.257711
vt -5.844590 39.370079
vt -13.977210 19.189724
vt -15.645761 39.370079
vt -15.645761 19.189724
vt 6.497579 0.000000
vt 1.266730 9.447960
vt 4.167321 0.000000
vt 6.497579 39.370079
vt 1.266730 39.370079
vt 16.788248 31.416441
vt 7.670352 19.189724
vt 12.394762 19.189724
vt 2.174007 0.000000
vt 39.370079 39.370079
vt 26.630768 31.416441
vt 33.453011 16.913607
vt 37.196072 0.000000
vt 39.370079 0.000000
vt 30.303402 16.913607
vt -10.933348 39.370079
vt -10.933348 9.447960
vn -0.0000 -1.0000 0.0000
vn -0.5587 -0.0000 -0.8293
vn -0.2765 -0.0000 -0.9610
vn -0.0000 1.0000 -0.0000
vn -1.0000 0.0000 0.0000
vn 0.9411 -0.3382 0.0000
vn -0.9764 -0.2161 0.0000
vn 0.3560 -0.0000 -0.9345
vn -0.9694 -0.2455 0.0000
vn 0.9613 -0.2753 -0.0000
vn 1.0000 -0.0000 0.0000
vn 0.6063 -0.0000 -0.7953
vn -0.3996 -0.0000 -0.9167
vn 0.3600 -0.0000 -0.9329
vn 0.0000 0.0000 1.0000
usemtl natureKit-wood
s off
f 14/1/1 1/2/1 15/3/1
f 1/2/1 14/1/1 11/4/1
f 11/4/1 14/1/1 9/5/1
f 24/6/1 17/7/1 28/8/1
f 17/7/1 24/6/1 32/9/1
f 32/9/1 24/6/1 8/10/1
f 26/11/2 20/12/2 25/13/2
f 4/14/2 20/12/2 26/11/2
f 20/12/2 4/14/2 19/15/2
f 16/16/3 9/17/3 14/18/3
f 5/19/3 9/17/3 16/16/3
f 2/20/3 9/17/3 5/19/3
f 9/17/3 2/20/3 12/21/3
f 22/22/4 30/23/4 3/24/4
f 30/23/4 22/22/4 27/25/4
f 27/25/4 22/22/4 26/26/4
f 27/25/4 26/26/4 23/27/4
f 26/26/4 22/22/4 4/28/4
f 4/28/4 22/22/4 16/29/4
f 16/29/4 22/22/4 5/30/4
f 30/31/5 33/32/5 3/33/5
f 33/32/5 30/31/5 6/34/5
f 29/35/1 33/32/1 6/36/1
f 33/32/1 29/35/1 7/37/1
f 8/38/6 31/39/6 32/40/6
f 31/39/6 8/38/6 25/41/6
f 20/42/6 31/39/6 25/41/6
f 9/43/7 10/44/7 11/45/7
f 10/44/7 9/43/7 12/46/7
f 2/47/1 10/48/1 12/49/1
f 10/48/1 2/47/1 13/50/1
f 21/51/8 14/52/8 15/53/8
f 14/52/8 21/51/8 16/54/8
f 16/54/8 21/51/8 19/55/8
f 16/54/8 19/55/8 4/56/8
f 21/57/9 1/58/9 34/59/9
f 1/58/9 21/57/9 15/60/9
f 29/61/10 17/62/10 7/63/10
f 17/62/10 29/61/10 18/64/10
f 28/65/10 17/62/10 18/64/10
f 19/66/1 31/67/1 20/68/1
f 31/67/1 19/66/1 34/69/1
f 34/69/1 19/66/1 21/70/1
f 2/71/11 22/72/11 13/73/11
f 22/72/11 2/71/11 5/74/11
f 23/75/12 8/76/12 24/77/12
f 8/76/12 23/75/12 25/78/12
f 25/78/12 23/75/12 26/79/12
f 28/80/13 23/81/13 24/82/13
f 6/83/14 18/84/14 29/85/14
f 18/84/14 6/83/14 30/86/14
f 18/84/14 30/86/14 27/87/14
f 31/88/15 17/89/15 32/90/15
f 3/33/15 17/89/15 31/88/15
f 33/32/15 17/89/15 3/33/15
f 17/89/15 33/32/15 7/91/15
f 3/33/15 31/88/15 22/92/15
f 34/93/15 22/92/15 31/88/15
f 11/94/15 22/92/15 34/93/15
f 10/95/15 22/92/15 11/94/15
f 22/92/15 10/95/15 13/96/15
f 34/93/15 1/97/15 11/94/15
s 1
f 27/98/13 28/80/13 18/99/13
f 23/81/13 28/80/13 27/98/13
