# Blender v2.79 (sub 0) OBJ File: 'Fixing models.blend'
# www.blender.org
mtllib cliffBrown_halfCornerInner.mtl
o cliffBrown_halfCornerInner
v 3.779973 4.181818 -3.585617
v 3.660390 4.181818 -7.937537
v 3.379958 4.386363 -8.211843
v 3.421226 4.181818 -8.486149
v 2.658245 4.999999 -8.760454
v 3.136572 4.999999 -10.000001
v 4.249727 5.000000 -1.678233
v 9.999999 5.000000 -3.136575
v 3.136572 4.999999 -7.663232
v 7.957304 5.000000 -2.548787
v 3.136573 5.000000 -3.585617
v 3.301644 4.181818 -8.760454
v 3.779972 4.181817 -10.000001
v 4.464103 -0.000000 -3.270307
v -0.000001 -0.000001 -10.000000
v -0.000001 4.999999 -10.000001
v 1.678231 4.999999 -5.750273
v 2.729102 4.590908 -6.706753
v 2.321630 4.181818 -5.750273
v 2.686216 4.181818 -6.228513
v 3.415386 4.181818 -7.184992
v 3.779972 4.181818 -7.663231
v 3.125880 -0.000001 -5.750273
v 2.824003 5.000000 -2.765132
v 4.584221 -0.000001 -10.000000
v 4.105894 -0.000001 -8.760453
v 6.414384 -0.000001 -4.584223
v 6.803088 4.181818 -3.631894
v 7.185843 4.590909 -3.164381
v 7.957304 4.181818 -3.192186
v 7.568599 4.181818 -3.340267
v 6.414384 4.181818 -3.779974
v 4.249727 4.181818 -2.321632
v 6.414384 5.000000 -3.136575
v 9.999999 -0.000001 -4.584223
v 9.999999 4.181818 -3.779975
v 0.000000 5.000000 -0.000001
v 3.220582 4.528750 -2.833380
v 3.631892 4.181818 -3.196912
v 3.771487 4.181818 -2.686218
v 3.293248 4.590909 -2.729104
v 4.584221 -0.000001 -7.663231
v 4.584221 -0.000000 -3.585616
v 4.249727 0.398559 -3.010486
v 0.000000 0.000000 -0.000000
v 9.999999 5.000000 -0.000002
v 9.999999 -0.000000 -0.000001
v 7.957304 -0.000001 -3.996435
vt 3.392565 2.739431
vt 15.083774 6.585127
vt 4.807881 6.585127
vt 13.668459 2.739431
vt 21.709354 -1.671956
vt 27.434034 2.298914
vt 22.721622 2.298914
vt 22.887457 -1.671956
vt 24.318628 -0.679238
vt 25.243664 -1.671956
vt 26.421766 -1.671956
vt 12.348714 30.170198
vt 10.465534 34.489975
vt 6.607210 22.638868
vt -0.000000 39.370079
vt 12.348714 39.370079
vt 0.000000 0.000000
vt 11.118123 10.886344
vt 16.731211 6.607210
vt 39.370079 0.000000
vt 25.253483 12.348714
vt 31.327974 10.034587
vt 39.370079 12.348714
vt 12.348714 14.116597
vt 36.856995 13.446006
vt 41.175903 17.441111
vt 35.945053 17.441111
vt 42.087845 13.446006
vt 22.009548 21.181484
vt 27.512535 19.281874
vt 31.479807 21.181484
vt 23.545263 17.382263
vt 25.912828 17.382263
vt 30.647959 17.382263
vt 33.015522 17.382263
vt -19.202881 3.705504
vt -19.938730 -0.291907
vt -18.301107 -0.291907
vt -22.002172 1.706799
vt -25.703238 3.705504
vt -24.801464 -0.291907
vt -23.163843 -0.291907
vt -17.567644 18.601692
vt -29.258854 14.755997
vt -18.982960 14.755997
vt -27.843538 18.601692
vt -32.881214 15.113919
vt -41.950115 11.076366
vt -33.581684 11.076366
vt -41.249645 15.113919
vt 14.938113 9.702711
vt 17.587904 12.005108
vt 14.131187 12.005108
vt 16.852055 8.007696
vt 18.489677 8.007696
vt -2.241784 8.525595
vt -3.796964 6.625985
vt -3.320555 6.337351
vt -9.299952 8.525595
vt -7.764235 4.726375
vt -5.396671 4.726375
vt 22.721622 13.029675
vt 20.444019 -7.336880
vt 27.434034 13.029675
vt 25.156431 -7.336880
vt 4.807881 14.908180
vt 1.623421 -5.336405
vt 15.083774 14.908180
vt 11.899314 -5.336405
vt 14.131187 17.300503
vt 17.032125 -1.466770
vt 17.587904 17.300503
vt 18.288490 -3.092319
vt 19.616894 -3.092319
vt -18.048120 0.000000
vt -0.000000 0.000000
vt -12.348714 19.685040
vt -0.000000 19.685040
vt 22.009548 21.083773
vt 25.464909 0.883661
vt 31.479807 21.083773
vt 34.935169 0.883661
vt 35.945053 19.695803
vt 37.996922 -0.694731
vt 41.175903 19.695803
vt 43.227768 -0.694731
vt 39.370079 0.000000
vt 39.370079 19.685040
vt 0.000000 0.000000
vt 0.000000 19.685040
vt -2.241784 15.728077
vt -9.299952 15.728077
vt -6.120024 -2.861846
vt 0.000000 39.370079
vt -18.048120 39.370079
vt -16.164942 34.489975
vt -12.306617 22.638868
vt -18.048120 30.170198
vt -17.575211 12.875224
vt -18.048120 14.116597
vt -39.370079 0.000000
vt -25.253483 18.048120
vt -31.327974 15.733994
vt -39.370079 18.048120
vt 0.000000 0.000000
vt 18.048120 0.000000
vt 0.000000 19.685040
vt 12.348714 19.685040
vt -23.674248 -6.752828
vt -17.173891 -6.752828
vt -25.703238 13.639995
vt -19.202881 13.639995
vt -21.769773 -0.200358
vt -20.498266 1.413375
vt -31.027998 -0.200358
vt -27.843538 20.044228
vt -17.567644 20.044228
vt -42.825706 -1.730926
vt -34.457272 -1.730926
vt -41.249645 18.701893
vt -32.881214 18.701893
vt -39.370079 0.000000
vt -39.370079 19.685040
vn 0.6947 0.5463 -0.4680
vn 0.7436 0.5848 -0.3242
vn 0.0000 1.0000 0.0000
vn 0.7522 0.5915 0.2903
vn 0.6743 0.5302 0.5140
vn 0.2869 0.5922 -0.7530
vn -0.4680 0.5463 -0.6947
vn -0.2206 0.6029 -0.7667
vn 0.7530 0.5922 0.2869
vn 0.5140 0.5302 -0.6743
vn 0.8860 0.2565 -0.3862
vn 0.8064 0.2335 -0.5433
vn 0.9021 0.2612 0.3436
vn 0.0000 -0.0000 -1.0000
vn 0.7750 0.2244 0.5908
vn 0.9007 0.2608 0.3476
vn 0.0000 0.0000 1.0000
vn 0.5908 0.2244 -0.7750
vn 0.0000 -1.0000 0.0000
vn 1.0000 0.0000 0.0000
vn 0.3436 0.2612 -0.9021
vn -0.5433 0.2335 -0.8064
vn -0.2664 0.2681 -0.9258
vn -1.0000 0.0000 0.0000
usemtl natureKit-leavesGreen
s off
f 1/1/1 17/2/1 11/3/1
f 17/2/1 1/1/1 19/4/1
f 22/5/2 5/6/2 9/7/2
f 5/6/2 22/5/2 2/8/2
f 5/6/2 2/8/2 3/9/2
f 5/6/2 3/9/2 4/10/2
f 5/6/2 4/10/2 12/11/2
f 9/12/3 5/13/3 17/14/3
f 5/13/3 16/15/3 17/14/3
f 16/15/3 5/13/3 6/16/3
f 17/14/3 16/15/3 37/17/3
f 37/17/3 24/18/3 17/14/3
f 24/18/3 37/17/3 7/19/3
f 7/19/3 37/17/3 46/20/3
f 7/19/3 46/20/3 34/21/3
f 34/21/3 46/20/3 10/22/3
f 10/22/3 46/20/3 8/23/3
f 11/24/3 17/14/3 24/18/3
f 12/25/4 6/26/4 5/27/4
f 6/26/4 12/25/4 13/28/4
f 17/29/5 18/30/5 9/31/5
f 18/30/5 17/29/5 19/32/5
f 18/30/5 19/32/5 20/33/5
f 9/31/5 18/30/5 21/34/5
f 9/31/5 21/34/5 22/35/5
f 34/36/6 28/37/6 32/38/6
f 28/37/6 34/36/6 29/39/6
f 10/40/6 29/39/6 34/36/6
f 30/41/6 29/39/6 10/40/6
f 31/42/6 29/39/6 30/41/6
f 7/43/7 32/44/7 33/45/7
f 32/44/7 7/43/7 34/46/7
f 10/47/8 36/48/8 30/49/8
f 36/48/8 10/47/8 8/50/8
f 38/51/9 11/52/9 24/53/9
f 11/52/9 38/51/9 39/54/9
f 11/52/9 39/54/9 1/55/9
f 24/56/10 41/57/10 38/58/10
f 7/59/10 41/57/10 24/56/10
f 33/60/10 41/57/10 7/59/10
f 41/57/10 33/60/10 40/61/10
usemtl natureKit-wood
f 9/62/11 42/63/11 5/64/11
f 26/65/11 5/64/11 42/63/11
f 11/66/12 43/67/12 17/68/12
f 23/69/12 17/68/12 43/67/12
f 24/70/13 44/71/13 11/72/13
f 14/73/13 11/72/13 44/71/13
f 43/74/13 11/72/13 14/73/13
f 25/75/14 15/76/14 6/77/14
f 16/78/14 6/77/14 15/76/14
f 17/79/15 23/80/15 9/81/15
f 42/82/15 9/81/15 23/80/15
f 5/83/16 26/84/16 6/85/16
f 25/86/16 6/85/16 26/84/16
f 47/87/17 46/88/17 45/89/17
f 37/90/17 45/89/17 46/88/17
f 24/91/18 7/92/18 44/93/18
f 15/94/19 25/95/19 45/89/19
f 26/96/19 45/89/19 25/95/19
f 23/97/19 45/89/19 26/96/19
f 26/96/19 42/98/19 23/97/19
f 23/97/19 14/99/19 45/89/19
f 23/97/19 43/100/19 14/99/19
f 47/101/19 45/89/19 14/99/19
f 27/102/19 47/101/19 14/99/19
f 48/103/19 47/101/19 27/102/19
f 35/104/19 47/101/19 48/103/19
f 47/105/20 35/106/20 46/107/20
f 8/108/20 46/107/20 35/106/20
f 48/109/21 27/110/21 10/111/21
f 34/112/21 10/111/21 27/110/21
f 14/113/22 44/114/22 27/115/22
f 34/116/22 27/115/22 44/114/22
f 7/117/22 34/116/22 44/114/22
f 35/118/23 48/119/23 8/120/23
f 10/121/23 8/120/23 48/119/23
f 45/89/24 37/90/24 15/122/24
f 16/123/24 15/122/24 37/90/24
