# Blender v2.79 (sub 0) OBJ File: 'Fixing models.blend'
# www.blender.org
mtllib cliffBrown_steps.mtl
o cliffBrown_steps
v -0.000001 3.981817 -8.600705
v 2.786496 4.799999 -7.668108
v 8.577312 4.223364 -8.584577
v 8.058243 3.981817 -8.837941
v 9.112224 3.981817 -8.709171
v 9.999998 3.981817 -8.600706
v 0.000000 10.000000 -0.000002
v 9.999999 10.000000 -0.000003
v 2.786496 2.699999 -7.668108
v 9.999998 6.681818 -7.057786
v 2.786496 3.981817 -8.311508
v 7.544503 3.981817 -8.900706
v 6.538390 4.799999 -5.814386
v -0.000001 4.799999 -6.414386
v 9.999998 4.799999 -6.414387
v 6.538391 8.900001 -1.939549
v -0.000000 8.900001 -1.239548
v 9.999999 8.900000 -4.249730
v 9.999999 8.900001 -1.239549
v 3.914624 8.081818 -4.510673
v 5.043594 8.318265 -4.395690
v 4.566394 8.081818 -4.551636
v 3.384980 8.424826 -4.207651
v 2.825031 8.081818 -4.442194
v 5.550216 8.081818 -4.613467
v 9.999999 8.081818 -4.893129
v -0.000000 9.181818 -1.882948
v -0.000000 8.081818 -4.893128
v 2.044353 8.900000 -3.749730
v 2.044353 8.081818 -4.393129
v 6.538391 9.181818 -2.582948
v 7.914413 9.493110 -2.059900
v 7.385399 9.181818 -2.411668
v 8.529727 9.181818 -2.180264
v 9.999999 9.181818 -1.882949
v 3.838134 1.881817 -10.643401
v 6.191078 2.021962 -10.533193
v 5.800919 1.881817 -10.643401
v 3.398064 2.068396 -10.496679
v 9.999998 2.699998 -10.000001
v -0.000001 1.881817 -10.643400
v 2.952382 1.881817 -10.643401
v 6.549146 1.881817 -10.643401
v 9.999998 1.881817 -10.643401
v -0.000000 7.500000 -4.249729
v -0.000001 6.681818 -7.057786
v 3.710354 6.959707 -6.498776
v 2.905797 6.681818 -6.791133
v 6.538390 7.499999 -5.814386
v 4.767716 6.681818 -6.620273
v 6.538390 6.681818 -6.457786
v 9.999999 -0.000000 -0.000001
v -0.000001 -0.000001 -10.000000
v -0.000001 2.699999 -7.957306
v -0.000001 7.499999 -6.414386
v -0.000001 4.799999 -7.957306
v -0.000001 2.699998 -10.000001
v 9.999999 7.500000 -4.249730
v 9.999998 7.499999 -6.414387
v 0.000000 -0.000000 -0.000000
v 9.999998 -0.000001 -10.000001
v -0.000000 10.000000 -1.239548
v -0.000000 8.900000 -4.249729
v 9.999999 10.000000 -1.239549
v 6.538391 10.000000 -1.939549
v 7.544503 2.699999 -8.257306
v 9.999998 4.799999 -7.957307
v 9.999998 2.699999 -7.957307
v 7.544503 4.799999 -8.257307
v 2.044353 7.500000 -3.749729
vt 0.000000 0.000000
vt 25.741697 7.636010
vt -0.000000 4.880104
vt 39.370079 0.000000
vt 39.370079 4.880104
vt -0.000000 31.327974
vt 39.370079 39.370079
vt -0.000000 39.370079
vt 10.970459 30.189400
vt 29.702774 32.509075
vt 39.370079 31.327974
vt 25.741697 22.891277
vt -0.000000 31.327974
vt -0.000000 25.253483
vt 10.970459 30.189400
vt 29.702774 32.509075
vt 39.370079 25.253483
vt 39.370079 31.327974
vt 25.741697 7.636010
vt -0.000000 16.731211
vt -0.000000 4.880104
vt 8.048637 14.762707
vt 39.370079 16.731211
vt 39.370079 4.880104
vt -0.000000 16.731211
vt 25.741697 22.891277
vt -0.000000 25.253483
vt 8.048637 14.762707
vt 39.370079 16.731211
vt 39.370079 25.253483
vt 3.495506 -8.402355
vt -7.795369 -4.312841
vt -7.533878 -8.402355
vt 3.234015 -4.312841
vt -25.233870 -11.261702
vt -29.420971 -10.055319
vt -27.271507 -11.261702
vt -25.541063 -7.175367
vt -35.280251 -7.175367
vt -31.451895 -11.261702
vt -34.973057 -11.261702
vt -29.705572 8.144104
vt -43.104553 12.219069
vt -43.537159 8.144104
vt -29.272964 12.219069
vt -14.908701 -6.791549
vt -33.472797 -2.705525
vt -33.784096 -6.791549
vt -14.597402 -2.705525
vt -16.495461 14.684444
vt -20.903076 15.867799
vt -19.066549 14.684444
vt -14.339524 16.401114
vt -40.342014 18.779228
vt -8.958775 18.779228
vt -9.117661 14.684444
vt -12.197260 14.684444
vt -22.947504 14.684444
vt -40.500900 14.684444
vt -0.789145 23.936779
vt -26.408297 28.025763
vt -26.677946 23.936779
vt -0.519495 28.025763
vt 4.576687 13.926160
vt -4.310970 17.979595
vt -3.709179 13.926160
vt 3.974896 17.979595
vt -23.215418 19.431471
vt -28.933508 20.978827
vt -26.617592 19.431471
vt -23.717487 23.498463
vt -37.621723 23.498463
vt -31.214014 19.431471
vt -37.119652 19.431471
vt -15.110767 -20.078424
vt -24.374327 -19.376505
vt -22.838270 -20.078424
vt -13.378211 -19.143942
vt -39.370079 -15.980560
vt 0.000000 -15.980560
vt 0.000000 -20.078424
vt -11.623557 -20.078424
vt -25.784048 -20.078424
vt -39.370079 -20.078424
vt 2.539183 3.651696
vt -12.208508 5.041286
vt -8.949033 3.651696
vt 2.307707 7.743018
vt -23.542149 7.743018
vt -16.310225 3.651696
vt -23.310671 3.651696
vt 39.370079 39.370079
vt 0.000000 0.000000
vt 39.370079 0.000000
vt 0.000000 39.370079
vt 0.000000 10.629921
vt -39.370079 0.000000
vt -0.000000 0.000000
vt -39.370079 10.629921
vt -4.880104 39.370079
vt -4.880104 35.039371
vt -39.370079 0.000000
vt -16.731211 29.527559
vt -16.731211 35.039371
vt -31.327974 10.629921
vt -25.253483 18.897638
vt -25.253483 29.527559
vt -31.327974 18.897638
vt -39.370079 10.629921
vt 39.370079 0.000000
vt -0.000000 39.370079
vt -0.000000 0.000000
vt 4.880104 35.039371
vt 16.731211 29.527559
vt 31.327974 10.629921
vt 25.253483 18.897638
vt 39.370079 10.629921
vt 31.327974 18.897638
vt 25.253483 29.527559
vt 16.731211 35.039371
vt 4.880104 39.370079
vt -14.597402 10.629921
vt -33.472797 18.897638
vt -33.472797 10.629921
vt -14.597402 18.897638
vt -0.000000 39.370079
vt -39.370079 0.000000
vt -39.370079 39.370079
vt -0.519495 35.039371
vt -26.408297 39.370079
vt -26.408297 35.039371
vt -0.519495 39.370079
vt 3.974896 29.527559
vt -4.310970 35.039371
vt -4.310970 29.527559
vt 3.974896 35.039371
vt -23.717487 35.039371
vt -37.621723 39.370079
vt -37.621723 35.039371
vt -23.717487 39.370079
vt -29.272964 18.897638
vt -43.104553 29.527559
vt -43.104553 18.897638
vt -29.272964 29.527559
vt -25.541063 10.629921
vt -35.280251 18.897638
vt -35.280251 10.629921
vt -25.541063 18.897638
vt 2.307707 18.897638
vt -23.542149 29.527559
vt -23.542149 18.897638
vt 2.307707 29.527559
vt 3.234015 10.629921
vt -7.795369 18.897638
vt -7.795369 10.629921
vt 3.234015 18.897638
vt -8.958775 29.527559
vt -40.342014 35.039371
vt -40.342014 29.527559
vt -8.958775 35.039371
vn 0.0000 1.0000 0.0000
vn 0.0813 0.6161 -0.7835
vn 0.0956 0.6153 -0.7825
vn -0.1350 0.6125 -0.7789
vn -0.0969 0.6152 -0.7824
vn -0.0493 0.6174 -0.7851
vn -0.0839 0.6160 -0.7833
vn 0.1888 0.6070 -0.7719
vn 0.1570 0.6105 -0.7763
vn 0.0000 0.6181 -0.7861
vn 0.0719 0.6165 -0.7840
vn 0.0000 0.0000 1.0000
vn -0.0000 -0.0000 -1.0000
vn -1.0000 0.0000 0.0000
vn 1.0000 0.0000 -0.0000
vn -0.0099 -0.0000 -1.0000
vn -0.0008 -0.0000 -1.0000
vn 0.0000 -1.0000 0.0000
vn -0.1065 -0.0000 -0.9943
vn 0.0464 -0.0000 -0.9989
vn 0.2376 -0.0000 -0.9714
vn 0.0884 -0.0000 -0.9961
vn 0.1982 -0.0000 -0.9802
vn -0.0400 -0.0000 -0.9992
vn -0.1708 -0.0000 -0.9853
vn 0.1213 -0.0000 -0.9926
vn 0.0914 -0.0000 -0.9958
vn 0.1032 -0.0000 -0.9947
vn -0.0627 -0.0000 -0.9980
usemtl natureKit-leavesGreen
s off
f 7/1/1 65/2/1 62/3/1
f 65/2/1 7/1/1 8/4/1
f 65/2/1 8/4/1 64/5/1
f 54/6/1 40/7/1 57/8/1
f 40/7/1 54/6/1 9/9/1
f 40/7/1 9/9/1 66/10/1
f 40/7/1 66/10/1 68/11/1
f 13/12/1 56/13/1 14/14/1
f 56/13/1 13/12/1 2/15/1
f 2/15/1 13/12/1 69/16/1
f 69/16/1 13/12/1 15/17/1
f 69/16/1 15/17/1 67/18/1
f 16/19/1 63/20/1 17/21/1
f 63/20/1 16/19/1 29/22/1
f 29/22/1 16/19/1 18/23/1
f 18/23/1 16/19/1 19/24/1
f 45/25/1 49/26/1 55/27/1
f 49/26/1 45/25/1 70/28/1
f 49/26/1 70/28/1 58/29/1
f 49/26/1 58/29/1 59/30/1
s 1
f 1/31/2 2/32/2 11/33/2
f 2/32/2 1/31/2 56/34/2
f 12/35/3 3/36/3 4/37/3
f 3/36/3 12/35/3 69/38/3
f 3/36/3 69/38/3 67/39/3
f 67/39/3 5/40/3 3/36/3
f 5/40/3 67/39/3 6/41/3
f 51/42/4 59/43/4 10/44/4
f 59/43/4 51/42/4 49/45/4
f 11/46/5 69/47/5 12/48/5
f 69/47/5 11/46/5 2/49/5
f 20/50/6 21/51/6 22/52/6
f 21/51/6 20/50/6 23/53/6
f 18/54/6 21/51/6 23/53/6
f 23/53/6 29/55/6 18/54/6
f 23/53/6 30/56/6 29/55/6
f 30/56/6 23/53/6 24/57/6
f 18/54/6 25/58/6 21/51/6
f 25/58/6 18/54/6 26/59/6
f 27/60/7 65/61/7 31/62/7
f 65/61/7 27/60/7 62/63/7
f 28/64/8 29/65/8 30/66/8
f 29/65/8 28/64/8 63/67/8
f 31/68/9 32/69/9 33/70/9
f 32/69/9 31/68/9 65/71/9
f 32/69/9 65/71/9 64/72/9
f 64/72/9 34/73/9 32/69/9
f 34/73/9 64/72/9 35/74/9
f 36/75/10 37/76/10 38/77/10
f 37/76/10 36/75/10 39/78/10
f 40/79/10 37/76/10 39/78/10
f 39/78/10 57/80/10 40/79/10
f 39/78/10 41/81/10 57/80/10
f 41/81/10 39/78/10 42/82/10
f 40/79/10 43/83/10 37/76/10
f 43/83/10 40/79/10 44/84/10
f 46/85/11 47/86/11 48/87/11
f 47/86/11 46/85/11 55/88/11
f 47/86/11 55/88/11 49/89/11
f 49/89/11 50/90/11 47/86/11
f 50/90/11 49/89/11 51/91/11
usemtl natureKit-wood
f 8/92/12 60/93/12 52/94/12
f 60/93/12 8/92/12 7/95/12
f 57/96/13 61/97/13 53/98/13
f 61/97/13 57/96/13 40/99/13
f 62/100/14 60/93/14 7/95/14
f 60/93/14 62/100/14 17/101/14
f 60/93/14 17/101/14 53/102/14
f 53/102/14 17/101/14 45/103/14
f 45/103/14 17/101/14 63/104/14
f 53/102/14 45/103/14 54/105/14
f 54/105/14 45/103/14 14/106/14
f 14/106/14 45/103/14 55/107/14
f 54/105/14 14/106/14 56/108/14
f 53/102/14 54/105/14 57/109/14
f 61/110/15 8/111/15 52/112/15
f 8/111/15 61/110/15 19/113/15
f 19/113/15 61/110/15 58/114/15
f 58/114/15 61/110/15 68/115/15
f 58/114/15 68/115/15 15/116/15
f 68/115/15 61/110/15 40/117/15
f 67/118/15 15/116/15 68/115/15
f 59/119/15 58/114/15 15/116/15
f 18/120/15 19/113/15 58/114/15
f 64/121/15 8/111/15 19/113/15
f 9/122/16 69/123/17 66/124/17
f 69/123/17 9/122/16 2/125/16
f 53/126/18 52/127/18 60/93/18
f 52/127/18 53/126/18 61/128/18
f 17/129/19 65/130/20 16/131/20
f 65/130/20 17/129/19 62/132/19
f 45/133/21 29/134/22 70/135/22
f 29/134/22 45/133/21 63/136/21
f 16/137/20 64/138/23 19/139/23
f 64/138/23 16/137/20 65/140/20
f 13/141/24 59/142/25 15/143/25
f 59/142/25 13/141/24 49/144/24
f 66/145/17 67/146/26 68/147/26
f 67/146/26 66/145/17 69/148/17
f 14/149/27 49/150/24 13/151/24
f 49/150/24 14/149/27 55/152/27
f 54/153/28 2/154/16 9/155/16
f 2/154/16 54/153/28 56/156/28
f 70/157/22 18/158/29 58/159/29
f 18/158/29 70/157/22 29/160/22
