# Blender v2.79 (sub 0) OBJ File: 'Fixing models.blend'
# www.blender.org
mtllib fence_strong.mtl
o fence_strong
v 0.700000 0.621049 -0.220500
v 0.700000 3.450273 -0.000001
v 0.700000 2.829224 -0.479501
v 0.700000 2.829224 -0.220501
v 0.700000 -0.000000 -0.700000
v 0.700000 3.450273 -0.700001
v 0.700000 -0.000000 -0.000000
v 0.000000 0.000000 0.000000
v -0.000000 3.450273 -0.000001
v -0.000000 3.450273 -0.700001
v -0.000000 -0.000000 -0.700000
v 5.349999 2.208175 -0.479501
v 9.299999 2.208175 -0.220501
v 5.349999 2.829224 -0.479501
v 9.299999 0.621049 -0.479501
v 5.349999 0.621049 -0.479501
v 9.999999 3.450273 -0.700002
v 9.999999 -0.000000 -0.700001
v 9.999999 3.450273 -0.000002
v 9.999999 -0.000000 -0.000001
v 9.299999 3.450273 -0.000002
v 9.299999 -0.000000 -0.000001
v 9.299999 -0.000000 -0.700001
v 9.299999 3.450273 -0.700001
v 9.299999 2.829224 -0.220501
v 9.299999 1.242098 -0.479501
v 9.299999 0.621049 -0.220501
v 5.349999 -0.000000 -0.000000
v 5.349999 1.242098 -0.220501
v 5.349999 -0.000000 -0.700000
v 4.650000 -0.000000 -0.700000
v 4.650000 2.208175 -0.479501
v 4.650000 -0.000000 -0.000000
v 4.650000 2.829224 -0.479501
v 5.349999 3.450273 -0.000001
v 4.650000 3.450273 -0.700001
v 4.650000 3.450273 -0.000001
v 5.349999 3.450273 -0.700001
v 9.299999 1.242098 -0.220501
v 5.349999 1.242098 -0.479501
v 4.650000 1.242098 -0.220501
v 0.700000 1.242098 -0.479500
v 0.700000 1.242098 -0.220500
v 5.349999 0.621049 -0.220501
v 4.650000 0.621049 -0.220501
v 0.700000 2.208175 -0.220501
v 0.700000 2.208175 -0.479501
v 4.650000 2.208175 -0.220501
v 5.349999 2.208175 -0.220501
v 5.349999 2.829224 -0.220501
v 4.650000 2.829224 -0.220501
v 4.650000 0.621049 -0.479501
v 0.700000 0.621049 -0.479500
v 4.650000 1.242098 -0.479501
v 9.299999 2.829224 -0.479501
v 9.299999 2.208175 -0.479501
vt 2.755906 0.000000
vt 0.000000 2.755906
vt 0.000000 0.000000
vt 2.755906 2.755906
vt 0.000000 0.000000
vt 0.868110 2.445076
vt 0.000000 13.583753
vt 2.755906 0.000000
vt 1.887795 2.445076
vt 1.887795 4.890151
vt 1.887795 8.693602
vt 1.887795 11.138678
vt 0.868110 11.138678
vt 2.755906 13.583753
vt 0.868110 8.693602
vt 0.868110 4.890151
vt 0.000000 13.583753
vt -2.755906 0.000000
vt 0.000000 0.000000
vt -2.755906 13.583753
vt -2.755906 2.755906
vt 0.000000 0.000000
vt 0.000000 2.755906
vt -2.755906 0.000000
vt 2.755906 13.583753
vt 2.755906 0.000000
vt 0.000000 13.583753
vt -2.755906 13.583753
vt -2.755906 0.000000
vt -36.614174 1.887795
vt -21.062992 0.868110
vt -21.062992 1.887795
vt -36.614174 0.868110
vt 36.614174 0.868110
vt 21.062992 1.887795
vt 21.062992 0.868110
vt 36.614174 1.887795
vt -21.062992 4.890151
vt -36.614174 2.445076
vt -21.062992 2.445076
vt -36.614174 4.890151
vt -36.614174 1.887795
vt -21.062992 0.868110
vt -21.062992 1.887795
vt -36.614174 0.868110
vt 39.370079 0.000000
vt 36.614174 2.755906
vt 36.614174 0.000000
vt 39.370079 2.755906
vt 2.755906 0.000000
vt 0.000000 13.583753
vt 0.000000 0.000000
vt 2.755906 13.583753
vt 39.370079 13.583753
vt 36.614174 0.000000
vt 39.370079 0.000000
vt 36.614174 13.583753
vt -39.370079 2.755906
vt -36.614174 0.000000
vt -36.614174 2.755906
vt -39.370079 0.000000
vt -36.614174 13.583753
vt -39.370079 0.000000
vt -36.614174 0.000000
vt -39.370079 13.583753
vt 0.000000 13.583753
vt -0.868110 11.138678
vt 0.000000 0.000000
vt -2.755906 13.583753
vt -1.887795 11.138678
vt -1.887795 8.693602
vt -1.887795 4.890151
vt -1.887795 2.445076
vt -0.868110 2.445076
vt -2.755906 0.000000
vt -0.868110 4.890151
vt -0.868110 8.693602
vt 0.000000 0.000000
vt 0.868110 2.445076
vt 0.000000 13.583753
vt 2.755906 0.000000
vt 1.887795 2.445076
vt 1.887795 4.890151
vt 1.887795 8.693602
vt 1.887795 11.138678
vt 0.868110 11.138678
vt 2.755906 13.583753
vt 0.868110 8.693602
vt 0.868110 4.890151
vt 21.062992 13.583753
vt 18.307087 0.000000
vt 21.062992 0.000000
vt 18.307087 13.583753
vt -18.307087 13.583753
vt -21.062992 0.000000
vt -18.307087 0.000000
vt -21.062992 13.583753
vt -1.887795 8.693602
vt -0.868110 4.890151
vt -0.868110 8.693602
vt -1.887795 4.890151
vt -0.868110 2.445076
vt 0.000000 0.000000
vt -0.868110 11.138678
vt 0.000000 13.583753
vt -2.755906 13.583753
vt -1.887795 11.138678
vt -2.755906 0.000000
vt -1.887795 2.445076
vt 21.062992 0.000000
vt 18.307087 2.755906
vt 18.307087 0.000000
vt 21.062992 2.755906
vt -21.062992 2.755906
vt -18.307087 0.000000
vt -18.307087 2.755906
vt -21.062992 0.000000
vt 36.614174 0.868110
vt 21.062992 1.887795
vt 21.062992 0.868110
vt 36.614174 1.887795
vt 18.307087 0.868110
vt 2.755906 1.887795
vt 2.755906 0.868110
vt 18.307087 1.887795
vt 36.614174 4.890151
vt 21.062992 2.445076
vt 36.614174 2.445076
vt 21.062992 4.890151
vt 18.307087 4.890151
vt 2.755906 2.445076
vt 18.307087 2.445076
vt 2.755906 4.890151
vt -18.307087 1.887795
vt -2.755906 0.868110
vt -2.755906 1.887795
vt -18.307087 0.868110
vt 18.307087 0.868110
vt 2.755906 1.887795
vt 2.755906 0.868110
vt 18.307087 1.887795
vt -18.307087 1.887795
vt -2.755906 0.868110
vt -2.755906 1.887795
vt -18.307087 0.868110
vt 36.614174 11.138678
vt 21.062992 8.693602
vt 36.614174 8.693602
vt 21.062992 11.138678
vt 18.307087 11.138678
vt 2.755906 8.693602
vt 18.307087 8.693602
vt 2.755906 11.138678
vt -2.755906 4.890151
vt -18.307087 2.445076
vt -2.755906 2.445076
vt -18.307087 4.890151
vt -21.062992 8.693602
vt -36.614174 11.138678
vt -36.614174 8.693602
vt -21.062992 11.138678
vt -2.755906 11.138678
vt -18.307087 8.693602
vt -2.755906 8.693602
vt -18.307087 11.138678
vn 0.0000 1.0000 0.0000
vn 1.0000 0.0000 0.0000
vn 0.0000 -0.0000 -1.0000
vn 0.0000 -1.0000 0.0000
vn 0.0000 0.0000 1.0000
vn -1.0000 0.0000 0.0000
vn 0.9045 0.3015 0.3015
usemtl natureKit-wood
s off
f 2/1/1 10/2/1 9/3/1
f 10/2/1 2/1/1 6/4/1
f 7/5/2 1/6/2 2/7/2
f 1/6/2 7/5/2 5/8/2
f 1/6/2 5/8/2 53/9/2
f 53/9/2 5/8/2 42/10/2
f 42/10/2 5/8/2 47/11/2
f 47/11/2 5/8/2 3/12/2
f 4/13/2 2/7/2 1/6/2
f 2/7/2 4/13/2 6/14/2
f 6/14/2 4/13/2 3/12/2
f 6/14/2 3/12/2 5/8/2
f 42/10/2 46/15/2 43/16/2
f 46/15/2 42/10/2 47/11/2
f 10/17/3 5/18/3 11/19/3
f 5/18/3 10/17/3 6/20/3
f 5/21/4 8/22/4 11/23/4
f 8/22/4 5/21/4 7/24/4
f 2/25/5 8/22/5 7/26/5
f 8/22/5 2/25/5 9/27/5
f 10/28/6 8/22/6 9/27/6
f 8/22/6 10/28/6 11/29/6
f 56/30/4 49/31/4 12/32/4
f 49/31/4 56/30/4 13/33/4
f 25/34/1 14/35/1 50/36/1
f 14/35/1 25/34/1 55/37/1
f 40/38/3 15/39/3 16/40/3
f 15/39/3 40/38/3 26/41/3
f 15/42/4 44/43/4 16/44/4
f 44/43/4 15/42/4 27/45/4
f 19/46/1 24/47/1 21/48/1
f 24/47/1 19/46/1 17/49/1
f 18/50/2 19/51/2 20/52/2
f 19/51/2 18/50/2 17/53/2
f 19/54/5 22/55/5 20/56/5
f 22/55/5 19/54/5 21/57/5
f 18/58/4 22/59/4 23/60/4
f 22/59/4 18/58/4 20/61/4
f 24/62/3 18/63/3 23/64/3
f 18/63/3 24/62/3 17/65/3
f 21/66/6 25/67/6 22/68/6
f 25/67/6 21/66/6 24/69/6
f 25/67/6 24/69/6 55/70/6
f 55/70/6 24/69/6 56/71/6
f 56/71/6 24/69/6 26/72/6
f 26/72/6 24/69/6 15/73/6
f 27/74/6 22/68/6 25/67/6
f 22/68/6 27/74/6 23/75/6
f 23/75/6 27/74/6 15/73/6
f 23/75/6 15/73/6 24/69/6
f 56/71/6 39/76/6 13/77/6
f 39/76/6 56/71/6 26/72/6
f 28/78/2 44/79/2 35/80/2
f 44/79/2 28/78/2 30/81/2
f 44/79/2 30/81/2 16/82/2
f 16/82/2 30/81/2 40/83/2
f 40/83/2 30/81/2 12/84/2
f 12/84/2 30/81/2 14/85/2
f 50/86/2 35/80/2 44/79/2
f 35/80/2 50/86/2 38/87/2
f 38/87/2 50/86/2 14/85/2
f 38/87/2 14/85/2 30/81/2
f 40/83/2 49/88/2 29/89/2
f 49/88/2 40/83/2 12/84/2
f 35/90/5 33/91/5 28/92/5
f 33/91/5 35/90/5 37/93/5
f 36/94/3 30/95/3 31/96/3
f 30/95/3 36/94/3 38/97/3
f 32/98/6 41/99/6 48/100/6
f 41/99/6 32/98/6 54/101/6
f 45/102/6 33/103/6 51/104/6
f 37/105/6 51/104/6 33/103/6
f 51/104/6 37/105/6 36/106/6
f 51/104/6 36/106/6 34/107/6
f 34/107/6 36/106/6 32/98/6
f 33/103/6 45/102/6 31/108/6
f 31/108/6 45/102/6 52/109/6
f 31/108/6 52/109/6 32/98/6
f 31/108/6 32/98/6 36/106/6
f 35/110/1 36/111/1 37/112/1
f 36/111/1 35/110/1 38/113/1
f 30/114/4 33/115/4 31/116/4
f 33/115/4 30/114/4 28/117/4
f 39/118/1 40/119/1 29/120/1
f 40/119/1 39/118/1 26/121/1
f 41/122/1 42/123/1 43/124/1
f 42/123/1 41/122/1 54/125/1
f 39/126/5 44/127/5 27/128/5
f 44/127/5 39/126/5 29/129/5
f 41/130/5 1/131/5 45/132/5
f 1/131/5 41/130/5 43/133/5
f 32/134/4 46/135/4 47/136/4
f 46/135/4 32/134/4 48/137/4
f 51/138/1 3/139/1 4/140/1
f 3/139/1 51/138/1 34/141/1
f 52/142/4 1/143/4 53/144/4
f 1/143/4 52/142/4 45/145/4
f 25/146/5 49/147/5 13/148/5
f 49/147/5 25/146/5 50/149/5
f 51/150/5 46/151/5 48/152/5
f 46/151/5 51/150/5 4/153/5
f 42/154/3 52/155/3 53/156/3
f 52/155/3 42/154/3 54/157/3
f 12/158/3 55/159/3 56/160/3
f 55/159/3 12/158/3 14/161/3
f 3/162/3 32/163/3 47/164/3
f 32/163/3 3/162/3 34/165/3
s 1
f 4/13/6 1/6/6 43/16/6
f 4/13/5 43/16/5 46/15/5
f 27/74/6 25/67/6 13/77/6
f 27/74/2 13/77/2 39/76/2
f 50/86/7 44/79/6 29/89/6
f 50/86/7 29/89/6 49/88/6
f 54/101/5 32/98/5 52/109/5
f 45/102/5 48/100/5 41/99/5
f 45/102/4 51/104/4 48/100/4
