# Blender v2.79 (sub 0) OBJ File: 'Fixing models.blend'
# www.blender.org
mtllib fence_simpleLow.mtl
o fence_simpleLow
v 0.700000 -0.000000 -0.000000
v 0.700000 1.550273 -0.700000
v 0.700000 -0.000000 -0.700000
v 0.000000 0.000000 0.000000
v -0.000000 1.550273 -0.000000
v -0.000000 -0.000000 -0.700000
v 9.299999 -0.000000 -0.700001
v 9.999999 -0.000000 -0.700001
v 9.299999 -0.000000 -0.000001
v 9.999999 1.550273 -0.000001
v 9.999999 -0.000000 -0.000001
v 9.999999 1.550273 -0.700001
v -0.206029 1.550273 0.206028
v 10.206027 1.950273 -0.906030
v -0.206029 1.950273 -0.906029
v -0.206029 1.550273 -0.906029
v -0.206029 1.950273 0.206028
v -0.000000 1.550273 -0.700000
v 10.206027 1.550273 -0.906030
v 0.700000 1.550273 -0.000000
v 9.299999 1.550273 -0.700001
v 10.206027 1.550273 0.206027
v 9.299999 1.550273 -0.000001
v 10.206027 1.950273 0.206027
vt 2.755906 0.000000
vt 0.000000 6.103438
vt 0.000000 0.000000
vt 2.755906 6.103438
vt 0.000000 6.103438
vt -2.755906 0.000000
vt 0.000000 0.000000
vt -2.755906 6.103438
vt -2.755906 2.755906
vt 0.000000 0.000000
vt 0.000000 2.755906
vt -2.755906 0.000000
vt 2.755906 6.103438
vt 2.755906 0.000000
vt 0.000000 6.103438
vt -2.755906 6.103438
vt -2.755906 0.000000
vt -2.755906 6.103438
vt 0.000000 0.000000
vt 0.000000 6.103438
vt -2.755906 0.000000
vt -39.370079 2.755906
vt -36.614174 0.000000
vt -36.614174 2.755906
vt -39.370079 0.000000
vt -36.614174 6.103438
vt -39.370079 0.000000
vt -36.614174 0.000000
vt -39.370079 6.103438
vt 39.370079 6.103438
vt 36.614174 0.000000
vt 39.370079 0.000000
vt 36.614174 6.103438
vt 2.755906 0.000000
vt 0.000000 6.103438
vt 0.000000 0.000000
vt 2.755906 6.103438
vt 0.811136 7.678241
vt -3.567042 6.103438
vt 0.811136 6.103438
vt -3.567042 7.678241
vt 3.567042 6.103438
vt -0.811136 7.678241
vt -0.811136 6.103438
vt 3.567042 7.678241
vt 0.811136 7.678241
vt -40.181213 6.103438
vt 0.811136 6.103438
vt -40.181213 7.678241
vt 40.181213 7.678241
vt -0.811136 6.103438
vt 40.181213 6.103438
vt -0.811136 7.678241
vt 0.811136 3.567042
vt 0.000000 2.755905
vt 0.811136 -0.811136
vt -40.181213 3.567042
vt -2.755906 2.755905
vt -2.755906 -0.000000
vt -36.614174 2.755905
vt -39.370079 2.755905
vt -39.370079 -0.000000
vt 0.000000 -0.000000
vt -40.181213 -0.811136
vt -36.614174 -0.000000
vt 40.181213 -0.811136
vt -0.811136 3.567042
vt -0.811136 -0.811136
vt 40.181213 3.567042
vn 1.0000 -0.0000 -0.0000
vn 0.0000 -0.0000 -1.0000
vn 0.0000 -1.0000 0.0000
vn 0.0000 0.0000 1.0000
vn -1.0000 0.0000 0.0000
vn -0.0000 1.0000 -0.0000
usemtl natureKit-wood
s off
f 3/1/1 20/2/1 1/3/1
f 20/2/1 3/1/1 2/4/1
f 18/5/2 3/6/2 6/7/2
f 3/6/2 18/5/2 2/8/2
f 3/9/3 4/10/3 6/11/3
f 4/10/3 3/9/3 1/12/3
f 20/13/4 4/10/4 1/14/4
f 4/10/4 20/13/4 5/15/4
f 18/16/5 4/10/5 5/15/5
f 4/10/5 18/16/5 6/17/5
f 21/18/5 9/19/5 23/20/5
f 9/19/5 21/18/5 7/21/5
f 8/22/3 9/23/3 7/24/3
f 9/23/3 8/22/3 11/25/3
f 21/26/2 8/27/2 7/28/2
f 8/27/2 21/26/2 12/29/2
f 10/30/4 9/31/4 11/32/4
f 9/31/4 10/30/4 23/33/4
f 8/34/1 10/35/1 11/36/1
f 10/35/1 8/34/1 12/37/1
f 17/38/5 16/39/5 13/40/5
f 16/39/5 17/38/5 15/41/5
f 19/42/1 24/43/1 22/44/1
f 24/43/1 19/42/1 14/45/1
f 15/46/2 19/47/2 16/48/2
f 19/47/2 15/46/2 14/49/2
f 24/50/4 13/51/4 22/52/4
f 13/51/4 24/50/4 17/53/4
f 16/54/3 18/55/3 13/56/3
f 18/55/3 16/54/3 19/57/3
f 18/55/3 19/57/3 2/58/3
f 2/58/3 19/57/3 20/59/3
f 20/59/3 19/57/3 21/60/3
f 21/60/3 19/57/3 12/61/3
f 12/61/3 19/57/3 10/62/3
f 5/63/3 13/56/3 18/55/3
f 13/56/3 5/63/3 22/64/3
f 22/64/3 5/63/3 20/59/3
f 22/64/3 10/62/3 19/57/3
f 22/64/3 20/59/3 23/65/3
f 23/65/3 20/59/3 21/60/3
f 22/64/3 23/65/3 10/62/3
f 24/66/6 15/67/6 17/68/6
f 15/67/6 24/66/6 14/69/6
