# Blender v2.79 (sub 0) OBJ File: 'Fixing models.blend'
# www.blender.org
mtllib rock_small9.mtl
o rock_small9
v -0.923463 2.778160 -0.533162
v 0.923463 2.778160 0.533161
v 0.923463 2.778160 -0.533162
v -1.565192 2.056560 -0.903664
v -0.000000 0.649440 -2.068827
v 1.565192 2.056560 0.903663
v -0.000000 2.056560 -1.807328
v -0.000000 2.778160 -1.066324
v 1.791657 0.649440 -1.034414
v 1.791657 0.649440 1.034413
v 1.468571 -0.000000 -0.847880
v 1.565191 2.056560 -0.903664
v -1.565191 2.056560 0.903663
v 0.000000 2.778160 1.066323
v -0.000000 -0.000000 -1.695760
v -1.791657 0.649440 -1.034414
v -1.468571 0.000000 0.847880
v -1.468571 -0.000000 -0.847880
v -0.923463 2.778160 0.533161
v 0.000000 0.000000 1.695760
v 1.468571 0.000000 0.847880
v 0.000000 0.649440 2.068827
v 0.000000 2.056560 1.807327
v -1.791657 0.649440 1.034414
vt 0.000000 -11.635595
vt -10.076721 5.817798
vt -10.076721 -5.817798
vt 0.000000 11.635595
vt 10.076721 -5.817798
vt 10.076721 5.817798
vt 11.287401 15.052761
vt -9.251968 7.137645
vt 9.251968 7.137645
vt -11.287401 15.052761
vt 9.860674 19.441990
vt -11.287401 3.890072
vt 11.287401 3.890072
vt -9.860674 19.441990
vt 11.287401 15.052761
vt -9.251968 7.137645
vt 9.251968 7.137645
vt -11.287401 15.052761
vt 9.860674 5.419216
vt -5.817798 15.956514
vt -9.860674 5.419216
vt 5.817798 15.956514
vt 5.817798 15.956514
vt -9.860674 5.419216
vt 9.860674 5.419216
vt -5.817798 15.956514
vt -9.251968 7.137645
vt 11.287401 15.052761
vt -11.287401 15.052761
vt 9.251968 7.137645
vt 9.860674 19.441990
vt -11.287401 3.890072
vt 11.287401 3.890072
vt -9.860674 19.441990
vt 11.287401 3.890072
vt -9.860674 19.441990
vt -11.287401 3.890072
vt 9.860674 19.441990
vt 5.817798 15.956514
vt -9.860674 5.419216
vt 9.860674 5.419216
vt -5.817798 15.956514
vt 9.860674 19.441990
vt -11.287401 3.890072
vt 11.287401 3.890072
vt -9.860674 19.441990
vt 9.860674 5.419216
vt -5.817798 15.956514
vt -9.860674 5.419216
vt 5.817798 15.956514
vt 9.860674 5.419216
vt -5.817798 15.956514
vt -9.860674 5.419216
vt 5.817798 15.956514
vt -0.000000 18.503937
vt 16.024879 -9.251968
vt 16.024879 9.251968
vt -0.000000 -18.503937
vt -16.024879 9.251968
vt -16.024879 -9.251968
vt -11.287401 15.052761
vt 9.251968 7.137645
vt 11.287401 15.052761
vt -9.251968 7.137645
vt 5.817798 15.956514
vt -9.860674 5.419216
vt 9.860674 5.419216
vt -5.817798 15.956514
vt 11.287401 15.052761
vt -9.251968 7.137645
vt 9.251968 7.137645
vt -11.287401 15.052761
vt 9.860674 19.441990
vt -11.287401 3.890072
vt 11.287401 3.890072
vt -9.860674 19.441990
vt 11.287401 15.052761
vt -9.251968 7.137645
vt 9.251968 7.137645
vt -11.287401 15.052761
vt 9.860674 19.441990
vt -11.287401 3.890072
vt 11.287401 3.890072
vt -9.860674 19.441990
vn -0.0000 1.0000 0.0000
vn -0.4477 -0.4454 0.7754
vn -0.4936 0.1589 -0.8550
vn 0.4477 -0.4454 -0.7754
vn 0.3736 0.6645 0.6471
vn -0.3736 0.6645 -0.6471
vn 0.8953 -0.4454 -0.0000
vn 0.4936 0.1589 -0.8550
vn 0.9873 0.1589 -0.0000
vn 0.3736 0.6645 -0.6471
vn -0.4936 0.1589 0.8550
vn -0.3736 0.6645 0.6471
vn 0.7473 0.6645 -0.0000
vn 0.0000 -1.0000 0.0000
vn -0.8953 -0.4454 0.0000
vn -0.7473 0.6645 -0.0000
vn 0.4477 -0.4454 0.7754
vn 0.4936 0.1589 0.8550
vn -0.4477 -0.4454 -0.7754
vn -0.9873 0.1589 0.0000
usemtl natureKit-leavesGreen
s off
f 14/1/1 1/2/1 19/3/1
f 1/2/1 14/1/1 8/4/1
f 8/4/1 14/1/1 2/5/1
f 8/4/1 2/5/1 3/6/1
usemtl natureKit-wood
f 22/7/2 17/8/2 20/9/2
f 17/8/2 22/7/2 24/10/2
f 4/11/3 5/12/3 16/13/3
f 5/12/3 4/11/3 7/14/3
f 5/15/4 11/16/4 15/17/4
f 11/16/4 5/15/4 9/18/4
f 6/19/5 14/20/5 23/21/5
f 14/20/5 6/19/5 2/22/5
f 1/23/6 7/24/6 4/25/6
f 7/24/6 1/23/6 8/26/6
f 21/27/7 9/28/7 10/29/7
f 9/28/7 21/27/7 11/30/7
f 7/31/8 9/32/8 5/33/8
f 9/32/8 7/31/8 12/34/8
f 9/35/9 6/36/9 10/37/9
f 6/36/9 9/35/9 12/38/9
f 8/39/10 12/40/10 7/41/10
f 12/40/10 8/39/10 3/42/10
f 23/43/11 24/44/11 22/45/11
f 24/44/11 23/43/11 13/46/11
f 23/47/12 19/48/12 13/49/12
f 19/48/12 23/47/12 14/50/12
f 12/51/13 2/52/13 6/53/13
f 2/52/13 12/51/13 3/54/13
f 15/55/14 17/56/14 18/57/14
f 17/56/14 15/55/14 20/58/14
f 20/58/14 15/55/14 11/59/14
f 20/58/14 11/59/14 21/60/14
f 16/61/15 17/62/15 24/63/15
f 17/62/15 16/61/15 18/64/15
f 19/65/16 4/66/16 13/67/16
f 4/66/16 19/65/16 1/68/16
f 10/69/17 20/70/17 21/71/17
f 20/70/17 10/69/17 22/72/17
f 6/73/18 22/74/18 10/75/18
f 22/74/18 6/73/18 23/76/18
f 16/77/19 15/78/19 18/79/19
f 15/78/19 16/77/19 5/80/19
f 13/81/20 16/82/20 24/83/20
f 16/82/20 13/81/20 4/84/20
