# Blender v2.79 (sub 0) OBJ File: 'Fixing models.blend'
# www.blender.org
mtllib rock_large1.mtl
o rock_large1
v -3.061136 0.000000 1.378093
v -2.094267 0.757681 4.492599
v -1.633528 0.000000 3.504227
v -0.602276 -0.000000 -3.235685
v -0.772148 0.757679 -4.148314
v -1.732083 -0.000001 -3.960299
v -3.924533 0.757680 1.766786
v -2.220619 0.757679 -5.077307
v -2.857985 -0.000000 -3.600544
v -2.342801 -0.000000 -2.631416
v -3.664083 0.757679 -4.616083
v 2.159253 0.757681 5.077306
v -2.342801 -0.000000 -0.242839
v -3.664083 1.443199 -4.616083
v 1.684217 0.000001 3.960299
v 2.607189 0.000000 0.536869
v 3.061136 0.000000 2.250741
v -0.772148 1.443199 -4.148314
v -0.532782 2.597759 -2.862337
v 2.159253 1.443201 5.077306
v -3.003591 0.757680 -0.311332
v -3.003591 1.443200 -0.311332
v 3.342550 0.757680 0.688293
v -2.072478 2.597760 -2.327792
v 3.924534 0.757680 2.885565
v -3.924533 1.443200 1.766786
v -2.220619 1.443199 -5.077307
v -3.003591 0.757680 -3.373611
v 3.342550 1.443200 0.688293
v -3.003591 1.443200 -3.373611
v 2.707928 2.597760 1.991040
v -2.094267 1.443201 4.492599
v -2.707928 2.597760 1.219082
v 3.924534 1.443200 2.885565
v 2.306360 2.597760 0.474922
v -2.072478 2.597760 -0.214820
v -1.445044 2.597760 3.099892
v 0.022420 2.597760 3.301617
v 1.824568 2.020480 4.290324
v -1.532227 2.597759 -3.503342
v 2.098906 2.597760 2.747190
v -2.528217 2.597759 -3.185097
vt -6.136030 28.039938
vt 27.960066 41.159004
vt -7.866705 41.159004
vt 21.808851 28.039938
vt 31.529781 28.514631
vt 39.239281 17.430990
vt 50.306770 28.514631
vt -32.293530 17.253906
vt -16.598812 28.305490
vt -41.401962 28.305490
vt -12.947073 17.253906
vt -12.451449 32.600361
vt 30.886997 46.657871
vt -15.963397 46.657871
vt 24.091858 32.600361
vt 6.218724 55.392422
vt 17.748243 39.789066
vt 22.754158 55.392422
vt 4.850605 39.789066
vt -47.889275 11.351775
vt -49.330013 2.695230
vt -37.353634 2.695230
vt 1.825184 33.809643
vt -28.368683 48.121738
vt -22.127571 33.809643
vt 2.339979 48.121738
vt -28.713711 16.802841
vt -3.397222 27.773071
vt -36.812450 27.773071
vt 15.700369 -18.519896
vt 6.218724 -41.023380
vt 22.754158 -41.023380
vt 18.900286 43.214325
vt 25.564375 28.713711
vt 31.185999 39.288727
vt 25.564375 2.649833
vt 17.824875 -38.237717
vt 33.402767 -15.037592
vt 6.571959 35.307423
vt -18.377979 -43.214325
vt -28.449350 -5.858250
vt -33.402767 -24.559830
vt 34.711670 7.118420
vt 31.529781 -9.219150
vt 50.306770 -9.219150
vt 30.886997 15.748032
vt -15.963397 8.267716
vt 30.886997 8.267716
vt -15.963397 15.748032
vt -36.812450 15.748032
vt -3.397222 8.267716
vt -3.397222 15.748032
vt -36.812450 8.267716
vt 10.173124 15.748032
vt 34.976273 8.267716
vt 34.976273 15.748032
vt 10.173124 8.267716
vt -16.598812 8.267716
vt -41.401962 15.748032
vt -41.401962 8.267716
vt -16.598812 15.748032
vt -43.638088 25.028212
vt -47.889275 11.921478
vt -33.043602 25.028212
vt 2.339979 8.267716
vt -28.368683 15.748032
vt -28.368683 8.267716
vt 2.339979 15.748032
vt -7.866705 15.748032
vt 27.960066 8.267716
vt 27.960066 15.748032
vt -7.866705 8.267716
vt 22.754158 15.748032
vt 6.218724 8.267716
vt 22.754158 8.267716
vt 6.218724 15.748032
vt 50.306770 15.748032
vt 31.529781 8.267716
vt 50.306770 8.267716
vt -3.397222 -8.316319
vt -25.400591 7.868549
vt -36.812450 -8.316319
vt -28.368683 -32.598820
vt -8.979902 -11.869414
vt -23.971537 -22.234116
vt 1.614586 -11.869414
vt 2.339979 -32.598820
vt 39.936863 2.464056
vt -20.254589 16.927002
vt -29.354477 2.464056
vt 27.960066 -24.408176
vt -5.428027 -5.310290
vt -7.866705 -24.408176
vt 19.292446 -5.310290
vt -16.598812 -8.964652
vt -28.567354 7.329741
vt -41.401962 -8.964652
vt -11.453180 7.329741
vt 24.133629 9.240986
vt 10.173124 -6.668554
vt 34.976273 -6.668554
vt 30.886997 -30.886988
vt -11.014744 -10.506416
vt -15.963397 -30.886988
vt -22.896492 9.304341
vt 39.936863 18.987684
vt -29.354477 18.987684
vt 31.150753 9.304341
vt 24.593229 17.430990
vt 10.173124 26.422209
vt 27.281494 15.656731
vt 34.976273 26.422209
vt 7.935037 15.656731
vt -63.243607 11.351775
vt -2.649833 16.802841
vt 4.290920 -18.519896
vt 21.755548 7.118420
vt -63.243607 11.921478
vt -63.243607 15.748032
vt -47.889275 8.267716
vt -47.889275 15.748032
vt -63.243607 8.267716
vt 31.529781 15.748032
vt 39.936863 8.267716
vt -29.354477 15.748032
vt -29.354477 8.267716
vt 39.936863 15.748032
vt -2.344083 7.868549
vt 27.556435 16.927002
vt 7.019455 9.240986
vt 5.148642 -10.506416
vt 26.099512 -20.696703
vt 14.394820 -21.629169
vt -9.057315 -21.629169
vt 7.158850 -38.356895
vt -15.768159 -33.825672
vt -22.614639 2.344083
vt -29.548601 -13.302485
vt -22.614639 25.400591
vt -16.719484 38.228058
vt -5.813656 31.233488
vt 0.244642 -36.026867
vt 25.166733 -5.182298
vt 22.903021 -29.977030
vt 29.548601 -21.726002
vt -27.587614 34.755413
vn -0.5232 -0.7764 0.3513
vn 0.4027 -0.6660 -0.6279
vn 0.7232 -0.6636 -0.1915
vn -0.0801 -0.8088 0.5827
vn -0.1613 -0.8481 -0.5047
vn -0.8433 -0.2963 0.4483
vn 0.4499 -0.8163 0.3624
vn -0.7537 -0.6573 0.0000
vn -0.1704 0.8286 -0.5333
vn 0.0000 -1.0000 0.0000
vn 0.4163 0.6367 -0.6491
vn -0.1362 0.0000 0.9907
vn -1.0000 -0.0000 0.0000
vn -0.9142 0.0000 -0.4052
vn 0.9667 0.0000 -0.2560
vn -0.8487 0.2758 0.4512
vn 0.7788 0.0000 0.6273
vn -0.8302 0.0000 0.5575
vn -0.3044 0.0000 -0.9526
vn 0.5399 0.0000 -0.8418
vn -0.7784 0.6278 0.0000
vn 0.4733 0.7941 0.3812
vn 0.6635 0.4911 -0.5644
vn -0.5477 0.7515 0.3677
vn 0.7474 0.6342 -0.1980
vn -0.7240 0.6107 -0.3208
vn -0.0842 0.7861 0.6124
vn 0.6503 -0.5206 -0.5532
vn -0.7021 -0.6405 -0.3112
vn -0.8830 0.0000 0.4694
vn 0.7617 -0.0000 -0.6480
vn -0.0430 0.8267 0.5611
vn -0.0258 0.8421 0.5387
vn 0.0971 0.9264 0.3638
vn 0.0000 1.0000 -0.0000
usemtl natureKit-wood
s off
f 1/1/1 2/2/1 7/3/1
f 2/2/1 1/1/1 3/4/1
f 5/5/2 6/6/2 8/7/2
f 17/8/3 23/9/3 25/10/3
f 23/9/3 17/8/3 16/11/3
f 3/12/4 12/13/4 2/14/4
f 12/13/4 3/12/4 15/15/4
f 8/16/5 9/17/5 11/18/5
f 9/17/5 8/16/5 6/19/5
f 28/20/6 9/21/6 10/22/6
f 17/23/7 12/24/7 15/25/7
f 12/24/7 17/23/7 25/26/7
f 10/27/8 21/28/8 28/29/8
f 42/30/9 27/31/9 14/32/9
f 6/33/10 10/34/10 9/35/10
f 10/34/10 6/33/10 13/36/10
f 3/37/10 13/36/10 6/33/10
f 13/36/10 3/37/10 1/38/10
f 3/37/10 6/33/10 4/39/10
f 3/37/10 4/39/10 15/40/10
f 15/40/10 4/39/10 16/41/10
f 15/40/10 16/41/10 17/42/10
f 40/43/11 18/44/11 27/45/11
f 20/46/12 2/47/12 12/48/12
f 2/47/12 20/46/12 32/49/12
f 30/50/13 21/51/13 22/52/13
f 21/51/13 30/50/13 28/53/13
f 22/54/14 7/55/14 26/56/14
f 7/55/14 22/54/14 21/57/14
f 23/58/15 34/59/15 25/60/15
f 34/59/15 23/58/15 29/61/15
f 42/62/16 30/63/16 24/64/16
f 25/65/17 20/66/17 12/67/17
f 20/66/17 25/65/17 34/68/17
f 26/69/18 2/70/18 32/71/18
f 2/70/18 26/69/18 7/72/18
f 14/73/19 8/74/19 11/75/19
f 8/74/19 14/73/19 27/76/19
f 27/77/20 5/78/20 8/79/20
f 22/80/21 24/81/21 30/82/21
f 20/83/22 41/84/22 39/85/22
f 41/84/22 20/83/22 31/86/22
f 31/86/22 20/83/22 34/87/22
f 18/88/23 35/89/23 29/90/23
f 32/91/24 33/92/24 26/93/24
f 33/92/24 32/91/24 37/94/24
f 29/95/25 31/96/25 34/97/25
f 31/96/25 29/95/25 35/98/25
f 33/99/26 22/100/26 26/101/26
f 20/102/27 37/103/27 32/104/27
s 1
f 16/105/28 5/106/28 23/107/28
f 5/106/28 16/105/28 4/108/28
f 6/6/2 5/5/2 4/109/2
f 21/110/29 1/111/29 7/112/29
f 1/111/29 21/110/29 13/113/29
f 9/21/6 28/20/6 11/114/6
f 21/28/8 10/27/8 13/115/8
f 27/31/9 42/30/9 40/116/9
f 18/44/11 40/43/11 19/117/11
f 30/63/16 42/62/16 14/118/16
f 14/119/30 28/120/30 30/121/30
f 28/120/30 14/119/30 11/122/30
f 5/78/20 27/77/20 18/123/20
f 5/124/31 29/125/31 23/126/31
f 29/125/31 5/124/31 18/127/31
f 24/81/21 22/80/21 36/128/21
f 35/89/23 18/88/23 19/129/23
f 22/100/26 33/99/26 36/130/26
f 37/103/27 20/102/27 38/131/32
f 38/131/32 20/102/27 39/132/33
f 41/133/34 38/134/32 39/135/33
usemtl natureKit-leavesGreen
s off
f 37/136/35 36/137/35 33/138/35
f 36/137/35 37/136/35 24/139/35
f 24/139/35 37/136/35 40/140/35
f 40/140/35 37/136/35 19/141/35
f 19/141/35 37/136/35 38/142/35
f 19/141/35 38/142/35 35/143/35
f 35/143/35 38/142/35 41/144/35
f 35/143/35 41/144/35 31/145/35
f 40/140/35 42/146/35 24/139/35
