# Blender v2.79 (sub 0) OBJ File: 'Fixing models.blend'
# www.blender.org
mtllib rock_large4.mtl
o rock_large4
v -1.927297 4.018410 -3.189779
v -1.033542 0.000001 4.176551
v -0.805447 5.682600 3.347916
v 2.871544 4.018411 3.905209
v 4.283077 0.000000 0.891387
v -1.101026 -0.000000 -3.648749
v 1.545104 -0.000000 -2.939720
v 1.180477 0.000001 3.982260
v 3.561084 -0.000000 -1.813729
v -0.550813 1.473906 -4.745439
v -1.400621 5.682600 -1.519965
v -5.343886 3.121913 1.561489
v 2.906185 5.682600 1.717671
v -2.373827 2.354219 -3.976738
v 3.166874 1.177111 4.283601
v 3.551252 0.000000 2.364911
v -5.343886 2.354220 2.336957
v -2.913545 0.000000 3.691703
v -4.668996 0.000000 1.400481
v -5.076462 0.814863 1.497690
v -2.119390 2.354220 -1.174024
v -1.891092 -0.000000 -3.125971
v -1.687543 -0.000000 -0.883799
v -4.897313 2.354220 0.954319
v -2.285949 5.682600 2.966098
v -1.320473 5.682600 -0.637109
v -3.668367 5.682600 1.161761
v -0.921558 5.682600 -2.772843
v -0.362348 5.682600 -3.142866
v 0.711659 5.682600 3.214783
v 2.812821 5.682600 -1.369429
v 3.381391 5.682600 0.760850
v -3.651892 2.354221 4.545354
v -0.598557 2.354219 -5.151415
v -1.301889 2.354221 5.151414
v 3.514322 2.354221 4.728768
v 4.441395 2.354220 -2.336436
v 5.343886 2.354220 1.044959
vt -24.999838 19.142879
vt -10.033297 40.840694
vt -24.669891 40.840694
vt -20.725134 18.524670
vt 0.281573 46.482208
vt -26.200441 46.482208
vt 30.497591 29.938723
vt -24.274420 12.755280
vt 0.922430 12.755280
vt -29.879522 40.201790
vt 33.112602 40.201790
vt 27.488798 17.735432
vt -19.065634 -2.789214
vt 33.690269 -2.789214
vt -11.948896 38.260075
vt 4.669213 38.260075
vt 15.725471 -5.869252
vt -24.227695 14.997636
vt -29.156418 -5.869252
vt -2.680862 35.864525
vt 8.976619 35.864525
vt 20.174955 43.261356
vt -29.879522 2.780737
vt 33.112602 2.780737
vt -19.510084 43.261356
vt 10.521441 32.165813
vt -15.221748 -10.459223
vt 15.135771 -10.459223
vt -14.281709 32.165813
vt -21.938734 -0.627729
vt -21.449783 16.465576
vt 12.135128 44.313820
vt -26.053848 44.313820
vt 9.101398 16.465576
vt 12.014269 39.814724
vt 18.414278 9.643913
vt 20.635378 34.110233
vt 11.277895 -45.574043
vt 31.792271 -40.283436
vt 50.947544 -15.281887
vt -16.860003 32.077885
vt -12.881228 -43.453964
vt -38.750851 -25.805637
vt -38.858147 19.791193
vt -46.736450 -9.726717
vt 30.338123 30.431170
vt -15.218749 16.585072
vt 9.033219 16.585072
vt -19.065634 44.277267
vt 33.690269 44.277267
vt -2.343610 43.062222
vt -11.951241 15.253577
vt -1.613701 15.253577
vt -23.561867 32.663738
vt -25.571957 43.062222
vt 12.135128 -3.119145
vt -17.536327 38.289875
vt -26.053848 -3.119145
vt 6.522728 38.289875
vt -17.899517 57.497253
vt -14.849218 20.274649
vt -8.226289 57.497253
vt -45.557880 20.274649
vt -36.565311 38.885952
vt 56.650558 27.056496
vt 10.566554 18.370678
vt 48.752998 18.370678
vt 7.209636 56.028568
vt 39.484734 56.028568
vt 15.633890 17.839472
vt -13.354147 17.839472
vt 1.869508 -8.810759
vt 19.207689 43.088638
vt -7.983143 22.337267
vt 21.909702 22.337267
vt -1.668444 19.169861
vt -25.571957 -1.489059
vt -2.343610 -1.489059
vt -15.627136 39.828781
vt -8.310206 39.828781
vt -26.200441 -6.007480
vt 0.612546 35.652843
vt -16.071123 35.652843
vt -26.492243 32.331432
vt 15.725471 46.326199
vt -29.156418 46.326199
vt -5.875313 18.336666
vt 12.077443 18.336666
vt 53.910778 12.949254
vt 8.752004 3.864676
vt 49.736256 3.864676
vt 10.566554 30.110926
vt 48.752998 30.110926
vt -15.221748 49.516163
vt 12.641538 21.136913
vt 15.135771 49.516163
vt -18.854525 21.136913
vt -20.716621 30.959784
vt -14.849218 29.017311
vt -35.836185 2.953121
vt -11.269257 2.953121
vt -45.557880 29.017311
vt 17.468420 32.716354
vt 2.204746 52.412331
vt -13.847725 32.716354
vt 26.333950 38.662697
vt 42.188564 38.662697
vt 34.136333 47.434113
vt 26.333950 25.581453
vt 32.576977 8.784124
vt 42.188564 25.581453
vt 0.460477 18.524670
vt 0.281573 -6.007480
vt -24.944021 -32.365734
vt -14.408853 6.952053
vt -40.028801 -12.677014
vt -8.788951 -36.532089
vt -10.055934 30.256927
vt -3.953898 34.294579
vt 7.765539 -35.079353
vt 30.693184 14.943036
vt 31.711960 -18.743038
vt 36.897346 -8.302319
vt -15.283411 16.585667
vt 17.468420 32.716354
vt 2.204746 52.412331
vt -13.847725 32.716354
vt 17.468420 32.716354
vt 2.204746 52.412331
vt -13.847725 32.716354
vt 17.468420 32.716354
vt -13.847725 32.716354
vt 2.204746 52.412331
vt -13.847725 32.716354
vt 17.468420 32.716354
vt 2.204746 52.412331
vt 2.204746 52.412331
vt -13.847725 32.716354
vt 2.204746 52.412331
vt -13.847725 32.716354
vt 17.468420 32.716354
vt -13.847725 32.716354
vn -0.7817 0.5473 -0.2989
vn -0.2295 -0.3946 0.8897
vn 0.4564 -0.3521 -0.8171
vn 0.0773 0.4660 0.8814
vn 0.7794 0.4926 0.3871
vn 0.4375 0.4416 -0.7833
vn -0.6764 0.5235 0.5182
vn 0.8913 -0.3861 -0.2379
vn 0.0000 -1.0000 0.0000
vn 0.0811 -0.3734 0.9241
vn -0.5098 -0.3829 -0.7704
vn 0.8474 0.4803 -0.2262
vn -0.9717 0.2190 0.0882
vn -0.5866 0.2643 -0.7656
vn 0.3840 0.7319 0.5629
vn 0.2006 -0.6319 -0.7486
vn -0.4851 0.4768 -0.7331
vn -0.2177 0.4899 0.8442
vn 0.8220 -0.3970 0.4083
vn -0.5953 -0.2050 -0.7769
vn -0.7185 -0.4250 0.5505
vn -0.9816 -0.1691 0.0891
vn 0.3675 -0.7581 0.5387
vn -0.9088 -0.2965 -0.2935
vn -0.9516 0.0023 -0.3074
vn -0.0000 1.0000 -0.0000
usemtl natureKit-wood
s off
f 1/1/1 11/2/1 28/3/1
f 18/4/2 35/5/2 33/6/2
f 10/7/3 9/8/3 7/9/3
f 9/8/3 10/7/3 37/10/3
f 37/10/3 10/7/3 34/11/3
f 4/12/4 35/13/4 36/14/4
f 3/15/4 4/12/4 30/16/4
f 38/17/5 4/18/5 36/19/5
f 4/18/5 38/17/5 13/20/5
f 13/20/5 38/17/5 32/21/5
f 29/22/6 37/23/6 34/24/6
f 37/23/6 29/22/6 31/25/6
f 25/26/7 17/27/7 33/28/7
f 17/27/7 25/26/7 27/29/7
f 17/27/7 27/29/7 12/30/7
f 5/31/8 37/32/8 38/33/8
f 37/32/8 5/31/8 9/34/8
f 6/35/9 23/36/9 22/37/9
f 2/38/9 23/36/9 6/35/9
f 18/39/9 23/36/9 2/38/9
f 23/36/9 18/39/9 19/40/9
f 2/38/9 6/35/9 7/41/9
f 2/38/9 7/41/9 8/42/9
f 8/42/9 7/41/9 16/43/9
f 16/43/9 7/41/9 9/44/9
f 16/43/9 9/44/9 5/45/9
f 15/46/10 2/47/10 8/48/10
f 35/49/10 15/46/10 36/50/10
f 14/51/11 6/52/11 22/53/11
f 6/52/11 14/51/11 10/54/11
f 10/54/11 14/51/11 34/55/11
f 37/56/12 32/57/12 38/58/12
f 32/57/12 37/56/12 31/59/12
f 11/60/13 21/61/13 26/62/13
f 21/61/13 11/60/13 14/63/13
f 14/63/13 11/60/13 1/64/13
f 12/65/14 21/66/14 24/67/14
f 21/66/14 12/65/14 26/68/14
f 26/68/14 12/65/14 27/69/14
f 13/70/15 30/71/15 4/72/15
f 10/73/16 7/74/16 6/75/16
f 1/76/17 34/77/17 14/78/17
f 34/77/17 1/76/17 29/79/17
f 29/79/17 1/76/17 28/80/17
f 33/81/18 3/82/18 25/83/18
f 15/84/19 38/85/19 36/86/19
f 38/85/19 15/84/19 16/87/19
f 38/85/19 16/87/19 5/88/19
f 20/89/20 23/90/20 19/91/20
f 23/90/20 20/89/20 21/92/20
f 21/92/20 20/89/20 24/93/20
f 17/94/21 18/95/21 33/96/21
f 18/95/21 17/94/21 19/97/21
f 19/97/21 17/94/21 20/98/21
f 21/99/22 22/100/22 23/101/22
f 22/100/22 21/99/22 14/102/22
f 16/103/23 15/104/23 8/105/23
f 24/106/24 17/107/24 12/108/24
f 24/109/25 20/110/25 17/111/25
s 1
f 35/5/2 18/4/2 2/112/2
f 35/13/4 4/12/4 3/15/4
f 2/47/10 15/46/10 35/49/10
f 3/82/18 33/81/18 35/113/18
usemtl natureKit-leavesGreen
s off
f 25/114/26 26/115/26 27/116/26
f 26/115/26 25/114/26 3/117/26
f 26/115/26 3/117/26 28/118/26
f 28/118/26 3/117/26 29/119/26
f 29/119/26 3/117/26 30/120/26
f 29/119/26 30/120/26 31/121/26
f 31/121/26 30/120/26 13/122/26
f 31/121/26 13/122/26 32/123/26
f 28/118/26 11/124/26 26/115/26
usemtl natureKit-_defaultMat
f 33/125/26 24/126/26 17/127/26
f 24/128/26 33/129/26 21/130/26
f 21/131/26 33/129/26 35/132/26
f 21/131/26 34/133/26 14/134/26
f 34/135/26 21/136/26 35/132/26
f 34/135/26 35/137/26 36/138/26
f 34/135/26 36/139/26 37/140/26
f 37/141/26 36/139/26 38/142/26
