# Blender v2.79 (sub 0) OBJ File: 'Fixing models.blend'
# www.blender.org
mtllib rock_small3.mtl
o rock_small3
v -1.804000 -0.000000 -0.365401
v -0.771544 -0.000000 -1.804000
v -0.439052 1.226720 -0.741201
v 1.199971 -0.000000 -1.102380
v 1.804000 -0.000000 -0.000000
v 0.000000 0.000000 1.804000
v 0.703094 1.226720 -0.157469
v 0.060516 1.226720 0.485109
v -0.680027 1.226720 -0.405431
v 0.582437 1.226720 -0.377675
vt 4.492295 9.146354
vt -15.651986 -7.390085
vt 15.135613 -7.390085
vt -8.146035 9.146354
vt 8.418993 19.685040
vt -0.000000 -19.685040
vt 19.685040 3.987213
vt -13.093949 12.029037
vt -19.685040 0.000000
vt 0.732365 5.781261
vt -11.083837 -10.755177
vt 8.238317 -10.755177
vt -3.777431 5.781261
vt 7.225286 7.304649
vt -8.302955 -9.231789
vt 14.531691 -9.231789
vt -4.605884 7.304649
vt 4.257257 -10.136290
vt -2.179732 6.400148
vt -9.459164 -10.136290
vt 0.560187 6.400148
vt 13.919425 -8.172858
vt -3.276107 8.363580
vt -13.919425 -8.172858
vt 6.639993 8.363580
vt 0.660344 -5.293459
vt -4.790879 8.087894
vt -7.420378 4.424017
vt 6.355485 4.121139
vt 7.672086 1.718283
vn -0.6224 0.5872 0.5176
vn 0.0000 -1.0000 0.0000
vn -0.6576 0.5872 -0.4720
vn 0.2714 0.5872 -0.7626
vn 0.7099 0.5872 -0.3890
vn 0.5724 0.5872 0.5724
vn 0.0000 1.0000 -0.0000
usemtl natureKit-wood
s off
f 8/1/1 1/2/1 6/3/1
f 1/2/1 8/1/1 9/4/1
f 2/5/2 6/6/2 1/7/2
f 6/6/2 2/5/2 4/8/2
f 6/6/2 4/8/2 5/9/2
f 9/10/3 2/11/3 1/12/3
f 2/11/3 9/10/3 3/13/3
f 3/14/4 4/15/4 2/16/4
f 4/15/4 3/14/4 10/17/4
f 4/18/5 7/19/5 5/20/5
f 7/19/5 4/18/5 10/21/5
f 5/22/6 8/23/6 6/24/6
f 8/23/6 5/22/6 7/25/6
usemtl natureKit-leavesGreen
f 8/26/7 3/27/7 9/28/7
f 3/27/7 8/26/7 10/29/7
f 10/29/7 8/26/7 7/30/7
