# Blender v2.79 (sub 0) OBJ File: 'Fixing models.blend'
# www.blender.org
mtllib rock_smallTop2.mtl
o rock_smallTop2
v 0.884591 -0.000000 -3.231307
v 0.654597 1.600000 -2.391167
v 0.641481 0.000000 3.231307
v -2.914399 0.388372 1.737144
v -1.555634 1.600000 1.645987
v 3.110718 0.000000 0.088315
v 2.516653 1.175221 0.071449
v -2.960467 -0.000000 -2.139954
v -3.110717 0.000000 1.854161
v -2.320917 1.329415 -1.677660
v 0.336263 2.800000 1.345772
v 0.397327 1.600000 1.653365
v -0.629440 2.800000 0.991336
v -0.925554 1.600000 1.167836
v -0.603430 2.800000 0.299904
v 0.398833 2.800000 -0.317511
v 0.483038 1.600000 -0.625105
v 1.119828 2.200000 0.541063
v 0.297826 1.900000 -1.082370
v -0.095573 1.900000 -1.267917
v 1.107275 1.600000 -1.716130
v -0.040674 1.900000 -1.699400
v 0.434618 1.600000 -1.903172
v 0.595860 1.900000 -1.399178
v 0.386655 1.900000 -1.780523
v -0.142854 1.600000 -1.793545
v 0.717328 1.600000 -1.387840
v 0.779330 2.800000 0.249890
v -0.789228 1.954933 -0.180084
v -0.266795 2.800000 -0.128584
v -0.266796 1.600000 -2.129646
v 0.474696 1.600000 2.391166
v 1.267885 1.600000 0.545267
v 1.922124 1.600000 0.548793
v -0.872582 1.600000 -0.240335
v -2.212797 1.600000 -0.997373
v -2.272047 1.600000 0.577666
v -0.217041 1.600000 -1.210461
v 0.314580 1.600000 -0.959721
v 0.654017 2.800000 0.941316
vt 6.986788 1.007373
vt -6.823923 -4.766683
vt 8.912061 -4.766683
vt -5.049703 2.182605
vt -1.278882 2.182605
vt 4.998055 2.323403
vt -8.981853 -4.602484
vt 6.754129 -4.602484
vt -8.415005 -2.921346
vt -3.516751 2.323403
vt 7.292514 -3.706347
vt -6.248167 3.093092
vt -8.443469 -3.706347
vt 2.976024 3.093092
vt 5.899838 1.287930
vt 7.265638 -3.591907
vt -7.980919 -5.297194
vt 7.755064 -5.297194
vt 2.608926 1.728183
vt -3.596402 1.728183
vt -6.256801 0.540084
vt 1.395693 5.157009
vt -3.348464 9.973475
vt -4.152212 5.157009
vt -1.323479 9.973475
vt 1.048600 7.565242
vt 3.068344 9.775392
vt -1.836624 4.934835
vt 3.711281 4.934835
vt -0.981627 9.775392
vt 11.655382 8.425016
vt -2.525515 -12.721680
vt 12.246921 -7.299845
vt -3.482644 12.721680
vt -12.246921 -0.347697
vt 3.993295 10.170709
vt -0.816393 5.310971
vt 4.731513 5.310971
vt 1.269198 10.170709
vt -0.591685 6.748372
vt 2.795539 7.165541
vt -2.501442 5.732485
vt 3.046463 5.732485
vt -1.851862 10.577535
vt 0.872236 10.577535
vt 0.984813 5.594166
vt -4.224695 8.003637
vt -4.563092 5.594166
vt -2.525977 10.413108
vt 0.163672 10.413108
vt -2.805768 7.243038
vt -0.757293 8.492818
vt -2.469738 8.492818
vt 8.626189 -3.799671
vt -5.752012 1.204204
vt -7.109794 -3.799671
vt 3.183506 3.012836
vt 6.383380 3.012836
vt -4.904387 6.643984
vt -6.933746 5.381534
vt -4.619631 5.381534
vt -6.616832 6.643984
vt 5.746206 4.340561
vt 3.701237 5.586856
vt 3.432091 4.340561
vt 5.413682 5.586856
vt -1.090514 4.710001
vt -3.078537 3.449890
vt -0.764422 3.449890
vt -2.802959 4.710001
vt -3.618842 -5.602093
vt 4.881737 -2.307432
vt -4.594812 -2.307432
vt 5.914787 6.513413
vt 3.907179 7.753804
vt 3.600672 6.513413
vt 5.619625 7.753804
vt -0.420884 7.532626
vt -3.187379 7.532626
vt -1.309796 4.721749
vt 1.362056 5.481050
vt 2.396133 9.236839
vt 0.250825 9.236839
vt -3.308745 -4.720167
vt 4.576155 -7.464401
vt 5.555176 -4.720167
vt 1.971012 -1.551127
vt -3.093145 -1.551127
vt -0.710348 -8.207748
vt -0.491652 7.243038
vt 1.868881 -9.414042
vt -3.643915 -4.597782
vt -6.124546 -6.480265
vt 1.564280 -6.509314
vt 4.991675 -2.146721
vt 7.567419 -2.160605
vt -3.435362 0.946202
vt -1.050376 8.384432
vt -8.711800 3.926666
vt -8.945067 -2.274276
vt -0.854492 4.765592
vt 1.901727 2.461040
vt 1.238505 3.778428
vt 2.824125 5.463936
vt 4.359352 6.756416
vt -0.562415 7.061201
vt 2.577157 9.414042
vt 1.711095 7.492802
vt 1.323872 -5.298316
vt -2.375708 -1.180726
vt -2.478111 -3.902898
vt -1.050376 0.506236
vt 1.570208 1.250043
vt 2.574871 -3.705970
vt 3.068228 -0.983821
vt 1.172546 4.261297
vt -0.160135 6.690548
vt -0.376272 4.991798
vt 1.522263 7.009933
vt 2.345905 5.508573
vn -0.2475 0.4223 -0.8720
vn -0.3134 0.4157 0.8538
vn 0.7285 0.3765 0.5723
vn -0.8960 0.4428 -0.0337
vn 0.7713 0.1946 0.6060
vn -0.3363 0.2177 0.9162
vn 0.0000 -1.0000 0.0000
vn -0.9715 0.2343 -0.0365
vn -0.2662 0.2218 -0.9380
vn 0.8142 0.1971 -0.5460
vn -0.4031 0.3269 0.8547
vn 0.7680 0.3808 -0.5150
vn -0.9281 0.3532 -0.1181
vn 0.8309 0.3192 -0.4558
vn -0.1748 0.3485 -0.9209
vn 0.4776 0.8616 -0.1718
vn 0.6935 0.3055 0.6524
vn 0.8269 0.5420 0.1499
vn -0.6966 0.4640 -0.5473
vn -0.1952 0.9216 -0.3355
vn -0.5952 0.6975 0.3991
vn 0.0000 1.0000 0.0000
usemtl natureKit-wood
s off
f 10/1/1 1/2/1 8/3/1
f 1/2/1 10/1/1 2/4/1
f 2/4/1 10/1/1 31/5/1
f 32/6/2 9/7/2 3/8/2
f 9/7/2 32/6/2 4/9/2
f 4/9/2 32/6/2 5/10/2
f 6/11/3 32/12/3 3/13/3
f 32/12/3 6/11/3 34/14/3
f 34/14/3 6/11/3 7/15/3
f 4/16/4 8/17/4 9/18/4
f 8/17/4 4/16/4 37/19/4
f 8/17/4 37/19/4 36/20/4
f 8/17/4 36/20/4 10/21/4
f 33/22/5 11/23/5 12/24/5
f 11/23/5 33/22/5 40/25/5
f 40/25/5 33/22/5 18/26/5
f 11/27/6 14/28/6 12/29/6
f 14/28/6 11/27/6 13/30/6
f 8/31/7 3/32/7 9/33/7
f 3/32/7 8/31/7 1/34/7
f 3/32/7 1/34/7 6/35/7
f 13/36/8 35/37/8 14/38/8
f 35/37/8 13/36/8 15/39/8
f 35/37/8 15/39/8 29/40/8
f 29/41/9 17/42/9 35/43/9
f 17/42/9 29/41/9 16/44/9
f 16/44/9 29/41/9 30/45/9
f 17/46/10 18/47/10 33/48/10
f 18/47/10 17/46/10 28/49/10
f 28/49/10 17/46/10 16/50/10
f 38/51/11 19/52/11 20/53/11
f 1/54/12 7/55/12 6/56/12
f 7/55/12 1/54/12 21/57/12
f 21/57/12 1/54/12 2/58/12
f 20/59/13 26/60/13 38/61/13
f 26/60/13 20/59/13 22/62/13
f 23/63/14 24/64/14 27/65/14
f 24/64/14 23/63/14 25/66/14
f 22/67/15 23/68/15 26/69/15
f 23/68/15 22/67/15 25/70/15
f 7/71/16 21/72/16 34/73/16
f 27/74/17 19/75/17 39/76/17
f 19/75/17 27/74/17 24/77/17
f 28/78/18 40/79/18 18/80/18
f 29/81/19 15/82/19 30/83/19
f 31/84/20 10/85/20 36/86/20
f 5/87/21 37/88/21 4/89/21
s 1
f 19/52/11 38/51/11 39/90/11
usemtl natureKit-leavesGreen
s off
f 32/91/22 14/92/22 5/93/22
f 14/92/22 32/91/22 12/94/22
f 12/94/22 32/91/22 33/95/22
f 33/95/22 32/91/22 34/96/22
f 35/97/22 5/93/22 14/92/22
f 31/98/22 5/93/22 35/97/22
f 36/99/22 5/93/22 31/98/22
f 5/93/22 36/99/22 37/100/22
f 31/98/22 35/97/22 38/101/22
f 38/101/22 35/97/22 17/102/22
f 38/101/22 17/102/22 39/103/22
f 39/103/22 17/102/22 27/104/22
f 27/104/22 17/102/22 33/95/22
f 27/104/22 33/95/22 21/105/22
f 21/105/22 33/95/22 34/96/22
f 26/106/22 31/98/22 38/101/22
f 31/98/22 26/106/22 2/107/22
f 2/107/22 27/104/22 21/105/22
f 2/107/22 26/106/22 23/108/22
f 2/107/22 23/108/22 27/104/22
f 11/109/22 15/110/22 13/111/22
f 15/110/22 11/109/22 30/112/22
f 30/112/22 11/109/22 16/113/22
f 16/113/22 11/109/22 40/114/22
f 16/113/22 40/114/22 28/115/22
f 19/116/22 22/117/22 20/118/22
f 22/117/22 19/116/22 25/119/22
f 25/119/22 19/116/22 24/120/22
