# Blender v2.79 (sub 0) OBJ File: 'Fixing models.blend'
# www.blender.org
mtllib rock_tall3.mtl
o rock_tall3
v -0.684292 6.458320 -1.309524
v 1.368583 6.458320 0.665856
v 2.280972 0.000000 1.109761
v 2.280972 -0.000000 -1.524079
v -2.280972 -0.000000 -0.501093
v -2.280972 -0.000000 -1.524078
v 0.422869 0.000000 2.182538
v 0.253721 6.458320 1.309522
v -1.140486 -0.000000 -2.182538
v 1.060421 7.829360 -0.590220
v 1.368583 6.458320 -0.914448
v 0.302315 7.829360 0.922080
v -0.249269 7.829360 0.374619
v -0.557431 6.458320 0.504432
v 0.362443 7.829360 -0.724545
v 1.060421 7.829360 0.484387
v -1.368583 6.458320 -0.914448
v -1.368583 6.458320 -0.300657
v 0.342146 6.458320 -1.111986
vt 7.943901 67.241531
vt -1.130244 -4.044443
vt 13.239835 -4.044443
vt -0.678146 67.241531
vt -9.978340 67.690536
vt -5.467866 -3.481682
vt -3.280720 67.690536
vt -16.630568 -3.481682
vt 12.444853 23.815607
vt 24.889706 5.467866
vt 24.889706 16.630568
vt -4.614292 -23.815607
vt -24.889706 16.630568
vt -24.889706 -12.109591
vt 4.894633 84.425629
vt -12.418072 69.296837
vt 7.767582 69.296837
vt -8.831612 84.425629
vt 16.630568 -3.481682
vt -7.265754 67.690536
vt -12.109591 -3.481682
vt 9.978340 67.690536
vt -12.778995 64.612053
vt -1.373098 64.612053
vt 16.721331 -2.493653
vt 9.300194 68.106995
vt -7.911709 -2.959913
vt 15.500323 -2.959913
vt -4.747025 68.106995
vt -2.389556 80.126877
vt -10.145566 80.126877
vt 9.978340 65.482155
vt -5.285595 80.816025
vt -7.265754 65.482155
vt 6.440390 80.816025
vt 9.429276 82.279861
vt -0.439653 66.943451
vt 12.031140 66.943451
vt 0.949136 82.279861
vt 7.378149 81.019226
vt -4.747025 65.677956
vt 9.300194 65.677956
vt -2.173960 81.019226
vt -0.439653 69.628906
vt 0.000000 0.000000
vt 0.000000 0.000000
vt 0.000000 0.000000
vt 0.000000 0.000000
vt 0.000000 0.000000
vt 0.000000 0.000000
vt 3.298823 -10.061649
vt 3.954942 7.906137
vt -2.719993 -4.087821
vt 11.571192 -5.285595
vt 11.571192 6.440390
vt -6.082624 -5.504322
vt -14.933824 9.978340
vt -14.933824 3.280720
vt -7.466912 14.289364
vt 3.733456 12.133852
vn -0.4943 0.1506 -0.8561
vn -0.9902 0.1399 0.0000
vn 0.0000 -1.0000 0.0000
vn -0.8641 0.1487 -0.4809
vn 0.9902 0.1399 -0.0000
vn 0.9842 0.1772 -0.0000
vn 0.9845 0.1755 -0.0000
vn 0.1857 0.1854 -0.9650
vn 0.1876 0.1185 -0.9751
vn 0.1863 0.1664 -0.9683
vn 0.4925 0.1723 0.8531
vn 0.4958 0.1291 0.8588
vn 0.4925 0.1722 0.8531
vn 0.1822 0.2649 -0.9469
vn 0.9757 0.2193 -0.0000
vn -0.6872 0.2200 0.6924
vn -0.6991 0.1233 0.7043
vn -0.6973 0.1425 0.7025
vn 0.4876 0.2214 0.8445
vn -0.7023 0.0773 0.7076
vn 0.0000 1.0000 -0.0000
usemtl natureKit-wood
s off
f 17/1/1 9/2/1 6/3/1
f 9/2/1 17/1/1 1/4/1
f 17/5/2 5/6/2 18/7/2
f 5/6/2 17/5/2 6/8/2
f 9/9/3 5/10/3 6/11/3
f 5/10/3 9/9/3 7/12/3
f 7/12/3 9/9/3 4/13/3
f 7/12/3 4/13/3 3/14/3
f 13/15/4 19/16/4 14/17/4
f 19/16/4 13/15/4 15/18/4
s 1
f 4/19/5 2/20/6 3/21/5
f 2/20/6 4/19/5 11/22/7
f 11/23/8 4/19/9 19/24/10
f 9/25/9 19/24/10 4/19/9
f 2/26/11 7/27/12 3/28/12
f 7/27/12 2/26/11 8/29/13
f 15/30/14 11/23/8 19/24/10
f 11/23/8 15/30/14 10/31/14
f 11/32/7 16/33/15 2/34/6
f 16/33/15 11/32/7 10/35/15
f 12/36/16 14/37/17 8/38/18
f 14/37/17 12/36/16 13/39/16
f 16/40/19 8/41/13 2/42/11
f 8/41/13 16/40/19 12/43/19
f 18/7/20 5/6/20 14/44/17
f 5/6/20 7/12/20 14/44/17
f 14/45/17 7/46/20 8/47/18
f 1/48/9 19/49/10 9/50/9
usemtl natureKit-leavesGreen
s off
f 12/51/21 15/52/21 13/53/21
f 15/52/21 12/51/21 16/54/21
f 15/52/21 16/54/21 10/55/21
f 14/56/21 17/57/21 18/58/21
f 17/57/21 14/56/21 1/59/21
f 1/59/21 14/56/21 19/60/21
