# Blender v2.79 (sub 0) OBJ File: 'Fixing models.blend'
# www.blender.org
mtllib rock_large6.mtl
o rock_large6
v -4.381835 0.000000 0.434277
v 0.517523 -0.000000 -3.129460
v 2.577499 2.110679 -4.494912
v 3.017828 2.588291 -4.389090
v -3.450098 3.450150 -2.523353
v 2.591593 -0.000001 -3.783931
v -1.050196 2.110681 4.494911
v -0.647131 4.789620 2.729677
v 3.791973 2.110680 0.444603
v 2.855861 4.789620 -0.582021
v 4.426201 3.450150 -1.800740
v -5.477293 2.110680 0.568957
v -3.898675 -0.000000 -1.032415
v -0.840157 0.000000 3.575040
v 3.707706 -0.000000 -2.536923
v 5.477293 2.110680 -2.203559
v 4.929564 1.055340 -1.993648
v 2.730123 4.789619 -2.118546
v 4.050211 2.110679 -3.798003
v 0.646903 2.110679 -3.885715
v 0.398622 4.789619 -2.434464
v -1.116090 4.789619 -2.191699
v -3.842455 1.055340 -2.798440
v 2.217587 0.000000 2.525759
v 3.033578 0.000000 0.334794
v 3.707707 -0.000000 -0.724471
v -1.448996 -0.000000 -2.814284
v 3.017828 1.388560 -4.389090
v -3.002955 4.789620 -0.819215
v -3.375108 4.789620 0.310504
v 1.708096 4.789620 1.921468
v 1.996174 4.789619 -2.938570
v 2.336614 4.789620 0.233878
v -4.269395 2.110679 -3.097773
v 2.771983 2.110680 3.183309
vt 21.754446 48.235836
vt 7.905342 30.618366
vt 27.682611 30.618366
vt 42.541893 11.265597
vt 9.167700 -39.010422
vt 47.814079 -4.738772
vt 15.811280 30.709139
vt -5.647151 34.148308
vt -24.198050 -27.560789
vt -28.279163 41.289810
vt -33.102058 -3.653234
vt -40.458069 27.682611
vt -40.458069 7.905342
vt -41.581360 3.870403
vt -12.141982 36.407051
vt -45.815983 9.671156
vt -30.421574 36.407051
vt -4.219157 12.513562
vt 14.248145 -10.601978
vt 21.240805 12.513562
vt 10.824095 32.427845
vt -26.759012 -1.283942
vt 17.335476 -1.283942
vt -16.346930 32.427845
vt -39.393417 9.493660
vt -19.491001 33.698517
vt -45.815983 25.417398
vt -41.581360 33.698517
vt 23.968948 -2.779260
vt -25.306696 31.203754
vt -40.597980 -2.779260
vt 14.479445 31.203754
vt 11.536345 36.494408
vt 52.374855 3.804528
vt 22.089376 36.494408
vt 42.508633 20.149467
vt -17.529102 44.261272
vt 19.461012 18.783459
vt 24.596882 44.261272
vt 2.610618 18.783459
vt -15.884439 31.522366
vt 19.023924 12.874832
vt -40.597980 37.613495
vt -32.629620 12.874832
vt 23.968948 37.613495
vt -17.382200 10.800956
vt 9.895007 35.239719
vt -21.994757 35.239719
vt 9.895007 1.161281
vt -13.143261 34.335571
vt -21.994757 1.161281
vt -6.355028 22.404699
vt -21.943417 48.357395
vt -19.664152 35.381046
vt 1.406015 48.357395
vt 11.906450 22.404699
vt 13.725015 39.478294
vt -2.642570 17.873241
vt 13.725015 -12.668457
vt 9.366052 17.873241
vt -17.569510 -0.710847
vt 1.406015 -19.294935
vt -21.943417 -19.294935
vt 15.644786 -15.148170
vt 20.610567 8.165407
vt 3.788135 8.165407
vt 32.815281 18.101379
vt -13.679935 1.625660
vt 40.650776 1.625660
vt -8.498797 34.577099
vt 8.240494 34.577099
vt -5.277677 27.223267
vt 27.776476 27.223267
vt 15.944736 46.311398
vt 17.335476 36.685505
vt -21.333227 12.047819
vt 13.942364 12.047819
vt -26.759012 36.685505
vt 52.374855 33.654247
vt 14.690608 9.393392
vt 28.391396 9.393392
vt 36.567661 22.858149
vt -10.980020 10.679771
vt 10.752264 10.679771
vt -13.679935 35.036526
vt 40.650776 35.036526
vt 14.741146 22.781254
vt -17.529102 -13.156651
vt 24.596882 -13.156651
vt 1.762130 22.781254
vt -14.372993 4.812302
vt -9.279844 38.657253
vt -22.221397 33.348373
vt -4.442848 33.348373
vt -4.442848 15.667788
vt -22.221397 15.667788
vt -9.279844 7.723454
vt -19.491001 3.870403
vt -15.661392 9.493660
vt 18.122887 3.804528
vt 8.129611 10.800956
vt 6.507212 34.335571
vt 18.122887 33.654247
vt 47.233521 21.523819
vt -7.061421 -29.785933
vt -32.767895 8.939171
vt -36.828793 -3.388195
vt -12.178638 23.915558
vt 4.349718 26.564581
vt 18.638548 -20.966852
vt 21.782024 32.065319
vt 25.496861 -2.552059
vt 29.790789 23.117321
vt 31.162827 6.350934
vt -17.529102 -13.156651
vt 1.762130 22.781254
vt -14.372993 4.812302
vt 1.762130 22.781254
vt -14.372993 4.812302
vt -17.529102 -13.156651
vt -14.372993 4.812302
vt 1.762130 22.781254
vt -14.372993 4.812302
vt -17.529102 -13.156651
vt -14.372993 4.812302
vt -17.529102 -13.156651
vt -14.372993 4.812302
vt 1.762130 22.781254
vt -14.372993 4.812302
vn 0.6537 -0.7568 -0.0000
vn -0.0000 -1.0000 0.0000
vn -0.2704 0.4391 -0.8568
vn -0.3719 0.7747 -0.5113
vn 0.2814 0.4981 0.8202
vn -0.2863 -0.3076 -0.9074
vn -0.5707 0.5100 0.6436
vn 0.7544 0.4476 0.4801
vn -0.8586 -0.4276 -0.2828
vn -0.6177 -0.3650 0.6966
vn 0.8832 -0.3344 0.3289
vn 0.8258 0.4728 0.3075
vn 0.6613 -0.4609 -0.5919
vn 0.5860 0.6176 -0.5245
vn 0.6248 0.7791 -0.0511
vn -0.1404 0.4615 -0.8760
vn -0.3549 -0.7975 -0.4879
vn 0.3034 -0.3552 0.8842
vn 0.8009 -0.3143 0.5097
vn -0.1496 -0.3254 -0.9337
vn -0.7726 0.5817 -0.2545
vn 0.4199 -0.1905 -0.8873
vn 0.4243 0.1273 -0.8965
vn -0.0000 1.0000 0.0000
usemtl natureKit-wood
s off
f 17/1/1 26/2/1 15/3/1
f 13/4/2 14/5/2 1/6/2
f 14/5/2 13/4/2 27/7/2
f 14/5/2 27/7/2 2/8/2
f 14/5/2 2/8/2 24/9/2
f 24/9/2 2/8/2 6/10/2
f 24/9/2 6/10/2 25/11/2
f 25/11/2 6/10/2 15/12/2
f 25/11/2 15/12/2 26/13/2
f 3/14/3 21/15/3 4/16/3
f 4/16/3 21/15/3 32/17/3
f 22/18/4 5/19/4 29/20/4
f 31/21/5 7/22/5 35/23/5
f 7/22/5 31/21/5 8/24/5
f 6/25/6 20/26/6 28/27/6
f 28/27/6 20/26/6 3/28/6
f 7/29/7 30/30/7 12/31/7
f 30/30/7 7/29/7 8/32/7
f 33/33/8 16/34/8 10/35/8
f 10/35/8 16/34/8 11/36/8
f 34/37/9 1/38/9 12/39/9
f 1/38/9 34/37/9 13/40/9
f 13/40/9 34/37/9 23/41/9
f 14/42/10 12/43/10 1/44/10
f 12/43/10 14/42/10 7/45/10
f 24/46/11 9/47/11 35/48/11
f 9/49/12 31/50/12 35/51/12
f 15/52/13 16/53/13 17/54/13
f 16/53/13 15/52/13 19/55/13
f 19/55/13 15/52/13 6/56/13
f 19/55/13 6/56/13 28/57/13
f 18/58/14 4/59/14 32/60/14
f 4/59/14 18/58/14 11/61/14
f 4/59/14 11/61/14 19/62/14
f 19/62/14 11/61/14 16/63/14
f 11/64/15 18/65/15 10/66/15
f 5/67/16 20/68/16 34/69/16
f 21/70/16 5/67/16 22/71/16
f 27/72/17 13/73/17 23/74/17
f 35/75/18 14/76/18 24/77/18
f 14/76/18 35/75/18 7/78/18
f 16/79/19 25/80/19 26/81/19
f 23/82/20 2/83/20 27/84/20
f 20/85/20 23/82/20 34/86/20
f 30/87/21 34/88/21 12/89/21
f 34/88/21 30/87/21 29/90/21
f 34/88/21 29/90/21 5/91/21
f 4/92/22 19/93/22 3/94/22
f 3/95/23 19/96/23 28/97/23
s 1
f 21/15/3 3/14/3 20/98/3
f 20/26/6 6/25/6 2/99/6
f 16/34/8 33/33/8 9/100/8
f 9/47/11 24/46/11 25/101/11
f 31/50/12 9/49/12 33/102/12
f 20/68/16 5/67/16 21/70/16
f 25/80/19 16/79/19 9/103/19
f 16/79/19 26/81/19 17/104/19
f 2/83/20 23/82/20 20/85/20
usemtl natureKit-leavesGreen
s off
f 8/105/24 29/106/24 30/107/24
f 29/106/24 8/105/24 22/108/24
f 22/108/24 8/105/24 21/109/24
f 21/109/24 8/105/24 31/110/24
f 21/109/24 31/110/24 32/111/24
f 32/111/24 31/110/24 33/112/24
f 32/111/24 33/112/24 18/113/24
f 18/113/24 33/112/24 10/114/24
usemtl natureKit-_defaultMat
f 7/115/24 34/116/24 12/117/24
f 34/88/24 7/118/24 20/119/24
f 20/120/24 7/118/24 35/121/24
f 20/120/24 35/122/24 3/123/24
f 3/124/24 35/122/24 19/125/24
f 19/126/24 35/122/24 9/127/24
f 19/126/24 9/128/24 16/129/24
