# Blender v2.79 (sub 0) OBJ File: 'Fixing models.blend'
# www.blender.org
mtllib rock_tall8.mtl
o rock_tall8
v 2.299720 2.020480 1.327743
v -2.299720 2.020480 -1.327744
v 2.874650 -0.000000 -1.659680
v 2.874650 0.000000 1.659680
v -0.000000 -0.000000 -3.319360
v -2.299720 2.020480 0.570303
v -1.931765 3.319360 0.532164
v -0.104183 7.107760 0.604926
v -1.931765 3.319360 1.168414
v -0.669998 7.107760 1.444191
v 0.000000 3.319360 2.283719
v 1.931765 3.319360 1.168414
v -1.541459 5.870797 1.088867
v -0.282706 3.319360 -0.198194
v 1.352235 7.107760 0.291974
v -0.456252 2.669920 -1.048599
v 1.149860 2.020480 -1.991617
v -0.495927 2.020480 -1.168646
v 0.965882 3.319360 -1.619848
v 2.241402 2.226343 -1.285657
v 1.931765 3.319360 -0.408085
v 0.000000 0.000000 3.319360
v 0.000000 2.020480 2.655488
v -2.874650 0.000000 1.659680
v -2.874650 -0.000000 -1.659680
v -0.148833 3.319360 0.532164
v 1.352235 7.107760 1.050301
v 0.614505 7.107760 -0.281603
v -0.321178 3.319360 -0.408085
v -0.177182 2.020480 0.570303
v 2.299720 2.020480 -1.327745
v 1.931765 3.319360 0.085090
v -2.299720 2.020480 1.327744
v 0.000000 7.107760 1.831015
v -0.000000 2.020480 -2.655488
v 0.056689 3.319360 -1.165209
v 0.877864 3.319360 -0.734306
v 1.622900 3.319360 -1.240519
v -1.352235 7.107760 0.727048
v -1.352235 7.107760 0.604926
v -0.197894 7.107760 0.093675
vt 14.488189 14.337484
vt -18.110237 -8.584964
vt 18.110237 -8.584964
vt -14.488189 14.337484
vt -31.367849 18.110237
vt 0.000000 -36.220474
vt 0.000000 36.220474
vt 31.367849 -18.110237
vt 31.367849 18.110237
vt -3.407582 75.953239
vt -17.211151 34.228474
vt -2.644222 34.228474
vt -13.604432 75.953239
vt 0.616112 77.537727
vt 5.418957 36.197777
vt 6.287766 77.537727
vt 2.389008 77.317924
vt -12.056321 35.849472
vt 1.893564 35.849472
vt -7.375911 77.317924
vt 5.418957 36.136765
vt -13.518807 21.958462
vt 5.772532 21.958462
vt -2.683405 36.136765
vt -5.011859 36.136765
vt -12.152287 29.047613
vt -0.664599 26.250607
vt -20.941996 19.033684
vt -0.863256 19.033684
vt -17.332085 33.467529
vt -6.239851 33.467529
vt -11.652709 27.973351
vt -8.014744 19.610779
vt -2.419285 27.973351
vt 4.644706 8.025757
vt 6.530674 21.608290
vt -3.157856 21.608290
vt -31.367849 -18.110237
vt 14.488189 14.337484
vt -18.110237 -8.584964
vt 18.110237 -8.584964
vt -14.488189 14.337484
vt 18.110237 -8.584964
vt -0.000000 13.386387
vt -14.488189 14.337484
vt -18.110237 -8.584964
vt 14.488189 14.337484
vt -18.110237 -8.584964
vt 14.488189 14.337484
vt 6.223088 14.337484
vt -14.488189 14.337484
vt 14.755436 77.671509
vt 1.624051 36.325306
vt 21.079195 36.325306
vt 1.136836 77.671509
vt 9.989917 75.365906
vt -11.880315 33.806549
vt 12.459843 33.806549
vt -8.625946 61.796215
vt 1.547974 75.365906
vt 7.048193 75.365906
vt -12.459843 33.806549
vt 11.880315 33.806549
vt -9.989917 75.365906
vt 11.881598 60.781315
vt 5.806921 32.616463
vt 12.749606 32.616463
vt 7.933474 74.435936
vt 6.600899 74.435936
vt -2.683405 36.197777
vt -0.928500 32.616463
vt -11.460778 74.435936
vt -12.749606 32.616463
vt -3.186004 74.435936
vt 12.459843 29.964231
vt -14.488189 15.362075
vt 14.488189 15.362075
vt -11.880315 29.964231
vt 11.880315 29.964231
vt -14.488189 15.362075
vt 14.488189 15.362075
vt -12.459843 29.964231
vt 21.079195 36.034435
vt 1.933394 21.855097
vt 25.094280 21.855097
vt 1.624051 36.034435
vt -0.289764 28.261986
vt -14.488189 13.386387
vt -14.166710 15.744066
vt -8.568158 28.261986
vt 14.488189 14.372784
vt -12.749606 29.103748
vt -14.488189 14.372784
vt -0.928500 29.103748
vt 4.452964 29.103748
vt 14.028934 16.707541
vt 12.749606 29.103748
vt 6.223088 14.372784
vt 14.488189 14.372784
vt 5.806921 29.103748
vt -4.422295 69.210777
vt -2.984970 55.069683
vt 6.378505 69.210777
vt 18.110237 -8.584964
vt 14.488189 14.337484
vt -18.110237 -8.584964
vt -14.488189 14.337484
vt 18.110237 -8.584964
vt -25.094280 -6.223088
vt -1.933394 -6.223088
vt -25.094280 14.488189
vt -5.411493 12.752122
vt 0.000000 28.976377
vt 12.547140 21.732283
vt -3.504658 4.452964
vt -3.084853 2.162667
vt 0.618589 12.714620
vt 9.579146 8.012658
vt 10.539598 17.675591
vt 21.079195 -0.928500
vt 17.708897 13.536393
vt 21.079195 4.452964
vt -14.755436 -6.600899
vt -14.755436 -7.933474
vt -1.136836 -6.600899
vt -7.310937 -15.758862
vt 0.000000 -19.979834
vt 6.705402 3.072807
vt -2.159397 -1.022187
vt 14.755436 -11.460778
vt 14.755436 -3.186004
vn -0.4809 0.2737 -0.8330
vn -0.0000 1.0000 -0.0000
vn 0.6081 0.1357 -0.7822
vn -0.9836 0.0081 0.1803
vn -0.4180 0.0791 -0.9050
vn -0.9833 0.0268 0.1802
vn -0.4392 0.1892 -0.8783
vn -0.7582 0.5309 -0.3784
vn 0.8233 0.4785 -0.3055
vn 0.0000 -1.0000 0.0000
vn 0.4829 0.2589 0.8365
vn 0.4809 0.2737 0.8330
vn 0.4830 0.2587 0.8365
vn 0.4809 0.2737 -0.8330
vn 0.4795 0.2836 -0.8305
vn 0.9618 0.2737 -0.0000
vn 0.9620 0.2732 -0.0000
vn -0.9618 0.2737 0.0000
vn -0.9620 0.2732 -0.0000
vn -0.9619 0.2733 -0.0000
vn -0.0000 0.0192 -0.9998
vn -0.0000 -0.0048 -1.0000
vn -0.0000 -0.0083 -1.0000
vn -0.4973 0.1029 0.8614
vn -0.4920 0.1785 0.8521
vn -0.4922 0.1764 0.8524
vn 0.4973 0.1029 0.8614
vn 0.4922 0.1764 0.8524
vn 0.4920 0.1785 0.8521
vn -0.9885 0.1512 -0.0000
vn -0.9772 0.2121 0.0000
vn -0.9766 0.2151 0.0000
vn -0.9835 0.0138 0.1803
vn -0.9834 0.0193 0.1803
vn 0.9724 0.2334 -0.0000
vn 0.9885 0.1512 -0.0000
vn 0.9766 0.2151 -0.0000
vn -0.4829 0.2589 0.8365
vn -0.4830 0.2587 0.8365
vn -0.0000 -0.0294 -0.9996
vn 0.4764 0.3036 -0.8251
vn 0.4789 0.2873 -0.8295
vn 0.4764 0.3037 -0.8251
vn 0.9621 0.2726 -0.0000
vn -0.6916 0.2982 0.6579
vn -0.4809 0.2737 0.8330
usemtl natureKit-wood
s off
f 2/1/1 5/2/1 25/3/1
f 5/2/1 2/1/1 35/4/1
f 25/5/2 22/6/2 5/7/2
f 5/7/2 22/6/2 4/8/2
f 5/7/2 4/8/2 3/9/2
f 28/10/3 32/11/3 37/12/3
f 32/11/3 28/10/3 15/13/3
f 41/14/4 26/15/4 8/16/4
f 41/17/5 37/18/5 14/19/5
f 37/18/5 41/17/5 28/20/5
f 26/21/6 18/22/6 30/23/6
f 18/22/6 14/24/6 29/25/6
f 18/22/6 29/25/6 16/26/6
f 16/27/7 17/28/7 18/29/7
f 17/28/7 16/27/7 19/30/7
f 19/30/7 16/27/7 36/31/7
f 36/32/8 16/33/8 29/34/8
f 20/35/9 38/36/9 21/37/9
f 24/38/10 25/5/10 22/6/10
s 1
f 1/39/11 22/40/12 4/41/12
f 22/40/12 1/39/11 23/42/13
f 3/43/14 5/7/14 17/44/15
f 3/43/16 1/45/17 4/46/16
f 1/45/17 3/43/16 31/47/17
f 25/48/18 33/49/19 6/50/20
f 25/48/18 6/50/20 2/51/18
f 40/52/21 26/53/22 7/54/23
f 26/53/22 40/52/21 8/55/21
f 34/56/24 9/57/25 11/58/26
f 9/57/25 34/56/24 13/59/24
f 13/59/24 34/56/24 10/60/24
f 27/61/27 11/62/28 12/63/29
f 11/62/28 27/61/27 34/64/27
f 13/65/30 7/66/31 9/67/32
f 7/66/31 13/65/30 39/68/30
f 7/66/31 39/68/30 40/69/30
f 26/15/33 41/14/4 14/70/34
f 32/71/35 27/72/36 12/73/37
f 27/72/36 32/71/35 15/74/36
f 18/22/6 26/21/33 14/24/34
f 11/75/26 33/76/38 23/77/39
f 33/76/38 11/75/26 9/78/25
f 12/79/29 23/80/13 1/81/11
f 23/80/13 12/79/29 11/82/28
f 7/83/23 30/84/40 6/85/40
f 30/84/40 7/83/23 26/86/22
f 19/87/41 31/88/42 17/44/15
f 31/88/42 19/87/41 20/89/43
f 20/89/43 19/87/41 38/90/41
f 31/91/17 12/92/37 1/93/17
f 12/92/37 31/91/17 32/94/35
f 32/94/35 31/91/17 21/95/44
f 21/95/44 31/91/17 20/96/44
f 9/97/32 6/98/20 33/99/19
f 6/98/20 9/97/32 7/100/31
f 39/101/45 13/102/45 10/103/45
f 22/104/46 23/105/39 24/106/46
f 33/107/38 24/106/46 23/105/39
f 24/108/18 33/49/19 25/48/18
f 31/47/42 3/43/14 17/44/15
f 35/4/14 17/44/15 5/2/14
usemtl natureKit-leavesGreen
s off
f 6/109/2 30/110/2 2/111/2
f 18/112/2 2/111/2 30/110/2
f 2/111/2 18/112/2 35/113/2
f 17/114/2 35/113/2 18/112/2
f 29/115/2 14/116/2 36/117/2
f 37/118/2 36/117/2 14/116/2
f 19/119/2 36/117/2 37/118/2
f 32/120/2 19/119/2 37/118/2
f 38/121/2 19/119/2 32/120/2
f 21/122/2 38/121/2 32/120/2
f 40/123/2 39/124/2 8/125/2
f 10/126/2 8/125/2 39/124/2
f 34/127/2 8/125/2 10/126/2
f 34/127/2 28/128/2 8/125/2
f 41/129/2 8/125/2 28/128/2
f 27/130/2 28/128/2 34/127/2
f 15/131/2 28/128/2 27/130/2
